<?xml version="1.0" encoding="utf-8"?>
<!-- Generator: Adobe Illustrator 16.0.0, SVG Export Plug-In . SVG Version: 6.00 Build 0)  -->
<!DOCTYPE svg PUBLIC "-//W3C//DTD SVG 1.1//EN" "http://www.w3.org/Graphics/SVG/1.1/DTD/svg11.dtd">
<svg version="1.1" id="Layer_1" xmlns="http://www.w3.org/2000/svg" xmlns:xlink="http://www.w3.org/1999/xlink" x="0px" y="0px"
	 width="200px" height="200px" viewBox="0 0 200 200" enable-background="new 0 0 200 200" xml:space="preserve">
<g id="Direction">
	<g transform="rotate({{angle}} 50 50)">
		<polygon id="arrow" opacity="0.7" fill="#80C342" enable-background="new    " points="154.049,70.972 173.704,94.615 
			154.316,118.252 143.426,118.252 143.426,117.986 162.814,94.615 143.424,72.037 143.426,70.972 		">
		
			<animate  fill="remove" accumulate="none" additive="replace" begin="0s;anim_arrow3.end" values="0.5; 0" restart="always" calcMode="linear" dur="0.5s" attributeName="opacity" id="anim_arrow1">
			</animate>
		</polygon>
		<polygon id="arrow2" opacity="0.7" fill="#80C342" enable-background="new    " points="167.33,70.708 186.984,94.345 
			167.328,117.986 156.707,117.984 156.707,117.721 175.828,94.345 156.707,71.769 156.707,70.708 		">
		
			<animate  fill="remove" accumulate="none" additive="replace" begin="anim_arrow1.end" values="0.5; 0" restart="always" calcMode="linear" dur="0.5s" attributeName="opacity" id="anim_arrow2">
			</animate>
		</polygon>
		<polygon id="arrow3" opacity="0.7" fill="#80C342" enable-background="new    " points="180.611,70.44 200,94.082 
			180.609,117.721 169.719,117.721 169.719,117.455 189.109,94.082 169.721,71.505 169.721,70.44 		">
		
			<animate  fill="remove" accumulate="none" additive="replace" begin="anim_arrow2.end" values="0.5; 0" restart="always" calcMode="linear" dur="0.5s" attributeName="opacity" id="anim_arrow3">
			</animate>
		</polygon>
	</g>
</g>
<g>
	<g id="Tire_2_5_">
		<path d="M96.578,121.637c2.363-2.793,7.196-3.027,7.196-3.027c5.894,2.074,4.318,8.361,4.318,8.361
			c-2.438,3.656-6.633,4.318-6.633,4.318S94.082,125.025,96.578,121.637z"/>
		<path fill="#333333" d="M97.551,121.133c2.009-0.734,4.758,0.631,5.939,3.475c1.438,2.793,0.754,5.779-1.258,6.509
			c-2.006,0.729-4.753-0.632-5.938-3.479C94.918,125.119,95.548,121.867,97.551,121.133z"/>
		<path fill="#999999" d="M96.816,127.521c0.996,2.041,2.849,3.035,4.34,2.418c1.492-0.613,2.103-2.734,1.103-4.77
			c-1.004-2.039-2.855-3.037-4.347-2.42C96.423,123.365,96.072,125.426,96.816,127.521z M98.2,125.227
			c0.516-0.119,1.472,0.521,1.912,1.27c0.441,0.75,0.423,1.889-0.351,2.063c-0.52,0.121-1.417-0.248-1.916-1.27
			C97.346,126.273,97.682,125.346,98.2,125.227z"/>
		<path fill="#FFFFFF" d="M100.802,123.52c-0.516,0.115-1.051,1.363-1.051,1.363l-0.32-0.209c0.34-0.926,1.053-1.369,1.053-1.369
			L100.802,123.52z"/>
	</g>
	<g id="Tire_2_4_">
		<path d="M70.224,109.174c2.359-2.792,7.195-3.029,7.195-3.029c5.894,2.074,4.317,8.363,4.317,8.363
			c-2.438,3.656-6.631,4.316-6.631,4.316S67.725,112.563,70.224,109.174z"/>
		<path fill="#333333" d="M71.195,108.672c2.008-0.734,4.756,0.629,5.938,3.473c1.443,2.789,0.76,5.774-1.254,6.504
			c-2.008,0.732-4.756-0.625-5.939-3.473C68.561,112.656,69.189,109.406,71.195,108.672z"/>
		<path fill="#999999" d="M70.458,115.059c1.001,2.037,2.853,3.037,4.345,2.418c1.493-0.615,2.104-2.734,1.1-4.771
			c-1-2.039-2.855-3.038-4.344-2.42C70.066,110.904,69.715,112.965,70.458,115.059z M71.842,112.766
			c0.518-0.123,1.475,0.517,1.916,1.271c0.438,0.75,0.42,1.887-0.354,2.062c-0.518,0.117-1.414-0.248-1.914-1.271
			C70.988,113.809,71.326,112.885,71.842,112.766z"/>
		<path fill="#FFFFFF" d="M74.445,111.055c-0.517,0.115-1.054,1.363-1.054,1.363l-0.315-0.209c0.336-0.922,1.051-1.369,1.051-1.369
			L74.445,111.055z"/>
	</g>
	<g id="Tire_2_2_">
		<path d="M58.261,103.799c2.358-2.792,7.19-3.029,7.19-3.029c5.898,2.074,4.318,8.363,4.318,8.363
			c-2.441,3.656-6.631,4.316-6.631,4.316S55.762,107.188,58.261,103.799z"/>
		<path fill="#333333" d="M59.232,103.297c2.008-0.734,4.756,0.629,5.938,3.475c1.439,2.789,0.752,5.772-1.256,6.504
			c-2.008,0.73-4.754-0.627-5.938-3.475C56.597,107.277,57.227,104.031,59.232,103.297z"/>
		<path fill="#999999" d="M58.494,109.684c0.996,2.039,2.851,3.037,4.343,2.418c1.498-0.615,2.101-2.733,1.103-4.771
			c-1-2.039-2.855-3.038-4.345-2.42C58.104,105.527,57.748,107.586,58.494,109.684z M59.88,107.389
			c0.517-0.119,1.472,0.52,1.913,1.269c0.439,0.749,0.42,1.892-0.352,2.06c-0.517,0.119-1.414-0.246-1.912-1.268
			C59.025,108.434,59.359,107.508,59.88,107.389z"/>
		<path fill="#FFFFFF" d="M62.482,105.682c-0.521,0.113-1.054,1.365-1.054,1.365l-0.319-0.213c0.34-0.922,1.055-1.369,1.055-1.369
			L62.482,105.682z"/>
	</g>
	<path fill="#515151" d="M55.73,71.456l3.869-3.021l3.809-1.529l2.595-0.279l2.208,0.279l2.377,1.208l0.512,1.347
		c-0.645,3.11-8.585,13.791-8.585,13.791l-5.233-0.567l-0.338-5.33c0.324-3.066-1.221-4.811-1.221-4.811l0.012-0.889"/>
	<path fill="#5B5B5B" d="M69.539,70.777l0.869-1.177l-0.188-1.346l-3.021-1.3c-3.9-1.021-10.26,4.088-10.26,4.088
		c-0.742,1.116,3.623,2.645,3.623,2.645l-0.789,0.327c-4.506-1.486-4.039-2.555-4.039-2.555c0.32-1.578,6.78-4.458,6.78-4.458
		c1.718-0.79,3.808-0.651,3.808-0.651c2.043-0.231,4.783,1.626,4.783,1.626v1.486l-0.742,1.58L69.539,70.777z"/>
	<path fill="#666666" d="M57.291,82.685l1.111-1.499l1.889,0.858c1.902,1.114,3.313-0.858,3.313-0.858l0.536,0.951l-5.944,4.861
		c-3.527,1.656-3.297-1.099-3.297-1.099L57.291,82.685z"/>
	<g>
		<polygon fill="#6B6B6B" points="59.449,96.161 90.965,110.059 89.384,114.549 57.592,99.627 57.592,97.459 		"/>
		<path fill="#515151" d="M69.615,70.961l0.371,8.521l0.916,0.311l0.385,9.789l0.279,0.186l0.51-0.14v-0.465l3.345,1.517v0.991
			h0.575l0.26-0.325l-0.26-9.333l1.143,0.495l-0.324-8.807l-6.826-2.972L69.615,70.961z M71.715,84.983l3.752,1.627v3.622
			l-3.436-1.47L71.715,84.983z M71.474,80.49l3.761,1.615l0.232,4.272l-3.762-1.717L71.474,80.49z M70.127,71.472l5.865,2.646
			l0.404,7.709l-5.99-2.739L70.127,71.472z"/>
		<g>
			<g>
				<polygon fill="#CECECE" points="113.445,104.391 70.47,86.997 55.734,95.169 97.479,114.119 				"/>
				<path fill="#B7B7B7" d="M83.955,92.25c-1.096,0.884-3.232,1.003-3.232,1.003c-6.916-0.924-10.818-4.864-10.818-4.864
					l-7.996-9.131c0.84-5.251,6.275-7.232,6.275-7.232l12.539,4.195c4.867,1.972,8.495,7.718,8.495,7.718v1.159
					C89.021,87.681,83.955,92.25,83.955,92.25z"/>
				<path fill="#A0A0A0" d="M61.087,84.236l6.719,8.524l3.669-2.089l1.903,2.089l-3.716,2.105v1.609l-1.359,1.051l-5.016-2.786
					l-4.645-10.402c0,0,0-5.883,2.754-9.22c0,0,3.748-4.587,8.391-4.03c0,0,0.99,0.914,0.99,1.633c0,0-3.65-1.757-8.295,4.434
					C60.625,79.631,61.09,84.233,61.087,84.236z"/>
				<path fill="#EAEAEA" d="M60.843,83.925l6.719,8.524l3.669-2.089l1.903,2.089l-3.715,2.105v1.609l-1.364,1.052l-5.012-2.786
					l-4.646-10.402c0,0,0-5.883,2.758-9.22c0,0,3.744-4.587,8.388-4.03c0,0,0.991,0.914,0.991,1.633c0,0-3.653-1.757-8.297,4.434
					C60.379,79.321,60.843,83.921,60.843,83.925z"/>
				<path fill="#A8A8A8" d="M88.326,96.99c-1.291,1.047-3.822,1.187-3.822,1.187c-8.194-1.091-12.805-5.754-12.805-5.754
					l-9.184-11.627c0.993-6.213,7.903-8.252,7.903-8.252l14.084,5.482c5.755,2.333,10.047,9.132,10.047,9.132v1.371
					C94.32,91.587,88.324,96.99,88.326,96.99z"/>
				<path fill="#898989" d="M95.795,102.911c-1.608,1.303-4.766,1.479-4.766,1.479c-10.216-1.361-15.974-7.178-15.974-7.178
					L63.6,82.711c1.24-7.752,8.916-9.647,8.916-9.647l14.656,3.037c16.547,5.387,16.385,14.546,16.385,14.546v1.708
					C103.27,96.169,95.795,102.91,95.795,102.911z"/>
				<path fill="#EAEAEA" d="M111.349,92.12l0.001,1.005l-13.635,10.094l-1.486-0.309l-0.743-0.371l-1.55,0.371l-0.837-0.742
					c-0.223-1.919,0.837-4.398,0.837-4.398l13.932-7.306C110.406,89.845,111.349,92.12,111.349,92.12L111.349,92.12z"/>
				<polygon fill="#303030" points="107.311,90.357 96.227,96.277 98.581,97.459 109.576,91.425 				"/>
			</g>
			<polygon fill="#A0A0A0" points="97.934,102.91 89.642,107.119 98.456,111.33 			"/>
		</g>
		<path fill="#7A7A7A" d="M72.541,104.795l-4.082-1.76c-3.02-4.366-7.571-3.901-7.571-3.901c-6.315,0.371-5.153,6.394-5.153,6.394
			l0.971,0.164c0.514-4.654,4.271-3.123,4.271-3.123c4.416,1.068,4.787,7.084,4.787,7.084l1.023-0.119l1.207,0.238L72.541,104.795z"
			/>
		<path fill="#6B6B6B" d="M82.482,110.605c-4.244-7.149-9.94-5.818-9.94-5.818c-3.901,1.053-4.302,4.552-4.302,4.552v0.28
			l0.836,0.341c0.716-2.846,3.934-1.608,3.934-1.608c4.766,1.795,6.529,8.447,6.529,8.447l0.715,0.5h0.742l1.486-0.713
			C83.564,113.213,82.482,110.609,82.482,110.605z"/>
		<polygon fill="#727272" points="98.456,114.549 55.734,95.169 55.734,96.786 97.713,115.881 		"/>
		<path fill="#636363" d="M98.642,115.163l-0.186,3.103c-3.158,3.408-6.562,2.602-6.562,2.602c-5.45-1.795-9.845-4.572-9.845-4.572
			v-4.475c0,0.305,1.24,1.246,1.24,1.246l7.305,3.229c3.985,1.789,6.185-0.838,6.185-0.838L98.642,115.163z"/>
		<path fill="#6B6B6B" d="M97.543,116.313c-4.065,0.278-3.127,7.588-3.127,7.588l0.882,0.213c-0.51-5.061,3.158-3.992,3.158-3.992
			c6.037,1.996,7.232,8.822,7.232,8.822c0.918,0.467,1.623,0,1.623,0l1.778-0.742C107.046,115.385,97.546,116.313,97.543,116.313z"
			/>
		<path fill="#A0A0A0" d="M84.277,109.766c-4.488,1.809-0.988,3.301-0.988,3.301l7.305,3.229c3.712,1.953,6.185-0.838,6.185-0.838
			L84.277,109.766z"/>
		<polygon fill="#BCBCBC" points="92.675,113.59 89.384,115.764 89.384,119.955 90.594,120.416 90.594,116.299 93.641,114.029 		"/>
		<polygon fill="#BCBCBC" points="85.266,118.084 83.99,117.459 83.99,113.381 87.162,111.084 88.182,111.547 85.109,113.875 		"/>
		<path fill="#515151" d="M57.218,75.45l0.372,8.52l0.915,0.313l0.385,9.788l0.281,0.186l0.51-0.14v-0.465l3.345,1.517v0.991h0.573
			l0.263-0.325l-0.263-9.333l1.146,0.495l-0.326-8.807l-6.826-2.972L57.218,75.45z M59.32,89.471l3.752,1.627v3.623l-3.437-1.47
			L59.32,89.471z M59.078,84.979l3.763,1.615l0.231,4.272l-3.762-1.717L59.078,84.979z M57.732,75.962l5.865,2.646L64,86.317
			l-5.99-2.74L57.732,75.962z"/>
	</g>
	<g id="Body">
		<path fill="#C4C4C4" d="M115.599,89.843l-18.021,9.658l-0.496,1.485l0.496,16.223c8.917,1.115,9.78,10.277,9.78,10.277
			c2.229,1.736,7.432,3.283,7.432,3.283l4.218-0.67l15.108-8.062v-1.856l-0.012-9.166c0.124-1.732-0.773-5.076-0.773-5.076
			l-1.455-4.457l1.238-0.99c0.448-1.826-1.734-3.343-1.734-3.343l-1.857-2.477l-11.764-5.324L115.599,89.843z"/>
		<path fill="#FFFFFF" d="M132.631,113.992l-3.531,0.557l-6.066,3.064l-3.158,3.188l-5.695-1.053l-1.609,0.928l4.396,3.224h5.758
			l7.678-4.336c0.682-0.93,2.168-2.105,2.168-2.105l1.92-2.91l-0.236-3.219L132.631,113.992z"/>
		<polygon fill="#4C4C4C" points="129.227,115.17 123.531,118.018 120.621,120.928 120.621,123.9 122.726,123.9 130.404,119.564 
			132.013,117.924 132.013,114.549 		"/>
		<path fill="#161616" d="M110.74,107.675l1.832,4.599c1.054,0.246,0.883,2.994,0.883,2.994l6.176,2.346l13.117-6.756
			c0.611-2.354,0.486-4.328,0.486-4.328l-1.222-5.572C127.432,105.168,110.738,107.676,110.74,107.675z"/>
		<path fill="#424656" d="M110.9,107.675l1.857,4.459c1.054,0.246,0.807,2.972,0.807,2.972l6.066,2.354l12.992-6.748
			c0.611-2.354,0.611-4.335,0.611-4.335l-1.222-5.573C127.432,105.016,110.9,107.676,110.9,107.675z"/>
		<polygon fill="#161616" points="110.505,114.711 98.246,107.861 97.875,101.982 98.52,101.732 109.082,106.563 110.505,113.188 		
			"/>
		<path fill="#4C4C4C" d="M130.962,97.773l-16.097,8.915l-0.93,0.125l-3.033,0.123l2.104,2.725h2.729l2.347-0.557l13.559-7.185
			l1.3-1.176c1.758-1.424-2.164-4.582-2.164-4.582C131.335,97.459,130.961,97.77,130.962,97.773z"/>
		<polygon fill="#424656" points="110.343,114.549 98.084,107.861 97.713,101.982 98.52,101.732 108.921,106.563 110.343,113.188 		
			"/>
		<polyline fill="#686868" points="107.311,113.869 103.72,111.826 103.72,113.127 107.311,115.17 107.311,114.055 		"/>
		<polygon fill="#AAAAAA" points="134.254,114.906 132.728,117.221 132.509,113.805 134.242,111.016 		"/>
		<polygon fill="#AAAAAA" points="117.093,120.287 117.093,123.9 119.879,123.9 119.879,120.803 		"/>
		<ellipse fill="#EDEDED" cx="118.342" cy="122.373" rx="1.102" ry="0.998"/>
		<polygon fill="#353535" points="132.013,115.17 120.621,121.699 120.676,121.096 131.982,114.766 		"/>
		<polygon fill="#353535" points="132.013,116.287 120.621,122.766 120.621,122.117 131.982,115.881 		"/>
		<polygon fill="#353535" points="132.013,117.775 120.621,123.9 120.621,123.371 132.029,117.23 		"/>
		<path fill="#EDEDED" d="M125.142,119.824c-0.202-0.764,0.253-1.541,1.017-1.746c0.765-0.207,1.463,0.02,1.664,0.783
			c0.203,0.758-0.139,1.566-0.902,1.77C126.158,120.832,125.346,120.58,125.142,119.824z"/>
		<path fill="#EDEDED" d="M133,114.031c-0.355,1.01,0.287,1.139,0.287,1.139c1.084-0.186,0.73-1.916,0.73-1.916
			C133.353,112.604,133,114.035,133,114.031z"/>
		<polygon fill="#353535" points="134.254,118.797 132.892,119.842 131.455,119.842 134.251,117.057 		"/>
		<path fill="#353535" d="M121.486,125.322c-2.877-0.065-5.752,1.699-5.752,1.699l1.357,0.498l3.158-1.115l1.083-1.082"/>
		<path fill="#707070" d="M134.254,119.842l-0.002,2.201c-1.021,1.113-11.25,6.172-11.25,6.172c-4.676,2.725-7.27,2.561-7.27,2.561
			c-4.017-0.012-8.38-3.282-8.38-3.282c-0.058-0.901-0.829-3.181-0.829-3.181c2.51,0.711,6.975,3.398,6.975,3.398
			c0.279,0.246,2.477,0.928,2.477,0.928c1.828,0.432,4.366-0.807,4.366-0.807l2.415-2.508c1.053-0.682,6.779-3.625,6.779-3.625
			c0.899-0.246,3.438-0.525,3.438-0.525L134.254,119.842L134.254,119.842z"/>
		<polygon opacity="0.6" fill="#FFFFFF" enable-background="new    " points="113.269,123.371 113.593,127.133 114.708,127.52 
			114.475,123.9 		"/>
		<polygon opacity="0.6" fill="#FFFFFF" enable-background="new    " points="113.988,115.881 113.988,119.225 114.708,119.35 
			114.708,116.268 		"/>
		<polygon fill="#FFFFFF" points="130.218,124.445 124.273,127.508 124.273,126.021 130.218,123.109 		"/>
		<path fill="#C9C9C9" d="M112.945,127.52c-0.187,0.344,0.324,2.756,0.324,2.756c0.201,0.061,0.721,0.094,0.721,0.094
			c-0.117-0.23-0.272-2.293-0.272-2.293C113.531,128.047,112.943,127.52,112.945,127.52z"/>
	</g>
	<polygon fill="#777777" points="107.311,90.357 96.413,96.161 98.581,97.213 109.414,91.332 	"/>
	<path opacity="0.6" fill="#E5E5E5" enable-background="new    " d="M128.955,103.344c1.338,6.666,0.231,9.152,0.231,9.152
		l1.291-0.67c0.493-1.844-1.291-8.607-1.291-8.607L128.955,103.344z"/>
	<polygon opacity="0.5" fill="#E5E5E5" enable-background="new    " points="104.648,104.58 105.514,111.826 106.728,112.578 
		105.514,104.98 	"/>
</g>
</svg>
