<?xml version="1.0" encoding="utf-8"?>
<!-- Generator: Adobe Illustrator 16.0.0, SVG Export Plug-In . SVG Version: 6.00 Build 0)  -->
<!DOCTYPE svg PUBLIC "-//W3C//DTD SVG 1.1//EN" "http://www.w3.org/Graphics/SVG/1.1/DTD/svg11.dtd">
<svg version="1.1" id="Layer_1" xmlns="http://www.w3.org/2000/svg" xmlns:xlink="http://www.w3.org/1999/xlink" x="0px" y="0px"
	 width="100px" height="100px" viewBox="0 0 100 100" enable-background="new 0 0 100 100" xml:space="preserve">

	 <style type="text/css">
	  .arrow{fill:{{statusColor}};display:{{arrowDisplay}}}
	  .hourglass{fill:{{hourglassColor}};display:{{hourglassDisplay}}}
    .parking{display:{{parkingDisplay}};fill:{{parkingColor}}}
	 </style>
	}

<g transform="translate({{translateX}},0) scale({{scaleX}},1)">
	<g display="none">
		<path id="smoke_2" display="inline" fill="#666766" d="M66.838,48.515c0.199,0.299-0.301,0.599-0.301,0.599c0.5,0.602,0,1,0,1
			c-0.199,0.301-0.898,0-0.898,0c-0.199,0.602-0.801,0.5-0.801,0.5c-0.699,0-0.602-0.6-0.602-0.6c-0.604-0.101-0.5-0.5-0.5-0.5
			c0-0.3,0.602-0.3,0.602-0.3c-0.699-0.301-0.5-0.801-0.5-0.801c0.199-0.6,1-0.199,1-0.199c0.699-0.601,1.199,0.199,1.199,0.199
			C66.338,47.914,66.838,48.515,66.838,48.515z		">
<animateTransform  type="translate" fill="remove" attributeName="transform" dur="1" calcMode="linear" restart="always" values="0,0;2,-2" begin="0s" additive="replace" repeatCount="indefinite" accumulate="none" attributeType="XML">
				</animateTransform>
			
				<animate  fill="remove" to="0" attributeName="opacity" dur="1" calcMode="linear" restart="always" begin="0.5s" additive="replace" repeatCount="indefinite" accumulate="none" from="1">
				</animate>
		</path>
		<path id="smoke_1" display="inline" fill="#999999" d="M65.539,49.414c0.102,0.199-0.199,0.4-0.199,0.4c0.301,0.399,0,0.6,0,0.6
			c-0.102,0.199-0.5,0-0.5,0c-0.102,0.4-0.5,0.301-0.5,0.301c-0.4,0-0.4-0.4-0.4-0.4c-0.396-0.1-0.299-0.301-0.299-0.301
			c0-0.199,0.299-0.199,0.299-0.199c-0.5-0.2-0.299-0.5-0.299-0.5c0.104-0.399,0.604-0.1,0.604-0.1c0.396-0.301,0.694,0.1,0.694,0.1
			C65.238,49.113,65.539,49.414,65.539,49.414z		">
<animateTransform  type="translate" fill="remove" attributeName="transform" dur="0.5" calcMode="linear" restart="always" values="0,0;1,-1" begin="0s" additive="replace" repeatCount="indefinite" accumulate="none" attributeType="XML">
				</animateTransform>
			
				<animate  fill="remove" to="0" attributeName="opacity" dur="1" calcMode="linear" restart="always" begin="0.5s" additive="replace" repeatCount="indefinite" accumulate="none" from="1">
				</animate>
		</path>
	</g>
	
		<animateTransform  type="translate" fill="remove" attributeName="transform" dur="1" calcMode="linear" restart="always" values="0,0;0.1,0.1;0,0" begin="0s" additive="replace" repeatCount="indefinite" accumulate="none" attributeType="XML">
		</animateTransform>
	
		<animateTransform  type="translate" fill="remove" attributeName="transform" dur="1" calcMode="linear" restart="always" values="0,0;0.1,0.1;0,0" begin="0s" additive="replace" repeatCount="indefinite" accumulate="none" attributeType="XML">
		</animateTransform>
	<path fill="#DBDBDB" d="M60.059,59.971c0,0-0.172-1.029-0.713-0.904v0.063c0,0-0.578,0.425,0.572,1.756L60.059,59.971z"/>
	<g id="Tire_2_1_">
		<path d="M46.363,53.932c0,0-1.259-0.236-1.893-1.563c0,0-0.292-2.275,1.566-3.029c0,0,1.465,0.084,2.103,1.098
			C48.8,51.664,46.363,53.932,46.363,53.932z"/>
		<path fill="#333333" d="M48.047,52.609c-0.446,1.033-1.324,1.521-1.915,1.262c-0.59-0.266-0.711-1.346-0.188-2.354
			c0.445-1.03,1.324-1.521,1.914-1.265C48.448,50.521,48.542,51.699,48.047,52.609z"/>
		<path fill="#999999" d="M47.699,50.838c-0.436-0.227-1.03,0.141-1.397,0.881c-0.366,0.736-0.242,1.506,0.193,1.729
			c0.436,0.223,1.031-0.14,1.397-0.882C48.181,51.811,48.135,51.063,47.699,50.838z M47.583,52.484
			c-0.184,0.369-0.467,0.502-0.621,0.461c-0.231-0.064-0.202-0.478-0.046-0.746c0.157-0.27,0.466-0.502,0.622-0.461
			C47.692,51.779,47.766,52.115,47.583,52.484z"/>
		<path fill="#FFFFFF" d="M46.899,51.043c0,0,0.205,0.162,0.279,0.494l-0.103,0.074c0,0-0.126-0.449-0.28-0.492L46.899,51.043z"/>
		
			<animateTransform  type="translate" fill="remove" attributeName="transform" dur="1" calcMode="linear" restart="always" values="0,0;0.1,0.1;0,0" begin="0s" additive="replace" repeatCount="indefinite" accumulate="none" attributeType="XML">
			</animateTransform>
	</g>
	<g id="Tire_2_3_">
		<path d="M59.077,46.523c0,0-1.259-0.237-1.896-1.562c0,0-0.293-2.276,1.565-3.028c0,0,1.467,0.084,2.104,1.096
			C61.516,44.254,59.077,46.523,59.077,46.523z"/>
		<path fill="#333333" d="M60.762,45.202c-0.445,1.032-1.322,1.524-1.914,1.26c-0.592-0.263-0.711-1.345-0.188-2.354
			c0.445-1.027,1.324-1.521,1.914-1.26C61.163,43.111,61.256,44.288,60.762,45.202z"/>
		<path fill="#999999" d="M60.413,43.431c-0.438-0.224-1.03,0.139-1.396,0.879c-0.363,0.737-0.242,1.506,0.192,1.728
			c0.438,0.226,1.028-0.14,1.396-0.877C60.896,44.4,60.852,43.652,60.413,43.431z M60.299,45.075
			c-0.186,0.37-0.467,0.502-0.621,0.461c-0.229-0.063-0.203-0.476-0.047-0.746c0.157-0.271,0.469-0.502,0.623-0.459
			C60.404,44.372,60.482,44.709,60.299,45.075z"/>
		<path fill="#FFFFFF" d="M59.613,43.633c0,0,0.205,0.16,0.277,0.492l-0.104,0.078c0,0-0.125-0.451-0.279-0.492L59.613,43.633z"/>
		
			<animateTransform  type="translate" fill="remove" attributeName="transform" dur="1" calcMode="linear" restart="always" values="0,0;0.1,0.1;0,0" begin="0s" additive="replace" repeatCount="indefinite" accumulate="none" attributeType="XML">
			</animateTransform>
	</g>
	<path fill="#151515" d="M36.383,50.021c0,0-0.083-1.833,0.25-1.833l0.5-1.125l5.083-4.817c0,0-0.667-1.058-0.292-1.225h0.292
		l0.452,0.727l2.463-2.31c0,0,6.042-4.5,9.126-4.083c0,0,2.125-0.833,2.667-0.75c0,0,4.625,1.5,5.5,3.333
		c0,0,0.868,1.416,0.602,3.333c0,0-0.037,0.574-1.727,1.625c0,0-0.802-1.584-2.232-0.25c0,0-1.06,1.357-1.143,2.866l-9.25,5.745
		c0,0-0.75-2.568-2.417-1.152c0,0-1.378,1.111-1.126,3.139c0,0-2.957,0.818-5.749-0.285C39.383,52.959,37.342,51.813,36.383,50.021z
		"/>
	<path fill="#515151" d="M37.183,48.1c0,0,1.742,2.562,4.758,2.796l-0.094,0.744c0,0-3.781-0.191-4.875-2.775L37.183,48.1z"/>
	<path fill="#151515" d="M37.183,48.375c0,0,1.155,2.227,4.394,2.682l0.067,0.063c0,0-3.031-0.187-4.563-2.738h0.102V48.375z"/>
	<path fill="#151515" d="M37.048,48.709c0,0,1.155,2.227,4.394,2.682l0.067,0.063c0,0-3.031-0.188-4.563-2.74h0.102V48.709
		L37.048,48.709z"/>
	<path fill="#C9C9C9" d="M37.144,49.021H36.8c0,0-0.328-0.921-0.016-1.484c0,0,0.229-0.682,0.349-0.474
		C37.133,47.064,37.238,48.553,37.144,49.021z"/>
	<path fill="#C9C9C9" d="M41.191,51.521c0,0,0.281-0.578,0.75-0.625c0,0,2.063-0.172,2.406,0c0,0,0.383,0.719-0.301,0.78
		C44.046,51.678,41.878,51.803,41.191,51.521z"/>
	<polygon fill="#D3D3D3" points="37.183,50.6 37.152,51.264 39.3,52.959 39.378,52.193 	"/>
	<path fill="#4C5A72" d="M45.008,40.001c0,0-2.896,2.479-3.365,3.313c0,0,2.344,3.048,6.427,3.659l2.208-3.883
		C50.278,43.09,46.508,40.585,45.008,40.001z"/>
	<path fill="#4C5A72" d="M53.259,41.022c0,0-2.168,1.543-2.646,2.657l-1.188,2.052l0.375-0.218l0.688,0.362l3.043-1.979
		C53.527,43.897,53.509,41.668,53.259,41.022z"/>
	<path fill="#4C5A72" d="M53.777,40.71c0,0,0.271,1.242,0.334,2.777l4.063-2.782l-1.007-1.141
		C57.165,39.564,56.041,38.929,53.777,40.71z"/>
	<polyline fill="#26344F" points="57.486,39.454 58.425,40.48 59.064,40.189 59.064,39.454 57.425,39.454 	"/>
	<path fill="#EAEAEA" d="M48.592,46.973l1.021-0.659c0,0,0.708,0.042,1.063,0v-0.271l-0.083-0.168l8.476-5.688l0.297,0.125
		c0,0,0.34,0.959,0.434,1.864c0,0-1.268,0.201-1.867,3.335l-9.25,5.743C48.675,51.258,49.05,48.342,48.592,46.973z"/>
	<path fill="#4C5A72" d="M52.402,35.71c0,0,3.451,1.411,4.5,2.833h3.416c0,0-2.582-2.542-5.396-3.063
		C54.925,35.48,52.695,35.543,52.402,35.71z"/>
	<polygon fill="#FF0000" points="48.061,37.366 47.983,37.923 49.885,38.949 50.616,38.47 50.616,38.034 48.733,37.012 	"/>
	<polygon fill="#CCCCCC" points="49.425,38.163 49.425,38.711 51.17,39.613 51.982,39.267 51.645,38.543 50.175,37.741 	"/>
	<polyline fill="#0062FF" points="51.02,39.526 51.02,38.906 51.675,38.584 53.361,39.484 53.652,39.967 52.727,40.468 
		51.02,39.526 	"/>
	<g>
		<path fill="#ED2626" d="M49.376,47.896c0.084-0.08,0.192-0.175,0.335-0.267c0.175-0.113,0.31-0.125,0.399-0.051
			c0.082,0.062,0.14,0.207,0.153,0.404c0.019,0.211-0.01,0.398-0.065,0.566c-0.078,0.23-0.228,0.416-0.397,0.525
			c-0.053,0.033-0.104,0.064-0.144,0.07l0.072,0.938l-0.175,0.107L49.376,47.896z M49.638,48.902
			c0.041-0.002,0.091-0.027,0.147-0.064c0.214-0.141,0.33-0.398,0.307-0.725c-0.024-0.304-0.164-0.372-0.358-0.25
			c-0.078,0.054-0.136,0.103-0.165,0.136L49.638,48.902z"/>
		<path fill="#ED2626" d="M51.716,47.547c0.062,0.808-0.194,1.414-0.545,1.646c-0.358,0.23-0.649-0.076-0.703-0.787
			c-0.059-0.744,0.175-1.402,0.538-1.636C51.382,46.527,51.661,46.859,51.716,47.547z M50.654,48.279
			c0.039,0.498,0.229,0.84,0.509,0.662c0.278-0.186,0.403-0.728,0.36-1.255c-0.03-0.462-0.215-0.854-0.51-0.667
			C50.727,47.209,50.613,47.762,50.654,48.279z"/>
		<path fill="#ED2626" d="M51.855,46.254l0.179-0.112l0.164,2.083l0.584-0.381l0.02,0.255l-0.762,0.495L51.855,46.254z"/>
		<path fill="#ED2626" d="M52.995,45.521l0.179,2.337L53,47.97l-0.182-2.339L52.995,45.521z"/>
		<path fill="#ED2626" d="M54.436,46.961c-0.061,0.092-0.188,0.23-0.352,0.346c-0.389,0.248-0.709,0.018-0.771-0.747
			c-0.059-0.729,0.194-1.42,0.625-1.69c0.166-0.111,0.275-0.115,0.326-0.104l-0.021,0.271c-0.07-0.016-0.168,0.012-0.28,0.082
			c-0.324,0.215-0.507,0.694-0.462,1.313c0.045,0.572,0.271,0.813,0.599,0.604c0.106-0.074,0.217-0.183,0.28-0.289L54.436,46.961z"
			/>
		<path fill="#ED2626" d="M55.291,45.333l-0.534,0.353l0.063,0.838l0.601-0.383l0.017,0.255l-0.768,0.496l-0.186-2.334l0.738-0.479
			l0.021,0.252l-0.563,0.362l0.057,0.743l0.535-0.354L55.291,45.333z"/>
	</g>
	<path d="M53.547,43.893c0,0-0.056,1.027-0.02,4.457"/>
	<polygon fill="#3F3F3F" points="52.564,46.083 53.361,45.521 53.361,46.006 52.564,46.523 	"/>
	<polygon fill="#3F3F3F" points="57.529,43.045 58.327,42.486 58.327,42.971 57.529,43.488 	"/>
	<path fill="#697FA3" d="M41.941,43.45c0,0,5.172-1.99,8-0.303l-1.969,3.6C47.972,46.747,44.988,46.627,41.941,43.45z"/>
	<path fill="#697FA3" d="M53.174,41.288c0,0-2.718,2.498-3.077,4.233l0.362,0.202l2.902-1.889
		C53.361,43.834,53.423,41.569,53.174,41.288z"/>
	<path fill="#697FA3" d="M53.956,40.85c0,0,0.379,2.078,0.235,2.453l3.593-2.563C57.784,40.741,54.8,41.913,53.956,40.85z"/>
	<path fill="#5C749B" d="M57.93,39.613l0.397,0.643c0,0-0.177-0.599,0-0.643C58.503,39.569,57.93,39.613,57.93,39.613z"/>
	<path fill="#A3B7D3" d="M49.55,43.225c0,0-2.959,2.88-3.672,2.855l1.836,0.359C47.714,46.444,49.691,43.756,49.55,43.225z"/>
	<path fill="#A3B7D3" d="M52.997,41.756l0.177,1.953c0,0-0.968,0.672-1.063,0.719C52.018,44.475,52.725,41.958,52.997,41.756z"/>
	<path fill="#A3B7D3" d="M54.27,41.366c0,0,0.19,1.164,0.166,1.621l0.787-0.684C55.223,42.303,55.145,41.944,54.27,41.366z"/>
	<ellipse id="lightblue" opacity="0.3" fill="#0062FF" enable-background="new    " cx="52.639" cy="39.613" rx="3.35" ry="2.092">
	
		<animate  fill="remove" to="0" attributeName="opacity" dur="0.5" calcMode="linear" restart="always" begin="0.1s;light2.end" additive="replace" repeatCount="indefinite" accumulate="none" from="0.3" id="light1">
		</animate>
	</ellipse>
	<ellipse id="lightred" opacity="0.3" fill="#FF0000" enable-background="new    " cx="47.823" cy="37.023" rx="3.348" ry="2.092">
	
		<animate  fill="remove" to="0" attributeName="opacity" dur="0.5" calcMode="linear" restart="always" begin="0.2s;light2.end" additive="replace" repeatCount="indefinite" accumulate="none" from="0.5" id="light1">
		</animate>
	</ellipse>
	<path fill="#697FA3" d="M55.55,37.023c0,0,1.453,0.874,1.617,1.312h2.63c0,0-2.402-1.813-3.277-2.094
		C56.52,36.241,57.425,37.274,55.55,37.023z"/>
	<path fill="#D32424" d="M63.059,40.098c0,0-0.32,0.408-0.578,0.549l0.104,0.938c0,0,0.243-0.125,0.465-0.506
		C63.048,41.075,63.175,40.256,63.059,40.098z"/>
	<path id="parking" class="parking" d="M53.154,17.552l-9.925,0.146l-4.863,8.393l5.061,8.247l9.925-0.146l4.863-8.393L53.154,17.552z
		 M49.126,30.557c-0.078,0.056-0.208,0.083-0.39,0.083h-0.21H45.77h-0.16c-0.148,0-0.263-0.031-0.344-0.093
		c-0.08-0.062-0.12-0.15-0.12-0.265c0-0.188,0.082-0.313,0.247-0.372c0.136-0.05,0.216-0.081,0.238-0.093
		c0.022-0.011,0.046-0.037,0.071-0.079c0.049-0.073,0.074-0.189,0.074-0.351v-6.885c0-0.16-0.025-0.277-0.074-0.351
		c-0.025-0.041-0.049-0.067-0.071-0.079c-0.022-0.012-0.103-0.042-0.238-0.093c-0.165-0.06-0.247-0.184-0.247-0.371
		c0-0.115,0.04-0.203,0.12-0.266c0.081-0.062,0.195-0.093,0.344-0.093h0.16h2.751v8.082c0,0.179,0.03,0.307,0.092,0.385
		c0.033,0.046,0.064,0.075,0.093,0.086c0.029,0.012,0.124,0.04,0.285,0.086c0.197,0.051,0.296,0.177,0.296,0.379
		C49.286,30.388,49.232,30.483,49.126,30.557z M52.02,25.805c-0.279,0.444-0.672,0.772-1.176,0.983
		c-0.416,0.17-1.016,0.255-1.799,0.255v-0.736c0.178-0.046,0.303-0.094,0.374-0.145c0.072-0.051,0.136-0.128,0.188-0.233
		c0.087-0.18,0.13-0.42,0.13-0.723v-2.201c0-0.215-0.014-0.376-0.043-0.481c-0.029-0.105-0.087-0.201-0.173-0.289
		c-0.12-0.128-0.28-0.208-0.482-0.24v-0.743c0.849,0,1.477,0.09,1.879,0.269c0.466,0.206,0.834,0.522,1.105,0.949
		c0.275,0.437,0.414,0.97,0.414,1.604C52.438,24.777,52.299,25.355,52.02,25.805z"/>
</g>
<path id="Idle" class="hourglass" d="M53.095,17.539l-9.926,0.173l-4.841,8.392l5.084,8.247l9.901-0.146l4.863-8.433L53.095,17.539z M49.49,30.516
	l-2.625,0.005c0,0-0.5,0.019-0.516-0.293c0,0-0.031-0.281,0.375-0.391c0,0,0.234,0.016,0.25-0.453l-0.031-5.906
	c0,0,0.047-0.266-0.359-0.344c0,0-0.268-0.109-0.235-0.391c0,0,0.11-0.172,0.329-0.25h3.125c0,0,0.328,0.031,0.344,0.281
	c0,0,0.031,0.313-0.313,0.359c0,0-0.359,0.109-0.266,0.656l-0.031,5.641c0,0,0.031,0.422,0.328,0.438c0,0,0.361,0.063,0.282,0.484
	C50.147,30.352,50.053,30.554,49.49,30.516z"/>
<g id="Direction">
	<g transform="rotate({{angle}} 50 50)">
		<polygon id="arrow" class="arrow" opacity="0.7" enable-background="new    " points="59.7,31.4 50.8,24 41.9,31.3 41.9,35.4 42,35.4 50.8,28.1 
			59.3,35.4 59.7,35.4 		">
		
			<animate  fill="remove" attributeName="opacity" dur="0.5s" calcMode="linear" restart="always" values="0.5; 0" begin="0s;anim_arrow3.end" additive="replace" accumulate="none" id="anim_arrow1">
			</animate>
		</polygon>
		<polygon id="arrow2" class="arrow" opacity="0.7" enable-background="new    " points="59.8,26.4 50.9,19 42,26.4 42,30.4 42.1,30.4 50.9,23.2 
			59.4,30.4 59.8,30.4 		">
		
			<animate  fill="remove" attributeName="opacity" dur="0.5s" calcMode="linear" restart="always" values="0.5; 0" begin="anim_arrow1.end" additive="replace" accumulate="none" id="anim_arrow2">
			</animate>
		</polygon>
		<polygon id="arrow3" class="arrow" opacity="0.7" enable-background="new    " points="59.9,21.4 51,14.1 42.1,21.4 42.1,25.5 42.2,25.5 
			51,18.2 59.5,25.5 59.9,25.5 		">
		
			<animate  fill="remove" attributeName="opacity" dur="0.5s" calcMode="linear" restart="always" values="0.5; 0" begin="anim_arrow2.end" additive="replace" accumulate="none" id="anim_arrow3">
			</animate>
		</polygon>
	</g>
</g>
</svg>
