<?xml version="1.0" encoding="utf-8"?>
<!-- Generator: Adobe Illustrator 16.0.0, SVG Export Plug-In . SVG Version: 6.00 Build 0)  -->
<!DOCTYPE svg PUBLIC "-//W3C//DTD SVG 1.1//EN" "http://www.w3.org/Graphics/SVG/1.1/DTD/svg11.dtd">
<svg version="1.1" id="Layer_1" xmlns="http://www.w3.org/2000/svg" xmlns:xlink="http://www.w3.org/1999/xlink" x="0px" y="0px"
	 width="200px" height="200px" viewBox="0 0 200 200" enable-background="new 0 0 200 200" xml:space="preserve">
<g id="Direction">
	<g transform="rotate({{angle}} 50 50)">
		<polygon id="arrow" opacity="0.7" fill="#80C342" enable-background="new    " points="126.693,151.977 103.052,171.632 
			79.415,152.244 79.415,141.354 79.681,141.354 103.052,160.742 125.63,141.352 126.693,141.354 		">
		

		</polygon>
		<polygon id="arrow2" opacity="0.7" fill="#80C342" enable-background="new    " points="126.959,165.258 103.322,184.912 
			79.681,165.256 79.683,154.635 79.946,154.635 103.322,173.756 125.896,154.635 126.959,154.635 		">
		

		</polygon>
		<polygon id="arrow3" opacity="0.7" fill="#80C342" enable-background="new    " points="127.229,178.539 103.585,197.928 
			79.946,178.537 79.946,167.646 80.212,167.646 103.585,187.037 126.162,167.648 127.229,167.648 		">
		

		</polygon>
	</g>
</g>
<g>
	<g id="Tire_2_1_">
		<path d="M109.32,127.011c1.527-2.585,5.041-2.802,5.041-2.802c4.455,1.925,3.754,7.75,3.754,7.75
			c-1.52,3.379-4.537,3.984-4.537,3.984S107.731,130.146,109.32,127.011z"/>
		<path fill="#333333" d="M109.994,126.541c1.416-0.668,3.521,0.59,4.59,3.225c1.253,2.582,0.963,5.349-0.453,6.021
			c-1.414,0.672-3.52-0.578-4.59-3.224C108.352,130.232,108.576,127.229,109.994,126.541z"/>
		<path fill="#999999" d="M109.908,132.455c0.877,1.9,2.305,2.818,3.35,2.253c1.044-0.567,1.339-2.528,0.464-4.415
			c-0.879-1.898-2.306-2.818-3.351-2.254C109.326,128.611,109.22,130.52,109.908,132.455z M110.759,130.336
			c0.371-0.107,1.114,0.484,1.489,1.18c0.375,0.688,0.445,1.75-0.109,1.903c-0.37,0.106-1.05-0.226-1.488-1.175
			C110.213,131.302,110.393,130.443,110.759,130.336z"/>
		<path fill="#FFFFFF" d="M112.539,128.754c-0.369,0.11-0.672,1.258-0.672,1.258l-0.248-0.189c0.18-0.848,0.67-1.264,0.67-1.264
			L112.539,128.754z"/>
	</g>
	<g id="Tire_2_3_">
		<path d="M69.302,100.62c1.521-2.584,5.037-2.8,5.037-2.8c4.465,1.924,3.762,7.745,3.762,7.745
			c-1.525,3.384-4.546,3.994-4.546,3.994S67.713,103.753,69.302,100.62z"/>
		<path fill="#333333" d="M69.975,100.15c1.411-0.669,3.521,0.592,4.589,3.225c1.254,2.584,0.963,5.348-0.453,6.018
			c-1.412,0.682-3.516-0.58-4.589-3.218C68.333,103.84,68.559,100.834,69.975,100.15z"/>
		<path fill="#999999" d="M69.892,106.064c0.871,1.894,2.301,2.812,3.348,2.244c1.047-0.56,1.342-2.526,0.463-4.414
			c-0.877-1.897-2.301-2.818-3.35-2.248C69.306,102.216,69.196,104.127,69.892,106.064z M70.739,103.948
			c0.371-0.109,1.112,0.478,1.491,1.169c0.374,0.695,0.441,1.753-0.114,1.908c-0.369,0.106-1.047-0.225-1.485-1.174
			C70.189,104.913,70.37,104.055,70.739,103.948z"/>
		<path fill="#FFFFFF" d="M72.517,102.366c-0.368,0.106-0.673,1.255-0.673,1.255l-0.246-0.196c0.181-0.847,0.674-1.257,0.674-1.257
			L72.517,102.366z"/>
	</g>
	<g id="Body_1_">
		<path fill="#BCBCBC" d="M119.248,136.477l-1.693-1.197c-0.198-5.104-3.123-7.504-3.123-7.504c-5.012-5.258-6.531,0-6.531,0
			l-30.214-20.234c-1.628-7.33-7.188-9.186-7.188-9.186c-2.219-0.6-2.584,2.254-2.584,2.254h-0.978l-6.766-5.705
			c-1.972-1.203,0.981-4.204,0.981-4.204l0.004-2.703c-0.142-4.652,2.229-9.607,2.229-9.607
			c3.497-5.556,15.424-13.962,15.424-13.962h2.222l38.257,25.819l3.388,2.702l4.435,5.489c-0.705-2.702,1.045-3.613,1.045-3.613
			c1.559,0.601-0.482,4.331-0.482,4.331l4.012,4.541l7.039,7.167l0.424,3.402l0.329,0.774l0.376,4.931
			C131.971,133.736,119.248,136.479,119.248,136.477z"/>
		<path fill="#191919" d="M139.474,114.475l0.375,5.006c-4.786,9.504-14.265,14.11-14.265,14.11
			c-4.129,2.201-6.338,2.103-6.338,2.103l-1.693-0.399c0-1.817-1.088-4.646-1.088-4.646l2.414,0.457v-3.633l1.578-0.955
			c12.605-3.258,18.271-15.653,18.271-15.653L139.474,114.475z"/>
		<path fill="#191919" d="M116.689,117.573c-3.171,0.903-4.146,0-4.146,0c-0.563-0.601-5.911-11.923-5.911-11.923
			c6.383-2.518,15.298-12.497,15.298-12.497l9.197,10.76C127.935,111.482,116.689,117.57,116.689,117.573z"/>
		<path fill="#191919" d="M107.397,113.391c-0.374-0.328,0.453,0.276-0.483-0.062c-0.937-0.333-2.322,0.942-2.322,0.942
			l-6.124-4.508c0.097-6.603,1.205-7.523,1.205-7.523l4.519,3.41l1.219,1.295l2.592,5.394L107.397,113.391z"/>
		<path fill="#191919" d="M81.038,89.335c-0.916,0.702-1.162,8.306-1.162,8.306l15.115,9.903l0.472-0.601l0.563-6.492v-0.806
			L81.038,89.335z"/>
		<path fill="#191919" d="M66.942,79.719h-0.949c-1.315,0.8-2.371,6.216-2.371,6.216l0.59,1.291l14.601,9.503
			c-0.128-1.675,1.063-7.804,1.063-7.804L66.942,79.719z"/>
		<path fill="#6D6D6D" d="M125.728,125.613l0.376,3.553c3.564-1.402,10.126-8.295,10.126-8.295l-0.177-4.063
			C132.252,121.411,125.729,125.623,125.728,125.613z"/>
		<path fill="#EAEAEA" d="M139.476,115.047c-0.517,1.704-2.438,4.655-2.438,4.655v-1.3c0.563-0.301,2.113-4.135,2.113-4.135
			L139.476,115.047z"/>
		<path fill="#EAEAEA" d="M119.488,130.245v1.067c1.879,0.152,6.241-1.901,6.241-1.901v-0.948
			C121.832,130.563,119.488,130.238,119.488,130.245z"/>
		<polygon fill="#EAEAEA" points="119.248,128.032 119.248,129.166 121.082,128.955 121.082,126.907 		"/>
		<polygon fill="#EAEAEA" points="138.867,114.268 138.277,114.268 138.022,112.896 138.867,112.098 		"/>
		<path fill="#A8A8A8" d="M139.853,119.973c-2.604,6.723-12.623,13.111-12.623,13.111c-8.353,5.618-9.677,2.598-9.677,2.598
			l-0.198-2.217c13.505,0.598,22.384-15.49,22.384-15.49L139.853,119.973z"/>
		<path fill="#EAEAEA" stroke="#000000" stroke-width="0.1" stroke-miterlimit="10" d="M130.418,107.887
			c1.494,0.315,5.562,6.381,5.562,6.381"/>
		<path fill="#EAEAEA" stroke="#000000" stroke-width="0.1" stroke-miterlimit="10" d="M118.875,118.316
			c0.914,1.957,5.561,6.381,5.561,6.381"/>
		<path fill="none" stroke="#000000" stroke-width="0.1" stroke-miterlimit="10" d="M113.602,119.701
			c11.264-0.725,18.65-14.723,18.65-14.723"/>
		<path fill="none" stroke="#000000" stroke-width="0.1" stroke-miterlimit="10" d="M107.789,116.523l-2.851,0.971l-0.352-0.512
			v-2.717c1.196-1.119,2.808-0.871,2.808-0.871l0.361-1.051c0.563,0.247,3.238,6.352,3.238,6.352L107.789,116.523z"/>
		
			<line fill="none" stroke="#000000" stroke-width="0.1" stroke-miterlimit="10" x1="107.195" y1="113.329" x2="107.789" y2="116.521"/>
		<path fill="none" stroke="#000000" stroke-width="0.1" stroke-miterlimit="10" d="M96.634,120.273
			c-0.143-15.389,1.83-20.792,1.83-20.792"/>
		<path fill="none" stroke="#000000" stroke-width="0.1" stroke-miterlimit="10" d="M107.49,126.365
			c2.059-3.963,1.282-9.174,1.282-9.174"/>
		<path fill="none" stroke="#000000" stroke-width="0.1" stroke-miterlimit="10" d="M66.015,77.714l22.734,15.438
			c11.827,7.102,17.321,12.409,17.321,12.409"/>
		<path fill="none" stroke="#000000" stroke-width="0.1" stroke-miterlimit="10" d="M62.069,95.204v-6.379
			c0.281-5.78,3.313-11.109,3.313-11.109c3.801-4.052,15.344-13.21,15.344-13.21"/>
		<polygon fill="none" stroke="#000000" stroke-width="0.1" stroke-miterlimit="10" points="97.198,113.182 98.464,113.895 
			98.464,110.864 97.198,109.576 		"/>
		<polygon opacity="0.8" fill="#F7F7F7" enable-background="new    " points="118.523,97.305 124.955,111.729 126.406,109.876 
			119.488,96.252 		"/>
		<polygon opacity="0.8" fill="#F7F7F7" enable-background="new    " points="100.701,103.014 101.142,111.729 102.834,112.979 
			101.279,103.993 		"/>
		<polygon opacity="0.8" fill="#F7F7F7" enable-background="new    " points="88.499,94.471 90.766,104.777 87.483,102.24 
			86.792,93.298 		"/>
		<polygon opacity="0.8" fill="#F7F7F7" enable-background="new    " points="70.71,82.401 70.222,91.135 72.521,92.636 
			72.061,83.363 		"/>
	</g>
</g>
</svg>
