<?xml version="1.0" encoding="utf-8"?>
<!-- Generator: Adobe Illustrator 16.0.0, SVG Export Plug-In . SVG Version: 6.00 Build 0)  -->
<!DOCTYPE svg PUBLIC "-//W3C//DTD SVG 1.1//EN" "http://www.w3.org/Graphics/SVG/1.1/DTD/svg11.dtd">
<svg version="1.1" id="Layer_1" xmlns="http://www.w3.org/2000/svg" xmlns:xlink="http://www.w3.org/1999/xlink" x="0px" y="0px"
	 width="200px" height="200px" viewBox="0 0 200 200" enable-background="new 0 0 200 200" xml:space="preserve">
<g id="Direction">
	<g transform="rotate({{angle}} 50 50)">
		<polygon id="arrow" opacity="0.7" fill="#ff0000" enable-background="new    " points="124.258,35.229 154.875,38.05 
			157.881,68.472 150.18,76.173 149.992,75.985 147.176,45.749 117.5,43.495 116.746,42.741 		">
		
			<animate  fill="remove" accumulate="none" additive="replace" begin="0s;anim_arrow3.end" values="0.5; 0" restart="always" calcMode="linear" dur="0.5s" attributeName="opacity" id="anim_arrow1">
			</animate>
		</polygon>
		<polygon id="arrow2" opacity="0.7" fill="#ff0000" enable-background="new    " points="133.463,25.651 164.076,28.468 
			166.893,59.083 159.381,66.593 159.195,66.405 156.188,36.356 126.701,33.913 125.953,33.163 		">
		
			<animate  fill="remove" accumulate="none" additive="replace" begin="anim_arrow1.end" values="0.5; 0" restart="always" calcMode="linear" dur="0.5s" attributeName="opacity" id="anim_arrow2">
			</animate>
		</polygon>
		<polygon id="arrow3" opacity="0.7" fill="#ff0000" enable-background="new    " points="142.666,16.071 173.094,19.079 
			176.098,49.505 168.396,57.206 168.209,57.019 165.393,26.778 135.719,24.524 134.965,23.772 		">
		
			<animate  fill="remove" accumulate="none" additive="replace" begin="anim_arrow2.end" values="0.5; 0" restart="always" calcMode="linear" dur="0.5s" attributeName="opacity" id="anim_arrow3">
			</animate>
		</polygon>
	</g>
</g>
<polygon fill="#666666" points="128.796,94.394 128.796,99.388 121.657,97.67 "/>
<polygon points="128.796,94.812 128.796,99.271 129.279,99.388 129.279,94.394 "/>
<g id="Tire_2_2_">
	<path d="M68.379,96.825c2.539-1.897,6.371-1.18,6.371-1.18c4.494,2.546,2.006,7.111,2.006,7.111
		c-2.496,2.293-6.078,2.072-6.078,2.072S65.813,98.721,68.379,96.825z"/>
	<path fill="#333333" d="M69.293,96.46c1.762-0.304,3.613,1.322,4.146,3.626c0.522,2.297-0.478,4.416-2.239,4.713
		c-1.761,0.295-3.619-1.32-4.145-3.623C66.526,98.866,67.526,96.754,69.293,96.46z"/>
	<path fill="#999999" d="M67.754,101.051c0.391,1.699,1.748,2.887,3.039,2.666c1.289-0.223,2.028-1.773,1.642-3.462
		c-0.377-1.689-1.74-2.881-3.036-2.662C68.099,97.819,67.366,99.363,67.754,101.051z M69.256,99.466
		c0.584-0.091,1.195,0.445,1.369,1.212c0.178,0.766-0.153,1.465-0.736,1.568c-0.59,0.093-1.2-0.447-1.379-1.211
		C68.338,100.271,68.666,99.566,69.256,99.466z"/>
	<path fill="#FFFFFF" d="M71.527,98.783c-0.423,0.03-1.117,0.922-1.117,0.922l-0.318-0.245c0.369-0.616,1.119-0.886,1.119-0.886
		L71.527,98.783z"/>
	
		<animateTransform  type="translate" fill="remove" attributeType="XML" accumulate="none" repeatCount="indefinite" additive="replace" begin="0s" values="0,0;0.1,0.1;0,0" restart="always" calcMode="linear" dur="1" attributeName="transform">
		</animateTransform>
</g>
<g id="container">
	<polygon fill="#333333" points="107.021,109.35 106.91,113.838 89.584,106.043 89.668,102.732 88.851,102.26 88.851,101.516 
		106.145,108.822 	"/>
	<polygon fill="#666666" points="104.02,110.967 103.906,115.455 86.588,107.672 86.67,104.361 85.854,103.886 85.854,103.143 
		103.146,110.451 	"/>
	<path fill="#999999" d="M100.941,110.182L59.023,92.298L57.314,69.73c-0.861-2.219,1.225-2.325,1.225-2.325l23.742-9.186
		l1.291-0.377l40.297,15.157c1.27,0.91,1.02,3.174,1.02,3.174v13.134L100.941,110.182z"/>
	<polygon points="124.276,91.055 122.732,92.803 101.744,107.672 102.256,85.355 124.276,75.336 	"/>
	<polygon fill="#666666" points="124.529,90.529 123.022,92.168 102.174,106.75 102.629,85.822 123.604,76.173 	"/>
	<polygon fill="#333333" points="58.705,69.52 60.904,91.538 100.733,107.994 101.203,84.928 	"/>
	<polygon fill="#CCCCCC" points="59.057,69.834 61.227,91.492 100.391,107.672 100.838,85.292 	"/>
	
		<animateTransform  type="translate" fill="remove" attributeType="XML" accumulate="none" repeatCount="indefinite" additive="replace" begin="0s" values="0,0;-0.1,-0.2;0,0" restart="always" calcMode="linear" dur="1" attributeName="transform">
		</animateTransform>
</g>
<g>
	<path d="M106.103,110.029c3.843-0.303,6.261,3.42,6.261,3.42l-8.201,2.473C103.945,110.641,106.103,110.027,106.103,110.029z"/>
	<polygon points="102.348,111.396 87.924,104.844 102.348,110.99 	"/>
	<polygon points="88.062,107.303 101.397,113.359 87.924,107.443 87.924,104.994 	"/>
	<polygon fill="#999999" points="90.819,106.576 92.111,109.145 91.033,108.428 90.035,106.205 	"/>
	
		<animateTransform  type="translate" fill="remove" attributeType="XML" accumulate="none" repeatCount="indefinite" additive="replace" begin="0s" values="0,0;-0.1,-0.2;0,0" restart="always" calcMode="linear" dur="1" attributeName="transform">
		</animateTransform>
</g>
<g id="Tire_2_1_">
	<path d="M106.523,113.059c2.546-1.908,6.373-1.187,6.373-1.187c4.5,2.549,2.008,7.112,2.008,7.112
		c-2.492,2.293-6.074,2.072-6.074,2.072S103.969,114.955,106.523,113.059z"/>
	<path fill="#333333" d="M107.447,112.689c1.764-0.299,3.62,1.319,4.146,3.629c0.525,2.297-0.475,4.408-2.239,4.709
		s-3.622-1.322-4.146-3.625C104.68,115.096,105.684,112.99,107.447,112.689z"/>
	<path fill="#999999" d="M105.912,117.283c0.381,1.691,1.74,2.879,3.037,2.662c1.286-0.217,2.026-1.769,1.639-3.459
		c-0.387-1.695-1.744-2.885-3.039-2.662C106.256,114.045,105.519,115.588,105.912,117.283z M107.405,115.695
		c0.586-0.098,1.202,0.436,1.38,1.205c0.17,0.768-0.16,1.471-0.742,1.57c-0.59,0.1-1.207-0.445-1.385-1.209
		C106.484,116.494,106.818,115.795,107.405,115.695z"/>
	<path fill="#FFFFFF" d="M109.676,115.012c-0.414,0.033-1.107,0.926-1.107,0.926l-0.322-0.254c0.369-0.611,1.118-0.883,1.118-0.883
		L109.676,115.012z"/>
	
		<animateTransform  type="translate" fill="remove" attributeType="XML" accumulate="none" repeatCount="indefinite" additive="replace" begin="0s" values="0,0;0.1,0.1;0,0" restart="always" calcMode="linear" dur="1" attributeName="transform">
		</animateTransform>
</g>
<g id="Body_1_">
	<g>
		<path fill="#CCCCCC" d="M134.176,93.235c-0.549-1.903-4.399-2.666-4.399-2.666c-2.538-2.378-4.299-2.946-4.299-2.946l-5.866-8.066
			l-7.795,3.303c-1.324,0.288-2.646,6.663-2.646,6.663c-2.313,0.755-1.543,4.849-1.543,4.849l-1.873,1.142
			c-2.314,2.571-0.768,13.798-0.768,13.798l0.549,0.569c7.16,1.052,7.383,5.14,7.383,5.14c7.715,3.332,8.263,2.854,8.263,2.854
			c13.886-3.803,15.646-10.369,15.646-10.369v-4.283C135.838,94.942,134.182,93.227,134.176,93.235z"/>
		<path d="M125.258,110.837c-4.186,1.425-4.604,0-4.604,0l-1.57-9.899v-0.571l13.994-7.899h0.771
			c2.823,4.592,2.978,10.756,2.978,10.756C134.07,105.6,125.26,110.828,125.258,110.837z"/>
		<path fill="#333333" d="M125.43,109.909c-4.061,1.301-4.463,0-4.463,0l-1.521-8.992v-0.513l13.688-7.604h0.662
			c2.73,4.172,2.851,10.193,2.851,10.193C133.977,105.154,125.428,109.908,125.43,109.909z"/>
		<path d="M109.943,99.409h-0.66c-0.888,3.901,0,4.377,0,4.377l8.594,6.666c1.763,0.948,1.209-1.142,1.209-1.142l-1.209-6.762
			C115.674,100.744,109.944,99.413,109.943,99.409z"/>
		<path opacity="0.5" fill="#666666" enable-background="new    " d="M110.332,99.794l-0.695-0.045c-0.797,3.662,0,3.851,0,3.851
			l7.746,5.9c1.586,0.891,1.091-0.723,1.091-0.723l-1.093-6.338C115.394,100.736,110.332,99.794,110.332,99.794z"/>
		<path d="M125.807,113.021c-0.844,1.074,0,1.713,0,1.713c6.056-2.377,9.324-6.187,9.324-6.187c0.074-0.794-0.031-1.521-0.031-1.521
			C130.731,111.305,125.813,113.021,125.807,113.021z"/>
		<path fill="#333333" d="M126.105,113.014c-0.822,1.01-0.205,1.476-0.205,1.476c5.902-2.204,9.018-5.894,9.018-5.894
			c0.07-0.734,0.028-1.264,0.028-1.264C130.693,111.311,126.106,113.021,126.105,113.014z"/>
		<path fill="#333333" d="M126.248,114.652c-0.822,1.049,0,1.674,0,1.674c5.894-2.316,9.068-6.033,9.068-6.033
			c0.077-0.775-0.025-1.482-0.025-1.482C131.032,112.982,126.246,114.648,126.248,114.652z"/>
		<path d="M115.008,101.077c-1.982,0.891-2.256,3.717-2.256,3.717l-0.772,0.326v0.385v3.306l0.333,0.217h1.718l0.21-0.217
			l0.057-2.783l3.25-1.664v-0.569l-3.33,1.616c0.088-1.094-1.021-0.615-1.021-0.615c0.372-2.972,2.205-3.572,2.205-3.572
			L115.008,101.077z"/>
		<path d="M135.451,96.06c0.674-1.041,0.209-2.831,0.209-2.831c0.153-0.889,0.799-0.762,0.799-0.762
			c0.953,1.9-0.535,5.396-0.535,5.396L135.451,96.06z"/>
		<path d="M136.347,108.285l-1.026,1.531c-6.744,6.86-13.461,7.752-13.461,7.752l-0.803,0.227l-7.645-2.695
			c-2.565-4.943-7.341-5.18-7.341-5.18v0.885c6.167,1.291,7.341,7.346,7.341,7.346l0.49,0.312c4.821,2.604,8.77,1.597,8.77,1.597
			c4.332-0.951,14.356-9.427,14.356-9.427l0.054-2.437c-0.221-0.934-0.387-0.764-0.387-0.764L136.347,108.285z"/>
		<path opacity="0.75" fill="#999999" enable-background="new    " d="M121.051,117.807c-0.91-0.205-2.227-0.773-2.227-0.773
			l-0.359-2.088c-0.033-0.73,0.481-0.984,0.481-0.984c1.101-0.289,3.854,0,3.854,0c3.379,1.617,2.636,2.568,2.636,2.568
			C122.939,117.656,121.049,117.807,121.051,117.807z"/>
		<path fill="#FFFFFF" d="M119.17,115.514c-0.504,2.07,1.488,1.779,1.488,1.779c-1.044-0.126-1.164-2.064-1.164-2.064
			L119.17,115.514z"/>
		<path opacity="0.75" fill="#999999" enable-background="new    " d="M136.821,107.499c0.072,0.446-0.985,1.762-0.985,1.762h-0.264
			l-0.093-0.649c-0.293-2.756,1.347-3.822,1.347-3.822C137.084,106.311,136.826,107.506,136.821,107.499z"/>
		<path fill="#FFFFFF" d="M136.072,106.643c-0.912,1.305-0.023,1.719-0.023,1.719c-0.444-0.463,0.146-2.068,0.146-2.068
			L136.072,106.643z"/>
		<path opacity="0.5" fill="#666666" enable-background="new    " d="M120.189,101.965l1.154,7.29c0.17,1.484,4.09,0.244,4.09,0.244
			c1.55-0.388,10.759-6.565,10.759-6.565c-0.25-5.954-2.785-9.71-2.785-9.71l-2.366,1.098l0.551,0.469
			c1.861,0.114,2.586,6.575,2.586,6.575c-2.107-2.293-5.396-1.88-5.396-1.88c2.207-0.158,3.255,2.158,3.255,2.158
			c-4.287,1.773-10.69,0-10.69,0L120.189,101.965z"/>
		<path opacity="0.58" fill="#FFFFFF" enable-background="new    " d="M120.658,99.746c1.842,1.136,3.279,10.021,3.279,10.021
			c1.322,0.127,2.37-0.752,2.37-0.752v-0.654c-0.532-4.24-4.464-9.209-4.464-9.209L120.658,99.746z"/>
		<path opacity="0.58" fill="#FFFFFF" enable-background="new    " d="M122.34,99.152c3.276,3.665,4.869,9.481,4.869,9.481
			l-0.705,0.389l0.104-0.211c-0.47-4.955-4.515-9.659-4.515-9.659S122.336,99.152,122.34,99.152z"/>
		<path opacity="0.58" fill="#FFFFFF" enable-background="new    " d="M123.125,98.721c3.273,3.662,4.869,9.49,4.869,9.49
			l-0.707,0.385l0.104-0.215c-0.47-4.953-4.517-9.66-4.517-9.66S123.121,98.721,123.125,98.721z"/>
		<path d="M112.144,82.09c-1.647,0.372-1.722,1.49-1.722,1.49l-1.356,5.739c-1.804,0.097-2.117,2.358-2.117,2.358l0.031,2.532
			c-2.134,0.798-2.242,1.942-2.242,1.942l-0.388,12.267l0.635,0.889l0.626-12.117c0.056-1.325,0.146-1.678,0.146-1.678
			c0.272-0.103,1.875-1.142,1.875-1.142l0.043-2.995c0.291-1.585,1.865-1.574,1.865-1.574l11.532,5.456l-11.166-5.999l1.066-5.356
			c0.149-0.857,0.847-1.05,0.847-1.05l7.795-3.3C117.56,79.803,112.146,82.093,112.144,82.09z"/>
		<polygon points="125.86,87.773 127.961,91.039 124.985,86.943 		"/>
		<path d="M117.547,97.863l-9.918-3.496C107.684,94.991,117.549,97.863,117.547,97.863z"/>
		<path d="M128.95,91.705l-9.505,5.186C122.319,96.207,128.951,91.705,128.95,91.705z"/>
		<path d="M118.976,98.721l-0.938-0.544c-0.107-0.76,1.047-0.809,1.047-0.809l0.828,0.495L118.976,98.721z"/>
		<path d="M131.035,91.229l-0.933,0.476l0.771,0.475l1.104-0.475C131.928,91.182,131.043,91.229,131.035,91.229z"/>
		<path opacity="0.7" fill="#FFFFFF" enable-background="new    " d="M116.777,95.637c-1.18-0.766-7.885-3.46-7.885-3.46
			C109.969,93.44,116.774,95.639,116.777,95.637z"/>
		<path opacity="0.7" fill="#FFFFFF" enable-background="new    " d="M120.655,93.229c-0.312-1.652-7.26-8.756-7.26-8.756
			C113.469,85.042,120.658,93.227,120.655,93.229z"/>
		<polygon opacity="0.7" fill="#FFFFFF" enable-background="new    " points="119.445,113.527 120.191,113.527 120.191,112.129 		
			"/>
		<polygon opacity="0.7" fill="#FFFFFF" enable-background="new    " points="121.076,118.285 119.815,117.896 119.912,120.229 
			121.076,120.24 121.076,118.604 		"/>
		<path opacity="0.65" fill="#666666" enable-background="new    " d="M110.019,100.183l-0.404,2.025
			c-0.147,1.423,1.507,2.12,1.507,2.12c-0.514-0.979,1.103-0.668,1.103-0.668l1.356-2.34
			C113.035,100.934,110.019,100.171,110.019,100.183z"/>
		<path d="M106.067,109.922c-2.169,1.516-2.349,5.617-2.349,5.617l0.633,0.479c0.138-4.713,1.716-5.213,1.716-5.213V109.922z"/>
	</g>
	<polygon points="108.893,108.361 107.226,107.627 107.226,107.027 108.893,107.332 109.285,109.021 	"/>
</g>
</svg>
