<?xml version="1.0" encoding="utf-8"?>
<!-- Generator: Adobe Illustrator 16.0.0, SVG Export Plug-In . SVG Version: 6.00 Build 0)  -->
<!DOCTYPE svg PUBLIC "-//W3C//DTD SVG 1.1//EN" "http://www.w3.org/Graphics/SVG/1.1/DTD/svg11.dtd">
<svg version="1.1" id="Layer_1" xmlns="http://www.w3.org/2000/svg" xmlns:xlink="http://www.w3.org/1999/xlink" x="0px" y="0px"
	 width="100px" height="100px" viewBox="0 0 100 100" enable-background="new 0 0 100 100" xml:space="preserve">

<style type="text/css">
	  .arrow{fill:{{statusColor}};display:{{arrowDisplay}}}
	  .hourglass{fill:{{hourglassColor}};display:{{hourglassDisplay}}}
    .parking{display:{{parkingDisplay}};fill:{{parkingColor}}}
	 </style>
	}

<g transform="translate({{translateX}},0) scale({{scaleX}},1)">
	<g>
		<g>
			<g id="Tire_Mid_Back_2">
				<path fill="#141318" d="M63.479,45.761c-0.254,0.797-1.025,1.543-1.729,1.666c-0.698,0.125-1.061-0.424-0.809-1.219
					c0.254-0.795,1.026-1.543,1.729-1.664C63.37,44.421,63.732,44.964,63.479,45.761z"/>
				<path fill="#121332" d="M63.613,45.873c-0.248,0.791-1.014,1.535-1.707,1.656c-0.692,0.123-1.051-0.422-0.801-1.217
					c0.248-0.791,1.013-1.533,1.705-1.656C63.503,44.535,63.861,45.078,63.613,45.873z"/>
				<path fill="#141318" d="M63.827,45.974c-0.253,0.797-1.026,1.543-1.729,1.666c-0.697,0.125-1.061-0.422-0.808-1.219
					c0.254-0.795,1.026-1.543,1.729-1.664C63.716,44.636,64.08,45.179,63.827,45.974z"/>
				<path fill="#121332" d="M63.959,46.087c-0.248,0.791-1.014,1.533-1.706,1.656c-0.692,0.121-1.051-0.424-0.803-1.219
					c0.248-0.791,1.014-1.533,1.706-1.656C63.852,44.748,64.208,45.296,63.959,46.087z"/>
				<path fill="#141318" d="M64.123,46.166c-0.254,0.795-1.031,1.539-1.729,1.664c-0.697,0.127-1.061-0.422-0.808-1.217
					c0.253-0.797,1.026-1.545,1.729-1.666C64.014,44.824,64.377,45.369,64.123,46.166z"/>
				<path fill="#121332" d="M64.255,46.279c-0.248,0.791-1.013,1.533-1.706,1.656c-0.693,0.121-1.051-0.424-0.802-1.219
					c0.248-0.791,1.013-1.533,1.706-1.656S64.505,45.48,64.255,46.279z"/>
				<path fill="#141318" d="M64.297,46.337c-0.24,0.785-0.979,1.516-1.648,1.635c-0.668,0.117-1.019-0.422-0.778-1.209
					c0.239-0.787,0.979-1.516,1.647-1.635C64.188,45.013,64.537,45.55,64.297,46.337z"/>
				<path fill="#121332" d="M64.13,46.416c-0.202,0.664-0.823,1.283-1.39,1.379c-0.564,0.102-0.859-0.357-0.656-1.018
					c0.203-0.664,0.824-1.281,1.391-1.377C64.039,45.296,64.333,45.757,64.13,46.416z"/>
				<path fill="#CDCCCC" d="M63.911,46.402c-0.163,0.533-0.663,1.023-1.116,1.105c-0.454,0.082-0.693-0.285-0.531-0.818
					c0.163-0.531,0.662-1.023,1.115-1.105C63.834,45.507,64.066,45.871,63.911,46.402z"/>
				<path fill="#989898" d="M63.693,46.402c-0.131,0.432-0.534,0.83-0.902,0.895c-0.369,0.064-0.563-0.227-0.43-0.658
					c0.132-0.432,0.535-0.832,0.902-0.896C63.631,45.675,63.827,45.974,63.693,46.402z"/>
				<path fill="#CDCCCC" d="M63.516,46.462c-0.098,0.318-0.396,0.609-0.664,0.658c-0.27,0.043-0.41-0.174-0.313-0.488
					c0.097-0.318,0.396-0.609,0.664-0.658C63.471,45.925,63.611,46.144,63.516,46.462z"/>
				<g id="Tire_Mid_Back_2_Holes">
					<path fill="#010101" d="M63.205,46.488c-0.032,0.102-0.122,0.189-0.207,0.207c-0.086,0.012-0.131-0.055-0.102-0.154
						c0.031-0.102,0.123-0.191,0.207-0.207C63.184,46.322,63.234,46.388,63.205,46.488z"/>
					<path fill="#010101" d="M63.122,46.166c-0.021,0.055-0.067,0.105-0.115,0.111c-0.047,0.008-0.069-0.027-0.055-0.082
						c0.021-0.057,0.067-0.105,0.114-0.113S63.139,46.109,63.122,46.166z"/>
					<path fill="#010101" d="M63.445,46.195c-0.021,0.057-0.067,0.105-0.114,0.113c-0.047,0.008-0.074-0.029-0.056-0.084
						c0.021-0.057,0.068-0.105,0.115-0.113C63.438,46.105,63.461,46.14,63.445,46.195z"/>
					<path fill="#010101" d="M63.438,46.541c-0.021,0.057-0.067,0.105-0.114,0.113c-0.048,0.008-0.074-0.029-0.056-0.084
						c0.021-0.057,0.068-0.105,0.115-0.111C63.43,46.451,63.458,46.488,63.438,46.541z"/>
					<path fill="#010101" d="M63.126,46.847c-0.021,0.057-0.067,0.105-0.114,0.113c-0.048,0.008-0.074-0.029-0.056-0.084
						c0.021-0.057,0.067-0.105,0.114-0.113C63.117,46.755,63.145,46.792,63.126,46.847z"/>
					<path fill="#010101" d="M62.782,46.839c-0.021,0.057-0.068,0.105-0.115,0.113c-0.048,0.008-0.074-0.029-0.054-0.084
						c0.02-0.055,0.066-0.105,0.113-0.113C62.77,46.748,62.797,46.783,62.782,46.839z"/>
					<path fill="#010101" d="M62.79,46.5c-0.021,0.057-0.067,0.105-0.115,0.113c-0.048,0.008-0.073-0.029-0.054-0.084
						c0.02-0.057,0.066-0.105,0.113-0.113C62.777,46.41,62.805,46.445,62.79,46.5z"/>
				</g>
			</g>
			<g id="Tire_Back">
				<path fill="#141318" d="M66.471,44.035c-0.255,0.797-1.025,1.543-1.729,1.666c-0.698,0.125-1.06-0.422-0.808-1.219
					c0.254-0.795,1.026-1.543,1.729-1.664C66.363,42.693,66.729,43.24,66.471,44.035z"/>
				<path fill="#121332" d="M66.602,44.146c-0.248,0.789-1.013,1.533-1.705,1.654c-0.692,0.123-1.051-0.422-0.803-1.217
					c0.248-0.791,1.014-1.533,1.706-1.656C66.492,42.804,66.852,43.353,66.602,44.146z"/>
				<path fill="#141318" d="M66.816,44.248c-0.254,0.797-1.026,1.545-1.729,1.666c-0.696,0.127-1.06-0.422-0.808-1.219
					c0.255-0.795,1.027-1.543,1.729-1.664C66.712,42.91,67.07,43.455,66.816,44.248z"/>
				<path fill="#121332" d="M66.954,44.357c-0.248,0.791-1.015,1.533-1.706,1.656c-0.693,0.123-1.051-0.422-0.803-1.219
					c0.248-0.791,1.014-1.533,1.707-1.654C66.842,43.017,67.199,43.566,66.954,44.357z"/>
				<path fill="#141318" d="M67.111,44.441c-0.254,0.795-1.025,1.543-1.729,1.664c-0.697,0.127-1.061-0.422-0.808-1.217
					c0.254-0.797,1.026-1.543,1.729-1.666C67.007,43.099,67.37,43.642,67.111,44.441z"/>
				<path fill="#121332" d="M67.251,44.548c-0.248,0.791-1.013,1.533-1.706,1.656s-1.05-0.422-0.802-1.219
					c0.248-0.791,1.013-1.533,1.706-1.656C67.137,43.208,67.495,43.755,67.251,44.548z"/>
				<path fill="#141318" d="M67.291,44.609c-0.24,0.785-0.979,1.516-1.648,1.635c-0.668,0.117-1.019-0.422-0.779-1.209
					c0.24-0.787,0.979-1.518,1.648-1.635C67.182,43.281,67.529,43.826,67.291,44.609z"/>
				<path fill="#121332" d="M67.126,44.687c-0.202,0.664-0.823,1.281-1.39,1.379c-0.564,0.102-0.859-0.359-0.656-1.018
					c0.202-0.664,0.824-1.281,1.391-1.379C67.034,43.572,67.329,44.021,67.126,44.687z"/>
				<path fill="#CDCCCC" d="M66.9,44.677c-0.162,0.531-0.662,1.023-1.115,1.105c-0.454,0.082-0.693-0.285-0.531-0.818
					c0.163-0.533,0.663-1.023,1.116-1.105C66.828,43.777,67.064,44.146,66.9,44.677z"/>
				<path fill="#989898" d="M66.688,44.671c-0.131,0.432-0.535,0.832-0.901,0.896c-0.37,0.064-0.563-0.229-0.431-0.66
					c0.131-0.432,0.533-0.832,0.901-0.896C66.625,43.953,66.82,44.24,66.688,44.671z"/>
				<path fill="#CDCCCC" d="M66.51,44.74c-0.098,0.316-0.396,0.607-0.664,0.656c-0.27,0.045-0.412-0.174-0.313-0.488
					c0.098-0.318,0.396-0.609,0.664-0.658S66.605,44.417,66.51,44.74z"/>
				<g id="Tire_Back_Holes">
					<path fill="#010101" d="M66.193,44.763c-0.031,0.102-0.121,0.189-0.207,0.205c-0.086,0.014-0.131-0.053-0.102-0.152
						c0.032-0.102,0.123-0.189,0.208-0.207C66.18,44.591,66.225,44.662,66.193,44.763z"/>
					<path fill="#010101" d="M66.111,44.441c-0.02,0.055-0.066,0.105-0.113,0.113c-0.048,0.006-0.07-0.029-0.055-0.086
						c0.02-0.055,0.066-0.104,0.115-0.111C66.105,44.347,66.128,44.384,66.111,44.441z"/>
					<path fill="#010101" d="M66.436,44.47c-0.02,0.057-0.066,0.105-0.113,0.113c-0.049,0.008-0.075-0.029-0.055-0.084
						c0.02-0.057,0.066-0.105,0.114-0.113C66.43,44.378,66.452,44.416,66.436,44.47z"/>
					<path fill="#010101" d="M66.428,44.812c-0.02,0.057-0.066,0.105-0.113,0.113c-0.049,0.008-0.075-0.027-0.056-0.084
						c0.021-0.057,0.067-0.105,0.115-0.113C66.421,44.72,66.443,44.757,66.428,44.812z"/>
					<path fill="#010101" d="M66.113,45.121c-0.02,0.057-0.066,0.105-0.113,0.113c-0.048,0.008-0.074-0.029-0.055-0.084
						c0.019-0.055,0.068-0.104,0.115-0.111S66.131,45.066,66.113,45.121z"/>
					<path fill="#010101" d="M65.771,45.115c-0.021,0.055-0.067,0.104-0.115,0.111c-0.047,0.008-0.074-0.027-0.055-0.082
						c0.021-0.057,0.067-0.105,0.114-0.113C65.766,45.023,65.788,45.058,65.771,45.115z"/>
					<path fill="#010101" d="M65.779,44.771c-0.021,0.057-0.066,0.105-0.114,0.113c-0.047,0.008-0.074-0.027-0.054-0.084
						c0.02-0.057,0.066-0.105,0.115-0.113C65.773,44.683,65.796,44.716,65.779,44.771z"/>
				</g>
			</g>
			<g id="Tire_Mid_Back">
				<path fill="#141318" d="M60.252,47.572c-0.254,0.795-1.031,1.541-1.729,1.666c-0.698,0.125-1.062-0.424-0.809-1.219
					c0.254-0.795,1.026-1.543,1.729-1.664C60.146,46.232,60.51,46.777,60.252,47.572z"/>
				<path fill="#121332" d="M60.387,47.679c-0.248,0.791-1.014,1.535-1.707,1.656c-0.693,0.123-1.051-0.426-0.803-1.217
					c0.249-0.791,1.014-1.533,1.707-1.656C60.275,46.339,60.634,46.89,60.387,47.679z"/>
				<path fill="#141318" d="M60.6,47.785c-0.252,0.797-1.024,1.545-1.729,1.666c-0.699,0.127-1.061-0.422-0.809-1.217
					c0.254-0.797,1.025-1.545,1.729-1.666C60.494,46.447,60.857,46.992,60.6,47.785z"/>
				<path fill="#121332" d="M60.736,47.894c-0.248,0.791-1.014,1.533-1.707,1.656c-0.692,0.123-1.051-0.428-0.801-1.219
					c0.248-0.791,1.013-1.533,1.705-1.656C60.624,46.554,60.98,47.101,60.736,47.894z"/>
				<path fill="#141318" d="M60.896,47.976c-0.254,0.795-1.031,1.539-1.729,1.664c-0.698,0.127-1.062-0.422-0.808-1.217
					c0.254-0.797,1.025-1.545,1.729-1.666C60.79,46.636,61.148,47.179,60.896,47.976z"/>
				<path fill="#121332" d="M61.033,48.085c-0.248,0.791-1.014,1.533-1.706,1.656s-1.05-0.428-0.802-1.219s1.014-1.533,1.705-1.656
					C60.919,46.744,61.281,47.292,61.033,48.085z"/>
				<path fill="#141318" d="M61.074,48.144c-0.239,0.787-0.979,1.516-1.647,1.635c-0.669,0.117-1.019-0.422-0.778-1.209
					c0.24-0.787,0.979-1.516,1.647-1.635C60.965,46.818,61.313,47.361,61.074,48.144z"/>
				<path fill="#121332" d="M60.906,48.222c-0.202,0.664-0.823,1.281-1.391,1.379c-0.563,0.102-0.859-0.359-0.656-1.018
					c0.203-0.664,0.824-1.281,1.391-1.379C60.816,47.109,61.111,47.558,60.906,48.222z"/>
				<path fill="#CDCCCC" d="M60.684,48.212c-0.162,0.533-0.662,1.023-1.115,1.105s-0.694-0.285-0.531-0.818
					c0.163-0.531,0.662-1.023,1.115-1.105C60.609,47.314,60.846,47.683,60.684,48.212z"/>
				<path fill="#989898" d="M60.473,48.208c-0.133,0.432-0.535,0.83-0.902,0.896c-0.37,0.064-0.563-0.229-0.432-0.66
					c0.131-0.432,0.535-0.832,0.902-0.896C60.409,47.488,60.6,47.781,60.473,48.208z"/>
				<path fill="#CDCCCC" d="M60.293,48.273c-0.098,0.318-0.395,0.613-0.664,0.658c-0.27,0.043-0.411-0.172-0.313-0.49
					c0.097-0.318,0.395-0.607,0.664-0.658C60.248,47.736,60.391,47.955,60.293,48.273z"/>
				<g>
					<path fill="#010101" d="M59.979,48.298c-0.033,0.102-0.123,0.191-0.207,0.207c-0.086,0.012-0.131-0.053-0.102-0.154
						c0.032-0.102,0.122-0.189,0.207-0.207C59.962,48.128,60.009,48.199,59.979,48.298z"/>
					<path fill="#010101" d="M59.895,47.976c-0.02,0.057-0.066,0.105-0.115,0.113c-0.047,0.008-0.068-0.029-0.053-0.084
						c0.02-0.057,0.066-0.105,0.113-0.113C59.887,47.884,59.911,47.921,59.895,47.976z"/>
					<path fill="#010101" d="M60.218,48.005c-0.021,0.057-0.067,0.105-0.114,0.113c-0.047,0.008-0.069-0.029-0.055-0.084
						c0.02-0.057,0.067-0.105,0.114-0.113C60.211,47.914,60.232,47.951,60.218,48.005z"/>
					<path fill="#010101" d="M60.209,48.347c-0.021,0.057-0.066,0.105-0.113,0.113c-0.049,0.008-0.07-0.027-0.056-0.084
						c0.021-0.057,0.067-0.104,0.114-0.111C60.201,48.258,60.227,48.294,60.209,48.347z"/>
					<path fill="#010101" d="M59.898,48.658c-0.021,0.057-0.068,0.105-0.115,0.113s-0.069-0.029-0.055-0.084
						c0.021-0.057,0.067-0.105,0.114-0.113C59.891,48.566,59.914,48.603,59.898,48.658z"/>
					<path fill="#010101" d="M59.555,48.65c-0.02,0.057-0.068,0.105-0.115,0.113c-0.047,0.008-0.068-0.027-0.053-0.084
						c0.021-0.055,0.066-0.105,0.114-0.113C59.548,48.56,59.575,48.595,59.555,48.65z"/>
					<path fill="#010101" d="M59.563,48.312c-0.02,0.057-0.067,0.105-0.114,0.113c-0.048,0.008-0.069-0.029-0.056-0.084
						c0.021-0.057,0.068-0.105,0.115-0.113C59.557,48.22,59.578,48.251,59.563,48.312z"/>
				</g>
			</g>
			<path fill="#333333" d="M48.959,55.023l-2.787-1.273l2.665-1.281l0.682,0.324l-0.079,0.801l-0.373,0.285
				C49.067,53.879,49.278,54.855,48.959,55.023z"/>
			<g id="Tire_Mid">
				<path fill="#141318" d="M47.924,54.576c-0.254,0.795-1.026,1.543-1.729,1.664c-0.698,0.127-1.061-0.422-0.808-1.217
					c0.253-0.797,1.026-1.545,1.729-1.666C47.818,53.238,48.177,53.779,47.924,54.576z"/>
				<path fill="#121332" d="M48.056,54.686c-0.248,0.791-1.013,1.533-1.705,1.656c-0.693,0.123-1.051-0.428-0.803-1.219
					s1.013-1.533,1.706-1.656C47.947,53.346,48.307,53.893,48.056,54.686z"/>
				<path fill="#141318" d="M48.27,54.791c-0.253,0.795-1.025,1.543-1.729,1.664c-0.698,0.127-1.061-0.422-0.808-1.217
					c0.254-0.797,1.026-1.543,1.729-1.666C48.165,53.451,48.527,53.994,48.27,54.791z"/>
				<path fill="#121332" d="M48.404,54.9c-0.248,0.791-1.014,1.533-1.706,1.654c-0.693,0.125-1.051-0.423-0.803-1.218
					c0.249-0.791,1.014-1.532,1.707-1.655S48.652,54.107,48.404,54.9z"/>
				<path fill="#141318" d="M48.566,54.98c-0.254,0.795-1.026,1.543-1.73,1.664c-0.697,0.127-1.06-0.422-0.807-1.218
					c0.254-0.795,1.026-1.543,1.729-1.663C48.462,53.641,48.824,54.184,48.566,54.98z"/>
				<path fill="#121332" d="M48.7,55.088c-0.249,0.791-1.014,1.535-1.707,1.656c-0.692,0.123-1.05-0.422-0.802-1.217
					c0.248-0.791,1.014-1.533,1.706-1.656C48.592,53.748,48.949,54.297,48.7,55.088z"/>
				<path fill="#141318" d="M48.745,55.148c-0.24,0.787-0.979,1.518-1.648,1.635c-0.668,0.117-1.018-0.42-0.778-1.207
					c0.238-0.787,0.978-1.518,1.647-1.635C48.637,53.822,48.986,54.367,48.745,55.148z"/>
				<path fill="#121332" d="M48.58,55.232c-0.202,0.658-0.823,1.276-1.39,1.379c-0.564,0.102-0.86-0.357-0.656-1.019
					c0.202-0.663,0.823-1.28,1.39-1.379C48.488,54.113,48.782,54.566,48.58,55.232z"/>
				<path fill="#CDCCCC" d="M48.355,55.219c-0.163,0.531-0.663,1.023-1.117,1.104c-0.458,0.081-0.693-0.285-0.531-0.818
					c0.164-0.53,0.663-1.021,1.116-1.104C48.281,54.32,48.518,54.686,48.355,55.219z"/>
				<path fill="#989898" d="M48.143,55.217c-0.132,0.432-0.535,0.832-0.902,0.896c-0.37,0.063-0.563-0.229-0.432-0.66
					c0.131-0.432,0.535-0.83,0.903-0.895C48.081,54.494,48.27,54.785,48.143,55.217z"/>
				<path fill="#CDCCCC" d="M47.964,55.279c-0.098,0.318-0.396,0.609-0.664,0.658c-0.269,0.043-0.411-0.172-0.313-0.49
					c0.098-0.318,0.396-0.607,0.664-0.656C47.919,54.74,48.06,54.959,47.964,55.279z"/>
				<g id="Tire_Mid_Hole">
					<path fill="#010101" d="M47.649,55.303c-0.032,0.102-0.122,0.189-0.207,0.207c-0.086,0.012-0.131-0.053-0.101-0.152
						c0.031-0.102,0.122-0.19,0.207-0.209C47.634,55.133,47.674,55.203,47.649,55.303z"/>
					<path fill="#010101" d="M47.566,54.98c-0.02,0.057-0.068,0.104-0.115,0.112c-0.047,0.009-0.069-0.028-0.054-0.084
						c0.02-0.055,0.067-0.104,0.114-0.11C47.56,54.889,47.582,54.926,47.566,54.98z"/>
					<path fill="#010101" d="M47.89,55.012c-0.021,0.055-0.068,0.104-0.115,0.111s-0.069-0.027-0.055-0.084
						c0.021-0.055,0.068-0.104,0.115-0.111C47.881,54.92,47.906,54.955,47.89,55.012z"/>
					<path fill="#010101" d="M47.882,55.355c-0.021,0.057-0.067,0.104-0.115,0.11c-0.047,0.009-0.069-0.026-0.054-0.082
						c0.02-0.057,0.067-0.104,0.114-0.112C47.873,55.262,47.897,55.299,47.882,55.355z"/>
					<path fill="#010101" d="M47.567,55.662c-0.021,0.057-0.067,0.105-0.115,0.113c-0.047,0.008-0.069-0.029-0.054-0.084
						c0.02-0.058,0.067-0.105,0.114-0.113C47.561,55.57,47.584,55.609,47.567,55.662z"/>
					<path fill="#010101" d="M47.226,55.654c-0.021,0.057-0.068,0.104-0.115,0.113c-0.047,0.008-0.07-0.029-0.055-0.084
						c0.021-0.058,0.068-0.105,0.115-0.113C47.22,55.563,47.242,55.6,47.226,55.654z"/>
					<path fill="#010101" d="M47.234,55.316c-0.021,0.055-0.068,0.104-0.115,0.11c-0.047,0.007-0.069-0.026-0.055-0.084
						c0.021-0.055,0.068-0.104,0.116-0.11C47.228,55.225,47.249,55.258,47.234,55.316z"/>
				</g>
			</g>
			<polygon fill="#333333" points="39.259,60.152 36.504,58.494 40.313,54.463 42.962,55.107 41.063,56.695 40.133,57.293 
				39.679,59.059 			"/>
			<path fill="#333333" d="M48.908,53.537c0,0-0.375-0.434-1.2-0.543l-2.788,1.553l-0.045,1.895l0.563,0.359
				C45.438,56.801,46.383,52.824,48.908,53.537z"/>
			<path fill="#676867" d="M45.741,56.707c0,0,0.005-1.854,1.594-2.871c0,0,1.317-0.73,1.645,0.33c0,0,0.096,0.555-0.02,0.859
				l0.251-0.09c0,0,0.297-1.865-1.175-1.58c0,0-2.665,0.688-2.598,3.444L45.741,56.707z"/>
			<path fill="#BBB9BA" d="M39.435,56.604l5.641-2.012l0.76,0.465c0,0-0.475,0.369-0.396,1.842l-5.657,2.959
				C39.782,59.857,39.046,59.199,39.435,56.604z"/>
			<polygon fill="#989898" points="39.908,57.488 45.304,54.729 44.168,54.063 39.517,56.588 39.207,57.152 			"/>
			<polygon opacity="0.5" fill="#FFFFFF" enable-background="new    " points="40.116,58.051 45.836,55.057 45.726,54.986 
				40.015,58.018 			"/>
			<path fill="none" stroke="#676867" stroke-width="0.1" stroke-miterlimit="10" d="M40.334,58.164l2.52-1.332
				c0,0,0.166-0.033,0.176,0.096l-0.022,0.971c0,0,0.007,0.119-0.116,0.152l-2.582,1.33c0,0-0.121-0.035-0.104-0.188l0.02-0.777
				C40.226,58.416,40.182,58.232,40.334,58.164z"/>
			<path fill="none" stroke="#676867" stroke-width="0.1" stroke-miterlimit="10" d="M43.263,56.652l1.859-0.971
				c0,0,0.165-0.031,0.175,0.096l-0.041,0.934c0,0,0.008,0.119-0.116,0.152l-1.902,1.01c0,0-0.121-0.035-0.104-0.186l0.019-0.777
				C43.153,56.91,43.115,56.73,43.263,56.652z"/>
			<polygon fill="#CDCCCC" points="40.303,59.072 42.785,57.795 42.896,57.865 40.348,59.221 			"/>
			<polygon fill="#CDCCCC" points="43.211,57.631 45.074,56.691 45.187,56.764 43.254,57.779 			"/>
			<polygon fill="#CDCCCC" points="56.623,48.544 56.596,49.628 56.773,49.632 57.014,49.474 57.014,48.337 			"/>
			<path opacity="0.3" fill="#CDCCCC" enable-background="new    " d="M50.809,43.525c0,0,0.301,1.975-0.56,3.809L50.809,43.525z"/>
			<g>
				<polygon fill="#333333" points="68.551,42.185 68.496,44.468 68.328,44.605 66.041,43.494 				"/>
				<polygon fill="#333333" points="69.5,41.726 71.477,40.625 71.422,42.912 71.205,43.095 69.352,42.066 69.357,41.818 				"/>
				<polygon fill="#333333" points="57.113,49.119 58.539,49.878 58.596,47.537 57.152,47.503 				"/>
				<g>
					<g>
						<g id="Container">
							<polygon fill="#E5E5E5" points="41.063,56.695 71.686,40.652 71.9,31.546 65.51,27.742 34.864,43.955 34.68,52.041 							
								"/>
							<polygon opacity="0.7" fill="#BBB9BA" enable-background="new    " points="34.854,44.343 41.176,47.972 41.006,55.146 
								34.697,51.238 							"/>
							<polygon opacity="0.7" fill="#BBB9BA" enable-background="new    " points="71.771,31.818 71.604,39.001 41.097,55.094 
								41.247,47.896 							"/>
							<path opacity="0.3" fill="#989898" enable-background="new    " d="M36.953,48.226c0,0,0.455-1.074,0.417-1.959
								L36.953,48.226z"/>
							<path opacity="0.3" fill="#CDCCCC" enable-background="new    " d="M36.915,48.207c0,0,0.002-1.053,0.413-1.955
								L36.915,48.207z"/>
							<path opacity="0.5" fill="#989898" enable-background="new    " d="M39.955,49.392c0,0,0.079-1.166-0.518-1.99L39.955,49.392
								z"/>
							<path opacity="0.5" fill="#CDCCCC" enable-background="new    " d="M39.945,49.355c0,0-0.485-0.939-0.537-1.926
								L39.945,49.355z"/>
							<path opacity="0.3" fill="#989898" enable-background="new    " d="M35.157,45.667c0,0,0.718,0.049,1.229-0.291
								L35.157,45.667z"/>
							<path opacity="0.3" fill="#CDCCCC" enable-background="new    " d="M35.157,45.628c0,0,0.614-0.361,1.225-0.299
								L35.157,45.628z"/>
							<path opacity="0.3" fill="#989898" enable-background="new    " d="M35.558,46.982c0,0,1.065-0.533,1.622-1.232
								L35.558,46.982z"/>
							<path opacity="0.3" fill="#CDCCCC" enable-background="new    " d="M35.545,46.947c0,0,0.701-0.805,1.612-1.234
								L35.545,46.947z"/>
							<path opacity="0.3" fill="#989898" enable-background="new    " d="M43.994,47.91c0,0-0.934,2.178-0.573,3.82L43.994,47.91z"
								/>
							<path opacity="0.3" fill="#CDCCCC" enable-background="new    " d="M44.104,47.931c0,0,0.3,1.977-0.56,3.811L44.104,47.931z"
								/>
							<path opacity="0.3" fill="#989898" enable-background="new    " d="M45.881,49.755c0,0-0.435,1.297-0.238,2.341
								L45.881,49.755z"/>
							<path opacity="0.3" fill="#CDCCCC" enable-background="new    " d="M45.936,49.769c0,0,0.174,1.252-0.229,2.336
								L45.936,49.769z"/>
							<path opacity="0.3" fill="#989898" enable-background="new    " d="M45.466,47.656c0,0-0.905,1.936-0.958,3.338
								L45.466,47.656z"/>
							<path opacity="0.3" fill="#CDCCCC" enable-background="new    " d="M45.527,47.667c0,0-0.134,1.695-0.943,3.331
								L45.527,47.667z"/>
							<path opacity="0.3" fill="#989898" enable-background="new    " d="M42.641,48.371c0,0-0.635,1.639-0.557,2.883
								L42.641,48.371z"/>
							<path opacity="0.3" fill="#CDCCCC" enable-background="new    " d="M42.693,48.386c0,0,0.024,1.492-0.548,2.875
								L42.693,48.386z"/>
							<path opacity="0.3" fill="#989898" enable-background="new    " d="M50.695,43.509c0,0-0.933,2.176-0.573,3.82L50.695,43.509
								z"/>
							<path opacity="0.3" fill="#989898" enable-background="new    " d="M53.425,45.376c0,0-0.435,1.297-0.237,2.34L53.425,45.376
								z"/>
							<path opacity="0.3" fill="#CDCCCC" enable-background="new    " d="M53.475,45.396c0,0,0.172,1.252-0.229,2.336
								L53.475,45.396z"/>
							<path opacity="0.3" fill="#989898" enable-background="new    " d="M53.01,43.277c0,0-0.904,1.936-0.958,3.34L53.01,43.277z"
								/>
							<path opacity="0.3" fill="#CDCCCC" enable-background="new    " d="M53.064,43.287c0,0-0.135,1.697-0.942,3.33L53.064,43.287
								z"/>
							<path opacity="0.3" fill="#989898" enable-background="new    " d="M57.889,39.488c0,0-0.935,2.178-0.574,3.82L57.889,39.488
								z"/>
							<path opacity="0.3" fill="#CDCCCC" enable-background="new    " d="M57.996,39.511c0,0,0.3,1.975-0.561,3.809L57.996,39.511z
								"/>
							<path opacity="0.3" fill="#989898" enable-background="new    " d="M60.609,41.359c0,0-0.436,1.295-0.237,2.338
								L60.609,41.359z"/>
							<path opacity="0.3" fill="#CDCCCC" enable-background="new    " d="M60.66,41.376c0,0,0.173,1.25-0.229,2.336L60.66,41.376z"
								/>
							<path opacity="0.3" fill="#989898" enable-background="new    " d="M60.193,39.257c0,0-0.904,1.936-0.957,3.338
								L60.193,39.257z"/>
							<path opacity="0.3" fill="#CDCCCC" enable-background="new    " d="M60.254,39.269c0,0-0.133,1.695-0.941,3.33L60.254,39.269
								z"/>
							<path opacity="0.3" fill="#989898" enable-background="new    " d="M65.924,35.628c0,0-0.933,2.178-0.572,3.82L65.924,35.628
								z"/>
							<path opacity="0.3" fill="#CDCCCC" enable-background="new    " d="M66.032,35.65c0,0,0.301,1.977-0.56,3.811L66.032,35.65z"
								/>
							<path opacity="0.3" fill="#989898" enable-background="new    " d="M68.646,37.5c0,0-0.436,1.295-0.238,2.338L68.646,37.5z"
								/>
							<path opacity="0.3" fill="#CDCCCC" enable-background="new    " d="M68.697,37.517c0,0,0.174,1.25-0.229,2.336L68.697,37.517
								z"/>
							<path opacity="0.3" fill="#989898" enable-background="new    " d="M68.232,35.396c0,0-0.904,1.936-0.959,3.34L68.232,35.396
								z"/>
							<path opacity="0.3" fill="#CDCCCC" enable-background="new    " d="M68.293,35.408c0,0-0.133,1.695-0.941,3.33L68.293,35.408
								z"/>
						</g>
						<polygon fill="#676867" points="41.57,55.104 46.863,52.311 46.861,52.43 41.568,55.203 						"/>
						<polygon fill="#676867" points="41.563,55.461 46.854,52.666 46.853,52.781 41.562,55.561 						"/>
						<polygon fill="#676867" points="41.555,55.818 46.848,53.02 46.844,53.139 41.553,55.914 						"/>
						<polygon fill="#676867" points="47.732,51.918 53.029,49.121 53.025,49.238 47.729,52.014 						"/>
						<polygon fill="#676867" points="47.724,52.27 53.021,49.478 53.018,49.595 47.722,52.371 						"/>
						<polygon fill="#676867" points="47.716,52.627 53.014,49.83 53.01,49.949 47.713,52.723 						"/>
						<polygon fill="#676867" points="53.775,48.769 59.068,45.976 59.066,46.089 53.773,48.871 						"/>
						<polygon fill="#676867" points="53.768,49.126 59.061,46.332 59.059,46.447 53.764,49.226 						"/>
						<polygon fill="#676867" points="53.759,49.478 59.052,46.685 59.049,46.802 53.756,49.578 						"/>
						<polygon fill="#676867" points="59.918,45.554 65.213,42.759 65.211,42.875 59.916,45.656 						"/>
						<polygon fill="#676867" points="59.911,45.912 65.204,43.119 65.201,43.23 59.907,46.013 						"/>
						<polygon fill="#676867" points="59.902,46.265 65.195,43.468 65.191,43.587 59.898,46.365 						"/>
						<polygon fill="#676867" points="66.066,42.357 71.359,39.56 71.355,39.679 66.064,42.453 						"/>
						<polygon fill="#676867" points="66.059,42.714 71.352,39.917 71.35,40.037 66.057,42.81 						"/>
						<polygon fill="#676867" points="66.051,43.066 71.344,40.269 71.34,40.388 66.049,43.164 						"/>
						<g>
							<polygon fill="#676867" points="43.522,53.822 43.369,53.908 43.366,54.012 43.521,53.928 							"/>
							<polygon fill="#676867" points="43.237,53.98 43.061,54.07 43.057,54.174 43.234,54.078 							"/>
							<polygon fill="#676867" points="44.229,53.451 44.055,53.549 44.053,53.652 44.228,53.561 							"/>
							<polygon fill="#676867" points="43.922,53.617 43.655,53.758 43.651,53.863 43.918,53.723 							"/>
							<polygon fill="#676867" points="42.928,54.141 42.685,54.268 42.683,54.373 42.926,54.24 							"/>
							<polygon fill="#676867" points="42.556,54.338 42.399,54.422 42.396,54.521 42.554,54.438 							"/>
							<polygon fill="#676867" points="42.087,54.682 42.268,54.588 42.271,54.488 42.091,54.584 							"/>
							<polygon fill="#676867" points="44.516,53.301 44.364,53.385 44.36,53.49 44.513,53.41 							"/>
							<polygon fill="#676867" points="46.146,52.441 45.966,52.537 45.964,52.65 46.145,52.555 							"/>
							<polygon fill="#676867" points="46.431,52.291 46.275,52.377 46.272,52.49 46.43,52.406 							"/>
							<polygon fill="#676867" points="41.962,54.65 41.652,54.818 41.65,54.914 41.959,54.75 							"/>
							<polygon fill="#676867" points="44.888,53.107 44.647,53.232 44.646,53.342 44.884,53.219 							"/>
							<polygon fill="#676867" points="46.561,52.223 46.557,52.34 46.942,52.137 46.944,52.02 							"/>
							<polygon fill="#676867" points="45.195,52.945 45.014,53.037 45.012,53.146 45.193,53.057 							"/>
							<polygon fill="#676867" points="45.839,52.604 45.61,52.725 45.608,52.836 45.835,52.717 							"/>
							<polygon fill="#676867" points="45.48,52.793 45.325,52.875 45.321,52.984 45.478,52.906 							"/>
						</g>
						<g>
							<polygon fill="#676867" points="49.611,50.66 49.455,50.738 49.453,50.844 49.609,50.766 							"/>
							<polygon fill="#676867" points="49.326,50.809 49.146,50.906 49.145,51.006 49.324,50.914 							"/>
							<polygon fill="#676867" points="50.321,50.285 50.141,50.376 50.138,50.488 50.318,50.392 							"/>
							<polygon fill="#676867" points="50.013,50.449 49.741,50.59 49.738,50.693 50.01,50.553 							"/>
							<polygon fill="#676867" points="49.019,50.973 48.775,51.102 48.773,51.203 49.017,51.078 							"/>
							<polygon fill="#676867" points="48.643,51.17 48.491,51.254 48.488,51.354 48.641,51.275 							"/>
							<polygon fill="#676867" points="48.178,51.516 48.354,51.424 48.357,51.324 48.182,51.416 							"/>
							<polygon fill="#676867" points="50.605,50.136 50.45,50.214 50.447,50.326 50.604,50.242 							"/>
							<polygon fill="#676867" points="52.232,49.275 52.059,49.369 52.055,49.482 52.23,49.39 							"/>
							<polygon fill="#676867" points="52.518,49.121 52.366,49.205 52.363,49.32 52.516,49.24 							"/>
							<polygon fill="#676867" points="48.048,51.484 47.737,51.648 47.735,51.744 48.045,51.586 							"/>
							<polygon fill="#676867" points="50.973,49.939 50.734,50.066 50.732,50.175 50.971,50.048 							"/>
							<polygon fill="#676867" points="52.65,49.056 52.646,49.169 53.033,48.968 53.035,48.853 							"/>
							<polygon fill="#676867" points="51.282,49.777 51.105,49.873 51.104,49.982 51.279,49.884 							"/>
							<polygon fill="#676867" points="51.924,49.439 51.7,49.556 51.698,49.671 51.921,49.552 							"/>
							<polygon fill="#676867" points="51.566,49.626 51.415,49.705 51.412,49.82 51.563,49.736 							"/>
						</g>
						<g>
							<polygon fill="#676867" points="55.652,47.464 55.5,47.548 55.496,47.654 55.648,47.57 							"/>
							<polygon fill="#676867" points="55.367,47.619 55.191,47.71 55.189,47.816 55.363,47.72 							"/>
							<polygon fill="#676867" points="56.359,47.091 56.186,47.187 56.182,47.292 56.357,47.201 							"/>
							<polygon fill="#676867" points="56.051,47.253 55.785,47.394 55.782,47.505 56.049,47.363 							"/>
							<polygon fill="#676867" points="55.059,47.783 54.814,47.908 54.813,48.009 55.055,47.88 							"/>
							<polygon fill="#676867" points="54.686,47.978 54.529,48.058 54.525,48.16 54.684,48.08 							"/>
							<polygon fill="#676867" points="54.218,48.32 54.398,48.228 54.4,48.128 54.221,48.22 							"/>
							<polygon fill="#676867" points="56.646,46.943 56.493,47.021 56.492,47.132 56.645,47.052 							"/>
							<polygon fill="#676867" points="58.277,46.082 58.098,46.179 58.094,46.289 58.273,46.197 							"/>
							<polygon fill="#676867" points="58.563,45.933 58.404,46.011 58.402,46.125 58.559,46.046 							"/>
							<polygon fill="#676867" points="54.094,48.291 53.783,48.453 53.781,48.552 54.09,48.392 							"/>
							<polygon fill="#676867" points="57.018,46.748 56.777,46.873 56.777,46.982 57.016,46.859 							"/>
							<polygon fill="#676867" points="58.689,45.861 58.688,45.976 59.073,45.779 59.076,45.66 							"/>
							<polygon fill="#676867" points="57.326,46.582 57.146,46.677 57.143,46.787 57.323,46.697 							"/>
							<polygon fill="#676867" points="57.967,46.244 57.74,46.361 57.736,46.476 57.966,46.357 							"/>
							<polygon fill="#676867" points="57.611,46.433 57.455,46.517 57.452,46.626 57.609,46.548 							"/>
						</g>
						<g>
							<polygon fill="#676867" points="61.8,44.287 61.645,44.371 61.641,44.476 61.797,44.392 							"/>
							<polygon fill="#676867" points="61.514,44.441 61.332,44.533 61.33,44.638 61.512,44.542 							"/>
							<polygon fill="#676867" points="62.508,43.914 62.328,44.011 62.325,44.117 62.506,44.023 							"/>
							<polygon fill="#676867" points="62.198,44.082 61.928,44.22 61.925,44.326 62.195,44.187 							"/>
							<polygon fill="#676867" points="61.205,44.603 60.962,44.73 60.959,44.832 61.202,44.705 							"/>
							<polygon fill="#676867" points="60.83,44.802 60.678,44.884 60.675,44.984 60.826,44.902 							"/>
							<polygon fill="#676867" points="60.366,45.144 60.542,45.05 60.545,44.951 60.367,45.046 							"/>
							<polygon fill="#676867" points="62.793,43.765 62.637,43.847 62.634,43.953 62.791,43.873 							"/>
							<polygon fill="#676867" points="64.419,42.904 64.244,43 64.24,43.115 64.416,43.017 							"/>
							<polygon fill="#676867" points="64.705,42.753 64.553,42.837 64.55,42.953 64.702,42.867 							"/>
							<polygon fill="#676867" points="60.234,45.113 59.925,45.281 59.923,45.376 60.232,45.214 							"/>
							<polygon fill="#676867" points="63.159,43.57 62.923,43.693 62.919,43.804 63.157,43.681 							"/>
							<polygon fill="#676867" points="64.838,42.683 64.834,42.802 65.217,42.601 65.219,42.482 							"/>
							<polygon fill="#676867" points="63.469,43.408 63.292,43.501 63.289,43.611 63.467,43.517 							"/>
							<polygon fill="#676867" points="64.109,43.066 63.887,43.189 63.884,43.298 64.107,43.181 							"/>
							<polygon fill="#676867" points="63.754,43.255 63.602,43.337 63.6,43.449 63.752,43.369 							"/>
						</g>
						<g>
							<polygon fill="#676867" points="67.943,41.019 67.791,41.101 67.79,41.203 67.941,41.123 							"/>
							<polygon fill="#676867" points="67.66,41.166 67.482,41.265 67.48,41.365 67.656,41.271 							"/>
							<polygon fill="#676867" points="68.652,40.644 68.479,40.736 68.475,40.845 68.65,40.75 							"/>
							<polygon fill="#676867" points="68.344,40.806 68.077,40.947 68.074,41.052 68.341,40.912 							"/>
							<polygon fill="#676867" points="67.352,41.328 67.107,41.46 67.105,41.562 67.35,41.435 							"/>
							<polygon fill="#676867" points="66.979,41.531 66.822,41.611 66.818,41.712 66.977,41.632 							"/>
							<polygon fill="#676867" points="66.51,41.875 66.689,41.781 66.691,41.679 66.512,41.773 							"/>
							<polygon fill="#676867" points="68.938,40.496 68.786,40.574 68.782,40.685 68.936,40.601 							"/>
							<polygon fill="#676867" points="70.568,39.634 70.389,39.726 70.387,39.839 70.566,39.748 							"/>
							<polygon fill="#676867" points="70.854,39.484 70.698,39.562 70.695,39.677 70.854,39.599 							"/>
							<polygon fill="#676867" points="66.385,41.843 66.074,42.005 66.072,42.107 66.382,41.945 							"/>
							<polygon fill="#676867" points="69.311,40.298 69.07,40.425 69.068,40.535 69.307,40.408 							"/>
							<polygon fill="#676867" points="70.982,39.414 70.98,39.527 71.365,39.326 71.367,39.212 							"/>
							<polygon fill="#676867" points="69.617,40.134 69.438,40.232 69.436,40.341 69.615,40.244 							"/>
							<polygon fill="#676867" points="70.26,39.796 70.031,39.916 70.027,40.029 70.258,39.91 							"/>
							<polygon fill="#676867" points="69.902,39.986 69.746,40.064 69.743,40.179 69.9,40.095 							"/>
						</g>
					</g>
					<polygon fill="#1E2C32" points="39.396,55.764 41.063,56.695 71.686,40.652 71.768,39.22 71.514,39.398 71.488,40.464 
						65.652,43.609 65.715,42.349 65.396,42.484 65.366,43.775 59.566,46.746 59.598,45.509 59.249,45.654 59.281,46.937 
						53.514,49.898 53.543,48.673 53.12,48.878 53.091,50.126 47.426,53.148 47.454,51.957 47.074,52.133 47.074,53.35 
						41.432,56.25 41.45,54.885 41.006,55.146 39.34,54.068 					"/>
				</g>
				<polygon fill="#333333" points="50.494,51.686 50.473,52.592 50.73,52.697 50.723,53.047 50.459,53.182 50.456,53.277 
					50.79,53.527 51.255,53.338 51.259,53.145 51.105,53.055 51.113,52.707 51.271,52.619 51.303,51.279 				"/>
				<polygon fill="#989898" points="56.83,48.486 56.773,49.632 56.596,49.628 56.623,48.544 				"/>
				<polygon fill="#CDCCCC" points="52.24,51.711 52.221,52.549 52.477,52.756 57.587,50.039 57.537,49.128 57.377,48.996 				"/>
				<polygon fill="#989898" points="52.24,51.711 52.496,51.832 52.477,52.756 52.219,52.648 				"/>
				<polygon fill="#FFFFFF" points="52.496,51.832 57.537,49.128 52.494,51.969 				"/>
				<polygon fill="#989898" points="52.521,50.711 52.736,50.588 52.707,51.836 52.496,51.832 				"/>
			</g>
			<g id="Tire">
				<path fill="#141318" d="M38.38,59.752c-0.253,0.797-1.026,1.545-1.729,1.666c-0.698,0.127-1.06-0.424-0.807-1.219
					c0.254-0.795,1.025-1.543,1.729-1.664C38.276,58.414,38.634,58.961,38.38,59.752z"/>
				<path fill="#121332" d="M38.514,59.865c-0.248,0.791-1.014,1.533-1.706,1.656c-0.693,0.123-1.05-0.422-0.802-1.217
					c0.248-0.791,1.013-1.533,1.706-1.656C38.403,58.527,38.764,59.07,38.514,59.865z"/>
				<path fill="#141318" d="M38.729,59.967c-0.254,0.795-1.026,1.543-1.729,1.666c-0.698,0.125-1.06-0.424-0.807-1.219
					s1.026-1.543,1.729-1.664C38.622,58.627,38.981,59.176,38.729,59.967z"/>
				<path fill="#121332" d="M38.859,60.08c-0.248,0.791-1.014,1.533-1.706,1.656c-0.693,0.123-1.051-0.422-0.803-1.219
					c0.249-0.789,1.014-1.531,1.707-1.656C38.752,58.74,39.109,59.289,38.859,60.08z"/>
				<path fill="#141318" d="M39.024,60.156c-0.254,0.795-1.026,1.543-1.729,1.664c-0.698,0.127-1.061-0.422-0.808-1.217
					c0.253-0.797,1.026-1.543,1.729-1.666C38.919,58.816,39.277,59.359,39.024,60.156z"/>
				<path fill="#121332" d="M39.157,60.27c-0.249,0.791-1.014,1.533-1.707,1.656c-0.692,0.123-1.05-0.424-0.802-1.219
					c0.248-0.791,1.013-1.533,1.706-1.656C39.047,58.93,39.406,59.479,39.157,60.27z"/>
				<path fill="#141318" d="M39.198,60.33c-0.239,0.785-0.979,1.516-1.648,1.633c-0.669,0.119-1.019-0.42-0.779-1.207
					c0.24-0.787,0.979-1.516,1.648-1.635C39.093,59.004,39.442,59.543,39.198,60.33z"/>
				<path fill="#121332" d="M39.031,60.406c-0.202,0.666-0.823,1.281-1.39,1.379c-0.564,0.104-0.859-0.357-0.655-1.016
					c0.202-0.664,0.823-1.283,1.389-1.381C38.939,59.295,39.234,59.748,39.031,60.406z"/>
				<path fill="#CDCCCC" d="M38.813,60.393c-0.163,0.531-0.663,1.023-1.116,1.105c-0.46,0.082-0.694-0.285-0.531-0.818
					c0.163-0.531,0.662-1.022,1.116-1.104C38.734,59.5,38.975,59.867,38.813,60.393z"/>
				<path fill="#989898" d="M38.601,60.395c-0.132,0.433-0.535,0.832-0.903,0.896c-0.368,0.065-0.563-0.228-0.431-0.658
					c0.132-0.431,0.535-0.832,0.903-0.896C38.537,59.67,38.729,59.967,38.601,60.395z"/>
				<path fill="#CDCCCC" d="M38.416,60.457c-0.098,0.316-0.395,0.607-0.664,0.656c-0.269,0.045-0.411-0.17-0.313-0.488
					s0.396-0.609,0.665-0.658C38.377,59.922,38.518,60.141,38.416,60.457z"/>
				<g id="Tire_Hole">
					<path fill="#010101" d="M38.106,60.484c-0.032,0.102-0.122,0.19-0.207,0.207c-0.086,0.012-0.131-0.053-0.101-0.152
						c0.031-0.104,0.122-0.191,0.207-0.207C38.09,60.314,38.132,60.383,38.106,60.484z"/>
					<path fill="#010101" d="M38.022,60.16c-0.02,0.057-0.067,0.105-0.114,0.113c-0.048,0.008-0.07-0.027-0.055-0.084
						c0.02-0.056,0.067-0.104,0.114-0.111C38.016,60.07,38.039,60.107,38.022,60.16z"/>
					<path fill="#010101" d="M38.348,60.191c-0.02,0.057-0.068,0.104-0.115,0.113c-0.047,0.008-0.069-0.029-0.055-0.084
						c0.021-0.058,0.068-0.105,0.115-0.113S38.362,60.137,38.348,60.191z"/>
					<path fill="#010101" d="M38.338,60.535c-0.02,0.057-0.067,0.105-0.115,0.113c-0.047,0.008-0.069-0.029-0.054-0.084
						c0.02-0.058,0.067-0.105,0.115-0.113C38.33,60.443,38.354,60.479,38.338,60.535z"/>
					<path fill="#010101" d="M38.026,60.838c-0.02,0.057-0.067,0.105-0.114,0.113c-0.048,0.008-0.07-0.029-0.055-0.084
						c0.02-0.057,0.067-0.105,0.115-0.113C38.019,60.748,38.042,60.785,38.026,60.838z"/>
					<path fill="#010101" d="M37.683,60.832c-0.02,0.055-0.067,0.104-0.114,0.111c-0.048,0.008-0.07-0.027-0.055-0.084
						c0.021-0.055,0.067-0.104,0.115-0.111S37.698,60.777,37.683,60.832z"/>
					<path fill="#010101" d="M37.69,60.492c-0.021,0.057-0.068,0.105-0.114,0.113c-0.048,0.008-0.07-0.029-0.055-0.084
						c0.021-0.058,0.067-0.105,0.115-0.113C37.684,60.4,37.706,60.439,37.69,60.492z"/>
				</g>
			</g>
			<g id="Body">
				<path fill="#CDCCCC" d="M28.33,59.439l0.03-1.25c0,0-0.044-0.229,0.348-0.252l0.003-0.14l-0.17-0.141l0.066-2.806l0.544-2.322
					l-0.007-0.075l0.427-1.295l0.038-0.068c0,0,0.526-1.022,0.81-1.049l2.698-1.451l1.458-1.465l0.464,0.24l0.417-0.357l3.136,1.855
					l-0.015,0.596l1.02,0.617l-0.033,1.418c0,0,0.251,0.11,0.207,0.601l-0.19,4.649l0.244,0.174c0,0,0.122,0.029,0.102,0.291
					l-0.063,2.595l-0.604,0.34l0.01-0.935c0,0-0.158-0.627-0.449-0.849c0,0-0.261-0.096-0.484,0.035L36.973,59.1
					c0,0-0.464,0.355-0.673,1.254c0,0-0.283,0.654-0.221,1.355l-2.048,0.947c0,0-0.104,0.07-0.444-0.088L28.33,59.439z"/>
				<path fill="#394A54" d="M28.654,56.811l0.025-1.065c0,0,0.035-0.129,0.212-0.063l4.475,2.647c0,0,0.21,0.073,0.225,0.432
					l-0.021,0.855c0,0,0.006,0.155-0.227,0.053l-0.384-0.235c0,0-0.093-0.078-0.167,0.08l-0.139,0.309c0,0-0.017,0.104-0.272-0.008
					l-2.747-1.631l-0.091-0.107l-0.142-0.6c0,0,0.026-0.138-0.159-0.209l-0.477-0.263C28.768,57.002,28.649,56.955,28.654,56.811z"
					/>
				<path fill="#394A54" d="M29.192,59.785l0.021-0.838c0,0,0.04-0.146,0.179-0.043l3.396,1.943c0,0,0.167,0.096,0.124,0.323
					l-0.011,0.718c0,0-0.083,0.146-0.258-0.005l-3.418-2.022L29.192,59.785z"/>
				<path fill="#010101" d="M29.151,52.539l5.34,3.217c0,0,0.314,0.059,0.567-0.133l-0.39,2.014c0,0-0.18,0.408-0.681,0.353
					l-5.373-3.128L29.151,52.539z"/>
				<path fill="#1B555D" d="M29.153,52.541l5.294,3.109c0,0,0.311,0.205,0.563,0.014l-0.386,1.869c0,0-0.109,0.445-0.61,0.387
					l-5.397-3.131L29.153,52.541z"/>
				<path fill="#010101" d="M28.829,56.494l0.003-0.139c0,0,0.017-0.076,0.133,0.002l4.332,2.537c0,0,0.108,0.039,0.09,0.162
					l-0.002,0.077l-0.001,0.06l-4.513-2.633L28.829,56.494z"/>
				<path fill="#010101" d="M28.864,56.684l4.518,2.605l0.036,0.061l-0.004,0.137h-0.07l-4.415-2.6L28.86,56.83
					C28.859,56.832,28.775,56.762,28.864,56.684z"/>
				<path fill="#010101" d="M29.568,57.539l0.047,0.002h0.057l2.883,1.633l0.078,0.104l-0.002,0.07L32.63,59.4h-0.079l-0.108-0.004
					l-2.755-1.658C29.688,57.738,29.521,57.66,29.568,57.539z"/>
				<polygon fill="#010101" points="29.841,58.057 29.842,57.998 29.894,57.998 29.949,58.027 32.309,59.463 32.365,59.518 
					32.364,59.578 32.294,59.576 29.887,58.117 				"/>
				<polygon fill="#010101" points="29.45,59.074 32.697,60.994 32.729,61.041 32.693,61.133 32.646,61.133 29.393,59.246 
					29.358,59.182 29.359,59.107 				"/>
				<polygon fill="#010101" points="29.443,59.375 32.689,61.297 32.722,61.344 32.686,61.436 32.639,61.434 29.387,59.549 
					29.351,59.484 29.353,59.41 				"/>
				<polygon fill="#010101" points="29.445,59.678 32.693,61.6 32.725,61.646 32.689,61.736 32.643,61.734 29.389,59.846 
					29.354,59.787 29.355,59.707 				"/>
				<polygon fill="#FFFFFF" points="30.871,57.352 30.682,57.242 30.689,56.936 30.88,57.041 				"/>
				<polygon fill="#FFFFFF" points="31.111,57.498 30.922,57.395 30.93,57.086 31.119,57.191 				"/>
				<polygon fill="#FFFFFF" points="31.348,57.633 31.153,57.527 31.161,57.217 31.355,57.324 				"/>
				<polygon fill="#FFFFFF" points="31.603,57.777 31.409,57.672 31.417,57.363 31.61,57.469 				"/>
			</g>
			<polygon fill="#010101" points="35.41,55.266 35.024,57.262 37.463,56.074 37.507,54.213 			"/>
			<polygon fill="#193E45" points="35.405,55.24 35.024,57.238 37.405,56.051 37.449,54.242 			"/>
			<path fill="#171E1E" d="M29.144,52.549c0,0-0.098-0.016-0.071-0.152l0.166-0.479l0.07,0.002l5.305,3.137
				c0,0,0.231,0.098,0.6,0.037L35.21,55.23l-0.061,0.439L34.7,55.766c0,0-0.072,0.025-0.595-0.293L29.144,52.549z"/>
			<path fill="#303D44" d="M35.43,54.326h-0.118c0,0-0.237,0.131-0.527-0.117l-5.131-2.939c0,0-0.077-0.11-0.043-0.166
				c0,0-0.317,0.498-0.296,0.816l5.303,3.139c0,0,0.374,0.256,0.718,0.017L35.43,54.326z"/>
			<polygon fill="#303D44" points="35.283,54.918 39.385,52.766 39.38,53.004 35.216,55.164 			"/>
			<path opacity="0.5" fill="#669A9A" enable-background="new    " d="M28.646,54.752l0.042-0.242l2.683,1.584
				c0,0,0.344,0.135,0.911,0.162L32.57,56.4c0,0,1.218,0.791,1.574,0.774l0.107,0.002l-0.16,0.644c0,0-0.063,0.129-0.453-0.113
				L28.646,54.752z"/>
			<path opacity="0.5" fill="#188598" enable-background="new    " d="M29.119,52.713l1.978,1.18c0,0,0.021,0.527-0.168,0.98
				c0,0-0.208,0.51,0.018,1.266l-2.284-1.447l0.031-0.141L29.119,52.713z"/>
			<path opacity="0.5" fill="#188598" enable-background="new    " d="M32.872,57.191l0.932-1.681c0,0,0.048-0.045,0.164,0.005
				l0.356,0.241l-0.563,2.013L32.872,57.191z"/>
			<path opacity="0.5" fill="#188598" enable-background="new    " d="M34.413,55.891c0,0,0.052-0.236,0.173,0.006l-0.48,1.931
				c0,0-0.073,0.09-0.264-0.007L34.413,55.891z"/>
			<path fill="#010101" d="M35.156,57.447l0.001-0.062l0.122,0.005c0,0,0.291,0.227,0.423,0.207l0.023-0.197l0.131,0.063
				c0,0,0.018,0.248-0.171,0.266C35.686,57.73,35.433,57.697,35.156,57.447z"/>
			<path opacity="0.3" fill="#669A9A" enable-background="new    " d="M35.975,55.035c0,0,0.024,0.156-0.256,0.324l-0.107,0.135
				l-0.014,0.193l0.423,0.979l0.316-0.094l0.032-1.404c0,0-0.333,0.016-0.315-0.131L35.975,55.035L35.975,55.035z"/>
			<path fill="#3C4759" d="M35.507,55.797c0,0,0.032-0.082,0.094-0.117c0,0,0.516,0.242,0.606,0.402l-0.036,1.535l-0.065,0.02
				l-0.574-0.342L35.507,55.797z"/>
			<path fill="#25343E" d="M35.504,55.852c0,0,0.002-0.088,0.063-0.123c0,0,0.488,0.22,0.578,0.379l-0.036,1.533h-0.06l-0.579-0.324
				L35.504,55.852z"/>
			<path fill="#010101" d="M35.332,55.354l0.003-0.102c0,0,0.215-0.123,0.571,0.291L35.9,55.824l-0.083-0.029l-0.01-0.256
				C35.808,55.539,35.579,55.287,35.332,55.354z"/>
			<polygon fill="#FFFFFF" points="33.838,57.99 33.729,62.635 33.936,62.676 34.044,58.092 			"/>
			<path fill="#A2A1A2" d="M28.679,58.029l0.039-0.219l5.054,2.955c0,0,0.26,0.164,0.591,0.012l1.142-0.578
				c0,0,0.482-1.877,2.075-2.346c0,0-1.39,0.367-1.969,2.428l-1.543,0.729c0,0-0.153,0.115-0.547-0.135L28.679,58.029z"/>
			<path fill="#FFFFFF" d="M33.187,48.562l-1.121,1.121l3.335-2.568l-3.911,3.133l-0.092-0.08l-0.003,0.15l3.997,2.364
				c0,0,3.494-1.203,4.166-1.174c0,0,0.187,0.076,0.146,0.336c0,0-0.02-0.334-0.433-0.115l-3.317,1.83c0,0-0.429,0.316-0.525,0.765
				l-0.193,0.022l-0.202-0.006l-0.139-0.072c0,0,0.139,0.049,0.348-0.254c0,0,0.211-0.389,0.529-0.506L35.377,53.5l-5.282-3.02
				c0,0-0.403,0.62-0.346,0.758c0,0-0.349,0.162,0.336-0.954l0.176-0.146L33.187,48.562z"/>
			<polygon fill="#FFFFFF" points="35.689,52.383 39.218,49.943 39.635,50.179 			"/>
			<polygon fill="#C2BFBF" points="35.639,52.383 38.586,48.876 38.569,49.562 			"/>
			<path fill="#989898" d="M31.398,50.314l0.004-0.15l3.996,2.411l1.232-0.49c0,0,2.198-1.035,2.405-0.824
				c0,0-0.153-0.047-3.641,1.419L31.398,50.314z"/>
			<polygon opacity="0.5" fill="#676867" enable-background="new    " points="34.948,58.504 39.303,56.252 39.294,56.656 
				34.939,58.939 			"/>
			<polygon opacity="0.5" fill="#FFFFFF" enable-background="new    " points="34.939,58.939 39.294,56.656 39.292,56.721 
				34.938,59.004 			"/>
			<polygon fill="#333333" points="36.935,57.551 36.93,57.758 37.428,57.496 37.434,57.291 			"/>
			<path fill="#676867" d="M39.312,53.896l-0.141-0.002l-0.942,0.522l-0.096,0.069l-0.051,2.142l0.133,0.002l1.093-0.606
				L39.312,53.896z M38.28,56.453l-0.112-0.002l0.044-1.867l0.081-0.061l0.823-0.459l0.122,0.004l-0.002,1.858L38.28,56.453z"/>
			<path fill="#676867" d="M39.113,54.342l-0.095-0.002l-0.634,0.354l-0.062,0.048l-0.034,1.442l0.09,0.002l0.738-0.408
				L39.113,54.342z M38.419,56.07l-0.075-0.004l0.029-1.258l0.059-0.045l0.552-0.31l0.086,0.002l-0.003,1.256L38.419,56.07z"/>
			<path fill="#FFFFFF" d="M33.967,61.377l1.9-0.957c0,0,0.396-1.414,0.959-1.822l3.058-1.6l0.036,0.07l-2.963,1.582
				c0,0-0.532,0.264-0.992,1.811l-2,1.002L33.967,61.377L33.967,61.377z"/>
			<path opacity="0.48" fill="#676867" enable-background="new    " d="M95.701,91.521l0.003,0.537l0.509,0.276l0.021-0.567
				L95.701,91.521z M96.188,92.289l-0.445-0.246l-0.002-0.471l0.466,0.213L96.188,92.289z"/>
			<path opacity="0.48" fill="#676867" enable-background="new    " d="M95.743,92.178l0.001,0.334l0.467,0.236l-0.002-0.33
				L95.743,92.178z M96.172,92.701L95.79,92.51l-0.001-0.275l0.381,0.197L96.172,92.701z"/>
			<polygon fill="#989898" points="39.916,57.979 40.116,58.051 40.077,59.689 39.888,59.781 			"/>
		</g>
	</g>
	<g display="none">
		<path id="smoke_2" display="inline" fill="#666766" d="M66.838,48.515c0.199,0.299-0.301,0.599-0.301,0.599c0.5,0.602,0,1,0,1
			c-0.199,0.301-0.898,0-0.898,0c-0.199,0.602-0.801,0.5-0.801,0.5c-0.699,0-0.602-0.6-0.602-0.6c-0.604-0.101-0.5-0.5-0.5-0.5
			c0-0.3,0.602-0.3,0.602-0.3c-0.699-0.301-0.5-0.801-0.5-0.801c0.199-0.6,1-0.199,1-0.199c0.699-0.601,1.199,0.199,1.199,0.199
			C66.338,47.914,66.838,48.515,66.838,48.515z		">
<animateTransform  type="translate" fill="remove" attributeName="transform" dur="1" calcMode="linear" restart="always" values="0,0;2,-2" begin="0s" additive="replace" repeatCount="indefinite" accumulate="none" attributeType="XML">
				</animateTransform>
			
				<animate  fill="remove" to="0" attributeName="opacity" dur="1" calcMode="linear" restart="always" begin="0.5s" additive="replace" repeatCount="indefinite" accumulate="none" from="1">
				</animate>
		</path>
		<path id="smoke_1" display="inline" fill="#999999" d="M65.539,49.414c0.102,0.199-0.199,0.4-0.199,0.4c0.301,0.399,0,0.6,0,0.6
			c-0.102,0.199-0.5,0-0.5,0c-0.102,0.4-0.5,0.301-0.5,0.301c-0.4,0-0.4-0.4-0.4-0.4c-0.396-0.1-0.299-0.301-0.299-0.301
			c0-0.199,0.299-0.199,0.299-0.199c-0.5-0.2-0.299-0.5-0.299-0.5c0.104-0.399,0.604-0.1,0.604-0.1c0.396-0.301,0.694,0.1,0.694,0.1
			C65.238,49.113,65.539,49.414,65.539,49.414z		">
<animateTransform  type="translate" fill="remove" attributeName="transform" dur="0.5" calcMode="linear" restart="always" values="0,0;1,-1" begin="0s" additive="replace" repeatCount="indefinite" accumulate="none" attributeType="XML">
				</animateTransform>
			
				<animate  fill="remove" to="0" attributeName="opacity" dur="1" calcMode="linear" restart="always" begin="0.5s" additive="replace" repeatCount="indefinite" accumulate="none" from="1">
				</animate>
		</path>
	</g>
	<path id="parking" d="M53.154,17.552l-9.925,0.146l-4.863,8.393l5.061,8.247l9.925-0.146l4.863-8.393L53.154,17.552z
		 M49.126,30.557c-0.078,0.056-0.208,0.083-0.39,0.083h-0.21H45.77h-0.16c-0.148,0-0.263-0.031-0.344-0.093
		c-0.08-0.062-0.12-0.15-0.12-0.265c0-0.188,0.082-0.313,0.247-0.372c0.136-0.05,0.216-0.081,0.238-0.093
		c0.022-0.011,0.046-0.037,0.071-0.079c0.049-0.073,0.074-0.189,0.074-0.351v-6.885c0-0.16-0.025-0.277-0.074-0.351
		c-0.025-0.041-0.049-0.067-0.071-0.079c-0.022-0.012-0.103-0.042-0.238-0.093c-0.165-0.06-0.247-0.184-0.247-0.371
		c0-0.115,0.04-0.203,0.12-0.266c0.081-0.062,0.195-0.093,0.344-0.093h0.16h2.751v8.082c0,0.179,0.03,0.307,0.092,0.385
		c0.033,0.046,0.064,0.075,0.093,0.086c0.029,0.012,0.124,0.04,0.285,0.086c0.197,0.051,0.296,0.177,0.296,0.379
		C49.286,30.388,49.232,30.483,49.126,30.557z M52.02,25.805c-0.279,0.444-0.672,0.772-1.176,0.983
		c-0.416,0.17-1.016,0.255-1.799,0.255v-0.736c0.178-0.046,0.303-0.094,0.374-0.145c0.072-0.051,0.136-0.128,0.188-0.233
		c0.087-0.18,0.13-0.42,0.13-0.723v-2.201c0-0.215-0.014-0.376-0.043-0.481c-0.029-0.105-0.087-0.201-0.173-0.289
		c-0.12-0.128-0.28-0.208-0.482-0.24v-0.743c0.849,0,1.477,0.09,1.879,0.269c0.466,0.206,0.834,0.522,1.105,0.949
		c0.275,0.437,0.414,0.97,0.414,1.604C52.438,24.777,52.299,25.355,52.02,25.805z"/>
</g>
<g id="Direction">
	<g transform="rotate({{angle}} 50 50)">
		<polygon id="arrow" class="arrow" opacity="0.7" enable-background="new    " points="59.7,31.4 50.8,24 41.9,31.3 41.9,35.4 42,35.4 50.8,28.1 
			59.3,35.4 59.7,35.4 		">
		
			<animate  fill="remove" attributeName="opacity" dur="0.5s" calcMode="linear" restart="always" values="0.5; 0" begin="0s;anim_arrow3.end" additive="replace" accumulate="none" id="anim_arrow1">
			</animate>
		</polygon>
		<polygon id="arrow2" class="arrow" opacity="0.7" enable-background="new    " points="59.8,26.4 50.9,19 42,26.4 42,30.4 42.1,30.4 50.9,23.2 
			59.4,30.4 59.8,30.4 		">
		
			<animate  fill="remove" attributeName="opacity" dur="0.5s" calcMode="linear" restart="always" values="0.5; 0" begin="anim_arrow1.end" additive="replace" accumulate="none" id="anim_arrow2">
			</animate>
		</polygon>
		<polygon id="arrow3" class="arrow" opacity="0.7" enable-background="new    " points="59.9,21.4 51,14.1 42.1,21.4 42.1,25.5 42.2,25.5 
			51,18.2 59.5,25.5 59.9,25.5 		">
		
			<animate  fill="remove" attributeName="opacity" dur="0.5s" calcMode="linear" restart="always" values="0.5; 0" begin="anim_arrow2.end" additive="replace" accumulate="none" id="anim_arrow3">
			</animate>
		</polygon>
	</g>
</g>
<path id="Idle" class="hourglass" d="M53.199,17.539l-9.926,0.173l-4.841,8.392l5.084,8.247l9.902-0.146l4.863-8.433L53.199,17.539z M49.594,30.516
	l-2.625,0.005c0,0-0.5,0.019-0.516-0.293c0,0-0.031-0.281,0.375-0.391c0,0,0.234,0.016,0.25-0.453l-0.031-5.906
	c0,0,0.047-0.266-0.359-0.344c0,0-0.268-0.109-0.235-0.391c0,0,0.11-0.172,0.329-0.25h3.125c0,0,0.328,0.031,0.344,0.281
	c0,0,0.031,0.313-0.313,0.359c0,0-0.359,0.109-0.266,0.656l-0.031,5.641c0,0,0.031,0.422,0.328,0.438c0,0,0.361,0.063,0.282,0.484
	C50.251,30.353,50.157,30.555,49.594,30.516z"/>
</svg>
