<?xml version="1.0" encoding="utf-8"?>
<!-- Generator: Adobe Illustrator 19.2.1, SVG Export Plug-In . SVG Version: 6.00 Build 0)  -->
<svg version="1.1" id="Layer_1" xmlns="http://www.w3.org/2000/svg" xmlns:xlink="http://www.w3.org/1999/xlink" x="0px" y="0px"
	 width="100px" height="100px" viewBox="0 0 100 100"   style="enable-background:new 0 0 100 100;" xml:space="preserve">
<style type="text/css">
	.st0{opacity:0.5;fill:{{circle_color}};enable-background:new    ;}
	.st1{fill:#333333;}
	.st2{fill:#666666;}
	.st3{fill:#999999;}
	.st4{fill:#003366;}
	.st5{fill:#336699;}
	.st6{fill:#22B573;}
	.st7{fill:#FFFFFF;}
</style>
    <g transform="rotate({{angle}} 50 50)">
<circle class="st0" cx="42.413" cy="115.24" r="39.408">
<animate  accumulate="none" additive="replace" attributeName="opacity" begin="0.5s" calcMode="linear" dur="1" fill="remove" from="1" repeatCount="indefinite" restart="always" values="0.5; 0">
	</animate>
</circle>
<rect x="38.965" y="259.187" transform="matrix(0.9999 -0.0105 0.0105 0.9999 -2.727 0.4753)" width="9.865" height="1.492"/>
<rect x="18.086" y="14.519" transform="matrix(0.9999 -0.0105 0.0105 0.9999 -0.2334 0.2054)" class="st1" width="2.714" height="15.613"/>
<rect x="60.576" y="14.568" transform="matrix(0.9999 -0.0105 0.0105 0.9999 -0.2315 0.6505)" class="st1" width="2.505" height="15.613"/>
<rect x="19.096" y="78.636" transform="matrix(0.9999 -0.0105 0.0105 0.9999 -1.7632 0.4597)" class="st2" width="47.599" height="179.007"/>
<rect x="32.104" y="73.413" transform="matrix(0.9999 -0.0105 0.0105 0.9999 -0.796 0.4432)" class="st2" width="19.415" height="5.221"/>
<rect x="66" y="92.243" transform="matrix(0.9999 -0.0105 0.0105 0.9999 -1.0589 0.7101)" class="st1" width="2.192" height="17.901"/>
<rect x="66.226" y="112.381" transform="matrix(0.9999 -0.0105 0.0105 0.9999 -1.2703 0.7136)" class="st1" width="2.192" height="17.901"/>
<rect x="16.389" y="113.604" transform="matrix(0.9999 -0.0105 0.0105 0.9999 -1.2859 0.1904)" class="st1" width="2.192" height="17.901"/>
<rect x="16.206" y="92.619" transform="matrix(0.9999 -0.0105 0.0105 0.9999 -1.0656 0.1873)" class="st1" width="2.192" height="17.901"/>
<rect x="17.648" y="225.984" transform="matrix(0.9999 -0.0105 0.0105 0.9999 -2.4659 0.2098)" class="st1" width="2.192" height="17.901"/>
<rect x="17.466" y="205.099" transform="matrix(0.9999 -0.0105 0.0105 0.9999 -2.2466 0.2067)" class="st1" width="2.192" height="17.901"/>
<rect x="67.491" y="225.308" transform="matrix(0.9999 -0.0105 0.0105 0.9999 -2.456 0.7331)" class="st1" width="2.192" height="17.901"/>
<rect x="67.211" y="205.021" transform="matrix(0.9999 -0.0105 0.0105 0.9999 -2.243 0.7291)" class="st1" width="2.192" height="17.901"/>
<rect x="33.314" y="257.696" transform="matrix(0.9999 -0.0105 0.0105 0.9999 -2.7137 0.4742)" class="st2" width="20.981" height="1.939"/>
<rect x="26.375" y="76.085" transform="matrix(0.9999 -0.0105 0.0105 0.9999 -0.8109 0.3075)" width="5.011" height="2.586"/>
<rect x="52.368" y="75.81" transform="matrix(0.9999 -0.0105 0.0105 0.9999 -0.8066 0.5804)" width="5.011" height="2.586"/>
<rect x="52.316" y="69.294" transform="matrix(0.9999 -0.0105 0.0105 0.9999 -0.7583 0.581)" class="st2" width="5.272" height="6.415"/>
<rect x="26.063" y="69.622" transform="matrix(0.9999 -0.0105 0.0105 0.9999 -0.7629 0.3054)" class="st2" width="5.272" height="6.365"/>
<rect x="31.268" y="69.135" transform="matrix(0.9999 -0.0105 0.0105 0.9999 -0.7464 0.443)" class="st1" width="21.085" height="4.326"/>
<path class="st3" d="M52.847,69.067l3.83-1.149l2.086-0.123l1.964-1.614l0.104-34.315l5.019,0.639l0.83-0.407l-2.838-1.559
	l-2.926-0.265l0.505-18.505c0,0,0.586-3.289-9.366-6.158L47.46,5.465l-2.83-0.962l-8.245,0.194L33.684,5.92l-5.01,0.057
	c0,0-8.115,2.281-9.211,6.571l1.051,17.692l-3.227,0.733L15.01,32.69l0.632,0.49l5.104-0.954L22.01,67.42l2.203,0.87l1.982-0.122
	l5.566,1.121L52.847,69.067z"/>
<path class="st4" d="M58.057,30.82l-1.894,7.977c0,0-16.94-2.507-30.684,0.721l-2.39-8.329
	C23.089,31.188,40.658,24.638,58.057,30.82z"/>
<path class="st5" d="M24.864,31.259l1.893,6.938c0,0,15.496-2.521,28.171,0.034l2.031-7.33
	C56.959,30.901,40.709,25.515,24.864,31.259z"/>
<path class="st4" d="M58.609,52.198c0,0-1.257-0.385-0.798,3.291l-1.27-1.578l0.184-11.539l1.629-3.697L58.609,52.198z"/>
<path class="st4" d="M23.994,56.143l0.925-1.303l-0.147-13.127l-1.81-3.164l0.049,13.725C23.011,52.274,24.058,52.562,23.994,56.143
	z"/>
<path class="st6" d="M60.595,10.355l-0.13-2.286l-4.719-1.89l-2.869,0.179C52.877,6.358,58.955,8.383,60.595,10.355z"/>
<path class="st6" d="M21.97,10.413l0.073-2.288l4.42-1.986l2.716,0.121C29.179,6.26,23.477,8.408,21.97,10.413z"/>
<path class="st2" d="M58.763,67.795c0,0-2.078-0.956-2.346-3.863c0,0-2.48,2.264-5.923,2.449l-16.752,0.326
	c0,0-6.112-0.458-7.78-2.529c0,0-0.269,3.956-2.934,3.686l6.98,1.045l23.408-0.247L58.763,67.795z"/>
<path class="st2" d="M47.679,40.975L47.679,40.975c0.545-0.006,0.996,0.436,1.002,0.981l0.224,20.094
	c0.006,0.546-0.435,0.997-0.981,1.003l0,0c-0.545,0.006-0.996-0.436-1.002-0.981l-0.224-20.094
	C46.692,41.432,47.134,40.98,47.679,40.975z"/>
<path class="st2" d="M40.683,40.849L40.683,40.849c0.545-0.006,0.996,0.436,1.002,0.981l0.224,20.094
	c0.006,0.546-0.435,0.997-0.981,1.003l0,0c-0.545,0.006-0.996-0.436-1.002-0.981l-0.224-20.094
	C39.696,41.306,40.138,40.855,40.683,40.849z"/>
<path class="st2" d="M34.321,41.314L34.321,41.314c0.545-0.006,0.996,0.436,1.002,0.981l0.224,20.094
	c0.006,0.546-0.435,0.997-0.981,1.003l0,0c-0.545,0.006-0.996-0.436-1.002-0.981L33.34,42.317
	C33.333,41.771,33.775,41.32,34.321,41.314z"/>
<path class="st2" d="M53.288,29.13c0,0-11.932-2.783-24.581,0.334l1.78-22.919l3.599-0.237l3.013-1.325l7.072-0.075l2.961,1.063
	l3.474,0.287L53.288,29.13z"/>
<path class="st7" d="M45.575,36.849c0,0,6.44-0.072,7.384,0.614l1.805-6.584C54.764,30.879,52.482,36.573,45.575,36.849z"/>
<path class="st5" d="M23.293,40.138l1.172,2.076l0.107,9.547C24.571,51.761,23.624,41.725,23.293,40.138z"/>
      </g>
</svg>
