<?xml version="1.0" encoding="utf-8"?>
<!-- Generator: Adobe Illustrator 19.2.1, SVG Export Plug-In . SVG Version: 6.00 Build 0)  -->
<svg version="1.1" id="Layer_1" xmlns="http://www.w3.org/2000/svg" xmlns:xlink="http://www.w3.org/1999/xlink" x="0px" y="0px"
	width="100px" height="100px"  viewBox="0 0 100 100" style="enable-background:new 0 0 100 100;" xml:space="preserve">
<style type="text/css">
	.st0{fill:#69BD45;fill-opacity:0;}
	.st1{fill:{{circle_color}};}
	.st2{fill:#333333;}
	.st3{fill:#B7AFA8;}
	.st4{fill:#999999;}
	.st5{fill:#CCCCCC;}
	.st6{fill:#666666;}
	.st7{fill:#6666CC;}
	.st8{fill:#000033;}
	.st9{fill:#336699;}
	.st10{fill:#6699CC;}
	.st11{opacity:0.31;fill:#666666;enable-background:new    ;}
	.st12{opacity:0.57;enable-background:new    ;}
	.st13{opacity:0.37;enable-background:new    ;}
	.st14{opacity:0.5;fill:#99CCCC;enable-background:new    ;}
	.st15{fill:#666699;}
	.st16{opacity:0.5;fill:#333366;enable-background:new    ;}
	.st17{fill:#555E6C;}
	.st18{opacity:0.8;enable-background:new    ;}
	.st19{opacity:0.6;fill:#333366;enable-background:new    ;}
	.st20{fill:#3B3D43;}
</style>
<g id="rotateThisGroup" transform="rotate({{angle}} 50 50)">
	<circle id="guide" class="st0" cx="50" cy="50" r="30.3"/>
	<polygon id="Arrow_1" class="st1" points="50,14.5 53.9,18.7 56.3,18.7 50,12.1 43.7,18.7 46,18.7 	">
	
		<animate  accumulate="none" additive="replace" attributeName="opacity" begin="0s;arrow3.end" calcMode="linear" dur="0.5s" fill="remove" id="arrow1" restart="always" values="0.5; 0">
		</animate>
	</polygon>
	<polygon id="Arrow_2" class="st1" points="50,10.2 53.9,14.3 56.3,14.3 50,7.7 43.7,14.3 46,14.3 	">
	
		<animate  accumulate="none" additive="replace" attributeName="opacity" begin="arrow1.end" calcMode="linear" dur="0.5s" fill="remove" id="arrow2" restart="always" values="0.5; 0">
		</animate>
	</polygon>
	<polygon id="Arrow_3" class="st1" points="50,5.8 53.9,10 56.3,10 50,3.3 43.7,10 46,10 	">
	
		<animate  accumulate="none" additive="replace" attributeName="opacity" begin="arrow2.end" calcMode="linear" dur="0.5s" fill="remove" id="arrow3" restart="always" values="0.5; 0">
		</animate>
	</polygon>
	
		<!--<animateTransform  accumulate="none" additive="replace" attributeName="transform" attributeType="XML" calcMode="linear" dur="10s" fill="remove" from="0 50 50" repeatCount="indefinite" restart="always" to="360 50 50" type="rotate">
		</animateTransform>-->
</g>
  
  <g >

<polygon class="st2" points="77.4,52.6 66.5,52.9 66.4,49.9 77.4,49.9 "/>
<polygon class="st3" points="77.2,50.1 77.3,52.2 78.7,52.1 78.8,50.1 "/>
<polygon class="st4" points="76,50.1 76.1,52 77.3,52.2 77.2,50.1 "/>
<polygon class="st2" points="76.8,50.7 77.2,50.7 78.7,50.7 78.7,50.8 77.3,50.8 76.8,50.8 "/>
<path d="M58.5,53.6h0.6l0.1,0.1l0.1,0l1.7,0.1l0.2,0.2l0.3-0.2l5.3-0.2l1.8-2.6v-0.2l-0.1-0.2l-7.1,0.1h-1.5l-0.3,0.2l0,0.2h-0.2
	L59.3,51l0-0.2h-0.4V51l-0.1,0l0-0.3l-0.1,0V51h-0.1v-0.2h-0.1v0.3h-0.1L55.6,51c0,0,1,2,0.7,2.4l0.9,0.1L58.5,53.6z"/>
<path d="M55.5,51h1.2c0,0,0.2-0.2-0.2-0.3l-2.7,0.2l-2-0.2l0-0.3l3.9-0.6l13.6,0l-0.2,0.6l-7.9,0.4V51h-4.1L57,51.3h-1.3L55.5,51z"
	/>
<ellipse class="st4" cx="58" cy="52.2" rx="0.9" ry="1.1"/>
<path d="M39.7,50.7l2.4,0l3.4-0.1l0.6-0.2c0,0,0-0.2-0.5-0.1l-0.1,0l0-0.2L45.1,50l0.4-0.2H57l-0.5,0.9l0.1,0.3h-0.3l-0.2-0.2
	l-0.6,0c0,0-0.6-0.4-2.1-0.4h-1.5l-1.1-0.2h-0.3H50l-0.3,0.2l-0.1,0.1l0,0.1l0.4,0.1l0.2,0c0,0,0.4,0,0.4,0s0.1,0,0.3,0s0.5,0,0.6,0
	c0.1,0,0.2,0.1,0.2,0.1L51.5,51c0,0-0.4,0.1-0.5,0.1c-0.1,0-0.1,0-0.3,0S50.5,51,50.3,51c-0.1,0-0.4,0-0.6,0s-0.1,0-0.3,0
	s0.1,0-0.4,0s-0.6,0-0.7,0.1c-0.1,0-0.2-0.1-0.4,0s-0.1,0.2-0.4,0.1c-0.3,0-0.5,0-0.5,0s-0.4,0-0.6,0s-0.1,0-0.5,0
	c-0.3,0-0.8,0-0.8,0s-0.2,0-0.3,0s-1.3,0-1.5,0s-0.1-0.1-0.8,0s-0.6,0-0.9,0s-0.4,0.1-0.5,0c-0.2,0-0.8-0.1-0.8-0.1l-0.3-0.1
	L39.7,50.7z"/>
<path class="st5" d="M45.5,51.1c0,0,0.7,0,1.7-0.1c0.1,0,0.2,0,0.3,0c1.3,0,2.9-0.1,3.5-0.1l-0.5,3.9c0,0-4.1,0.6-5.1,0.1L45.5,51.1
	z"/>
<path class="st6" d="M42.8,55.2l0.9,0.3c0,0,0.2-0.1,0.3-0.4c0,0,2-0.3,2-0.2s0.9-0.8,0.2-1.4l0-0.2h0.1c0,0,0.2-0.1-0.1-0.2
	l-0.1-1.6l-2.5,0.2l0,0.1l-1.5,0.1c0,0,0.1-0.7-0.6-0.6H41v0.5l-0.2-0.1l-0.3,0l-0.2,1.7l0.3,1.3l0.3,0.6L42.8,55.2z"/>
<ellipse class="st5" cx="42.2" cy="53.8" rx="1.3" ry="1.6"/>
<path class="st6" d="M41.1,56.2l-4.8-0.4c0,0-0.3-4.2-1.4-4.1c0,0,1.6-2.6,4.3-1.1C39.3,50.6,41.5,51.5,41.1,56.2z"/>
<g>
	<path d="M37.8,57.4c0,0-2.3-0.1-3-0.5c0,0-2-1.2-0.8-3.8c0,0,0.3-2.1,2.6-2.1c0,0,1.7,0,2.3,0.5"/>
	<ellipse class="st2" cx="37.6" cy="54.3" rx="2.8" ry="3.1"/>
	<g>
		<path d="M39.2,54.3c0,1-0.8,2-1.6,2S36,55.4,36,54.4s0.9-1.9,1.7-1.9C38.5,52.5,39.2,53.3,39.2,54.3z"/>
		<ellipse class="st4" cx="37.6" cy="54.4" rx="1.5" ry="1.8"/>
	</g>
	<g>
		<path class="st2" d="M39,54.3c0,0.7-0.5,1.4-1.1,1.4c-0.6,0-1.1-0.6-1.1-1.3S37.4,53,38,53S39,53.6,39,54.3z"/>
	</g>
	<ellipse transform="matrix(0.1354 -0.9908 0.9908 0.1354 -21.1016 84.5523)" class="st4" cx="37.9" cy="54.4" rx="1.3" ry="1"/>
	<circle class="st2" cx="38" cy="53.5" r="0.2"/>
	<circle class="st2" cx="37.4" cy="53.8" r="0.2"/>
	<circle class="st2" cx="37.2" cy="54.5" r="0.2"/>
	<circle class="st2" cx="38" cy="54.4" r="0.3"/>
	<circle class="st2" cx="37.5" cy="55.2" r="0.2"/>
	<circle class="st2" cx="38.1" cy="55.3" r="0.2"/>
	<ellipse transform="matrix(0.9338 -0.3578 0.3578 0.9338 -17.0674 17.4141)" class="st2" cx="38.5" cy="54.8" rx="0.2" ry="0.2"/>
	<circle class="st2" cx="38.6" cy="54.3" r="0.2"/>
	<circle class="st2" cx="38.5" cy="53.9" r="0.2"/>
</g>
<g>
	<path d="M74.9,53.8c0,0-1.3,0-1.7-0.3c0,0-1.1-0.7-0.5-2.2c0,0,0.2-1.2,1.5-1.2c0,0,1,0,1.3,0.3"/>
	<ellipse class="st2" cx="74.8" cy="52.1" rx="1.6" ry="1.8"/>
	<g>
		<path d="M75.7,52c0,0.6-0.4,1.1-0.9,1.1s-0.9-0.5-0.9-1.1s0.5-1.1,1-1.1C75.4,51,75.7,51.5,75.7,52z"/>
		<ellipse class="st4" cx="74.9" cy="52.1" rx="0.8" ry="1"/>
	</g>
	<g>
		<path class="st2" d="M75.6,52.1c0,0.4-0.3,0.8-0.6,0.8s-0.6-0.4-0.6-0.8c0-0.4,0.4-0.8,0.7-0.8C75.4,51.3,75.6,51.7,75.6,52.1z"/>
	</g>
	<ellipse transform="matrix(0.1354 -0.9908 0.9908 0.1354 13.2386 119.3516)" class="st4" cx="75" cy="52.1" rx="0.7" ry="0.6"/>
	<circle class="st2" cx="75.1" cy="51.6" r="0.1"/>
	<circle class="st2" cx="74.7" cy="51.8" r="0.1"/>
	<circle class="st2" cx="74.6" cy="52.2" r="0.1"/>
	<circle class="st2" cx="75.1" cy="52.1" r="0.2"/>
	<circle class="st2" cx="74.8" cy="52.6" r="0.1"/>
	<circle class="st2" cx="75.1" cy="52.6" r="0.1"/>
	<ellipse transform="matrix(0.9338 -0.3578 0.3578 0.9338 -13.7437 30.4315)" class="st2" cx="75.4" cy="52.4" rx="0.1" ry="0.1"/>
	<circle class="st2" cx="75.4" cy="52.1" r="0.1"/>
	<circle class="st2" cx="75.4" cy="51.8" r="0.1"/>
</g>
<g>
	<path d="M72.2,54.2c0,0-1.4-0.1-1.8-0.3c0,0-1.2-0.8-0.5-2.4c0,0,0.2-1.3,1.6-1.3c0,0,1,0,1.4,0.3"/>
	<ellipse class="st2" cx="72.1" cy="52.3" rx="1.7" ry="1.9"/>
	<g>
		<path d="M73.1,52.3c0,0.6-0.5,1.2-1,1.2s-1-0.6-1-1.2c0-0.6,0.5-1.2,1-1.2S73.1,51.6,73.1,52.3z"/>
		<ellipse class="st4" cx="72.1" cy="52.3" rx="0.9" ry="1.1"/>
	</g>
	<g>
		<path class="st2" d="M73,52.3c0,0.4-0.3,0.9-0.7,0.9c-0.4,0-0.7-0.4-0.7-0.8s0.4-0.8,0.7-0.8S73,51.8,73,52.3z"/>
	</g>
	<ellipse transform="matrix(0.1354 -0.9908 0.9908 0.1354 10.6977 116.8722)" class="st4" cx="72.3" cy="52.3" rx="0.8" ry="0.6"/>
	<circle class="st2" cx="72.4" cy="51.8" r="0.1"/>
	<circle class="st2" cx="72" cy="52" r="0.1"/>
	<circle class="st2" cx="71.9" cy="52.4" r="0.1"/>
	<circle class="st2" cx="72.4" cy="52.3" r="0.2"/>
	<circle class="st2" cx="72.1" cy="52.8" r="0.1"/>
	<circle class="st2" cx="72.5" cy="52.9" r="0.1"/>
	<ellipse transform="matrix(0.9338 -0.3578 0.3578 0.9338 -14.0056 29.496)" class="st2" cx="72.7" cy="52.6" rx="0.1" ry="0.1"/>
	<circle class="st2" cx="72.8" cy="52.3" r="0.1"/>
	<circle class="st2" cx="72.7" cy="52" r="0.1"/>
</g>
<path class="st4" d="M41.4,49.6l4.5,0.3h1.7l32.1,0.1v-9.2l-32.7-6.6c0,0-0.6-0.2-2.1,0l-5.1,0.9L41.4,49.6z"/>
<path class="st2" d="M42,45c0,0,2.6,0.1,2.7,0.2l0,0.1l-0.1,1.3l-0.1,0.1H42L42,45z"/>
<path class="st5" d="M41.8,40.4c0,0,2.4-0.3,3,0.2l-0.1,4.6c0,0-2.5-0.3-3.2,0L41.8,40.4z"/>
<path class="st7" d="M41.2,34.7c0,0,2.2-0.2,3,0l0.1-0.1l0.3,0c0,0,0.2,0,0.2,0.2l-0.1,5.6l-3-0.1l-0.9-2.7l-0.3-1.5l0.1-0.9
	L41.2,34.7z"/>
<image style="display:none;overflow:visible;enable-background:new    ;" width="929" height="636" id="_x33_DTruck_x5F_smoke_x5F_W_x5F_crop_xA0_Image" xlink:href="D7489592.png"  transform="matrix(0.1002 0 0 9.450000e-002 5.4584 26.3482)">
</image>
<image style="display:none;overflow:visible;enable-background:new    ;" width="1300" height="866" xlink:href="../../../../../References/6054809-A-Big-Yellow-and-White-Semi-Trailer-Truck-Stock-Photo-trailer.jpg"  transform="matrix(4.590000e-002 0 0 4.590000e-002 21.3 28.1153)">
</image>
<polygon class="st3" points="64.9,52.2 64.9,53.3 66.5,53.2 66.5,52.1 "/>
<g>
	<path class="st8" d="M39.4,34.8c0,0,1.2-0.2,2.4,0.1v0.2c0,0-1.4-0.2-2.4-0.1V34.8z"/>
	<path class="st8" d="M39.4,35.1c0,0,1.2-0.2,2.4,0.1v0.2c0,0-1.4-0.2-2.4-0.1V35.1z"/>
	<path class="st8" d="M39.4,35.4c0,0,1.2-0.2,2.4,0.1v0.2c0,0-1.4-0.2-2.4-0.1V35.4z"/>
	<path class="st8" d="M39.4,35.7c0,0,1.2-0.2,2.4,0.1v0.2c0,0-1.4-0.2-2.4-0.1V35.7z"/>
	<path class="st8" d="M39.4,36c0,0,1.2-0.2,2.4,0.1v0.2c0,0-1.4-0.2-2.4-0.1V36z"/>
	<path class="st8" d="M39.4,36.3c0,0,1.2-0.2,2.4,0.1v0.2c0,0-1.4-0.2-2.4-0.1V36.3z"/>
	<path class="st8" d="M39.4,36.6c0,0,1.2-0.2,2.4,0.1v0.2c0,0-1.4-0.2-2.4-0.1V36.6z"/>
	<path class="st8" d="M39.4,36.9c0,0,1.2-0.2,2.4,0.1v0.2c0,0-1.4-0.2-2.4-0.1V36.9z"/>
	<path class="st8" d="M39.4,37.2c0,0,1.2-0.2,2.4,0.1v0.2c0,0-1.4-0.2-2.4-0.1V37.2z"/>
	<path class="st8" d="M39.4,37.5c0,0,1.2-0.2,2.4,0.1v0.2c0,0-1.4-0.2-2.4-0.1V37.5z"/>
	<path class="st8" d="M39.4,37.8c0,0,1.2-0.2,2.4,0.1v0.2c0,0-1.4-0.2-2.4-0.1V37.8z"/>
	<path class="st8" d="M39.4,38.1c0,0,1.2-0.2,2.4,0.1v0.2c0,0-1.4-0.2-2.4-0.1V38.1z"/>
	<path class="st8" d="M39.4,38.4c0,0,1.2-0.2,2.4,0.1v0.2c0,0-1.4-0.2-2.4-0.1V38.4z"/>
	<path class="st8" d="M39.4,38.7c0,0,1.2-0.2,2.4,0.1V39c0,0-1.4-0.2-2.4-0.1V38.7z"/>
	<path class="st8" d="M39.4,39c0,0,1.2-0.2,2.4,0.1v0.2c0,0-1.4-0.2-2.4-0.1V39z"/>
	<path class="st8" d="M39.4,39.3c0,0,1.2-0.2,2.4,0.1v0.2c0,0-1.4-0.2-2.4-0.1V39.3z"/>
	<path class="st8" d="M39.4,39.6c0,0,1.2-0.2,2.4,0.1v0.2c0,0-1.4-0.2-2.4-0.1V39.6z"/>
	<path class="st8" d="M39.4,39.9c0,0,1.2-0.2,2.4,0.1v0.2c0,0-1.4-0.2-2.4-0.1V39.9z"/>
</g>
<polygon points="66.7,51 66.7,52 68.3,52 68.3,50.9 "/>
<g id="Body">
	<path class="st9" d="M27.2,37c0,0,6.2-3.1,13.7-2.9c0,0,0.7,1.4,0.3,1.5v1.1l-4.4,0.7C36.9,37.3,27.5,37.5,27.2,37z"/>
	<path class="st10" d="M27.2,37c0,0-1.5,0.4-2.2,0.9l-0.2,0.7l-0.3,1.5L24,45.2l-0.2,0.2v1.1l-0.6,0.3l0.2,2.7c0,0,0,0.3,0.6,0.3
		h0.2l0.1,0.2l-0.1,0.3L24,50.6v1.1l0.2,0.2c0,0,0.3-0.1,0.3,0.3v0.6h-0.3c0,0-0.2-0.1-0.2,0.7l-0.2,0.3l0.1,0.8l0.5,0.3l0.1,0.2
		l0.8,0.2l5.9,0.7l1.1,0.2l2.3,0.2c0,0,0.7,0.1,0.5-1.3l0-1.1c0,0,0.1-3.2,2.3-3.4c0,0,1.7-0.4,2.4,0.5l2.4-0.1v-1.2l0.1-0.1
		l-0.1-3.9l-0.3-5.8l0-0.1l-0.1-0.1l-0.2-1.7c0,0,0.1-0.9-0.5-0.9h-0.6c0,0-5.4-0.6-8.5-0.5C31.9,36.2,30.1,36.3,27.2,37z"/>
	<path class="st2" d="M24.6,40c0,0-0.8,4.5-0.6,5.2l6.5-0.5c0,0,0.4,0,0.4-0.6l0.2-4.8c0,0,0.1-0.6-0.5-0.4
		C30.6,38.8,27.6,39.3,24.6,40z"/>
	<path class="st5" d="M24.6,40.1c0,0-0.6,3.5-0.5,4.2l6.3-0.5c0,0,0.5-0.1,0.5-0.7l0.2-3.7c0,0,0.1-0.6-0.5-0.4
		C30.5,39,27.5,39.5,24.6,40.1z"/>
	<polygon class="st11" points="25.3,44.3 25.4,44.3 25.6,44.5 25.8,44.9 25.7,44.9 25.6,44.9 25.5,44.9 	"/>
	<polygon class="st11" points="24.4,44.6 24.4,44.7 24.6,44.9 25.2,44.9 25.3,44.8 25.3,44.6 25.1,44.5 	"/>
	<polygon class="st11" points="26,44.5 26,44.7 26.2,44.7 26.9,44.7 27,44.5 27,44.4 26.6,44.4 	"/>
	<polygon class="st11" points="26.9,44.1 26.9,44.2 27,44.2 27,44.3 27.1,44.3 27.1,44.2 27.2,44.2 27.3,44.5 27.2,44.7 27.4,44.8 
		27.6,44.7 27.5,44.7 27.4,44.4 27.2,44.1 	"/>
	<polygon class="st11" points="27.9,44.3 27.9,44.4 28.2,44.5 28.8,44.5 28.7,44.3 28.6,44.2 27.9,44.3 	"/>
	<polygon class="st11" points="29,44.2 29.1,44.3 29.3,44.7 29.4,44.7 29.6,44.6 29.6,44.3 29.2,43.9 29,44.1 	"/>
	<path class="st2" d="M23.8,46.6v1.1l5.6-0.1c0,0,0.1-1.2,0.1-1.2L23.8,46.6z"/>
	<polygon class="st2" points="23.9,48 23.9,48.7 29.4,48.7 29.4,47.9 	"/>
	<polygon class="st2" points="24,49 24.1,49.4 29.4,49.6 29.4,49 	"/>
	<path class="st2" d="M24.9,50.2l-0.2,0.3c0,0,0,2.7,0.4,3.2l3,0.3l0.2-0.2c0,0,0.3-3.1,0.4-3.3l0.2-0.3L24.9,50.2z"/>
	<path class="st2" d="M31.9,39.8c0,0,0-0.5,0.8-0.4l3.7,0.2c0,0,0.3,0.1,0.4,0.4v3.3c0,0,0.1,0.4-0.5,0.4l-4.2,0.3
		c0,0-0.3-0.1-0.3-0.4L31.9,39.8z"/>
	<path class="st5" d="M32,39.7c0,0,0-0.5,0.7-0.4l3.6,0.2c0,0,0.3,0.1,0.4,0.4v3.2c0,0,0.1,0.4-0.4,0.4l-4.1,0.3
		c0,0-0.3-0.1-0.3-0.4L32,39.7z"/>
	<path d="M24.5,49.8l0.1,0.4l5,0.2l0.2-0.2c0,0,0.1-0.3,0-0.3L24.5,49.8z"/>
	<path class="st2" d="M25.6,54.1c0,0,0.1,0.6,0.3,0.7l1.2,0.3l0.4-0.1v-0.5c0,0,0-0.1-0.4-0.2C27.1,54.2,25.8,54.1,25.6,54.1z"/>
	<path d="M25.9,54.8l0.5,0l0.4,0l0.7,0.1l0.1-0.1l-0.7-0.1l-0.1-0.1l0-0.2v-0.1h0.8c0,0,0-0.1-0.3-0.1l-1.5-0.1c0,0-0.1,0-0.1,0.1
		l0.1,0.3L25.9,54.8L25.9,54.8z"/>
	<polygon points="25,50.8 25.2,50.9 25.2,51 25.3,51 25.3,50.9 25.4,50.9 25.4,51 25.6,50.9 26,50.9 26,51.1 26.1,51.1 26.2,50.9 
		26.3,50.9 26.3,51 26.4,50.9 26.8,50.9 26.8,51.1 26.9,51.1 27,51.1 27,51 27.2,51 27.2,51.1 27.4,51 27.5,51.1 27.6,51 27.6,51 
		27.7,51.1 27.8,51.1 27.8,51 27.8,51 27.9,51 28,51 28.1,51.1 28.2,50.9 	"/>
	<path d="M25,51.2l3.1,0.1v0.2l-0.4,0v-0.2h-0.1v0.2l-0.1-0.1l-0.5,0l-0.1,0.1l0-0.2h-0.1v0.2c0,0-0.4-0.2-0.6-0.2l0,0.2l-0.1-0.1
		v-0.1l-0.2-0.1l-0.3,0l-0.1,0.1v-0.2l-0.1,0l0,0.2l-0.1,0l0-0.1l0-0.1L25,51.2L25,51.2L25,51.2z"/>
	<path d="M25,51.7l3.1,0.1V52l-0.4,0v-0.2h-0.1V52l-0.1-0.1l-0.5,0L26.9,52l0-0.2h-0.1V52c0,0-0.4-0.2-0.6-0.2l0,0.2L26.1,52v-0.1
		l-0.2-0.1l-0.3,0l-0.1,0.1v-0.2l-0.1,0l0,0.2l-0.1,0l0-0.1l0-0.1L25,51.7L25,51.7L25,51.7z"/>
	<path d="M25,52.1l3.1,0.1v0.2l-0.4,0v-0.2h-0.1v0.2l-0.1-0.1l-0.5,0l-0.1,0.1l0-0.2h-0.1v0.2c0,0-0.4-0.2-0.6-0.2l0,0.2l-0.1-0.1
		v-0.1l-0.2-0.1l-0.3,0l-0.1,0.1v-0.2l-0.1,0l0,0.2l-0.1,0l0-0.1l0-0.1L25,52.1L25,52.1L25,52.1z"/>
	<path d="M25,52.5l3.1,0.1v0.2l-0.4,0v-0.2h-0.1v0.2l-0.1-0.1l-0.5,0l-0.1,0.1l0-0.2h-0.1v0.2c0,0-0.4-0.2-0.6-0.2l0,0.2l-0.1-0.1
		v-0.1l-0.2-0.1l-0.3,0l-0.1,0.1v-0.2l-0.1,0l0,0.2l-0.1,0l0-0.1l0-0.1L25,52.5L25,52.5z"/>
	<path d="M25,52.8l3.1,0.1v0.2l-0.4,0V53h-0.1v0.2l-0.1-0.1l-0.5,0l-0.1,0.1l0-0.2h-0.1v0.2c0,0-0.4-0.2-0.6-0.2l0,0.2l-0.1-0.1V53
		l-0.2-0.1l-0.3,0l-0.1,0.1v-0.2l-0.1,0l0,0.2l-0.1,0l0-0.1l0-0.1L25,52.8L25,52.8L25,52.8z"/>
	<path d="M25.1,53.2l3,0.1v0.2l-0.4,0v-0.2h-0.1v0.2l-0.1-0.1l-0.5,0l-0.1,0.1l0-0.2h-0.1v0.2c0,0-0.4-0.2-0.6-0.2l0,0.2l-0.1-0.1
		v-0.1l-0.2-0.1l-0.3,0l-0.1,0.1v-0.2l-0.1,0l0,0.2l-0.1,0l0-0.1l0-0.1L25.1,53.2C25.1,53.3,25.1,53.2,25.1,53.2z"/>
	<path class="st12" d="M23.9,50.7l0,0.7c0,0,0.3,0,0.4-0.2v-0.4c0,0,0.1,0,0.1,0.1l0-0.3"/>
	<path class="st13" d="M28.7,51c0,0,1.5,0,1.5,0.2l-0.1,0.4c0,0-0.1,0.1-0.7,0.1H30l0.1-0.1l0.1-0.5c0,0,0.1-0.1-0.4-0.1
		C29.8,51,28.7,51,28.7,51z"/>
	<path d="M24.2,51.8L24.2,51.8l-0.1,0.8l0,0.1l0.4,0.1c0,0,0-0.7-0.1-0.8L24.2,51.8z"/>
	<path class="st5" d="M24.1,51.8L24.1,51.8L24,52.7l0.1,0l0.4,0c0,0,0-0.7-0.1-0.8L24.1,51.8z"/>
	<path d="M29.3,52.2c0,0-0.3,0-0.3,0.3v0.3c0,0,0,0.4,0.3,0.4l1.7,0.1l0.2-0.1v-0.6c0,0,0-0.2-0.2-0.2L29.3,52.2z"/>
	<path class="st5" d="M29.3,52.2c0,0-0.2,0-0.3,0.3v0.3c0,0,0,0.3,0.3,0.3l1.6,0.1l0.2-0.1v-0.6c0,0,0-0.2-0.2-0.2L29.3,52.2z"/>
	<path d="M24,53.7l0.5,0.1l0.1,0.1v0.4l-0.5-0.1C24.1,54.3,24,54.3,24,53.7z"/>
	<path class="st5" d="M23.9,53.7l0.5,0.1l0.1,0.1v0.4L24,54.3C24,54.3,24,54.3,23.9,53.7z"/>
	<polygon points="28.7,54.3 28.8,54.9 29.7,54.9 29.6,54.3 	"/>
	<polygon class="st5" points="28.8,54.3 28.9,54.9 29.8,55 29.7,54.3 	"/>
	<polygon class="st5" points="27.8,54.2 27.8,55 28.5,55 28.6,55 28.5,54.3 	"/>
	<polygon class="st5" points="25.9,55 26,55.6 27.5,55.9 27.5,55.3 	"/>
	<path class="st14" d="M29.6,46.5c0,0,0-0.2,0.4-0.2h1.4l0.1,0.2c0,0,0.1,0.4,0.1,0.8l-0.1-0.4l0-0.4l-0.1,0l-0.1,0.4
		c0,0-0.1-0.5-1.4-0.4l-0.1,0.5V46.5z"/>
	<path class="st14" d="M24.1,45.2h0.8l1.7-0.1l-0.9,0.2h0.8l0.6-0.1h0.7l0.2-0.1l0.3,0L28,45.3L28,46l1.4-0.4V46l0.2-0.1
		c0,0,0-1,0.1-1.1L24.1,45.2z"/>
	<polygon class="st14" points="26.4,45.6 26.7,45.5 26.5,46.1 26.8,45.6 26.9,45.5 27,45.4 27.7,45.3 27.7,46.1 26.7,46.3 
		26.6,46.1 26.4,46.3 	"/>
	<path class="st14" d="M28.7,50.8l-0.1,0.9l0.8-0.2H30l-0.5,0.2l0.4,0.1L29.3,52h-0.4L28.6,52l-0.2,1.8h-0.1l0.4-3.2l0.2-0.3l0,0.1
		c0,0,1.5,0.1,1.8,0.1c0,0-0.6,0.4-1.7,0.4v-0.2L28.7,50.8L28.7,50.8z"/>
	<path class="st14" d="M25.5,38.4l0.2,0.3l0.6,0.2l0.4,0.5l2.2-0.4l0.7-1.5c0,0,0,0.5-0.5,1.4l1.7-0.2l0.2-0.3v-0.9l-0.1-0.2h-0.4
		l-0.8,0.1l0.1-0.4l-0.4,0.4l-0.1,0l0.3-0.4l-2.3,0.4l-1.4,0.3l-0.2-0.1l0.3-0.1c0,0,1.3-0.5,2-0.6c0,0-1.3,0.1-2.7,0.8L25,38v0.2
		h0.2h0.1L25.5,38.4L25.5,38.4z"/>
	<path class="st15" d="M29.8,49.9c0,0,0.1,0.2,0,0.3h1.8l-0.1-0.3H29.8z"/>
	<path class="st2" d="M31.6,49.9c0,0,0.2,0.3,0.3,0.7v3c0,0,2.5-0.2,2.7-0.1l0.1,0.2l-0.5,0.1h-0.7l-1.6,0.1l0-3.3
		c0,0,0-0.3-0.2-0.3l-0.1-0.3L31.6,49.9L31.6,49.9z"/>
	<path class="st2" d="M23.9,53.3c0,0,0.7,0.2,1.1,0.1C25,53.4,24.9,53.7,23.9,53.3z"/>
	<path class="st2" d="M28.3,53.8c0,0,2,0.3,3.1,0.1l0.1,0.2l0.1,1.5l-0.2,0.2l-0.1-0.1l0.2-0.2l0-1.4L31.3,54
		C31.3,54,29.3,54.1,28.3,53.8z"/>
	<path class="st2" d="M31.3,49.9l0.2-0.5c0,0,0.1-2.6-0.1-3l-0.1-0.2c0,0,0.1-1,0-1.5c0,0,0.3-5.9,0.4-5.9l5.3,0.4
		c0,0-5.1-0.3-5.2-0.3l0,0.1c0,0-0.4,5-0.3,5.7l0,1.5l0,0.1c0,0,0.2,2.2,0.1,3.1L31.3,49.9z"/>
	<path class="st2" d="M23.7,46.7v0.5h-0.4C23.4,47.2,23.2,46.6,23.7,46.7z"/>
	<rect x="23.3" y="47.3" class="st2" width="0.4" height="0.6"/>
	<rect x="23.4" y="48" class="st2" width="0.3" height="0.5"/>
	<rect x="23.4" y="48.6" class="st2" width="0.3" height="0.5"/>
	<path class="st2" d="M23.4,49.2c0,0,0,0.5,0.5,0.5c0,0-0.1-0.2-0.1-0.5L23.4,49.2z"/>
	<path class="st16" d="M31.9,54l0-0.1l1.6-0.1l0.8,0v1.6l-0.1,0.1l-0.7-0.2l0-1.3l-0.1,0l0,1.2c0,0-1,0.2-1.4,0L31.9,54z"/>
	<polygon class="st5" points="32.2,55.3 32.5,55.5 34.1,55.5 33.4,55.2 	"/>
	<path class="st14" d="M31.9,50.2l0.2,0.2l0.6,0.1l0.3,0.4l0.4,0.1h0.4l0.2-0.1l0.3-0.3l0.3,0.1h0.1c0,0,0.2-0.1,0.3-0.2
		s0.2-0.1,0.2-0.2s0.2-0.2,0.2-0.2h-0.2h0.3l0.1-0.1l-0.4-0.1c0,0-0.3,0-0.5,0S33.9,50,33.9,50s-0.1,0-0.5,0s-0.4,0-0.6,0.1
		s-0.5,0.1-0.6,0.1S31.9,50.2,31.9,50.2z"/>
	<polygon class="st14" points="31.6,48.9 32.4,48.9 36.4,48.9 36.8,49 37.2,49 37.2,48.8 37,48.7 	"/>
	<path class="st17" d="M35,53.8l-0.4-0.1l0-0.2c0,0-0.2-3.5,2.8-3.8l4.7-0.2v0.1v1.1l-2.4,0.1c0,0-0.5-0.9-2.3-0.5
		C37.4,50.3,35.1,50.3,35,53.8z"/>
	<path class="st18" d="M32.5,39.2V39h0.6c0,0,0.4-0.1,0.2,0.8l0.8-0.1c0,0,0.1,0,0.1,0.1l0.1,0.2l-0.1,2l-0.1,0.2H34h-0.8v1.6
		c0,0,0.1,1-0.4,0.9l-0.1,0h-0.1l-0.2-0.1h-0.2l-0.1-0.2l-0.1-0.3l0.2-0.1h0.8l0-0.3l0-1.6L33,42l0-2.6
		C33.1,39.4,33.2,39.1,32.5,39.2z"/>
	<polygon class="st14" points="32.1,45.7 37.2,45.7 37.2,45.5 	"/>
	<path class="st2" d="M35.7,47.9c0,0,0-0.1,0.3-0.2h1l0.2,0.1v0.4L37,48.5h-1.3l0-0.2C35.7,48.3,35.7,47.9,35.7,47.9z"/>
	<polygon points="35.9,47.9 35.8,48 35.8,48.1 37,48.1 37.1,48 37,47.9 36.9,47.9 35.9,47.9 	"/>
	<polygon points="35.8,48.3 35.8,48.4 35.9,48.4 36.9,48.4 37,48.3 37.1,48.1 35.8,48.2 	"/>
	<polygon class="st6" points="30.3,37 30.2,37.3 30.3,37.3 30.7,37.2 30.8,37 	"/>
	<polygon class="st6" points="25,38.2 25.3,38.2 25.3,38.4 25,38.5 	"/>
	<path class="st2" d="M36.9,39.3l0.3,6.2C37.2,45.5,37.2,39.8,36.9,39.3z"/>
	<path class="st2" d="M37.3,45.5H41C41,45.5,38.2,45.3,37.3,45.5z"/>
	<polygon class="st2" points="41.2,45.6 41.2,48.4 37.3,48.6 42.1,48.5 41.3,48.4 	"/>
	<path class="st14" d="M37.5,48.7V49h0.3h0.3h0.5c0,0,0.3,0,0.4,0s0.3-0.1,0.5,0s0.6,0,0.6,0l0.3,0l0.2-0.2c0,0,0.3-0.1,0.3-0.2
		s0.1-0.1,0.2-0.1s0.1,0,0.4,0s0.3,0,0.3,0S41.3,48.6,37.5,48.7z"/>
	<path class="st2" d="M37.2,45.7l0.1,2.8C37.3,48.5,37.3,46,37.2,45.7z"/>
	<path class="st2" d="M40.8,39.4l0.4,6.1C41.2,45.5,40.9,40,40.8,39.4z"/>
	<polygon class="st14" points="41.3,45.6 42,45.7 42,45.6 	"/>
	<path class="st2" d="M32.1,38.1l8.6,0.7l0.1,0.6v-0.5l0.1-0.1l0.8,0.1l-0.9-0.2L40.6,37c0,0-0.1-0.3-0.3-0.3c0,0,0.3,0.1,0.4,1.9
		l-0.1,0.1L32.1,38.1z"/>
	<path class="st2" d="M32.1,35.3l-0.2,0.9C31.9,36.2,31.9,35.5,32.1,35.3z"/>
	<path class="st2" d="M32.1,36.2l9.2-0.6C41.3,35.6,35.4,35.6,32.1,36.2z"/>
	<polygon class="st2" points="36.9,36.4 41,36.7 41.3,36.7 	"/>
	<path class="st10" d="M31.7,35.7c0,0-2.2,0.6-3,0.8c0,0,1.4-0.7,3.2-1.1L31.7,35.7z"/>
	<path class="st10" d="M40.5,34.3c0,0,0.5,0.1,0.6,1.2c0,0,0.4,0.1-0.3-1.2H40.5z"/>
	<polygon class="st10" points="40.5,35.7 36.6,36 36.9,35.9 	"/>
</g>
<g>
	<path class="st8" d="M42.1,34.9c0,0,1.2-0.2,2.4,0.1v0.2c0,0-1.4-0.2-2.4-0.1V34.9z"/>
	<path class="st8" d="M42.1,35.2c0,0,1.2-0.2,2.4,0.1v0.2c0,0-1.4-0.2-2.4-0.1V35.2z"/>
	<path class="st8" d="M42.1,35.5c0,0,1.2-0.2,2.4,0.1v0.2c0,0-1.4-0.2-2.4-0.1V35.5z"/>
	<path class="st8" d="M42.1,35.7c0,0,1.2-0.2,2.4,0.1V36c0,0-1.4-0.2-2.4-0.1V35.7z"/>
	<path class="st8" d="M42.1,36c0,0,1.2-0.2,2.4,0.1v0.2c0,0-1.4-0.2-2.4-0.1V36z"/>
	<path class="st8" d="M42.1,36.3c0,0,1.2-0.2,2.4,0.1v0.2c0,0-1.4-0.2-2.4-0.1V36.3z"/>
	<path class="st8" d="M42.1,36.6c0,0,1.2-0.2,2.4,0.1v0.2c0,0-1.4-0.2-2.4-0.1V36.6z"/>
	<path class="st8" d="M42.1,36.9c0,0,1.2-0.2,2.4,0.1v0.2c0,0-1.4-0.2-2.4-0.1V36.9z"/>
	<path class="st8" d="M42.1,37.2c0,0,1.2-0.2,2.4,0.1v0.2c0,0-1.4-0.2-2.4-0.1V37.2z"/>
	<path class="st8" d="M42.1,37.6c0,0,1.2-0.2,2.4,0.1v0.2c0,0-1.4-0.2-2.4-0.1V37.6z"/>
	<path class="st8" d="M42.1,37.9c0,0,1.2-0.2,2.4,0.1v0.2c0,0-1.4-0.2-2.4-0.1V37.9z"/>
	<path class="st8" d="M42.1,38.2c0,0,1.2-0.2,2.4,0.1v0.2c0,0-1.4-0.2-2.4-0.1V38.2z"/>
	<path class="st8" d="M42.1,38.5c0,0,1.2-0.2,2.4,0.1v0.2c0,0-1.4-0.2-2.4-0.1V38.5z"/>
	<path class="st8" d="M42.1,38.8c0,0,1.2-0.2,2.4,0.1V39c0,0-1.4-0.2-2.4-0.1V38.8z"/>
	<path class="st8" d="M42.1,39.1c0,0,1.2-0.2,2.4,0.1v0.2c0,0-1.4-0.2-2.4-0.1V39.1z"/>
	<path class="st8" d="M42.1,39.4c0,0,1.2-0.2,2.4,0.1v0.2c0,0-1.4-0.2-2.4-0.1V39.4z"/>
	<path class="st8" d="M42.1,39.6c0,0,1.2-0.2,2.4,0.1v0.2c0,0-1.4-0.2-2.4-0.1V39.6z"/>
	<path class="st8" d="M42.1,39.9c0,0,1.2-0.2,2.4,0.1v0.2c0,0-1.4-0.2-2.4-0.1V39.9z"/>
</g>
<path class="st6" d="M50.1,52c0,0-0.2-1-0.7-1.1h0.3c0,0,0.5,0,0.6,0.6C50.4,52.2,50.1,52,50.1,52z"/>
<polygon class="st2" points="42.6,41.6 44.3,41.8 44.3,41.9 42.6,41.9 "/>
<polygon class="st2" points="42.6,42.1 44.3,42.2 44.3,42.4 42.6,42.4 "/>
<polygon class="st2" points="42.6,42.6 44.3,42.7 44.3,42.9 42.6,42.9 "/>
<polygon class="st2" points="42.6,43 44.3,43.1 44.3,43.3 42.6,43.3 "/>
<polygon class="st2" points="42.6,43.3 44.3,43.5 44.3,43.6 42.6,43.6 "/>
<polygon class="st2" points="42.6,43.8 44.3,43.9 44.3,44.1 42.6,44.1 "/>
<polygon class="st2" points="42.6,44.2 44.3,44.4 44.3,44.5 42.6,44.5 "/>
<polygon class="st6" points="46.5,34.8 46.5,49 79.3,49.5 79.3,41.2 "/>
<polygon class="st5" points="46.8,34.9 46.8,49.1 79.2,49.6 79.2,41.3 "/>
<g>
	<path d="M53.7,56.2c0,0-2-0.1-2.7-0.5c0,0-2-1.3-1-3.6c0,0,0.5-1.7,2.6-1.7c0,0,1.5,0,2.1,0.5"/>
	<ellipse class="st2" cx="53.6" cy="53.4" rx="2.5" ry="2.8"/>
	<g>
		<path d="M55,53.3c0,0.9-0.7,1.8-1.4,1.8s-1.4-0.8-1.4-1.7s0.8-1.7,1.5-1.7C54.4,51.7,55,52.4,55,53.3z"/>
		<ellipse class="st4" cx="53.6" cy="53.4" rx="1.3" ry="1.6"/>
	</g>
	<g>
		<path class="st2" d="M54.8,53.4c0,0.6-0.5,1.3-1,1.3s-1-0.6-1-1.2s0.6-1.2,1.1-1.2C54.4,52.2,54.8,52.7,54.8,53.4z"/>
	</g>
	<ellipse transform="matrix(0.1354 -0.9908 0.9908 0.1354 -6.3805 99.5355)" class="st4" cx="53.8" cy="53.4" rx="1.1" ry="0.9"/>
	<circle class="st2" cx="53.9" cy="52.6" r="0.2"/>
	<circle class="st2" cx="53.4" cy="52.9" r="0.2"/>
	<circle class="st2" cx="53.2" cy="53.6" r="0.2"/>
	<circle class="st2" cx="53.9" cy="53.4" r="0.3"/>
	<circle class="st2" cx="53.5" cy="54.2" r="0.2"/>
	<circle class="st2" cx="54" cy="54.3" r="0.2"/>
	<ellipse transform="matrix(0.9338 -0.3578 0.3578 0.9338 -15.662 23.0324)" class="st2" cx="54.4" cy="53.8" rx="0.2" ry="0.2"/>
	<circle class="st2" cx="54.5" cy="53.4" r="0.2"/>
	<circle class="st2" cx="54.4" cy="53" r="0.2"/>
</g>
<g>
	<path d="M69.4,54.5c0,0-1.5-0.1-1.9-0.3c0,0-1.5-1-0.8-2.7c0,0,0.4-1.1,2-1.1c0,0,1.1,0,1.5,0.3"/>
	<ellipse class="st2" cx="69.2" cy="52.5" rx="1.8" ry="2.1"/>
	<g>
		<path d="M70.3,52.4c0,0.7-0.5,1.3-1,1.3s-1-0.6-1-1.3s0.6-1.3,1.1-1.3S70.3,51.8,70.3,52.4z"/>
		<ellipse class="st4" cx="69.3" cy="52.5" rx="1" ry="1.2"/>
	</g>
	<g>
		<path class="st2" d="M70.2,52.5c0,0.5-0.4,0.9-0.7,0.9c-0.4,0-0.7-0.4-0.7-0.9s0.4-0.9,0.8-0.9S70.2,52,70.2,52.5z"/>
	</g>
	<ellipse transform="matrix(0.1354 -0.9908 0.9908 0.1354 8.0303 114.1843)" class="st4" cx="69.4" cy="52.5" rx="0.8" ry="0.7"/>
	<circle class="st2" cx="69.5" cy="51.9" r="0.2"/>
	<circle class="st2" cx="69.1" cy="52.1" r="0.2"/>
	<circle class="st2" cx="69" cy="52.6" r="0.2"/>
	<circle class="st2" cx="69.5" cy="52.5" r="0.2"/>
	<circle class="st2" cx="69.2" cy="53" r="0.2"/>
	<circle class="st2" cx="69.6" cy="53.1" r="0.2"/>
	<ellipse transform="matrix(0.9338 -0.3578 0.3578 0.9338 -14.2664 28.4899)" class="st2" cx="69.9" cy="52.8" rx="0.1" ry="0.1"/>
	<circle class="st2" cx="69.9" cy="52.5" r="0.1"/>
	<circle class="st2" cx="69.9" cy="52.2" r="0.1"/>
</g>
<path d="M39.8,50.8c0,0,1.8,1,1.5,5.4h-0.2c0,0,0.7-6.5-4.2-5.8C37,50.4,38.8,49.8,39.8,50.8z"/>
<polygon class="st19" points="43.3,51.6 43.3,52.1 43.2,52.2 43.2,52.3 43,52.4 43,52.6 43.2,52.7 43.3,52.7 43.4,52.7 43.6,52.7 
	44,53.2 46.2,53.1 46.1,51.4 45.5,51.3 43.3,51.4 "/>
<path class="st2" d="M41.5,52.1c0,0,0.5-0.2,0.5,0.5v2.3h0.2c0,0,1.1,0,1.4-0.3l-0.1-0.1h-0.1c0,0,0.3,0.2-1.2,0.2v-1.5
	c0,0,1.4-0.2,1.7-0.2c0,0,0,0.7-0.4,1.2l0.2,0.2c0,0,0.4-0.6,0.3-1.4c0,0-0.1-0.8-0.5-0.8c0,0,0.3,0.2,0.3,0.6c0,0-0.6,0-1.8,0.1
	c0,0,0.2-1.4-0.6-1.2C41.5,52,41.5,52.1,41.5,52.1z"/>
<path class="st4" d="M41.8,51.1c0,0,0.3,0.2,0.3,0.6l1.5-0.1l0.1-0.1l1.9,0l0.1-0.1l0.3,0l0-0.2H46L41.8,51.1z"/>
<path class="st6" d="M48.5,55.2h0.2v-0.5l0.1,0l0.1-3c0,0-0.2-0.5-0.8-0.5l-0.5,0c0,0,0.7,0,0.8,0.6c0,0,0.2,0.8,0,3l0,0.3
	L48.5,55.2z"/>
<path class="st20" d="M54.2,50.6c0,0,1.8,0.3,2,2.9l0.2,0c0,0-0.1-2.5-1.4-2.7L54.2,50.6z"/>
<path class="st20" d="M57.5,50.2v3.1h-0.2v0.2c0,0-0.1,0.4-0.3,0.4v0.1h1.5v-0.1c0,0-0.1-0.1-0.2-0.3l-0.2-0.1l0-3.1v-0.2H57.5z"/>
<polygon points="61.5,51.1 61.5,52.1 63.1,52.1 63.1,51 "/>
<polygon points="61.4,52.5 61.4,53.5 63,53.4 63,52.4 "/>
<polygon points="63.3,52.4 63.3,53.4 64.8,53.3 64.8,52.3 "/>
<polygon points="63.3,51.1 63.3,52.1 64.8,52.1 64.8,51 "/>
<polygon points="64.9,51 64.9,52 66.5,52 66.5,50.9 "/>
      </g>
</svg>
