<?xml version="1.0" encoding="utf-8"?>
<!-- Generator: Adobe Illustrator 16.0.0, SVG Export Plug-In . SVG Version: 6.00 Build 0)  -->
<!DOCTYPE svg PUBLIC "-//W3C//DTD SVG 1.1//EN" "http://www.w3.org/Graphics/SVG/1.1/DTD/svg11.dtd">
<svg version="1.1" id="Layer_1" xmlns="http://www.w3.org/2000/svg" xmlns:xlink="http://www.w3.org/1999/xlink" x="0px" y="0px"
	 width="100px" height="100px" viewBox="0 0 100 100" enable-background="new 0 0 100 100" xml:space="preserve">

	  <style type="text/css">
	  .arrow{fill:{{statusColor}};display:{{arrowDisplay}}}
	  .hourglass{fill:{{hourglassColor}};display:{{hourglassDisplay}}}
    .parking{display:{{parkingDisplay}};fill:{{parkingColor}}}
	 </style>
	}


<g transform="translate({{translateX}},0) scale({{scaleX}},1)">
	<g id="Tire_Mid">
		<path fill="#16151A" d="M46.853,54.76c-0.316,1.074-1.326,2.086-2.21,2.211c-0.884,0.189-1.39-0.568-1.011-1.643
			c0.379-1.076,1.327-2.086,2.211-2.211C46.664,52.992,47.169,53.75,46.853,54.76z"/>
		<path fill="#131433" d="M46.979,54.951c-0.316,1.072-1.326,2.084-2.211,2.209c-0.884,0.189-1.326-0.568-1.01-1.643
			c0.315-1.074,1.326-2.086,2.21-2.211C46.853,53.119,47.295,53.875,46.979,54.951z"/>
		<path fill="#16151A" d="M47.295,55.076c-0.316,1.074-1.326,2.084-2.21,2.211c-0.885,0.189-1.39-0.568-1.011-1.643
			c0.316-1.074,1.327-2.086,2.211-2.213C47.106,53.307,47.611,54.004,47.295,55.076z"/>
		<path fill="#131433" d="M47.422,55.201c-0.316,1.074-1.327,2.086-2.211,2.213c-0.884,0.189-1.327-0.568-1.011-1.645
			c0.316-1.074,1.327-2.082,2.21-2.209C47.295,53.434,47.738,54.191,47.422,55.201z"/>
		<path fill="#16151A" d="M47.675,55.328c-0.316,1.074-1.327,2.086-2.211,2.211c-0.885,0.189-1.39-0.568-1.011-1.643
			c0.315-1.074,1.326-2.084,2.21-2.209C47.548,53.561,47.991,54.254,47.675,55.328z"/>
		<path fill="#131433" d="M47.801,55.455c-0.315,1.074-1.327,2.084-2.21,2.211c-0.885,0.189-1.327-0.568-1.011-1.643
			c0.316-1.072,1.327-2.086,2.211-2.211S48.117,54.443,47.801,55.455z"/>
		<path fill="#16151A" d="M47.864,55.58c-0.316,1.074-1.264,2.023-2.148,2.213c-0.884,0.127-1.326-0.568-1.01-1.643
			c0.316-1.075,1.264-2.021,2.147-2.213C47.738,53.75,48.18,54.506,47.864,55.58z"/>
		<path fill="#131433" d="M47.675,55.645c-0.253,0.885-1.074,1.705-1.769,1.832c-0.695,0.127-1.074-0.506-0.821-1.391
			c0.252-0.885,1.073-1.703,1.768-1.832C47.548,54.191,47.927,54.76,47.675,55.645z"/>
		<path fill="#CECCCC" d="M47.359,55.645c-0.19,0.695-0.822,1.392-1.453,1.517c-0.569,0.127-0.885-0.379-0.695-1.074
			c0.19-0.694,0.821-1.389,1.453-1.517C47.296,54.443,47.611,54.951,47.359,55.645z"/>
		<path fill="#989798" d="M47.106,55.645c-0.189,0.568-0.695,1.138-1.137,1.201c-0.505,0.063-0.695-0.316-0.568-0.885
			c0.189-0.57,0.694-1.139,1.136-1.201C47.043,54.697,47.295,55.076,47.106,55.645z"/>
		<path fill="#CECCCC" d="M46.853,55.707c-0.126,0.443-0.505,0.822-0.884,0.883c-0.316,0.064-0.505-0.25-0.379-0.629
			c0.125-0.443,0.504-0.822,0.884-0.885C46.79,55.012,46.979,55.328,46.853,55.707z"/>
		<g id="Tire_Mid_Hole">
			<path fill="#020202" d="M46.474,55.77c-0.063,0.127-0.126,0.254-0.253,0.254c-0.127,0-0.189-0.063-0.126-0.188
				c0.063-0.127,0.126-0.254,0.253-0.254C46.474,55.518,46.474,55.645,46.474,55.77z"/>
			<path fill="#020202" d="M46.348,55.328c0,0.063-0.063,0.127-0.126,0.127s-0.063,0-0.063-0.064c0-0.063,0.063-0.123,0.126-0.123
				C46.348,55.201,46.411,55.268,46.348,55.328z"/>
			<path fill="#020202" d="M46.79,55.391c0,0.064-0.063,0.127-0.126,0.127s-0.063-0.063-0.063-0.127
				c0-0.063,0.063-0.123,0.126-0.123S46.79,55.328,46.79,55.391z"/>
			<path fill="#020202" d="M46.79,55.834c0,0.064-0.063,0.127-0.126,0.127s-0.063-0.064-0.063-0.127
				c0-0.064,0.063-0.127,0.126-0.127S46.79,55.77,46.79,55.834z"/>
			<path fill="#020202" d="M46.348,56.275c0,0.063-0.063,0.127-0.126,0.127s-0.063-0.063-0.063-0.127s0.063-0.125,0.126-0.125
				S46.411,56.15,46.348,56.275z"/>
			<path fill="#020202" d="M45.906,56.213c0,0.063-0.064,0.127-0.127,0.127s-0.063-0.064-0.063-0.127s0.063-0.127,0.126-0.127
				C45.906,56.086,45.969,56.15,45.906,56.213z"/>
			<path fill="#020202" d="M45.969,55.77c0,0.064-0.063,0.127-0.127,0.127c-0.063,0-0.063-0.063-0.063-0.127
				c0-0.063,0.063-0.125,0.127-0.125C45.969,55.645,45.969,55.707,45.969,55.77z"/>
		</g>
		
			<animateTransform  type="translate" fill="remove" attributeName="transform" dur="1" calcMode="linear" restart="always" values="0,0;0.1,0.1;0,0" begin="0s" additive="replace" repeatCount="indefinite" accumulate="none" attributeType="XML">
			</animateTransform>
	</g>
	<g id="Tire_Mid_1_">
		<path fill="#16151A" d="M67.066,43.012c-0.315,1.074-1.326,2.084-2.211,2.21c-0.885,0.189-1.389-0.567-1.012-1.642
			c0.315-1.074,1.327-2.084,2.213-2.21C66.939,41.243,67.382,41.938,67.066,43.012z"/>
		<path fill="#131433" d="M67.257,43.138c-0.315,1.074-1.329,2.084-2.212,2.21c-0.885,0.189-1.327-0.569-1.011-1.642
			c0.313-1.074,1.327-2.084,2.21-2.21C67.131,41.37,67.573,42.127,67.257,43.138z"/>
		<path fill="#16151A" d="M67.508,43.328c-0.314,1.074-1.324,2.084-2.21,2.21c-0.885,0.189-1.391-0.568-1.011-1.642
			c0.314-1.074,1.327-2.084,2.212-2.21C67.382,41.496,67.889,42.254,67.508,43.328z"/>
		<path fill="#131433" d="M67.697,43.454c-0.315,1.074-1.325,2.084-2.211,2.21c-0.883,0.189-1.326-0.568-1.01-1.642
			c0.314-1.074,1.326-2.084,2.211-2.21C67.573,41.623,68.014,42.379,67.697,43.454z"/>
		<path fill="#16151A" d="M67.889,43.58c-0.314,1.075-1.328,2.084-2.212,2.212c-0.885,0.188-1.39-0.57-1.013-1.643
			c0.316-1.074,1.329-2.085,2.212-2.211C67.764,41.749,68.266,42.506,67.889,43.58z"/>
		<path fill="#131433" d="M68.078,43.707c-0.314,1.073-1.327,2.085-2.212,2.211c-0.884,0.189-1.326-0.569-1.011-1.642
			c0.315-1.074,1.328-2.085,2.211-2.211C67.95,41.939,68.393,42.632,68.078,43.707z"/>
		<path fill="#16151A" d="M68.141,43.77c-0.316,1.074-1.263,2.022-2.146,2.21c-0.885,0.126-1.327-0.569-1.012-1.642
			c0.315-1.074,1.265-2.021,2.148-2.211C68.014,42.001,68.456,42.759,68.141,43.77z"/>
		<path fill="#131433" d="M67.95,43.896c-0.253,0.884-1.072,1.706-1.769,1.831c-0.695,0.126-1.074-0.506-0.82-1.39
			c0.25-0.884,1.074-1.706,1.77-1.832C67.823,42.379,68.205,43.012,67.95,43.896z"/>
		<path fill="#CECCCC" d="M67.637,43.896c-0.189,0.694-0.822,1.391-1.453,1.516c-0.568,0.126-0.886-0.38-0.695-1.075
			c0.188-0.693,0.82-1.389,1.453-1.515C67.573,42.696,67.823,43.138,67.637,43.896z"/>
		<path fill="#989798" d="M67.382,43.896c-0.188,0.568-0.692,1.137-1.136,1.2c-0.506,0.063-0.695-0.316-0.569-0.884
			c0.189-0.569,0.695-1.138,1.138-1.201C67.257,42.885,67.508,43.328,67.382,43.896z"/>
		<path fill="#CECCCC" d="M67.131,43.959c-0.127,0.442-0.506,0.82-0.885,0.885c-0.316,0.063-0.506-0.254-0.38-0.632
			c0.127-0.442,0.506-0.822,0.885-0.885C67.066,43.264,67.257,43.517,67.131,43.959z"/>
		<g id="Tire_Mid_Hole_1_">
			<path fill="#020202" d="M66.751,44.022c-0.063,0.126-0.126,0.253-0.252,0.253c-0.127,0-0.19-0.063-0.127-0.189
				s0.127-0.253,0.253-0.253C66.688,43.77,66.751,43.833,66.751,44.022z"/>
			<path fill="#020202" d="M66.625,43.58c0,0.063-0.064,0.126-0.126,0.126c-0.063,0-0.063-0.063-0.063-0.126
				s0.063-0.126,0.125-0.126C66.625,43.454,66.625,43.517,66.625,43.58z"/>
			<path fill="#020202" d="M67.066,43.58c0,0.063-0.063,0.126-0.127,0.126c-0.063,0-0.063-0.063-0.063-0.126
				s0.063-0.126,0.126-0.126C67.004,43.454,67.066,43.517,67.066,43.58z"/>
			<path fill="#020202" d="M67.004,44.086c0,0.063-0.063,0.126-0.126,0.126s-0.063-0.063-0.063-0.126s0.063-0.126,0.127-0.126
				C67.004,43.959,67.066,44.022,67.004,44.086z"/>
			<path fill="#020202" d="M66.625,44.464c0,0.065-0.064,0.126-0.126,0.126c-0.063,0-0.063-0.062-0.063-0.126
				c0-0.062,0.063-0.125,0.125-0.125C66.625,44.338,66.625,44.402,66.625,44.464z"/>
			<path fill="#020202" d="M66.184,44.464c0,0.065-0.063,0.126-0.127,0.126c-0.063,0-0.063-0.062-0.063-0.126
				c0-0.062,0.063-0.125,0.126-0.125C66.184,44.338,66.184,44.402,66.184,44.464z"/>
			<path fill="#020202" d="M66.184,44.022c0,0.063-0.063,0.126-0.127,0.126c-0.063,0-0.063-0.063-0.063-0.126
				s0.063-0.126,0.126-0.126S66.246,43.959,66.184,44.022z"/>
		</g>
		
			<animateTransform  type="translate" fill="remove" attributeName="transform" dur="1" calcMode="linear" restart="always" values="0,0;0.1,0.1;0,0" begin="0s" additive="replace" repeatCount="indefinite" accumulate="none" attributeType="XML">
			</animateTransform>
	</g>
	<g id="Body">
		<g>
			<g>
				<g>
					<g id="Bus_Body">
						<g>
							<g>
								<path fill="#0D0D0D" d="M31.125,47.876l-0.253,0.063c0,0-0.126,0.065-0.126,0.189v0.125l0.189,0.066v0.063v1.577
									l-0.063,0.063c0,0,0,0.316,0.253,0.189l0.126-0.063l0.063,0.063l-0.063,0.063h-0.189c0,0-0.379,0.063-0.379-0.253
									l-0.252,0.125l-0.063-0.063l-0.063-0.063v-1.704c0,0,0-0.189,0.126-0.126h0.189c0,0-0.063-0.253,0.063-0.316
									c0,0,0.126-0.063,0.379-0.126C31.125,47.813,31.188,47.813,31.125,47.876z"/>
								<path fill="#D3D3D3" d="M72.626,40.043l0.188-8.338l-0.254-0.316l-7.011-5.054l-35.247,20.34v1.517
									c0,0,0.063,0.377,0.695,0.441c0,0-0.568,2.021-0.379,4.169l-0.253,0.189v1.073l0.316,0.377l-0.316,0.254v1.138
									c0,0,0.253,0.44,0.632,0.631l7.391,4.231c0,0,0.568,0.255,1.516-0.188l4.358-2.588v-1.771c0,0,0.505-1.328,1.011-1.896
									l1.832-1.01c0,0,0.758-0.063,1.074,0.692v1.707l16.296-9.349v-1.767c0,0,0.379-1.39,1.199-1.959l1.516-0.884
									c0,0,0.697-0.379,1.138,0.441v1.959l2.718-1.517L72.626,40.043z"/>
								<path fill="#515251" d="M65.805,27.157v-0.442c0,0-0.38-0.316-0.76,0v0.442c0,0,0,0.252,0.381,0.316
									C65.425,27.41,65.74,27.41,65.805,27.157z"/>
								<g display="none">
									<path display="inline" fill="#B0AFB0" d="M76.163,28.926v-0.19l-2.085-1.263c0,0-0.253-0.127-0.441,0l-2.843,1.832v0.126
										l2.336,1.327h0.128L76.163,28.926z"/>
									<path display="inline" fill="#848383" d="M75.848,28.799v-0.126l-1.832-1.074c0,0-0.189-0.126-0.379,0l-2.464,1.516v0.126
										l2.021,1.136h0.064L75.848,28.799z"/>
									<path display="inline" fill="#B0AFB0" d="M75.721,28.673v-0.126l-1.705-1.011c0,0-0.189-0.126-0.379,0l-2.338,1.39v0.126
										l1.895,1.073h0.064L75.721,28.673z"/>
								</g>
								<g>
									<path fill="#B0AFB0" d="M66.436,31.832v-0.189l-2.084-1.264c0,0-0.254-0.126-0.443,0l-2.842,1.77v0.126l2.336,1.327h0.127
										L66.436,31.832z"/>
									<path fill="#848383" d="M66.119,31.705v-0.126l-1.832-1.074c0,0-0.189-0.127-0.38,0l-2.462,1.516v0.127l2.021,1.136h0.061
										L66.119,31.705z"/>
									<path fill="#B0AFB0" d="M65.993,31.579v-0.126l-1.706-1.01c0,0-0.189-0.126-0.38,0l-2.337,1.453v0.126l1.896,1.074h0.061
										L65.993,31.579z"/>
								</g>
								<g>
									<path fill="#B0AFB0" d="M57.466,37.011v-0.189l-2.085-1.264c0,0-0.253-0.126-0.441,0l-2.842,1.769v0.126l2.336,1.327h0.127
										L57.466,37.011z"/>
									<path fill="#848383" d="M57.087,36.885v-0.127l-1.833-1.073c0,0-0.189-0.126-0.381,0L52.411,37.2v0.126l2.021,1.137h0.063
										L57.087,36.885z"/>
									<path fill="#B0AFB0" d="M56.96,36.758v-0.125l-1.706-1.011c0,0-0.189-0.127-0.381,0l-2.336,1.452v0.063l1.895,1.074h0.064
										L56.96,36.758z"/>
								</g>
								<g>
									<path fill="#B0AFB0" d="M47.359,42.948v-0.189l-2.084-1.263c0,0-0.253-0.126-0.442,0l-2.843,1.768v0.126l2.337,1.327h0.126
										L47.359,42.948z"/>
									<path fill="#848383" d="M46.979,42.822v-0.126l-1.832-1.137c0,0-0.189-0.126-0.379,0l-2.463,1.516v0.126l2.021,1.137h0.063
										L46.979,42.822z"/>
									<path fill="#B0AFB0" d="M46.853,42.696V42.57l-1.705-1.01c0,0-0.189-0.126-0.379,0l-2.337,1.453v0.126l1.895,1.074h0.063
										L46.853,42.696z"/>
								</g>
								<ellipse fill="#727373" cx="65.425" cy="26.778" rx="0.252" ry="0.126"/>
								<path fill="#353535" d="M36.431,47.623c0,0-0.695,0.569-1.516,0.63l-0.19-0.062c0,0,0.758-0.758,1.138-0.758
									C35.863,47.434,36.431,47.371,36.431,47.623z"/>
								<polygon display="none" fill="#282828" points="73.889,40.738 73.889,32.589 69.529,35.116 69.529,43.264 								"/>
								<polygon fill="#282828" points="58.729,49.454 58.729,41.306 54.307,43.896 54.307,51.98 								"/>
								<polygon fill="#282828" points="44.137,57.793 44.137,49.769 39.715,52.234 39.715,60.256 								"/>
								<path fill="#5E5F5F" d="M69.467,34.737c0,0,0.251-1.011-0.316-0.632l-4.041,2.337v0.884L69.467,34.737z"/>
								<path fill="#5E5F5F" d="M49.19,46.486c0,0,0.252-1.011-0.316-0.632l-4.042,2.338v0.884L49.19,46.486z"/>
								<polygon fill="#151515" points="69.15,34.863 69.15,34.042 65.045,36.442 65.045,37.327 								"/>
								<polygon fill="#151515" points="48.748,46.675 48.748,45.917 44.832,48.128 44.832,48.884 								"/>
								<polyline fill="#020202" points="69.846,34.674 69.782,34.484 72.5,32.905 72.436,33.158 								"/>
								<polygon fill="#020202" points="58.918,40.864 54.37,43.58 54.243,43.454 58.791,40.801 								"/>
								<polygon fill="#020202" points="44.074,49.582 39.526,52.297 39.399,52.107 43.947,49.454 								"/>
								<path fill="#787878" d="M30.935,48.002c0,0-0.252-0.885,0.316-0.569l6.759,3.917v0.758L30.935,48.002z"/>
								<polygon fill="#020202" points="38.01,51.412 38.01,52.17 31.251,48.192 31.251,47.434 								"/>
								<polygon fill="#F6851F" points="38.452,51.855 38.263,51.729 38.136,51.855 38.136,52.297 38.326,52.424 38.452,52.424 
																	"/>
								<polygon fill="#F6851F" points="30.683,47.497 30.683,48.002 30.557,48.002 30.43,47.75 30.43,47.497 30.557,47.434 
																	"/>
								<polygon fill="#434343" points="71.236,34.484 70.035,35.242 70.035,38.716 71.236,38.021 								"/>
								<path stroke="#000000" stroke-width="0.1" stroke-miterlimit="10" d="M72.436,31.516L38.452,51.223L72.436,31.516z"/>
								<path stroke="#000000" stroke-width="0.1" stroke-miterlimit="10" d="M72.436,33.474l-33.73,19.391L72.436,33.474z"/>
								<path d="M38.705,53.119c0,0,0.252-1.77-0.253-1.896C38.452,51.223,38.895,51.16,38.705,53.119z"/>
								<g>
									<polygon fill="#D1D2D1" points="41.61,51.664 41.61,58.803 39.842,59.877 39.842,52.549 									"/>
									<polygon fill="#D1D2D1" points="43.759,50.401 43.759,57.477 41.989,58.488 41.926,51.412 									"/>
								</g>
								<g>
									<polygon fill="#D1D2D1" points="56.328,43.075 56.328,50.149 54.561,51.223 54.496,44.086 									"/>
									<polygon fill="#D1D2D1" points="58.477,41.938 58.477,49.013 56.708,50.022 56.645,42.948 									"/>
								</g>
								<g id="Glass_Doors">
									<polygon fill="#191919" points="58.35,42.317 58.35,47.75 56.771,48.633 56.771,43.138 									"/>
									<polygon fill="#191919" points="56.202,43.517 56.202,48.822 54.622,49.706 54.622,44.338 									"/>
									<polygon fill="#191919" points="43.568,50.781 43.568,56.213 41.989,57.098 41.989,51.602 									"/>
									<polygon fill="#191919" points="41.547,51.98 41.547,57.287 39.968,58.172 39.968,52.738 									"/>
									<polygon fill="#6D7D85" points="58.223,42.506 58.223,47.623 56.834,48.381 56.834,43.201 									"/>
									<polygon fill="#6D7D85" points="56.139,43.707 56.139,48.76 54.749,49.516 54.749,44.402 									"/>
									<polygon fill="#6D7D85" points="43.443,51.033 43.443,56.086 42.179,56.846 42.179,51.729 									"/>
									<polygon fill="#6D7D85" points="41.357,52.234 41.357,57.16 40.095,57.855 40.095,52.865 									"/>
									<path stroke="#000000" stroke-width="0.1" stroke-miterlimit="10" d="M38.389,51.096l-7.896-4.42L38.389,51.096z"/>
									<polygon fill="#282828" points="37.757,59.436 37.757,60.32 30.746,56.275 30.746,55.391 									"/>
								</g>
								<path fill="#0D0D0D" d="M39.779,52.865l0.252,0.064c0,0,0.126,0.063,0.126,0.188v0.125l-0.189,0.063v0.063v1.58l0.063,0.061
									c0,0,0,0.316-0.252,0.189l-0.126-0.063L39.59,55.2l0.063,0.065h0.189c0,0,0.379,0.063,0.379-0.254l0.253,0.127l0.063-0.063
									l0.063-0.064v-1.704c0,0,0-0.188-0.126-0.125h-0.189c0,0,0.063-0.252-0.063-0.316c0,0-0.126-0.063-0.379-0.125
									C39.779,52.738,39.715,52.803,39.779,52.865z"/>
								<path fill="#1E1E1E" d="M39.463,52.424l0.126,4.801c0,0-1.01,0.885-2.147,0l-6.759-3.664c0,0-0.189-0.254-0.063-0.506
									c0,0,0.126-3.473,0.631-4.17l7.391,4.108L39.463,52.424z"/>
								<path fill="#6D7D85" d="M39.337,52.676l0.126,4.422c0,0-0.884,0.885-2.084,0l-6.632-3.727c0,0-0.253-0.316-0.126-0.506
									c0,0,0-3.473,0.505-4.105l7.517,4.295L39.337,52.676z"/>
								<path fill="none" stroke="#000000" stroke-width="0.1" stroke-miterlimit="10" d="M39.589,58.043
									c0,0-0.821,0.824-2.084,0.191l-6.948-4.041"/>
								<path fill="none" stroke="#000000" stroke-width="0.1" stroke-miterlimit="10" d="M39.399,59.182
									c0,0-0.821,0.695-1.769,0.191l-7.264-4.234"/>
								<path fill="#B44326" d="M38.831,58.551v0.568c0,0-0.568,0.316-1.01-0.063V58.55h0.126l0.189,0.252h0.126l0.063-0.19
									C38.389,58.611,38.642,58.676,38.831,58.551z"/>
								<path fill="#F26322" d="M38.705,58.676v0.506c0,0-0.442,0.252-0.821-0.063v-0.441h0.126l0.189,0.191h0.126l0.063-0.127
									C38.389,58.74,38.579,58.803,38.705,58.676z"/>
								<polygon fill="#F4F4F4" points="34.915,57.855 34.915,58.488 33.083,57.477 33.083,56.846 								"/>
								<polygon fill="#848484" points="54.18,49.076 48.37,52.424 48.37,54.443 54.18,51.096 								"/>
								<polygon fill="#E5E5E5" points="54.055,49.201 48.433,52.486 48.496,54.318 54.055,51.033 								"/>
								<polygon fill="#848484" points="64.16,43.58 59.044,46.612 59.044,48.381 64.16,45.412 								"/>
								<polygon fill="#E5E5E5" points="64.098,43.77 59.107,46.675 59.107,48.253 64.098,45.349 								"/>
								<polygon fill="#F26322" points="49.506,54.004 49.506,54.383 48.875,54.76 48.875,54.383 								"/>
								<polygon fill="#F26322" points="53.99,51.412 53.99,51.791 53.422,52.107 53.422,51.791 								"/>
								<polygon fill="#F26322" points="59.865,48.192 59.865,48.569 59.297,48.884 59.297,48.507 								"/>
								<polygon fill="#F26322" points="64.352,45.538 64.352,45.917 63.718,46.295 63.718,45.917 								"/>
								<polygon fill="#F26322" points="71.552,40.422 71.552,40.801 70.982,41.117 70.982,40.738 								"/>
							</g>
							<g>
								<polygon fill="#919191" points="58.287,48.253 58.287,48.697 57.906,48.884 57.906,48.445 								"/>
								<polygon fill="#919191" points="55.064,50.149 55.064,50.59 54.813,50.781 54.813,50.338 								"/>
								<polygon fill="#919191" points="43.443,56.908 43.443,57.35 43.127,57.539 43.127,57.035 								"/>
								<polygon fill="#919191" points="40.284,58.803 40.284,59.182 40.031,59.373 40.031,58.928 								"/>
							</g>
						</g>
						<polygon fill="#282828" points="54.18,44.212 44.327,49.833 44.327,54.254 54.18,48.569 						"/>
						<path fill="#282828" d="M69.402,35.306v3.285l-2.715,1.768c0,0-2.527,1.769-5.117,3.98l-2.652,1.579v-4.485L69.402,35.306z"/>
						<polygon fill="#6D7D85" points="53.99,44.528 53.99,48.569 49.569,51.096 49.569,47.054 						"/>
						<polygon fill="#6D7D85" points="49.253,47.307 49.253,47.876 44.643,50.529 44.643,49.96 						"/>
						<polygon fill="#6D7D85" points="49.253,48.128 49.19,51.285 44.643,53.938 44.643,50.844 						"/>
						<polygon fill="#6D7D85" points="69.277,35.622 69.277,38.464 66.625,40.169 66.625,37.137 						"/>
						<polygon fill="#6D7D85" points="66.119,38.274 66.119,40.358 61.824,43.959 61.824,40.801 						"/>
						<polygon fill="#6D7D85" points="66.246,37.327 61.824,39.853 61.824,40.611 66.246,37.896 						"/>
						<polygon fill="#6D7D85" points="61.382,40.169 61.382,44.149 59.107,45.538 59.107,41.496 						"/>
					</g>
					<polygon fill="#59595A" points="31.567,54.887 31.567,55.391 31.062,55.139 31.062,54.57 					"/>
					<polygon fill="#7DBDD1" points="31.693,54.951 31.693,55.518 31.188,55.268 31.188,54.635 					"/>
					<polygon fill="#59595A" points="37.694,58.359 37.694,58.992 36.936,58.551 36.936,57.92 					"/>
					<polygon fill="#7DBDD1" points="37.631,58.299 37.631,58.928 36.873,58.551 36.873,57.92 					"/>
					<polygon fill="#ABABAB" points="36.81,57.92 36.81,58.803 31.693,55.834 31.693,54.951 					"/>
				</g>
			</g>
			<path opacity="0.2" fill="#FFFFFF" enable-background="new    " d="M38.958,53.244c0,0-0.884,2.59-0.632,3.791H38.01l-7.264-3.98
				C30.746,53.119,37.315,55.076,38.958,53.244z"/>
			<polygon opacity="0.3" fill="#FFFFFF" enable-background="new    " points="40.158,55.896 41.357,53.182 41.357,54.443 
				40.095,57.098 			"/>
			<polygon opacity="0.3" fill="#FFFFFF" enable-background="new    " points="42.179,54.129 43.443,52.234 43.443,53.182 
				42.179,54.951 			"/>
			<polygon opacity="0.3" fill="#FFFFFF" enable-background="new    " points="45.653,50.275 45.148,53.688 45.716,53.307 
				46.285,49.833 			"/>
			<polygon opacity="0.3" fill="#FFFFFF" enable-background="new    " points="46.664,49.706 46.095,53.119 46.285,52.992 
				46.79,49.582 			"/>
			<polygon opacity="0.3" fill="#FFFFFF" enable-background="new    " points="50.518,46.549 50.201,50.781 50.707,50.464 
				50.896,46.295 			"/>
			<polygon opacity="0.3" fill="#FFFFFF" enable-background="new    " points="52.35,45.475 51.971,49.769 52.35,49.516 
				52.854,45.222 			"/>
			<polygon opacity="0.3" fill="#FFFFFF" enable-background="new    " points="52.033,45.665 51.652,49.898 51.464,50.022 			"/>
			<polygon opacity="0.3" fill="#FFFFFF" enable-background="new    " points="56.139,44.149 54.749,47.181 54.749,47.876 
				56.139,44.97 			"/>
			<polygon opacity="0.3" fill="#FFFFFF" enable-background="new    " points="58.223,43.517 56.834,45.665 56.834,46.612 
				58.223,44.528 			"/>
		</g>
		<polygon opacity="0.3" fill="#FFFFFF" enable-background="new    " points="61.382,40.738 59.107,43.58 59.107,44.718 
			61.382,42.19 		"/>
		<polygon opacity="0.3" fill="#FFFFFF" enable-background="new    " points="63.213,39.979 62.456,43.454 63.468,42.569 
			63.971,39.538 		"/>
		<polygon opacity="0.3" fill="#FFFFFF" enable-background="new    " points="63.718,38.78 63.468,39.601 64.034,39.285 
			64.16,38.527 		"/>
		<polygon opacity="0.3" fill="#FFFFFF" enable-background="new    " points="67.95,36.379 67.257,39.728 67.889,39.348 
			68.393,36.126 		"/>
		
			<animateTransform  type="translate" fill="remove" attributeName="transform" dur="1" calcMode="linear" restart="always" values="0,0;-0.1,-0.1;0,0" begin="0s" additive="replace" repeatCount="indefinite" accumulate="none" attributeType="XML">
			</animateTransform>
	</g>
	<g display="none">
		<path id="smoke_2" display="inline" fill="#666766" d="M66.838,48.515c0.199,0.299-0.301,0.599-0.301,0.599c0.5,0.602,0,1,0,1
			c-0.199,0.301-0.898,0-0.898,0c-0.199,0.602-0.801,0.5-0.801,0.5c-0.699,0-0.602-0.6-0.602-0.6c-0.604-0.101-0.5-0.5-0.5-0.5
			c0-0.3,0.602-0.3,0.602-0.3c-0.699-0.301-0.5-0.801-0.5-0.801c0.199-0.6,1-0.199,1-0.199c0.699-0.601,1.199,0.199,1.199,0.199
			C66.338,47.914,66.838,48.515,66.838,48.515z		">
<animateTransform  type="translate" fill="remove" attributeName="transform" dur="1" calcMode="linear" restart="always" values="0,0;2,-2" begin="0s" additive="replace" repeatCount="indefinite" accumulate="none" attributeType="XML">
				</animateTransform>
			
				<animate  fill="remove" to="0" attributeName="opacity" dur="1" calcMode="linear" restart="always" begin="0.5s" additive="replace" repeatCount="indefinite" accumulate="none" from="1">
				</animate>
		</path>
		<path id="smoke_1" display="inline" fill="#999999" d="M65.539,49.414c0.102,0.199-0.199,0.4-0.199,0.4c0.301,0.399,0,0.6,0,0.6
			c-0.102,0.199-0.5,0-0.5,0c-0.102,0.4-0.5,0.301-0.5,0.301c-0.4,0-0.4-0.4-0.4-0.4c-0.396-0.1-0.299-0.301-0.299-0.301
			c0-0.199,0.299-0.199,0.299-0.199c-0.5-0.2-0.299-0.5-0.299-0.5c0.104-0.399,0.604-0.1,0.604-0.1c0.396-0.301,0.694,0.1,0.694,0.1
			C65.238,49.113,65.539,49.414,65.539,49.414z		">
<animateTransform  type="translate" fill="remove" attributeName="transform" dur="0.5" calcMode="linear" restart="always" values="0,0;1,-1" begin="0s" additive="replace" repeatCount="indefinite" accumulate="none" attributeType="XML">
				</animateTransform>
			
				<animate  fill="remove" to="0" attributeName="opacity" dur="1" calcMode="linear" restart="always" begin="0.5s" additive="replace" repeatCount="indefinite" accumulate="none" from="1">
				</animate>
		</path>
	</g>
	
		<animateTransform  type="translate" fill="remove" attributeName="transform" dur="1" calcMode="linear" restart="always" values="0,0;0.1,0.1;0,0" begin="0s" additive="replace" repeatCount="indefinite" accumulate="none" attributeType="XML">
		</animateTransform>
	
		<animateTransform  type="translate" fill="remove" attributeName="transform" dur="1" calcMode="linear" restart="always" values="0,0;0.1,0.1;0,0" begin="0s" additive="replace" repeatCount="indefinite" accumulate="none" attributeType="XML">
		</animateTransform>
	<path id="parking" class="parking" d="M53.154,17.552l-9.925,0.146l-4.863,8.393l5.061,8.247l9.925-0.146l4.863-8.393L53.154,17.552z
		 M49.126,30.557c-0.078,0.056-0.208,0.083-0.39,0.083h-0.21H45.77h-0.16c-0.148,0-0.263-0.031-0.344-0.093
		c-0.08-0.062-0.12-0.15-0.12-0.265c0-0.188,0.082-0.313,0.247-0.372c0.136-0.05,0.216-0.081,0.238-0.093
		c0.022-0.011,0.046-0.037,0.071-0.079c0.049-0.073,0.074-0.189,0.074-0.351v-6.885c0-0.16-0.025-0.277-0.074-0.351
		c-0.025-0.041-0.049-0.067-0.071-0.079c-0.022-0.012-0.103-0.042-0.238-0.093c-0.165-0.06-0.247-0.184-0.247-0.371
		c0-0.115,0.04-0.203,0.12-0.266c0.081-0.062,0.195-0.093,0.344-0.093h0.16h2.751v8.082c0,0.179,0.03,0.307,0.092,0.385
		c0.033,0.046,0.064,0.075,0.093,0.086c0.029,0.012,0.124,0.04,0.285,0.086c0.197,0.051,0.296,0.177,0.296,0.379
		C49.286,30.388,49.232,30.483,49.126,30.557z M52.02,25.805c-0.279,0.444-0.672,0.772-1.176,0.983
		c-0.416,0.17-1.016,0.255-1.799,0.255v-0.736c0.178-0.046,0.303-0.094,0.374-0.145c0.072-0.051,0.136-0.128,0.188-0.233
		c0.087-0.18,0.13-0.42,0.13-0.723v-2.201c0-0.215-0.014-0.376-0.043-0.481c-0.029-0.105-0.087-0.201-0.173-0.289
		c-0.12-0.128-0.28-0.208-0.482-0.24v-0.743c0.849,0,1.477,0.09,1.879,0.269c0.466,0.206,0.834,0.522,1.105,0.949
		c0.275,0.437,0.414,0.97,0.414,1.604C52.438,24.777,52.299,25.355,52.02,25.805z"/>
</g>
<g id="Direction">
	<g transform="rotate({{angle}} 50 50)">
		<polygon id="arrow" class="arrow" opacity="0.7" enable-background="new    " points="59.7,31.4 50.8,24 41.9,31.3 41.9,35.4 42,35.4 50.8,28.1 
			59.3,35.4 59.7,35.4 		">
		
			<animate  fill="remove" attributeName="opacity" dur="0.5s" calcMode="linear" restart="always" values="0.5; 0" begin="0s;anim_arrow3.end" additive="replace" accumulate="none" id="anim_arrow1">
			</animate>
		</polygon>
		<polygon id="arrow2" class="arrow" opacity="0.7" enable-background="new    " points="59.8,26.4 50.9,19 42,26.4 42,30.4 42.1,30.4 50.9,23.2 
			59.4,30.4 59.8,30.4 		">
		
			<animate  fill="remove" attributeName="opacity" dur="0.5s" calcMode="linear" restart="always" values="0.5; 0" begin="anim_arrow1.end" additive="replace" accumulate="none" id="anim_arrow2">
			</animate>
		</polygon>
		<polygon id="arrow3" class="arrow" opacity="0.7" enable-background="new    " points="59.9,21.4 51,14.1 42.1,21.4 42.1,25.5 42.2,25.5 
			51,18.2 59.5,25.5 59.9,25.5 		">
		
			<animate  fill="remove" attributeName="opacity" dur="0.5s" calcMode="linear" restart="always" values="0.5; 0" begin="anim_arrow2.end" additive="replace" accumulate="none" id="anim_arrow3">
			</animate>
		</polygon>
	</g>
</g>
<path id="Idle" class="hourglass" d="M53.133,17.539l-9.926,0.173l-4.841,8.392l5.084,8.247l9.901-0.146l4.863-8.433L53.133,17.539z M49.528,30.516
	l-2.625,0.005c0,0-0.5,0.019-0.516-0.293c0,0-0.031-0.281,0.375-0.391c0,0,0.234,0.016,0.25-0.453l-0.031-5.906
	c0,0,0.047-0.266-0.359-0.344c0,0-0.268-0.109-0.235-0.391c0,0,0.11-0.172,0.329-0.25h3.125c0,0,0.328,0.031,0.344,0.281
	c0,0,0.031,0.313-0.313,0.359c0,0-0.359,0.109-0.266,0.656l-0.031,5.641c0,0,0.031,0.422,0.328,0.438c0,0,0.361,0.063,0.282,0.484
	C50.186,30.353,50.091,30.555,49.528,30.516z"/>
</svg>
