<?xml version="1.0" encoding="utf-8"?>
<!-- Generator: Adobe Illustrator 16.0.0, SVG Export Plug-In . SVG Version: 6.00 Build 0)  -->
<!DOCTYPE svg PUBLIC "-//W3C//DTD SVG 1.1//EN" "http://www.w3.org/Graphics/SVG/1.1/DTD/svg11.dtd">
<svg version="1.1" id="Layer_1" xmlns="http://www.w3.org/2000/svg" xmlns:xlink="http://www.w3.org/1999/xlink" x="0px" y="0px"
	 width="200px" height="200px" viewBox="0 0 200 200" enable-background="new 0 0 200 200" xml:space="preserve">
<path fill="#B2B2B2" d="M67.625,104.961l0.015,0.409l-0.015,0.007v0.124l4.898-2.89l-0.07-1.418l-4.83,2.847L67.625,104.961
	L67.625,104.961z M72.33,101.406l0.042,1.203l-0.368,0.216l-0.042-1.204L72.33,101.406z M71.798,101.709l0.042,1.205l-0.364,0.215
	l-0.046-1.203L71.798,101.709z M71.297,102.009l0.045,1.202l-0.37,0.215l-0.045-1.201L71.297,102.009z M70.767,102.311l0.043,1.203
	l-0.367,0.217l-0.043-1.203L70.767,102.311z M70.226,102.652l0.043,1.203l-0.364,0.217l-0.045-1.203L70.226,102.652z
	 M69.693,102.955l0.045,1.203l-0.368,0.217l-0.043-1.202L69.693,102.955z M69.157,103.262l0.043,1.203l-0.364,0.215l-0.046-1.201
	L69.157,103.262z M68.626,103.566l0.045,1.199l-0.366,0.219l-0.045-1.201L68.626,103.566z M68.125,103.865l0.044,1.199l-0.365,0.221
	l-0.047-1.205L68.125,103.865z"/>
<path fill="#B2B2B2" d="M70.806,103.094l0.015,0.407l-0.015,0.008v0.127l4.898-2.895l-0.068-1.417l-4.832,2.848L70.806,103.094
	L70.806,103.094z M75.508,99.537l0.043,1.204l-0.37,0.215l-0.04-1.202L75.508,99.537z M74.979,99.84l0.042,1.204l-0.367,0.217
	l-0.045-1.203L74.979,99.84z M74.478,100.143l0.045,1.201l-0.37,0.217l-0.043-1.203L74.478,100.143z M73.945,100.443l0.045,1.204
	l-0.366,0.218l-0.045-1.201L73.945,100.443z M73.405,100.781l0.045,1.205l-0.367,0.217l-0.045-1.204L73.405,100.781z
	 M72.874,101.088l0.045,1.203l-0.368,0.219l-0.043-1.207L72.874,101.088z M72.337,101.396l0.044,1.201l-0.365,0.215l-0.045-1.201
	L72.337,101.396z M71.807,101.697l0.045,1.201l-0.366,0.217l-0.045-1.201L71.807,101.697z M71.306,101.998l0.043,1.199l-0.363,0.219
	l-0.047-1.204L71.306,101.998z"/>
<path fill="#B2B2B2" d="M73.409,101.584l-0.005-0.262c-3.032-0.598-3.552,1.101-3.552,1.101v1.56
	c0.338-1.947,3.578-1.104,3.578-1.104l-0.013-0.84l-0.017,0.552l-0.711-0.118v-1.057C72.687,101.418,73.214,101.445,73.409,101.584z
	 M70.484,102.706c-0.224,0.185-0.505,0.46-0.505,0.46v-0.809c0-0.275,0.501-0.594,0.501-0.594L70.484,102.706z M71.416,102.537
	l-0.701,0.054l-0.04-0.829c0,0,0.559-0.42,0.741-0.271V102.537z M72.504,102.465h-0.863v-1.047c0,0,0.682-0.146,0.863,0V102.465z"/>
<path fill="#727272" d="M54.927,117.831c0,0-0.735-6.36,27.903-21.172l37.454-20.685l16,9.179l-8.123,5.049l-3.106-2.478
	l2.924-1.698L128,83.778l-38.958,22.424l-0.209,3.046c0,0-12.729,9.805-33.045,10.786C55.785,120.034,54.224,119.757,54.927,117.831
	z"/>
<path fill="#B2B2B2" d="M120.525,74.752l-8.26,4.339l-0.021,1.437l8.273-4.35L120.525,74.752z M112.428,80.338l0.016-1.206
	l0.367-0.196l-0.006,1.204L112.428,80.338z M112.971,80.059l0.014-1.2l0.377-0.2l-0.018,1.204L112.971,80.059z M113.523,79.749
	l0.018-1.206l0.377-0.202l-0.016,1.205L113.523,79.749z M114.068,79.47l0.02-1.204l0.376-0.197l-0.015,1.206L114.068,79.47z
	 M114.586,79.198l0.014-1.206l0.377-0.2l-0.016,1.207L114.586,79.198z M115.132,78.92l0.015-1.206l0.377-0.198l-0.016,1.206
	L115.132,78.92z M115.663,78.632l0.015-1.203l0.377-0.207l-0.016,1.206L115.663,78.632z M116.209,78.354l0.016-1.203l0.375-0.198
	l-0.01,1.201L116.209,78.354z M116.766,78.039l0.014-1.205l0.381-0.196l-0.018,1.203L116.766,78.039z M117.309,77.765l0.018-1.205
	l0.375-0.2l-0.012,1.203L117.309,77.765z M117.826,77.491l0.014-1.203l0.379-0.2l-0.018,1.203L117.826,77.491z M118.367,77.212
	l0.016-1.203l0.379-0.198l-0.014,1.205L118.367,77.212z M118.916,76.929l0.014-1.204l0.373-0.2l-0.008,1.206L118.916,76.929z
	 M119.459,76.655l0.018-1.208l0.377-0.198l-0.018,1.206L119.459,76.655z M120.031,75.138l0.377-0.196l-0.012,1.201l-0.381,0.202
	L120.031,75.138z"/>
<polygon fill="#AAAAAA" points="96.875,85.582 114.906,75.969 128.152,83.929 89.194,106.357 75.416,98.157 89.531,90.171 "/>
<path fill="#898989" d="M94.109,86.078L75.405,96.491l-0.031,1.757l18.72-10.44L94.109,86.078z M76.01,97.771l-0.431,0.24
	l0.027-1.468l0.428-0.244L76.01,97.771z M76.634,97.434l-0.431,0.242l0.024-1.467l0.431-0.24L76.634,97.434z M77.269,97.056
	l-0.433,0.243l0.024-1.47l0.433-0.24L77.269,97.056z M77.89,96.72l-0.433,0.24l0.026-1.468l0.431-0.24L77.89,96.72z M78.477,96.39
	l-0.432,0.242l0.026-1.47l0.431-0.242L78.477,96.39z M79.099,96.053l-0.431,0.243l0.025-1.469l0.431-0.242L79.099,96.053z
	 M79.707,95.705l-0.429,0.242l0.025-1.469l0.43-0.242L79.707,95.705z M80.329,95.372l-0.431,0.242l0.026-1.471l0.431-0.243
	L80.329,95.372z M80.965,94.991l-0.431,0.242l0.024-1.469l0.431-0.24L80.965,94.991z M81.587,94.657l-0.431,0.24l0.024-1.469
	l0.431-0.242L81.587,94.657z M82.174,94.326l-0.43,0.242l0.024-1.469l0.431-0.244L82.174,94.326z M82.797,93.991l-0.433,0.242
	l0.026-1.466l0.433-0.245L82.797,93.991z M83.417,93.65l-0.433,0.24l0.027-1.468l0.433-0.24L83.417,93.65z M84.039,93.313
	l-0.431,0.243l0.027-1.47l0.43-0.242L84.039,93.313z M84.673,92.937l-0.429,0.24l0.025-1.468l0.431-0.241L84.673,92.937z
	 M85.297,92.602l-0.431,0.24l0.024-1.467l0.433-0.242L85.297,92.602z M85.884,92.271l-0.431,0.241l0.026-1.469l0.433-0.242
	L85.884,92.271z M86.505,91.935l-0.43,0.242l0.024-1.469l0.431-0.24L86.505,91.935z M87.119,91.565l-0.431,0.242l0.025-1.47
	l0.431-0.24L87.119,91.565z M87.741,91.23l-0.431,0.241l0.025-1.468l0.432-0.242L87.741,91.23z M88.375,90.851l-0.431,0.24
	l0.027-1.468l0.431-0.244L88.375,90.851z M88.998,90.514l-0.431,0.242l0.027-1.469l0.43-0.242L88.998,90.514z M89.587,90.182
	l-0.431,0.244l0.024-1.471l0.433-0.241L89.587,90.182z M90.208,89.849l-0.433,0.24l0.026-1.467l0.431-0.242L90.208,89.849z
	 M90.837,89.508l-0.431,0.244l0.022-1.471l0.433-0.241L90.837,89.508z M91.46,89.175l-0.433,0.242l0.027-1.469l0.433-0.24
	L91.46,89.175z M92.095,88.798l-0.43,0.24l0.024-1.469l0.432-0.242L92.095,88.798z M92.716,88.461l-0.434,0.24l0.028-1.467
	l0.434-0.242L92.716,88.461z M93.301,88.131l-0.43,0.242l0.024-1.47l0.433-0.24L93.301,88.131z M93.925,87.792l-0.432,0.244
	l0.026-1.469l0.432-0.24L93.925,87.792z"/>
<path fill="#898989" d="M115.176,74.386l-18.96,9.933l-0.078,1.756l18.983-9.96L115.176,74.386z M96.79,85.613l-0.437,0.232
	l0.061-1.469l0.434-0.232L96.79,85.613z M97.418,85.295l-0.435,0.23l0.061-1.468l0.434-0.229L97.418,85.295z M98.063,84.932
	l-0.438,0.23l0.066-1.469l0.434-0.229L98.063,84.932z M98.691,84.613l-0.435,0.229l0.063-1.466l0.436-0.232L98.691,84.613z
	 M99.286,84.297l-0.434,0.227l0.063-1.466l0.434-0.23L99.286,84.297z M99.917,83.978l-0.434,0.232l0.059-1.467l0.437-0.23
	L99.917,83.978z M100.536,83.646l-0.437,0.229l0.063-1.469l0.438-0.232L100.536,83.646z M101.167,83.325l-0.437,0.232l0.061-1.468
	l0.439-0.232L101.167,83.325z M101.809,82.962l-0.437,0.232l0.063-1.47l0.438-0.23L101.809,82.962z M102.439,82.645l-0.437,0.232
	l0.063-1.468l0.438-0.232L102.439,82.645z M103.037,82.327l-0.436,0.232l0.061-1.467l0.436-0.232L103.037,82.327z M103.668,82.01
	l-0.438,0.229l0.063-1.468l0.438-0.232L103.668,82.01z M104.299,81.685l-0.438,0.232l0.063-1.465l0.438-0.232L104.299,81.685z
	 M104.927,81.366l-0.434,0.232l0.062-1.47l0.437-0.231L104.927,81.366z M105.572,81.003l-0.436,0.23l0.063-1.47l0.436-0.229
	L105.572,81.003z M106.203,80.686l-0.436,0.229l0.06-1.467l0.438-0.231L106.203,80.686z M106.797,80.37l-0.436,0.229l0.063-1.467
	l0.436-0.231L106.797,80.37z M107.428,80.049l-0.438,0.232l0.066-1.467l0.435-0.232L107.428,80.049z M108.05,79.694l-0.434,0.23
	l0.06-1.467l0.438-0.231L108.05,79.694z M108.682,79.375l-0.435,0.229l0.063-1.468l0.434-0.232L108.682,79.375z M109.326,79.012
	l-0.434,0.232l0.06-1.468l0.438-0.232L109.326,79.012z M109.957,78.695l-0.438,0.23l0.063-1.468l0.436-0.229L109.957,78.695z
	 M110.551,78.377l-0.435,0.23l0.063-1.468l0.434-0.228L110.551,78.377z M111.182,78.059l-0.438,0.23l0.064-1.468l0.436-0.231
	L111.182,78.059z M111.82,77.735l-0.438,0.23l0.063-1.468l0.435-0.229L111.82,77.735z M112.451,77.416l-0.438,0.23l0.062-1.467
	l0.437-0.232L112.451,77.416z M113.096,77.053l-0.436,0.23l0.063-1.468l0.438-0.232L113.096,77.053z M113.727,76.734l-0.438,0.232
	l0.063-1.469l0.437-0.229L113.727,76.734z M114.32,76.418l-0.438,0.23l0.063-1.467l0.437-0.229L114.32,76.418z M114.951,76.099
	l-0.438,0.232l0.063-1.47l0.438-0.229L114.951,76.099z"/>
<polygon fill="#777777" points="105.838,90.768 121.98,80.694 116.84,77.641 98.802,86.855 "/>
<polygon fill="#43484F" points="106.834,89.667 121.98,80.694 121.98,83.401 105.838,93.016 105.838,92.235 107.041,91.5 "/>
<path fill="#B2B2B2" d="M116.906,76.287l-16.518,8.353l-0.041,1.438l16.535-8.373L116.906,76.287z M100.908,85.694l-0.375,0.195
	l0.029-1.206l0.379-0.191L100.908,85.694z M101.463,85.427l-0.381,0.189l0.029-1.198l0.381-0.196L101.463,85.427z M102.02,85.117
	l-0.377,0.197l0.033-1.203l0.379-0.196L102.02,85.117z M102.568,84.854l-0.379,0.191l0.035-1.205l0.377-0.189L102.568,84.854z
	 M103.086,84.587l-0.381,0.192l0.033-1.201l0.381-0.195L103.086,84.587z M103.639,84.318l-0.381,0.195l0.035-1.208l0.375-0.193
	L103.639,84.318z M104.176,84.037l-0.38,0.197l0.031-1.204l0.38-0.198L104.176,84.037z M104.729,83.771l-0.383,0.193l0.03-1.204
	l0.38-0.193L104.729,83.771z M105.288,83.464l-0.382,0.191l0.031-1.204l0.383-0.193L105.288,83.464z M105.838,83.194l-0.384,0.196
	l0.032-1.205l0.385-0.196L105.838,83.194z M106.354,82.93l-0.379,0.196l0.032-1.203l0.378-0.195L106.354,82.93z M106.904,82.662
	l-0.385,0.191l0.032-1.204l0.384-0.195L106.904,82.662z M107.454,82.386l-0.38,0.195l0.029-1.202l0.379-0.196L107.454,82.386z
	 M108.004,82.122l-0.384,0.194l0.032-1.207l0.383-0.193L108.004,82.122z M108.564,81.813l-0.389,0.196l0.036-1.205l0.384-0.191
	L108.564,81.813z M109.113,81.547l-0.383,0.191l0.033-1.201l0.381-0.194L109.113,81.547z M109.631,81.281l-0.384,0.192l0.032-1.201
	l0.381-0.194L109.631,81.281z M110.184,81.013l-0.387,0.195l0.033-1.204l0.38-0.193L110.184,81.013z M110.723,80.712l-0.381,0.197
	l0.034-1.205l0.38-0.193L110.723,80.712z M111.271,80.444l-0.379,0.194l0.031-1.203l0.377-0.195L111.271,80.444z M111.834,80.14
	l-0.381,0.197l0.033-1.206l0.381-0.195L111.834,80.14z M112.381,79.87l-0.377,0.196l0.033-1.206l0.379-0.193L112.381,79.87z
	 M112.9,79.605L112.52,79.8l0.031-1.201l0.383-0.196L112.9,79.605z M113.449,79.339l-0.381,0.192l0.033-1.201l0.381-0.195
	L113.449,79.339z M114.006,79.066l-0.381,0.193l0.031-1.203l0.38-0.193L114.006,79.066z M114.557,78.799l-0.383,0.195l0.032-1.206
	l0.382-0.193L114.557,78.799z M115.117,78.495l-0.381,0.193l0.033-1.2l0.377-0.196L115.117,78.495z M115.667,78.226l-0.384,0.195
	l0.029-1.204l0.386-0.195L115.667,78.226z M116.184,77.96l-0.381,0.194l0.032-1.203l0.384-0.195L116.184,77.96z M116.732,77.689
	l-0.383,0.193l0.037-1.201l0.379-0.193L116.732,77.689z"/>
<polyline fill="#8E8E8E" points="75.349,94.483 77.049,95.449 77.049,99.128 75.416,98.157 75.235,101.064 85.845,104.758 
	85.998,107.541 88.98,109.4 89.194,106.357 86.595,104.811 86.503,101.186 88.752,102.379 107.248,91.5 107.248,89.895 
	80.491,92.695 75.349,92.787 75.349,94.348 "/>
<g>
	<polyline fill="#919191" points="113.534,83.814 109.703,85.972 107.373,80.578 108.809,79.66 111.355,81.243 113.534,83.746 	"/>
	<polygon fill="#727272" points="107.248,84.295 107.373,80.578 109.703,82.116 109.703,85.972 	"/>
</g>
<g>
	<g>
		<g>
			<path fill="#8795A0" d="M108.616,87.264l-1.14-16.664l-0.01-0.083l-0.287-0.225l0.098,2.664l0.021,0.523l0.022,0.658l-0.207-0.38
				l-0.17-0.315l-1.315-2.403l-0.062-1.456l-0.022-0.536l-0.22-0.169l-0.057,16.197l0.063,0.045l0.443,0.306l-0.061-1.709
				l0.693,1.035l0.158,0.238l0.602,0.901l0.031,0.042l0.119,0.183l0.269,0.398l0.192,0.287l0.574,0.393l0.18,0.126l0.096,0.063
				L108.616,87.264z M107.838,84.095l-0.222-0.334l-0.166-0.255l-0.321-0.485l-0.171-0.267l-0.604-0.921l-0.295-0.445l-0.412-0.636
				l0.668,0.31l0.459,0.211l0.945,0.436l0.04,0.771l0.017,0.293l0.015,0.329l0.024,0.435L107.838,84.095z M105.596,77.79
				l0.256,0.433l0.229,0.393l0.338,0.566l0.254,0.425l0.336,0.569l0.259,0.438l0.407,0.693l-0.709-0.289l-0.463-0.189l-0.828-0.339
				l-0.01-0.397l-0.019-0.579l-0.013-0.31l-0.013-0.648L105.596,77.79z M105.588,74.632l0.248,0.41l0.205,0.346l0.307,0.514
				l0.209,0.346l0.313,0.523l0.274,0.453l0.299,0.504l-0.492-0.254l-0.419-0.22l-0.863-0.453v-0.023l-0.019-0.46l-0.012-0.32
				l-0.024-0.637L105.588,74.632z M107.555,78.695l0.03,0.47l0.021,0.24l0.049,0.685l0.035,0.471l-0.174-0.283l-0.259-0.425
				l-0.253-0.408l-0.251-0.408l-0.442-0.724l-0.242-0.396l-0.414-0.68l0.633,0.375l0.383,0.234l0.857,0.512L107.555,78.695z
				 M107.314,75.33l0.033,0.444l0.023,0.28l0.063,0.776l0.031,0.39l-0.139-0.249l-0.268-0.479l-0.227-0.414l-0.195-0.354
				l-0.375-0.678l-0.199-0.348l-0.461-0.838l0.687,0.517l0.274,0.207l0.729,0.549L107.314,75.33z M106.764,73.695l0.174,0.328
				l0.34,0.654l-0.518-0.385l-0.271-0.2l-0.854-0.638l-0.039-1.999L106.764,73.695z M107.779,86.281l-0.264-0.412l-0.053-0.081
				l-0.011-0.019l-0.664-1.042l-0.155-0.247l-0.492-0.78l-0.328-0.173l-0.041-0.023l-0.013-0.335l-0.007-0.103l-0.002-0.005
				l0.003,0.003l-0.019-0.417l-0.031-0.806l-0.016-0.599l0.221,0.335l0.297,0.442l0.539,0.805l0.188,0.271l0.383,0.572l0.168,0.252
				l0.508,0.763l-0.799-0.425l-0.258-0.136l-0.793-0.423l0.729,0.501l0.232,0.162l0.875,0.599l0.041,0.559l0.037,0.437l0.07,0.875
				L107.779,86.281z"/>
			<polygon fill="none" points="101.536,82.762 101.496,83.2 101.805,83.676 102.348,83.158 			"/>
			<polygon fill="none" points="103.596,83.772 102.611,83.289 101.957,83.901 102.229,84.315 103.592,83.895 			"/>
			<polygon fill="none" points="104.111,73.679 104.195,72.333 102.859,73.947 102.986,74.184 			"/>
			<polygon fill="none" points="103.592,83.938 102.324,84.458 102.713,85.056 103.576,84.203 			"/>
			<polygon fill="none" points="103.479,86.222 103.543,84.87 102.953,85.422 			"/>
			<polygon fill="none" points="101.609,83.861 101.453,83.628 101.414,84.05 			"/>
			<polygon fill="none" points="101.968,84.394 101.76,84.084 101.167,84.64 			"/>
			<polygon fill="none" points="102.532,85.234 102.08,84.559 101.178,84.925 101.105,85.458 101.352,85.59 101.875,85.883 			"/>
			<polygon fill="none" points="103.602,75.338 104.033,74.851 104.078,74.14 103.178,74.546 			"/>
			<polygon fill="none" points="101.361,86.388 101.041,85.909 100.912,86.836 			"/>
			<polygon fill="none" points="105.646,80.75 106.057,81.386 106.313,81.06 			"/>
			<polygon fill="none" points="104.396,83.648 104.447,81.572 104.322,81.689 104.27,83.686 			"/>
			<polygon fill="none" points="107.771,82.772 107.129,83.017 107.45,83.504 107.786,83.1 			"/>
			<polygon fill="none" points="105.596,77.79 105.617,78.557 105.852,78.223 			"/>
			<polygon fill="none" points="104.458,81.143 104.465,80.875 104.34,80.905 104.332,81.264 			"/>
			<polygon fill="none" points="107.672,81.307 107.262,80.616 106.959,81.02 			"/>
			<polygon fill="none" points="107.716,81.709 106.768,81.273 106.352,81.831 106.956,82.752 107.755,82.48 			"/>
			<polygon fill="none" points="104.535,73.491 104.654,73.436 104.684,72.287 105.07,72.055 105.111,71.231 104.348,72.153 
				104.564,72.321 			"/>
			<polygon fill="none" points="103.691,82.598 103.698,82.271 103.568,82.392 			"/>
			<polygon fill="none" points="103.957,75.997 103.982,75.625 103.838,75.776 			"/>
			<polygon fill="none" points="107.838,84.095 107.811,83.537 107.616,83.761 			"/>
			<polygon fill="none" points="103.796,79.162 103.798,78.998 103.738,79.059 			"/>
			<polygon fill="none" points="102.672,77.941 102.01,78.174 101.938,78.711 102.887,79.227 103.229,78.878 			"/>
			<polygon fill="none" points="103.493,78.606 103.805,78.289 103.811,77.544 103.061,77.809 			"/>
			<polygon fill="none" points="102.986,79.863 102.406,80.479 102.709,80.98 103.73,80.75 103.74,80.321 			"/>
			<polygon fill="none" points="105.664,80.492 106.494,80.831 107.004,80.176 106.668,79.605 105.654,80.095 			"/>
			<polygon fill="none" points="102.26,81.083 102.102,80.809 101.73,81.2 			"/>
			<polygon fill="none" points="103.584,83.358 103.215,82.724 102.873,83.043 			"/>
			<polygon fill="none" points="102.123,77.015 102.123,77.013 102.123,77.017 			"/>
			<polygon fill="none" points="103.605,86.84 102.77,85.591 102.242,86.087 			"/>
			<polygon fill="none" points="102.439,81.4 101.65,81.606 101.564,82.462 102.596,82.92 103.066,82.473 			"/>
			<polygon fill="none" points="102.393,77.469 102.329,77.359 102.156,77.539 			"/>
			<polygon fill="none" points="103.698,79.675 103.492,79.322 103.346,79.48 			"/>
			<polygon fill="none" points="103.416,82.138 103.711,81.858 103.727,81.065 102.896,81.283 			"/>
			<polygon fill="none" points="102.457,73.815 102.422,73.749 102.414,73.861 			"/>
			<polygon fill="none" points="103.539,89.05 103.563,87.125 102.167,86.159 101.879,86.426 			"/>
			<polygon fill="none" points="102.709,74.31 102.65,74.195 102.468,74.418 			"/>
			<polygon fill="none" points="101.831,85.926 101.352,85.59 101.669,86.09 			"/>
			<polygon fill="none" points="102.287,75.859 102.229,76.283 102.434,76.662 102.802,76.247 			"/>
			<polygon fill="none" points="103.145,76.503 102.637,77.035 102.809,77.345 103.814,77.04 103.814,77.008 			"/>
			<polygon fill="none" points="101.875,79.186 101.833,79.533 102.123,80.013 102.537,79.587 			"/>
			<polygon fill="none" points="102.352,75.425 103.061,75.954 103.369,75.604 102.896,74.677 102.43,74.885 			"/>
			<polygon fill="none" points="103.842,76.539 103.588,76.037 103.414,76.218 			"/>
			<polygon fill="none" points="101.816,80.327 101.742,80.206 101.717,80.429 			"/>
			<polygon fill="none" points="107.32,74.138 107.299,73.479 107.113,73.758 			"/>
			<polygon fill="none" points="107.465,85.784 107.52,85.865 107.684,85.669 			"/>
			<polygon fill="none" points="105.605,73.861 106.07,74.697 106.292,74.378 			"/>
			<polygon fill="none" points="106.266,75.045 106.639,75.727 107.314,75.33 107.295,75.132 106.566,74.585 			"/>
			<polygon fill="none" points="107.779,86.281 108.129,86.831 108.057,85.956 			"/>
			<polygon fill="none" points="107.279,74.673 106.941,74.02 106.76,74.29 			"/>
			<polygon fill="none" points="104.473,80.584 104.535,78.211 104.406,78.343 104.35,80.611 			"/>
			<polygon fill="none" points="107.063,76.492 107.373,76.054 107.35,75.774 106.838,76.078 			"/>
			<polygon fill="none" points="108.021,85.518 107.977,84.958 107.104,84.36 106.792,84.725 107.454,85.766 107.684,85.669 			"/>
			<polygon fill="none" points="107.314,83.667 106.932,83.095 105.813,83.523 106.141,83.697 106.938,84.118 			"/>
			<polygon fill="none" points="107.469,77.223 107.438,76.831 107.33,76.972 			"/>
			<polygon fill="none" points="107.99,84.681 107.482,83.918 107.191,84.256 			"/>
			<polygon fill="none" points="106.207,82.021 105.742,82.643 105.757,83.061 105.754,83.057 105.755,83.064 105.762,83.167 
				106.75,82.826 			"/>
			<polygon fill="none" points="106.141,83.697 106.637,84.477 106.869,84.198 			"/>
			<polygon fill="none" points="105.639,73.449 106.492,74.087 106.764,73.695 105.596,71.451 			"/>
			<polygon fill="none" points="105.689,81.242 105.709,81.834 105.91,81.575 			"/>
			<polygon fill="none" points="106.311,78.309 106.757,79.035 107.555,78.695 107.527,78.353 106.672,77.841 			"/>
			<polygon fill="none" points="105.664,76.798 106.531,77.25 106.869,76.77 106.557,76.249 105.664,76.775 			"/>
			<polygon fill="none" points="104.568,76.81 104.617,74.96 104.493,75.088 104.447,76.849 			"/>
			<polygon fill="none" points="105.65,76.314 106.348,75.901 106.041,75.387 105.639,75.993 			"/>
			<polygon fill="none" points="104.635,74.169 104.643,73.887 104.521,73.938 104.512,74.304 			"/>
			<polygon fill="none" points="105.639,79.517 106.416,79.182 106.08,78.616 105.631,79.205 			"/>
			<polygon fill="none" points="104.551,77.521 104.555,77.282 104.436,77.325 104.427,77.648 			"/>
			<polygon fill="none" points="107.689,80.561 107.652,80.088 107.516,80.278 			"/>
			<polygon fill="none" points="105.588,74.632 105.613,75.358 105.836,75.04 			"/>
			<polygon fill="none" points="107.443,77.727 107.141,77.223 106.949,77.473 			"/>
			<polygon fill="none" points="105.17,85.308 105.17,86.222 106.406,84.751 105.713,83.716 105.775,85.425 105.329,85.121 
				105.329,85.244 			"/>
			<polygon fill="none" points="105.654,77.231 106.068,77.911 106.281,77.606 			"/>
			<polygon fill="none" points="107.257,79.853 107.605,79.403 107.585,79.164 107.004,79.445 			"/>
			<polygon fill="none" points="104.945,89.05 107.316,86.114 107.195,85.934 105.025,87.12 			"/>
			<polygon fill="none" points="107.168,85.89 106.566,84.989 104.988,86.84 			"/>
			<polygon fill="#617990" points="107.191,84.256 107.482,83.918 107.314,83.667 106.938,84.118 			"/>
			<polygon fill="#617990" points="107.299,73.479 107.277,72.956 106.941,73.441 107.113,73.758 			"/>
			<polygon fill="#617990" points="106.08,78.616 105.852,78.223 105.617,78.557 105.631,79.205 			"/>
			<polygon fill="#617990" points="108.354,87.41 108.529,87.316 108.35,87.19 			"/>
			<polygon fill="#617990" points="106.869,84.198 106.637,84.477 106.792,84.725 107.104,84.36 			"/>
			<polygon fill="#617990" points="107.755,82.48 106.956,82.752 107.129,83.017 107.771,82.772 			"/>
			<polygon fill="#617990" points="107.004,79.445 107.585,79.164 107.555,78.695 106.757,79.035 			"/>
			<polygon fill="#617990" points="106.313,81.06 106.057,81.386 106.352,81.831 106.768,81.273 			"/>
			<polygon fill="#617990" points="106.75,82.826 105.762,83.167 105.773,83.5 105.813,83.523 106.932,83.095 			"/>
			<polygon fill="#617990" points="106.959,81.02 107.262,80.616 107.004,80.176 106.494,80.831 			"/>
			<polygon fill="#617990" points="106.292,74.378 106.07,74.697 106.266,75.045 106.566,74.585 			"/>
			<polygon fill="#617990" points="107.45,83.504 107.616,83.761 107.811,83.537 107.786,83.1 			"/>
			<polygon fill="#617990" points="109.092,87.002 107.771,70.427 107.477,70.6 108.616,87.264 			"/>
			<polygon fill="#617990" points="105.654,80.095 106.668,79.605 106.416,79.182 105.639,79.517 			"/>
			<polygon fill="#617990" points="106.76,74.29 106.941,74.02 106.764,73.695 106.492,74.087 			"/>
			<polygon fill="#617990" points="107.454,85.766 107.465,85.784 107.684,85.669 			"/>
			<polygon fill="#617990" points="107.516,80.278 107.652,80.088 107.605,79.403 107.257,79.853 			"/>
			<polygon fill="#617990" points="106.838,76.078 107.35,75.774 107.314,75.33 106.639,75.727 			"/>
			<polygon fill="#617990" points="107.33,76.972 107.438,76.831 107.373,76.054 107.063,76.492 			"/>
			<polygon fill="#617990" points="105.664,76.775 106.557,76.249 106.348,75.901 105.65,76.314 			"/>
			<polygon fill="#617990" points="108.021,85.518 107.684,85.669 107.52,85.865 107.779,86.281 108.057,85.956 			"/>
			<polygon fill="#617990" points="104.945,89.05 105.025,87.12 107.195,85.934 107.168,85.89 104.988,86.84 106.566,84.989 
				106.406,84.751 105.17,86.222 105.17,85.308 105.329,85.244 105.329,85.121 105.266,85.074 105.325,68.879 105.543,69.048 
				105.568,69.583 105.584,68.609 105.24,68.768 105.07,70.807 102.658,73.58 102.859,73.947 104.195,72.333 104.215,72.055 
				104.348,72.153 105.111,71.231 105.07,72.055 104.684,72.287 104.654,73.436 104.535,73.491 104.521,73.938 104.643,73.887 
				104.635,74.169 104.512,74.304 104.493,75.088 104.617,74.96 104.568,76.81 104.447,76.849 104.436,77.325 104.555,77.282 
				104.551,77.521 104.427,77.648 104.406,78.343 104.535,78.211 104.473,80.584 104.35,80.611 104.34,80.905 104.465,80.875 
				104.458,81.143 104.332,81.264 104.322,81.689 104.447,81.572 104.396,83.648 104.27,83.686 104.256,84.203 104.385,84.084 
				104.244,89.656 105.471,88.982 107.585,86.509 107.316,86.114 			"/>
			<polygon fill="#617990" points="106.281,77.606 106.068,77.911 106.311,78.309 106.672,77.841 			"/>
			<polygon fill="#617990" points="106.949,77.473 107.141,77.223 106.869,76.77 106.531,77.25 			"/>
			<polygon fill="#617990" points="105.91,81.575 105.709,81.834 105.742,82.643 106.207,82.021 			"/>
			<polygon fill="#617990" points="106.041,75.387 105.836,75.04 105.613,75.358 105.639,75.993 			"/>
			<polygon fill="#617990" points="102.348,83.158 101.805,83.676 101.957,83.901 102.611,83.289 			"/>
			<polygon fill="#617990" points="102.242,86.087 102.77,85.591 102.532,85.234 101.875,85.883 			"/>
			<polygon fill="#617990" points="102.08,84.559 101.968,84.394 101.167,84.64 101.76,84.084 101.609,83.861 101.414,84.05 
				101.453,83.628 101.055,83.028 100.936,84.891 100.928,84.889 100.936,84.894 100.902,85.344 101.105,85.458 101.178,84.925 			
				"/>
			<polygon fill="#617990" points="101.049,82.522 101.496,83.2 101.536,82.762 			"/>
			<polygon fill="#617990" points="103.414,76.218 103.588,76.037 103.369,75.604 103.061,75.954 			"/>
			<polygon fill="#617990" points="101.879,75.074 102.352,75.425 102.43,74.885 102.896,74.677 102.709,74.31 102.468,74.418 
				102.65,74.195 102.457,73.815 102.414,73.861 102.422,73.749 102.057,73.028 			"/>
			<polygon fill="#617990" points="101.879,86.426 102.167,86.159 101.831,85.926 101.669,86.09 			"/>
			<polygon fill="#617990" points="102.713,85.056 102.953,85.422 103.543,84.87 103.576,84.203 			"/>
			<polygon fill="#617990" points="103.592,83.895 102.229,84.315 102.324,84.458 103.592,83.938 			"/>
			<polygon fill="#617990" points="102.896,81.283 103.727,81.065 103.73,80.75 102.709,80.98 			"/>
			<polygon fill="#617990" points="103.568,82.392 103.698,82.271 103.711,81.858 103.416,82.138 			"/>
			<polygon fill="#617990" points="103.838,75.776 103.982,75.625 104.033,74.851 103.602,75.338 			"/>
			<polygon fill="#617990" points="103.738,79.059 103.798,78.998 103.805,78.289 103.493,78.606 			"/>
			<polygon fill="#617990" points="102.672,77.941 102.393,77.469 102.156,77.539 102.329,77.359 102.123,77.015 102.123,77.017 
				102.123,77.013 101.682,76.274 101.538,78.491 101.938,78.711 102.01,78.174 			"/>
			<polygon fill="#617990" points="102.887,79.227 103.346,79.48 103.492,79.322 103.229,78.878 			"/>
			<polygon fill="#617990" points="102.439,81.4 102.26,81.083 101.73,81.2 102.102,80.809 101.816,80.327 101.717,80.429 
				101.742,80.206 101.33,79.492 101.107,82.259 101.564,82.462 101.65,81.606 			"/>
			<polygon fill="#617990" points="102.596,82.92 102.873,83.043 103.215,82.724 103.066,82.473 			"/>
			<polygon fill="#617990" points="100.138,87.361 100.533,87.199 100.186,86.963 			"/>
			<polygon fill="#617990" points="101.466,78.935 101.833,79.533 101.875,79.186 			"/>
			<polygon fill="#617990" points="102.537,79.587 102.123,80.013 102.406,80.479 102.986,79.863 			"/>
			<polygon fill="#617990" points="102.802,76.247 102.434,76.662 102.637,77.035 103.145,76.503 			"/>
			<polygon fill="#617990" points="101.795,75.485 102.229,76.283 102.287,75.859 			"/>
			<polygon fill="#617990" points="100.912,86.836 101.041,85.909 100.805,85.556 100.702,87.131 101.449,86.828 101.576,86.708 
				101.361,86.388 			"/>
			<polygon fill="#617990" points="102.145,72.614 102.466,73.211 102.719,69.924 102.264,70.133 102.217,70.53 102.268,70.568 			
				"/>
			<polygon fill="#617990" points="103.061,77.809 103.811,77.544 103.814,77.04 102.809,77.345 			"/>
			<polygon fill="#617990" points="103.178,74.546 104.078,74.14 104.111,73.679 102.986,74.184 			"/>
			<path fill="#8795A0" d="M104.322,81.689l0.01-0.427l0.008-0.359l0.01-0.294l0.059-2.267l0.021-0.696l0.01-0.323l0.014-0.476
				l0.048-1.761l0.017-0.784l0.01-0.366l0.014-0.449l0.035-1.168l-0.221-0.168l-0.129-0.099l-0.021,0.278l-0.086,1.347l-0.031,0.461
				l-0.047,0.708l-0.049,0.773l-0.026,0.372l-0.116-0.22l-0.236-0.439l-0.426-0.792l-0.193-0.361l-0.125-0.238l-0.199-0.366
				l-0.195-0.367l-0.322-0.597l0.123-2.046l-0.051-0.04l-0.213-0.161l-1.933,16.512l0.118,0.08l0.347,0.236l0.155,0.112l0.015-0.178
				l0.103-1.575l0.236,0.355l0.32,0.48l0.215,0.32l1.512,2.257l1.027,0.708l0.141-5.474l0.015-0.516L104.322,81.689z
				 M103.727,81.065l-0.016,0.793l-0.013,0.413l-0.007,0.328l-0.123-0.206l-0.152-0.253l-0.52-0.855l-0.188-0.304l-0.304-0.501
				l-0.278-0.467l-0.29-0.478l-0.365-0.601l0.411,0.251l0.658,0.403l0.453,0.275l0.752,0.458l-0.013,0.431L103.727,81.065z
				 M103.584,83.358l-0.711-0.315L102.6,82.92l-1.029-0.458l-0.461-0.203l0.226-2.765l0.411,0.714l0.072,0.121l0.279,0.481
				l0.158,0.276l0.188,0.317l0.625,1.073l0.146,0.251L103.584,83.358z M103.698,79.675l-0.354-0.195l-0.457-0.249l-0.949-0.518
				l-0.401-0.221l0.146-2.216l0.438,0.739v0.002l0.207,0.342l0.063,0.108l0.278,0.472l0.56,0.936l0.262,0.445L103.698,79.675z
				 M103.811,77.544l-0.006,0.745l-0.007,0.708l-0.002,0.164l-0.058-0.103l-0.245-0.453l-0.433-0.8l-0.252-0.464l-0.172-0.31
				l-0.201-0.371l-0.205-0.381l-0.435-0.796l0.493,0.375l0.516,0.388l0.34,0.256l0.672,0.504v0.032L103.811,77.544z M102.422,73.749
				l0.035,0.064l0.193,0.382l0.057,0.115l0.189,0.367l0.473,0.927l0.219,0.433l0.258,0.502l-0.43-0.319l-0.355-0.267l-0.709-0.529
				l-0.469-0.353l0.176-2.044L102.422,73.749z M101.831,85.926l0.336,0.232l1.396,0.967l-0.021,1.925l-1.66-2.624l-0.214-0.336
				l-0.313-0.5l-0.246-0.134l-0.203-0.114l0.031-0.45l-0.004-0.003h0.004l0.117-1.862l0.4,0.601l0.154,0.234l0.152,0.222l0.204,0.31
				l0.114,0.164l0.451,0.674l0.24,0.357l0.836,1.249l-1.365-0.753l-0.369-0.205l-0.521-0.291L101.831,85.926z M103.479,86.222
				l-0.523-0.8l-0.24-0.366l-0.389-0.596l-0.096-0.145l-0.271-0.414l-0.15-0.227l-0.311-0.474l-0.447-0.676l0.485,0.238l0.812,0.396
				l0.27,0.131l0.984,0.481l-0.004,0.125l-0.004,0.043l-0.014,0.263l-0.035,0.669L103.479,86.222z"/>
		</g>
		<polygon fill="#898989" points="108.123,70.695 104.559,72.473 101.787,70.221 105.584,68.609 		"/>
	</g>
	<g>
		<polygon fill="#232323" points="99.865,66.656 100.799,66.459 104.613,69.174 105.061,69.491 107.945,68.292 108.801,68.725 
			106.518,70.117 110.904,73.079 110.044,73.422 104.953,70.762 102.539,71.815 101.337,71.228 103.652,70.039 102.063,68.765 		"/>
		<polygon fill="#4B5E6D" points="99.902,66.498 100.839,66.307 104.663,68.965 105.111,69.272 108.004,68.11 108.859,68.536 
			106.58,69.884 110.979,72.781 110.121,73.113 105.016,70.512 102.534,71.683 101.342,71.118 103.701,69.803 102.107,68.558 		"/>
		
			<rect x="100.904" y="64.685" transform="matrix(0.9962 0.0873 -0.0873 0.9962 6.1376 -8.5796)" fill="#232323" width="0.414" height="2.322"/>
		
			<rect x="108.027" y="66.341" transform="matrix(0.9964 0.0845 -0.0845 0.9964 6.0864 -8.9057)" fill="#232323" width="0.445" height="2.216"/>
		
			<rect x="101.968" y="68.798" transform="matrix(0.9965 0.083 -0.083 0.9965 6.1675 -8.2469)" fill="#232323" width="0.5" height="2.435"/>
		
			<rect x="110.294" y="70.585" transform="matrix(0.9966 0.0827 -0.0827 0.9966 6.3109 -8.8933)" fill="#232323" width="0.455" height="2.316"/>
	</g>
	<polygon fill="#494949" points="105.568,69.583 104.84,69.605 104.697,62.406 105.421,62.387 	"/>
	<polygon fill="#494949" points="105.93,62.372 104.344,62.417 104.314,60.832 105.9,60.792 	"/>
</g>
<path fill="#53596B" d="M55.195,119.742c0,0,4.413,2.372,7.122,5.771c0,0,4.588,2.019,14.273-2.572c0,0,6.63-2.982,19.721-11.017
	l32.646-19.274l6.012-3.58l1.467-3.765l-8.121,5.049l-3.105-2.479l2.922-1.698l0.021-2.248l-38.957,22.425l-0.212,3.043
	c0,0-7.847,5.231-17.164,8.094C71.816,117.493,61.444,120.555,55.195,119.742z"/>
<polygon fill="#CCCCCC" points="75.349,92.787 88.659,100.682 107.248,89.895 93.928,82.471 "/>
<g>
	<ellipse fill="#344E5F" cx="91.117" cy="89.138" rx="2.708" ry="1.171"/>
	<ellipse fill="#344E5F" cx="91.117" cy="91.16" rx="2.708" ry="1.171"/>
	<rect x="88.408" y="89.137" fill="#344E5F" width="5.417" height="2.021"/>
</g>
<polygon fill="#59637A" points="86.595,104.811 86.443,101.063 88.554,102.257 105.838,92.235 105.838,93.966 "/>
<path fill="#00408C" d="M77.818,99.708l-0.317,0.449l-2.027-1.239l0.317-0.44l-0.032-0.021l-0.181-0.119l-3.172,4.589l0.21,0.13
	l0.325-0.447l2.027,1.228l-0.191,0.271l0,0l-0.143,0.207l0.217,0.135l3.204-4.597L77.818,99.708z M75.088,103.604l-2.026-1.238
	l0.327-0.452l2.027,1.228L75.088,103.604z M75.58,102.906l-2.027-1.242l0.327-0.452l2.027,1.226L75.58,102.906z M76.05,102.207
	l-2.025-1.238l0.326-0.453l2.028,1.228L76.05,102.207z M76.544,101.514l-2.026-1.243l0.326-0.455l2.027,1.229L76.544,101.514z
	 M77.034,100.818l-2.027-1.243l0.327-0.455l2.025,1.228L77.034,100.818z"/>
<path fill="#8C8C8C" d="M69.852,104.215c0,0-0.034,1.516,3.387,1.102l3.462,2.11c0,0-0.921,1.697,2.32,1.722
	c0,0,1.802-0.098,1.954-1.309l-0.047,2.983c0,0-1.218,2.501-4.292,0.138c0,0-0.042-0.797-0.036-1.068l-3.34-2.025
	c0,0-2.295,0.479-3.408-0.828V104.215L69.852,104.215z"/>
<path fill="#CCCCCC" d="M85.631,104.375l-0.116,0.436l-4.683,2.594c0.827,1.607-1.929,1.859-1.929,1.859
	c-3.097-0.14-2.205-1.839-2.205-1.839l-3.462-2.11c-3.488,0.416-3.466-1.051-3.466-1.051s-0.412,2.244,0-0.051
	c0.414-2.295,3.213-1.238,3.213-1.238l5.072-3.051L85.631,104.375z"/>
<path fill="#B2B2B2" d="M73.254,102.313l0.015,0.408l-0.015,0.008v0.125l4.897-2.893l-0.067-1.417l-4.832,2.847L73.254,102.313
	L73.254,102.313z M77.958,98.756l0.043,1.201l-0.37,0.218l-0.042-1.202L77.958,98.756z M77.429,99.058l0.042,1.204l-0.366,0.217
	l-0.046-1.201L77.429,99.058z M76.926,99.359l0.045,1.204l-0.37,0.215l-0.043-1.2L76.926,99.359z M76.396,99.661l0.045,1.203
	l-0.367,0.218l-0.045-1.204L76.396,99.661z M75.855,100.001l0.045,1.206l-0.364,0.216l-0.047-1.205L75.855,100.001z M75.324,100.303
	l0.046,1.206l-0.369,0.22l-0.043-1.205L75.324,100.303z M74.788,100.613l0.043,1.203l-0.364,0.217l-0.046-1.203L74.788,100.613z
	 M74.255,100.918l0.045,1.201l-0.366,0.217l-0.045-1.201L74.255,100.918z M73.757,101.215l0.043,1.203l-0.363,0.217l-0.049-1.203
	L73.757,101.215z"/>
<polygon fill="#999999" points="81.118,91.576 86.595,94.818 90.969,92.235 85.461,89.099 "/>
<polygon fill="#6D6D6D" points="81.118,94.149 86.748,97.455 90.969,95.067 90.969,92.235 86.595,94.818 81.118,91.576 "/>
<polygon fill="#325384" points="83.062,91.686 85.631,90.171 88.866,92.075 86.443,93.499 "/>
<path fill="#AFAFAF" d="M70.715,103.982l-0.229-0.114c0,0-0.161-2.433,1.836-2.112c0,0,1.377,0.506,1.011,2.043
	c0,0-0.414,1.264-2.32,0.461c0,0-0.138-1.861,1.194-2.181l-0.269-0.159C71.937,101.916,70.92,101.848,70.715,103.982z"/>
<path fill="#B2B2B2" d="M72.687,105.156V104.1l0.71-0.117l0.018,0.55l0.013-0.841c0,0-3.238,0.851-3.576-1.102v1.561
	c0,0,0.516,1.697,3.552,1.104l0.003-0.265C73.214,105.127,72.687,105.156,72.687,105.156z M70.48,104.811
	c0,0-0.501-0.319-0.501-0.596v-0.806c0,0,0.279,0.274,0.505,0.459L70.48,104.811z M71.416,105.084
	c-0.182,0.148-0.741-0.273-0.741-0.273l0.04-0.828l0.701,0.056V105.084z M72.504,105.156c-0.182,0.148-0.863,0-0.863,0v-1.049h0.863
	V105.156z"/>
<path fill="#898989" d="M127.973,82.297l-13.002-7.849l-0.076,1.63l13.02,7.87L127.973,82.297z M115.479,76.324l-0.412-0.248
	l0.047-1.384l0.414,0.25L115.479,76.324z M116.072,76.671l-0.412-0.246l0.045-1.386l0.412,0.253L116.072,76.671z M116.633,77.015
	l-0.41-0.249l0.041-1.386l0.414,0.247L116.633,77.015z M117.227,77.363l-0.412-0.249l0.043-1.384l0.412,0.252L117.227,77.363z
	 M117.828,77.75l-0.406-0.246l0.045-1.387l0.41,0.252L117.828,77.75z M118.426,78.102l-0.412-0.251l0.049-1.385l0.408,0.252
	L118.426,78.102z M119.023,78.451l-0.408-0.248l0.049-1.386l0.41,0.255L119.023,78.451z M119.619,78.803l-0.41-0.25l0.047-1.388
	l0.406,0.249L119.619,78.803z M120.184,79.142l-0.412-0.251l0.043-1.38l0.412,0.247L120.184,79.142z M120.773,79.492l-0.414-0.251
	l0.051-1.382l0.414,0.247L120.773,79.492z M121.383,79.881l-0.41-0.251l0.045-1.385l0.41,0.254L121.383,79.881z M121.977,80.229
	l-0.414-0.253l0.043-1.381l0.414,0.248L121.977,80.229z M122.563,80.612l-0.412-0.253l0.043-1.385l0.412,0.253L122.563,80.612z
	 M123.156,80.962l-0.412-0.253l0.043-1.383l0.414,0.249L123.156,80.962z M123.715,81.298l-0.41-0.247l0.043-1.383l0.41,0.247
	L123.715,81.298z M124.309,81.649l-0.41-0.248l0.047-1.382l0.404,0.245L124.309,81.649z M124.912,82.037l-0.408-0.253l0.043-1.381
	l0.414,0.251L124.912,82.037z M125.508,82.386l-0.41-0.254l0.043-1.38l0.414,0.245L125.508,82.386z M126.102,82.734l-0.41-0.246
	l0.045-1.385l0.41,0.249L126.102,82.734z M126.699,83.087l-0.414-0.25l0.045-1.387l0.412,0.253L126.699,83.087z M127.258,83.429
	l-0.414-0.251l0.047-1.387l0.41,0.25L127.258,83.429z M127.443,83.523l0.045-1.377l0.408,0.245l-0.051,1.383L127.443,83.523z"/>
<path fill="#B2B2B2" d="M76.743,107.281l-0.017-0.012l0.17-1.314l0.01,0.007l0.019-0.14l-3.495-2.129l-0.033,1.613l3.331,2.084
	L76.743,107.281z M74.026,105.59l-0.44-0.275l0.064-1.332l0.425,0.23L74.026,105.59z M74.662,105.977l-0.439-0.272l0.161-1.32
	l0.439,0.278L74.662,105.977z M75.255,106.354l-0.433-0.275l0.159-1.313l0.442,0.273L75.255,106.354z M75.891,106.734l-0.434-0.274
	l0.159-1.315l0.436,0.275L75.891,106.734z M76.531,107.158l-0.434-0.275l0.159-1.313l0.438,0.275L76.531,107.158z"/>
<path fill="#939393" d="M67.845,101.729l3.571,0.883c0,0-0.164,0.156-0.256,0.517l-3.497-0.817
	C67.663,102.309,67.502,101.883,67.845,101.729z"/>
<path fill="#AFAFAF" d="M77.416,107.213l-0.23-0.113c0,0-0.159-2.435,1.835-2.113c0,0,1.377,0.51,1.011,2.043
	c0,0-0.411,1.263-2.318,0.461c0,0-0.137-1.859,1.194-2.182l-0.27-0.16C78.64,105.146,77.624,105.078,77.416,107.213z"/>
<path fill="#939393" d="M74.548,104.957l3.569,0.883c0,0-0.164,0.155-0.256,0.518l-3.499-0.819
	C74.363,105.537,74.203,105.113,74.548,104.957z"/>
<path fill="#00408C" d="M88.998,106.35l-0.317,0.448l-2.027-1.239l0.317-0.438L86.94,105.1l-0.182-0.121l-3.17,4.59l0.208,0.135
	l0.325-0.449l2.027,1.229l-0.188,0.271l0,0l-0.144,0.208l0.215,0.133l3.204-4.598L88.998,106.35z M86.267,110.242l-2.026-1.24
	l0.328-0.453l2.026,1.229L86.267,110.242z M86.755,109.547l-2.023-1.24l0.327-0.455l2.027,1.229L86.755,109.547z M87.229,108.85
	l-2.027-1.242l0.328-0.453l2.026,1.229L87.229,108.85z M87.724,108.154l-2.026-1.24l0.326-0.454l2.027,1.229L87.724,108.154z
	 M88.211,107.46l-2.023-1.243l0.327-0.455l2.025,1.227L88.211,107.46z"/>
<path fill="#898989" d="M107.855,93.778l-18.524,10.733v1.757l18.54-10.758L107.855,93.778z M89.958,105.777l-0.427,0.248v-1.469
	l0.427-0.25V105.777z M90.577,105.432l-0.429,0.25v-1.471l0.429-0.246V105.432z M91.204,105.041l-0.427,0.25v-1.469l0.427-0.252
	V105.041z M91.822,104.699l-0.429,0.248v-1.469l0.429-0.25V104.699z M92.401,104.357l-0.428,0.246v-1.469l0.428-0.249V104.357z
	 M93.017,104.01l-0.428,0.252v-1.471l0.428-0.251V104.01z M93.619,103.65l-0.426,0.248v-1.469l0.426-0.248V103.65z M94.238,103.305
	l-0.428,0.248v-1.469l0.428-0.248V103.305z M94.865,102.914l-0.428,0.252v-1.471l0.428-0.25V102.914z M95.481,102.572l-0.428,0.246
	v-1.467l0.428-0.25V102.572z M96.061,102.23l-0.426,0.244v-1.469l0.426-0.249V102.23z M96.677,101.883l-0.428,0.248v-1.467
	l0.428-0.251V101.883z M97.297,101.533l-0.43,0.246v-1.467l0.43-0.249V101.533z M97.911,101.186l-0.426,0.25v-1.469l0.426-0.249
	V101.186z M98.539,100.797l-0.426,0.249v-1.47l0.426-0.248V100.797z M99.154,100.453l-0.426,0.249v-1.467l0.426-0.249V100.453z
	 M99.736,100.11l-0.426,0.249v-1.467l0.426-0.249V100.11z M100.352,99.765l-0.426,0.25v-1.468l0.426-0.251V99.765z M100.961,99.384
	l-0.428,0.249v-1.469l0.428-0.25V99.384z M101.576,99.042l-0.428,0.246V97.82l0.428-0.249V99.042z M102.204,98.648l-0.429,0.251
	V97.43l0.429-0.251V98.648z M102.82,98.303l-0.426,0.249v-1.468l0.426-0.249V98.303z M103.4,97.961l-0.426,0.249v-1.47l0.426-0.247
	V97.961z M104.02,97.617l-0.428,0.249v-1.467l0.428-0.25V97.617z M104.643,97.268l-0.43,0.249v-1.471l0.43-0.245V97.268z
	 M105.259,96.92l-0.429,0.249V95.7l0.429-0.249V96.92z M105.887,96.533l-0.429,0.245v-1.467l0.429-0.249V96.533z M106.506,96.185
	l-0.428,0.251v-1.47l0.428-0.249V96.185z M107.082,95.846l-0.425,0.249v-1.47l0.425-0.25V95.846z M107.701,95.498l-0.43,0.251V94.28
	l0.43-0.249V95.498z"/>
<path fill="#898989" d="M126.16,83.149l-18.525,10.732v1.758l18.543-10.757L126.16,83.149z M108.262,95.148l-0.424,0.249V93.93
	l0.424-0.249V95.148z M108.882,94.802l-0.428,0.25v-1.47l0.428-0.247V94.802z M109.51,94.413l-0.429,0.25v-1.47l0.429-0.249V94.413z
	 M110.125,94.07l-0.428,0.249V92.85l0.428-0.25V94.07z M110.705,93.728l-0.426,0.248v-1.468l0.426-0.252V93.728z M111.32,93.38
	l-0.426,0.251v-1.469l0.426-0.249V93.38z M111.926,93.021L111.5,93.27v-1.469l0.426-0.249V93.021z M112.542,92.677l-0.429,0.245
	v-1.467l0.429-0.249V92.677z M113.171,92.286l-0.43,0.25v-1.47l0.43-0.248V92.286z M113.787,91.945l-0.426,0.245v-1.467l0.426-0.25
	V91.945z M114.366,91.601l-0.427,0.248V90.38l0.427-0.25V91.601z M114.984,91.255l-0.428,0.247v-1.467l0.428-0.249V91.255z
	 M115.602,90.905l-0.43,0.247v-1.469l0.43-0.249V90.905L115.602,90.905z M116.213,90.558l-0.424,0.25v-1.47l0.424-0.249V90.558z
	 M116.844,90.167l-0.428,0.25v-1.469l0.428-0.249V90.167z M117.461,89.823l-0.43,0.247v-1.467l0.43-0.25V89.823z M118.041,89.481
	l-0.426,0.249v-1.467l0.426-0.251V89.481z M118.656,89.135l-0.426,0.25v-1.47l0.426-0.249V89.135z M119.268,88.754l-0.43,0.249
	v-1.468l0.43-0.25V88.754z M119.885,88.41l-0.43,0.247V87.19l0.43-0.25V88.41z M120.512,88.019l-0.428,0.249v-1.469l0.428-0.249
	V88.019z M121.127,87.671l-0.428,0.251v-1.469l0.428-0.249V87.671z M121.707,87.331l-0.424,0.25v-1.47l0.424-0.247V87.331z
	 M122.326,86.99l-0.43,0.247V85.77l0.43-0.25V86.99z M122.949,86.637l-0.43,0.249v-1.47l0.43-0.248V86.637z M123.564,86.292
	l-0.426,0.247V85.07l0.426-0.247V86.292z M124.193,85.901l-0.428,0.247v-1.467l0.428-0.249V85.901z M124.807,85.556l-0.426,0.25
	v-1.471l0.426-0.247V85.556z M125.389,85.214l-0.426,0.249v-1.47l0.426-0.248V85.214z M126.004,84.87l-0.428,0.249V83.65
	l0.428-0.247V84.87z"/>
<path fill="#898989" d="M107.273,88.263l-13.404-7.477l-0.044,1.613l13.421,7.496L107.273,88.263z M94.425,82.628l-0.426-0.236
	l0.022-1.368l0.424,0.24L94.425,82.628z M95.035,82.958l-0.424-0.236l0.019-1.372l0.426,0.241L95.035,82.958z M95.613,83.287
	l-0.423-0.238l0.021-1.37l0.422,0.236L95.613,83.287z M96.227,83.618l-0.428-0.238l0.022-1.366l0.423,0.24L96.227,83.618z
	 M96.847,83.987l-0.424-0.236l0.022-1.371l0.424,0.24L96.847,83.987z M97.459,84.32l-0.424-0.24l0.026-1.37l0.424,0.24L97.459,84.32
	z M98.079,84.652l-0.422-0.236l0.022-1.372l0.426,0.242L98.079,84.652z M98.693,84.987l-0.426-0.238l0.022-1.372l0.42,0.24
	L98.693,84.987z M99.271,85.312l-0.422-0.24l0.017-1.364l0.428,0.236L99.271,85.312z M99.883,85.644l-0.424-0.242l0.02-1.365
	l0.426,0.238L99.883,85.644z M100.507,86.015l-0.422-0.24l0.022-1.368l0.422,0.24L100.507,86.015z M101.123,86.345l-0.428-0.24
	l0.021-1.363l0.425,0.236L101.123,86.345z M101.725,86.712l-0.426-0.24l0.02-1.368l0.43,0.238L101.725,86.712z M102.34,87.042
	l-0.428-0.24l0.021-1.368l0.426,0.238L102.34,87.042z M102.916,87.365l-0.428-0.236l0.018-1.367l0.43,0.236L102.916,87.365z
	 M103.525,87.698l-0.42-0.236l0.021-1.368l0.42,0.234L103.525,87.698z M104.152,88.07l-0.426-0.242l0.021-1.364l0.42,0.24
	L104.152,88.07z M104.764,88.401l-0.422-0.241l0.018-1.365l0.426,0.234L104.764,88.401z M105.375,88.731l-0.426-0.234l0.018-1.368
	l0.428,0.238L105.375,88.731z M105.988,89.07l-0.428-0.238l0.02-1.373l0.428,0.24L105.988,89.07z M106.566,89.395l-0.426-0.24
	l0.02-1.37l0.427,0.238L106.566,89.395z M106.753,89.481l0.024-1.36l0.424,0.234l-0.023,1.366L106.753,89.481z"/>
<path fill="#898989" d="M127.986,82.085l-18.521,10.732v1.758l18.539-10.759L127.986,82.085z M110.09,94.086l-0.426,0.251v-1.469
	l0.426-0.249V94.086z M110.705,93.743l-0.426,0.25v-1.472l0.426-0.246V93.743z M111.336,93.352l-0.429,0.251v-1.472l0.429-0.247
	V93.352z M111.951,93.008l-0.43,0.245v-1.467l0.43-0.25V93.008z M112.531,92.668l-0.428,0.245v-1.467l0.428-0.249V92.668z
	 M113.146,92.318l-0.424,0.251V91.1l0.424-0.25V92.318z M113.752,91.961l-0.426,0.247v-1.469l0.426-0.249V91.961z M114.368,91.614
	l-0.429,0.249v-1.468l0.429-0.249V91.614z M114.997,91.223l-0.429,0.251v-1.47l0.429-0.249V91.223z M115.613,90.879l-0.43,0.249
	v-1.467l0.43-0.25V90.879z M116.191,90.539l-0.426,0.249v-1.467l0.426-0.249V90.539z M116.811,90.193l-0.428,0.247v-1.468
	l0.428-0.249V90.193z M117.428,89.84l-0.43,0.249v-1.467l0.43-0.249V89.84z M118.041,89.496l-0.426,0.25v-1.472l0.426-0.249V89.496z
	 M118.67,89.106l-0.428,0.25v-1.472l0.428-0.245V89.106z M119.287,88.764l-0.43,0.245v-1.467l0.43-0.25V88.764z M119.865,88.419
	l-0.428,0.247v-1.467l0.428-0.247V88.419z M120.482,88.074l-0.426,0.25v-1.469l0.426-0.249V88.074z M121.09,87.692l-0.428,0.249
	v-1.469l0.428-0.248V87.692z M121.707,87.349l-0.424,0.245v-1.465l0.424-0.25V87.349z M122.338,86.958l-0.428,0.249v-1.469
	l0.428-0.25V86.958z M122.953,86.612l-0.428,0.249v-1.47l0.428-0.247V86.612z M123.529,86.271l-0.424,0.25v-1.47l0.424-0.247V86.271
	z M124.148,85.926l-0.432,0.247v-1.467l0.432-0.25V85.926z M124.775,85.575l-0.43,0.249v-1.469l0.43-0.25V85.575z M125.393,85.231
	l-0.43,0.247v-1.469l0.43-0.249V85.231z M126.02,84.84l-0.428,0.249V83.62l0.428-0.25V84.84z M126.637,84.496l-0.43,0.25v-1.47
	l0.43-0.249V84.496z M127.215,84.152l-0.426,0.249v-1.469l0.426-0.248V84.152z M127.832,83.809l-0.43,0.249v-1.469l0.43-0.248
	V83.809z"/>
<path fill="#898989" d="M94.006,80.768L75.389,91.136l-0.036,1.757L93.991,82.5L94.006,80.768z M75.987,92.417l-0.431,0.24
	l0.03-1.468l0.429-0.24L75.987,92.417z M76.607,92.082l-0.429,0.24l0.028-1.467l0.431-0.24L76.607,92.082z M77.238,91.702
	l-0.431,0.245l0.031-1.472l0.429-0.24L77.238,91.702z M77.858,91.372l-0.429,0.24l0.029-1.467l0.429-0.24L77.858,91.372z
	 M78.442,91.043l-0.429,0.238l0.028-1.47l0.431-0.24L78.442,91.043z M79.059,90.709L78.63,90.95l0.03-1.469l0.429-0.242
	L79.059,90.709z M79.667,90.359l-0.427,0.24l0.027-1.471l0.431-0.238L79.667,90.359z M80.289,90.027l-0.431,0.24l0.03-1.468
	l0.431-0.243L80.289,90.027z M80.92,89.649l-0.429,0.242l0.028-1.469l0.429-0.24L80.92,89.649z M81.537,89.317l-0.429,0.24
	l0.03-1.467l0.429-0.243L81.537,89.317z M82.121,88.989l-0.429,0.238l0.027-1.468l0.433-0.24L82.121,88.989z M82.741,88.654
	l-0.429,0.242l0.028-1.468l0.433-0.242L82.741,88.654z M83.361,88.315l-0.429,0.238l0.028-1.467l0.433-0.242L83.361,88.315z
	 M83.981,87.979l-0.431,0.244l0.03-1.471l0.429-0.24L83.981,87.979z M84.612,87.603l-0.431,0.242l0.03-1.471l0.429-0.24
	L84.612,87.603z M85.229,87.271L84.8,87.509l0.028-1.468l0.431-0.243L85.229,87.271z M85.814,86.943l-0.431,0.238l0.031-1.468
	l0.433-0.24L85.814,86.943z M86.434,86.608l-0.427,0.238l0.026-1.469l0.431-0.24L86.434,86.608z M87.047,86.236l-0.431,0.242
	l0.03-1.47l0.431-0.24L87.047,86.236z M87.664,85.905l-0.427,0.24l0.029-1.468l0.431-0.24L87.664,85.905z M88.296,85.528
	l-0.429,0.24l0.029-1.47l0.433-0.24L88.296,85.528z M88.916,85.191l-0.429,0.242l0.032-1.469l0.427-0.24L88.916,85.191z
	 M89.502,84.865l-0.429,0.242l0.028-1.472l0.431-0.238L89.502,84.865z M90.119,84.532l-0.426,0.238l0.027-1.467l0.431-0.24
	L90.119,84.532z M90.746,84.192l-0.429,0.242l0.028-1.469l0.433-0.242L90.746,84.192z M91.368,83.861l-0.433,0.238l0.031-1.468
	l0.431-0.24L91.368,83.861z M91.999,83.482l-0.428,0.24l0.028-1.468l0.43-0.24L91.999,83.482z M92.619,83.149l-0.432,0.242
	l0.031-1.469l0.43-0.238L92.619,83.149z M93.202,82.821l-0.43,0.24l0.03-1.468l0.43-0.241L93.202,82.821z M93.819,82.486
	l-0.43,0.242l0.03-1.469l0.432-0.24L93.819,82.486z"/>
<path fill="#898989" d="M88.75,99.053L75.392,91.13l-0.09,1.624l13.373,7.941L88.75,99.053z M75.9,93.004l-0.425-0.253l0.059-1.377
	l0.422,0.255L75.9,93.004z M76.511,93.357l-0.423-0.253l0.056-1.377l0.425,0.255L76.511,93.357z M77.083,93.703l-0.421-0.25
	l0.059-1.379l0.421,0.253L77.083,93.703z M77.697,94.052l-0.423-0.251l0.058-1.379l0.423,0.257L77.697,94.052z M78.318,94.447
	l-0.424-0.249l0.06-1.383l0.422,0.254L78.318,94.447z M78.927,94.799l-0.423-0.255l0.061-1.379l0.422,0.256L78.927,94.799z
	 M79.548,95.154l-0.427-0.251l0.058-1.381l0.425,0.258L79.548,95.154z M80.156,95.505l-0.423-0.252l0.059-1.379l0.421,0.252
	L80.156,95.505z M80.731,95.851l-0.419-0.255l0.057-1.377l0.424,0.252L80.731,95.851z M81.341,96.204l-0.422-0.255l0.06-1.377
	l0.422,0.253L81.341,96.204z M81.964,96.597l-0.423-0.253l0.057-1.381l0.425,0.257L81.964,96.597z M82.577,96.947l-0.425-0.255
	l0.062-1.377l0.423,0.254L82.577,96.947z M83.177,97.33l-0.425-0.253l0.061-1.377l0.422,0.254L83.177,97.33z M83.787,97.683
	l-0.422-0.252l0.056-1.379l0.424,0.254L83.787,97.683z M84.363,98.023l-0.427-0.251l0.059-1.377l0.425,0.253L84.363,98.023z
	 M84.974,98.376l-0.423-0.251l0.056-1.377l0.425,0.249L84.974,98.376z M85.593,98.771l-0.422-0.255l0.06-1.377l0.421,0.254
	L85.593,98.771z M86.205,99.123l-0.423-0.255l0.058-1.376l0.426,0.249L86.205,99.123z M86.815,99.476l-0.424-0.253l0.06-1.377
	l0.425,0.252L86.815,99.476z M87.426,99.829L87,99.578l0.061-1.38l0.421,0.258L87.426,99.829z M88,100.175l-0.423-0.252l0.06-1.379
	l0.423,0.25L88,100.175z M88.188,100.271l0.057-1.377l0.425,0.251l-0.061,1.38L88.188,100.271z"/>
<path fill="#B2B2B2" d="M136.307,83.769l-15.719-9.171l-0.205,1.673l15.729,9.194L136.307,83.769z M121.09,76.568l-0.498-0.287
	l0.156-1.421l0.502,0.292L121.09,76.568z M121.811,76.978l-0.498-0.289l0.154-1.424l0.502,0.296L121.811,76.978z M122.484,77.379
	l-0.496-0.292l0.16-1.422l0.496,0.291L122.484,77.379z M123.209,77.786l-0.504-0.293l0.156-1.42l0.502,0.295L123.209,77.786z
	 M123.932,78.237l-0.498-0.287l0.162-1.424l0.494,0.294L123.932,78.237z M124.652,78.648l-0.496-0.295l0.158-1.422l0.496,0.295
	L124.652,78.648z M125.379,79.056l-0.5-0.287l0.164-1.424l0.494,0.294L125.379,79.056z M126.096,79.468l-0.492-0.292l0.158-1.426
	l0.49,0.291L126.096,79.468z M126.775,79.866l-0.502-0.292l0.156-1.418l0.502,0.293L126.775,79.866z M127.494,80.276l-0.504-0.292
	l0.162-1.418l0.5,0.289L127.494,80.276z M128.219,80.728l-0.492-0.295l0.158-1.422l0.496,0.297L128.219,80.728z M128.945,81.134
	l-0.5-0.293l0.154-1.418l0.5,0.288L128.945,81.134z M129.646,81.577l-0.496-0.294l0.154-1.42l0.494,0.294L129.646,81.577z
	 M130.365,81.99l-0.496-0.297l0.158-1.42l0.498,0.291L130.365,81.99z M131.047,82.384l-0.498-0.293l0.152-1.42l0.498,0.293
	L131.047,82.384z M131.762,82.792l-0.492-0.289l0.154-1.42l0.492,0.285L131.762,82.792z M132.49,83.244l-0.492-0.295l0.154-1.417
	l0.498,0.292L132.49,83.244z M133.211,83.652l-0.494-0.293l0.15-1.42l0.502,0.29L133.211,83.652z M133.93,84.058l-0.498-0.287
	l0.152-1.424l0.504,0.289L133.93,84.058z M134.652,84.474l-0.502-0.293l0.156-1.424l0.502,0.295L134.652,84.474z M135.328,84.874
	l-0.504-0.295l0.16-1.422l0.498,0.292L135.328,84.874z M135.549,84.985l0.156-1.415l0.494,0.285l-0.158,1.422L135.549,84.985z"/>
<g>
	<path fill="#B2B2B2" d="M121.832,80.688l-0.137-0.082l0.092-1.253l0.086-0.08l-4.904-2.896l-0.137,1.479l5.002,2.96L121.832,80.688
		z M117.416,78.102l-0.41-0.243l0.1-1.258l0.414,0.244L117.416,78.102z M118.01,78.442l-0.41-0.241l0.096-1.26l0.412,0.246
		L118.01,78.442z M118.566,78.776l-0.408-0.245l0.096-1.256l0.41,0.242L118.566,78.776z M119.16,79.115l-0.406-0.245l0.092-1.254
		l0.41,0.246L119.16,79.115z M119.76,79.492l-0.406-0.242l0.098-1.258l0.404,0.245L119.76,79.492z M120.352,79.834l-0.412-0.245
		l0.104-1.256l0.41,0.243L120.352,79.834z M120.951,80.178l-0.406-0.245l0.1-1.258l0.406,0.249L120.951,80.178z M121.545,80.518
		l-0.408-0.244l0.098-1.26l0.406,0.243L121.545,80.518z"/>
</g>
<path fill="#B2B2B2" d="M80.72,106.895l0.015,0.406l-0.015,0.012v0.119l4.898-2.889l-0.068-1.417l-4.832,2.843L80.72,106.895
	L80.72,106.895z M85.423,103.337l0.042,1.202l-0.368,0.217l-0.042-1.203L85.423,103.337z M84.893,103.643l0.042,1.199l-0.367,0.221
	l-0.045-1.205L84.893,103.643z M84.392,103.939l0.045,1.201l-0.37,0.217l-0.044-1.203L84.392,103.939z M83.859,104.242l0.045,1.203
	l-0.366,0.218l-0.043-1.204L83.859,104.242z M83.319,104.582l0.045,1.205l-0.367,0.215l-0.045-1.203L83.319,104.582z M82.79,104.886
	l0.043,1.202l-0.366,0.219l-0.043-1.203L82.79,104.886z M82.251,105.191l0.044,1.201l-0.363,0.219l-0.045-1.203L82.251,105.191z
	 M81.721,105.497l0.045,1.203l-0.366,0.218l-0.043-1.203L81.721,105.497z M81.22,105.796l0.043,1.203l-0.362,0.218l-0.047-1.203
	L81.22,105.796z"/>
<path fill="#B2B2B2" d="M76.628,107.479c0,0.895,0.941,1.617,2.104,1.617c1.166,0,2.108-0.725,2.108-1.617c0-0.008,0-0.015,0-0.019
	c-0.034,0.185-0.095,0.29-0.095,0.29l0.027-1.4l0.068-0.089c0-0.028,0-0.063,0-0.094c-0.376,0.444-1.368,1.173-2.108,1.173
	c-0.741,0-1.776-0.635-2.101-1.173c-0.003,0.06-0.006,0.104-0.01,0.16l0.095,0.118l0.022,1.396 M76.741,107.852l-0.024-1.396
	l0.173,0.182l0.023,1.48C76.913,108.109,76.768,107.998,76.741,107.852z M77.112,108.375c0,0-0.038,0-0.137-0.148v-1.521
	l0.137,0.119V108.375z M77.429,108.674c0,0-0.167-0.141-0.317-0.299v-1.553l0.317,0.188V108.674z M77.793,108.869
	c0,0-0.072,0-0.255-0.158V107.1l0.255,0.129V108.869z M78.188,108.965c0,0-0.247,0.008-0.395-0.1v-1.639l0.395,0.158V108.965z
	 M78.649,109.039c0,0-0.231,0.039-0.348-0.059v-1.541l0.34,0.056L78.649,109.039z M79.124,108.965
	c-0.116,0.104-0.473,0.07-0.473,0.07l-0.007-1.542l0.481-0.063L79.124,108.965L79.124,108.965z M79.645,108.869
	c-0.146,0.104-0.379,0.1-0.379,0.1v-1.582l0.379-0.158V108.869z M79.9,108.711c-0.184,0.158-0.255,0.158-0.255,0.158v-1.643
	l0.255-0.125V108.711z M80.342,108.408c-0.184,0.158-0.35,0.251-0.35,0.251v-1.638l0.35-0.265V108.408z M80.508,108.254
	c-0.119,0.154-0.166,0.154-0.166,0.154v-1.649l0.166-0.127V108.254z M80.751,107.752c-0.067,0.27-0.185,0.424-0.185,0.424
	l0.024-1.607l0.184-0.215L80.751,107.752z"/>
<path fill="#B2B2B2" d="M136.313,83.915l-7.971,4.856l0.072,1.435l7.984-4.866L136.313,83.915z M128.584,90.002l-0.063-1.205
	l0.355-0.22l0.064,1.202L128.584,90.002z M129.107,89.688l-0.061-1.197l0.355-0.225l0.064,1.204L129.107,89.688z M129.646,89.346
	l-0.063-1.206l0.365-0.225l0.059,1.202L129.646,89.346z M130.168,89.032l-0.059-1.204l0.363-0.219l0.063,1.206L130.168,89.032z
	 M130.664,88.728l-0.059-1.202l0.359-0.223l0.063,1.205L130.664,88.728z M131.193,88.417l-0.063-1.206l0.358-0.22l0.066,1.201
	L131.193,88.417z M131.709,88.095l-0.063-1.202l0.359-0.229l0.063,1.206L131.709,88.095z M132.232,87.785l-0.061-1.204l0.361-0.222
	l0.064,1.203L132.232,87.785z M132.771,87.435l-0.066-1.204l0.365-0.22l0.063,1.203L132.771,87.435z M133.295,87.125l-0.064-1.201
	l0.363-0.225l0.066,1.203L133.295,87.125z M133.791,86.819l-0.063-1.201l0.361-0.225l0.063,1.202L133.791,86.819z M134.314,86.505
	l-0.063-1.201l0.362-0.223l0.063,1.204L134.314,86.505z M134.846,86.19l-0.063-1.199l0.359-0.225l0.066,1.202L134.846,86.19z
	 M135.371,85.883l-0.064-1.206l0.367-0.223l0.057,1.204L135.371,85.883z M135.844,84.328l0.363-0.218l0.066,1.199l-0.369,0.225
	L135.844,84.328z"/>
<polygon fill="#333D54" points="74.548,108.504 74.548,106.512 75.704,107.198 75.704,109.264 "/>
<g>
	<ellipse fill="#344E5F" cx="97.583" cy="85.61" rx="3.267" ry="1.409"/>
	<ellipse fill="#344E5F" cx="97.583" cy="88.052" rx="3.267" ry="1.409"/>
	<rect x="94.316" y="85.611" fill="#344E5F" width="6.53" height="2.44"/>
</g>
<g>
	<polygon fill="#333D54" points="81.118,101.813 81.118,99.818 82.429,100.506 82.429,102.572 	"/>
	<polygon fill="#333D54" points="78.86,96.643 78.86,97.699 79.709,98.248 79.709,97.169 	"/>
	<polygon fill="#333D54" points="79.833,97.217 79.833,98.271 80.686,98.822 80.686,97.744 	"/>
	<polygon fill="#333D54" points="80.977,97.859 80.977,98.913 81.825,99.465 81.825,98.386 	"/>
	<polygon fill="#333D54" points="82.168,98.524 82.168,99.58 83.017,100.13 83.017,99.051 	"/>
	<polygon fill="#333D54" points="83.339,99.327 83.339,100.383 84.188,100.934 84.188,99.854 	"/>
	<polygon fill="#333D54" points="84.511,100.13 84.511,101.186 85.358,101.734 85.358,100.658 	"/>
</g>
<path fill="#AFAFAF" d="M54.896,118.441l0.293,1.386c17.486,0.562,33.868-10.618,33.868-10.618l0.078-1.113
	C69.165,120.211,54.896,118.441,54.896,118.441z M55.329,119.693l-0.16-0.995l0.001-0.07c0,0,0.405,0.05,0.726,0.052l0.076,1.043
	L55.329,119.693z M56.163,119.723l-0.072-1.022c0,0,0.357,0.019,0.676,0.011l0.106,1.041L56.163,119.723z M57.03,119.723
	l-0.072-1.022c0,0,0.355-0.031,0.674-0.037l0.072,1.063L57.03,119.723L57.03,119.723z M57.879,119.723l-0.072-1.01v-0.05
	c0,0,0.369,0.008,0.692,0l0.07,1.026L57.879,119.723z M58.737,119.688l-0.074-1.01v-0.05c0,0,0.368,0.008,0.692,0l0.071,1.029
	L58.737,119.688z M59.608,119.624l-0.072-1.013v-0.047c0,0,0.369,0.009,0.69,0l0.072,1.024L59.608,119.624z M60.489,119.568
	l-0.094-1.025c0.319-0.044,0.682-0.107,0.682-0.107l0.01,0.045l0.09,1.013L60.489,119.568z M61.363,119.491l-0.095-1.025
	c0.319-0.041,0.683-0.108,0.683-0.108l0.007,0.052l0.09,1.007L61.363,119.491z M62.214,119.389l-0.094-1.024
	c0.319-0.046,0.682-0.11,0.682-0.11l0.007,0.048l0.091,1.013L62.214,119.389z M63.074,119.285l-0.1-1.061
	c0.317-0.043,0.673-0.072,0.673-0.072l0.092,1.021L63.074,119.285z M63.897,119.178l-0.063-1.042c0.32-0.043,0.668-0.12,0.668-0.12
	l0.175,1.002L63.897,119.178z M64.88,118.979l-0.189-1.011c0.313-0.073,0.669-0.174,0.669-0.174l0.014,0.045l0.185,0.998
	L64.88,118.979z M65.743,118.82l-0.189-1.012c0.313-0.074,0.669-0.175,0.669-0.175l0.013,0.046l0.184,0.996L65.743,118.82z
	 M66.58,118.641l-0.189-1.016c0.314-0.074,0.669-0.17,0.669-0.17l0.012,0.044l0.184,0.996L66.58,118.641z M67.427,118.451
	l-0.198-1.044c0.315-0.074,0.665-0.136,0.665-0.136l0.188,1.012L67.427,118.451z M68.236,118.268l-0.162-1.033
	c0.313-0.069,0.656-0.178,0.656-0.178l0.189,1.006L68.236,118.268z M69.117,117.973l-0.198-1.045
	c0.314-0.074,0.663-0.135,0.663-0.135l0.191,1.009L69.117,117.973z M69.923,117.787l-0.158-1.033
	c0.312-0.074,0.654-0.181,0.654-0.181l0.189,1.009L69.923,117.787z M70.841,117.525l-0.249-1.037c0.31-0.09,0.656-0.164,0.656-0.164
	l0.238,0.998L70.841,117.525z M71.641,117.3l-0.212-1.024c0.31-0.086,0.647-0.211,0.647-0.211l0.238,1L71.641,117.3z
	 M72.461,117.016l-0.234-1.007c0.308-0.093,0.653-0.172,0.653-0.172l0.223,0.974L72.461,117.016z M73.224,116.777l-0.171-1.004
	c0.305-0.094,0.638-0.223,0.638-0.223l0.236,0.967L73.224,116.777z M74.015,116.507l-0.209-1.022
	c0.308-0.092,0.644-0.213,0.644-0.213l0.238,1L74.015,116.507z M74.837,116.223l-0.232-1.008c0.306-0.094,0.635-0.236,0.635-0.236
	l0.24,1.037L74.837,116.223z M75.591,115.914l-0.246-0.947c0.304-0.095,0.703-0.287,0.703-0.287l0.274,0.956L75.591,115.914z
	 M76.475,115.584l-0.292-1.004c0.301-0.109,0.625-0.262,0.625-0.262l0.317,0.977L76.475,115.584z M77.272,115.236l-0.313-0.982
	c0.299-0.117,0.636-0.221,0.636-0.221l0.303,0.947L77.272,115.236z M78.058,114.961l-0.295-1.008
	c0.303-0.113,0.627-0.266,0.627-0.266l0.319,0.98L78.058,114.961z M78.765,114.605l-0.29-1.002c0.3-0.115,0.624-0.268,0.624-0.268
	l0.317,0.979L78.765,114.605z M79.493,114.305l-0.281-0.939c0.297-0.118,0.631-0.232,0.631-0.232l0.272,0.908L79.493,114.305z
	 M80.21,113.936l-0.234-0.918c0.296-0.119,0.615-0.272,0.615-0.272l0.261,0.892L80.21,113.936z M80.985,113.6l-0.243-0.93
	c0.295-0.12,0.618-0.273,0.618-0.273l0.272,0.904L80.985,113.6z M81.804,113.193l-0.269-0.916c0.297-0.119,0.631-0.231,0.631-0.231
	l0.256,0.886L81.804,113.193z M82.561,112.816l-0.246-0.932c0.299-0.115,0.62-0.271,0.62-0.271l0.269,0.903L82.561,112.816z
	 M83.314,112.459l-0.243-0.93c0.299-0.117,0.62-0.276,0.62-0.276l0.269,0.905L83.314,112.459z M84.061,112.043l-0.243-0.929
	c0.299-0.12,0.622-0.274,0.622-0.274l0.267,0.904L84.061,112.043z M84.789,111.646l-0.249-0.891
	c0.291-0.129,0.606-0.295,0.606-0.295l0.276,0.867L84.789,111.646z M85.527,111.268l-0.248-0.896c0.293-0.123,0.61-0.291,0.61-0.291
	l0.272,0.87L85.527,111.268z M86.262,110.83l-0.248-0.893c0.292-0.129,0.609-0.293,0.609-0.293l0.273,0.869L86.262,110.83z
	 M86.986,110.34l-0.21-0.836c0.29-0.133,0.605-0.299,0.605-0.299l0.232,0.813L86.986,110.34z M87.722,109.949l-0.209-0.836
	c0.292-0.131,0.604-0.299,0.604-0.299l0.232,0.81L87.722,109.949z M88.891,109.201l-0.453,0.283l-0.197-0.816
	c0.291-0.137,0.712-0.303,0.712-0.303L88.891,109.201z"/>
<g>
	<path fill="#AFAFAF" d="M75.965,102.939c0.088,0,0.133,0.002,0.133,0.002l-0.025-0.088
		C76.036,102.881,76.001,102.908,75.965,102.939z"/>
	<path fill="#AFAFAF" d="M67.625,104.041c-1.829,1.029-4.611,2.832-7.262,5.345l0.012,0.037l0.031-0.032l0.361,1.092l0.05,0.129
		c2.502-2.311,4.781-4.116,6.827-5.239L67.625,104.041z M60.893,110.43l-0.375-1.076l0.395-0.362l0.389,1.114
		C61.107,110.27,60.893,110.43,60.893,110.43z M61.391,110.01L61,108.904l0.412-0.4l0.375,1.135
		C61.594,109.805,61.391,110.01,61.391,110.01z M61.863,109.512l-0.352-1.089l0.465-0.405l0.334,1.084
		C62.115,109.25,61.863,109.512,61.863,109.512z M62.389,109.084l-0.35-1.191l0.417-0.307l0.336,1.146
		C62.591,108.877,62.389,109.084,62.389,109.084z M62.891,108.654l-0.336-1.141l0.433-0.346l0.321,1.172
		C63.106,108.482,62.891,108.654,62.891,108.654z M63.375,108.254l-0.329-1.104l0.45-0.381l0.292,1.153
		C63.586,108.068,63.375,108.254,63.375,108.254z M63.896,107.834l-0.323-1.113l0.419-0.307l0.337,1.152
		C64.128,107.707,63.896,107.834,63.896,107.834z M64.427,107.493l-0.339-1.151l0.433-0.341l0.323,1.175
		C64.64,107.309,64.427,107.493,64.427,107.493z M64.961,107.1l-0.335-1.141l0.417-0.303l0.351,1.184
		C65.195,106.977,64.961,107.1,64.961,107.1z M65.503,106.719l-0.306-1.154l0.444-0.312l0.292,1.192
		C65.724,106.563,65.503,106.719,65.503,106.719z M66.055,106.379l-0.305-1.16l0.431-0.267l0.313,1.202
		C66.29,106.271,66.055,106.379,66.055,106.379z M66.61,105.984l-0.304-1.156l0.444-0.313l0.289,1.191
		C66.83,105.822,66.61,105.984,66.61,105.984z M66.857,104.482l0.463-0.271l0.157,1.271c-0.208,0.119-0.317,0.158-0.317,0.158
		L66.857,104.482z"/>
</g>
<g>
	<path fill="#AFAFAF" d="M60.44,109.346c-2.17,1.801-4.025,3.939-5.544,6.016l0.018,0.031l0.022-0.033l0.506,0.955l0.064,0.111
		c1.913-2.543,3.776-4.414,5.459-5.787L60.44,109.346z M55.548,116.245l-0.516-0.942l0.3-0.402l0.539,0.974
		C55.722,116.057,55.548,116.245,55.548,116.245z M55.939,115.771l-0.535-0.963l0.312-0.438l0.526,0.993
		C56.089,115.549,55.939,115.771,55.939,115.771z M56.291,115.236l-0.498-0.953l0.359-0.447l0.482,0.947
		C56.474,114.949,56.291,115.236,56.291,115.236z M56.699,114.754l-0.512-1.047l0.333-0.352l0.495,1.01
		C56.852,114.529,56.699,114.754,56.699,114.754z M57.088,114.277l-0.491-1.002l0.337-0.394l0.483,1.04
		C57.257,114.079,57.088,114.277,57.088,114.277z M57.466,113.828l-0.48-0.975l0.35-0.424l0.454,1.023
		C57.632,113.621,57.466,113.828,57.466,113.828z M57.875,113.355l-0.476-0.979l0.332-0.356l0.494,1.021
		C58.064,113.201,57.875,113.355,57.875,113.355z M58.304,112.955l-0.497-1.012l0.338-0.389l0.487,1.035
		C58.469,112.747,58.304,112.955,58.304,112.955z M58.731,112.504L58.24,111.5l0.333-0.352l0.512,1.041
		C58.922,112.354,58.731,112.504,58.731,112.504z M59.162,112.064l-0.467-1.021l0.357-0.357l0.455,1.059
		C59.339,111.88,59.162,112.064,59.162,112.064z M59.609,111.66l-0.465-1.027l0.352-0.313l0.481,1.063
		C59.81,111.525,59.609,111.66,59.609,111.66z M60.051,111.207l-0.465-1.021l0.356-0.358l0.458,1.062
		C60.228,111.021,60.051,111.207,60.051,111.207z M60.037,109.775l0.35-0.314l0.483,1.064c-0.17,0.141-0.368,0.273-0.368,0.273
		L60.037,109.775z"/>
</g>
<g>
	<path fill="#323B49" d="M91.988,106.779c0,0.244-0.166,0.441-0.373,0.441l0,0c-0.206,0-0.374-0.197-0.374-0.441v-0.287
		c0-0.244,0.167-0.441,0.374-0.441l0,0c0.207,0,0.373,0.197,0.373,0.441V106.779z"/>
	<path fill="#323B49" d="M97.976,103.27c0,0.244-0.166,0.441-0.373,0.441l0,0c-0.207,0-0.373-0.197-0.373-0.441v-0.285
		c0-0.242,0.166-0.44,0.373-0.44l0,0c0.207,0,0.373,0.198,0.373,0.44V103.27z"/>
	<path fill="#323B49" d="M95.659,107.364c0,0.243-0.166,0.442-0.373,0.442l0,0c-0.207,0-0.373-0.199-0.373-0.442v-0.288
		c0-0.243,0.166-0.441,0.373-0.441l0,0c0.207,0,0.373,0.198,0.373,0.441V107.364z"/>
	<path fill="#323B49" d="M102.359,104.357c0,0.244-0.166,0.439-0.373,0.439l0,0c-0.207,0-0.373-0.195-0.373-0.439v-0.285
		c0-0.244,0.166-0.439,0.373-0.439l0,0c0.207,0,0.373,0.195,0.373,0.439V104.357z"/>
	<path fill="#323B49" d="M103.668,99.952c0,0.244-0.167,0.442-0.372,0.442l0,0c-0.206,0-0.372-0.198-0.372-0.442v-0.285
		c0-0.246,0.166-0.442,0.372-0.442l0,0c0.205,0,0.372,0.196,0.372,0.442V99.952z"/>
	<path fill="#323B49" d="M107.952,100.537c0,0.246-0.166,0.441-0.372,0.441l0,0c-0.207,0-0.373-0.195-0.373-0.441v-0.285
		c0-0.243,0.166-0.442,0.373-0.442l0,0c0.206,0,0.372,0.199,0.372,0.442V100.537z"/>
	<path fill="#323B49" d="M109.461,96.644c0,0.246-0.164,0.442-0.373,0.442l0,0c-0.206,0-0.372-0.196-0.372-0.442v-0.285
		c0-0.244,0.166-0.442,0.372-0.442l0,0c0.209,0,0.373,0.198,0.373,0.442V96.644z"/>
	<path fill="#323B49" d="M113.206,97.815c0,0.244-0.166,0.44-0.372,0.44l0,0c-0.209,0-0.375-0.197-0.375-0.44V97.53
		c0-0.244,0.166-0.442,0.375-0.442l0,0c0.206,0,0.372,0.198,0.372,0.442V97.815z"/>
	<path fill="#323B49" d="M115.084,93.159c0,0.244-0.162,0.443-0.373,0.443l0,0c-0.205,0-0.371-0.199-0.371-0.443v-0.287
		c0-0.243,0.166-0.44,0.371-0.44l0,0c0.211,0,0.373,0.197,0.373,0.44V93.159z"/>
	<path fill="#323B49" d="M118.732,94.599c0,0.243-0.166,0.44-0.373,0.44l0,0c-0.201,0-0.371-0.197-0.371-0.44v-0.287
		c0-0.244,0.17-0.44,0.371-0.44l0,0c0.207,0,0.373,0.196,0.373,0.44V94.599z"/>
	<path fill="#323B49" d="M120.957,89.642c0,0.244-0.164,0.442-0.371,0.442l0,0c-0.207,0-0.373-0.198-0.373-0.442v-0.287
		c0-0.243,0.166-0.441,0.373-0.441l0,0c0.207,0,0.371,0.196,0.371,0.441V89.642z"/>
	<path fill="#323B49" d="M124.586,91.495c0,0.244-0.166,0.442-0.371,0.442l0,0c-0.209,0-0.375-0.198-0.375-0.442V91.21
		c0-0.243,0.166-0.442,0.375-0.442l0,0c0.205,0,0.371,0.199,0.371,0.442V91.495z"/>
	<path fill="#323B49" d="M126.781,86.221c0,0.243-0.166,0.441-0.373,0.441l0,0c-0.207,0-0.371-0.196-0.371-0.441v-0.287
		c0-0.242,0.164-0.442,0.371-0.442l0,0c0.207,0,0.373,0.198,0.373,0.442V86.221z"/>
</g>
<g>
	<rect x="62.43" y="110.318" fill="#4C5B70" width="1.101" height="1.658"/>
	<ellipse fill="#323B49" cx="62.982" cy="112.245" rx="0.816" ry="0.392"/>
	<ellipse fill="#323B49" cx="62.982" cy="110.319" rx="0.816" ry="0.392"/>
</g>
<g>
	<rect x="67.904" y="113.008" fill="#4C5B70" width="1.102" height="1.658"/>
	<ellipse fill="#323B49" cx="68.456" cy="114.938" rx="0.816" ry="0.392"/>
	<ellipse fill="#323B49" cx="68.456" cy="113.007" rx="0.816" ry="0.391"/>
</g>
<ellipse fill="#4C5B70" cx="62.982" cy="112.04" rx="0.551" ry="0.206"/>
<ellipse fill="#DDDDDD" cx="72.409" cy="102.854" rx="0.38" ry="0.38"/>
<ellipse fill="#DDDDDD" cx="79.271" cy="105.918" rx="0.379" ry="0.379"/>
<path fill="#515151" d="M57.526,107.184c0,0-2.049,6.945-1.989,10.064h0.246v-0.643l2.998,1.562l-0.117,0.507h0.33
	C58.996,118.678,59.148,109.814,57.526,107.184z M57.543,107.756c0.161,0.258,0.39,1.025,0.39,1.025l-0.625-0.115
	C57.309,108.207,57.543,107.756,57.543,107.756z M57.314,108.873l0.619,0.116c0.207,0.827,0.299,1.587,0.299,1.587l-1.298-0.256
	C57.012,109.725,57.314,108.873,57.314,108.873z M56.876,110.574l1.422,0.318c0.139,0.666,0.253,2.406,0.253,2.406l-2.05-0.828
	C56.625,111.221,56.876,110.574,56.876,110.574z M58.757,117.893l-2.903-1.443l0.13-1.719l-0.13-0.063h0.136l-0.004,0.063
	l2.774,1.354L58.757,117.893L58.757,117.893z M58.757,115.807l-2.661-1.328c0.078-0.939,0.366-1.842,0.366-1.842l2.134,0.874
	C58.805,114.313,58.757,115.807,58.757,115.807z"/>
<polygon fill="#515251" points="55.913,105.504 55.913,106.549 59.332,108.316 59.492,108.131 59.538,107.146 59.194,107.168 
	59.126,107.895 56.279,106.41 56.259,105.377 "/>
<polygon fill="#515251" points="58.852,105.504 58.852,106.549 56.234,108.316 56.111,108.131 56.075,107.146 56.34,107.168 
	56.391,107.895 58.571,106.41 58.589,105.377 "/>
<g>
	<g>
		<g>
			<path fill="#8795A0" d="M118.707,81.853l-0.814-11.873l-0.002-0.062l-0.213-0.159l0.072,1.896l0.016,0.372l0.021,0.469
				l-0.15-0.27l-0.119-0.225l-0.938-1.714l-0.045-1.037l-0.016-0.382l-0.155-0.121l-0.04,11.54l0.045,0.032l0.316,0.218
				l-0.045-1.218l0.494,0.739l0.117,0.168l0.43,0.642l0.02,0.033l0.09,0.128l0.189,0.281l0.139,0.205l0.404,0.277l0.129,0.089
				l0.07,0.045L118.707,81.853z M118.15,79.598l-0.156-0.238l-0.119-0.184l-0.227-0.348l-0.121-0.188l-0.436-0.658l-0.205-0.315
				l-0.299-0.454l0.479,0.222l0.326,0.151l0.672,0.31l0.026,0.55l0.015,0.209l0.015,0.232l0.016,0.31L118.15,79.598z
				 M116.553,75.102l0.18,0.309l0.166,0.28l0.24,0.404l0.178,0.302l0.242,0.406l0.184,0.313l0.291,0.495l-0.506-0.206l-0.334-0.135
				l-0.594-0.242l-0.006-0.282l-0.012-0.412l-0.008-0.221l-0.012-0.462L116.553,75.102z M116.551,72.852l0.174,0.293l0.146,0.245
				l0.221,0.366l0.146,0.247l0.223,0.372l0.197,0.323l0.213,0.36l-0.348-0.184l-0.299-0.157l-0.617-0.321V74.38l-0.016-0.33
				l-0.008-0.227l-0.021-0.455L116.551,72.852z M117.947,75.748l0.025,0.334l0.016,0.17l0.033,0.489l0.025,0.337l-0.123-0.202
				l-0.188-0.303l-0.178-0.291l-0.18-0.29l-0.318-0.518l-0.172-0.283l-0.293-0.483l0.447,0.267l0.277,0.167l0.606,0.364
				L117.947,75.748z M117.777,73.351l0.023,0.317l0.02,0.198l0.045,0.553l0.025,0.278l-0.1-0.179l-0.191-0.342l-0.162-0.292
				l-0.143-0.252l-0.27-0.483l-0.137-0.247l-0.332-0.597l0.486,0.368l0.197,0.147l0.518,0.391L117.777,73.351z M117.387,72.185
				l0.123,0.234l0.242,0.467l-0.369-0.276l-0.189-0.141l-0.609-0.456l-0.031-1.424L117.387,72.185z M118.109,81.154l-0.188-0.294
				l-0.037-0.059l-0.01-0.013l-0.47-0.742l-0.112-0.177l-0.354-0.555l-0.23-0.124l-0.029-0.015l-0.008-0.24l-0.008-0.074v-0.003
				l0.004,0.001l-0.012-0.296l-0.025-0.577l-0.018-0.423l0.158,0.238l0.213,0.315l0.385,0.575l0.131,0.191l0.271,0.407l0.121,0.18
				l0.362,0.543l-0.567-0.301l-0.187-0.097l-0.565-0.3l0.521,0.357l0.166,0.117l0.623,0.427l0.03,0.398l0.024,0.312l0.052,0.623
				L118.109,81.154z"/>
			<polygon fill="none" points="113.664,78.646 113.633,78.959 113.855,79.297 114.238,78.929 			"/>
			<polygon fill="none" points="115.13,79.365 114.428,79.023 113.961,79.458 114.154,79.753 115.127,79.454 			"/>
			<polygon fill="none" points="115.497,72.175 115.561,71.216 114.604,72.365 114.697,72.536 			"/>
			<polygon fill="none" points="115.125,79.486 114.225,79.854 114.499,80.279 115.113,79.673 			"/>
			<polygon fill="none" points="115.045,81.112 115.092,80.147 114.671,80.542 			"/>
			<polygon fill="none" points="113.715,79.432 113.604,79.263 113.574,79.563 			"/>
			<polygon fill="none" points="113.968,79.809 113.822,79.589 113.398,79.983 			"/>
			<polygon fill="none" points="114.372,80.411 114.049,79.926 113.407,80.189 113.354,80.567 113.527,80.661 113.902,80.869 			"/>
			<polygon fill="none" points="115.137,73.356 115.441,73.011 115.475,72.505 114.831,72.793 			"/>
			<polygon fill="none" points="113.538,81.231 113.309,80.89 113.213,81.549 			"/>
			<polygon fill="none" points="116.59,77.213 116.885,77.667 117.064,77.435 			"/>
			<polygon fill="none" points="115.698,79.279 115.732,77.797 115.648,77.88 115.609,79.307 			"/>
			<polygon fill="none" points="118.102,78.655 117.648,78.829 117.875,79.176 118.115,78.888 			"/>
			<polygon fill="none" points="116.553,75.102 116.568,75.65 116.732,75.411 			"/>
			<polygon fill="none" points="115.744,77.493 115.75,77.3 115.66,77.323 115.652,77.581 			"/>
			<polygon fill="none" points="118.029,77.61 117.74,77.116 117.529,77.406 			"/>
			<polygon fill="none" points="118.064,77.896 117.391,77.586 117.092,77.983 117.527,78.64 118.092,78.446 			"/>
			<polygon fill="none" points="115.8,72.04 115.881,72.002 115.904,71.182 116.18,71.018 116.209,70.432 115.663,71.088 
				115.818,71.207 			"/>
			<polygon fill="none" points="115.198,78.529 115.202,78.296 115.109,78.383 			"/>
			<polygon fill="none" points="115.385,73.827 115.404,73.56 115.302,73.668 			"/>
			<polygon fill="none" points="118.15,79.598 118.133,79.198 117.994,79.358 			"/>
			<polygon fill="none" points="115.27,76.081 115.273,75.963 115.229,76.007 			"/>
			<polygon fill="none" points="114.473,75.211 113.999,75.378 113.947,75.761 114.623,76.128 114.866,75.878 			"/>
			<polygon fill="none" points="115.057,75.685 115.275,75.459 115.279,74.928 114.746,75.117 			"/>
			<polygon fill="none" points="114.697,76.581 114.281,77.019 114.497,77.376 115.227,77.213 115.23,76.907 			"/>
			<polygon fill="none" points="116.604,77.029 117.193,77.271 117.557,76.804 117.316,76.398 116.596,76.745 			"/>
			<polygon fill="none" points="114.174,77.45 114.063,77.253 113.799,77.533 			"/>
			<polygon fill="none" points="115.121,79.071 114.859,78.619 114.615,78.848 			"/>
			<path fill="none" d="M114.076,74.554v-0.003V74.554z"/>
			<polygon fill="none" points="115.139,81.55 114.541,80.663 114.162,81.015 			"/>
			<polygon fill="none" points="114.309,77.677 113.74,77.824 113.682,78.434 114.418,78.759 114.752,78.439 			"/>
			<polygon fill="none" points="114.271,74.874 114.229,74.798 114.102,74.924 			"/>
			<polygon fill="none" points="115.202,76.447 115.055,76.195 114.951,76.307 			"/>
			<polygon fill="none" points="115.003,78.203 115.209,78.003 115.223,77.438 114.63,77.594 			"/>
			<polygon fill="none" points="114.316,72.272 114.295,72.225 114.287,72.305 			"/>
			<polygon fill="none" points="115.088,83.129 115.104,81.757 114.107,81.065 113.906,81.258 			"/>
			<polygon fill="none" points="114.496,72.624 114.457,72.544 114.324,72.701 			"/>
			<polygon fill="none" points="113.872,80.899 113.527,80.661 113.756,81.02 			"/>
			<polygon fill="none" points="114.197,73.729 114.158,74.028 114.302,74.301 114.561,74.004 			"/>
			<polygon fill="none" points="114.807,74.187 114.445,74.565 114.564,74.787 115.283,74.569 115.283,74.546 			"/>
			<polygon fill="none" points="113.906,76.098 113.872,76.347 114.076,76.687 114.375,76.384 			"/>
			<polygon fill="none" points="114.242,73.419 114.748,73.796 114.966,73.545 114.63,72.886 114.298,73.035 			"/>
			<polygon fill="none" points="115.305,74.212 115.123,73.857 114.999,73.985 			"/>
			<polygon fill="none" points="113.863,76.914 113.807,76.826 113.791,76.985 			"/>
			<polygon fill="none" points="117.781,72.5 117.766,72.033 117.633,72.231 			"/>
			<polygon fill="none" points="117.887,80.799 117.926,80.86 118.039,80.716 			"/>
			<polygon fill="none" points="116.563,72.305 116.893,72.899 117.051,72.673 			"/>
			<polygon fill="none" points="117.031,73.148 117.297,73.632 117.777,73.351 117.766,73.211 117.246,72.82 			"/>
			<polygon fill="none" points="118.109,81.154 118.357,81.543 118.309,80.924 			"/>
			<polygon fill="none" points="117.756,72.884 117.512,72.417 117.383,72.608 			"/>
			<polygon fill="none" points="115.756,77.095 115.796,75.404 115.707,75.5 115.663,77.114 			"/>
			<polygon fill="none" points="117.6,74.176 117.82,73.866 117.803,73.668 117.438,73.886 			"/>
			<polygon fill="none" points="118.283,80.611 118.25,80.213 117.627,79.785 117.404,80.045 117.877,80.786 118.039,80.716 			"/>
			<polygon fill="none" points="117.777,79.292 117.506,78.884 116.709,79.189 116.943,79.313 117.51,79.614 			"/>
			<polygon fill="none" points="117.891,74.699 117.865,74.419 117.789,74.52 			"/>
			<polygon fill="none" points="118.26,80.013 117.896,79.472 117.693,79.711 			"/>
			<polygon fill="none" points="116.992,78.118 116.66,78.563 116.67,78.857 116.666,78.855 116.666,78.861 116.674,78.935 
				117.375,78.693 			"/>
			<polygon fill="none" points="116.943,79.313 117.297,79.868 117.461,79.67 			"/>
			<polygon fill="none" points="116.582,72.011 117.193,72.467 117.387,72.185 116.553,70.587 			"/>
			<polygon fill="none" points="116.619,77.563 116.633,77.986 116.779,77.801 			"/>
			<polygon fill="none" points="117.064,75.474 117.379,75.991 117.947,75.748 117.928,75.506 117.316,75.14 			"/>
			<polygon fill="none" points="116.607,74.397 117.221,74.72 117.461,74.376 117.238,74.004 116.604,74.382 			"/>
			<polygon fill="none" points="115.822,74.407 115.855,73.088 115.77,73.179 115.732,74.434 			"/>
			<polygon fill="none" points="116.594,74.052 117.092,73.758 116.869,73.39 116.586,73.825 			"/>
			<polygon fill="none" points="115.869,72.52 115.877,72.323 115.789,72.361 115.783,72.62 			"/>
			<polygon fill="none" points="116.586,76.333 117.139,76.096 116.898,75.691 116.578,76.112 			"/>
			<polygon fill="none" points="115.807,74.911 115.814,74.741 115.727,74.773 115.723,75.001 			"/>
			<polygon fill="none" points="118.047,77.078 118.018,76.741 117.926,76.876 			"/>
			<polygon fill="none" points="116.551,72.852 116.566,73.372 116.725,73.145 			"/>
			<polygon fill="none" points="117.869,75.059 117.654,74.699 117.52,74.877 			"/>
			<polygon fill="none" points="116.248,80.461 116.252,81.114 117.131,80.064 116.637,79.328 116.682,80.544 116.363,80.327 
				116.363,80.416 			"/>
			<polygon fill="none" points="116.596,74.708 116.893,75.191 117.043,74.973 			"/>
			<polygon fill="none" points="117.736,76.573 117.986,76.252 117.971,76.083 117.561,76.283 			"/>
			<polygon fill="none" points="116.092,83.129 117.781,81.035 117.693,80.905 116.148,81.753 			"/>
			<polygon fill="none" points="117.674,80.875 117.246,80.232 116.121,81.55 			"/>
			<polygon fill="#617990" points="117.693,79.711 117.896,79.472 117.777,79.292 117.51,79.614 			"/>
			<polygon fill="#617990" points="117.766,72.033 117.752,71.658 117.512,72.006 117.633,72.231 			"/>
			<polygon fill="#617990" points="116.898,75.691 116.732,75.411 116.568,75.65 116.578,76.112 			"/>
			<polygon fill="#617990" points="118.518,81.959 118.645,81.891 118.516,81.802 			"/>
			<polygon fill="#617990" points="117.461,79.67 117.297,79.868 117.404,80.045 117.627,79.785 			"/>
			<polygon fill="#617990" points="118.092,78.446 117.527,78.64 117.648,78.829 118.102,78.655 			"/>
			<polygon fill="#617990" points="117.561,76.283 117.971,76.083 117.947,75.748 117.379,75.991 			"/>
			<polygon fill="#617990" points="117.064,77.435 116.885,77.667 117.092,77.983 117.391,77.586 			"/>
			<polygon fill="#617990" points="117.375,78.693 116.674,78.935 116.678,79.174 116.709,79.189 117.506,78.884 			"/>
			<polygon fill="#617990" points="117.529,77.406 117.74,77.116 117.557,76.804 117.193,77.271 			"/>
			<polygon fill="#617990" points="117.051,72.673 116.893,72.899 117.031,73.148 117.246,72.82 			"/>
			<polygon fill="#617990" points="117.875,79.176 117.994,79.358 118.133,79.198 118.115,78.888 			"/>
			<polygon fill="#617990" points="119.043,81.668 118.102,69.856 117.895,69.983 118.707,81.853 			"/>
			<polygon fill="#617990" points="116.596,76.745 117.316,76.398 117.139,76.096 116.586,76.333 			"/>
			<polygon fill="#617990" points="117.383,72.608 117.512,72.417 117.387,72.185 117.193,72.467 			"/>
			<polygon fill="#617990" points="117.877,80.786 117.887,80.799 118.039,80.716 			"/>
			<polygon fill="#617990" points="117.926,76.876 118.018,76.741 117.986,76.252 117.736,76.573 			"/>
			<polygon fill="#617990" points="117.438,73.886 117.803,73.668 117.777,73.351 117.297,73.632 			"/>
			<polygon fill="#617990" points="117.789,74.52 117.865,74.419 117.82,73.866 117.6,74.176 			"/>
			<polygon fill="#617990" points="116.604,74.382 117.238,74.004 117.092,73.758 116.594,74.052 			"/>
			<polygon fill="#617990" points="118.283,80.611 118.039,80.716 117.926,80.86 118.109,81.154 118.309,80.924 			"/>
			<polygon fill="#617990" points="116.092,83.129 116.148,81.753 117.693,80.905 117.674,80.875 116.121,81.55 117.246,80.232 
				117.131,80.064 116.252,81.114 116.248,80.461 116.363,80.416 116.363,80.327 116.318,80.295 116.361,68.752 116.516,68.874 
				116.529,69.257 116.547,68.563 116.299,68.673 116.18,70.126 114.464,72.102 114.604,72.365 115.561,71.216 115.566,71.018 
				115.663,71.088 116.209,70.432 116.18,71.018 115.904,71.182 115.881,72.002 115.8,72.04 115.789,72.361 115.877,72.323 
				115.869,72.52 115.783,72.62 115.77,73.179 115.855,73.088 115.822,74.407 115.732,74.434 115.727,74.773 115.814,74.741 
				115.807,74.911 115.723,75.001 115.707,75.5 115.796,75.404 115.756,77.095 115.663,77.114 115.66,77.323 115.75,77.3 
				115.744,77.493 115.652,77.581 115.648,77.88 115.732,77.797 115.698,79.279 115.609,79.307 115.6,79.673 115.693,79.589 
				115.59,83.56 116.463,83.079 117.971,81.319 117.781,81.035 			"/>
			<polygon fill="#617990" points="117.043,74.973 116.893,75.191 117.064,75.474 117.316,75.14 			"/>
			<polygon fill="#617990" points="117.52,74.877 117.654,74.699 117.461,74.376 117.221,74.72 			"/>
			<polygon fill="#617990" points="116.779,77.801 116.633,77.986 116.66,78.563 116.992,78.118 			"/>
			<polygon fill="#617990" points="116.869,73.39 116.725,73.145 116.566,73.372 116.586,73.825 			"/>
			<polygon fill="#617990" points="114.238,78.929 113.855,79.297 113.961,79.458 114.428,79.023 			"/>
			<polygon fill="#617990" points="114.162,81.015 114.541,80.663 114.372,80.411 113.902,80.869 			"/>
			<polygon fill="#617990" points="114.049,79.926 113.968,79.809 113.398,79.983 113.822,79.589 113.715,79.432 113.574,79.563 
				113.604,79.263 113.316,78.837 113.232,80.164 113.23,80.162 113.232,80.164 113.209,80.485 113.354,80.567 113.407,80.189 			
				"/>
			<polygon fill="#617990" points="113.314,78.475 113.633,78.959 113.664,78.646 			"/>
			<polygon fill="#617990" points="114.999,73.985 115.123,73.857 114.966,73.545 114.748,73.796 			"/>
			<polygon fill="#617990" points="113.906,73.168 114.242,73.419 114.298,73.035 114.63,72.886 114.496,72.624 114.324,72.701 
				114.457,72.544 114.316,72.272 114.287,72.305 114.295,72.225 114.031,71.71 			"/>
			<polygon fill="#617990" points="113.906,81.258 114.107,81.065 113.872,80.899 113.756,81.02 			"/>
			<polygon fill="#617990" points="114.499,80.279 114.671,80.542 115.092,80.147 115.113,79.673 			"/>
			<polygon fill="#617990" points="115.127,79.454 114.154,79.753 114.225,79.854 115.125,79.486 			"/>
			<polygon fill="#617990" points="114.63,77.594 115.223,77.438 115.227,77.213 114.497,77.376 			"/>
			<polygon fill="#617990" points="115.109,78.383 115.202,78.296 115.209,78.003 115.003,78.203 			"/>
			<polygon fill="#617990" points="115.302,73.668 115.404,73.56 115.441,73.011 115.137,73.356 			"/>
			<polygon fill="#617990" points="115.229,76.007 115.273,75.963 115.275,75.459 115.057,75.685 			"/>
			<polygon fill="#617990" points="114.473,75.211 114.271,74.874 114.102,74.924 114.229,74.798 114.076,74.554 114.076,74.554 
				114.076,74.551 113.768,74.023 113.664,75.604 113.947,75.761 113.999,75.378 			"/>
			<polygon fill="#617990" points="114.623,76.128 114.951,76.307 115.055,76.195 114.866,75.878 			"/>
			<polygon fill="#617990" points="114.309,77.677 114.174,77.45 113.799,77.533 114.063,77.253 113.863,76.914 113.791,76.985 
				113.807,76.826 113.516,76.317 113.357,78.289 113.682,78.434 113.74,77.824 			"/>
			<polygon fill="#617990" points="114.418,78.759 114.615,78.848 114.859,78.619 114.752,78.439 			"/>
			<polygon fill="#617990" points="112.664,81.925 112.943,81.808 112.697,81.638 			"/>
			<polygon fill="#617990" points="113.611,75.917 113.872,76.347 113.906,76.098 			"/>
			<polygon fill="#617990" points="114.375,76.384 114.076,76.687 114.281,77.019 114.697,76.581 			"/>
			<polygon fill="#617990" points="114.561,74.004 114.302,74.301 114.445,74.565 114.807,74.187 			"/>
			<polygon fill="#617990" points="113.844,73.462 114.158,74.028 114.197,73.729 			"/>
			<polygon fill="#617990" points="113.213,81.549 113.309,80.89 113.141,80.636 113.063,81.759 113.602,81.543 113.689,81.457 
				113.538,81.231 			"/>
			<polygon fill="#617990" points="114.098,71.417 114.32,71.843 114.501,69.499 114.178,69.646 114.146,69.93 114.182,69.958 			
				"/>
			<polygon fill="#617990" points="114.746,75.117 115.279,74.928 115.283,74.569 114.564,74.787 			"/>
			<polygon fill="#617990" points="114.831,72.793 115.475,72.505 115.497,72.175 114.697,72.536 			"/>
			<path fill="#8795A0" d="M115.648,77.88l0.008-0.302l0.004-0.257l0.007-0.209l0.04-1.613l0.016-0.498l0.008-0.23l0.006-0.339
				l0.035-1.254l0.016-0.555l0.008-0.263l0.008-0.319l0.025-0.833l-0.156-0.121l-0.096-0.07l-0.012,0.198l-0.063,0.959l-0.021,0.329
				l-0.035,0.505l-0.034,0.552l-0.021,0.267l-0.086-0.159l-0.166-0.312l-0.303-0.564l-0.138-0.257l-0.095-0.169l-0.141-0.265
				l-0.14-0.26l-0.226-0.429l0.086-1.456l-0.039-0.029l-0.149-0.115l-1.377,11.767l0.082,0.057l0.245,0.17l0.111,0.079l0.012-0.126
				l0.072-1.123l0.17,0.251l0.227,0.341l0.154,0.227l1.078,1.609l0.729,0.506l0.102-3.898l0.01-0.367L115.648,77.88z
				 M115.223,77.438l-0.014,0.564l-0.007,0.293l-0.004,0.232l-0.093-0.146l-0.108-0.182l-0.37-0.611l-0.131-0.216l-0.215-0.355
				l-0.205-0.334l-0.204-0.34l-0.261-0.429l0.291,0.18l0.47,0.285l0.321,0.196l0.535,0.328l-0.002,0.307L115.223,77.438z
				 M115.121,79.071l-0.51-0.223l-0.195-0.089l-0.734-0.326l-0.328-0.145l0.162-1.972l0.291,0.509l0.053,0.087l0.199,0.341
				l0.114,0.197l0.134,0.227l0.441,0.764l0.107,0.179L115.121,79.071z M115.202,76.447l-0.255-0.139l-0.324-0.179l-0.676-0.367
				l-0.283-0.157l0.104-1.579l0.313,0.527v0.002l0.147,0.244l0.043,0.077l0.199,0.339l0.396,0.666l0.189,0.317L115.202,76.447z
				 M115.279,74.928l-0.004,0.531l-0.002,0.506l-0.006,0.117l-0.039-0.072l-0.172-0.323l-0.313-0.571l-0.182-0.331l-0.121-0.221
				l-0.144-0.265l-0.147-0.272l-0.311-0.566l0.354,0.267l0.363,0.275l0.246,0.183l0.479,0.359v0.023L115.279,74.928z
				 M114.295,72.225l0.021,0.047l0.141,0.272l0.04,0.08l0.133,0.262l0.338,0.661l0.155,0.308l0.182,0.357l-0.306-0.229l-0.251-0.188
				l-0.506-0.377l-0.336-0.251l0.125-1.458L114.295,72.225z M113.872,80.899l0.235,0.164l0.994,0.692l-0.016,1.372l-1.186-1.869
				l-0.15-0.24l-0.227-0.355l-0.174-0.094l-0.145-0.082l0.021-0.32l-0.002-0.002h0.002l0.086-1.327l0.283,0.428l0.111,0.167
				l0.104,0.157l0.149,0.221l0.081,0.119l0.323,0.482l0.169,0.253l0.595,0.885l-0.974-0.538l-0.264-0.146l-0.371-0.208
				L113.872,80.899z M115.045,81.112l-0.374-0.57l-0.172-0.263l-0.274-0.425l-0.07-0.104l-0.193-0.293l-0.105-0.16l-0.221-0.338
				l-0.318-0.484l0.348,0.169l0.579,0.283l0.188,0.092l0.7,0.342l-0.003,0.088l-0.002,0.032l-0.012,0.188l-0.025,0.474
				L115.045,81.112z"/>
		</g>
		<polygon fill="#898989" points="118.355,70.048 115.814,71.316 113.837,69.711 116.547,68.563 		"/>
	</g>
	<g>
		<polygon fill="#232323" points="112.473,67.17 113.137,67.03 115.852,68.967 116.174,69.191 118.227,68.335 118.838,68.646 
			117.213,69.637 120.336,71.747 119.725,71.993 116.098,70.098 114.379,70.847 113.52,70.429 115.169,69.58 114.036,68.671 		"/>
		<polygon fill="#4B5E6D" points="112.498,67.058 113.162,66.922 115.885,68.815 116.209,69.034 118.268,68.205 118.877,68.507 
			117.254,69.471 120.391,71.535 119.781,71.771 116.139,69.918 114.372,70.751 113.523,70.351 115.203,69.414 114.068,68.525 		"/>
		
			<rect x="113.217" y="65.762" transform="matrix(0.996 0.0893 -0.0893 0.996 6.4025 -9.8619)" fill="#232323" width="0.295" height="1.653"/>
		
			<rect x="118.293" y="66.954" transform="matrix(0.9963 0.0858 -0.0858 0.9963 6.2519 -9.9174)" fill="#232323" width="0.319" height="1.576"/>
		
			<rect x="113.969" y="68.679" transform="matrix(0.9963 0.0862 -0.0862 0.9963 6.4211 -9.5824)" fill="#232323" width="0.357" height="1.737"/>
		
			<rect x="119.898" y="69.965" transform="matrix(0.9968 0.08 -0.08 0.9968 6.0516 -9.3831)" fill="#232323" width="0.323" height="1.649"/>
	</g>
	<polygon fill="#494949" points="116.529,69.257 116.016,69.27 115.912,64.142 116.43,64.129 	"/>
	<polygon fill="#494949" points="116.795,64.12 115.66,64.149 115.637,63.022 116.77,62.993 	"/>
</g>
<polygon fill="#515251" points="56.899,103.691 56.899,104.26 57.36,104.26 57.466,107.35 57.664,107.35 57.664,104.26 
	57.934,104.26 57.934,103.691 "/>
<polygon fill="#494949" points="85.358,89.744 85.358,90.947 83.952,92.164 84.085,92.235 85.358,91.302 85.312,92.893 
	85.631,92.893 85.631,91.319 86.653,91.958 86.688,91.805 85.631,91.132 85.631,89.62 "/>
<circle fill="#BFBFBF" cx="85.631" cy="88.285" r="1.879"/>
<ellipse fill="#617990" cx="97.583" cy="82.14" rx="4.556" ry="4.356"/>
<ellipse fill="#E5E5E5" cx="98.92" cy="79.9" rx="0.985" ry="0.868"/>
<ellipse fill="#E5E5E5" cx="92.006" cy="85.195" rx="0.777" ry="0.777"/>
<ellipse fill="#617990" cx="90.969" cy="86.64" rx="3.551" ry="3.396"/>
<ellipse fill="#E5E5E5" cx="92.006" cy="85.341" rx="0.985" ry="0.869"/>
<path fill="#B2B2B2" d="M121.822,79.199l-15.901,9.478l0.062,1.437l15.918-9.496L121.822,79.199z M106.518,89.69l-0.363,0.218
	l-0.053-1.204l0.363-0.215L106.518,89.69z M107.047,89.387l-0.363,0.213l-0.051-1.197l0.363-0.225L107.047,89.387z M107.583,89.041
	l-0.365,0.221l-0.048-1.201l0.365-0.221L107.583,89.041z M108.111,88.739l-0.365,0.216l-0.049-1.204l0.365-0.213L108.111,88.739z
	 M108.609,88.439l-0.365,0.218l-0.049-1.204l0.365-0.218L108.609,88.439z M109.145,88.129l-0.367,0.224l-0.051-1.207l0.365-0.218
	L109.145,88.129z M109.66,87.813l-0.365,0.22l-0.051-1.203l0.365-0.225L109.66,87.813z M110.189,87.507l-0.367,0.218l-0.049-1.203
	l0.363-0.219L110.189,87.507z M110.727,87.167l-0.359,0.216l-0.053-1.204l0.36-0.217L110.727,87.167z M111.258,86.857l-0.367,0.223
	l-0.053-1.204l0.368-0.22L111.258,86.857z M111.754,86.557l-0.363,0.221l-0.048-1.201l0.362-0.221L111.754,86.557z M112.285,86.253
	l-0.369,0.218l-0.049-1.204l0.365-0.219L112.285,86.253z M112.814,85.939l-0.367,0.222l-0.051-1.202l0.367-0.22L112.814,85.939z
	 M113.344,85.637l-0.363,0.219l-0.051-1.207l0.365-0.217L113.344,85.637z M113.885,85.292l-0.369,0.221l-0.048-1.206l0.365-0.217
	L113.885,85.292z M114.412,84.989l-0.369,0.217l-0.047-1.201l0.365-0.219L114.412,84.989z M114.908,84.687l-0.367,0.218
	l-0.047-1.202l0.365-0.221L114.908,84.687z M115.439,84.38l-0.367,0.22l-0.051-1.202l0.367-0.219L115.439,84.38z M115.963,84.044
	l-0.367,0.224l-0.049-1.208l0.365-0.218L115.963,84.044z M116.49,83.738l-0.365,0.222l-0.051-1.202l0.359-0.22L116.49,83.738z
	 M117.027,83.395l-0.361,0.221l-0.051-1.204l0.365-0.219L117.027,83.395z M117.559,83.091l-0.365,0.222l-0.051-1.205l0.365-0.219
	L117.559,83.091z M118.059,82.79l-0.365,0.22l-0.051-1.202l0.363-0.219L118.059,82.79z M118.588,82.484l-0.365,0.218l-0.051-1.2
	l0.363-0.22L118.588,82.484z M119.121,82.176l-0.365,0.222l-0.049-1.204l0.363-0.218L119.121,82.176z M119.652,81.871l-0.363,0.219
	l-0.053-1.203l0.367-0.219L119.652,81.871z M120.189,81.526l-0.365,0.217l-0.049-1.199l0.363-0.224L120.189,81.526z M120.721,81.218
	l-0.369,0.22l-0.051-1.2l0.369-0.22L120.721,81.218z M121.219,80.919l-0.367,0.22l-0.051-1.201l0.371-0.221L121.219,80.919z
	 M121.748,80.614l-0.365,0.217l-0.053-1.201l0.369-0.219L121.748,80.614z"/>
<path fill="#898989" d="M107.188,88.212L88.665,98.945v1.756l18.541-10.757L107.188,88.212z M89.293,100.211l-0.427,0.248v-1.468
	l0.427-0.252V100.211z M89.91,99.865l-0.429,0.249v-1.469l0.429-0.248V99.865z M90.539,99.472l-0.427,0.251v-1.467l0.427-0.251
	V99.472z M91.157,99.13l-0.429,0.248V97.91l0.429-0.249V99.13z M91.733,98.791l-0.425,0.247V97.57l0.425-0.25V98.791z
	 M92.349,98.443l-0.428,0.251v-1.469l0.428-0.252V98.443z M92.954,98.084l-0.424,0.249v-1.469l0.424-0.25V98.084z M93.572,97.738
	l-0.43,0.247v-1.467l0.43-0.25V97.738z M94.201,97.347l-0.428,0.251v-1.47l0.428-0.249V97.347z M94.815,97.003l-0.43,0.248v-1.468
	l0.43-0.249V97.003z M95.397,96.663l-0.426,0.247v-1.47l0.426-0.249V96.663z M96.013,96.316l-0.428,0.249v-1.467l0.428-0.252V96.316
	z M96.629,95.966l-0.428,0.247v-1.467l0.428-0.25V95.966z M97.245,95.619l-0.428,0.249V94.4l0.428-0.25V95.619z M97.873,95.229
	l-0.424,0.249v-1.47l0.424-0.247V95.229L97.873,95.229z M98.489,94.883l-0.428,0.25v-1.468l0.428-0.251V94.883z M99.071,94.544
	l-0.428,0.249v-1.467l0.428-0.252V94.544z M99.684,94.198l-0.424,0.249v-1.468l0.424-0.249V94.198z M100.296,93.814l-0.428,0.251
	v-1.47l0.428-0.249V93.814z M100.912,93.472l-0.428,0.246V92.25l0.428-0.249V93.472z M101.539,93.079l-0.426,0.252v-1.47
	l0.426-0.251V93.079z M102.156,92.736l-0.426,0.249v-1.468l0.426-0.25V92.736z M102.738,92.394l-0.428,0.249v-1.469l0.428-0.248
	V92.394z M103.355,92.048l-0.432,0.25v-1.47l0.432-0.249V92.048z M103.977,91.7l-0.426,0.25v-1.472l0.426-0.245V91.7z
	 M104.596,91.354l-0.43,0.249v-1.469l0.43-0.25V91.354z M105.223,90.966l-0.429,0.245v-1.467l0.429-0.25V90.966z M105.838,90.618
	l-0.428,0.249v-1.469l0.428-0.249V90.618z M106.421,90.276l-0.428,0.25v-1.469l0.428-0.249V90.276z M107.035,89.928l-0.43,0.25
	V88.71l0.43-0.249V89.928z"/>
<path fill="none" stroke="#515151" stroke-width="0.2" stroke-miterlimit="10" d="M57.36,104.26c0,0,24.497-11.039,47.764-42.657
	c0,0,5.038,7.036,11.093,1.969"/>
<path fill="#3A3A3A" d="M73.856,118.9l0.69-1.125l0.828,0.871l-0.577,0.254l0.07,3.188c0,0,0.665-0.299,1.056-1.488h-0.459
	l0.78-1.06l0.252,1.011l-0.321,0.022c0,0-0.757,2.087-1.563,2.389c0,0-1.031,0.229-1.607-0.646l-0.389,0.207l0.435-1.264
	l0.757,0.646l-0.321,0.272c0,0,0.321,0.369,0.803,0.232l0.068-3.398l-0.593,0.071L73.856,118.9z"/>
<g>
	<rect x="81.106" y="14.347" fill="#FFFFFF" width="27.984" height="33.516"/>
	<path id="Idle_1_" fill="#ffcc00" d="M107.798,6.854l-28.635,0.5l-13.967,24.21l14.668,23.791l28.564-0.421l14.025-24.329
		L107.798,6.854z M97.396,44.293l-7.572,0.013c0,0-1.443,0.057-1.486-0.844c0,0-0.092-0.813,1.08-1.129c0,0,0.678,0.046,0.722-1.308
		l-0.091-17.037c0,0,0.136-0.768-1.033-0.993c0,0-0.774-0.314-0.678-1.127c0,0,0.316-0.498,0.948-0.721H98.3
		c0,0,0.946,0.088,0.996,0.81c0,0,0.088,0.901-0.904,1.034c0,0-1.033,0.315-0.77,1.894l-0.088,16.275c0,0,0.088,1.216,0.944,1.262
		c0,0,1.042,0.184,0.817,1.397C99.296,43.822,99.022,44.406,97.396,44.293z"/>
</g>
</svg>
