<?xml version="1.0" encoding="utf-8"?>
<!-- Generator: Adobe Illustrator 16.0.0, SVG Export Plug-In . SVG Version: 6.00 Build 0)  -->
<!DOCTYPE svg PUBLIC "-//W3C//DTD SVG 1.1//EN" "http://www.w3.org/Graphics/SVG/1.1/DTD/svg11.dtd">
<svg version="1.1" id="Layer_1" xmlns="http://www.w3.org/2000/svg" xmlns:xlink="http://www.w3.org/1999/xlink" x="0px" y="0px"
	 width="200px" height="200px" viewBox="0 0 200 200" enable-background="new 0 0 200 200" xml:space="preserve">
<g id="Direction">
	<g transform="rotate({{angle}} 50 50)">
		<polygon id="arrow" opacity="0.7" fill="#ff0000" enable-background="new    " points="77.968,170.548 47.352,167.728 
			44.347,137.304 52.048,129.603 52.235,129.791 55.052,160.027 84.729,162.281 85.479,163.036 		">
		
		
		</polygon>
		<polygon id="arrow2" opacity="0.7" fill="#ff0000" enable-background="new    " points="68.763,180.124 38.152,177.31 
			35.334,146.692 42.846,139.184 43.032,139.37 46.041,169.421 75.525,171.863 76.274,172.612 		">
		
	
		</polygon>
		<polygon id="arrow3" opacity="0.7" fill="#ff0000" enable-background="new    " points="59.562,189.706 29.135,186.698 
			26.13,156.272 33.832,148.571 34.019,148.759 36.835,178.997 66.509,181.251 67.263,182.005 		">
		
	
		</polygon>
	</g>
</g>
<g>
	<g>
		<path fill="#A8A8A8" d="M91.278,130.848c0,0-0.1,1.918-0.369,2.672c0,0-1.262,0.742-2.657,0.703c0,0-1.821,0.822-2.582,0.797
			c0,0-4.913,0.602-5.169-1.605c0,0-0.062-1.482,3.509-2.156c0,0,1.722-0.563,2.732-1.127
			C87.424,129.738,90.628,129.959,91.278,130.848z"/>
		<path fill="#1B1B1C" d="M91.335,130.5c0,0,0.034,1.852-0.239,2.605c0,0-1.391,0.816-2.801,0.779c0,0-1.821,0.82-2.571,0.809
			c0,0-4.758,0.58-5.169-1.605c0,0-0.062-1.494,3.502-2.168c0,0,1.726-0.564,2.746-1.119
			C87.479,129.391,90.676,129.611,91.335,130.5z"/>
		<path fill="#444444" d="M81.586,131.758c0,0,2.801-1.596,5.173,2.711C86.763,134.469,84.978,130.174,81.586,131.758z"/>
		<path fill="#444444" d="M88.26,130.703c0,0-1.361,1.156-2.967,1.813C85.293,132.516,87.056,131.996,88.26,130.703z"/>
		<path fill="#444444" d="M87.002,129.945c0,0-2.632,1.291-4.39,1.541C82.613,131.486,84.9,131.246,87.002,129.945z"/>
		<path fill="none" stroke="#E8E8E8" stroke-width="0.1" stroke-miterlimit="10" d="M83.629,131.258c0,0,1.813-0.033,2.757,0.725
			c0,0-0.447-0.801-1.266-1.127c0,0,1.527-0.232,2.395,0.412c0,0,0.055-0.475-0.621-1.258c0,0,1.154-0.031,1.518,0.338v0.529
			c0,0-1.336-0.695-2.399-0.482c0,0,0.576,0.461,0.989,1.338c0,0-0.546-0.779-2.537-0.736c0,0,0.794,0.402,1.205,1.389"/>
	</g>
	<g>
		<g>
			<path fill="#A8A8A8" d="M110.717,123.504c0,0-0.542,2.359-0.754,2.604c0,0-1.059,0.721-0.852,1.656c0,0-0.207,1.268,3.059,0.852
				c0,0,1.918-0.635,2.639-1.936c0,0,0.448-1.813,0.279-3.814C115.084,122.877,112.06,122.645,110.717,123.504z"/>
			<path fill="#1B1B1C" d="M110.844,123.127c0,0-0.627,2.168-0.821,2.406c0,0-1.093,0.994-0.894,1.91c0,0-0.203,1.27,3.058,0.855
				c0,0,1.767-0.598,2.486-1.92c0,0,0.457-1.486,0.284-3.473C114.943,122.906,112.174,122.271,110.844,123.127z"/>
			<path fill="#444444" d="M111.137,123.355c0,0-0.437,2.102-0.631,2.203c0,0,0.635-1.928,0.58-2.305L111.137,123.355z"/>
			<path fill="#444444" d="M112.949,123.428c0,0-0.25,2.316-0.445,2.436c0,0,0.424-2.051,0.33-2.424L112.949,123.428z"/>
			<path fill="#444444" d="M109.946,125.596c0,0,2.693-0.41,4.247,1.377c0,0-1.253-1.813-4.18-1.439"/>
		</g>
		<path fill="none" stroke="#E8E8E8" stroke-width="0.1" stroke-miterlimit="10" d="M113.08,123.482l-2.109,0.486
			c0,0,1.102,0.107,1.979,0.674c0,0-2.249-0.084-2.376,0.271c0,0,1.914,0.262,2.066,0.563c0,0-1.923-0.355-2.144-0.215
			c0,0,1.619-0.432,2.225-0.217c0,0-0.881-0.707-1.965-0.563c0,0,1.512-0.652,2.189-0.453c0,0-1.136-0.496-1.961-0.453"/>
	</g>
	<path fill="#EAB686" d="M89.833,93.664l0.356,4.267l-0.542,0.756l-0.303,0.063l-0.144-0.182l0.07-0.183l0.049-0.402l0.076-0.225
		l-0.112-0.279l-0.373-0.36l-0.058,0.136l-0.121,0.248c0,0-0.042,0.038-0.029,0.299c0.008,0.26-0.021,0.488-0.021,0.488
		s-0.07-0.055,0.008,0.119c0.068,0.182,0.174,0.129,0.221,0.303c0.061,0.152,0.203,0.104,0.194,0.273c0,0.182,0,0.182,0,0.182
		s-0.013,0.195-0.025,0.274c-0.013,0.082-0.013,0.082-0.013,0.082l-0.112,0.092l-0.959-0.903l-0.398-0.521
		c0,0-0.153-0.246-0.231-0.291c-0.078-0.038-0.36-0.455-0.36-0.455s0.013-0.116-0.148-0.347c-0.159-0.246-0.241-0.377-0.241-0.377
		l-0.14-0.426l0.017-0.246c0,0,0-0.339,0.049-0.495c0.034-0.165,0.182-0.517,0.244-0.589c0.051-0.082,1.188-2.378,1.188-2.378
		S89.887,92.628,89.833,93.664z"/>
	<path fill="#EAB686" d="M89.396,73.907c0,0,0.23,6.357,0.826,9.167c0,0-1.194,4.047-2.321,9.705c0,0,0.364,2.2,2.285,1.444
		l2.279-8.1L91.422,74.79C91.426,74.794,90.632,72.566,89.396,73.907z"/>
	<path fill="#DDA97F" d="M91.166,80.151c0,0,0.299,3.117-0.208,3.174l0.29,1.044c0,0,0.65,1.982-0.555,6.154
		c0,0-1.63,4.386-1.734,5.557l0.373,0.417l3.834-4.203c0,0-0.805-7.624-0.864-7.937c-0.065-0.307-0.876-1.986-0.876-1.986
		l0.252-1.768L91.166,80.151z"/>
	<path fill="#4C4C4D" d="M90.806,91.618c0,0-5.031,10.87-5.546,18.919c0,0-1.107,5.238,0.936,10.295c0,0,0.352,5.662,0.083,7.309
		v0.627l0.451,1.025l1.531,0.92h2.389l1.245-0.412v-1.338l-0.477-0.729c0,0,2.884-6.311,1.271-12.523l3.714-10.746l2.414,1.002
		c0,0,2.313,10.252,4.366,11.184c0,0,6.179,3.762,6.289,4.697l0.614,0.352v0.725l1.504,0.635l1.448-0.131l2.071-0.547v-0.725
		c0,0-0.31,0,0-0.516c0.301-0.521-0.208-1.004-0.208-1.004l0.127-0.314v-0.813l-0.763-0.305l-1.406-1.965c0,0-1.101-3.6-2.98-5.748
		c0,0,1.109-14.051-0.538-16.276C109.332,95.216,99.443,87.809,90.806,91.618z"/>
	<path fill="#282828" d="M97.715,96.531c0,0-1.203,5.775-0.863,8.039l-0.06,0.473l0.923,0.281v-0.621c0,0-0.439-2.027,0.763-7.929
		l-0.821-0.273"/>
	<path fill="#AEADAE" d="M90.234,75.103l-0.898-0.673v-1.999l0.178-1.776c0,0,0.15-3.683,2.425-4.299c0,0,12.15,0.928,16.636,9.832
		c0,0,2.059,2.007,1.533,9.01c0,0-2.474,1.542-6.18,0c0,0,6.133,7.829,6.256,12.769c0,0-2.947,4.014-12.621,1.542
		c0,0-6.344-1.704-7.629-5.966c0,0,1.567-3.543,1.978-6.224C91.902,87.315,90.962,76.338,90.234,75.103z"/>
	<path fill="#EAB686" d="M103.928,85.193l1.246,6.537c0,0-3.037,12.613-3.309,16.371c0,0,0.271,1.646,2.643,1.5
		c0,0,5.35-13.183,5.413-15.811l0.194-8.598C110.107,85.193,105.067,85.862,103.928,85.193z"/>
	<path fill="#303030" d="M101.976,69.848c0,0,4.218-6.694,2.38-10.192c0,0-1.748-6.285-9.884-2.78l-2.274,1.647l-1.019,0.872v0.464
		v0.521v0.927l0.413,0.919l0.605,0.599l0.936,1.457C93.125,64.283,97.851,65.523,101.976,69.848z"/>
	<path fill="#DDA97F" d="M101.976,69.848l0.364,1.599c0,0-2.066,3.14-3.867,3.657c0,0-4.222,1.235-3.298-2.681
		c0,0,3.202-4.58,5.565-3.708L101.976,69.848z"/>
	<path fill="#898989" d="M95.263,74.43l-0.911,0.855c0,0-0.974-0.182,1.338-4.046C95.699,71.239,94.929,72.981,95.263,74.43z"/>
	<path fill="#EAB686" d="M92.197,62.436c0,0-0.108,6.592,1.237,9.063l1.741,0.923c0,0,3.599-0.724,5.565-3.708
		c0,0,2.981-1.13,1.948-2.471c0,0-1.131-0.104-1.948,1.188h-0.821l0.093-2.424l-0.923-0.413l-0.314-1.234l-3.803,0.51l-1.029-0.199
		l-1.237-1.241l-0.521-0.618L92.197,62.436z"/>
	<path fill="#898989" d="M102.107,70.428c0,0-0.75,2.831-5.438,4.857l0.411,1.305c0,0,1.601,0.976,5.26-5.148L102.107,70.428z"/>
	<path fill="#898989" d="M94.153,85.568c0,0,3.841,0.076,4.942,0.824C99.096,86.396,95.805,87.302,94.153,85.568z"/>
	<path fill="#898989" d="M103.822,84.374c0,0-0.665-1.821-0.915-1.201L103.822,84.374z"/>
	<path fill="#EAB686" d="M101.865,108.102l-4.658,4.311l-0.348,1.646l0.174,0.514h0.309l0.119-0.305l0.373-0.521l0.178-0.381
		l0.373-0.141l0.678,0.141l-0.111,0.24l-0.169,0.453c0,0,0.017,0.098-0.274,0.369c-0.275,0.279-0.471,0.576-0.471,0.576
		s0.098,0.033-0.136,0.131c-0.237,0.098-0.271-0.105-0.474,0c-0.208,0.105-0.28-0.174-0.458,0.035
		c-0.169,0.203-0.169,0.203-0.169,0.203s-0.195,0.24-0.271,0.352c-0.068,0.105-0.068,0.105-0.068,0.105v0.275l1.673,0.373h0.868
		c0,0,0.368-0.072,0.474,0c0.094,0.08,0.754,0,0.754,0s0.11-0.119,0.483-0.162c0.372-0.047,0.585-0.084,0.585-0.084l0.541-0.271
		l0.254-0.322c0,0,0.348-0.373,0.467-0.609c0.135-0.246,0.381-0.855,0.424-1.033c0.029-0.156,1.498-4.422,1.498-4.422
		S102.898,106.852,101.865,108.102z"/>
	<path fill="#282828" d="M96.402,104.965l-1.131-0.107c0,0,2.004-0.668,4.307,1.426L96.402,104.965z"/>
	<path fill="#141414" d="M94.776,100.91c0,0,2.439,0.9,5.306,2.75"/>
	<path fill="#141414" d="M94.064,102.779c0,0,2.55,0.455,5.691,1.762"/>
	<path fill="#141414" d="M87.416,126.215c0,0,1.573,2.883,3.356,2.951C90.789,129.166,88.173,127.93,87.416,126.215z"/>
	<path fill="#141414" d="M87.416,128.848c0,0,0.819,0.826,2.948,1.098"/>
	<polygon fill="#141414" points="92.625,115.732 91.777,117.961 92.718,116.113 	"/>
	<polygon fill="#141414" points="109.794,111.479 109.743,111.73 109.607,112.355 109.396,113.322 109.955,111.664 	"/>
	<path fill="#141414" d="M114.186,120.078c0,0,0.063,0.541-1.453,1.1C111.225,121.729,114.186,120.078,114.186,120.078z"/>
	<path fill="#141414" d="M114.656,122.008c-0.411,0-2.953,0.891-3.672,0.484"/>
	<path fill="#DDA97F" d="M105.982,91.938c0,0,1.178,0.203,1.385,0c0,0-0.513,0.638-1.127,0.629L105.982,91.938z"/>
</g>
</svg>
