<?xml version="1.0" encoding="utf-8"?>
<!-- Generator: Adobe Illustrator 16.0.0, SVG Export Plug-In . SVG Version: 6.00 Build 0)  -->
<!DOCTYPE svg PUBLIC "-//W3C//DTD SVG 1.1//EN" "http://www.w3.org/Graphics/SVG/1.1/DTD/svg11.dtd">
<svg version="1.1" id="Layer_1" xmlns="http://www.w3.org/2000/svg" xmlns:xlink="http://www.w3.org/1999/xlink" x="0px" y="0px"
	 width="200px" height="200px" viewBox="0 0 200 200" enable-background="new 0 0 200 200" xml:space="preserve">
<g id="Direction">
	<g transform="rotate({{angle}} 50 50)">
		<polygon id="arrow" opacity="0.7" fill="#80C342" enable-background="new    " points="150.418,71.239 170.073,94.882 
			150.686,118.52 139.795,118.52 139.795,118.253 159.184,94.882 139.793,72.304 139.795,71.239 		">
		
	
		</polygon>
		<polygon id="arrow2" opacity="0.7" fill="#80C342" enable-background="new    " points="163.699,70.975 183.354,94.612 
			163.697,118.253 153.076,118.251 153.076,117.986 172.197,94.612 153.076,72.036 153.076,70.975 		">
		
		
		</polygon>
		<polygon id="arrow3" opacity="0.7" fill="#80C342" enable-background="new    " points="176.98,70.707 196.369,94.349 
			176.979,117.986 166.088,117.986 166.088,117.723 185.479,94.349 166.09,71.771 166.09,70.707 		">
		
	
		</polygon>
	</g>
</g>
<g>
	<g>
		<path fill="#A8A8A8" d="M108.963,130.132c1.01,0.563,2.732,1.127,2.732,1.127c3.57,0.675,3.509,2.156,3.509,2.156
			c-0.256,2.207-5.169,1.604-5.169,1.604c-0.762,0.025-2.582-0.797-2.582-0.797c-1.395,0.039-2.657-0.703-2.657-0.703
			c-0.269-0.754-0.368-2.672-0.368-2.672C105.077,129.959,108.281,129.738,108.963,130.132z"/>
		<path fill="#1B1B1C" d="M108.902,129.801c1.02,0.555,2.746,1.119,2.746,1.119c3.563,0.674,3.502,2.168,3.502,2.168
			c-0.411,2.186-5.17,1.605-5.17,1.605c-0.75,0.011-2.57-0.81-2.57-0.81c-1.41,0.037-2.801-0.778-2.801-0.778
			c-0.273-0.754-0.239-2.605-0.239-2.605C105.029,129.611,108.227,129.391,108.902,129.801z"/>
		<path fill="#444444" d="M108.946,134.469c2.372-4.307,5.173-2.711,5.173-2.711C110.727,130.174,108.941,134.469,108.946,134.469z"
			/>
		<path fill="#444444" d="M110.412,132.516c-1.605-0.656-2.967-1.813-2.967-1.813C108.648,131.996,110.412,132.516,110.412,132.516z
			"/>
		<path fill="#444444" d="M113.094,131.486c-1.759-0.25-4.391-1.541-4.391-1.541C110.805,131.246,113.092,131.486,113.094,131.486z"
			/>
		<path fill="none" stroke="#E8E8E8" stroke-width="0.1" stroke-miterlimit="10" d="M110.035,132.387
			c0.411-0.988,1.205-1.39,1.205-1.39c-1.991-0.043-2.537,0.735-2.537,0.735c0.413-0.877,0.988-1.338,0.988-1.338
			c-1.063-0.213-2.398,0.482-2.398,0.482v-0.529c0.364-0.369,1.518-0.338,1.518-0.338c-0.676,0.783-0.621,1.258-0.621,1.258
			c0.869-0.644,2.396-0.412,2.396-0.412c-0.819,0.326-1.267,1.127-1.267,1.127c0.945-0.758,2.758-0.725,2.758-0.725"/>
	</g>
	<g>
		<g>
			<path fill="#A8A8A8" d="M80.617,122.866c-0.169,2.001,0.279,3.813,0.279,3.813c0.721,1.301,2.639,1.937,2.639,1.937
				c3.266,0.416,3.059-0.853,3.059-0.853c0.207-0.935-0.852-1.656-0.852-1.656c-0.212-0.244-0.754-2.604-0.754-2.604
				C83.645,122.645,80.621,122.877,80.617,122.866z"/>
			<path fill="#1B1B1C" d="M80.748,122.904c-0.173,1.988,0.284,3.474,0.284,3.474c0.719,1.322,2.485,1.92,2.485,1.92
				c3.262,0.415,3.059-0.854,3.059-0.854c0.199-0.916-0.895-1.91-0.895-1.91c-0.193-0.238-0.82-2.406-0.82-2.406
				C83.531,122.271,80.762,122.906,80.748,122.904z"/>
			<path fill="#444444" d="M84.619,123.253c-0.055,0.377,0.58,2.306,0.58,2.306c-0.194-0.102-0.631-2.203-0.631-2.203
				L84.619,123.253z"/>
			<path fill="#444444" d="M82.871,123.439c-0.094,0.373,0.33,2.425,0.33,2.425c-0.195-0.12-0.445-2.437-0.445-2.437L82.871,123.439
				z"/>
			<path fill="#444444" d="M85.691,125.534c-2.926-0.374-4.18,1.438-4.18,1.438c1.555-1.787,4.248-1.377,4.248-1.377"/>
		</g>
		<path fill="none" stroke="#E8E8E8" stroke-width="0.1" stroke-miterlimit="10" d="M84.721,123.575
			c-0.824-0.043-1.961,0.452-1.961,0.452c0.678-0.198,2.189,0.453,2.189,0.453c-1.084-0.144-1.965,0.563-1.965,0.563
			c0.605-0.215,2.225,0.218,2.225,0.218c-0.221-0.141-2.145,0.215-2.145,0.215c0.152-0.302,2.066-0.563,2.066-0.563
			c-0.127-0.354-2.376-0.271-2.376-0.271c0.877-0.567,1.979-0.675,1.979-0.675l-2.109-0.485"/>
	</g>
	<path fill="#EAB686" d="M107.73,92.587c0,0,1.137,2.296,1.188,2.378c0.063,0.072,0.21,0.424,0.244,0.589
		c0.049,0.156,0.049,0.495,0.049,0.495l0.018,0.246l-0.141,0.426c0,0-0.082,0.131-0.24,0.377c-0.162,0.231-0.148,0.347-0.148,0.347
		s-0.282,0.417-0.36,0.455c-0.077,0.045-0.231,0.291-0.231,0.291l-0.397,0.521l-0.959,0.903l-0.112-0.092c0,0,0,0-0.013-0.082
		c-0.012-0.079-0.024-0.274-0.024-0.274s0,0,0-0.182c-0.01-0.169,0.133-0.121,0.193-0.273c0.047-0.174,0.153-0.121,0.221-0.303
		c0.078-0.174,0.008-0.119,0.008-0.119s-0.028-0.228-0.021-0.488c0.013-0.261-0.028-0.299-0.028-0.299l-0.121-0.248l-0.059-0.136
		l-0.373,0.36l-0.111,0.279l0.076,0.225l0.049,0.402l0.069,0.183l-0.144,0.182l-0.303-0.063l-0.543-0.756l0.356-4.267
		C105.818,92.628,107.73,92.587,107.73,92.587z"/>
	<path fill="#EAB686" d="M104.283,74.79l-1.043,11.333l2.279,8.1c1.92,0.756,2.285-1.444,2.285-1.444
		c-1.127-5.658-2.322-9.705-2.322-9.705c0.597-2.81,0.826-9.167,0.826-9.167C105.073,72.566,104.279,74.794,104.283,74.79z"/>
	<path fill="#DDA97F" d="M104.027,80.603l0.252,1.768c0,0-0.811,1.679-0.876,1.986c-0.06,0.313-0.864,7.937-0.864,7.937l3.834,4.203
		l0.373-0.417c-0.104-1.171-1.734-5.557-1.734-5.557c-1.205-4.172-0.555-6.154-0.555-6.154l0.29-1.044
		c-0.507-0.057-0.208-3.174-0.208-3.174L104.027,80.603z"/>
	<path fill="#4C4C4D" d="M86.364,95.216c-1.647,2.225-0.538,16.276-0.538,16.276c-1.879,2.148-2.98,5.748-2.98,5.748l-1.406,1.965
		l-0.762,0.305v0.813l0.127,0.314c0,0-0.51,0.483-0.209,1.004c0.311,0.517,0,0.517,0,0.517v0.725l2.071,0.547l1.448,0.132
		l1.504-0.636V122.2l0.613-0.353c0.111-0.935,6.289-4.697,6.289-4.697c2.054-0.932,4.367-11.184,4.367-11.184l2.414-1.002
		l3.713,10.746c-1.612,6.212,1.271,12.523,1.271,12.523l-0.477,0.729v1.338l1.244,0.412h2.389l1.531-0.92l0.451-1.025v-0.627
		c-0.269-1.646,0.084-7.309,0.084-7.309c2.043-5.057,0.936-10.295,0.936-10.295c-0.516-8.049-5.547-18.919-5.547-18.919
		C96.262,87.809,86.373,95.216,86.364,95.216z"/>
	<path fill="#282828" d="M98.048,96.501l-0.821,0.273c1.202,5.902,0.763,7.929,0.763,7.929v0.621l0.923-0.281l-0.06-0.473
		c0.34-2.264-0.863-8.039-0.863-8.039"/>
	<path fill="#AEADAE" d="M103.793,87.319c0.411,2.681,1.979,6.224,1.979,6.224c-1.285,4.262-7.629,5.966-7.629,5.966
		c-9.673,2.472-12.621-1.542-12.621-1.542c0.123-4.94,6.256-12.769,6.256-12.769c-3.706,1.542-6.18,0-6.18,0
		c-0.526-7.003,1.532-9.01,1.532-9.01c4.486-8.904,16.636-9.832,16.636-9.832c2.275,0.616,2.426,4.299,2.426,4.299l0.178,1.776
		v1.999l-0.898,0.673C104.743,76.338,103.803,87.315,103.793,87.319z"/>
	<path fill="#EAB686" d="M85.59,85.192l0.194,8.598c0.063,2.628,5.413,15.812,5.413,15.812c2.371,0.146,2.643-1.5,2.643-1.5
		c-0.271-3.759-3.309-16.372-3.309-16.372l1.246-6.537C90.639,85.862,85.598,85.193,85.59,85.192z"/>
	<path fill="#303030" d="M102.572,64.282l0.936-1.457l0.605-0.599l0.412-0.919V60.38v-0.521v-0.464l-1.018-0.872l-2.275-1.647
		c-8.135-3.505-9.883,2.78-9.883,2.78c-1.838,3.498,2.379,10.192,2.379,10.192C97.854,65.523,102.58,64.283,102.572,64.282z"/>
	<path fill="#DDA97F" d="M94.965,68.715c2.363-0.872,5.565,3.708,5.565,3.708c0.924,3.916-3.298,2.681-3.298,2.681
		c-1.801-0.517-3.867-3.657-3.867-3.657l0.363-1.599L94.965,68.715z"/>
	<path fill="#898989" d="M100.015,71.239c2.312,3.864,1.338,4.046,1.338,4.046l-0.912-0.855
		C100.775,72.981,100.006,71.239,100.015,71.239z"/>
	<path fill="#EAB686" d="M103.52,61.812l-0.521,0.618l-1.237,1.241l-1.029,0.199l-3.802-0.51l-0.314,1.234l-0.923,0.413l0.093,2.424
		h-0.821c-0.816-1.292-1.947-1.188-1.947-1.188c-1.033,1.341,1.947,2.471,1.947,2.471c1.966,2.984,5.565,3.708,5.565,3.708
		l1.741-0.923c1.345-2.471,1.236-9.063,1.236-9.063L103.52,61.812z"/>
	<path fill="#898989" d="M93.365,71.442c3.659,6.124,5.26,5.148,5.26,5.148l0.411-1.305c-4.688-2.026-5.438-4.857-5.438-4.857
		L93.365,71.442z"/>
	<path fill="#898989" d="M96.61,86.392c1.101-0.748,4.943-0.824,4.943-0.824C99.9,87.302,96.609,86.396,96.61,86.392z"/>
	<path fill="#898989" d="M92.798,83.173c-0.25-0.62-0.915,1.201-0.915,1.201L92.798,83.173z"/>
	<path fill="#EAB686" d="M91.223,109.575c0,0,1.469,4.266,1.498,4.422c0.043,0.178,0.289,0.787,0.424,1.032
		c0.119,0.236,0.467,0.609,0.467,0.609l0.254,0.322l0.541,0.271c0,0,0.213,0.037,0.585,0.084c0.373,0.043,0.483,0.162,0.483,0.162
		s0.66,0.08,0.754,0c0.106-0.072,0.474,0,0.474,0h0.868l1.673-0.373v-0.275c0,0,0,0-0.068-0.105
		c-0.076-0.111-0.271-0.352-0.271-0.352s0,0-0.169-0.203c-0.178-0.209-0.25,0.07-0.458-0.035c-0.203-0.105-0.237,0.098-0.474,0
		c-0.234-0.098-0.136-0.131-0.136-0.131s-0.196-0.297-0.471-0.576c-0.291-0.271-0.274-0.369-0.274-0.369l-0.169-0.453l-0.111-0.239
		l0.678-0.142l0.373,0.142l0.178,0.381l0.373,0.521l0.119,0.306h0.309l0.174-0.515l-0.348-1.646l-4.658-4.312
		C92.807,106.852,91.223,109.575,91.223,109.575z"/>
	<path fill="#282828" d="M96.127,106.284c2.303-2.095,4.307-1.427,4.307-1.427l-1.131,0.107L96.127,106.284z"/>
	<path fill="#141414" d="M95.623,103.66c2.867-1.85,5.307-2.75,5.307-2.75"/>
	<path fill="#141414" d="M95.95,104.541c3.141-1.307,5.69-1.762,5.69-1.762"/>
	<path fill="#141414" d="M104.934,129.166c1.783-0.068,3.355-2.951,3.355-2.951C107.532,127.93,104.916,129.166,104.934,129.166z"/>
	<path fill="#141414" d="M105.342,129.945c2.129-0.271,2.947-1.098,2.947-1.098"/>
	<polygon fill="#141414" points="102.987,116.113 103.928,117.961 103.08,115.732 	"/>
	<polygon fill="#141414" points="85.75,111.664 86.309,113.322 86.098,112.355 85.962,111.73 85.911,111.479 	"/>
	<path fill="#141414" d="M82.973,121.178c-1.517-0.559-1.453-1.1-1.453-1.1S84.48,121.729,82.973,121.178z"/>
	<path fill="#141414" d="M84.721,122.492c-0.719,0.406-3.261-0.484-3.672-0.484"/>
	<path fill="#DDA97F" d="M89.465,92.567c-0.613,0.009-1.127-0.629-1.127-0.629c0.207,0.203,1.385,0,1.385,0L89.465,92.567z"/>
</g>
</svg>
