<?xml version="1.0" encoding="utf-8"?>
<!-- Generator: Adobe Illustrator 16.0.0, SVG Export Plug-In . SVG Version: 6.00 Build 0)  -->
<!DOCTYPE svg PUBLIC "-//W3C//DTD SVG 1.1//EN" "http://www.w3.org/Graphics/SVG/1.1/DTD/svg11.dtd">
<svg version="1.1" id="Layer_1" xmlns="http://www.w3.org/2000/svg" xmlns:xlink="http://www.w3.org/1999/xlink" x="0px" y="0px"
	 width="100px" height="100px" viewBox="0 0 100 100" enable-background="new 0 0 100 100" xml:space="preserve">

	 <style type="text/css">
	  .arrow{fill:{{statusColor}};display:{{arrowDisplay}}}
	  .hourglass{fill:{{hourglassColor}};display:{{hourglassDisplay}}}
    .parking{display:{{parkingDisplay}};fill:{{parkingColor}}}
	 </style>
	}

<g transform="translate({{translateX}},0) scale({{scaleX}},1)">
	<g display="none">
		<path id="smoke_2" display="inline" fill="#666766" d="M66.838,48.515c0.199,0.299-0.301,0.599-0.301,0.599c0.5,0.602,0,1,0,1
			c-0.199,0.301-0.898,0-0.898,0c-0.199,0.602-0.801,0.5-0.801,0.5c-0.699,0-0.602-0.6-0.602-0.6c-0.604-0.101-0.5-0.5-0.5-0.5
			c0-0.3,0.602-0.3,0.602-0.3c-0.699-0.301-0.5-0.801-0.5-0.801c0.199-0.6,1-0.199,1-0.199c0.699-0.601,1.199,0.199,1.199,0.199
			C66.338,47.914,66.838,48.515,66.838,48.515z		">
<animateTransform  type="translate" fill="remove" attributeName="transform" dur="1" calcMode="linear" restart="always" values="0,0;2,-2" begin="0s" additive="replace" repeatCount="indefinite" accumulate="none" attributeType="XML">
				</animateTransform>
			
				<animate  fill="remove" to="0" attributeName="opacity" dur="1" calcMode="linear" restart="always" begin="0.5s" additive="replace" repeatCount="indefinite" accumulate="none" from="1">
				</animate>
		</path>
		<path id="smoke_1" display="inline" fill="#999999" d="M65.539,49.414c0.102,0.199-0.199,0.4-0.199,0.4c0.301,0.399,0,0.6,0,0.6
			c-0.102,0.199-0.5,0-0.5,0c-0.102,0.4-0.5,0.301-0.5,0.301c-0.4,0-0.4-0.4-0.4-0.4c-0.396-0.1-0.299-0.301-0.299-0.301
			c0-0.199,0.299-0.199,0.299-0.199c-0.5-0.2-0.299-0.5-0.299-0.5c0.104-0.399,0.604-0.1,0.604-0.1c0.396-0.301,0.694,0.1,0.694,0.1
			C65.238,49.113,65.539,49.414,65.539,49.414z		">
<animateTransform  type="translate" fill="remove" attributeName="transform" dur="0.5" calcMode="linear" restart="always" values="0,0;1,-1" begin="0s" additive="replace" repeatCount="indefinite" accumulate="none" attributeType="XML">
				</animateTransform>
			
				<animate  fill="remove" to="0" attributeName="opacity" dur="1" calcMode="linear" restart="always" begin="0.5s" additive="replace" repeatCount="indefinite" accumulate="none" from="1">
				</animate>
		</path>
	</g>
	
		<animateTransform  type="translate" fill="remove" attributeName="transform" dur="1" calcMode="linear" restart="always" values="0,0;0.1,0.1;0,0" begin="0s" additive="replace" repeatCount="indefinite" accumulate="none" attributeType="XML">
		</animateTransform>
	
		<animateTransform  type="translate" fill="remove" attributeName="transform" dur="1" calcMode="linear" restart="always" values="0,0;0.1,0.1;0,0" begin="0s" additive="replace" repeatCount="indefinite" accumulate="none" attributeType="XML">
		</animateTransform>
	<g>
		<g>
			<path fill="#A8A8A8" d="M50.256,54.62c0,0-0.023,0.442-0.085,0.616c0,0-0.291,0.171-0.613,0.162c0,0-0.42,0.19-0.595,0.184
				c0,0-1.133,0.139-1.192-0.37c0,0-0.014-0.342,0.809-0.497c0,0,0.397-0.13,0.63-0.26C49.367,54.364,50.106,54.415,50.256,54.62z"
				/>
			<path fill="#1B1B1C" d="M50.269,54.54c0,0,0.008,0.427-0.055,0.601c0,0-0.321,0.188-0.646,0.18c0,0-0.42,0.189-0.593,0.186
				c0,0-1.097,0.133-1.192-0.37c0,0-0.014-0.345,0.808-0.5c0,0,0.398-0.13,0.633-0.258C49.38,54.284,50.117,54.335,50.269,54.54z"/>
			<path fill="#444444" d="M48.021,54.83c0,0,0.646-0.368,1.193,0.625C49.215,55.455,48.803,54.465,48.021,54.83z"/>
			<path fill="#444444" d="M49.56,54.587c0,0-0.314,0.267-0.684,0.418C48.876,55.005,49.282,54.885,49.56,54.587z"/>
			<path fill="#444444" d="M49.27,54.412c0,0-0.607,0.298-1.012,0.355C48.258,54.768,48.785,54.712,49.27,54.412z"/>
			<path fill="none" stroke="#E8E8E8" stroke-width="0.1" stroke-miterlimit="10" d="M48.492,54.715c0,0,0.418-0.008,0.636,0.167
				c0,0-0.103-0.185-0.292-0.26c0,0,0.352-0.054,0.552,0.095c0,0,0.013-0.109-0.143-0.29c0,0,0.266-0.007,0.35,0.078v0.122
				c0,0-0.308-0.16-0.553-0.111c0,0,0.133,0.106,0.228,0.308c0,0-0.126-0.179-0.585-0.169c0,0,0.183,0.092,0.278,0.32"/>
		</g>
		<g>
			<g>
				<path fill="#A8A8A8" d="M54.738,52.927c0,0-0.125,0.544-0.174,0.601c0,0-0.244,0.166-0.196,0.381c0,0-0.048,0.292,0.705,0.197
					c0,0,0.442-0.147,0.608-0.447c0,0,0.104-0.418,0.065-0.879C55.745,52.782,55.048,52.729,54.738,52.927z"/>
				<path fill="#1B1B1C" d="M54.768,52.84c0,0-0.145,0.5-0.19,0.555c0,0-0.252,0.229-0.206,0.44c0,0-0.047,0.293,0.705,0.197
					c0,0,0.408-0.138,0.574-0.442c0,0,0.105-0.343,0.065-0.801C55.713,52.789,55.074,52.643,54.768,52.84z"/>
				<path fill="#444444" d="M54.835,52.893c0,0-0.101,0.484-0.146,0.508c0,0,0.147-0.445,0.134-0.532L54.835,52.893z"/>
				<path fill="#444444" d="M55.253,52.909c0,0-0.058,0.534-0.103,0.562c0,0,0.098-0.473,0.076-0.559L55.253,52.909z"/>
				<path fill="#444444" d="M54.561,53.409c0,0,0.621-0.095,0.979,0.317c0,0-0.289-0.418-0.964-0.332"/>
			</g>
			<path fill="none" stroke="#E8E8E8" stroke-width="0.1" stroke-miterlimit="10" d="M55.283,52.922l-0.486,0.112
				c0,0,0.254,0.024,0.456,0.155c0,0-0.519-0.019-0.548,0.063c0,0,0.441,0.061,0.477,0.13c0,0-0.443-0.082-0.494-0.05
				c0,0,0.373-0.1,0.512-0.05c0,0-0.203-0.163-0.453-0.13c0,0,0.348-0.15,0.505-0.104c0,0-0.262-0.115-0.452-0.105"/>
		</g>
		<path fill="#EAB686" d="M49.923,46.046l0.082,0.984l-0.125,0.174l-0.07,0.015l-0.033-0.042l0.016-0.042l0.011-0.093l0.018-0.052
			l-0.026-0.064l-0.086-0.083l-0.013,0.031l-0.028,0.057c0,0-0.01,0.009-0.007,0.069c0.002,0.06-0.005,0.113-0.005,0.113
			s-0.016-0.013,0.002,0.027c0.016,0.042,0.04,0.03,0.051,0.07c0.014,0.035,0.047,0.024,0.045,0.063c0,0.042,0,0.042,0,0.042
			s-0.003,0.045-0.006,0.063c-0.003,0.019-0.003,0.019-0.003,0.019l-0.026,0.021l-0.221-0.208l-0.092-0.12
			c0,0-0.035-0.057-0.053-0.067c-0.018-0.009-0.083-0.105-0.083-0.105s0.003-0.027-0.034-0.08c-0.037-0.057-0.056-0.087-0.056-0.087
			l-0.032-0.098l0.004-0.057c0,0,0-0.078,0.011-0.114c0.008-0.038,0.042-0.119,0.056-0.136c0.012-0.019,0.274-0.548,0.274-0.548
			S49.935,45.807,49.923,46.046z"/>
		<path fill="#EAB686" d="M49.822,41.49c0,0,0.053,1.466,0.19,2.114c0,0-0.275,0.933-0.535,2.238c0,0,0.084,0.507,0.527,0.333
			l0.525-1.868l-0.24-2.613C50.29,41.695,50.107,41.181,49.822,41.49z"/>
		<path fill="#DDA97F" d="M50.23,42.93c0,0,0.069,0.719-0.048,0.732l0.067,0.241c0,0,0.15,0.457-0.128,1.419
			c0,0-0.376,1.011-0.4,1.281l0.086,0.096l0.884-0.969c0,0-0.185-1.758-0.199-1.83c-0.015-0.071-0.202-0.458-0.202-0.458
			l0.058-0.408L50.23,42.93z"/>
		<path fill="#4C4C4D" d="M50.147,45.574c0,0-1.16,2.507-1.279,4.363c0,0-0.255,1.208,0.216,2.374c0,0,0.081,1.305,0.019,1.685
			v0.144l0.104,0.237l0.353,0.212h0.551l0.287-0.095v-0.308l-0.11-0.168c0,0,0.665-1.455,0.293-2.888l0.856-2.478l0.557,0.231
			c0,0,0.533,2.364,1.007,2.579c0,0,1.425,0.867,1.45,1.083l0.142,0.081v0.167l0.347,0.146l0.334-0.03l0.477-0.126v-0.167
			c0,0-0.072,0,0-0.119c0.07-0.12-0.048-0.231-0.048-0.231l0.03-0.072v-0.188l-0.176-0.07l-0.324-0.453c0,0-0.254-0.83-0.688-1.326
			c0,0,0.256-3.24-0.124-3.753C54.419,46.404,52.139,44.696,50.147,45.574z"/>
		<path fill="#282828" d="M51.74,46.707c0,0-0.277,1.332-0.199,1.854l-0.014,0.109l0.213,0.065v-0.143c0,0-0.102-0.468,0.176-1.829
			L51.727,46.7"/>
		<path fill="#AEADAE" d="M50.015,41.766l-0.207-0.155V41.15l0.041-0.41c0,0,0.035-0.849,0.559-0.991c0,0,2.802,0.214,3.836,2.267
			c0,0,0.475,0.463,0.354,2.078c0,0-0.57,0.355-1.425,0c0,0,1.414,1.805,1.442,2.944c0,0-0.68,0.926-2.91,0.356
			c0,0-1.463-0.393-1.759-1.376c0,0,0.361-0.817,0.456-1.435C50.4,44.582,50.183,42.051,50.015,41.766z"/>
		<path fill="#EAB686" d="M53.173,44.093L53.46,45.6c0,0-0.7,2.909-0.763,3.775c0,0,0.063,0.38,0.609,0.346
			c0,0,1.234-3.04,1.248-3.646l0.045-1.982C54.598,44.093,53.436,44.247,53.173,44.093z"/>
		<path fill="#303030" d="M52.723,40.554c0,0,0.973-1.543,0.549-2.35c0,0-0.404-1.449-2.28-0.641l-0.524,0.38l-0.235,0.201v0.107
			v0.12v0.214l0.095,0.212l0.14,0.138l0.215,0.336C50.682,39.271,51.771,39.557,52.723,40.554z"/>
		<path fill="#DDA97F" d="M52.723,40.554l0.084,0.369c0,0-0.477,0.724-0.892,0.843c0,0-0.974,0.285-0.761-0.618
			c0,0,0.738-1.056,1.283-0.855L52.723,40.554z"/>
		<path fill="#898989" d="M51.175,41.611l-0.21,0.197c0,0-0.225-0.042,0.309-0.933C51.275,40.875,51.098,41.277,51.175,41.611z"/>
		<path fill="#EAB686" d="M50.468,38.845c0,0-0.025,1.52,0.285,2.09l0.401,0.213c0,0,0.83-0.167,1.283-0.855
			c0,0,0.688-0.261,0.449-0.57c0,0-0.26-0.024-0.449,0.274h-0.189l0.021-0.559l-0.213-0.095l-0.072-0.285l-0.877,0.118L50.87,39.13
			l-0.285-0.286l-0.12-0.143L50.468,38.845z"/>
		<path fill="#898989" d="M52.753,40.688c0,0-0.173,0.653-1.254,1.12l0.095,0.301c0,0,0.369,0.225,1.213-1.187L52.753,40.688z"/>
		<path fill="#898989" d="M50.919,44.179c0,0,0.886,0.018,1.14,0.19C52.059,44.37,51.3,44.579,50.919,44.179z"/>
		<path fill="#898989" d="M53.148,43.904c0,0-0.153-0.42-0.211-0.277L53.148,43.904z"/>
		<path fill="#EAB686" d="M52.697,49.375l-1.074,0.994l-0.08,0.38l0.04,0.118h0.071l0.027-0.07l0.086-0.12l0.041-0.088l0.086-0.032
			l0.157,0.032l-0.026,0.056l-0.039,0.104c0,0,0.004,0.022-0.063,0.085c-0.063,0.064-0.109,0.133-0.109,0.133
			s0.023,0.008-0.031,0.03s-0.063-0.024-0.109,0c-0.048,0.024-0.064-0.04-0.105,0.008c-0.039,0.047-0.039,0.047-0.039,0.047
			s-0.045,0.056-0.063,0.081c-0.016,0.024-0.016,0.024-0.016,0.024v0.063l0.386,0.086h0.2c0,0,0.085-0.016,0.11,0
			c0.021,0.019,0.174,0,0.174,0s0.025-0.027,0.111-0.037s0.135-0.019,0.135-0.019l0.125-0.063l0.058-0.073
			c0,0,0.08-0.087,0.108-0.142c0.031-0.056,0.088-0.197,0.097-0.238c0.007-0.036,0.346-1.019,0.346-1.019
			S52.936,49.087,52.697,49.375z"/>
		<path fill="#282828" d="M51.438,48.652l-0.261-0.025c0,0,0.462-0.154,0.993,0.329L51.438,48.652z"/>
		<path fill="#141414" d="M51.063,47.717c0,0,0.562,0.208,1.223,0.634"/>
		<path fill="#141414" d="M50.898,48.148c0,0,0.588,0.105,1.313,0.406"/>
		<path fill="#141414" d="M49.365,53.552c0,0,0.363,0.665,0.774,0.681C50.143,54.232,49.54,53.947,49.365,53.552z"/>
		<path fill="#141414" d="M49.365,54.159c0,0,0.189,0.19,0.68,0.253"/>
		<polygon fill="#141414" points="50.566,51.135 50.371,51.648 50.588,51.223 		"/>
		<polygon fill="#141414" points="54.525,50.154 54.514,50.212 54.482,50.356 54.434,50.579 54.563,50.197 		"/>
		<path fill="#141414" d="M55.538,52.137c0,0,0.015,0.125-0.335,0.254C54.855,52.518,55.538,52.137,55.538,52.137z"/>
		<path fill="#141414" d="M55.646,52.582c-0.094,0-0.68,0.205-0.846,0.111"/>
		<path fill="#DDA97F" d="M53.646,45.648c0,0,0.272,0.047,0.32,0c0,0-0.119,0.147-0.26,0.145L53.646,45.648z"/>
	</g>
	<path id="parking" class="parking" d="M53.154,17.552l-9.925,0.146l-4.863,8.393l5.061,8.247l9.925-0.146l4.863-8.393L53.154,17.552z
		 M49.126,30.557c-0.078,0.056-0.208,0.083-0.39,0.083h-0.21H45.77h-0.16c-0.148,0-0.263-0.031-0.344-0.093
		c-0.08-0.062-0.12-0.15-0.12-0.265c0-0.188,0.082-0.313,0.247-0.372c0.136-0.05,0.216-0.081,0.238-0.093
		c0.022-0.011,0.046-0.037,0.071-0.079c0.049-0.073,0.074-0.189,0.074-0.351v-6.885c0-0.16-0.025-0.277-0.074-0.351
		c-0.025-0.041-0.049-0.067-0.071-0.079c-0.022-0.012-0.103-0.042-0.238-0.093c-0.165-0.06-0.247-0.184-0.247-0.371
		c0-0.115,0.04-0.203,0.12-0.266c0.081-0.062,0.195-0.093,0.344-0.093h0.16h2.751v8.082c0,0.179,0.03,0.307,0.092,0.385
		c0.033,0.046,0.064,0.075,0.093,0.086c0.029,0.012,0.124,0.04,0.285,0.086c0.197,0.051,0.296,0.177,0.296,0.379
		C49.286,30.388,49.232,30.483,49.126,30.557z M52.02,25.805c-0.279,0.444-0.672,0.772-1.176,0.983
		c-0.416,0.17-1.016,0.255-1.799,0.255v-0.736c0.178-0.046,0.303-0.094,0.374-0.145c0.072-0.051,0.136-0.128,0.188-0.233
		c0.087-0.18,0.13-0.42,0.13-0.723v-2.201c0-0.215-0.014-0.376-0.043-0.481c-0.029-0.105-0.087-0.201-0.173-0.289
		c-0.12-0.128-0.28-0.208-0.482-0.24v-0.743c0.849,0,1.477,0.09,1.879,0.269c0.466,0.206,0.834,0.522,1.105,0.949
		c0.275,0.437,0.414,0.97,0.414,1.604C52.438,24.777,52.299,25.355,52.02,25.805z"/>
</g>
<path id="Idle" class="hourglass" d="M53.133,17.539l-9.926,0.173l-4.841,8.392l5.084,8.247l9.901-0.146l4.863-8.433L53.133,17.539z M49.528,30.516
	l-2.625,0.005c0,0-0.5,0.019-0.516-0.293c0,0-0.031-0.281,0.375-0.391c0,0,0.234,0.016,0.25-0.453l-0.031-5.906
	c0,0,0.047-0.266-0.359-0.344c0,0-0.268-0.109-0.235-0.391c0,0,0.11-0.172,0.329-0.25h3.125c0,0,0.328,0.031,0.344,0.281
	c0,0,0.031,0.313-0.313,0.359c0,0-0.359,0.109-0.266,0.656l-0.031,5.641c0,0,0.031,0.422,0.328,0.438c0,0,0.361,0.063,0.282,0.484
	C50.186,30.353,50.091,30.555,49.528,30.516z"/>
<g id="Direction">
	<g transform="rotate({{angle}} 50 50)">
		<polygon id="arrow" class="arrow" opacity="0.7" enable-background="new    " points="59.7,31.4 50.8,24 41.9,31.3 41.9,35.4 42,35.4 50.8,28.1 
			59.3,35.4 59.7,35.4 		">
		
			<animate  fill="remove" attributeName="opacity" dur="0.5s" calcMode="linear" restart="always" values="0.5; 0" begin="0s;anim_arrow3.end" additive="replace" accumulate="none" id="anim_arrow1">
			</animate>
		</polygon>
		<polygon id="arrow2" class="arrow" opacity="0.7" enable-background="new    " points="59.8,26.4 50.9,19 42,26.4 42,30.4 42.1,30.4 50.9,23.2 
			59.4,30.4 59.8,30.4 		">
		
			<animate  fill="remove" attributeName="opacity" dur="0.5s" calcMode="linear" restart="always" values="0.5; 0" begin="anim_arrow1.end" additive="replace" accumulate="none" id="anim_arrow2">
			</animate>
		</polygon>
		<polygon id="arrow3" class="arrow" opacity="0.7" enable-background="new    " points="59.9,21.4 51,14.1 42.1,21.4 42.1,25.5 42.2,25.5 
			51,18.2 59.5,25.5 59.9,25.5 		">
		
			<animate  fill="remove" attributeName="opacity" dur="0.5s" calcMode="linear" restart="always" values="0.5; 0" begin="anim_arrow2.end" additive="replace" accumulate="none" id="anim_arrow3">
			</animate>
		</polygon>
	</g>
</g>
</svg>
