<?xml version="1.0" encoding="utf-8"?>
<!-- Generator: Adobe Illustrator 16.0.0, SVG Export Plug-In . SVG Version: 6.00 Build 0)  -->
<!DOCTYPE svg PUBLIC "-//W3C//DTD SVG 1.1//EN" "http://www.w3.org/Graphics/SVG/1.1/DTD/svg11.dtd">
<svg version="1.1" id="Layer_1" xmlns="http://www.w3.org/2000/svg" xmlns:xlink="http://www.w3.org/1999/xlink" x="0px" y="0px"
	 width="100px" height="100px" viewBox="0 0 100 100" enable-background="new 0 0 100 100" xml:space="preserve">

	  <style type="text/css">
	  .arrow{fill:{{statusColor}};display:{{arrowDisplay}}}
	  .hourglass{fill:{{hourglassColor}};display:{{hourglassDisplay}}}
    .parking{display:{{parkingDisplay}};fill:{{parkingColor}}}
	 </style>
	}

<g transform="translate({{translateX}},0) scale({{scaleX}},1)">
	<g>
		<path fill="#C6C6C6" d="M32.021,53.695l3.888-6.69c0,0,0.995-1.283,2.074-0.963l28.183-9.923l2.709,5.764l-6.043,3.313
			l-11.145,5.688c0,0-11.029,6.429-12.995,6.308l-2.048-5.994L32.021,53.695z"/>
		<path fill="#8E8E8E" d="M34,50.466l-3.438,1.912c0,0-0.875,0.399-1.563,1.899l-1.75,3.875v0.75l0.418,0.209
			c0,0,3.207-0.084,5.188,0.688c0,0,2.208,0.771,2.521,2.375l0.646,0.75c0,0,5.187-1.291,10.854-2.582l0.936-0.313l12.062-6.957
			l7.834-4.25c0,0,3.229-2.104,3.584-4.104v-3.833l-3.752-5.479l-2.396-1.333l-0.334-0.48l-2.766-1.298l-0.131-0.181
			c0,0-4.182,1.181-5.305,0.438l-3.467,1.688l-0.521,0.563l-0.479,0.708l0.021,0.25l0.354,0.208l-0.021,0.229l-0.313,0.083
			l-6.396,3.458c0,0-1.317,0.624-1.896,1.021L39.037,43.3c0,0-0.957,0.375-0.916,1.229l-0.729,1.396c0,0-1.354,0.541-1.563,1.25
			L34,50.466z"/>
		<path fill="#B2B2B2" d="M35.642,47.519l0.267-0.516c0,0,0.913-0.933,2.075-1.267l28.182-9.618l2.709,5.764l-6.041,3.313
			l-11.146,5.689c0,0-9.958,5.646-11.437,5.831l-4.021-5.229L35.642,47.519z"/>
		<path fill="#CCCCCC" d="M38.167,44.231l-1.021,2.292c0,0-0.479,3.584,7.083,3.229l1.146-2.748
			C45.375,47.005,39,48.001,38.167,44.231z"/>
		<path fill="#F4F4F4" d="M38.646,43.446l13.542-7.166l-0.021-0.521l12.819-1.917l2.244,1.271l0.207,0.25l-22.042,11.75
			l-0.667,0.167c0,0-4.917,0.396-6.542-2.489C38.188,44.79,37.73,43.863,38.646,43.446z"/>
		<polygon fill="#639DAD" points="34.25,50.466 34,50.466 30.454,52.605 29.75,53.247 29.204,54.075 28.079,56.872 27.469,58.341 
			27.625,58.622 28.594,58.622 37.14,58.027 40.313,57.152 40.391,56.811 		"/>
		<path fill="#F4F4F4" d="M34,50.466l-3.207,2.001c0,0-1.104,0.875-1.543,1.77l-1.604,3.959v0.25c0,0,8.292-0.438,10.5-0.875
			c0,0,3.439-0.698,13.542-6.687l0.25,0.396c0,0-11.75,6.873-13.75,6.832c0,0-1.146,0.334-10.521,1l-0.418-0.209v-0.75l1.936-4.243
			c0,0,0.55-1.054,1.152-1.392L34,50.466z"/>
		<path fill="#F4F4F4" d="M53.146,34.238l6.813-3.313l4.979,2.708c0,0,0.229,0.438-0.313,0.771l-5.561,2.979h-2.273l-3.645-2.188
			C53.146,35.196,52.604,34.864,53.146,34.238z"/>
		<path fill="#CCCCCC" d="M53.07,34.338c0,0-1.217,1.234-0.904,1.421L57,38.529c0,0,1.166,0.354,2.314-0.167l6.084-3.417
			c0,0,0.229-0.071,0.229-0.286l-0.814-1.067l0.021,0.562l-0.084,0.229l-0.166,0.167l-5.639,2.938l-1.818,0.058l-4.1-2.459
			C53.027,35.086,52.904,34.717,53.07,34.338z"/>
		<polygon fill="#639DAD" points="51.688,50.883 63.838,44.644 63.355,45.216 63.125,45.446 63.063,45.966 63.041,46.3 
			52.025,52.129 		"/>
		<polygon fill="#FFFFFF" points="51.834,51.926 52.23,52.341 63.25,46.529 63.25,45.488 69.521,42.154 66.166,36.12 68.875,41.883 
			62.834,45.196 62.834,46.175 		"/>
		<path fill="#CCCCCC" d="M35.909,47.005l-3.887,6.69c0,0-0.25,1.729,1.521,2.707c0,0,3.207,1.832,6.707,0.313l3.709-6.25
			C43.959,50.466,36.909,51.527,35.909,47.005z"/>
		<path fill="#757575" d="M47.672,39.888l3.891-2.016c0,0,1.063-0.141,1.688,0.141l1.643,0.969c0,0,0.392,0.453-0.221,0.906
			l-3.563,1.844c0,0-0.921,0.172-1.718-0.141l-1.719-1.094C47.672,40.498,47.454,40.123,47.672,39.888z"/>
		<path fill="#D8D8D8" d="M47.892,39.884l3.67-1.904c0,0,1.004-0.133,1.594,0.132l1.547,0.915c0,0,0.369,0.429-0.207,0.856
			l-3.361,1.741c0,0-0.867,0.162-1.62-0.133l-1.623-1.033C47.892,40.46,47.686,40.105,47.892,39.884z"/>
		<path fill="#6AA7BF" d="M39.032,43.763l5.672-2.578l3.844,1.906c0,0,0.609,0.465-0.452,1.139l-4.218,2.158
			c0,0-1.08,0.391-2.518-0.142l-2.438-1.458C38.922,44.79,38.344,44.357,39.032,43.763z"/>
		<path fill="#6D6D6D" d="M39.474,43.724l5.157-2.37l3.361,1.581c0,0,0.445,0.385-0.539,1.016l-3.877,2.092
			c0,0-0.91,0.434-2.242-0.064l-2.002-1.333C39.331,44.644,38.836,44.279,39.474,43.724z"/>
		<path fill="#BBE0F2" d="M48.364,40.046l3.242-1.654c0,0,0.886-0.116,1.404,0.115l1.367,0.795c0,0,0.326,0.373-0.184,0.744
			l-2.967,1.514c0,0-0.768,0.141-1.432-0.115l-1.433-0.897C48.364,40.547,48.183,40.238,48.364,40.046z"/>
		<path fill="#D8D8D8" d="M39.969,43.56l3.125-1.672c0,0,0.234,0.234,2-2.984c0,0,0.891-0.469,0.656,0.531
			c0,0-0.281,1.797-0.22,1.844c0.061,0.047,2.043,1.281,2.043,1.281s0.832,0.594,0.144,1l-4.358,2.344c0,0-0.938,0.313-1.78,0
			l-1.984-1.26C39.594,44.644,38.801,44.185,39.969,43.56z"/>
		<g>
			<polygon fill="#424242" points="32.694,59.255 32.702,59.6 33.777,59.503 33.771,59.143 			"/>
			<polygon fill="#424242" points="34.413,59.132 34.417,59.443 36.429,59.253 36.422,58.878 			"/>
			<polygon fill="#424242" points="51.938,54.214 52.354,53.925 52.363,54.458 51.945,54.71 			"/>
			<polygon fill="#424242" points="53.02,53.663 53.438,53.376 53.447,53.904 53.029,54.159 			"/>
			<polygon fill="#424242" points="54.059,53.114 54.475,52.825 54.484,53.355 54.066,53.609 			"/>
			<polygon fill="#424242" points="55.143,52.563 55.561,52.273 55.568,52.807 55.152,53.061 			"/>
			<polygon fill="#424242" points="56.1,51.891 56.518,51.602 56.525,52.133 56.109,52.386 			"/>
			<polygon fill="#424242" points="57.184,51.342 57.6,51.053 57.609,51.584 57.191,51.836 			"/>
			<polygon fill="#424242" points="58.146,50.838 58.564,50.549 58.572,51.078 58.156,51.332 			"/>
			<polygon fill="#424242" points="59.23,50.287 59.648,49.998 59.658,50.529 59.24,50.781 			"/>
			<polygon fill="#424242" points="60.27,49.737 60.686,49.448 60.695,49.979 60.277,50.232 			"/>
			<polygon fill="#424242" points="61.354,49.187 61.77,48.898 61.779,49.429 61.361,49.681 			"/>
			<polygon fill="#424242" points="62.311,48.513 62.727,48.224 62.736,48.755 62.318,49.007 			"/>
			<polygon fill="#424242" points="63.395,47.964 63.811,47.675 63.82,48.206 63.402,48.458 			"/>
			<polygon fill="#424242" points="64.432,47.413 64.848,47.125 64.857,47.656 64.439,47.908 			"/>
			<polygon fill="#424242" points="65.422,46.872 65.84,46.585 65.848,47.115 65.432,47.367 			"/>
		</g>
		<polygon fill="#424242" points="45.959,47.298 47.125,46.657 47.125,47.591 45.959,48.224 		"/>
		<polygon fill="#424242" points="47.409,46.513 48.575,45.873 48.575,46.806 47.409,47.441 		"/>
		<polygon fill="#424242" points="48.834,45.732 50,45.091 50,46.026 48.834,46.66 		"/>
		<polygon fill="#424242" points="50.284,44.948 51.451,44.306 51.451,45.242 50.284,45.876 		"/>
		<polygon fill="#424242" points="51.688,44.253 52.855,43.612 52.855,44.546 51.688,45.179 		"/>
		<polygon fill="#424242" points="53.137,43.468 54.305,42.828 54.305,43.761 53.137,44.396 		"/>
		<polygon fill="#424242" points="54.48,42.779 55.646,42.138 55.646,43.073 54.48,43.707 		"/>
		<polygon fill="#424242" points="55.93,41.995 57.096,41.354 57.096,42.289 55.93,42.923 		"/>
		<polygon fill="#424242" points="57.266,41.233 58.432,40.592 58.432,41.527 57.266,42.161 		"/>
		<polygon fill="#424242" points="58.713,40.449 59.881,39.808 59.881,40.743 58.713,41.377 		"/>
		<polygon fill="#424242" points="60.119,39.665 61.287,39.024 61.287,39.959 60.119,40.592 		"/>
		<polygon fill="#424242" points="61.568,38.881 62.736,38.24 62.736,39.175 61.568,39.808 		"/>
		<polygon fill="#424242" points="63.123,38.086 64.291,37.446 64.291,38.38 63.123,39.014 		"/>
		<polygon fill="#424242" points="64.572,37.302 65.74,36.661 65.74,37.596 64.572,38.23 		"/>
		<polygon fill="#424242" points="45.124,50.727 46.292,50.087 46.292,51.021 45.124,51.654 		"/>
		<polygon fill="#424242" points="46.573,49.943 47.74,49.302 47.74,50.237 46.573,50.871 		"/>
		<polygon fill="#424242" points="48,49.162 49.167,48.521 49.167,49.456 48,50.089 		"/>
		<polygon fill="#424242" points="49.449,48.378 50.615,47.737 50.615,48.671 49.449,49.304 		"/>
		<polygon fill="#424242" points="50.854,47.681 52.02,47.042 52.02,47.976 50.854,48.61 		"/>
		<polygon fill="#424242" points="52.303,46.898 53.469,46.257 53.469,47.192 52.303,47.826 		"/>
		<polygon fill="#424242" points="53.645,46.208 54.813,45.568 54.813,46.503 53.645,47.136 		"/>
		<polygon fill="#424242" points="55.094,45.425 56.262,44.784 56.262,45.718 55.094,46.352 		"/>
		<polygon fill="#424242" points="56.43,44.663 57.598,44.022 57.598,44.957 56.43,45.591 		"/>
		<polygon fill="#424242" points="57.879,43.878 59.045,43.238 59.045,44.173 57.879,44.806 		"/>
		<polygon fill="#424242" points="59.285,43.093 60.451,42.454 60.451,43.388 59.285,44.022 		"/>
		<polygon fill="#424242" points="60.734,42.31 61.9,41.67 61.9,42.604 60.734,43.238 		"/>
		<polygon fill="#424242" points="62.289,41.516 63.455,40.875 63.455,41.81 62.289,42.444 		"/>
		<polygon fill="#424242" points="63.738,40.732 64.904,40.091 64.904,41.026 63.738,41.659 		"/>
		<polygon fill="#424242" points="43.831,53.313 44.999,52.673 44.999,53.605 43.831,54.239 		"/>
		<polygon fill="#424242" points="45.28,52.527 46.447,51.889 46.447,52.823 45.28,53.456 		"/>
		<polygon fill="#424242" points="46.708,51.748 47.874,51.107 47.874,52.043 46.708,52.675 		"/>
		<polygon fill="#424242" points="48.156,50.965 49.323,50.323 49.323,51.258 48.156,51.891 		"/>
		<polygon fill="#424242" points="49.56,50.268 50.727,49.628 50.727,50.563 49.56,51.195 		"/>
		<polygon fill="#424242" points="51.008,49.484 52.176,48.843 52.176,49.778 51.008,50.412 		"/>
		<polygon fill="#424242" points="52.352,48.794 53.52,48.154 53.52,49.089 52.352,49.722 		"/>
		<polygon fill="#424242" points="53.801,48.009 54.967,47.37 54.967,48.304 53.801,48.938 		"/>
		<polygon fill="#424242" points="55.137,47.249 56.305,46.608 56.305,47.542 55.137,48.175 		"/>
		<polygon fill="#424242" points="56.586,46.464 57.752,45.824 57.752,46.757 56.586,47.392 		"/>
		<polygon fill="#424242" points="57.992,45.679 59.158,45.04 59.158,45.974 57.992,46.608 		"/>
		<polygon fill="#424242" points="59.441,44.896 60.607,44.255 60.607,45.19 59.441,45.824 		"/>
		<polygon fill="#424242" points="60.996,44.101 62.162,43.46 62.162,44.396 60.996,45.029 		"/>
		<polygon fill="#424242" points="62.445,43.318 63.611,42.677 63.611,43.611 62.445,44.246 		"/>
		<polygon fill="#424242" points="63.848,42.533 65.016,41.893 65.016,42.826 63.848,43.46 		"/>
		<polygon fill="#424242" points="65.266,41.749 66.432,41.108 66.432,42.041 65.266,42.675 		"/>
		<polygon fill="#424242" points="66.6,41.069 67.766,40.428 67.766,41.361 66.6,41.995 		"/>
		<polygon fill="#424242" points="65.041,39.948 66.209,39.307 66.209,40.24 65.041,40.875 		"/>
		<polygon fill="#424242" points="52.904,36.183 52.904,37.045 54.25,37.838 54.25,37.01 		"/>
		<polygon fill="#424242" points="54.391,37.119 54.391,37.981 55.736,38.774 55.736,37.947 		"/>
		<path fill="#424242" d="M56.188,38.24c0,0,1.392,0.862,3.047,0.123v0.662c0,0-1.219,0.896-3.047-0.01v-0.651"/>
		<polygon fill="#424242" points="59.549,38.23 59.549,38.951 61.9,37.685 61.9,36.909 		"/>
		<polygon fill="#424242" points="62.078,36.826 62.078,37.623 64.047,36.545 64.023,35.717 		"/>
		<path fill="#434343" d="M37.834,45.425l-0.418,0.793c0,0,0.313,1.172,2.563,2.168c0,0,2.458,0.521,4.188,0.457L44.5,48.05
			c0,0-2.578,0.193-4.483-0.53C40.016,47.519,38.355,46.804,37.834,45.425z"/>
		<path fill="#434343" d="M35.435,48.378l-0.44,0.988c0,0,0.33,1.463,2.704,2.708c0,0,2.771,0.813,4.419,0.57l0.648-0.912
			c0,0-2.973,0.043-4.984-0.861C37.782,50.871,35.985,50.099,35.435,48.378z"/>
		<path fill="#434343" d="M34.37,50.087l-0.439,0.989c0,0,0.33,1.464,2.703,2.706c0,0,2.771,0.813,4.419,0.569l0.649-0.912
			c0,0-2.974,0.043-4.984-0.86C36.717,52.579,34.92,51.809,34.37,50.087z"/>
		<path fill="#434343" d="M33.323,51.891l-0.439,0.989c0,0,0.33,1.463,2.703,2.707c0,0,2.771,0.813,4.418,0.57l0.649-0.914
			c0,0-2.973,0.043-4.983-0.859C35.67,54.384,33.874,53.614,33.323,51.891z"/>
	</g>
	<g display="none">
		<path id="smoke_2" display="inline" fill="#666766" d="M66.838,48.515c0.199,0.299-0.301,0.599-0.301,0.599c0.5,0.602,0,1,0,1
			c-0.199,0.301-0.898,0-0.898,0c-0.199,0.602-0.801,0.5-0.801,0.5c-0.699,0-0.602-0.6-0.602-0.6c-0.604-0.101-0.5-0.5-0.5-0.5
			c0-0.3,0.602-0.3,0.602-0.3c-0.699-0.301-0.5-0.801-0.5-0.801c0.199-0.6,1-0.199,1-0.199c0.699-0.601,1.199,0.199,1.199,0.199
			C66.338,47.914,66.838,48.515,66.838,48.515z		">
<animateTransform  type="translate" fill="remove" attributeName="transform" dur="1" calcMode="linear" restart="always" values="0,0;2,-2" begin="0s" additive="replace" repeatCount="indefinite" accumulate="none" attributeType="XML">
				</animateTransform>
			
				<animate  fill="remove" to="0" attributeName="opacity" dur="1" calcMode="linear" restart="always" begin="0.5s" additive="replace" repeatCount="indefinite" accumulate="none" from="1">
				</animate>
		</path>
		<path id="smoke_1" display="inline" fill="#999999" d="M65.539,49.414c0.102,0.199-0.199,0.4-0.199,0.4c0.301,0.399,0,0.6,0,0.6
			c-0.102,0.199-0.5,0-0.5,0c-0.102,0.4-0.5,0.301-0.5,0.301c-0.4,0-0.4-0.4-0.4-0.4c-0.396-0.1-0.299-0.301-0.299-0.301
			c0-0.199,0.299-0.199,0.299-0.199c-0.5-0.2-0.299-0.5-0.299-0.5c0.104-0.399,0.604-0.1,0.604-0.1c0.396-0.301,0.694,0.1,0.694,0.1
			C65.238,49.113,65.539,49.414,65.539,49.414z		">
<animateTransform  type="translate" fill="remove" attributeName="transform" dur="0.5" calcMode="linear" restart="always" values="0,0;1,-1" begin="0s" additive="replace" repeatCount="indefinite" accumulate="none" attributeType="XML">
				</animateTransform>
			
				<animate  fill="remove" to="0" attributeName="opacity" dur="1" calcMode="linear" restart="always" begin="0.5s" additive="replace" repeatCount="indefinite" accumulate="none" from="1">
				</animate>
		</path>
	</g>
	
		<animateTransform  type="translate" fill="remove" attributeName="transform" dur="1" calcMode="linear" restart="always" values="0,0;0.1,0.1;0,0" begin="0s" additive="replace" repeatCount="indefinite" accumulate="none" attributeType="XML">
		</animateTransform>
	
		<animateTransform  type="translate" fill="remove" attributeName="transform" dur="1" calcMode="linear" restart="always" values="0,0;0.1,0.1;0,0" begin="0s" additive="replace" repeatCount="indefinite" accumulate="none" attributeType="XML">
		</animateTransform>
	<path id="parking" class="parking" d="M53.154,17.552l-9.925,0.146l-4.863,8.393l5.061,8.247l9.925-0.146l4.863-8.393L53.154,17.552z
		 M49.126,30.557c-0.078,0.056-0.208,0.083-0.39,0.083h-0.21H45.77h-0.16c-0.148,0-0.263-0.031-0.344-0.093
		c-0.08-0.062-0.12-0.15-0.12-0.265c0-0.188,0.082-0.313,0.247-0.372c0.136-0.05,0.216-0.081,0.238-0.093
		c0.022-0.011,0.046-0.037,0.071-0.079c0.049-0.073,0.074-0.189,0.074-0.351v-6.885c0-0.16-0.025-0.277-0.074-0.351
		c-0.025-0.041-0.049-0.067-0.071-0.079c-0.022-0.012-0.103-0.042-0.238-0.093c-0.165-0.06-0.247-0.184-0.247-0.371
		c0-0.115,0.04-0.203,0.12-0.266c0.081-0.062,0.195-0.093,0.344-0.093h0.16h2.751v8.082c0,0.179,0.03,0.307,0.092,0.385
		c0.033,0.046,0.064,0.075,0.093,0.086c0.029,0.012,0.124,0.04,0.285,0.086c0.197,0.051,0.296,0.177,0.296,0.379
		C49.286,30.388,49.232,30.483,49.126,30.557z M52.02,25.805c-0.279,0.444-0.672,0.772-1.176,0.983
		c-0.416,0.17-1.016,0.255-1.799,0.255v-0.736c0.178-0.046,0.303-0.094,0.374-0.145c0.072-0.051,0.136-0.128,0.188-0.233
		c0.087-0.18,0.13-0.42,0.13-0.723v-2.201c0-0.215-0.014-0.376-0.043-0.481c-0.029-0.105-0.087-0.201-0.173-0.289
		c-0.12-0.128-0.28-0.208-0.482-0.24v-0.743c0.849,0,1.477,0.09,1.879,0.269c0.466,0.206,0.834,0.522,1.105,0.949
		c0.275,0.437,0.414,0.97,0.414,1.604C52.438,24.777,52.299,25.355,52.02,25.805z"/>
</g>
<g id="Direction">
	<g transform="rotate({{angle}} 50 50)">
		<polygon id="arrow" class="arrow" opacity="0.7" enable-background="new    " points="59.7,31.4 50.8,24 41.9,31.3 41.9,35.4 42,35.4 50.8,28.1 
			59.3,35.4 59.7,35.4 		">
		
			<animate  fill="remove" attributeName="opacity" dur="0.5s" calcMode="linear" restart="always" values="0.5; 0" begin="0s;anim_arrow3.end" additive="replace" accumulate="none" id="anim_arrow1">
			</animate>
		</polygon>
		<polygon id="arrow2" class="arrow" opacity="0.7" enable-background="new    " points="59.8,26.4 50.9,19 42,26.4 42,30.4 42.1,30.4 50.9,23.2 
			59.4,30.4 59.8,30.4 		">
		
			<animate  fill="remove" attributeName="opacity" dur="0.5s" calcMode="linear" restart="always" values="0.5; 0" begin="anim_arrow1.end" additive="replace" accumulate="none" id="anim_arrow2">
			</animate>
		</polygon>
		<polygon id="arrow3" class="arrow" opacity="0.7" enable-background="new    " points="59.9,21.4 51,14.1 42.1,21.4 42.1,25.5 42.2,25.5 
			51,18.2 59.5,25.5 59.9,25.5 		">
		
			<animate  fill="remove" attributeName="opacity" dur="0.5s" calcMode="linear" restart="always" values="0.5; 0" begin="anim_arrow2.end" additive="replace" accumulate="none" id="anim_arrow3">
			</animate>
		</polygon>
	</g>
</g>
<path id="Idle" class="hourglass" d="M53.133,17.539l-9.926,0.173l-4.841,8.392l5.084,8.247l9.901-0.146l4.863-8.433L53.133,17.539z M49.528,30.516
	l-2.625,0.005c0,0-0.5,0.019-0.516-0.293c0,0-0.031-0.281,0.375-0.391c0,0,0.234,0.016,0.25-0.453l-0.031-5.906
	c0,0,0.047-0.266-0.359-0.344c0,0-0.268-0.109-0.235-0.391c0,0,0.11-0.172,0.329-0.25h3.125c0,0,0.328,0.031,0.344,0.281
	c0,0,0.031,0.313-0.313,0.359c0,0-0.359,0.109-0.266,0.656l-0.031,5.641c0,0,0.031,0.422,0.328,0.438c0,0,0.361,0.063,0.282,0.484
	C50.186,30.353,50.091,30.555,49.528,30.516z"/>
</svg>
