<?xml version="1.0" encoding="utf-8"?>
<!-- Generator: Adobe Illustrator 16.0.0, SVG Export Plug-In . SVG Version: 6.00 Build 0)  -->
<!DOCTYPE svg PUBLIC "-//W3C//DTD SVG 1.1//EN" "http://www.w3.org/Graphics/SVG/1.1/DTD/svg11.dtd">
<svg version="1.1" id="Layer_1" xmlns="http://www.w3.org/2000/svg" xmlns:xlink="http://www.w3.org/1999/xlink" x="0px" y="0px"
	 width="32.217px" height="22.341px" viewBox="33.945 38.458 32.217 22.341" enable-background="new 33.945 38.458 32.217 22.341"
	 xml:space="preserve">
<g id="Tire_2_1_">
	<path d="M46.045,60.527c0,0-1.642-0.117-2.634-1.314c0,0-0.853-2.227,1.348-3.107c0,0,1.783-0.092,2.825,0.927
		C48.629,58.05,46.045,60.527,46.045,60.527z"/>
	<path fill="#333333" d="M47.916,59.088c-0.381,1.016-1.324,1.639-2.107,1.395c-0.782-0.244-1.109-1.266-0.728-2.279
		c0.381-1.016,1.324-1.639,2.107-1.395C47.97,57.052,48.296,58.073,47.916,59.088z"/>
	<path fill="#999999" d="M47.07,57.318c-0.574-0.18-1.266,0.277-1.545,1.022c-0.279,0.744-0.039,1.494,0.534,1.675
		c0.574,0.178,1.266-0.279,1.545-1.023C47.884,58.246,47.646,57.498,47.07,57.318z M47.263,58.936
		c-0.126,0.338-0.44,0.545-0.7,0.463c-0.26-0.082-0.368-0.42-0.242-0.758c0.126-0.336,0.44-0.545,0.7-0.463
		C47.281,58.259,47.39,58.6,47.263,58.936z"/>
	<path fill="#FFFFFF" d="M46.185,57.65c0,0,0.324,0.168,0.454,0.47l-0.162,0.095c0,0-0.26-0.449-0.447-0.488L46.185,57.65z"/>
	
		<animateTransform  type="translate" fill="remove" additive="replace" attributeName="transform" calcMode="linear" begin="0s" accumulate="none" attributeType="XML" restart="always" values="0,0;0.1,0.1;0,0" repeatCount="indefinite" dur="1">
		</animateTransform>
</g>
<g id="Tire_2_2_">
	<path d="M61.546,51.563c0,0-1.642-0.117-2.634-1.314c0,0-0.854-2.227,1.348-3.108c0,0,1.783-0.092,2.825,0.927
		C64.131,49.085,61.546,51.563,61.546,51.563z"/>
	<path fill="#333333" d="M63.418,50.123c-0.381,1.016-1.324,1.639-2.107,1.395c-0.781-0.244-1.108-1.266-0.728-2.28
		c0.381-1.015,1.324-1.639,2.106-1.395C63.473,48.087,63.798,49.108,63.418,50.123z"/>
	<path fill="#999999" d="M62.572,48.353c-0.574-0.179-1.266,0.278-1.545,1.023c-0.279,0.744-0.039,1.494,0.533,1.674
		c0.574,0.179,1.267-0.278,1.545-1.023C63.387,49.281,63.146,48.533,62.572,48.353z M62.764,49.971
		c-0.125,0.337-0.439,0.544-0.699,0.463c-0.26-0.082-0.369-0.421-0.242-0.758c0.126-0.337,0.439-0.545,0.699-0.463
		C62.783,49.294,62.891,49.634,62.764,49.971z"/>
	<path fill="#FFFFFF" d="M61.686,48.687c0,0,0.324,0.168,0.455,0.469l-0.162,0.095c0,0-0.261-0.45-0.447-0.489L61.686,48.687z"/>
	
		<animateTransform  type="translate" fill="remove" additive="replace" attributeName="transform" calcMode="linear" begin="0s" accumulate="none" attributeType="XML" restart="always" values="0,0;0.1,0.1;0,0" repeatCount="indefinite" dur="1">
		</animateTransform>
</g>
<g id="Car">
	<path fill="#CCCCCC" d="M34.167,56.958c0,0-0.875-2.833,1-4.75l4.792-3.792L41,47.167l-0.458-0.5c0,0-1.333-0.417-0.958-1.333H40
		l1.25,0.792c0,0,0,0.375,0.292,0.375l2.583-2.458c0,0,3.875-2.75,8.958-4.958c0,0,2.375-0.208,3.417,0l1.167-0.542
		c0,0,0.458-0.458,3.458,0.75c0,0,3.792,2,4.042,2.833c0,0,0.625,1.917,0.417,2.625c0,0,0.833,0.25,0.5,2.083l-2.208,1.917
		c0,0-0.25-1.917-1.667-1.5c0,0-2.25,1.5-2.333,4.417l-0.75,0.167l-10.5,5.958h-0.458c0,0,0.083-1.5-1.167-1.125
		c0,0-2.333,0.5-2.583,3.583l-0.458,0.458c0,0-4.417,0.625-7.458-1.417C36.5,59.292,34.188,57.734,34.167,56.958z"/>
	<path d="M50.625,47.903l-2.54,5.376c0,0-6.984-1.271-8.127-4.656l4.402-4.402C44.36,44.221,48.72,47.311,50.625,47.903z"/>
	<path fill="#253336" d="M50.542,47.917l-2.5,5.292c0,0-6.875-1.25-8-4.583l4.333-4.333C44.375,44.292,48.667,47.333,50.542,47.917z
		"/>
	<path fill="#253336" d="M49,52.625l2.583-4.667c0,0,2.917-3,6.125-3.5l3.083-0.167l0.583,0.542v0.221c0,0-5.083,3.904-11.833,7.571
		L49,52.875V52.625z"/>
	<path fill="#253336" d="M52.5,39.75c0,0,0.917-0.875,4-0.667c0,0,4.208,1.25,5.958,4l-0.25,0.25h-3.667
		C58.542,43.333,55.333,39.917,52.5,39.75z"/>
	<path fill="#333333" d="M35.125,54.625c0,0-0.292,1.583,0,2.167c0,0,1.214,1.792,3.232,1.667c0,0,0.976-0.583,1.393-0.958
		C39.75,57.5,35.625,55.5,35.125,54.625z"/>
	<path fill="#333333" d="M34.508,53.432c0,0,0.454,0.313,0.35,1.563l-0.083,1.125c0,0-0.75-0.063-0.75-1.104
		C34.024,55.016,34.137,53.745,34.508,53.432z"/>
	<path fill="#333333" d="M39.292,58.465c0,0,1.042-0.881,1.75-0.84c0,0,1.292,0.25,2.625,0.167c0,0,0.333-0.162,0.167,0.252
		c0,0-0.958,1.331-2.667,0.998C41.167,59.042,39.674,58.816,39.292,58.465z"/>
	<path fill="#FFFFFF" d="M39.292,58.576c0,0,1.042-0.881,1.75-0.84c0,0,1.292,0.25,2.625,0.166c0,0,0.333-0.161,0.167,0.252
		c0,0-0.958,1.332-2.667,0.998C41.167,59.152,39.674,58.93,39.292,58.576z"/>
	<path fill="#FFFFFF" d="M34.428,53.439c0,0,0.454,0.313,0.35,1.563l-0.083,1.125c0,0-0.75-0.063-0.75-1.104
		C33.944,55.021,34.057,53.751,34.428,53.439z"/>
	<polygon fill="#FF9933" points="47.688,54.945 48.344,54.609 48.438,54.777 48.359,54.945 47.797,55.203 47.688,55.203 	"/>
	<path d="M54,46.042c0,0,0.594-0.534,0.945-0.593c0,0,0.773,3.005,0.689,3.568c0,0-0.564,0.442-0.966,0.611
		C54.669,49.627,54.417,46.458,54,46.042z"/>
	<path d="M58.193,44.458c0,0,1.063,0.208,1.104,0.563c0,0,0.02,1.224-0.23,1.703l2.309-1.67v-0.221l-0.6-0.542l0,0L58.193,44.458z"
		/>
	<path fill="#CCCCCC" d="M50.233,52.245l0.673-0.558h0.318l1.557,0.558v0.349l-0.375,0.281H52c0,0-0.563,0.094-0.719,0
		S50.719,52.5,50.719,52.5l-0.313,0.031l-0.173,0.125L50,52.875h-0.344l-0.115-0.25L50.233,52.245z"/>
	<path d="M49.499,51.723l1.388-0.162l0.328-0.023l1.616,0.596v0.408l-0.408,0.275l-0.455,0.007c0,0-0.55,0.094-0.706,0
		c-0.156-0.095-0.541-0.357-0.541-0.357L50.4,52.486l-0.125,0.078l-0.228,0.258L49,52.875v-0.25L49.499,51.723z"/>
	<path fill="#CCCCCC" d="M50.233,52.15l0.673-0.558h0.318l1.557,0.558v0.35l-0.375,0.281H52c0,0-0.563,0.094-0.719,0
		s-0.563-0.375-0.563-0.375l-0.313,0.031l-0.173,0.125L50,52.781h-0.344l-0.115-0.25L50.233,52.15z"/>
	<path fill="#FFFFFF" d="M43.88,59.521c0,0,0.057,0.859-0.422,1.063C43.458,60.583,44.177,60.75,43.88,59.521z"/>
	<path fill="#FFFFFF" d="M51.161,48.125l-1.307,2.458C49.854,50.583,50.76,48.458,51.161,48.125z"/>
	<path fill="#FFFFFF" d="M56.354,44.292c0,0-3.846,1.864-4.229,2.688C52.125,46.979,53.167,45.354,56.354,44.292z"/>
	<path fill="#FFFFFF" d="M52.5,52.302c0,0,0.104,0.323-0.771,0.323C51.729,52.625,52.667,52.917,52.5,52.302z"/>
	<path d="M34.91,52.498c0,0-0.211,0.96,0.085,1.773l0.13,0.354c0,0,0.495,0.854,4.625,2.875c0,0,1.667,0.208,3.708-0.271l4.604-3.5
		l-4.604,3.396c0,0-1.646,0.479-3.583,0.292l-0.25-0.083c0,0-4.175-1.98-4.479-2.938C35.146,54.396,34.862,54.163,34.91,52.498z"/>
	<path fill="#FFFFFF" d="M34.995,57.545c0,0,0.645,0.911,2.833,1.551C37.828,59.096,35.741,58.23,34.995,57.545z"/>
	<path opacity="0.3" fill="#669999" enable-background="new    " d="M50.25,47.958c0,0-1.604-0.625-2.188-0.979
		c0,0-2.271,0.047-3.271,2.648c0,0-0.896,1.352-3.083-0.586c0,0-0.875-0.695-0.417-1.504l-1.083,1.045c0,0,0.917,2.396,4.104,3.458
		c0,0,3.354,1.11,3.646,1.042L50.25,47.958z"/>
	<polygon points="59.005,51.795 48.817,57.424 48.718,57.314 	"/>
	<path d="M54,51.003l0.104,0.535h0.135l0.851-0.56c0,0,0.054-0.499-0.144-0.561L54,51.003z"/>
	<path d="M59.083,47.875l0.125,0.458c0,0,0.875-0.445,1.063-0.795l-0.188-0.392h-0.125C59.958,47.146,59.854,47.5,59.083,47.875z"/>
	<path opacity="0.3" fill="#669999" enable-background="new    " d="M53.833,46.521c0,0,0.396,0.375,0.604,3.021l-3,1.875
		c0,0-0.422-0.146-0.931,0c0,0,1.761-0.75,1.826-1.604C52.333,49.813,51.917,48.167,53.833,46.521z"/>
	<path opacity="0.3" fill="#669999" enable-background="new    " d="M55.096,45.508c0,0,0.821,2.388,0.635,3.242l3.021-2.026
		c0,0-0.583,0.297-1.271-0.099C57.479,46.625,57.316,44.453,55.096,45.508z"/>
	<path d="M65.359,44.891c0,0-1.176,1.518-1.859,1.922c0,0,2.359-1.281,2.344-1.516C65.844,45.297,65.75,44.844,65.359,44.891z"/>
	<path d="M55.438,49.354c0,0,0.293,2.912,0,3.925C55.438,53.279,55.792,51.396,55.438,49.354z"/>
	<path fill="#FFFFFF" d="M61.521,45.219c0,0,0.541,1.239,0,1.927C61.521,47.146,61.938,46.417,61.521,45.219z"/>
	<path fill="#FFFFFF" d="M59.354,43.625c0,0,2.188-0.083,2.563,0C61.917,43.625,60.375,43.438,59.354,43.625z"/>
	<path fill="#FFFFFF" d="M64.583,41.708c0,0,0.458,0.771-0.75,1.104c0,0,0.958,0,1.188-0.646L64.583,41.708z"/>
	<path opacity="0.7" fill="#FFFFFF" enable-background="new    " d="M49.188,47.74c0,0-1.938,4.208-3.25,4.563l1.125,0.393
		C47.063,52.693,50.063,48.979,49.188,47.74z"/>
	<path opacity="0.7" fill="#FFFFFF" enable-background="new    " d="M53.357,46.979c0,0,0.578,2.13,0,2.865l0.881-0.375
		C54.24,49.469,53.996,47.177,53.357,46.979z"/>
	<path opacity="0.7" fill="#FFFFFF" enable-background="new    " d="M55.643,45.85l0.265,2.275c0,0,0.53-2.229,0.25-2.49
		L55.643,45.85z"/>
	
		<animateTransform  type="translate" fill="remove" additive="replace" attributeName="transform" calcMode="linear" begin="0s" accumulate="none" attributeType="XML" restart="always" values="0,0;0.1,0.1;0,0" repeatCount="indefinite" dur="1">
		</animateTransform>
</g>
</svg>
