<?xml version="1.0" encoding="utf-8"?>
<!-- Generator: Adobe Illustrator 16.0.0, SVG Export Plug-In . SVG Version: 6.00 Build 0)  -->
<!DOCTYPE svg PUBLIC "-//W3C//DTD SVG 1.1//EN" "http://www.w3.org/Graphics/SVG/1.1/DTD/svg11.dtd">
<svg version="1.1" id="Layer_1" xmlns="http://www.w3.org/2000/svg" xmlns:xlink="http://www.w3.org/1999/xlink" x="0px" y="0px"
	 width="200px" height="200px" viewBox="0 0 200 200" enable-background="new 0 0 200 200" xml:space="preserve">
<g id="Direction">
	<g transform="rotate({{angle}} 50 50)">
		<polygon id="arrow" opacity="0.7" fill="#80C342" enable-background="new    " points="34.978,75.982 37.796,45.367 
			68.222,42.361 75.922,50.063 75.733,50.25 45.497,53.067 43.243,82.742 42.489,83.494 		">
		
			<animate  fill="remove" accumulate="none" additive="replace" begin="0s;anim_arrow3.end" values="0.5; 0" restart="always" calcMode="linear" dur="0.5s" attributeName="opacity" id="anim_arrow1">
			</animate>
		</polygon>
		<polygon id="arrow2" opacity="0.7" fill="#80C342" enable-background="new    " points="25.4,66.778 28.218,36.166 58.831,33.348 
			66.343,40.859 66.155,41.047 36.106,44.055 33.662,73.54 32.912,74.29 		">
		
			<animate  fill="remove" accumulate="none" additive="replace" begin="anim_arrow1.end" values="0.5; 0" restart="always" calcMode="linear" dur="0.5s" attributeName="opacity" id="anim_arrow2">
			</animate>
		</polygon>
		<polygon id="arrow3" opacity="0.7" fill="#80C342" enable-background="new    " points="15.82,57.576 18.827,27.15 49.252,24.145 
			56.952,31.846 56.764,32.034 26.527,34.851 24.273,64.524 23.521,65.277 		">
		
			<animate  fill="remove" accumulate="none" additive="replace" begin="anim_arrow2.end" values="0.5; 0" restart="always" calcMode="linear" dur="0.5s" attributeName="opacity" id="anim_arrow3">
			</animate>
		</polygon>
	</g>
</g>
<polygon fill="#FFFFFF" points="74.16,90.374 74.16,91.779 75.684,92.543 75.922,91.364 "/>
<g id="Tire_2_1_">
	<path d="M85.392,121.956c0,0-3.566-0.253-5.719-2.857c0,0-1.853-4.827,2.927-6.741c0,0,3.874-0.203,6.133,2.016
		C91.003,116.577,85.392,121.956,85.392,121.956z"/>
	<path fill="#333333" d="M89.456,118.828c-0.827,2.214-2.874,3.561-4.574,3.03c-1.697-0.531-2.407-2.744-1.58-4.952
		c0.831-2.204,2.875-3.556,4.575-3.026C89.575,114.414,90.281,116.625,89.456,118.828z"/>
	<path fill="#999999" d="M87.617,114.987c-1.244-0.387-2.75,0.608-3.353,2.217c-0.611,1.619-0.085,3.248,1.157,3.64
		c1.248,0.387,2.75-0.604,3.356-2.222C89.386,117.002,88.872,115.379,87.617,114.987z M88.042,118.499
		c-0.274,0.734-0.958,1.184-1.523,1.007c-0.566-0.175-0.8-0.915-0.526-1.646c0.272-0.729,0.952-1.178,1.521-1.002
		C88.076,117.025,88.313,117.77,88.042,118.499z"/>
	<path fill="#FFFFFF" d="M85.695,115.711c0,0,0.705,0.363,0.988,1.02l-0.351,0.207c0,0-0.564-0.974-0.972-1.057L85.695,115.711z"/>
	
		<animateTransform  type="translate" fill="remove" attributeType="XML" accumulate="none" repeatCount="indefinite" additive="replace" begin="0s" values="0,0;0.1,0.1;0,0" restart="always" calcMode="linear" dur="1" attributeName="transform">
		</animateTransform>
</g>
<g id="Tire_2_2_">
	<path d="M119.05,102.495c0,0-3.567-0.255-5.72-2.855c0,0-1.852-4.834,2.926-6.747c0,0,3.872-0.197,6.138,2.013
		C124.659,97.116,119.05,102.495,119.05,102.495z"/>
	<path fill="#333333" d="M123.111,99.37c-0.828,2.203-2.873,3.559-4.572,3.028c-1.699-0.535-2.406-2.744-1.582-4.945
		c0.831-2.21,2.875-3.563,4.575-3.031C123.234,94.949,123.938,97.167,123.111,99.37z"/>
	<path fill="#999999" d="M121.279,95.53c-1.248-0.392-2.752,0.602-3.357,2.222c-0.604,1.611-0.084,3.238,1.162,3.629
		s2.748-0.604,3.354-2.217C123.045,97.54,122.524,95.919,121.279,95.53z M121.693,99.042c-0.271,0.729-0.953,1.178-1.52,0.999
		c-0.566-0.172-0.797-0.908-0.525-1.64c0.271-0.727,0.949-1.181,1.52-1.004C121.737,97.567,121.973,98.307,121.693,99.042z"/>
	<path fill="#FFFFFF" d="M119.354,96.25c0,0,0.7,0.365,0.985,1.019l-0.35,0.208c0,0-0.566-0.978-0.97-1.06L119.354,96.25z"/>
	
		<animateTransform  type="translate" fill="remove" attributeType="XML" accumulate="none" repeatCount="indefinite" additive="replace" begin="0s" values="0,0;0.1,0.1;0,0" restart="always" calcMode="linear" dur="1" attributeName="transform">
		</animateTransform>
</g>
<g id="Car">
	<path fill="#CCCCCC" d="M59.605,114.21c0,0-1.9-6.146,2.171-10.312l10.403-8.235l2.259-2.71l-0.995-1.087
		c0,0-2.891-0.902-2.081-2.895h0.904l2.711,1.72c0,0,0,0.815,0.639,0.815l5.605-5.342c0,0,8.413-5.969,19.451-10.761
		c0,0,5.158-0.449,7.42,0l2.535-1.179c0,0,0.994-0.995,7.507,1.628c0,0,8.234,4.345,8.78,6.151c0,0,1.358,4.161,0.906,5.699
		c0,0,1.809,0.543,1.086,4.525l-4.793,4.166c0,0-0.539-4.166-3.619-3.256c0,0-4.882,3.256-5.061,9.583l-1.629,0.364L91.01,116.018
		h-1.009c0,0,0.181-3.255-2.535-2.441c0,0-5.062,1.083-5.607,7.778l-0.995,0.994c0,0-9.591,1.355-16.193-3.076
		C64.67,119.278,59.65,115.895,59.605,114.21z"/>
	<path d="M95.339,94.554l-5.512,11.668c0,0-15.165-2.759-17.647-10.106l9.556-9.56C81.733,86.556,91.201,93.262,95.339,94.554z"/>
	<path fill="#253336" d="M95.162,94.58l-5.435,11.491c0,0-14.926-2.718-17.369-9.952l9.406-9.408
		C81.767,86.71,91.088,93.311,95.162,94.58z"/>
	<path fill="#253336" d="M91.809,104.801l5.609-10.134c0,0,6.337-6.512,13.296-7.599l6.697-0.359l1.265,1.176v0.479
		c0,0-11.039,8.479-25.691,16.439l-1.174,0.544v-0.546H91.809z"/>
	<path fill="#253336" d="M99.408,76.848c0,0,1.992-1.902,8.686-1.448c0,0,9.137,2.715,12.932,8.688l-0.541,0.541h-7.963
		C112.529,84.629,105.559,77.212,99.408,76.848z"/>
	<path fill="#333333" d="M61.685,109.142c0,0-0.639,3.439,0,4.706c0,0,2.637,3.89,7.017,3.618c0,0,2.117-1.267,3.026-2.077
		C71.728,115.384,62.769,111.042,61.685,109.142z"/>
	<path fill="#333333" d="M60.346,106.553c0,0,0.985,0.682,0.758,3.394l-0.178,2.446c0,0-1.629-0.143-1.629-2.402
		C59.297,109.993,59.536,107.234,60.346,106.553z"/>
	<path fill="#333333" d="M70.731,117.479c0,0,2.261-1.918,3.797-1.822c0,0,2.806,0.542,5.701,0.364c0,0,0.721-0.353,0.358,0.54
		c0,0-2.08,2.896-5.789,2.17C74.804,118.731,71.562,118.244,70.731,117.479z"/>
	<path fill="#FFFFFF" d="M70.731,117.721c0,0,2.261-1.918,3.797-1.826c0,0,2.806,0.542,5.701,0.364c0,0,0.721-0.351,0.358,0.546
		c0,0-2.08,2.888-5.789,2.164C74.804,118.973,71.562,118.485,70.731,117.721z"/>
	<path fill="#FFFFFF" d="M60.172,106.569c0,0,0.986,0.677,0.758,3.392l-0.182,2.44c0,0-1.625-0.138-1.625-2.399
		C59.121,110.004,59.367,107.246,60.172,106.569z"/>
	<polygon fill="#FF9933" points="88.96,109.842 90.385,109.108 90.591,109.473 90.416,109.842 89.195,110.396 88.96,110.396 	"/>
	<path d="M102.664,90.512c0,0,1.291-1.16,2.054-1.29c0,0,1.681,6.526,1.497,7.747c0,0-1.23,0.958-2.096,1.326
		C104.119,98.293,103.568,91.413,102.664,90.512z"/>
	<path d="M111.769,87.067c0,0,2.31,0.452,2.402,1.226c0,0,0.041,2.659-0.505,3.7l5.016-3.629v-0.479l-1.303-1.176l0,0
		L111.769,87.067z"/>
	<path fill="#CCCCCC" d="M94.49,103.976l1.459-1.208h0.691l3.385,1.208v0.759l-0.82,0.607h-0.879c0,0-1.227,0.204-1.561,0
		c-0.343-0.203-1.223-0.811-1.223-0.811l-0.675,0.066l-0.377,0.269l-0.506,0.476h-0.744l-0.254-0.541L94.49,103.976z"/>
	<path d="M92.894,102.843l3.009-0.352l0.714-0.052l3.512,1.295v0.889l-0.887,0.595l-0.988,0.014c0,0-1.195,0.202-1.534,0
		c-0.343-0.203-1.176-0.773-1.176-0.773l-0.693,0.042l-0.27,0.17l-0.498,0.562l-2.275,0.115v-0.544L92.894,102.843z"/>
	<path fill="#CCCCCC" d="M94.49,103.771l1.459-1.21h0.691l3.385,1.21v0.761l-0.82,0.607h-0.879c0,0-1.227,0.203-1.561,0
		c-0.345-0.202-1.229-0.81-1.229-0.81l-0.68,0.063l-0.371,0.271l-0.507,0.475h-0.747l-0.248-0.541L94.49,103.771z"/>
	<path fill="#FFFFFF" d="M80.694,119.771c0,0,0.123,1.864-0.92,2.307C79.774,122.079,81.337,122.437,80.694,119.771z"/>
	<path fill="#FFFFFF" d="M96.5,95.031l-2.839,5.337C93.663,100.366,95.631,95.755,96.5,95.031z"/>
	<path fill="#FFFFFF" d="M107.776,86.71c0,0-8.35,4.046-9.186,5.833C98.597,92.543,100.858,89.016,107.776,86.71z"/>
	<path fill="#FFFFFF" d="M99.408,104.099c0,0,0.226,0.702-1.676,0.702C97.732,104.801,99.769,105.434,99.408,104.099z"/>
	<path d="M61.215,104.527c0,0-0.456,2.08,0.186,3.844l0.283,0.771c0,0,1.073,1.853,10.043,6.242c0,0,3.614,0.449,8.047-0.591
		l9.998-7.595l-9.998,7.367c0,0-3.574,1.042-7.778,0.639l-0.545-0.181c0,0-9.064-4.298-9.722-6.375
		C61.729,108.648,61.117,108.139,61.215,104.527z"/>
	<path fill="#FFFFFF" d="M61.401,115.485c0,0,1.401,1.97,6.15,3.362C67.554,118.848,63.023,116.968,61.401,115.485z"/>
	<path opacity="0.3" fill="#669999" enable-background="new    " d="M94.521,94.667c0,0-3.482-1.356-4.751-2.123
		c0,0-4.933,0.102-7.103,5.75c0,0-1.945,2.932-6.696-1.271c0,0-1.901-1.513-0.902-3.266l-2.351,2.268c0,0,1.989,5.203,8.908,7.509
		c0,0,7.281,2.409,7.916,2.258L94.521,94.667z"/>
	<polygon points="113.533,102.998 91.413,115.218 91.199,114.978 	"/>
	<path d="M102.664,101.279l0.226,1.16h0.294l1.846-1.215c0,0,0.115-1.08-0.312-1.217L102.664,101.279z"/>
	<path d="M113.701,94.486l0.271,0.996c0,0,1.899-0.962,2.305-1.723l-0.405-0.853h-0.271
		C115.601,92.905,115.377,93.674,113.701,94.486z"/>
	<path opacity="0.3" fill="#669999" enable-background="new    " d="M102.303,91.549c0,0,0.861,0.814,1.314,6.559l-6.514,4.07
		c0,0-0.917-0.317-2.02,0c0,0,3.823-1.627,3.967-3.482C99.046,98.695,98.142,95.122,102.303,91.549z"/>
	<path opacity="0.3" fill="#669999" enable-background="new    " d="M105.045,89.352c0,0,1.782,5.181,1.377,7.037l6.559-4.396
		c0,0-1.265,0.642-2.76-0.219C110.217,91.774,109.865,87.058,105.045,89.352z"/>
	<path d="M127.326,88.009c0,0-2.549,3.297-4.035,4.177c0,0,5.121-2.783,5.09-3.295C128.381,88.889,128.178,87.906,127.326,88.009z"
		/>
	<path d="M105.787,97.702c0,0,0.639,6.321,0,8.52C105.787,106.222,106.561,102.132,105.787,97.702z"/>
	<path fill="#FFFFFF" d="M118.994,88.721c0,0,1.18,2.692,0,4.184C118.994,92.905,119.9,91.325,118.994,88.721z"/>
	<path fill="#FFFFFF" d="M114.291,85.26c0,0,4.75-0.178,5.561,0C119.852,85.26,116.503,84.854,114.291,85.26z"/>
	<path fill="#FFFFFF" d="M125.641,81.099c0,0,0.994,1.674-1.627,2.395c0,0,2.078,0,2.584-1.403L125.641,81.099z"/>
	<path opacity="0.7" fill="#FFFFFF" enable-background="new    " d="M92.22,94.194c0,0-4.207,9.137-7.058,9.906l2.441,0.851
		C87.604,104.951,94.117,96.886,92.22,94.194z"/>
	<path opacity="0.7" fill="#FFFFFF" enable-background="new    " d="M101.269,92.543c0,0,1.257,4.624,0,6.222l1.918-0.815
		C103.184,97.95,102.654,92.974,101.269,92.543z"/>
	<path opacity="0.7" fill="#FFFFFF" enable-background="new    " d="M106.229,90.093l0.576,4.938c0,0,1.15-4.836,0.539-5.407
		L106.229,90.093z"/>
</g>
</svg>
