<?xml version="1.0" encoding="utf-8"?>
<!-- Generator: Adobe Illustrator 16.0.0, SVG Export Plug-In . SVG Version: 6.00 Build 0)  -->
<!DOCTYPE svg PUBLIC "-//W3C//DTD SVG 1.1//EN" "http://www.w3.org/Graphics/SVG/1.1/DTD/svg11.dtd">
<svg version="1.1" id="Layer_1" xmlns="http://www.w3.org/2000/svg" xmlns:xlink="http://www.w3.org/1999/xlink" x="0px" y="0px"
	 width="200px" height="200px" viewBox="0 0 200 200" enable-background="new 0 0 200 200" xml:space="preserve">
<g id="Direction">
	<g transform="rotate({{angle}} 50 50)">
		<polygon id="arrow" opacity="0.7" fill="#ff0000" enable-background="new    " points="160.463,123.165 157.645,153.779 
			127.219,156.786 119.52,149.085 119.707,148.896 149.943,146.08 152.197,116.404 152.951,115.652 		">
		
			<animate  fill="remove" accumulate="none" additive="replace" begin="0s;anim_arrow3.end" values="0.5; 0" restart="always" calcMode="linear" dur="0.5s" attributeName="opacity" id="anim_arrow1">
			</animate>
		</polygon>
		<polygon id="arrow2" opacity="0.7" fill="#ff0000" enable-background="new    " points="170.04,132.369 167.223,162.98 
			136.609,165.8 129.098,158.288 129.285,158.102 159.334,155.093 161.777,125.607 162.527,124.857 		">
		
			<animate  fill="remove" accumulate="none" additive="replace" begin="anim_arrow1.end" values="0.5; 0" restart="always" calcMode="linear" dur="0.5s" attributeName="opacity" id="anim_arrow2">
			</animate>
		</polygon>
		<polygon id="arrow3" opacity="0.7" fill="#ff0000" enable-background="new    " points="179.62,141.57 176.613,171.997 
			146.188,175.003 138.488,167.302 138.677,167.113 168.913,164.297 171.167,134.623 171.92,133.87 		">
		
			<animate  fill="remove" accumulate="none" additive="replace" begin="anim_arrow2.end" values="0.5; 0" restart="always" calcMode="linear" dur="0.5s" attributeName="opacity" id="anim_arrow3">
			</animate>
		</polygon>
	</g>
</g>
<polygon fill="#FFFFFF" points="112.278,91.364 112.516,92.543 114.04,91.779 114.04,90.374 "/>
<g id="Tire_2_1_">
	<path d="M99.467,114.374c2.259-2.22,6.132-2.017,6.132-2.017c4.781,1.914,2.928,6.742,2.928,6.742
		c-2.153,2.604-5.719,2.856-5.719,2.856S97.197,116.577,99.467,114.374z"/>
	<path fill="#333333" d="M100.323,113.88c1.7-0.53,3.744,0.822,4.575,3.026c0.826,2.208,0.117,4.421-1.58,4.951
		c-1.7,0.531-3.747-0.815-4.574-3.029C97.919,116.625,98.625,114.414,100.323,113.88z"/>
	<path fill="#999999" d="M99.423,118.622c0.606,1.618,2.108,2.608,3.356,2.222c1.242-0.392,1.768-2.021,1.156-3.64
		c-0.603-1.608-2.108-2.604-3.353-2.218C99.328,115.379,98.814,117.002,99.423,118.622z M100.686,116.857
		c0.57-0.176,1.25,0.273,1.521,1.002c0.274,0.731,0.04,1.472-0.525,1.646c-0.565,0.178-1.25-0.273-1.523-1.007
		C99.887,117.77,100.124,117.025,100.686,116.857z"/>
	<path fill="#FFFFFF" d="M102.84,115.881c-0.408,0.083-0.972,1.057-0.972,1.057l-0.351-0.207c0.283-0.656,0.988-1.02,0.988-1.02
		L102.84,115.881z"/>
	
		<animateTransform  type="translate" fill="remove" attributeType="XML" accumulate="none" repeatCount="indefinite" additive="replace" begin="0s" values="0,0;0.1,0.1;0,0" restart="always" calcMode="linear" dur="1" attributeName="transform">
		</animateTransform>
</g>
<g id="Tire_2_2_">
	<path d="M65.806,94.906c2.267-2.21,6.139-2.013,6.139-2.013c4.777,1.913,2.926,6.747,2.926,6.747c-2.152,2.6-5.72,2.855-5.72,2.855
		S63.541,97.116,65.806,94.906z"/>
	<path fill="#333333" d="M66.668,94.422c1.7-0.532,3.744,0.821,4.575,3.031c0.824,2.201,0.117,4.41-1.582,4.945
		c-1.699,0.531-3.744-0.825-4.572-3.028C64.263,97.167,64.966,94.949,66.668,94.422z"/>
	<path fill="#999999" d="M65.763,99.164c0.605,1.613,2.107,2.607,3.354,2.217s1.766-2.018,1.162-3.629
		c-0.605-1.62-2.109-2.614-3.357-2.222C65.677,95.919,65.155,97.54,65.763,99.164z M67.032,97.397
		c0.57-0.177,1.249,0.277,1.52,1.004c0.272,0.732,0.041,1.468-0.524,1.64c-0.567,0.179-1.249-0.27-1.521-0.999
		C66.228,98.307,66.464,97.567,67.032,97.397z"/>
	<path fill="#FFFFFF" d="M69.181,96.417c-0.403,0.082-0.969,1.06-0.969,1.06l-0.351-0.208c0.284-0.654,0.985-1.019,0.985-1.019
		L69.181,96.417z"/>
	
		<animateTransform  type="translate" fill="remove" attributeType="XML" accumulate="none" repeatCount="indefinite" additive="replace" begin="0s" values="0,0;0.1,0.1;0,0" restart="always" calcMode="linear" dur="1" attributeName="transform">
		</animateTransform>
</g>
<g id="Car">
	<path fill="#CCCCCC" d="M123.529,119.273c-6.602,4.431-16.193,3.076-16.193,3.076l-0.994-0.994
		c-0.545-6.695-5.607-7.778-5.607-7.778c-2.716-0.813-2.535,2.44-2.535,2.44H97.19l-22.795-12.934l-1.629-0.363
		c-0.178-6.328-5.061-9.583-5.061-9.583c-3.08-0.91-3.619,3.256-3.619,3.256l-4.793-4.166c-0.723-3.982,1.086-4.525,1.086-4.525
		c-0.451-1.538,0.906-5.699,0.906-5.699c0.546-1.806,8.78-6.151,8.78-6.151c6.513-2.623,7.507-1.628,7.507-1.628l2.535,1.179
		c2.262-0.449,7.42,0,7.42,0c11.038,4.792,19.45,10.761,19.45,10.761l5.605,5.342c0.639,0,0.639-0.815,0.639-0.815l2.711-1.72h0.904
		c0.811,1.993-2.08,2.895-2.08,2.895l-0.996,1.087l2.26,2.71l10.402,8.235c4.071,4.166,2.172,10.312,2.172,10.312
		C128.551,115.895,123.53,119.277,123.529,119.273z"/>
	<path d="M106.465,86.556l9.555,9.56c-2.481,7.347-17.646,10.106-17.646,10.106l-5.512-11.668
		C96.999,93.262,106.467,86.556,106.465,86.556z"/>
	<path fill="#253336" d="M106.436,86.711l9.406,9.408c-2.442,7.234-17.369,9.951-17.369,9.951l-5.435-11.49
		C97.112,93.311,106.434,86.71,106.436,86.711z"/>
	<path fill="#253336" d="M96.389,104.801v0.547l-1.174-0.545c-14.652-7.96-25.691-16.438-25.691-16.438v-0.479l1.265-1.176
		l6.697,0.359c6.959,1.087,13.296,7.599,13.296,7.599l5.609,10.134H96.389z"/>
	<path fill="#253336" d="M75.679,84.629h-7.963l-0.541-0.541C70.97,78.115,80.106,75.4,80.106,75.4
		c6.693-0.454,8.686,1.448,8.686,1.448C82.642,77.212,75.671,84.629,75.679,84.629z"/>
	<path fill="#333333" d="M116.473,115.389c0.908,0.811,3.025,2.077,3.025,2.077c4.381,0.272,7.018-3.618,7.018-3.618
		c0.639-1.267,0-4.705,0-4.705C125.432,111.042,116.473,115.384,116.473,115.389z"/>
	<path fill="#333333" d="M128.903,109.991c0,2.259-1.629,2.401-1.629,2.401l-0.179-2.445c-0.227-2.713,0.758-3.395,0.758-3.395
		C128.664,107.234,128.903,109.993,128.903,109.991z"/>
	<path fill="#333333" d="M113.402,118.73c-3.709,0.727-5.789-2.17-5.789-2.17c-0.363-0.893,0.357-0.539,0.357-0.539
		c2.896,0.178,5.701-0.364,5.701-0.364c1.536-0.097,3.797,1.821,3.797,1.821C116.639,118.244,113.396,118.73,113.402,118.73z"/>
	<path fill="#FFFFFF" d="M113.402,118.969c-3.709,0.725-5.789-2.164-5.789-2.164c-0.363-0.896,0.357-0.546,0.357-0.546
		c2.896,0.179,5.701-0.364,5.701-0.364c1.536-0.092,3.797,1.826,3.797,1.826C116.639,118.484,113.396,118.973,113.402,118.969z"/>
	<path fill="#FFFFFF" d="M129.077,110.002c0,2.262-1.625,2.398-1.625,2.398l-0.183-2.439c-0.228-2.715,0.759-3.393,0.759-3.393
		C128.833,107.246,129.079,110.004,129.077,110.002z"/>
	<polygon fill="#FF9933" points="99.24,110.396 99.005,110.396 97.784,109.842 97.609,109.473 97.815,109.107 99.24,109.842 	"/>
	<path d="M84.081,98.295c-0.865-0.368-2.096-1.326-2.096-1.326c-0.184-1.221,1.497-7.747,1.497-7.747
		c0.763,0.13,2.054,1.29,2.054,1.29C84.632,91.413,84.081,98.293,84.081,98.295z"/>
	<path d="M70.821,86.709L70.821,86.709l-1.303,1.176v0.479l5.016,3.629c-0.546-1.041-0.505-3.7-0.505-3.7
		c0.092-0.774,2.401-1.226,2.401-1.226L70.821,86.709z"/>
	<path fill="#CCCCCC" d="M95.214,104.801l-0.254,0.541h-0.744l-0.506-0.476l-0.377-0.269l-0.675-0.066c0,0-0.88,0.607-1.223,0.811
		c-0.334,0.204-1.561,0-1.561,0h-0.879l-0.82-0.607v-0.758l3.385-1.209h0.691l1.459,1.209L95.214,104.801z"/>
	<path d="M96.392,104.805v0.543l-2.275-0.115l-0.498-0.562l-0.27-0.17l-0.693-0.042c0,0-0.833,0.57-1.176,0.773
		c-0.339,0.201-1.534,0-1.534,0l-0.988-0.015l-0.887-0.595v-0.889l3.512-1.295l0.714,0.052l3.009,0.352L96.392,104.805z"/>
	<path fill="#CCCCCC" d="M95.217,104.598l-0.248,0.541h-0.747l-0.507-0.476l-0.371-0.271l-0.68-0.063c0,0-0.884,0.608-1.229,0.81
		c-0.334,0.203-1.561,0-1.561,0h-0.879l-0.82-0.606v-0.761l3.385-1.211h0.691l1.459,1.211L95.217,104.598z"/>
	<path fill="#FFFFFF" d="M108.426,122.078c-1.043-0.443-0.92-2.307-0.92-2.307C106.863,122.438,108.426,122.079,108.426,122.078z"/>
	<path fill="#FFFFFF" d="M94.539,100.368L91.7,95.031C92.569,95.755,94.537,100.366,94.539,100.368z"/>
	<path fill="#FFFFFF" d="M89.61,92.543c-0.836-1.787-9.186-5.833-9.186-5.833C87.343,89.016,89.603,92.543,89.61,92.543z"/>
	<path fill="#FFFFFF" d="M90.468,104.801c-1.902,0-1.676-0.701-1.676-0.701C88.431,105.434,90.468,104.801,90.468,104.801z"/>
	<path d="M126.471,108.648c-0.658,2.076-9.722,6.375-9.722,6.375l-0.545,0.181c-4.204,0.403-7.778-0.64-7.778-0.64l-9.998-7.366
		l9.998,7.595c4.434,1.04,8.047,0.591,8.047,0.591c8.971-4.389,10.043-6.241,10.043-6.241l0.283-0.771
		c0.643-1.764,0.187-3.844,0.187-3.844C127.083,108.139,126.471,108.648,126.471,108.648z"/>
	<path fill="#FFFFFF" d="M120.649,118.848c4.749-1.393,6.149-3.363,6.149-3.363C125.178,116.968,120.646,118.848,120.649,118.848z"
		/>
	<path opacity="0.3" fill="#669999" enable-background="new    " d="M98.658,105.792c0.635,0.151,7.916-2.258,7.916-2.258
		c6.919-2.306,8.908-7.509,8.908-7.509l-2.352-2.268c1,1.753-0.902,3.266-0.902,3.266c-4.75,4.204-6.695,1.271-6.695,1.271
		c-2.17-5.648-7.103-5.75-7.103-5.75c-1.269,0.767-4.751,2.123-4.751,2.123L98.658,105.792z"/>
	<polygon points="97.001,114.979 96.787,115.218 74.667,102.998 	"/>
	<path d="M83.482,100.007c-0.427,0.137-0.312,1.218-0.312,1.218l1.846,1.215h0.293l0.227-1.16L83.482,100.007z"/>
	<path d="M72.599,92.906h-0.271l-0.405,0.853c0.406,0.761,2.305,1.723,2.305,1.723l0.271-0.996
		C72.823,93.674,72.599,92.905,72.599,92.906z"/>
	<path opacity="0.3" fill="#669999" enable-background="new    " d="M89.15,98.696c0.144,1.855,3.967,3.482,3.967,3.482
		c-1.103-0.316-2.02,0-2.02,0l-6.514-4.07c0.453-5.745,1.314-6.559,1.314-6.559C90.058,95.122,89.154,98.695,89.15,98.696z"/>
	<path opacity="0.3" fill="#669999" enable-background="new    " d="M77.979,91.774c-1.495,0.861-2.76,0.219-2.76,0.219l6.559,4.396
		c-0.405-1.856,1.377-7.037,1.377-7.037C78.335,87.058,77.983,91.774,77.979,91.774z"/>
	<path d="M59.819,88.891c-0.031,0.512,5.09,3.295,5.09,3.295c-1.486-0.88-4.035-4.177-4.035-4.177
		C60.022,87.906,59.819,88.889,59.819,88.891z"/>
	<path d="M82.413,106.223c-0.639-2.199,0-8.521,0-8.521C81.64,102.132,82.413,106.223,82.413,106.223z"/>
	<path fill="#FFFFFF" d="M69.206,92.905c-1.18-1.492,0-4.184,0-4.184C68.3,91.325,69.206,92.905,69.206,92.905z"/>
	<path fill="#FFFFFF" d="M68.349,85.26c0.811-0.178,5.561,0,5.561,0C71.697,84.854,68.349,85.26,68.349,85.26z"/>
	<path fill="#FFFFFF" d="M61.603,82.091c0.506,1.403,2.584,1.403,2.584,1.403c-2.621-0.721-1.627-2.395-1.627-2.395L61.603,82.091z"
		/>
	<path opacity="0.7" fill="#FFFFFF" enable-background="new    " d="M100.598,104.951l2.44-0.852
		c-2.851-0.769-7.058-9.906-7.058-9.906C94.083,96.886,100.596,104.951,100.598,104.951z"/>
	<path opacity="0.7" fill="#FFFFFF" enable-background="new    " d="M85.013,97.95l1.918,0.815c-1.256-1.598,0-6.222,0-6.222
		C85.546,92.974,85.017,97.95,85.013,97.95z"/>
	<path opacity="0.7" fill="#FFFFFF" enable-background="new    " d="M80.856,89.624c-0.611,0.571,0.539,5.407,0.539,5.407
		l0.576-4.938L80.856,89.624z"/>
</g>
</svg>
