<?xml version="1.0" encoding="utf-8"?>
<!-- Generator: Adobe Illustrator 19.2.1, SVG Export Plug-In . SVG Version: 6.00 Build 0)  -->
<svg version="1.1" id="Layer_1" xmlns="http://www.w3.org/2000/svg" xmlns:xlink="http://www.w3.org/1999/xlink" x="0px" y="0px"
	 viewBox="0 0 25 25" style="enable-background:new 0 0 25 25;" xml:space="preserve">
<path d="M4.038,4.081c0.338-0.347,0.747-0.576,1.18-0.71L2.791,2.867L3.36,5.279C3.483,4.843,3.7,4.428,4.038,4.081z"/>
<path d="M10.839,10.341c-0.308,0.374-0.696,0.636-1.116,0.806l2.46,0.299L11.415,9.09C11.329,9.535,11.147,9.967,10.839,10.341z"/>
<path d="M3.731,10.287c-0.313-0.37-0.5-0.8-0.592-1.243L2.402,11.41l2.456-0.33C4.436,10.915,4.044,10.658,3.731,10.287z"/>
<path d="M10.485,3.992c0.357,0.328,0.597,0.73,0.744,1.159l0.434-2.44L9.268,3.348C9.707,3.458,10.128,3.664,10.485,3.992z"/>
<path d="M11.929,7.144c0.029,0.484-0.078,0.94-0.271,1.35l2.007-1.453l-2.165-1.206C11.74,6.22,11.9,6.661,11.929,7.144z"/>
<path d="M2.683,7.227C2.69,6.743,2.83,6.295,3.051,5.9L0.944,7.204l2.072,1.359C2.805,8.163,2.677,7.712,2.683,7.227z"/>
<path d="M7.246,11.979c-0.485,0-0.934-0.133-1.332-0.349l1.333,2.089l1.33-2.091C8.179,11.844,7.731,11.978,7.246,11.979z"/>
<path d="M7.206,2.729c0.484-0.017,0.938,0.1,1.343,0.302L7.143,0.99L5.888,3.126C6.278,2.896,6.722,2.746,7.206,2.729z"/>
<g>
	<g>
		<ellipse cx="9.6" cy="13.123" rx="4.287" ry="3.707"/>
		<ellipse cx="13.234" cy="10.011" rx="5.085" ry="4.397"/>
		<ellipse cx="18.971" cy="11.215" rx="5.085" ry="4.397"/>
	</g>
	<g>
		<ellipse cx="12.352" cy="15.424" rx="3.176" ry="2.747"/>
		<ellipse cx="15.045" cy="13.118" rx="3.768" ry="3.258"/>
		<ellipse cx="19.297" cy="14.01" rx="3.768" ry="3.258"/>
	</g>
</g>
<path d="M7.727,9.612c0.164-1.678,1.406-3.088,3.137-3.698c-0.57-1.407-1.945-2.401-3.556-2.401c-2.121,0-3.84,1.719-3.84,3.84
	c0,1.564,0.939,2.905,2.281,3.503C6.25,10.288,6.932,9.854,7.727,9.612z"/>
<path d="M8.942,21.515c-0.213,0.387-0.698,0.528-1.085,0.315s-0.528-0.698-0.315-1.085s1.313-1.646,1.7-1.433
	C9.628,19.525,9.155,21.129,8.942,21.515z"/>
<path d="M16.544,20.195c-0.213,0.387-0.698,0.528-1.085,0.315c-0.387-0.213-0.528-0.698-0.315-1.085
	c0.213-0.387,1.313-1.646,1.7-1.433C17.231,18.204,16.757,19.808,16.544,20.195z"/>
<path d="M12.878,23.685c-0.213,0.387-0.698,0.528-1.085,0.315c-0.387-0.213-0.528-0.698-0.315-1.085
	c0.213-0.387,1.313-1.646,1.7-1.433C13.565,21.694,13.091,23.298,12.878,23.685z"/>
<path d="M19.498,21.918c-0.213,0.387-0.698,0.528-1.085,0.315c-0.387-0.213-0.528-0.698-0.315-1.085
	c0.213-0.387,1.313-1.646,1.7-1.433C20.184,19.927,19.71,21.531,19.498,21.918z"/>
</svg>
