<?xml version="1.0" encoding="utf-8"?>
<!-- Generator: Adobe Illustrator 16.0.0, SVG Export Plug-In . SVG Version: 6.00 Build 0)  -->
<!DOCTYPE svg PUBLIC "-//W3C//DTD SVG 1.1//EN" "http://www.w3.org/Graphics/SVG/1.1/DTD/svg11.dtd">
<svg version="1.1" id="Layer_1" xmlns="http://www.w3.org/2000/svg" xmlns:xlink="http://www.w3.org/1999/xlink" x="0px" y="0px"
	 width="200px" height="200px" viewBox="0 0 200 200" enable-background="new 0 0 200 200" xml:space="preserve">
<g id="Direction">
	<g transform="rotate({{angle}} 50 50)">
		<polygon id="arrow" opacity="0.7" fill="#80C342" enable-background="new    " points="154.049,70.972 173.704,94.615 
			154.316,118.252 143.426,118.252 143.426,117.986 162.814,94.615 143.424,72.037 143.426,70.972 		">
		

		</polygon>
		<polygon id="arrow2" opacity="0.7" fill="#80C342" enable-background="new    " points="167.33,70.708 186.984,94.345 
			167.328,117.986 156.707,117.984 156.707,117.721 175.828,94.345 156.707,71.769 156.707,70.708 		">
		
	
		</polygon>
		<polygon id="arrow3" opacity="0.7" fill="#80C342" enable-background="new    " points="180.611,70.44 200,94.082 
			180.609,117.721 169.719,117.721 169.719,117.455 189.109,94.082 169.721,71.505 169.721,70.44 		">
		

		</polygon>
	</g>
</g>
<g>
	<path fill="#5B5C5B" d="M119.641,122.348c6.205,5.034,14.334,5.034,18.148-0.061c3.811-5.063,1.864-13.264-4.352-18.307
		c-6.217-5.04-14.336-5.028-18.15,0.043C111.482,109.098,113.424,117.286,119.641,122.348z M117.245,106.775
		c2.651-2.758,8.008-1.68,11.976,2.414c3.959,4.098,5.024,9.66,2.375,12.431c-2.646,2.756-8.016,1.687-11.977-2.409
		C115.65,115.116,114.587,109.553,117.245,106.775z"/>
	<path fill="#5B5C5B" d="M69.258,107.216c6.209,5.039,14.34,5.015,18.16-0.048c3.814-5.068,1.855-13.263-4.344-18.303
		c-6.217-5.04-14.34-5.029-18.158,0.043C61.105,93.98,63.051,102.168,69.258,107.216z M66.861,91.654
		c2.66-2.76,8.008-1.689,11.973,2.409c3.977,4.095,5.041,9.664,2.387,12.434c-2.65,2.756-8.008,1.685-11.975-2.418
		C65.297,99.985,64.225,94.427,66.861,91.654z"/>
	<g>
		<path fill="#212120" d="M85.242,90.236l3.156,3.961l1.668,2.919l0.881,6.245l-1.543,0.945c-1.039-1.594-9.434-3.74-9.434-3.74
			c-3.47-0.775-3.812,0.642-3.812,0.642c0.401,2.735-2.754,2.567-2.754,2.567c-2.638-0.817-4.076-4.553-4.076-4.553
			c-1.015-1.923,0-3.948,0-3.948l0.655-0.402l1.273-0.279c2.313,0.087,6.834-1.725,6.834-1.725l3.287-1.882l1.455-2.046
			L85.242,90.236z"/>
		<path fill="#565146" d="M85.242,90.721l3.156,3.958l1.668,2.919l0.881,6.245l-1.543,0.957c-1.039-1.599-9.434-3.741-9.434-3.741
			c-3.47-0.774-3.812,0.635-3.812,0.635c0.401,2.736-2.754,2.572-2.754,2.572c-2.638-0.814-4.076-4.541-4.076-4.541
			c-1.015-1.935,0-3.948,0-3.948l0.655-0.414l1.273-0.277c2.313,0.097,6.834-1.725,6.834-1.725l3.287-1.881l1.455-2.039
			L85.242,90.721z"/>
		<path fill="#212120" d="M85.038,91.666c-0.039-0.328,0.17-0.643,0.494-0.7l0,0c0.332-0.05,0.616,0.17,0.666,0.514l1.729,11.077
			c0.049,0.342-0.177,0.644-0.49,0.707l0,0c-0.326,0.047-0.623-0.168-0.684-0.509L85.038,91.666z"/>
		<path fill="#212120" d="M87.029,91.369c0.143-0.31,0.498-0.414,0.795-0.253l0,0c0.285,0.155,0.4,0.512,0.246,0.824l-5.033,9.919
			c-0.16,0.32-0.518,0.42-0.805,0.266l0,0c-0.291-0.158-0.391-0.527-0.252-0.826L87.029,91.369z"/>
		<path fill="#2D2E2D" d="M133.408,106.932c-1.977,0.207-5.787-0.342-5.787-0.342c-2.047-0.395-1.714,1.234-1.714,1.234l1.45,5.816
			c0.391,0.957-0.391,1.969-0.391,1.969h-2.047h-0.484l-6.926-12.778l-1.929-2.493c4.996-2.147,11.903-1.202,11.903-1.202
			c5.004,1.224,8.419,6.368,8.419,6.368C136.557,106.37,133.402,106.921,133.408,106.932z"/>
		<path fill="#BCBCBC" d="M84.454,80.564c-8.776-4.744-9.394-7.916-9.394-7.916c-2.186-3.769-15.518-2.3-15.518-2.3l-1.41,2.25
			c1.051-0.025,1.756,1.681,1.756,1.681c0.519,1.27,3.42,6.286,3.42,6.286c6.142,4.647,10.961,5.369,10.961,5.369
			c6.931,1.824,7.804,2.673,7.804,2.673c2.198,2.851-0.347,6.711-0.347,6.711l4.318,1.302l5.121-4.23
			C94.889,86.831,84.453,80.559,84.454,80.564z"/>
		<path opacity="0.4" fill="#3A3A38" enable-background="new    " d="M84.686,83.629l7,8.293l-5.64,4.698l-0.639-0.202l3.356-3.827
			c2.205-1.92-6.084-8.604-6.084-8.604C83.885,82.854,84.689,83.624,84.686,83.629z"/>
		<path fill="#3A3A38" d="M84.616,83.325c-2.636,1.133-5.154,0.858-5.154,0.858c-1.086-0.053-4.463-1.656-4.463-1.656
			c-6.416-2.837-6.11-9.17-6.11-9.17c0.262-1.847,3.688-1.971,3.688-1.971c1.256-0.116,2.104,0.756,2.104,0.756
			c0.649,0.823,0.782,1.279,0.782,1.279c1.493,2.798,5.64,4.935,5.64,4.935c3.207,1.552,4.803,2.908,4.803,2.908
			C86.998,81.988,84.607,83.311,84.616,83.325z"/>
		<path fill="#665D4C" d="M84.904,83.325c-2.633,1.133-5.15,0.858-5.15,0.858c-1.068-0.053-4.467-1.656-4.467-1.656
			c-6.398-2.837-6.102-9.17-6.102-9.17c0.264-1.847,3.686-1.971,3.686-1.971c1.271-0.116,2.115,0.756,2.115,0.756
			c0.66,0.823,0.775,1.279,0.775,1.279c1.48,2.798,5.633,4.935,5.633,4.935c3.209,1.552,4.799,2.908,4.799,2.908
			C87.293,81.988,84.904,83.311,84.904,83.325z"/>
		<path fill="#191919" d="M81.545,101.414l-1.217-0.1l-0.777,1.504c0.254,1.959,3.408,4.053,3.408,4.053
			c6.313,3.175,30.376,10.293,30.376,10.293h0.771l1.469-0.341c-2.21-2.38-2.239-9.425-2.239-9.425L81.545,101.414z"/>
		<path fill="#B3B3B3" d="M96.662,96.834L91.684,94.7l-0.568-2.609l-3.934-5.121l-2.931-2.783l-0.267-0.634
			c-0.19-1.157,0.729-6.356,2.839-6.9c0.09-0.032,0.213-0.053,0.353-0.074c2.352-0.454,7.9-0.154,9.813-0.344
			c0.102-0.008,0.355,0.057,0.494,0.057c2.363-0.073,8.344,0.976,8.344,0.976l5.316,1.782c1.555,0.403,2.192,3.618,2.192,3.618
			C113.335,84.515,96.65,96.835,96.662,96.834z"/>
		<path fill="#BCBCBC" d="M128.408,99.708l0.01-0.939c-34.721-11.285-35.637-6.376-35.637-6.376l-5.6,4.445l0.438,2.114
			c2.979,3.472,1.929,5.296,1.929,5.296l-2.634,1.924c-1.761-0.288-5.528-3.288-5.528-3.288l-2.291,0.457l6.403,3.331l0.983,0.473
			l16.523,6.489l0.354-1.096l0.312-0.468h1.435l1.631,0.639l2.111,0.452l0.881-0.358l-0.185-0.732l-1.095-0.562
			C119.145,100.564,128.408,99.708,128.408,99.708L128.408,99.708z"/>
		<path fill="#3E3D35" d="M130.109,89.716l-0.857,1.093l-6.433,2.265l-3.163,2.726l-3.422,0.823l-5.797-0.345l-6.771-3.328
			l-0.662-3.153l0.987-2.428l0.245-0.925l2.056-1.232l0.889-0.033l0.699,0.646v-0.892l5.612-2.726h0.825l0.398,1.356l2.236-1.356
			l0.068-0.555l-1.121-0.691l-0.529-0.88c-0.402-0.891,1.441-1.302,1.441-1.302c1.117-0.28,1.191,0,1.191,0l0.916,0.955l0.266-1.359
			v-0.422l2.064,0.347v0.269v2.938l-0.357,0.457l-1.242,4.105l3.022,0.358l2.833-2.239
			C125.936,83.836,130.114,89.712,130.109,89.716z"/>
		<path fill="#C3C4C2" d="M113.002,83.082c0.207-2.321-1.254-3.753-1.254-3.753c-7.23-3.905-20.355-3.003-20.355-3.003l-4.578,0.331
			c-1.635,0.237-0.131,1.706-0.131,1.706c17.182,9.981,18.08,7.757,18.08,7.757C113.163,83.965,113.005,83.088,113.002,83.082z"/>
		<path opacity="0.4" fill="#3A3A38" enable-background="new    " d="M128.407,99.708v-0.435c-0.776-1.294-26.688-6.8-26.688-6.8
			l-0.811,1.271l6.908,2.874c1.676,1.541,13.187,3.713,13.187,3.713C124.189,100.777,128.408,99.708,128.407,99.708L128.407,99.708z
			"/>
		<path fill="#22201D" d="M109.061,88.599l-1.106-0.006l-3.722,1.657l-0.756,1.26l-0.131,1.232c0,0,2.989,1.98,3.33,2.115
			c0.359,0.142,3.342,1.402,3.342,1.402L113,96.897h2.809l3.105-0.638c0,0,0-1.359,0-1.537c0-0.191-0.586-1.19-0.586-1.19
			l-0.895-0.168v1.125l-0.662,0.815c0,0-1.215,0.054-1.48,0c-0.264-0.04-2.548-0.629-2.982-0.815
			c-0.442-0.186-2.582-1.281-3.022-1.458c-0.44-0.18-0.623-0.82-0.623-0.966c0-0.124-0.399-1.036-0.399-1.036L109.061,88.599
			L109.061,88.599z"/>
		<path fill="#CDCCCC" d="M106.619,79.152l11.311,6.749l5.308,3.279l8.026,2.864l0.785-0.859l-1.625-3.807
			c-4.171-8.86-11.406-12.318-11.406-12.318c7.809,2.822,13.771,13.377,13.771,13.377c1.794,3.017,1.227,8.381,1.227,8.381
			l-0.259-0.358l-0.35-0.18l-0.397,0.32l-1.185,1.916c-1.091,0.733-7.979,1.19-7.979,1.19c-4.252,0-13.629-2.877-13.629-2.877
			l-8.519-3.683l-0.39,0.457l-0.397,0.132v-0.412l1.849-1.959l2.319-1.717l3.595-2.047l0.397,0.999l-4.823,2.227l-0.744,0.679
			l0.178,1.424l6.709,3.153l5.389,0.35l1.669-0.724l0.573-0.369v-0.638l-0.277-0.915l-1.703-2.405l-6.85-6.925l-0.393-0.044
			l-0.748,0.41l-0.177,0.638h-0.396l-0.439-0.412h-0.745l-1.532-1.804c0.613-2.82-0.338-4.475-0.338-4.475L106.619,79.152z"/>
		<path opacity="0.4" fill="#343A56" enable-background="new    " d="M104.753,78.354l16.271,9.972l3.113,1.646l4.035,0.553
			l1.41-0.411l0.53-1.369v-1.782c0,0-2.505-3.683-2.638-3.737c-0.131-0.033-4.818-5.554-4.818-5.554l-5.352-3.963h-1.318
			l0.178,0.322c0.088,0.324,0,1.147,0,1.147c-5.305,3.638-11.4,3-11.4,3"/>
		<polyline fill="#444130" points="118.572,74.65 118.795,74.843 119.102,74.354 121.652,73.94 122.658,72.981 123.23,72.336 
			123.23,71.063 122.434,70.342 122.004,70.342 118.971,71.659 118.755,71.978 118.755,74.076 118.572,74.354 		"/>
		<path fill="#232321" d="M103.671,78.155v0.31c3.197,1.227,5.487,3.331,5.487,3.331l12.539,9.017
			c4.994,3.182,10.918,3.694,10.918,3.694l0.398-0.638c-0.308-4.602-0.926-6.068-0.926-6.068
			c-6.408-10.329-13.115-13.024-13.115-13.024l-1.009-1.039h-1.53l0.178,0.268l0.455,0.688c6.691,2.05,12.391,13.112,12.391,13.112
			c1.971,5.058-10.138-1.909-10.138-1.909c-4.077-3.161-14.864-8.489-14.864-8.489L103.671,78.155z"/>
		<path fill="#444130" d="M106.508,82.549l-3.943,1.559c-0.877,0.331-1.051-0.425-1.051-0.425l-0.215-1.176
			c0-0.223,0.624-0.679,0.624-0.679l2.839-2.039c0.525-0.116,1.621,0,1.621,0l0.699,1.483
			C107.479,82.087,106.51,82.544,106.508,82.549z"/>
		<path fill="#343438" d="M99.364,91.395l-0.083,0.193l-1.67,0.802l-0.969-2.134l1.012-0.592l0.223,0.277l6.182-2.973
			c1.449,0.468,0.965,2.016,0.965,2.016L99.364,91.395z"/>
		<path fill="#B0B0B0" d="M96.333,90.373c0.254-0.119,0.675,0.276,0.927,0.879c0.261,0.603,0.25,1.189-0.007,1.308
			c-0.265,0.119-0.685-0.275-0.942-0.88C96.059,91.077,96.064,90.49,96.333,90.373z"/>
		<path fill="#B0B0B0" d="M96.518,90.251c0.365-0.164,0.869,0.194,1.127,0.804c0.257,0.612,0.17,1.24-0.199,1.407
			c-0.367,0.166-0.866-0.198-1.122-0.807C96.064,91.045,96.145,90.415,96.518,90.251z"/>
		<path fill="#111111" d="M131.01,95.557c-0.5-0.434-1.545-0.646-1.545-0.646l-9.078-0.998v0.458l1.68,1.67l1.475,0.18
			c2.042,3.816,4.805,0.803,4.805,0.803l3.061-0.496C131.406,96.079,131.012,95.56,131.01,95.557z"/>
		<path fill="#CAB749" d="M131.115,95.454c-0.502-0.457-1.555-0.658-1.555-0.658l-9.067-0.88v0.347l1.674,1.665l1.479,0.168
			c2.037,3.831,4.799,0.804,4.799,0.804l2.961-0.457C131.406,96,131.115,95.442,131.115,95.454z"/>
		<path fill="#CDCCCC" d="M123.905,94.733c-0.185,0.458-0.086,0.999-0.086,0.999c0.135,1.461,1.536,1.972,1.536,1.972
			c1.668,0.655,3.054-1.046,3.054-1.046l-0.134-0.181c-1.951,2.118-3.561,0.59-3.561,0.59c-1.08-1.084-0.656-2.369-0.656-2.369
			L123.905,94.733z"/>
		<path fill="#3A3B3B" d="M119.357,103.016l5.861,13.935l-1.5,0.892l-0.675-0.203l-6.271-13.201
			C117.15,103.68,119.355,103.011,119.357,103.016z"/>
		<path fill="#D1D2D2" d="M119.58,102.824l5.855,13.939l-1.492,0.885l-0.674-0.197l-6.272-13.191
			C117.377,103.492,119.581,102.824,119.58,102.824z"/>
		<polygon opacity="0.3" fill="#CFCFCE" enable-background="new    " points="123.932,88.251 123.932,92.038 124.914,92.473 
			124.79,88.655 		"/>
		<polygon fill="#DEDEDD" points="116.997,87.42 116.997,92.39 117.816,93.437 117.816,88.017 		"/>
		<path fill="#232321" d="M114.784,101.947c-2.57-0.33-11.788-4.106-11.788-4.106l0.762-0.942l-8.191-2.405
			c-2.036-0.694-2.791-2.104-2.791-2.104l-5.604,4.445l0.244,2.163c0.92,0.404,2.186,3.417,2.186,3.417l17.09,9.094h2.299
			c3.941-5.001,11.675-9.03,11.675-9.03L114.784,101.947z"/>
		<path fill="#010101" d="M99.445,101.958l-7.764-3.81c0.135,0.382,7.441,4.676,7.441,4.676l3.88-4.977L99.445,101.958z"/>
		<path fill="#B3B3B3" d="M76.174,88.251"/>
		<path fill="#353635" d="M97.159,76.281c0.019,0.315-0.295,0.603-0.636,0.795c-1.06,0.601-3.131,0.711-3.131,0.711
			c-3.256,0.025-2.342-1.235-2.342-1.235l0.699-0.477c2.07-0.785,4.671-0.203,4.671-0.203l0.731,0.414"/>
		<path fill="#353635" d="M91.393,82.117c1.123,1.202-0.441,5.166-0.441,5.166c1.063-2.971,1.031-4.677,1.031-4.677
			c0.037-1.748-5.658-4.241-5.658-4.241C90.93,80.993,91.393,82.121,91.393,82.117z"/>
		<path fill="#232321" d="M74.146,85.918c-2.226-0.403-9.78-4.187-10.354-4.878c-0.567-0.679-2.017-3.06-2.637-4.332
			c-0.617-1.27-1.613-2.627-1.613-2.627l-1.106-1.283c0,0,0.351-0.052,4.289,0.32c3.948,0.365,4.246,1.456,4.246,1.456
			s-0.076,0.412-0.418,0.412c-0.353,0-0.474,0.135-1.009,0.28c-0.539,0.14-0.313,1.232-0.313,1.232
			c2.369,3.829,6.152,4.785,6.152,4.785c4.736,1.408,2.887,4.644,2.887,4.644"/>
		<path fill="#111111" d="M87.172,102.287c0.783,0,1.576,0.736,1.576,1.482c0,0.744-0.633,1.346-1.404,1.346
			c-0.766,0-1.377-0.602-1.377-1.346C85.967,103.029,86.391,102.286,87.172,102.287z"/>
		<path fill="#838383" d="M86.65,102.619c0.59,0,1.35,0.98,1.35,1.57c0,0.58-0.227,0.871-0.828,0.871
			c-0.594,0-1.205-0.707-1.205-1.291C85.967,103.188,86.045,102.623,86.65,102.619z"/>
		<path fill="#111111" d="M86.723,103.419c0.19,0,0.448,0.345,0.448,0.532c0,0.201-0.087,0.31-0.272,0.31
			c-0.215,0-0.418-0.243-0.418-0.448C86.48,103.625,86.518,103.416,86.723,103.419z"/>
		<path opacity="0.5" fill="#E5E5E5" enable-background="new    " d="M132.971,106.563h0.65c-0.87-0.336-2.215-1.773-2.215-1.773
			C131.573,105.727,132.967,106.563,132.971,106.563z"/>
		<path fill="#D1D2D1" d="M72.078,95.975c-4.666-1.209-2.496,3.744-2.496,3.744c1.867,4.541,4.283,4.118,4.283,4.118l7.09,1.222
			v0.365l-7.303-1.021c-1.598-0.112-3.547-2.826-3.547-2.826c-2.572-4.165-0.992-5.987-0.992-5.987
			c1.713-0.963,7.172,1.243,7.172,1.243v0.533L72.078,95.975z"/>
		<path opacity="0.5" fill="#FFFFFF" enable-background="new    " d="M97.81,76.304l-0.654-0.034
			c-0.027,0.122-0.055,0.223-0.096,0.321c-0.287,0.615-0.869,0.646-0.869,0.646c-0.817,1.01,1.246,6.866,1.246,6.866l2.585,1.125
			c-1.265-2.25-2.226-7.28-2.226-7.28C97.668,77.305,97.796,76.307,97.81,76.304z"/>
		<path fill="#A09F9F" d="M124.195,116.432c0,0.329-0.256,0.586-0.567,0.586c-0.313,0-0.562-0.257-0.562-0.586
			c0-0.313,0.248-0.582,0.562-0.582C123.939,115.85,124.195,116.113,124.195,116.432z"/>
		<circle fill="#282828" cx="123.628" cy="116.439" r="0.283"/>
	</g>
</g>
</svg>
