<?xml version="1.0" encoding="utf-8"?>
<!-- Generator: Adobe Illustrator 16.0.0, SVG Export Plug-In . SVG Version: 6.00 Build 0)  -->
<!DOCTYPE svg PUBLIC "-//W3C//DTD SVG 1.1//EN" "http://www.w3.org/Graphics/SVG/1.1/DTD/svg11.dtd">
<svg version="1.1" id="Layer_1" xmlns="http://www.w3.org/2000/svg" xmlns:xlink="http://www.w3.org/1999/xlink" x="0px" y="0px"
	 width="200px" height="200px" viewBox="0 0 200 200" enable-background="new 0 0 200 200" xml:space="preserve">
<g id="Direction">
	<g transform="rotate({{angle}} 50 50)">
		<polygon id="arrow" opacity="0.7" fill="#80C342" enable-background="new    " points="123.234,63.911 122.17,63.913 
			99.591,44.522 76.22,63.911 75.955,63.911 75.955,53.021 99.591,33.633 123.234,53.288 		">
		

		</polygon>
		<polygon id="arrow2" opacity="0.7" fill="#80C342" enable-background="new    " points="123.498,50.63 122.438,50.63 
			99.861,31.509 76.486,50.63 76.222,50.63 76.22,40.009 99.861,20.353 123.498,40.007 		">
		

		</polygon>
		<polygon id="arrow3" opacity="0.7" fill="#80C342" enable-background="new    " points="123.767,37.616 122.701,37.616 
			100.125,18.228 76.751,37.618 76.486,37.618 76.486,26.728 100.125,7.337 123.767,26.726 		">
		

		</polygon>
	</g>
</g>
<g>
	<path fill="#5B5C5B" d="M82.584,104.024c-3.815-5.072-11.934-5.083-18.151-0.044c-6.215,5.044-8.161,13.245-4.351,18.307
		c3.815,5.095,11.944,5.095,18.149,0.061C84.447,117.286,86.388,109.097,82.584,104.024z M78.252,119.211
		c-3.961,4.095-9.331,5.165-11.976,2.409c-2.65-2.77-1.585-8.333,2.375-12.43c3.967-4.095,9.324-5.173,11.975-2.415
		C83.284,109.553,82.221,115.116,78.252,119.211z"/>
	<path fill="#5B5C5B" d="M132.955,88.908c-3.818-5.072-11.941-5.083-18.158-0.043c-6.199,5.04-8.158,13.235-4.344,18.303
		c3.82,5.063,11.951,5.087,18.16,0.048C134.82,102.168,136.766,93.98,132.955,88.908z M128.625,104.079
		c-3.967,4.103-9.324,5.174-11.975,2.418c-2.654-2.771-1.59-8.339,2.387-12.434c3.965-4.098,9.313-5.169,11.973-2.409
		C133.646,94.427,132.574,99.985,128.625,104.079z"/>
	<g>
		<path fill="#212120" d="M115.037,88.94l1.455,2.046l3.287,1.882c0,0,4.521,1.812,6.834,1.725l1.273,0.279l0.656,0.402
			c0,0,1.014,2.025,0,3.948c0,0-1.438,3.736-4.076,4.554c0,0-3.156,0.168-2.754-2.568c0,0-0.342-1.417-3.811-0.641
			c0,0-8.395,2.146-9.434,3.739l-1.543-0.944l0.881-6.246l1.668-2.919l3.156-3.961L115.037,88.94z"/>
		<path fill="#565146" d="M115.037,89.441l1.455,2.039l3.287,1.881c0,0,4.521,1.822,6.834,1.725l1.273,0.277l0.656,0.414
			c0,0,1.014,2.013,0,3.948c0,0-1.438,3.726-4.076,4.541c0,0-3.156,0.164-2.754-2.573c0,0-0.342-1.409-3.811-0.635
			c0,0-8.395,2.143-9.434,3.742l-1.543-0.957l0.881-6.245l1.668-2.919l3.156-3.958L115.037,89.441z"/>
		<path fill="#212120" d="M111.117,102.755c-0.061,0.341-0.357,0.555-0.684,0.509l0,0c-0.313-0.064-0.539-0.366-0.49-0.708
			l1.73-11.076c0.049-0.344,0.334-0.564,0.666-0.514l0,0c0.324,0.057,0.533,0.372,0.494,0.7L111.117,102.755z"/>
		<path fill="#212120" d="M115.891,101.299c0.139,0.299,0.039,0.668-0.252,0.826l0,0c-0.287,0.155-0.645,0.054-0.805-0.265
			l-5.033-9.92c-0.154-0.312-0.039-0.669,0.246-0.824l0,0c0.297-0.161,0.652-0.057,0.795,0.253L115.891,101.299z"/>
		<path fill="#2D2E2D" d="M61.968,105.504c0,0,3.415-5.144,8.419-6.368c0,0,6.907-0.945,11.903,1.202l-1.929,2.493l-6.925,12.779
			h-0.485h-2.047c0,0-0.781-1.013-0.39-1.97l1.45-5.816c0,0,0.333-1.629-1.714-1.234c0,0-3.81,0.548-5.787,0.342
			C64.469,106.921,61.314,106.37,61.968,105.504z"/>
		<path fill="#BCBCBC" d="M106.705,92.39l5.121,4.23l4.318-1.302c0,0-2.545-3.86-0.346-6.711c0,0,0.873-0.849,7.803-2.673
			c0,0,4.82-0.722,10.961-5.369c0,0,2.902-5.016,3.42-6.286c0,0,0.705-1.706,1.756-1.681l-1.41-2.25c0,0-13.332-1.469-15.518,2.3
			c0,0-0.617,3.172-9.393,7.916C113.418,80.559,102.982,86.831,106.705,92.39z"/>
		<path opacity="0.4" fill="#3A3A38" enable-background="new    " d="M115.191,83.987c0,0-8.289,6.684-6.084,8.604l3.357,3.827
			l-0.639,0.202l-5.639-4.698l7-8.293C113.182,83.624,113.986,82.854,115.191,83.987z"/>
		<path fill="#3A3A38" d="M111.965,81.264c0,0,1.596-1.356,4.803-2.908c0,0,4.146-2.137,5.639-4.935c0,0,0.133-0.456,0.783-1.279
			c0,0,0.848-0.872,2.104-0.756c0,0,3.426,0.124,3.689,1.971c0,0,0.305,6.333-6.111,9.17c0,0-3.377,1.603-4.463,1.656
			c0,0-2.518,0.275-5.154-0.858C113.264,83.311,110.873,81.988,111.965,81.264z"/>
		<path fill="#665D4C" d="M111.678,81.264c0,0,1.59-1.356,4.799-2.908c0,0,4.152-2.137,5.633-4.935c0,0,0.115-0.456,0.775-1.279
			c0,0,0.844-0.872,2.115-0.756c0,0,3.422,0.124,3.686,1.971c0,0,0.297,6.333-6.102,9.17c0,0-3.398,1.603-4.467,1.656
			c0,0-2.518,0.275-5.15-0.858C112.967,83.311,110.578,81.988,111.678,81.264z"/>
		<path fill="#191919" d="M84.536,107.399c0,0-0.029,7.044-2.239,9.424l1.469,0.341h0.77c0,0,24.064-7.118,30.376-10.293
			c0,0,3.154-2.093,3.408-4.053l-0.777-1.504l-1.217,0.1L84.536,107.399z"/>
		<path fill="#B3B3B3" d="M84.536,82.668c0,0,0.638-3.215,2.193-3.618l5.316-1.782c0,0,5.981-1.049,8.344-0.976
			c0.138,0,0.392-0.065,0.494-0.057c1.912,0.19,7.461-0.11,9.813,0.344c0.139,0.021,0.262,0.042,0.352,0.074
			c2.109,0.544,3.029,5.743,2.838,6.9l-0.266,0.634l-2.93,2.783l-3.934,5.121l-0.568,2.609l-4.979,2.134
			C101.221,96.835,84.536,84.515,84.536,82.668z"/>
		<path fill="#BCBCBC" d="M69.463,99.708c0,0,9.263,0.857,19.959,11.801l-1.095,0.562l-0.184,0.732l0.88,0.358l2.112-0.452
			l1.63-0.639h1.435l0.312,0.468l0.353,1.096l16.523-6.489l0.984-0.473l6.404-3.331l-2.291-0.457c0,0-3.768,3-5.529,3.288
			l-2.633-1.924c0,0-1.051-1.824,1.928-5.296l0.439-2.114l-5.6-4.445c0,0-0.916-4.909-35.637,6.376L69.463,99.708L69.463,99.708z"/>
		<path fill="#3E3D35" d="M72.365,84.188l2.833,2.239l3.022-0.358l-1.241-4.105l-0.358-0.457v-2.938V78.3l2.064-0.347v0.422
			l0.266,1.359l0.916-0.955c0,0,0.074-0.28,1.191,0c0,0,1.844,0.411,1.442,1.302l-0.53,0.88l-1.12,0.691l0.068,0.555l2.236,1.356
			l0.398-1.356h0.826l5.612,2.726v0.892l0.7-0.646l0.888,0.033l2.056,1.232l0.245,0.925l0.987,2.428l-0.662,3.153l-6.771,3.328
			l-5.797,0.345l-3.421-0.823l-3.163-2.726l-6.433-2.265l-0.858-1.093C67.757,89.712,71.936,83.836,72.365,84.188z"/>
		<path fill="#C3C4C2" d="M93.108,86.12c0,0,0.898,2.224,18.079-7.757c0,0,1.504-1.469-0.131-1.706l-4.578-0.331
			c0,0-13.125-0.902-20.355,3.003c0,0-1.461,1.432-1.254,3.753C84.866,83.088,84.708,83.965,93.108,86.12z"/>
		<path opacity="0.4" fill="#3A3A38" enable-background="new    " d="M69.463,99.708c0,0,4.219,1.069,7.405,0.623
			c0,0,11.511-2.172,13.187-3.713l6.908-2.874l-0.811-1.271c0,0-25.912,5.506-26.688,6.8V99.708z"/>
		<path fill="#22201D" d="M88.811,88.599l0.797,2.43c0,0-0.4,0.912-0.4,1.036c0,0.146-0.183,0.786-0.623,0.966
			c-0.441,0.177-2.58,1.272-3.023,1.458c-0.434,0.186-2.718,0.775-2.982,0.815c-0.266,0.054-1.481,0-1.481,0l-0.662-0.815v-1.125
			l-0.894,0.168c0,0-0.586,0.999-0.586,1.19c0,0.178,0,1.537,0,1.537l3.105,0.638h2.809l2.982-0.638c0,0,2.983-1.26,3.342-1.402
			c0.341-0.135,3.331-2.115,3.331-2.115l-0.132-1.232l-0.756-1.26l-3.721-1.657L88.811,88.599L88.811,88.599z"/>
		<path fill="#CDCCCC" d="M93.447,78.769c0,0-0.951,1.655-0.338,4.475l-1.532,1.804h-0.745l-0.439,0.412h-0.396l-0.177-0.638
			l-0.748-0.41l-0.392,0.044l-6.85,6.925l-1.703,2.405l-0.277,0.915v0.638l0.573,0.369l1.669,0.724l5.389-0.35l6.708-3.153
			l0.178-1.424l-0.744-0.679L88.8,88.599l0.397-0.999l3.595,2.047l2.319,1.717l1.849,1.959v0.412l-0.397-0.132l-0.39-0.457
			l-8.519,3.683c0,0-9.377,2.877-13.628,2.877c0,0-6.889-0.457-7.98-1.19l-1.184-1.916l-0.398-0.32l-0.35,0.18l-0.259,0.358
			c0,0-0.567-5.364,1.227-8.381c0,0,5.963-10.555,13.771-13.377c0,0-7.235,3.458-11.406,12.318l-1.625,3.807l0.785,0.859
			l8.027-2.864l5.308-3.279l11.31-6.749L93.447,78.769z"/>
		<path opacity="0.4" fill="#343A56" enable-background="new    " d="M93.108,78.178c0,0-6.097,0.638-11.401-3
			c0,0-0.088-0.823,0-1.147l0.178-0.322h-1.318l-5.352,3.963c0,0-4.687,5.521-4.819,5.554c-0.133,0.054-2.637,3.737-2.637,3.737
			v1.782l0.53,1.369l1.41,0.411l4.035-0.553l3.113-1.646l16.271-9.972"/>
		<polyline fill="#444130" points="79.299,74.354 79.116,74.076 79.116,71.978 78.901,71.659 75.867,70.342 75.438,70.342 
			74.64,71.063 74.64,72.336 75.213,72.981 76.219,73.94 78.769,74.354 79.076,74.843 79.299,74.65 		"/>
		<path fill="#232321" d="M93.416,77.408c0,0-10.787,5.328-14.864,8.489c0,0-12.108,6.967-10.138,1.909
			c0,0,5.7-11.062,12.391-13.112l0.455-0.688l0.178-0.268h-1.531l-1.009,1.039c0,0-6.706,2.695-13.115,13.024
			c0,0-0.618,1.466-0.925,6.068l0.398,0.638c0,0,5.924-0.512,10.918-3.694l12.539-9.017c0,0,2.29-2.104,5.487-3.331v-0.31
			L93.416,77.408z"/>
		<path fill="#444130" d="M90.789,81.272l0.7-1.483c0,0,1.095-0.116,1.62,0l2.839,2.039c0,0,0.624,0.456,0.624,0.679l-0.214,1.176
			c0,0-0.175,0.756-1.052,0.425l-3.942-1.559C91.362,82.544,90.393,82.087,90.789,81.272z"/>
		<path fill="#343438" d="M92.848,88.984c0,0-0.485-1.548,0.965-2.016l6.181,2.973l0.223-0.277l1.012,0.592l-0.969,2.134
			l-1.67-0.802l-0.083-0.193L92.848,88.984z"/>
		<path fill="#B0B0B0" d="M101.56,91.68c-0.257,0.605-0.677,0.999-0.942,0.88c-0.256-0.119-0.268-0.705-0.006-1.308
			c0.252-0.603,0.672-0.998,0.926-0.879C101.807,90.49,101.813,91.077,101.56,91.68z"/>
		<path fill="#B0B0B0" d="M101.547,91.655c-0.256,0.609-0.755,0.973-1.122,0.807c-0.369-0.167-0.456-0.795-0.199-1.407
			c0.259-0.61,0.763-0.968,1.127-0.804C101.727,90.415,101.807,91.045,101.547,91.655z"/>
		<path fill="#111111" d="M66.465,96.528l3.06,0.496c0,0,2.763,3.013,4.805-0.803l1.475-0.18l1.679-1.67v-0.458l-9.078,0.998
			c0,0-1.045,0.212-1.545,0.646C66.86,95.56,66.465,96.079,66.465,96.528z"/>
		<path fill="#CAB749" d="M66.465,96.443l2.961,0.457c0,0,2.761,3.027,4.799-0.804l1.479-0.168l1.674-1.665v-0.347l-9.068,0.88
			c0,0-1.052,0.201-1.554,0.658C66.756,95.442,66.465,96,66.465,96.443z"/>
		<path fill="#CDCCCC" d="M73.813,94.698c0,0,0.424,1.285-0.657,2.369c0,0-1.609,1.528-3.561-0.59l-0.133,0.181
			c0,0,1.385,1.701,3.054,1.046c0,0,1.401-0.511,1.536-1.972c0,0,0.099-0.541-0.086-0.999L73.813,94.698z"/>
		<path fill="#3A3B3B" d="M81.098,104.438l-6.271,13.2l-0.675,0.204l-1.5-0.892l5.862-13.935
			C78.515,103.011,80.72,103.68,81.098,104.438z"/>
		<path fill="#D1D2D2" d="M80.874,104.26l-6.272,13.191l-0.674,0.198l-1.492-0.885l5.855-13.94
			C78.29,102.824,80.494,103.492,80.874,104.26z"/>
		<polygon opacity="0.3" fill="#CFCFCE" enable-background="new    " points="73.081,88.655 72.957,92.473 73.939,92.038 
			73.939,88.251 		"/>
		<polygon fill="#DEDEDD" points="80.055,88.017 80.055,93.437 80.874,92.39 80.874,87.42 		"/>
		<path fill="#232321" d="M77.206,102.478c0,0,7.733,4.03,11.675,9.031h2.298l17.09-9.094c0,0,1.266-3.013,2.186-3.417l0.244-2.163
			l-5.604-4.445c0,0-0.754,1.41-2.791,2.104l-8.19,2.405l0.761,0.942c0,0-9.218,3.776-11.788,4.106L77.206,102.478z"/>
		<path fill="#010101" d="M94.868,97.847l3.88,4.977c0,0,7.307-4.294,7.442-4.676l-7.764,3.81L94.868,97.847z"/>
		<path fill="#B3B3B3" d="M121.697,88.251"/>
		<path fill="#353635" d="M100.719,76.286l0.731-0.414c0,0,2.601-0.582,4.671,0.203l0.699,0.477c0,0,0.914,1.26-2.342,1.235
			c0,0-2.071-0.11-3.131-0.711c-0.34-0.192-0.654-0.48-0.635-0.795"/>
		<path fill="#353635" d="M111.547,78.365c0,0-5.695,2.493-5.658,4.241c0,0-0.031,1.706,1.031,4.677c0,0-1.564-3.964-0.441-5.166
			C106.479,82.121,106.941,80.993,111.547,78.365z"/>
		<path fill="#232321" d="M123.602,85.927c0,0-1.85-3.236,2.887-4.644c0,0,3.783-0.956,6.152-4.785c0,0,0.225-1.092-0.314-1.232
			c-0.535-0.145-0.656-0.28-1.008-0.28c-0.342,0-0.418-0.412-0.418-0.412s0.297-1.091,4.246-1.456
			c3.938-0.372,4.289-0.32,4.289-0.32l-1.107,1.283c0,0-0.996,1.357-1.613,2.627c-0.621,1.272-2.07,3.653-2.637,4.332
			c-0.574,0.691-8.129,4.475-10.355,4.878"/>
		<path fill="#111111" d="M111.904,103.769c0,0.744-0.611,1.346-1.377,1.346c-0.771,0-1.404-0.602-1.404-1.346
			c0-0.745,0.793-1.482,1.576-1.482C111.48,102.286,111.904,103.03,111.904,103.769z"/>
		<path fill="#838383" d="M111.904,103.769c0,0.584-0.611,1.292-1.205,1.292c-0.602,0-0.828-0.291-0.828-0.872
			c0-0.589,0.76-1.57,1.35-1.57C111.826,102.623,111.904,103.188,111.904,103.769z"/>
		<path fill="#111111" d="M111.391,103.813c0,0.204-0.203,0.448-0.418,0.448c-0.186,0-0.273-0.108-0.273-0.31
			c0-0.188,0.258-0.532,0.449-0.532C111.354,103.416,111.391,103.625,111.391,103.813z"/>
		<path opacity="0.5" fill="#E5E5E5" enable-background="new    " d="M66.465,104.789c0,0-1.345,1.437-2.215,1.773h0.651
			C64.904,106.563,66.298,105.726,66.465,104.789z"/>
		<path fill="#D1D2D1" d="M121.586,97.365v-0.533c0,0,5.459-2.206,7.172-1.243c0,0,1.58,1.822-0.992,5.987
			c0,0-1.949,2.714-3.547,2.827l-7.303,1.021v-0.366l7.09-1.221c0,0,2.416,0.423,4.283-4.118c0,0,2.17-4.953-2.496-3.744
			L121.586,97.365z"/>
		<path opacity="0.5" fill="#FFFFFF" enable-background="new    " d="M100.075,77.948c0,0-0.961,5.03-2.226,7.28l2.585-1.125
			c0,0,2.063-5.856,1.246-6.866c0,0-0.583-0.031-0.87-0.646c-0.041-0.098-0.068-0.199-0.095-0.321l-0.654,0.034
			C100.075,76.307,100.203,77.305,100.075,77.948z"/>
		<path fill="#A09F9F" d="M74.243,115.849c0.313,0,0.561,0.269,0.561,0.583c0,0.329-0.248,0.585-0.561,0.585
			c-0.311,0-0.567-0.256-0.567-0.585C73.676,116.113,73.932,115.849,74.243,115.849z"/>
		<circle fill="#282828" cx="74.243" cy="116.439" r="0.283"/>
	</g>
</g>
</svg>
