<?xml version="1.0" encoding="utf-8"?>
<!-- Generator: Adobe Illustrator 16.0.0, SVG Export Plug-In . SVG Version: 6.00 Build 0)  -->
<!DOCTYPE svg PUBLIC "-//W3C//DTD SVG 1.1//EN" "http://www.w3.org/Graphics/SVG/1.1/DTD/svg11.dtd">
<svg version="1.1" id="Layer_1" xmlns="http://www.w3.org/2000/svg" xmlns:xlink="http://www.w3.org/1999/xlink" x="0px" y="0px"
	 width="200px" height="200px" viewBox="0 0 200 200" enable-background="new 0 0 200 200" xml:space="preserve">
<g id="Direction">
	<g transform="rotate({{angle}} 50 50)">
		<polygon id="arrow" opacity="0.7" fill="#ff0000" enable-background="new    " points="47.181,119.518 27.525,95.875 
			46.913,72.238 57.804,72.238 57.804,72.503 38.415,95.875 57.806,118.453 57.804,119.518 		">
		
	
		</polygon>
		<polygon id="arrow2" opacity="0.7" fill="#ff0000" enable-background="new    " points="33.899,119.781 14.245,96.145 
			33.901,72.503 44.522,72.505 44.522,72.769 25.401,96.145 44.522,118.721 44.522,119.781 		">
		

		</polygon>
		<polygon id="arrow3" opacity="0.7" fill="#ff0000" enable-background="new    " points="20.618,120.051 1.229,96.408 
			20.62,72.769 31.511,72.769 31.511,73.035 12.12,96.408 31.509,118.984 31.509,120.051 		">
	
		</polygon>
	</g>
</g>
<g>
	<polygon fill="#141414" points="61.6,93.373 59.763,92.905 59.263,94.474 58.683,94.393 57.806,97.47 58.282,97.556 57.806,99.164 
		59.227,100.313 59.392,100.019 58.147,98.94 58.588,97.761 59.056,97.846 60.021,94.654 59.578,94.491 59.896,93.248 
		61.445,93.824 	"/>
	<g id="Tire_2_2_">
		<path d="M119.379,111.285c0,0-3.582-1.078-5.211-4.689c0,0-0.514-5.918,4.932-7.136c0,0,4.198,0.767,5.888,3.58
			C126.697,106.415,119.379,111.285,119.379,111.285z"/>
		<path fill="#333333" d="M124.399,108.541c-1.425,2.461-4.019,3.391-5.672,2.497c-1.656-0.896-1.849-3.698-0.208-6.07
			c1.428-2.462,4.019-3.394,5.675-2.496C125.852,103.377,125.959,106.411,124.399,108.541z"/>
		<path fill="#999999" d="M123.65,103.912c-1.215-0.739-2.979-0.043-4.128,1.706c-1.154,1.741-0.912,3.738,0.302,4.472
			c1.224,0.728,2.988,0.03,4.135-1.709C124.903,106.556,124.876,104.641,123.65,103.912z M123.092,108.054
			c-0.579,0.866-1.416,1.097-1.852,0.928c-0.648-0.24-0.513-1.28-0.024-1.912c0.489-0.642,1.415-1.11,1.846-0.937
			C123.508,106.298,123.666,107.181,123.092,108.054z"/>
		<path fill="#FFFFFF" d="M121.333,104.121c0,0,0.564,0.488,0.728,1.365l-0.302,0.155c0,0-0.298-1.187-0.733-1.362L121.333,104.121z
			"/>
		
			<animateTransform  type="translate" fill="remove" attributeType="XML" accumulate="none" repeatCount="indefinite" additive="replace" begin="0s" values="0,0;0.1,0.1;0,0" restart="always" calcMode="linear" dur="1" attributeName="transform">
			</animateTransform>
	</g>
	<g id="BAck">
		<g id="container">
			<polygon fill="#333333" points="88.622,112.73 103.586,106.771 103.537,107.577 102.96,107.944 102.776,110.962 87.792,117.321 
				87.858,113.085 			"/>
			<polygon fill="#666666" points="91.114,114.291 106.071,108.541 106.033,109.141 105.458,109.511 105.259,112.736 
				90.097,118.875 90.345,114.854 			"/>
			<path fill="#D1D1D1" d="M73.882,93.657l0.732-12.078c0,0-0.063-2.025,1.103-2.962l34.931-12.019l1.083,0.472l18.449,9.344
				c0,0,1.841,0.113,0.966,2.283l-1.623,21.166L93.146,114.21L73.882,93.657z"/>
			<polygon fill="#AFAFAF" points="75.213,80.81 93.257,91.198 92.367,111.951 75.529,96.986 74.336,95.3 			"/>
			<polygon fill="#AAAAAA" points="75.72,81.651 92.866,91.579 92.059,110.915 75.376,96.375 74.173,94.884 			"/>
			<polygon fill="#0F0F0F" points="110.752,97.046 95.139,103.145 95.529,91.283 111.192,85.901 			"/>
			<polygon fill="#3D3D3D" points="110.47,96.923 95.273,102.824 95.688,91.426 110.932,86.214 			"/>
			<polygon fill="#191919" points="127.713,90.556 113.347,96.144 113.741,85.192 128.555,79.571 			"/>
			<polygon fill="#3D3D3D" points="127.495,90.414 113.618,95.818 113.993,85.222 128.309,79.786 			"/>
		</g>
		<polygon opacity="0.8" fill="#F9F4F4" enable-background="new    " points="100.996,89.615 98.421,101.598 100.996,100.598 
			102.633,89.053 		"/>
		<polygon opacity="0.8" fill="#F9F4F4" enable-background="new    " points="117.895,94.15 119.697,93.446 121.445,82.391 
			120.084,82.911 		"/>
	</g>
	<g>
		<path fill="#141414" d="M91.989,111.674c0,0,3.694,2.268,2.335,7.276l-7.535-4.053C86.789,114.9,88.644,110.516,91.989,111.674z"
			/>
		<path fill="#4C4C4C" d="M91.979,111.941c0,0,3.469,2.298,1.976,6.82l-7.879-3.112C86.083,115.649,88.632,110.782,91.979,111.941z"
			/>
	</g>
	<g id="Tire_2_1_">
		<path d="M86.116,123.764c0,0-3.582-1.082-5.215-4.692c0,0-0.514-5.914,4.931-7.136c0,0,4.199,0.775,5.886,3.585
			C93.433,118.896,86.116,123.764,86.116,123.764z"/>
		<path fill="#333333" d="M91.135,121.024c-1.424,2.456-4.018,3.386-5.675,2.487c-1.654-0.892-1.848-3.688-0.207-6.066
			c1.426-2.463,4.02-3.391,5.674-2.494C92.585,115.854,92.692,118.885,91.135,121.024z"/>
		<path fill="#999999" d="M90.386,116.389c-1.212-0.733-2.974-0.037-4.127,1.707s-0.909,3.745,0.308,4.473
			c1.22,0.728,2.979,0.036,4.135-1.713C91.637,119.029,91.613,117.116,90.386,116.389z M89.827,120.526
			c-0.579,0.883-1.418,1.108-1.851,0.934c-0.657-0.246-0.514-1.276-0.026-1.913c0.489-0.628,1.418-1.103,1.849-0.936
			C90.24,118.778,90.403,119.654,89.827,120.526z"/>
		<path fill="#FFFFFF" d="M88.068,116.599c0,0,0.562,0.486,0.732,1.366l-0.309,0.156c0,0-0.297-1.191-0.736-1.366L88.068,116.599z"
			/>
	</g>
	<g id="Body">
		<path fill="#474747" d="M58.465,112.689l0.514-10.419c0,0,0.877-13.698,13.739-17.151h2.69l15.667,10.003L92.24,98.1v13.574
			c0,0-9.354,2.857-9.939,10.72c0,0-1.988,1.195-7.13,0.596C70.029,122.394,58.465,112.689,58.465,112.689z"/>
		<path fill="#D1D1D1" d="M57.588,112.689l0.525-10.419c0,0,0.895-13.698,13.993-17.151h2.739l15.956,10.003l1.19,2.978v13.574
			c0,0-9.527,2.857-10.124,10.72c0,0-2.025,1.195-7.266,0.596C69.357,122.394,57.588,112.689,57.588,112.689z"/>
		<path fill="#1E1E1E" d="M72.873,120.07l0.056-2.077c0,0,5.031-0.363,6.71-0.363l-0.053,3.374
			C79.586,121.004,76.258,121.532,72.873,120.07z"/>
		<path opacity="0.9" fill="#D1C269" enable-background="new    " d="M72.868,120.138l0.052-1.939c0,0,4.867-0.339,6.487-0.339
			l-0.05,3.149C79.355,121.009,76.143,121.506,72.868,120.138z"/>
		<path fill="#3D3D3D" d="M58.465,103.33c0,0,0.286-6.905,4.585-11.779l17.027,10.123l-2.263,12.268
			C77.819,113.941,66.742,111.674,58.465,103.33z"/>
		<polygon fill="#3D3D3D" points="81.39,101.781 79.365,113.459 80.079,113.459 89.727,104.141 89.727,99.342 88.832,98.447 		"/>
		<path opacity="0.8" fill="#E0E0E0" enable-background="new    " d="M64.646,92.74c0,0-2.547,5.673-2.547,13.264
			c0,0,0.972,1.025,1.566,1.381c0,0,0.699-10.343,2.248-13.799L64.646,92.74z"/>
		<polygon fill="#1E1E1E" points="57.969,106.977 61.354,110.967 61.277,113.105 57.806,110.541 		"/>
		<polygon opacity="0.9" fill="#D1C269" enable-background="new    " points="57.969,107.24 61.354,111.233 61.277,113.373 
			57.806,110.808 		"/>
		<path fill="#3D3D3D" d="M57.806,110.306c0,0,10.903,8.488,15.01,9.765c0,0,5.875,2.144,9.669-0.031l0,0l-0.261,2.206l-0.118,0.415
			c0,0-4.881,1.432-8.931,0c0,0-3.077-1.118-5.909-2.979c0,0-6.93-4.349-9.682-6.996C57.588,112.689,57.438,110.306,57.806,110.306z
			"/>
		<path fill="#3D3D3D" d="M56.265,117.48"/>
		<path fill="#7A7A7A" d="M61.354,111.233c0,0,10.326,7.078,11.514,6.991l-0.053,1.846c0,0-4.085-1.349-11.464-7.104L61.354,111.233
			L61.354,111.233z"/>
		<path fill="#4C4C4C" d="M98.421,116.101"/>
	</g>
	<polygon fill="#141414" points="81.154,103.145 82.991,103.617 82.991,105.371 83.52,105.554 83.52,108.9 82.976,108.541 
		83.066,110.377 79.901,110.377 79.901,110.038 82.708,110.019 82.708,108.541 82.267,108.228 82.172,104.97 82.708,105.147 
		82.708,103.854 81.069,103.617 	"/>
</g>
</svg>
