<?xml version="1.0" encoding="utf-8"?>
<!-- Generator: Adobe Illustrator 16.0.0, SVG Export Plug-In . SVG Version: 6.00 Build 0)  -->
<!DOCTYPE svg PUBLIC "-//W3C//DTD SVG 1.1//EN" "http://www.w3.org/Graphics/SVG/1.1/DTD/svg11.dtd">
<svg version="1.1" id="Layer_1" xmlns="http://www.w3.org/2000/svg" xmlns:xlink="http://www.w3.org/1999/xlink" x="0px" y="0px"
	 width="200px" height="200px" viewBox="0 0 200 200" enable-background="new 0 0 200 200" xml:space="preserve">
<g>
	<polygon fill="#141414" points="61.6,93.373 59.763,92.905 59.263,94.474 58.683,94.393 57.806,97.47 58.282,97.556 57.806,99.164 
		59.227,100.313 59.392,100.019 58.147,98.94 58.588,97.761 59.056,97.846 60.021,94.654 59.578,94.491 59.896,93.248 
		61.445,93.824 	"/>
	<g id="Tire_2_2_">
		<path d="M119.379,111.285c0,0-3.582-1.078-5.211-4.689c0,0-0.514-5.918,4.932-7.136c0,0,4.198,0.767,5.889,3.58
			C126.697,106.415,119.379,111.285,119.379,111.285z"/>
		<path fill="#333333" d="M124.398,108.541c-1.424,2.461-4.02,3.391-5.672,2.497c-1.656-0.896-1.85-3.698-0.207-6.07
			c1.428-2.462,4.019-3.394,5.674-2.495C125.852,103.377,125.959,106.411,124.398,108.541z"/>
		<path fill="#999999" d="M123.65,103.912c-1.215-0.739-2.979-0.043-4.129,1.706c-1.153,1.741-0.912,3.737,0.303,4.472
			c1.224,0.729,2.988,0.03,4.135-1.709C124.902,106.557,124.876,104.641,123.65,103.912z M123.092,108.055
			c-0.578,0.865-1.416,1.096-1.852,0.928c-0.648-0.239-0.514-1.279-0.024-1.912c0.489-0.643,1.415-1.109,1.847-0.938
			C123.508,106.298,123.666,107.182,123.092,108.055z"/>
		<path fill="#FFFFFF" d="M121.333,104.121c0,0,0.563,0.488,0.728,1.365l-0.302,0.154c0,0-0.298-1.188-0.733-1.361L121.333,104.121z
			"/>
		
			<animateTransform  fill="remove" type="translate" attributeName="transform" restart="always" accumulate="none" dur="1" calcMode="linear" begin="0s" repeatCount="indefinite" additive="replace" values="0,0;0.1,0.1;0,0" attributeType="XML">
			</animateTransform>
	</g>
	<g id="BAck">
		<g id="container">
			<polygon fill="#333333" points="88.622,112.73 103.586,106.771 103.537,107.577 102.96,107.943 102.775,110.962 87.792,117.32 
				87.858,113.085 			"/>
			<polygon fill="#666666" points="91.114,114.291 106.07,108.541 106.033,109.141 105.458,109.511 105.259,112.736 90.097,118.875 
				90.345,114.854 			"/>
			<path fill="#D1D1D1" d="M73.882,93.657l0.732-12.078c0,0-0.063-2.025,1.103-2.962l34.932-12.019l1.082,0.472l18.449,9.344
				c0,0,1.842,0.113,0.967,2.283l-1.623,21.166L93.146,114.21L73.882,93.657z"/>
			<polygon fill="#AFAFAF" points="75.213,80.81 93.257,91.198 92.367,111.951 75.529,96.986 74.336,95.3 			"/>
			<polygon fill="#AAAAAA" points="75.72,81.651 92.866,91.579 92.059,110.915 75.376,96.375 74.173,94.884 			"/>
			<polygon fill="#0F0F0F" points="110.752,97.046 95.139,103.145 95.529,91.283 111.191,85.901 			"/>
			<polygon fill="#3D3D3D" points="110.471,96.923 95.273,102.824 95.688,91.426 110.932,86.214 			"/>
			<polygon fill="#191919" points="127.713,90.556 113.348,96.144 113.741,85.192 128.555,79.571 			"/>
			<polygon fill="#3D3D3D" points="127.495,90.414 113.618,95.818 113.993,85.222 128.309,79.786 			"/>
		</g>
		<polygon opacity="0.8" fill="#F9F4F4" enable-background="new    " points="100.996,89.615 98.421,101.598 100.996,100.598 
			102.633,89.053 		"/>
		<polygon opacity="0.8" fill="#F9F4F4" enable-background="new    " points="117.895,94.15 119.697,93.446 121.445,82.391 
			120.084,82.911 		"/>
	</g>
	<g>
		<path fill="#141414" d="M91.989,111.674c0,0,3.694,2.268,2.335,7.276l-7.535-4.054C86.789,114.9,88.644,110.516,91.989,111.674z"
			/>
		<path fill="#4C4C4C" d="M91.979,111.941c0,0,3.469,2.298,1.976,6.818l-7.879-3.111C86.083,115.648,88.632,110.782,91.979,111.941z
			"/>
	</g>
	<g id="Tire_2_1_">
		<path d="M86.116,123.764c0,0-3.582-1.082-5.215-4.69c0,0-0.514-5.914,4.931-7.138c0,0,4.199,0.775,5.886,3.586
			C93.433,118.896,86.116,123.764,86.116,123.764z"/>
		<path fill="#333333" d="M91.135,121.023c-1.424,2.457-4.018,3.387-5.675,2.486c-1.654-0.892-1.848-3.688-0.207-6.064
			c1.426-2.463,4.02-3.391,5.674-2.494C92.585,115.854,92.692,118.885,91.135,121.023z"/>
		<path fill="#999999" d="M90.386,116.389c-1.212-0.731-2.974-0.037-4.127,1.707c-1.153,1.744-0.909,3.745,0.308,4.473
			c1.22,0.729,2.979,0.037,4.135-1.713C91.637,119.029,91.613,117.116,90.386,116.389z M89.827,120.525
			c-0.579,0.884-1.418,1.107-1.851,0.935c-0.657-0.246-0.514-1.276-0.026-1.913c0.489-0.628,1.418-1.104,1.849-0.936
			C90.24,118.777,90.403,119.654,89.827,120.525z"/>
		<path fill="#FFFFFF" d="M88.068,116.6c0,0,0.562,0.485,0.732,1.365l-0.309,0.156c0,0-0.297-1.191-0.736-1.366L88.068,116.6z"/>
	</g>
	<g id="Body">
		<path fill="#474747" d="M58.465,112.689l0.514-10.42c0,0,0.877-13.697,13.739-17.15h2.69l15.667,10.003L92.24,98.1v13.574
			c0,0-9.354,2.857-9.939,10.721c0,0-1.988,1.194-7.13,0.597C70.029,122.395,58.465,112.689,58.465,112.689z"/>
		<path fill="#D1D1D1" d="M57.588,112.689l0.525-10.42c0,0,0.895-13.697,13.993-17.15h2.739l15.956,10.003l1.19,2.978v13.574
			c0,0-9.527,2.857-10.124,10.721c0,0-2.025,1.194-7.266,0.597C69.357,122.395,57.588,112.689,57.588,112.689z"/>
		<path fill="#1E1E1E" d="M72.873,120.07l0.056-2.077c0,0,5.031-0.363,6.71-0.363l-0.053,3.374
			C79.586,121.004,76.258,121.532,72.873,120.07z"/>
		<path opacity="0.9" fill="#D1C269" enable-background="new    " d="M72.868,120.139l0.052-1.938c0,0,4.867-0.341,6.487-0.341
			l-0.05,3.149C79.355,121.009,76.143,121.506,72.868,120.139z"/>
		<path fill="#3D3D3D" d="M58.465,103.33c0,0,0.286-6.905,4.585-11.779l17.027,10.123l-2.263,12.268
			C77.819,113.941,66.742,111.674,58.465,103.33z"/>
		<polygon fill="#3D3D3D" points="81.39,101.781 79.365,113.459 80.079,113.459 89.727,104.141 89.727,99.342 88.832,98.447 		"/>
		<path opacity="0.8" fill="#E0E0E0" enable-background="new    " d="M64.646,92.74c0,0-2.547,5.673-2.547,13.264
			c0,0,0.972,1.025,1.566,1.381c0,0,0.699-10.343,2.248-13.799L64.646,92.74z"/>
		<polygon fill="#1E1E1E" points="57.969,106.977 61.354,110.967 61.277,113.105 57.806,110.541 		"/>
		<polygon opacity="0.9" fill="#D1C269" enable-background="new    " points="57.969,107.24 61.354,111.232 61.277,113.373 
			57.806,110.809 		"/>
		<path fill="#3D3D3D" d="M57.806,110.307c0,0,10.903,8.487,15.01,9.764c0,0,5.875,2.146,9.669-0.029l0,0l-0.261,2.206l-0.118,0.415
			c0,0-4.881,1.432-8.931,0c0,0-3.077-1.118-5.909-2.979c0,0-6.93-4.35-9.682-6.996C57.588,112.689,57.438,110.307,57.806,110.307z"
			/>
		<path fill="#3D3D3D" d="M56.265,117.48"/>
		<path fill="#7A7A7A" d="M61.354,111.232c0,0,10.326,7.078,11.514,6.992l-0.053,1.846c0,0-4.085-1.35-11.464-7.104L61.354,111.232
			L61.354,111.232z"/>
		<path fill="#4C4C4C" d="M98.421,116.102"/>
	</g>
	<polygon fill="#141414" points="81.154,103.145 82.991,103.617 82.991,105.371 83.52,105.555 83.52,108.9 82.976,108.541 
		83.066,110.377 79.901,110.377 79.901,110.038 82.708,110.02 82.708,108.541 82.267,108.229 82.172,104.971 82.708,105.146 
		82.708,103.854 81.069,103.617 	"/>
</g>
<g>
	<ellipse fill="#FFFFFF" cx="98.074" cy="34.075" rx="18.667" ry="18.25"/>
	<path fill="#ADADAD" d="M98.421,8.833c-13.94,0-25.241,11.301-25.241,25.241c0,13.94,11.301,25.241,25.241,25.241
		s25.241-11.3,25.241-25.241C123.662,20.133,112.361,8.833,98.421,8.833z M106.254,20.112l-7.833,7.834l-7.834-7.834
		c2.317-1.303,4.986-2.055,7.834-2.055C101.268,18.058,103.936,18.81,106.254,20.112z M84.458,26.24l7.834,7.834l-7.835,7.835
		c-1.303-2.317-2.054-4.986-2.054-7.834C82.403,31.228,83.154,28.558,84.458,26.24z M98.419,50.092
		c-2.848,0-5.517-0.751-7.834-2.055l7.835-7.835l7.835,7.835C103.938,49.34,101.268,50.092,98.419,50.092z M112.383,41.91
		l-7.836-7.835l7.836-7.835c1.303,2.317,2.055,4.987,2.055,7.835C114.436,36.923,113.686,39.592,112.383,41.91z"/>
</g>
</svg>
