<?xml version="1.0" encoding="utf-8"?>
<!-- Generator: Adobe Illustrator 16.0.0, SVG Export Plug-In . SVG Version: 6.00 Build 0)  -->
<!DOCTYPE svg PUBLIC "-//W3C//DTD SVG 1.1//EN" "http://www.w3.org/Graphics/SVG/1.1/DTD/svg11.dtd">
<svg version="1.1" id="Layer_1" xmlns="http://www.w3.org/2000/svg" xmlns:xlink="http://www.w3.org/1999/xlink" x="0px" y="0px"
	 width="200px" height="200px" viewBox="0 0 200 200" enable-background="new 0 0 200 200" xml:space="preserve">
<g>
	<path fill="#C6C6C6" d="M60.59,106.317l7.625-13.12c0,0,1.95-2.515,4.066-1.889l55.27-19.459l5.313,11.303l-11.852,6.496
		l-21.854,11.155c0,0-21.629,12.607-25.485,12.369l-4.016-11.753L60.59,106.317z"/>
	<path fill="#8E8E8E" d="M64.471,99.984l-6.742,3.749c0,0-1.716,0.783-3.065,3.726l-3.432,7.599v1.471l0.82,0.41
		c0,0,6.289-0.165,10.174,1.349c0,0,4.33,1.513,4.944,4.657l1.267,1.471c0,0,10.172-2.532,21.285-5.063l1.836-0.613l23.654-13.643
		l15.363-8.335c0,0,6.334-4.127,7.029-8.049v-7.517l-7.357-10.744l-4.699-2.614l-0.654-0.942l-5.426-2.545l-0.256-0.356
		c0,0-8.203,2.317-10.405,0.86l-6.799,3.312l-1.021,1.103l-0.94,1.388l0.042,0.49l0.693,0.408l-0.04,0.45l-0.615,0.163
		l-12.542,6.779c0,0-2.583,1.226-3.718,2.003l-9.518,4.981c0,0-1.876,0.735-1.796,2.411l-1.429,2.737c0,0-2.656,1.061-3.065,2.451
		L64.471,99.984z"/>
	<path fill="#B2B2B2" d="M67.691,94.206l0.524-1.013c0,0,1.79-1.829,4.068-2.484l55.268-18.862l5.313,11.303l-11.848,6.498
		l-21.858,11.155c0,0-19.527,11.071-22.428,11.435l-7.886-10.253L67.691,94.206z"/>
	<path fill="#CCCCCC" d="M72.643,87.756l-2.002,4.497c0,0-0.939,7.028,13.891,6.331l2.247-5.389
		C86.778,93.197,74.276,95.15,72.643,87.756z"/>
	<path fill="#F4F4F4" d="M73.582,86.216l26.556-14.053l-0.04-1.021l25.139-3.76l4.402,2.494l0.406,0.49L86.817,93.409l-1.308,0.326
		c0,0-9.643,0.777-12.83-4.88C72.684,88.854,71.786,87.036,73.582,86.216z"/>
	<polygon fill="#639DAD" points="64.961,99.984 64.471,99.984 57.517,104.18 56.136,105.438 55.065,107.063 52.859,112.547 
		51.663,115.428 51.969,115.979 53.869,115.979 70.629,114.813 76.851,113.097 77.004,112.427 	"/>
	<path fill="#F4F4F4" d="M64.471,99.984l-6.289,3.924c0,0-2.165,1.716-3.026,3.47l-3.146,7.764v0.491c0,0,16.261-0.858,20.591-1.717
		c0,0,6.744-1.367,26.556-13.112l0.49,0.775c0,0-23.042,13.479-26.964,13.398c0,0-2.248,0.655-20.632,1.961l-0.82-0.41v-1.471
		l3.797-8.319c0,0,1.078-2.068,2.259-2.73L64.471,99.984z"/>
	<path fill="#F4F4F4" d="M102.019,68.161l13.36-6.498l9.762,5.311c0,0,0.451,0.858-0.611,1.513l-10.905,5.841h-4.458l-7.147-4.29
		C102.019,70.038,100.953,69.388,102.019,68.161z"/>
	<path fill="#CCCCCC" d="M101.869,68.356c0,0-2.386,2.42-1.773,2.787l9.479,5.433c0,0,2.286,0.693,4.539-0.33l11.931-6.699
		c0,0,0.449-0.14,0.449-0.561l-1.598-2.093l0.041,1.104l-0.164,0.448l-0.326,0.328l-11.057,5.763l-3.566,0.113l-8.039-4.822
		C101.785,69.823,101.543,69.099,101.869,68.356z"/>
	<polygon fill="#639DAD" points="99.157,100.802 122.984,88.568 122.039,89.688 121.588,90.139 121.465,91.159 121.422,91.814 
		99.82,103.245 	"/>
	<polygon fill="#FFFFFF" points="99.444,102.847 100.222,103.661 121.832,92.264 121.832,90.223 134.131,83.685 127.551,71.851 
		132.863,83.152 121.016,89.648 121.016,91.569 	"/>
	<path fill="#CCCCCC" d="M68.215,93.197l-7.623,13.12c0,0-0.49,3.39,2.982,5.309c0,0,6.29,3.593,13.153,0.612l7.273-12.256
		C84.001,99.984,70.176,102.065,68.215,93.197z"/>
	<path fill="#757575" d="M91.282,79.241l7.63-3.955c0,0,2.086-0.278,3.311,0.278l3.224,1.9c0,0,0.769,0.889-0.435,1.777
		l-6.988,3.616c0,0-1.805,0.337-3.368-0.278l-3.372-2.145C91.282,80.437,90.855,79.701,91.282,79.241z"/>
	<path fill="#D8D8D8" d="M91.714,79.232l7.198-3.732c0,0,1.969-0.261,3.125,0.256l3.033,1.796c0,0,0.725,0.841-0.405,1.678
		l-6.592,3.415c0,0-1.7,0.318-3.176-0.261l-3.183-2.026C91.714,80.362,91.31,79.667,91.714,79.232z"/>
	<path fill="#6AA7BF" d="M74.339,86.841l11.123-5.056L93,85.521c0,0,1.195,0.913-0.886,2.234l-8.272,4.232
		c0,0-2.118,0.767-4.938-0.279l-4.781-2.859C74.123,88.854,72.989,88.005,74.339,86.841z"/>
	<path fill="#6D6D6D" d="M75.206,86.764l10.112-4.649l6.592,3.103c0,0,0.872,0.754-1.058,1.991l-7.603,4.103
		c0,0-1.785,0.851-4.397-0.127l-3.926-2.611C74.925,88.568,73.954,87.852,75.206,86.764z"/>
	<path fill="#BBE0F2" d="M92.639,79.55l6.357-3.242c0,0,1.739-0.23,2.754,0.224l2.682,1.559c0,0,0.639,0.731-0.36,1.459
		l-5.818,2.971c0,0-1.507,0.275-2.81-0.227l-2.811-1.76C92.639,80.532,92.285,79.927,92.639,79.55z"/>
	<path fill="#D8D8D8" d="M76.176,86.442l6.128-3.279c0,0,0.459,0.458,3.922-5.852c0,0,1.748-0.919,1.287,1.042
		c0,0-0.551,3.523-0.432,3.616c0.12,0.092,4.007,2.513,4.007,2.513s1.631,1.164,0.281,1.961l-8.546,4.596c0,0-1.839,0.613-3.49,0
		l-3.891-2.47C75.44,88.568,73.885,87.668,76.176,86.442z"/>
	<g>
		<polygon fill="#424242" points="61.909,117.22 61.925,117.896 64.033,117.706 64.021,117 		"/>
		<polygon fill="#424242" points="65.281,116.979 65.289,117.59 69.234,117.216 69.22,116.48 		"/>
		<polygon fill="#424242" points="99.647,107.334 100.463,106.768 100.482,107.813 99.663,108.307 		"/>
		<polygon fill="#424242" points="101.77,106.254 102.589,105.691 102.608,106.728 101.789,107.227 		"/>
		<polygon fill="#424242" points="103.807,105.178 104.623,104.611 104.643,105.65 103.822,106.148 		"/>
		<polygon fill="#424242" points="105.933,104.096 106.752,103.529 106.768,104.574 105.952,105.072 		"/>
		<polygon fill="#424242" points="107.81,102.778 108.629,102.211 108.645,103.253 107.828,103.749 		"/>
		<polygon fill="#424242" points="109.936,101.702 110.752,101.135 110.771,102.177 109.951,102.671 		"/>
		<polygon fill="#424242" points="111.824,100.714 112.644,100.146 112.658,101.185 111.843,101.683 		"/>
		<polygon fill="#424242" points="113.949,99.634 114.77,99.066 114.788,100.108 113.969,100.603 		"/>
		<polygon fill="#424242" points="115.987,98.554 116.803,97.988 116.822,99.028 116.002,99.526 		"/>
		<polygon fill="#424242" points="118.113,97.478 118.93,96.91 118.947,97.952 118.129,98.446 		"/>
		<polygon fill="#424242" points="119.99,96.155 120.805,95.589 120.824,96.629 120.006,97.123 		"/>
		<polygon fill="#424242" points="122.115,95.077 122.932,94.511 122.951,95.553 122.131,96.047 		"/>
		<polygon fill="#424242" points="124.148,93.997 124.965,93.433 124.984,94.475 124.164,94.969 		"/>
		<polygon fill="#424242" points="126.092,92.937 126.91,92.373 126.926,93.413 126.111,93.907 		"/>
	</g>
	<polygon fill="#424242" points="87.923,93.771 90.21,92.515 90.21,94.346 87.923,95.589 	"/>
	<polygon fill="#424242" points="90.767,92.233 93.054,90.978 93.054,92.808 90.767,94.053 	"/>
	<polygon fill="#424242" points="93.561,90.701 95.848,89.443 95.848,91.276 93.561,92.521 	"/>
	<polygon fill="#424242" points="96.405,89.164 98.694,87.905 98.694,89.74 96.405,90.983 	"/>
	<polygon fill="#424242" points="99.157,87.8 101.447,86.542 101.447,88.375 99.157,89.617 	"/>
	<polygon fill="#424242" points="101.999,86.261 104.289,85.006 104.289,86.835 101.999,88.082 	"/>
	<polygon fill="#424242" points="104.635,84.91 106.921,83.654 106.921,85.486 104.635,86.729 	"/>
	<polygon fill="#424242" points="107.477,83.372 109.764,82.114 109.764,83.949 107.477,85.191 	"/>
	<polygon fill="#424242" points="110.096,81.876 112.383,80.62 112.383,82.455 110.096,83.698 	"/>
	<polygon fill="#424242" points="112.935,80.341 115.225,79.084 115.225,80.917 112.935,82.16 	"/>
	<polygon fill="#424242" points="115.692,78.803 117.982,77.544 117.982,79.379 115.692,80.62 	"/>
	<polygon fill="#424242" points="118.534,77.265 120.824,76.009 120.824,77.841 118.534,79.084 	"/>
	<polygon fill="#424242" points="121.584,75.706 123.873,74.45 123.873,76.283 121.584,77.525 	"/>
	<polygon fill="#424242" points="124.426,74.168 126.715,72.912 126.715,74.745 124.426,75.99 	"/>
	<polygon fill="#424242" points="86.286,100.495 88.576,99.241 88.576,101.073 86.286,102.314 	"/>
	<polygon fill="#424242" points="89.128,98.959 91.417,97.701 91.417,99.534 89.128,100.778 	"/>
	<polygon fill="#424242" points="91.926,97.428 94.214,96.171 94.214,98.004 91.926,99.245 	"/>
	<polygon fill="#424242" points="94.768,95.89 97.054,94.631 97.054,96.464 94.768,97.707 	"/>
	<polygon fill="#424242" points="97.521,94.524 99.808,93.27 99.808,95.103 97.521,96.344 	"/>
	<polygon fill="#424242" points="100.364,92.988 102.65,91.729 102.65,93.563 100.364,94.808 	"/>
	<polygon fill="#424242" points="102.995,91.634 105.285,90.38 105.285,92.213 102.995,93.453 	"/>
	<polygon fill="#424242" points="105.837,90.099 108.127,88.842 108.127,90.673 105.837,91.916 	"/>
	<polygon fill="#424242" points="108.457,88.604 110.748,87.346 110.748,89.181 108.457,90.424 	"/>
	<polygon fill="#424242" points="111.299,87.064 113.586,85.811 113.586,87.643 111.299,88.886 	"/>
	<polygon fill="#424242" points="114.057,85.524 116.344,84.272 116.344,86.105 114.057,87.346 	"/>
	<polygon fill="#424242" points="116.898,83.991 119.186,82.734 119.186,84.565 116.898,85.811 	"/>
	<polygon fill="#424242" points="119.947,82.432 122.234,81.176 122.234,83.011 119.947,84.251 	"/>
	<polygon fill="#424242" points="122.789,80.896 125.076,79.638 125.076,81.471 122.789,82.714 	"/>
	<polygon fill="#424242" points="83.75,105.566 86.041,104.313 86.041,106.141 83.75,107.384 	"/>
	<polygon fill="#424242" points="86.591,104.026 88.88,102.774 88.88,104.607 86.591,105.848 	"/>
	<polygon fill="#424242" points="89.392,102.498 91.679,101.242 91.679,103.077 89.392,104.316 	"/>
	<polygon fill="#424242" points="92.232,100.963 94.521,99.704 94.521,101.537 92.232,102.778 	"/>
	<polygon fill="#424242" points="94.985,99.595 97.273,98.341 97.273,100.174 94.985,101.415 	"/>
	<polygon fill="#424242" points="97.824,98.06 100.115,96.801 100.115,98.634 97.824,99.879 	"/>
	<polygon fill="#424242" points="100.459,96.705 102.75,95.451 102.75,97.283 100.459,98.526 	"/>
	<polygon fill="#424242" points="103.301,95.166 105.588,93.913 105.588,95.746 103.301,96.987 	"/>
	<polygon fill="#424242" points="105.922,93.676 108.212,92.417 108.212,94.25 105.922,95.491 	"/>
	<polygon fill="#424242" points="108.764,92.136 111.05,90.882 111.05,92.71 108.764,93.957 	"/>
	<polygon fill="#424242" points="111.521,90.598 113.808,89.344 113.808,91.177 111.521,92.417 	"/>
	<polygon fill="#424242" points="114.363,89.063 116.65,87.804 116.65,89.637 114.363,90.882 	"/>
	<polygon fill="#424242" points="117.412,87.503 119.699,86.245 119.699,88.082 117.412,89.322 	"/>
	<polygon fill="#424242" points="120.254,85.967 122.541,84.709 122.541,86.542 120.254,87.787 	"/>
	<polygon fill="#424242" points="123.004,84.428 125.295,83.171 125.295,85.002 123.004,86.245 	"/>
	<polygon fill="#424242" points="125.785,82.89 128.072,81.631 128.072,83.462 125.785,84.705 	"/>
	<polygon fill="#424242" points="128.4,81.555 130.688,80.298 130.688,82.129 128.4,83.372 	"/>
	<polygon fill="#424242" points="125.344,79.358 127.635,78.1 127.635,79.931 125.344,81.176 	"/>
	<polygon fill="#424242" points="101.543,71.976 101.543,73.665 104.183,75.22 104.183,73.596 	"/>
	<polygon fill="#424242" points="104.458,73.81 104.458,75.5 107.098,77.054 107.098,75.434 	"/>
	<path fill="#424242" d="M107.982,76.009c0,0,2.73,1.689,5.975,0.241v1.298c0,0-2.391,1.756-5.975-0.019v-1.277"/>
	<polygon fill="#424242" points="114.574,75.99 114.574,77.403 119.186,74.921 119.186,73.398 	"/>
	<polygon fill="#424242" points="119.533,73.236 119.533,74.798 123.395,72.684 123.35,71.06 	"/>
	<path fill="#434343" d="M71.989,90.099l-0.819,1.555c0,0,0.614,2.3,5.026,4.251c0,0,4.82,1.023,8.213,0.896l0.653-1.555
		c0,0-5.056,0.379-8.792-1.04C76.269,94.206,73.011,92.805,71.989,90.099z"/>
	<path fill="#434343" d="M67.285,95.89l-0.863,1.938c0,0,0.647,2.869,5.303,5.311c0,0,5.434,1.594,8.666,1.119l1.271-1.789
		c0,0-5.831,0.084-9.774-1.689C71.888,100.778,68.363,99.266,67.285,95.89z"/>
	<path fill="#434343" d="M65.196,99.241l-0.861,1.939c0,0,0.647,2.871,5.3,5.307c0,0,5.434,1.596,8.667,1.117l1.272-1.789
		c0,0-5.833,0.084-9.775-1.688C69.798,104.128,66.275,102.617,65.196,99.241z"/>
	<path fill="#434343" d="M63.144,102.778l-0.862,1.939c0,0,0.647,2.869,5.301,5.309c0,0,5.435,1.596,8.664,1.119l1.273-1.793
		c0,0-5.83,0.084-9.772-1.686C67.746,107.667,64.224,106.158,63.144,102.778z"/>
</g>
<path id="Idle_1_" fill="#ff0000" d="M107.532,10.828l-28.633,0.5l-13.967,24.21l14.667,23.791l28.564-0.421l14.027-24.329
	L107.532,10.828z M97.131,48.267l-7.572,0.013c0,0-1.443,0.057-1.486-0.844c0,0-0.092-0.813,1.08-1.129c0,0,0.678,0.046,0.722-1.308
	l-0.091-17.037c0,0,0.136-0.768-1.033-0.993c0,0-0.774-0.314-0.678-1.127c0,0,0.316-0.498,0.948-0.721h9.015
	c0,0,0.946,0.088,0.996,0.81c0,0,0.088,0.901-0.904,1.034c0,0-1.034,0.315-0.77,1.894l-0.089,16.275c0,0,0.088,1.216,0.944,1.262
	c0,0,1.042,0.184,0.817,1.397C99.031,47.795,98.758,48.379,97.131,48.267z"/>
</svg>
