<?xml version="1.0" encoding="utf-8"?>
<!-- Generator: Adobe Illustrator 16.0.0, SVG Export Plug-In . SVG Version: 6.00 Build 0)  -->
<!DOCTYPE svg PUBLIC "-//W3C//DTD SVG 1.1//EN" "http://www.w3.org/Graphics/SVG/1.1/DTD/svg11.dtd">
<svg version="1.1" id="Layer_1" xmlns="http://www.w3.org/2000/svg" xmlns:xlink="http://www.w3.org/1999/xlink" x="0px" y="0px"
	 width="200px" height="200px" viewBox="0 0 200 200" enable-background="new 0 0 200 200" xml:space="preserve">
<g id="Direction">
	<g transform="rotate({{angle}} 50 50)">
		<polygon id="arrow" opacity="0.7" fill="#80C342" enable-background="new    " points="48.713,122.746 29.057,99.104 
			48.445,75.467 59.336,75.467 59.336,75.732 39.947,99.104 59.336,121.682 59.336,122.746 		">
		
			<animate  fill="remove" accumulate="none" additive="replace" begin="0s;anim_arrow3.end" values="0.5; 0" restart="always" calcMode="linear" dur="0.5s" attributeName="opacity" id="anim_arrow1">
			</animate>
		</polygon>
		<polygon id="arrow2" opacity="0.7" fill="#80C342" enable-background="new    " points="35.432,123.01 15.777,99.372 
			35.432,75.732 46.055,75.732 46.055,75.999 26.934,99.372 46.055,121.949 46.055,123.01 		">
		
			<animate  fill="remove" accumulate="none" additive="replace" begin="anim_arrow1.end" values="0.5; 0" restart="always" calcMode="linear" dur="0.5s" attributeName="opacity" id="anim_arrow2">
			</animate>
		</polygon>
		<polygon id="arrow3" opacity="0.7" fill="#80C342" enable-background="new    " points="22.15,123.277 2.762,99.637 22.15,75.999 
			33.041,75.999 33.041,76.265 13.652,99.637 33.041,122.213 33.041,123.277 		">
		
			<animate  fill="remove" accumulate="none" additive="replace" begin="anim_arrow2.end" values="0.5; 0" restart="always" calcMode="linear" dur="0.5s" attributeName="opacity" id="anim_arrow3">
			</animate>
		</polygon>
	</g>
</g>
<g>
	<path fill="#C6C6C6" d="M59.358,106.623l7.625-13.12c0,0,1.95-2.515,4.066-1.889l55.27-19.459l5.313,11.303l-11.852,6.496
		l-21.855,11.155c0,0-21.629,12.607-25.485,12.369l-4.016-11.753L59.358,106.623z"/>
	<path fill="#8E8E8E" d="M63.239,100.29l-6.742,3.749c0,0-1.716,0.783-3.065,3.726L50,115.363v1.471l0.82,0.41
		c0,0,6.289-0.165,10.174,1.349c0,0,4.33,1.513,4.944,4.657l1.267,1.471c0,0,10.172-2.532,21.285-5.063l1.836-0.613l23.654-13.643
		l15.363-8.335c0,0,6.334-4.127,7.029-8.049V81.5l-7.357-10.744l-4.699-2.614l-0.654-0.942l-5.426-2.545l-0.256-0.356
		c0,0-8.203,2.317-10.406,0.86l-6.798,3.312l-1.021,1.103l-0.94,1.388l0.042,0.49l0.693,0.408l-0.04,0.45l-0.615,0.163
		l-12.542,6.779c0,0-2.583,1.226-3.718,2.003l-9.518,4.981c0,0-1.876,0.735-1.796,2.411l-1.429,2.737c0,0-2.656,1.061-3.065,2.451
		L63.239,100.29z"/>
	<path fill="#B2B2B2" d="M66.459,94.512l0.524-1.013c0,0,1.79-1.829,4.068-2.484l55.268-18.862l5.313,11.303l-11.848,6.498
		l-21.859,11.155c0,0-19.527,11.071-22.428,11.435l-7.886-10.253L66.459,94.512z"/>
	<path fill="#CCCCCC" d="M71.411,88.062l-2.002,4.497c0,0-0.939,7.028,13.891,6.331l2.247-5.389
		C85.546,93.503,73.044,95.456,71.411,88.062z"/>
	<path fill="#F4F4F4" d="M72.35,86.521l26.556-14.053l-0.04-1.021l25.139-3.76l4.402,2.494l0.406,0.49L85.585,93.715l-1.308,0.326
		c0,0-9.643,0.777-12.83-4.88C71.452,89.159,70.554,87.342,72.35,86.521z"/>
	<polygon fill="#639DAD" points="63.729,100.29 63.239,100.29 56.285,104.485 54.904,105.744 53.833,107.368 51.627,112.853 
		50.431,115.733 50.737,116.284 52.637,116.284 69.397,115.118 75.619,113.402 75.772,112.732 	"/>
	<path fill="#F4F4F4" d="M63.239,100.29l-6.289,3.924c0,0-2.165,1.716-3.026,3.47l-3.146,7.764v0.491c0,0,16.261-0.858,20.591-1.717
		c0,0,6.744-1.367,26.556-13.112l0.49,0.775c0,0-23.042,13.479-26.964,13.398c0,0-2.248,0.655-20.632,1.961l-0.82-0.41v-1.471
		l3.797-8.319c0,0,1.078-2.068,2.259-2.73L63.239,100.29z"/>
	<path fill="#F4F4F4" d="M100.787,68.466l13.36-6.498l9.762,5.311c0,0,0.451,0.858-0.611,1.513l-10.906,5.841h-4.457l-7.147-4.29
		C100.787,70.343,99.721,69.694,100.787,68.466z"/>
	<path fill="#CCCCCC" d="M100.637,68.662c0,0-2.386,2.42-1.773,2.787l9.479,5.433c0,0,2.287,0.693,4.539-0.33l11.932-6.699
		c0,0,0.449-0.14,0.449-0.561l-1.598-2.093l0.041,1.104l-0.164,0.448l-0.326,0.328l-11.057,5.763l-3.566,0.113l-8.04-4.822
		C100.553,70.128,100.311,69.405,100.637,68.662z"/>
	<polygon fill="#639DAD" points="97.925,101.107 121.753,88.874 120.808,89.994 120.356,90.444 120.233,91.465 120.19,92.12 
		98.588,103.551 	"/>
	<polygon fill="#FFFFFF" points="98.212,103.152 98.99,103.967 120.601,92.569 120.601,90.528 132.899,83.99 126.319,72.157 
		131.632,83.458 119.784,89.954 119.784,91.875 	"/>
	<path fill="#CCCCCC" d="M66.983,93.503l-7.623,13.12c0,0-0.49,3.39,2.982,5.309c0,0,6.29,3.593,13.153,0.612l7.273-12.256
		C82.769,100.29,68.944,102.371,66.983,93.503z"/>
	<path fill="#757575" d="M90.05,79.547l7.63-3.955c0,0,2.086-0.278,3.31,0.278l3.224,1.9c0,0,0.77,0.889-0.434,1.777l-6.989,3.616
		c0,0-1.805,0.337-3.368-0.278l-3.372-2.145C90.05,80.742,89.623,80.007,90.05,79.547z"/>
	<path fill="#D8D8D8" d="M90.482,79.538l7.198-3.732c0,0,1.969-0.261,3.125,0.256l3.034,1.796c0,0,0.725,0.841-0.405,1.678
		l-6.592,3.415c0,0-1.7,0.318-3.176-0.261l-3.183-2.026C90.482,80.667,90.078,79.972,90.482,79.538z"/>
	<path fill="#6AA7BF" d="M73.107,87.146L84.23,82.09l7.538,3.737c0,0,1.195,0.913-0.886,2.234l-8.272,4.232
		c0,0-2.118,0.767-4.938-0.279l-4.781-2.859C72.891,89.159,71.757,88.311,73.107,87.146z"/>
	<path fill="#6D6D6D" d="M73.974,87.069l10.112-4.649l6.592,3.103c0,0,0.872,0.754-1.058,1.991l-7.603,4.103
		c0,0-1.785,0.851-4.397-0.127l-3.926-2.611C73.693,88.874,72.722,88.157,73.974,87.069z"/>
	<path fill="#BBE0F2" d="M91.407,79.855l6.357-3.242c0,0,1.739-0.23,2.753,0.224l2.682,1.559c0,0,0.64,0.731-0.359,1.459
		l-5.818,2.971c0,0-1.507,0.275-2.81-0.227l-2.811-1.76C91.407,80.838,91.053,80.233,91.407,79.855z"/>
	<path fill="#D8D8D8" d="M74.944,86.748l6.128-3.279c0,0,0.459,0.458,3.922-5.852c0,0,1.748-0.919,1.287,1.042
		c0,0-0.551,3.523-0.432,3.616c0.12,0.092,4.007,2.513,4.007,2.513s1.631,1.164,0.281,1.961l-8.546,4.596c0,0-1.839,0.613-3.49,0
		l-3.891-2.47C74.208,88.874,72.653,87.974,74.944,86.748z"/>
	<g>
		<polygon fill="#424242" points="60.677,117.525 60.693,118.201 62.801,118.012 62.79,117.306 		"/>
		<polygon fill="#424242" points="64.049,117.284 64.057,117.896 68.002,117.521 67.988,116.786 		"/>
		<polygon fill="#424242" points="98.416,107.64 99.231,107.073 99.25,108.118 98.431,108.612 		"/>
		<polygon fill="#424242" points="100.537,106.56 101.357,105.997 101.377,107.033 100.557,107.532 		"/>
		<polygon fill="#424242" points="102.574,105.483 103.391,104.917 103.41,105.956 102.59,106.454 		"/>
		<polygon fill="#424242" points="104.7,104.401 105.521,103.835 105.536,104.88 104.72,105.378 		"/>
		<polygon fill="#424242" points="106.577,103.084 107.397,102.517 107.413,103.559 106.597,104.055 		"/>
		<polygon fill="#424242" points="108.704,102.008 109.521,101.44 109.538,102.482 108.72,102.977 		"/>
		<polygon fill="#424242" points="110.593,101.02 111.411,100.452 111.427,101.49 110.61,101.988 		"/>
		<polygon fill="#424242" points="112.718,99.939 113.538,99.372 113.556,100.414 112.737,100.908 		"/>
		<polygon fill="#424242" points="114.755,98.859 115.571,98.294 115.591,99.334 114.771,99.832 		"/>
		<polygon fill="#424242" points="116.882,97.783 117.698,97.216 117.716,98.258 116.897,98.752 		"/>
		<polygon fill="#424242" points="118.759,96.461 119.573,95.895 119.593,96.935 118.774,97.429 		"/>
		<polygon fill="#424242" points="120.884,95.383 121.7,94.816 121.72,95.858 120.899,96.353 		"/>
		<polygon fill="#424242" points="122.917,94.303 123.733,93.738 123.753,94.78 122.933,95.274 		"/>
		<polygon fill="#424242" points="124.86,93.242 125.679,92.679 125.694,93.719 124.88,94.213 		"/>
	</g>
	<polygon fill="#424242" points="86.691,94.077 88.978,92.82 88.978,94.651 86.691,95.895 	"/>
	<polygon fill="#424242" points="89.535,92.539 91.822,91.283 91.822,93.113 89.535,94.358 	"/>
	<polygon fill="#424242" points="92.329,91.007 94.616,89.749 94.616,91.582 92.329,92.826 	"/>
	<polygon fill="#424242" points="95.173,89.47 97.462,88.211 97.462,90.046 95.173,91.289 	"/>
	<polygon fill="#424242" points="97.925,88.105 100.215,86.848 100.215,88.681 97.925,89.923 	"/>
	<polygon fill="#424242" points="100.768,86.566 103.057,85.312 103.057,87.141 100.768,88.388 	"/>
	<polygon fill="#424242" points="103.402,85.216 105.688,83.96 105.688,85.792 103.402,87.035 	"/>
	<polygon fill="#424242" points="106.245,83.678 108.532,82.42 108.532,84.255 106.245,85.497 	"/>
	<polygon fill="#424242" points="108.864,82.182 111.151,80.926 111.151,82.761 108.864,84.004 	"/>
	<polygon fill="#424242" points="111.702,80.646 113.993,79.39 113.993,81.223 111.702,82.466 	"/>
	<polygon fill="#424242" points="114.46,79.108 116.751,77.85 116.751,79.685 114.46,80.926 	"/>
	<polygon fill="#424242" points="117.302,77.571 119.593,76.314 119.593,78.147 117.302,79.39 	"/>
	<polygon fill="#424242" points="120.353,76.012 122.642,74.755 122.642,76.588 120.353,77.831 	"/>
	<polygon fill="#424242" points="123.194,74.474 125.483,73.218 125.483,75.05 123.194,76.295 	"/>
	<polygon fill="#424242" points="85.054,100.801 87.344,99.547 87.344,101.379 85.054,102.62 	"/>
	<polygon fill="#424242" points="87.896,99.265 90.185,98.007 90.185,99.84 87.896,101.084 	"/>
	<polygon fill="#424242" points="90.694,97.733 92.982,96.477 92.982,98.31 90.694,99.551 	"/>
	<polygon fill="#424242" points="93.536,96.195 95.822,94.937 95.822,96.77 93.536,98.013 	"/>
	<polygon fill="#424242" points="96.29,94.83 98.576,93.575 98.576,95.408 96.29,96.649 	"/>
	<polygon fill="#424242" points="99.132,93.294 101.418,92.035 101.418,93.868 99.132,95.113 	"/>
	<polygon fill="#424242" points="101.764,91.939 104.054,90.686 104.054,92.519 101.764,93.759 	"/>
	<polygon fill="#424242" points="104.604,90.404 106.896,89.147 106.896,90.979 104.604,92.222 	"/>
	<polygon fill="#424242" points="107.226,88.91 109.517,87.651 109.517,89.486 107.226,90.729 	"/>
	<polygon fill="#424242" points="110.067,87.37 112.354,86.116 112.354,87.948 110.067,89.191 	"/>
	<polygon fill="#424242" points="112.825,85.83 115.112,84.578 115.112,86.411 112.825,87.651 	"/>
	<polygon fill="#424242" points="115.667,84.297 117.954,83.04 117.954,84.871 115.667,86.116 	"/>
	<polygon fill="#424242" points="118.716,82.737 121.003,81.481 121.003,83.316 118.716,84.557 	"/>
	<polygon fill="#424242" points="121.558,81.202 123.845,79.943 123.845,81.776 121.558,83.02 	"/>
	<polygon fill="#424242" points="82.518,105.872 84.809,104.618 84.809,106.446 82.518,107.689 	"/>
	<polygon fill="#424242" points="85.359,104.332 87.648,103.08 87.648,104.913 85.359,106.153 	"/>
	<polygon fill="#424242" points="88.16,102.804 90.447,101.548 90.447,103.383 88.16,104.622 	"/>
	<polygon fill="#424242" points="91,101.269 93.289,100.01 93.289,101.843 91,103.084 	"/>
	<polygon fill="#424242" points="93.753,99.9 96.041,98.646 96.041,100.479 93.753,101.721 	"/>
	<polygon fill="#424242" points="96.592,98.365 98.883,97.106 98.883,98.939 96.592,100.185 	"/>
	<polygon fill="#424242" points="99.228,97.011 101.518,95.757 101.518,97.589 99.228,98.832 	"/>
	<polygon fill="#424242" points="102.068,95.472 104.356,94.219 104.356,96.052 102.068,97.293 	"/>
	<polygon fill="#424242" points="104.69,93.981 106.979,92.723 106.979,94.556 104.69,95.797 	"/>
	<polygon fill="#424242" points="107.532,92.441 109.817,91.188 109.817,93.016 107.532,94.263 	"/>
	<polygon fill="#424242" points="110.29,90.903 112.575,89.649 112.575,91.482 110.29,92.723 	"/>
	<polygon fill="#424242" points="113.132,89.368 115.419,88.109 115.419,89.942 113.132,91.188 	"/>
	<polygon fill="#424242" points="116.181,87.809 118.468,86.551 118.468,88.388 116.181,89.628 	"/>
	<polygon fill="#424242" points="119.022,86.272 121.31,85.015 121.31,86.848 119.022,88.093 	"/>
	<polygon fill="#424242" points="121.772,84.733 124.063,83.477 124.063,85.308 121.772,86.551 	"/>
	<polygon fill="#424242" points="124.554,83.195 126.841,81.937 126.841,83.768 124.554,85.011 	"/>
	<polygon fill="#424242" points="127.169,81.86 129.456,80.604 129.456,82.435 127.169,83.678 	"/>
	<polygon fill="#424242" points="124.112,79.664 126.403,78.406 126.403,80.236 124.112,81.481 	"/>
	<polygon fill="#424242" points="100.311,72.281 100.311,73.97 102.951,75.525 102.951,73.901 	"/>
	<polygon fill="#424242" points="103.227,74.116 103.227,75.805 105.866,77.36 105.866,75.74 	"/>
	<path fill="#424242" d="M106.751,76.314c0,0,2.73,1.689,5.975,0.241v1.298c0,0-2.391,1.756-5.975-0.019v-1.277"/>
	<polygon fill="#424242" points="113.343,76.295 113.343,77.708 117.954,75.227 117.954,73.704 	"/>
	<polygon fill="#424242" points="118.302,73.542 118.302,75.104 122.163,72.99 122.118,71.366 	"/>
	<path fill="#434343" d="M70.757,90.404l-0.819,1.555c0,0,0.614,2.3,5.026,4.251c0,0,4.82,1.023,8.213,0.896l0.653-1.555
		c0,0-5.056,0.379-8.792-1.04C75.037,94.512,71.779,93.11,70.757,90.404z"/>
	<path fill="#434343" d="M66.053,96.195l-0.863,1.938c0,0,0.647,2.869,5.303,5.311c0,0,5.434,1.594,8.666,1.119l1.271-1.789
		c0,0-5.831,0.084-9.774-1.689C70.656,101.084,67.131,99.571,66.053,96.195z"/>
	<path fill="#434343" d="M63.964,99.547l-0.861,1.939c0,0,0.647,2.871,5.3,5.307c0,0,5.434,1.596,8.667,1.117l1.272-1.789
		c0,0-5.833,0.084-9.775-1.688C68.566,104.434,65.043,102.923,63.964,99.547z"/>
	<path fill="#434343" d="M61.912,103.084l-0.862,1.939c0,0,0.647,2.869,5.301,5.309c0,0,5.435,1.596,8.664,1.119l1.273-1.793
		c0,0-5.83,0.084-9.772-1.686C66.514,107.973,62.992,106.464,61.912,103.084z"/>
</g>
</svg>
