<?xml version="1.0" encoding="utf-8"?>
<!-- Generator: Adobe Illustrator 16.0.0, SVG Export Plug-In . SVG Version: 6.00 Build 0)  -->
<!DOCTYPE svg PUBLIC "-//W3C//DTD SVG 1.1//EN" "http://www.w3.org/Graphics/SVG/1.1/DTD/svg11.dtd">
<svg version="1.1" id="Layer_1" xmlns="http://www.w3.org/2000/svg" xmlns:xlink="http://www.w3.org/1999/xlink" x="0px" y="0px"
	 width="200px" height="200px" viewBox="0 0 200 200" enable-background="new 0 0 200 200" xml:space="preserve">
<path fill="#EAEAEA" stroke="#010101" stroke-miterlimit="10" d="M52.599,118.072"/>
<g id="Direction">
	<g transform="rotate({{angle}} 50 50)">
		<polygon id="arrow" opacity="0.7" fill="#80C342" enable-background="new    " points="160.463,127.631 157.646,158.248 
			127.221,161.252 119.52,153.552 119.707,153.363 149.943,150.547 152.199,120.872 152.951,120.12 		">
		
			<animate  fill="remove" accumulate="none" additive="replace" begin="0s;anim_arrow3.end" values="0.5; 0" restart="always" calcMode="linear" dur="0.5s" attributeName="opacity" id="anim_arrow1">
			</animate>
		</polygon>
		<polygon id="arrow2" opacity="0.7" fill="#80C342" enable-background="new    " points="170.041,136.836 167.225,167.448 
			136.611,170.268 129.1,162.755 129.287,162.566 159.336,159.561 161.779,130.074 162.529,129.324 		">
		
			<animate  fill="remove" accumulate="none" additive="replace" begin="anim_arrow1.end" values="0.5; 0" restart="always" calcMode="linear" dur="0.5s" attributeName="opacity" id="anim_arrow2">
			</animate>
		</polygon>
		<polygon id="arrow3" opacity="0.7" fill="#80C342" enable-background="new    " points="179.621,146.038 176.613,176.465 
			146.189,179.469 138.49,171.768 138.678,171.58 168.914,168.764 171.168,139.09 171.921,138.338 		">
		
			<animate  fill="remove" accumulate="none" additive="replace" begin="anim_arrow2.end" values="0.5; 0" restart="always" calcMode="linear" dur="0.5s" attributeName="opacity" id="anim_arrow3">
			</animate>
		</polygon>
	</g>
</g>
<g id="Tire_1_">
	<path fill="#141318" d="M74.767,101.24c1.787,0.309,3.742,2.203,4.386,4.225c0.642,2.018-0.279,3.41-2.046,3.09
		c-1.788-0.31-3.742-2.209-4.385-4.225C72.079,102.329,72.985,100.936,74.767,101.24z"/>
	<path fill="#121332" d="M74.415,101.531c1.756,0.308,3.693,2.189,4.324,4.197c0.629,2.019-0.275,3.401-2.034,3.09
		c-1.752-0.313-3.694-2.193-4.321-4.2C71.752,102.602,72.661,101.221,74.415,101.531z"/>
	<path fill="#141318" d="M73.886,101.786c1.783,0.31,3.738,2.208,4.385,4.224c0.638,2.02-0.282,3.408-2.051,3.088
		c-1.779-0.307-3.738-2.203-4.384-4.222C71.197,102.869,72.106,101.479,73.886,101.786z"/>
	<path fill="#121332" d="M73.538,102.074c1.754,0.308,3.693,2.188,4.322,4.193c0.629,2.025-0.273,3.399-2.033,3.09
		c-1.753-0.306-3.691-2.189-4.32-4.193C70.873,103.154,71.779,101.766,73.538,102.074z"/>
	<path fill="#141318" d="M73.138,102.266c1.783,0.307,3.744,2.203,4.383,4.225c0.646,2.016-0.279,3.404-2.045,3.086
		c-1.785-0.309-3.742-2.204-4.385-4.221C70.446,103.338,71.354,101.961,73.138,102.266z"/>
	<path fill="#121332" d="M72.784,102.555c1.754,0.312,3.697,2.189,4.324,4.196c0.63,2.019-0.271,3.399-2.029,3.09
		c-1.756-0.312-3.699-2.192-4.326-4.2C70.122,103.637,71.03,102.245,72.784,102.555z"/>
	<path fill="#141318" d="M72.624,102.73c1.702,0.301,3.573,2.148,4.182,4.146c0.609,1.996-0.279,3.354-1.975,3.063
		c-1.702-0.299-3.577-2.15-4.186-4.146C70.03,103.803,70.913,102.434,72.624,102.73z"/>
	<path fill="#121332" d="M72.733,103.412c1.437,0.242,3.007,1.8,3.523,3.492c0.519,1.67-0.231,2.844-1.664,2.58
		c-1.438-0.244-3.012-1.81-3.524-3.492C70.556,104.32,71.306,103.17,72.733,103.412z"/>
	<path fill="#CDCCCC" d="M72.974,103.881c1.151,0.209,2.42,1.454,2.834,2.805c0.41,1.353-0.184,2.279-1.35,2.072
		c-1.148-0.207-2.416-1.455-2.832-2.802C71.218,104.618,71.821,103.691,72.974,103.881z"/>
	<path fill="#989898" d="M73.257,104.283c0.932,0.168,1.951,1.181,2.287,2.273c0.333,1.098-0.16,1.838-1.092,1.674
		c-0.932-0.162-1.955-1.176-2.289-2.271C71.836,104.876,72.323,104.123,73.257,104.283z"/>
	<path fill="#CDCCCC" d="M73.427,104.873c0.688,0.12,1.438,0.863,1.688,1.668c0.245,0.807-0.12,1.354-0.796,1.242
		c-0.688-0.123-1.442-0.864-1.688-1.668C72.374,105.316,72.729,104.762,73.427,104.873z"/>
	<g id="Tire_Hole_1_">
		<path fill="#010101" d="M73.673,105.797c0.215,0.042,0.441,0.27,0.523,0.528c0.078,0.252-0.033,0.42-0.254,0.387
			c-0.221-0.045-0.444-0.267-0.525-0.524C73.354,105.93,73.458,105.758,73.673,105.797z"/>
		<path fill="#010101" d="M73.767,105.154c0.121,0.021,0.24,0.144,0.291,0.289c0.037,0.138-0.018,0.233-0.141,0.213
			c-0.119-0.023-0.238-0.146-0.29-0.288C73.587,105.23,73.644,105.137,73.767,105.154z"/>
		<path fill="#010101" d="M72.942,105.23c0.117,0.02,0.238,0.143,0.289,0.287c0.037,0.142-0.02,0.237-0.135,0.217
			c-0.121-0.024-0.244-0.147-0.291-0.289C72.767,105.309,72.825,105.212,72.942,105.23z"/>
		<path fill="#010101" d="M72.968,106.104c0.115,0.02,0.238,0.143,0.289,0.285c0.037,0.144-0.023,0.233-0.14,0.213
			c-0.12-0.019-0.239-0.145-0.29-0.285C72.784,106.176,72.847,106.085,72.968,106.104z"/>
		<path fill="#010101" d="M73.757,106.871c0.117,0.021,0.24,0.145,0.289,0.288c0.035,0.138-0.019,0.231-0.139,0.213
			c-0.123-0.021-0.24-0.147-0.289-0.288C73.581,106.949,73.64,106.854,73.757,106.871z"/>
		<path fill="#010101" d="M74.624,106.852c0.121,0.024,0.24,0.147,0.29,0.289c0.042,0.142-0.019,0.233-0.138,0.213
			c-0.117-0.021-0.238-0.144-0.29-0.287C74.449,106.928,74.509,106.835,74.624,106.852z"/>
		<path fill="#010101" d="M74.61,105.995c0.119,0.021,0.238,0.144,0.29,0.288c0.034,0.141-0.021,0.236-0.14,0.213
			c-0.119-0.021-0.24-0.146-0.289-0.288C74.433,106.07,74.486,105.977,74.61,105.995z"/>
	</g>
</g>
<g id="Tire_2_">
	<path fill="#141318" d="M66.14,95.619c1.787,0.31,3.742,2.207,4.386,4.224c0.641,2.017-0.279,3.408-2.048,3.087
		c-1.782-0.307-3.741-2.205-4.383-4.222C63.452,96.705,64.356,95.313,66.14,95.619z"/>
	<path fill="#121332" d="M65.787,95.909c1.757,0.31,3.696,2.19,4.324,4.198c0.63,2.019-0.272,3.4-2.032,3.086
		c-1.754-0.309-3.693-2.189-4.322-4.197C63.122,96.979,64.034,95.598,65.787,95.909z"/>
	<path fill="#141318" d="M65.259,96.164c1.781,0.309,3.739,2.205,4.385,4.222c0.64,2.021-0.282,3.41-2.049,3.089
		c-1.781-0.305-3.74-2.205-4.385-4.222C62.571,97.246,63.478,95.854,65.259,96.164z"/>
	<path fill="#121332" d="M64.913,96.452c1.753,0.311,3.691,2.192,4.32,4.196c0.631,2.021-0.271,3.396-2.031,3.091
		c-1.756-0.31-3.693-2.196-4.324-4.198C62.245,97.53,63.153,96.142,64.913,96.452z"/>
	<path fill="#141318" d="M64.513,96.644c1.781,0.308,3.74,2.204,4.383,4.222c0.641,2.017-0.278,3.409-2.049,3.087
		c-1.787-0.311-3.742-2.203-4.383-4.22C61.815,97.713,62.728,96.337,64.513,96.644z"/>
	<path fill="#121332" d="M64.157,96.931c1.753,0.312,3.697,2.194,4.326,4.198c0.627,2.02-0.272,3.4-2.032,3.09
		c-1.757-0.311-3.698-2.195-4.324-4.2C61.494,98.013,62.403,96.623,64.157,96.931z"/>
	<path fill="#141318" d="M63.993,97.109c1.703,0.297,3.577,2.147,4.184,4.146c0.609,1.996-0.277,3.353-1.975,3.06
		c-1.703-0.297-3.577-2.146-4.184-4.146C61.399,98.177,62.288,96.81,63.993,97.109z"/>
	<path fill="#121332" d="M64.106,97.786c1.438,0.247,3.009,1.809,3.525,3.497c0.516,1.671-0.229,2.841-1.666,2.583
		c-1.438-0.249-3.011-1.815-3.523-3.497C61.929,98.696,62.675,97.546,64.106,97.786z"/>
	<path fill="#CDCCCC" d="M64.347,98.259c1.148,0.208,2.416,1.451,2.832,2.802c0.408,1.353-0.186,2.283-1.352,2.076
		c-1.146-0.211-2.413-1.455-2.828-2.805C62.586,98.996,63.193,98.068,64.347,98.259z"/>
	<path fill="#989898" d="M64.629,98.662c0.933,0.163,1.952,1.176,2.288,2.271c0.334,1.096-0.156,1.84-1.093,1.674
		c-0.931-0.164-1.954-1.176-2.287-2.272C63.21,99.253,63.696,98.5,64.629,98.662z"/>
	<path fill="#CDCCCC" d="M64.798,99.253c0.691,0.121,1.44,0.861,1.688,1.665c0.245,0.809-0.116,1.352-0.796,1.243
		c-0.687-0.126-1.442-0.866-1.684-1.668C63.747,99.693,64.104,99.137,64.798,99.253z"/>
	<g id="Tire_Hole_2_">
		<path fill="#010101" d="M65.044,100.174c0.215,0.043,0.444,0.269,0.525,0.526c0.076,0.254-0.037,0.42-0.258,0.389
			c-0.215-0.043-0.443-0.266-0.521-0.524C64.724,100.307,64.827,100.134,65.044,100.174z"/>
		<path fill="#010101" d="M65.14,99.531c0.119,0.021,0.238,0.144,0.289,0.289c0.035,0.139-0.016,0.232-0.139,0.211
			c-0.119-0.021-0.24-0.144-0.289-0.286C64.959,99.605,65.013,99.515,65.14,99.531z"/>
		<path fill="#010101" d="M64.313,99.606c0.121,0.022,0.24,0.145,0.291,0.289c0.039,0.142-0.016,0.233-0.135,0.211
			c-0.121-0.019-0.244-0.141-0.291-0.284C64.142,99.685,64.198,99.586,64.313,99.606z"/>
		<path fill="#010101" d="M64.339,100.48c0.121,0.02,0.239,0.144,0.29,0.286c0.038,0.145-0.022,0.235-0.138,0.213
			c-0.12-0.019-0.24-0.143-0.289-0.285C64.157,100.553,64.22,100.459,64.339,100.48z"/>
		<path fill="#010101" d="M65.13,101.248c0.115,0.021,0.238,0.145,0.289,0.286c0.035,0.142-0.021,0.237-0.139,0.216
			c-0.119-0.02-0.238-0.146-0.289-0.287C64.95,101.327,65.013,101.23,65.13,101.248z"/>
		<path fill="#010101" d="M66.001,101.227c0.122,0.021,0.242,0.144,0.29,0.287c0.039,0.144-0.021,0.236-0.138,0.215
			c-0.121-0.02-0.243-0.143-0.29-0.287C65.821,101.307,65.878,101.212,66.001,101.227z"/>
		<path fill="#010101" d="M65.981,100.372c0.121,0.02,0.24,0.142,0.291,0.288c0.039,0.139-0.02,0.234-0.139,0.211
			c-0.119-0.018-0.24-0.145-0.289-0.285C65.806,100.447,65.858,100.352,65.981,100.372z"/>
	</g>
</g>
<g id="Tire">
	<path fill="#141318" d="M100.005,114.242c1.783,0.309,3.741,2.199,4.383,4.221c0.643,2.02-0.277,3.41-2.045,3.09
		c-1.785-0.31-3.744-2.205-4.386-4.225C97.315,115.328,98.221,113.934,100.005,114.242z"/>
	<path fill="#121332" d="M99.653,114.529c1.757,0.308,3.694,2.189,4.325,4.197c0.629,2.019-0.275,3.402-2.034,3.09
		c-1.756-0.313-3.695-2.189-4.325-4.199C96.985,115.602,97.899,114.221,99.653,114.529z"/>
	<path fill="#141318" d="M99.121,114.781c1.783,0.31,3.741,2.209,4.383,4.225c0.643,2.021-0.275,3.41-2.046,3.09
		c-1.783-0.307-3.743-2.201-4.385-4.219C96.432,115.867,97.343,114.477,99.121,114.781z"/>
	<path fill="#121332" d="M98.776,115.072c1.756,0.312,3.696,2.189,4.325,4.193c0.629,2.025-0.276,3.402-2.033,3.094
		c-1.757-0.309-3.696-2.193-4.325-4.197C96.109,116.152,97.014,114.764,98.776,115.072z"/>
	<path fill="#141318" d="M98.375,115.264c1.78,0.311,3.742,2.203,4.383,4.225c0.643,2.016-0.277,3.404-2.047,3.087
		c-1.783-0.31-3.742-2.205-4.384-4.222C95.681,116.336,96.591,114.959,98.375,115.264z"/>
	<path fill="#121332" d="M98.022,115.553c1.755,0.313,3.697,2.189,4.328,4.197c0.625,2.018-0.277,3.398-2.038,3.09
		c-1.755-0.313-3.693-2.189-4.323-4.199C95.355,116.636,96.267,115.244,98.022,115.553z"/>
	<path fill="#141318" d="M97.863,115.729c1.698,0.301,3.57,2.152,4.179,4.146c0.604,1.996-0.282,3.354-1.977,3.063
		c-1.7-0.299-3.574-2.15-4.182-4.145C95.264,116.801,96.148,115.434,97.863,115.729z"/>
	<path fill="#121332" d="M97.968,116.41c1.436,0.242,3.01,1.803,3.523,3.492c0.519,1.674-0.229,2.844-1.663,2.582
		c-1.436-0.245-3.01-1.811-3.523-3.494C95.792,117.316,96.538,116.168,97.968,116.41z"/>
	<path fill="#CDCCCC" d="M98.208,116.879c1.152,0.209,2.416,1.455,2.833,2.805c0.411,1.353-0.186,2.279-1.349,2.072
		c-1.15-0.207-2.416-1.455-2.831-2.801C96.453,117.619,97.059,116.689,98.208,116.879z"/>
	<path fill="#989898" d="M98.488,117.282c0.933,0.168,1.954,1.18,2.289,2.272c0.336,1.1-0.156,1.836-1.09,1.676
		c-0.931-0.164-1.957-1.178-2.289-2.273C97.073,117.877,97.558,117.119,98.488,117.282z"/>
	<path fill="#CDCCCC" d="M98.663,117.871c0.683,0.123,1.436,0.863,1.683,1.672c0.25,0.803-0.113,1.35-0.794,1.238
		c-0.683-0.123-1.437-0.863-1.683-1.668C97.611,118.314,97.965,117.76,98.663,117.871z"/>
	<g id="Tire_Hole">
		<path fill="#010101" d="M98.907,118.795c0.215,0.045,0.443,0.27,0.526,0.528c0.075,0.252-0.038,0.42-0.257,0.388
			c-0.216-0.043-0.444-0.268-0.524-0.525C98.589,118.928,98.694,118.756,98.907,118.795z"/>
		<path fill="#010101" d="M99.001,118.152c0.121,0.021,0.241,0.144,0.291,0.289c0.038,0.141-0.015,0.233-0.138,0.213
			c-0.119-0.023-0.24-0.146-0.29-0.287C98.823,118.229,98.879,118.135,99.001,118.152z"/>
		<path fill="#010101" d="M98.177,118.229c0.118,0.021,0.24,0.144,0.29,0.287c0.039,0.145-0.018,0.237-0.137,0.217
			c-0.118-0.023-0.239-0.146-0.29-0.289C98.004,118.307,98.061,118.211,98.177,118.229z"/>
		<path fill="#010101" d="M98.201,119.102c0.121,0.021,0.241,0.144,0.291,0.285c0.038,0.143-0.018,0.235-0.138,0.213
			c-0.119-0.018-0.24-0.145-0.29-0.285C98.022,119.174,98.083,119.084,98.201,119.102z"/>
		<path fill="#010101" d="M98.991,119.869c0.119,0.021,0.24,0.145,0.289,0.288c0.04,0.138-0.015,0.233-0.135,0.213
			c-0.12-0.021-0.24-0.147-0.292-0.288C98.816,119.947,98.874,119.852,98.991,119.869z"/>
		<path fill="#010101" d="M99.864,119.848c0.12,0.024,0.24,0.147,0.29,0.288c0.04,0.144-0.018,0.237-0.138,0.216
			c-0.119-0.02-0.241-0.143-0.291-0.287C99.687,119.926,99.742,119.834,99.864,119.848z"/>
		<path fill="#010101" d="M99.842,118.992c0.12,0.021,0.241,0.143,0.292,0.289c0.04,0.141-0.017,0.236-0.137,0.215
			c-0.12-0.023-0.241-0.145-0.292-0.289C99.669,119.068,99.723,118.977,99.842,118.992z"/>
	</g>
</g>
<polygon fill="#161616" points="62.995,94.902 61.38,95.667 60.987,96.117 61.048,97.473 61.38,97.813 61.878,97.925 62.552,97.473 
	63.239,97.218 66.454,99.217 67.724,100.5 68.183,102.266 68.853,102.704 69.406,102.704 71.896,100.977 "/>
<polygon fill="#2D2D2D" points="71.513,100.111 69.655,100.975 69.208,101.486 69.271,103.021 69.655,103.406 70.231,103.532 
	70.999,103.021 71.79,102.734 75.481,104.996 76.938,106.445 77.464,108.445 78.231,108.943 78.87,108.943 81.728,106.988 "/>
<polygon fill="#9A9A9B" points="87.063,104.973 58.938,89.329 56.729,89.677 57.15,91.822 85.462,109.934 "/>
<polygon fill="#191919" points="96.807,111.566 87.338,104.996 83.544,107.521 83.8,111.389 95.079,118.686 "/>
<polygon fill="#B5B5B5" points="85.587,102.35 85.587,107.48 56.729,89.677 72.95,80.846 97.143,95.061 "/>
<polygon fill="#999999" points="83.354,103.436 81.972,102.568 95.279,95.116 96.68,95.921 "/>
<polygon fill="#999999" points="79.452,101.047 78.068,100.18 91.378,92.729 92.779,93.532 "/>
<polygon fill="#999999" points="75.446,98.636 74.062,97.77 87.372,90.319 88.773,91.124 "/>
<polyline fill="#4C4C4C" points="102.139,94.669 95.767,114.893 84.634,107.918 84.634,101.928 98.71,94.254 99.96,93.422 
	102.139,94.254 "/>
<polygon fill="#2D2D2D" points="84.634,107.918 94.515,114.109 96.522,114.218 99.017,110.152 84.634,101.928 "/>
<path fill="#B5B5B5" d="M121.305,103.961v13.105l-10.176,6.336c-3.264,1.857-4.767,1.219-4.767,1.219l-3.662-2.305
	c0.399-5.058-3.476-7.17-3.476-7.17c-4.032-2.75-3.711,3.266-3.711,3.266l-0.642-0.637V99.212l0.321-1.344l13.438-7.549h1.152
	l8.063,5.184C120.918,98.96,121.303,103.958,121.305,103.961z"/>
<path opacity="0.7" fill="#999999" enable-background="new    " d="M106.362,124.63l-3.662-2.305
	c0.416-4.991-3.475-7.169-3.475-7.169c-4.05-2.788-3.714,3.264-3.714,3.264l-0.639-0.641V99.222l0.318-1.344l10.305,7.269
	l0.64,2.336l0.416,6.567c-0.191,3.757,0.08,7.409,0.08,7.409l1.088,1.866l0.887-0.894l2.201-0.942v2.091
	C107.618,125.17,106.359,124.621,106.362,124.63z"/>
<path d="M132.008,106.719v-0.006h0.412v5.616c0,0-1.199,1.151-0.576,2.019c0,0,0.674,0.435,0.912-0.621l0.768-0.047v1.68
	c0,0-1.92,0.91-2.592-0.674c0,0-0.528-0.767-0.432-1.871l1.296-0.769L132.008,106.719L132.008,106.719z"/>
<polygon fill="#4C4C4C" points="103.337,92.449 102.698,92.059 102.698,86.719 103.447,86.206 104.618,86.805 104.618,91.645 "/>
<path fill="#7F7F7F" d="M121.299,113.873l0.16,0.447v3.109l-0.16,0.42l-12.693,7.344c-2.838,0.898-5.959-2.366-5.959-2.366
	c0.226-6.558-4.448-7.652-4.448-7.652c-2.88-1.128-2.763,3.482-2.763,3.482l-1.203,0.207l-0.258-6.575l0.897-0.447l2.559,1.326
	c4.287,2.111,5.267,3.906,5.267,3.906c2.512,4.285,4.132,4.971,4.132,4.971L121.299,113.873z"/>
<path fill="#434F6B" d="M107.088,114.543c-0.564,0.157-0.535-0.502-0.535-0.502l-0.422-6.564l1.413,0.041
	c1.979-1.736,12.785-7.879,12.785-7.879l0.614,4.16l-0.092,3.353L107.088,114.543z"/>
<polygon fill="#2D2D2D" points="115.989,99.47 105.493,105.141 106.193,108.445 117.814,102.35 "/>
<path fill="#D8D8D8" d="M115.285,101.102L61.048,72.974V69.71l2.018-1.344l69.021,36.288c1.729,0.96,1.729,2.207,1.729,2.207
	C132.245,109.838,115.285,101.102,115.285,101.102z"/>
<path fill="#B5B5B5" d="M132.661,112.285l-2.399-2.016l0.227-2.063l3.037,1.296l0.673,0.768
	C134.483,112.046,132.661,112.285,132.661,112.285z"/>
<polygon points="127.223,106.382 126.326,104.029 128.915,104.941 129.875,107.15 "/>
<polygon points="123.833,105.044 122.918,102.35 124.598,103.262 125.414,105.59 "/>
<polygon points="118.137,102.504 117.238,99.968 118.678,100.83 119.35,103.086 "/>
<polygon fill="#BFBFBF" points="58.552,75.92 70.263,68.367 85.587,76.719 85.587,80.846 76.556,86.605 "/>
<polygon points="120.74,103.709 119.637,100.879 121.236,101.711 122.248,104.378 "/>
<polygon fill="#333333" points="114.516,98.061 117.846,96.652 62.835,68.031 60.632,69.582 61.048,73.358 115.797,101.525 "/>
<polygon fill="#606060" points="130.26,104.717 74.905,76.43 76.183,75.92 130.49,104.378 "/>
<ellipse fill="#5B5B5B" cx="72.283" cy="89.327" rx="9.448" ry="5.732"/>
<path fill="#D8D8D8" d="M72.377,96.786L52.603,82.674v-3.84l2.977-2.017l5.471-3.456l6.709,3.299
	c0.191-0.673,1.834-0.324,1.834-0.324c10.82,1.152,11.457,13.983,11.457,13.983L72.377,96.786z"/>
<polygon fill="#2D2D2D" points="120.559,112.195 118.998,114.281 110.807,118.861 108.215,118.686 108.087,116.303 120.559,109.357 
	"/>
<path d="M111.211,123.499l-0.094-2.577l8.148-4.715l0.063,2.639L111.211,123.499z"/>
<path fill="#ADADAD" d="M72.38,96.782c-0.674-9.552-5.474-13.823-5.474-13.823c-5.103-4.021-6.479,0-6.479,0l-7.828-4.129v3.84
	L72.38,96.782z"/>
<polygon fill="#434F6B" points="99.991,104.378 99.991,108.652 105.047,112.014 105.256,111.389 105.047,107.48 "/>
<path fill="#434F6B" d="M67.911,82.703c4.945,4.129,5.395,12.192,5.395,12.192l7.664-5.571c-0.256-8.188-6.064-11.216-6.064-11.216
	L67.911,82.703z"/>
<path fill="#434F6B" d="M66.904,87.631l5.376,7.429c-0.145-7.633-5.376-12.102-5.376-12.102V87.631z"/>
<polygon fill="#F2F2F2" points="108.607,122.432 108.607,124.301 109.904,123.598 109.904,121.805 "/>
<polygon fill="#F2F2F2" points="121.044,116.934 120.071,117.432 120.071,115.703 121.031,115.175 "/>
<path fill="#050505" d="M62.949,81.17l-0.243,8.708l1.74,1.243l0.223-9.552C63.769,81.108,62.952,81.173,62.949,81.17z"/>
<polygon fill="#232323" points="105.559,105.326 104.533,105.773 104.631,107.885 103.926,108.193 104.148,111.293 104.917,110.957 
	104.917,112.559 105.91,112.271 105.91,112.014 105.158,112.271 104.725,105.902 105.588,105.581 "/>
<polygon fill="#9A9A9B" points="120.354,110.402 108.293,117.203 108.293,116.768 120.354,109.951 "/>
<polygon fill="#9A9A9B" points="120.354,111.719 108.293,118.52 108.293,118.084 120.354,111.27 "/>
<polygon fill="#4C4C4C" points="99.028,95.061 98.389,94.669 98.389,89.329 99.143,88.816 100.309,89.414 100.309,94.254 "/>
<path fill="#7685A5" d="M119.639,107.486l-12.418,6.623l-0.238-0.531l-0.575-5.133C119.27,104.033,119.637,107.48,119.639,107.486z"
	/>
<path fill="#7685A5" d="M100.263,104.721v3.729l2.575,1.8v-0.602c-0.256-2.879-1.855-4.059-1.855-4.059L100.263,104.721z"/>
<path fill="#7685A5" d="M73.978,93.868l6.625-4.542c-1.316-6.363-10.616-6.787-11.838-6.816c-0.088-0.001-0.133-0.001-0.133-0.001
	C75.673,90.381,73.976,93.869,73.978,93.868z"/>
<path fill="#7685A5" d="M69.593,90.322l-1.681-2.752l-0.366-2.528C68.507,86.102,69.593,90.319,69.593,90.322z"/>
<polygon fill="#5B5B5B" points="91.344,112.123 90.648,112.43 90.648,115.82 91.416,116.314 91.416,112.877 92.043,112.559 "/>
<polygon fill="#5B5B5B" points="87.063,109.402 86.367,109.709 86.367,113.1 87.135,113.598 87.135,110.158 87.759,109.838 "/>
</svg>
