<?xml version="1.0" encoding="utf-8"?>
<!-- Generator: Adobe Illustrator 16.0.0, SVG Export Plug-In . SVG Version: 6.00 Build 0)  -->
<!DOCTYPE svg PUBLIC "-//W3C//DTD SVG 1.1//EN" "http://www.w3.org/Graphics/SVG/1.1/DTD/svg11.dtd">
<svg version="1.1" id="Layer_1" xmlns="http://www.w3.org/2000/svg" xmlns:xlink="http://www.w3.org/1999/xlink" x="0px" y="0px"
	 width="200px" height="200px" viewBox="0 0 200 200" enable-background="new 0 0 200 200" xml:space="preserve">
<path fill="#EAEAEA" stroke="#010101" stroke-miterlimit="10" d="M52.599,118.072"/>
<g id="Direction">
	<g transform="rotate({{angle}} 50 50)">
		<polygon id="arrow" opacity="0.7" fill="#80C342" enable-background="new    " points="75.148,52.713 74.396,53.465 44.721,55.72 
			41.905,85.957 41.716,86.145 34.016,78.443 37.02,48.019 67.637,45.201 		">
		
			<animate  fill="remove" accumulate="none" additive="replace" begin="0s;anim_arrow3.end" values="0.5; 0" restart="always" calcMode="linear" dur="0.5s" attributeName="opacity" id="anim_arrow1">
			</animate>
		</polygon>
		<polygon id="arrow2" opacity="0.7" fill="#80C342" enable-background="new    " points="65.944,43.135 65.194,43.885 
			35.708,46.328 32.702,76.377 32.513,76.564 25.001,69.053 27.82,38.439 58.432,35.623 		">
		
			<animate  fill="remove" accumulate="none" additive="replace" begin="anim_arrow1.end" values="0.5; 0" restart="always" calcMode="linear" dur="0.5s" attributeName="opacity" id="anim_arrow2">
			</animate>
		</polygon>
		<polygon id="arrow3" opacity="0.7" fill="#80C342" enable-background="new    " points="56.93,33.743 56.178,34.496 26.504,36.75 
			23.688,66.986 23.5,67.174 15.799,59.475 18.803,29.05 49.23,26.043 		">
		
			<animate  fill="remove" accumulate="none" additive="replace" begin="anim_arrow2.end" values="0.5; 0" restart="always" calcMode="linear" dur="0.5s" attributeName="opacity" id="anim_arrow3">
			</animate>
		</polygon>
	</g>
</g>
<g id="Tire_1_">
	<path fill="#141318" d="M114.105,104.33c-0.642,2.016-2.596,3.915-4.384,4.225c-1.767,0.32-2.688-1.072-2.046-3.09
		c0.643-2.021,2.598-3.916,4.385-4.225C113.842,100.935,114.748,102.329,114.105,104.33z"/>
	<path fill="#121332" d="M114.443,104.618c-0.627,2.007-2.569,3.888-4.321,4.2c-1.759,0.312-2.663-1.071-2.034-3.09
		c0.631-2.008,2.568-3.889,4.324-4.197C114.166,101.221,115.075,102.602,114.443,104.618z"/>
	<path fill="#141318" d="M114.991,104.876c-0.646,2.019-2.604,3.915-4.384,4.222c-1.768,0.32-2.688-1.068-2.05-3.088
		c0.646-2.016,2.601-3.914,4.384-4.224C114.72,101.478,115.63,102.869,114.991,104.876z"/>
	<path fill="#121332" d="M115.32,105.164c-0.629,2.004-2.567,3.888-4.32,4.193c-1.76,0.31-2.662-1.064-2.033-3.09
		c0.629-2.006,2.568-3.885,4.322-4.193C115.048,101.766,115.954,103.154,115.32,105.164z"/>
	<path fill="#141318" d="M115.736,105.355c-0.642,2.017-2.6,3.912-4.385,4.221c-1.765,0.318-2.69-1.07-2.045-3.086
		c0.639-2.021,2.6-3.918,4.384-4.225C115.473,101.961,116.381,103.338,115.736,105.355z"/>
	<path fill="#121332" d="M116.074,105.641c-0.627,2.008-2.57,3.889-4.326,4.2c-1.758,0.31-2.659-1.071-2.029-3.09
		c0.627-2.007,2.57-3.885,4.324-4.196C115.797,102.245,116.705,103.637,116.074,105.641z"/>
	<path fill="#141318" d="M116.181,105.794c-0.608,1.995-2.483,3.847-4.185,4.146c-1.695,0.291-2.584-1.067-1.975-3.063
		c0.609-1.998,2.48-3.846,4.182-4.146C115.914,102.434,116.797,103.803,116.181,105.794z"/>
	<path fill="#121332" d="M115.759,105.992c-0.513,1.683-2.087,3.248-3.524,3.492c-1.433,0.264-2.183-0.91-1.665-2.58
		c0.517-1.692,2.087-3.249,3.524-3.492C115.521,103.17,116.271,104.321,115.759,105.992z"/>
	<path fill="#CDCCCC" d="M115.201,105.956c-0.416,1.347-1.684,2.595-2.832,2.802c-1.166,0.207-1.76-0.72-1.35-2.072
		c0.415-1.351,1.683-2.596,2.834-2.805C115.006,103.691,115.61,104.618,115.201,105.956z"/>
	<path fill="#989898" d="M114.664,105.959c-0.334,1.096-1.357,2.109-2.289,2.272s-1.425-0.576-1.092-1.675
		c0.336-1.092,1.355-2.105,2.287-2.273C114.504,104.123,114.991,104.876,114.664,105.959z"/>
	<path fill="#CDCCCC" d="M114.197,106.115c-0.246,0.804-1,1.545-1.688,1.668c-0.676,0.111-1.041-0.436-0.796-1.242
		c0.249-0.804,0.999-1.548,1.687-1.668C114.098,104.762,114.453,105.316,114.197,106.115z"/>
	<g id="Tire_Hole_1_">
		<path fill="#010101" d="M113.41,106.188c-0.081,0.258-0.305,0.479-0.525,0.524c-0.221,0.033-0.332-0.135-0.254-0.387
			c0.082-0.259,0.309-0.486,0.524-0.528C113.369,105.758,113.473,105.93,113.41,106.188z"/>
		<path fill="#010101" d="M113.2,105.368c-0.052,0.142-0.171,0.265-0.29,0.288c-0.123,0.021-0.177-0.075-0.141-0.213
			c0.051-0.145,0.171-0.268,0.291-0.288C113.184,105.137,113.24,105.23,113.2,105.368z"/>
		<path fill="#010101" d="M114.021,105.446c-0.047,0.141-0.17,0.264-0.291,0.288c-0.115,0.021-0.172-0.075-0.135-0.217
			c0.051-0.144,0.172-0.267,0.29-0.287C114.002,105.212,114.06,105.309,114.021,105.446z"/>
		<path fill="#010101" d="M114,106.316c-0.051,0.141-0.17,0.267-0.29,0.285c-0.116,0.021-0.177-0.069-0.14-0.213
			c0.051-0.142,0.174-0.265,0.289-0.285C113.98,106.085,114.043,106.176,114,106.316z"/>
		<path fill="#010101" d="M113.209,107.084c-0.049,0.141-0.166,0.268-0.289,0.288c-0.12,0.019-0.174-0.075-0.139-0.213
			c0.049-0.144,0.172-0.267,0.29-0.288C113.187,106.854,113.246,106.949,113.209,107.084z"/>
		<path fill="#010101" d="M112.341,107.066c-0.052,0.144-0.173,0.267-0.29,0.287c-0.119,0.021-0.18-0.071-0.138-0.213
			c0.05-0.141,0.169-0.264,0.29-0.289C112.318,106.835,112.378,106.928,112.341,107.066z"/>
		<path fill="#010101" d="M112.355,106.208c-0.049,0.142-0.17,0.267-0.289,0.288c-0.119,0.023-0.173-0.072-0.139-0.213
			c0.051-0.145,0.17-0.268,0.29-0.288C112.341,105.977,112.395,106.07,112.355,106.208z"/>
	</g>
</g>
<g id="Tire_2_">
	<path fill="#141318" d="M122.733,98.708c-0.642,2.016-2.601,3.915-4.384,4.222c-1.768,0.321-2.688-1.071-2.047-3.087
		c0.643-2.017,2.599-3.914,4.385-4.224C122.47,95.313,123.375,96.705,122.733,98.708z"/>
	<path fill="#121332" d="M123.07,98.996c-0.629,2.008-2.568,3.889-4.322,4.198c-1.76,0.313-2.662-1.068-2.032-3.087
		c0.628-2.008,2.567-3.888,4.324-4.198C122.793,95.598,123.705,96.979,123.07,98.996z"/>
	<path fill="#141318" d="M123.617,99.253c-0.645,2.017-2.603,3.917-4.385,4.221c-1.766,0.322-2.688-1.067-2.049-3.088
		c0.646-2.017,2.604-3.913,4.385-4.222C123.35,95.854,124.256,97.246,123.617,99.253z"/>
	<path fill="#121332" d="M123.949,99.541c-0.631,2.002-2.568,3.888-4.324,4.198c-1.76,0.306-2.662-1.069-2.031-3.091
		c0.629-2.004,2.567-3.885,4.32-4.196C123.674,96.142,124.582,97.53,123.949,99.541z"/>
	<path fill="#141318" d="M124.364,99.733c-0.642,2.017-2.597,3.91-4.383,4.22c-1.771,0.322-2.69-1.07-2.05-3.087
		c0.643-2.018,2.602-3.914,4.383-4.222C124.099,96.337,125.012,97.713,124.364,99.733z"/>
	<path fill="#121332" d="M124.7,100.019c-0.626,2.005-2.567,3.889-4.324,4.2c-1.76,0.31-2.659-1.07-2.032-3.09
		c0.628-2.004,2.573-3.886,4.326-4.198C124.424,96.623,125.333,98.013,124.7,100.019z"/>
	<path fill="#141318" d="M124.809,100.169c-0.607,1.999-2.481,3.848-4.184,4.145c-1.697,0.293-2.584-1.063-1.975-3.059
		c0.607-1.999,2.481-3.849,4.184-4.146C124.539,96.81,125.428,98.177,124.809,100.169z"/>
	<path fill="#121332" d="M124.385,100.369c-0.513,1.682-2.086,3.248-3.524,3.497c-1.436,0.258-2.181-0.912-1.665-2.583
		c0.516-1.688,2.086-3.25,3.525-3.497C124.152,97.546,124.898,98.696,124.385,100.369z"/>
	<path fill="#CDCCCC" d="M123.828,100.332c-0.415,1.35-1.682,2.594-2.828,2.805c-1.166,0.207-1.76-0.724-1.352-2.076
		c0.416-1.351,1.684-2.594,2.833-2.802C123.634,98.068,124.241,98.996,123.828,100.332z"/>
	<path fill="#989898" d="M123.29,100.335c-0.333,1.097-1.356,2.108-2.287,2.273c-0.937,0.165-1.427-0.579-1.093-1.674
		c0.336-1.096,1.356-2.109,2.288-2.272C123.131,98.5,123.617,99.253,123.29,100.335z"/>
	<path fill="#CDCCCC" d="M122.82,100.493c-0.241,0.802-0.997,1.542-1.683,1.668c-0.68,0.108-1.042-0.435-0.796-1.243
		c0.248-0.804,0.997-1.544,1.688-1.665C122.723,99.137,123.08,99.693,122.82,100.493z"/>
	<g id="Tire_Hole_2_">
		<path fill="#010101" d="M122.037,100.564c-0.078,0.259-0.306,0.482-0.521,0.525c-0.221,0.031-0.334-0.135-0.258-0.389
			c0.081-0.257,0.311-0.483,0.525-0.526C122,100.134,122.104,100.307,122.037,100.564z"/>
		<path fill="#010101" d="M121.826,99.745c-0.049,0.142-0.17,0.265-0.289,0.286c-0.123,0.021-0.173-0.072-0.139-0.211
			c0.051-0.145,0.17-0.268,0.289-0.289C121.814,99.515,121.868,99.605,121.826,99.745z"/>
		<path fill="#010101" d="M122.648,99.822c-0.047,0.143-0.17,0.265-0.29,0.284c-0.12,0.022-0.175-0.069-0.135-0.211
			c0.05-0.144,0.169-0.267,0.29-0.289C122.629,99.586,122.686,99.685,122.648,99.822z"/>
		<path fill="#010101" d="M122.625,100.693c-0.049,0.143-0.169,0.267-0.289,0.285c-0.115,0.023-0.176-0.068-0.138-0.213
			c0.051-0.141,0.169-0.265,0.29-0.285C122.607,100.459,122.67,100.553,122.625,100.693z"/>
		<path fill="#010101" d="M121.836,101.463c-0.051,0.141-0.17,0.267-0.289,0.287c-0.117,0.021-0.174-0.074-0.139-0.216
			c0.051-0.142,0.174-0.265,0.289-0.286C121.814,101.23,121.877,101.327,121.836,101.463z"/>
		<path fill="#010101" d="M120.964,101.441c-0.047,0.145-0.169,0.268-0.29,0.288c-0.117,0.021-0.177-0.072-0.138-0.216
			c0.048-0.143,0.168-0.266,0.29-0.287C120.949,101.212,121.006,101.306,120.964,101.441z"/>
		<path fill="#010101" d="M120.983,100.586c-0.05,0.141-0.17,0.267-0.29,0.285c-0.119,0.023-0.177-0.072-0.138-0.211
			c0.05-0.146,0.169-0.268,0.29-0.288C120.969,100.352,121.021,100.447,120.983,100.586z"/>
	</g>
</g>
<g id="Tire">
	<path fill="#141318" d="M88.869,117.328c-0.642,2.02-2.6,3.915-4.385,4.225c-1.768,0.32-2.688-1.071-2.046-3.09
		c0.643-2.021,2.601-3.912,4.384-4.221C88.606,113.933,89.512,115.328,88.869,117.328z"/>
	<path fill="#121332" d="M89.208,117.617c-0.63,2.01-2.569,3.887-4.325,4.199c-1.759,0.313-2.663-1.071-2.034-3.09
		c0.63-2.007,2.568-3.889,4.325-4.197C88.928,114.221,89.842,115.601,89.208,117.617z"/>
	<path fill="#141318" d="M89.754,117.877c-0.642,2.017-2.602,3.912-4.385,4.219c-1.77,0.32-2.688-1.068-2.046-3.09
		c0.642-2.016,2.6-3.915,4.383-4.225C89.484,114.476,90.395,115.867,89.754,117.877z"/>
	<path fill="#121332" d="M90.084,118.162c-0.629,2.004-2.568,3.889-4.325,4.197c-1.757,0.309-2.662-1.068-2.033-3.093
		c0.629-2.004,2.569-3.882,4.325-4.194C89.813,114.764,90.718,116.152,90.084,118.162z"/>
	<path fill="#141318" d="M90.5,118.354c-0.642,2.016-2.601,3.911-4.384,4.221c-1.769,0.317-2.689-1.071-2.047-3.087
		c0.641-2.021,2.603-3.914,4.383-4.224C90.236,114.959,91.146,116.336,90.5,118.354z"/>
	<path fill="#121332" d="M90.838,118.64c-0.63,2.01-2.568,3.888-4.323,4.2c-1.76,0.309-2.663-1.072-2.037-3.09
		c0.63-2.008,2.572-3.885,4.327-4.197C90.56,115.244,91.472,116.636,90.838,118.64z"/>
	<path fill="#141318" d="M90.944,118.793c-0.608,1.994-2.482,3.846-4.182,4.145c-1.695,0.291-2.582-1.067-1.977-3.063
		c0.608-1.994,2.481-3.846,4.179-4.146C90.679,115.433,91.563,116.801,90.944,118.793z"/>
	<path fill="#121332" d="M90.522,118.99c-0.513,1.684-2.087,3.249-3.523,3.495c-1.433,0.261-2.181-0.909-1.663-2.583
		c0.513-1.689,2.087-3.249,3.523-3.492C90.289,116.168,91.035,117.316,90.522,118.99z"/>
	<path fill="#CDCCCC" d="M89.966,118.955c-0.415,1.346-1.681,2.594-2.831,2.801c-1.163,0.207-1.76-0.72-1.349-2.072
		c0.417-1.35,1.681-2.596,2.833-2.805C89.768,116.689,90.374,117.619,89.966,118.955z"/>
	<path fill="#989898" d="M89.429,118.957c-0.332,1.096-1.358,2.109-2.289,2.273c-0.934,0.16-1.426-0.576-1.09-1.675
		c0.335-1.093,1.356-2.105,2.289-2.273C89.269,117.119,89.754,117.877,89.429,118.957z"/>
	<path fill="#CDCCCC" d="M88.958,119.113c-0.246,0.805-1,1.545-1.683,1.668c-0.681,0.111-1.043-0.436-0.794-1.238
		c0.247-0.808,1-1.549,1.683-1.672C88.862,117.76,89.216,118.315,88.958,119.113z"/>
	<g id="Tire_Hole">
		<path fill="#010101" d="M88.175,119.186c-0.08,0.258-0.308,0.482-0.524,0.525c-0.219,0.032-0.332-0.136-0.257-0.388
			c0.083-0.258,0.311-0.483,0.526-0.528C88.133,118.756,88.238,118.928,88.175,119.186z"/>
		<path fill="#010101" d="M87.963,118.367c-0.05,0.141-0.171,0.264-0.29,0.287c-0.123,0.021-0.176-0.072-0.138-0.213
			c0.05-0.145,0.17-0.268,0.291-0.288C87.948,118.135,88.004,118.229,87.963,118.367z"/>
		<path fill="#010101" d="M88.787,118.444c-0.051,0.142-0.172,0.265-0.29,0.288c-0.119,0.021-0.176-0.072-0.137-0.216
			c0.05-0.144,0.172-0.267,0.29-0.288C88.766,118.211,88.823,118.307,88.787,118.444z"/>
		<path fill="#010101" d="M88.763,119.314c-0.05,0.141-0.171,0.268-0.29,0.285c-0.12,0.023-0.176-0.069-0.138-0.213
			c0.05-0.141,0.17-0.264,0.291-0.285C88.744,119.084,88.805,119.174,88.763,119.314z"/>
		<path fill="#010101" d="M87.974,120.082c-0.052,0.141-0.172,0.268-0.292,0.288s-0.175-0.075-0.135-0.213
			c0.049-0.144,0.17-0.267,0.289-0.288C87.953,119.852,88.011,119.947,87.974,120.082z"/>
		<path fill="#010101" d="M87.102,120.064c-0.05,0.145-0.172,0.268-0.291,0.288c-0.12,0.021-0.178-0.072-0.138-0.216
			c0.05-0.141,0.17-0.264,0.29-0.289C87.085,119.834,87.14,119.926,87.102,120.064z"/>
		<path fill="#010101" d="M87.122,119.207c-0.051,0.144-0.172,0.266-0.292,0.289c-0.12,0.021-0.177-0.074-0.137-0.215
			c0.051-0.146,0.172-0.267,0.292-0.289C87.104,118.976,87.158,119.068,87.122,119.207z"/>
	</g>
</g>
<polygon fill="#161616" points="114.932,100.977 117.421,102.704 117.975,102.704 118.645,102.266 119.104,100.5 120.373,99.217 
	123.588,97.218 124.275,97.473 124.949,97.925 125.447,97.813 125.779,97.473 125.84,96.117 125.447,95.667 123.832,94.902 "/>
<polygon fill="#2D2D2D" points="105.1,106.988 107.957,108.943 108.596,108.943 109.363,108.445 109.889,106.445 111.346,104.996 
	115.037,102.734 115.828,103.022 116.596,103.532 117.172,103.406 117.556,103.022 117.619,101.486 117.172,100.975 
	115.314,100.111 "/>
<polygon fill="#9A9A9B" points="101.365,109.934 129.677,91.822 130.098,89.677 127.889,89.329 99.764,104.973 "/>
<polygon fill="#191919" points="91.748,118.685 103.027,111.389 103.283,107.521 99.489,104.996 90.02,111.566 "/>
<polygon fill="#B5B5B5" points="89.684,95.061 113.877,80.846 130.098,89.677 101.24,107.48 101.24,102.35 "/>
<polygon fill="#999999" points="90.147,95.921 91.548,95.116 104.855,102.569 103.472,103.436 "/>
<polygon fill="#999999" points="94.048,93.532 95.449,92.729 108.759,100.18 107.375,101.047 "/>
<polygon fill="#999999" points="98.054,91.124 99.455,90.319 112.766,97.77 111.381,98.636 "/>
<polyline fill="#4C4C4C" points="84.689,94.254 86.867,93.422 88.117,94.254 102.193,101.928 102.193,107.918 91.06,114.893 
	84.689,94.669 "/>
<polygon fill="#2D2D2D" points="102.193,101.928 87.81,110.152 90.305,114.218 92.312,114.109 102.193,107.918 "/>
<path fill="#B5B5B5" d="M68.981,95.503l8.063-5.184h1.152l13.439,7.549l0.321,1.344v18.563l-0.642,0.637
	c0,0,0.321-6.016-3.711-3.265c0,0-3.875,2.112-3.476,7.17l-3.662,2.304c0,0-1.503,0.639-4.767-1.218l-10.176-6.336v-13.106
	C65.525,103.958,65.909,98.96,68.981,95.503z"/>
<path opacity="0.7" fill="#999999" enable-background="new    " d="M76.021,123.58v-2.091l2.2,0.942l0.887,0.894l1.089-1.866
	c0,0,0.271-3.653,0.079-7.409l0.417-6.567l0.639-2.336l10.305-7.269l0.318,1.344v18.558l-0.639,0.64c0,0,0.336-6.052-3.714-3.264
	c0,0-3.891,2.178-3.475,7.169l-3.662,2.305C80.468,124.621,79.209,125.17,76.021,123.58z"/>
<path d="M54.819,106.719l0.212,5.327l1.296,0.769c0.097,1.104-0.431,1.871-0.431,1.871c-0.673,1.584-2.593,0.674-2.593,0.674v-1.68
	l0.768,0.046c0.238,1.056,0.912,0.621,0.912,0.621c0.624-0.866-0.576-2.018-0.576-2.018v-5.616h0.413L54.819,106.719L54.819,106.719
	z"/>
<polygon fill="#4C4C4C" points="82.209,91.645 82.209,86.805 83.38,86.206 84.129,86.719 84.129,92.059 83.49,92.449 "/>
<path fill="#7F7F7F" d="M79.998,122.045c0,0,1.62-0.685,4.132-4.971c0,0,0.98-1.795,5.267-3.906l2.559-1.326l0.897,0.447
	l-0.258,6.575l-1.203-0.207c0,0,0.117-4.61-2.763-3.482c0,0-4.674,1.095-4.448,7.652c0,0-3.121,3.265-5.96,2.367l-12.693-7.344
	l-0.16-0.42v-3.11l0.16-0.447L79.998,122.045z"/>
<path fill="#434F6B" d="M65.975,107.15l-0.091-3.352l0.614-4.16c0,0,10.805,6.143,12.785,7.88l1.413-0.041l-0.421,6.564
	c0,0,0.029,0.659-0.536,0.502L65.975,107.15z"/>
<polygon fill="#2D2D2D" points="69.013,102.35 80.634,108.445 81.334,105.141 70.838,99.47 "/>
<path fill="#D8D8D8" d="M53.013,106.861c0,0,0-1.247,1.728-2.207l69.021-36.288l2.017,1.344v3.264l-54.237,28.127
	C71.542,101.102,54.582,109.838,53.013,106.861z"/>
<path fill="#B5B5B5" d="M52.629,110.27l0.673-0.768l3.037-1.296l0.227,2.063l-2.4,2.016
	C54.166,112.285,52.344,112.046,52.629,110.27z"/>
<polygon points="56.952,107.15 57.912,104.941 60.501,104.03 59.605,106.382 "/>
<polygon points="61.413,105.59 62.229,103.262 63.909,102.35 62.994,105.044 "/>
<polygon points="67.477,103.086 68.15,100.83 69.589,99.968 68.69,102.504 "/>
<polygon fill="#BFBFBF" points="110.272,86.605 101.24,80.846 101.24,76.719 116.564,68.367 128.275,75.92 "/>
<polygon points="64.579,104.378 65.591,101.711 67.19,100.879 66.087,103.709 "/>
<polygon fill="#333333" points="71.03,101.525 125.779,73.358 126.195,69.582 123.992,68.031 68.981,96.652 72.311,98.061 "/>
<polygon fill="#606060" points="56.337,104.378 110.645,75.92 111.922,76.43 56.567,104.717 "/>
<ellipse fill="#5B5B5B" cx="114.544" cy="89.327" rx="9.448" ry="5.732"/>
<path fill="#D8D8D8" d="M105.778,90.319c0,0,0.636-12.831,11.456-13.983c0,0,1.643-0.349,1.835,0.324l6.708-3.299l5.471,3.456
	l2.977,2.017v3.84l-19.775,14.112L105.778,90.319z"/>
<polygon fill="#2D2D2D" points="66.268,109.357 78.74,116.303 78.613,118.685 76.021,118.861 67.829,114.281 66.268,112.195 "/>
<path d="M67.499,118.846l0.062-2.639l8.149,4.715l-0.094,2.577L67.499,118.846z"/>
<path fill="#ADADAD" d="M134.228,82.67v-3.84l-7.828,4.129c0,0-1.376-4.021-6.479,0c0,0-4.8,4.271-5.473,13.823L134.228,82.67z"/>
<polygon fill="#434F6B" points="81.781,107.48 81.572,111.389 81.781,112.013 86.836,108.652 86.836,104.378 "/>
<path fill="#434F6B" d="M111.922,78.108c0,0-5.808,3.028-6.065,11.216l7.665,5.571c0,0,0.449-8.063,5.394-12.192L111.922,78.108z"/>
<path fill="#434F6B" d="M119.923,82.958c0,0-5.231,4.469-5.376,12.102l5.376-7.429V82.958z"/>
<polygon fill="#F2F2F2" points="76.923,121.805 76.923,123.598 78.22,124.301 78.22,122.432 "/>
<polygon fill="#F2F2F2" points="65.796,115.175 66.756,115.703 66.756,117.431 65.783,116.933 "/>
<path fill="#050505" d="M122.158,81.569l0.223,9.552l1.74-1.243l-0.243-8.708C123.875,81.173,123.058,81.108,122.158,81.569z"/>
<polygon fill="#232323" points="81.239,105.581 82.102,105.902 81.669,112.271 80.917,112.013 80.917,112.271 81.91,112.559 
	81.91,110.957 82.678,111.293 82.901,108.193 82.196,107.885 82.294,105.773 81.268,105.326 "/>
<polygon fill="#9A9A9B" points="66.473,109.951 78.534,116.768 78.534,117.203 66.473,110.402 "/>
<polygon fill="#9A9A9B" points="66.473,111.27 78.534,118.084 78.534,118.52 66.473,111.719 "/>
<polygon fill="#4C4C4C" points="86.518,94.254 86.518,89.414 87.684,88.816 88.438,89.329 88.438,94.669 87.799,95.061 "/>
<path fill="#7685A5" d="M80.42,108.445l-0.576,5.133l-0.238,0.531l-12.417-6.623C67.19,107.48,67.557,104.033,80.42,108.445z"/>
<path fill="#7685A5" d="M85.844,105.59c0,0-1.599,1.18-1.855,4.059v0.601l2.575-1.8v-3.729L85.844,105.59z"/>
<path fill="#7685A5" d="M118.195,82.509c0,0-0.044,0-0.133,0.001c-1.221,0.029-10.521,0.453-11.837,6.816l6.625,4.542
	C112.851,93.869,111.154,90.381,118.195,82.509z"/>
<path fill="#7685A5" d="M119.281,85.042l-0.366,2.528l-1.681,2.752C117.234,90.319,118.32,86.102,119.281,85.042z"/>
<polygon fill="#5B5B5B" points="94.784,112.559 95.411,112.877 95.411,116.314 96.179,115.82 96.179,112.43 95.483,112.123 "/>
<polygon fill="#5B5B5B" points="99.068,109.838 99.692,110.158 99.692,113.597 100.46,113.099 100.46,109.709 99.764,109.402 "/>
</svg>
