<?xml version="1.0" encoding="utf-8"?>
<!-- Generator: Adobe Illustrator 16.0.0, SVG Export Plug-In . SVG Version: 6.00 Build 0)  -->
<!DOCTYPE svg PUBLIC "-//W3C//DTD SVG 1.1//EN" "http://www.w3.org/Graphics/SVG/1.1/DTD/svg11.dtd">
<svg version="1.1" id="Layer_1" xmlns="http://www.w3.org/2000/svg" xmlns:xlink="http://www.w3.org/1999/xlink" x="0px" y="0px"
	 width="500px" height="500px" viewBox="0 0 500 500" enable-background="new 0 0 500 500" xml:space="preserve">
<path d="M250,63.5C142.028,63.5,54.5,151.028,54.5,259S142.028,454.5,250,454.5S445.5,366.972,445.5,259S357.972,63.5,250,63.5z
	 M250,444.5c-102.449,0-185.5-83.051-185.5-185.5c0-102.449,83.051-185.5,185.5-185.5c102.449,0,185.5,83.051,185.5,185.5
	C435.5,361.449,352.449,444.5,250,444.5z"/>
<polygon points="84.673,159.588 157.035,427.732 173.167,433.833 96.296,146.232 "/>
<g>
	<path d="M416.5,213.5l-31.29-84.312c-101.825,81.355-130.903,13.978-130.903,13.978c-29.091-60.667-148.473,11.332-148.473,11.332
		l48,173.872c83.933-75.462,121.518-32.538,121.518-32.538c71.638,56,160.01-29.992,160.01-29.992L416.5,213.5z M244,250l10.75,29.5
		c-9-5.5-34.25,2.5-34.25,2.5l-0.25-1.25l-9.049-26.61c0,0-17.201,0.058-33.701,10.692l11.333,29.334
		c-15.667,6.608-27.704,16.684-27.704,16.684l-10.964-32.684c11.921-7.757,27.334-13.334,27.334-13.334l-9.996-26.49
		C155.516,240.88,140.195,250,140.195,250l-9.197-31.304c11.921-7.756,26.669-10.332,26.669-10.332l-8.435-31.267
		C137,176.5,121.96,187.706,121.96,187.706l-9.197-31.304c11.921-7.756,25.277-10.332,25.277-10.332l11.192,31.027
		c0,0,17.101-9.097,30.768-8.431l11.5,29.167c0,0-17.333-0.104-33.833,10.531l9.837,29.978c0,0,21.288-11.122,34.955-10.456
		l-10.744-29.578C209.181,190.117,226,193.5,226,193.5L216,163c-9-5.5-36.018,5.5-36.018,5.5l-0.25-1.25L168.5,138
		c17.465-8.191,35-7.5,35-7.5L216,163h1.25c16.25-5.75,32.75,4.5,32.75,4.5l10.833,31c-10.5-9-34.833-5-34.833-5l10.75,29.5
		c0,0,20.195-2.75,33.848,5l6.902,29C277.5,257,263,248.5,244,250z"/>
	<path d="M202.459,227.887l8.742,26.253C228.667,245.948,244,250,244,250l-7.25-27C227.75,217.5,202.459,227.887,202.459,227.887z"
		/>
</g>
</svg>
