<?xml version="1.0" encoding="utf-8"?>
<!-- Generator: Adobe Illustrator 16.0.0, SVG Export Plug-In . SVG Version: 6.00 Build 0)  -->
<!DOCTYPE svg PUBLIC "-//W3C//DTD SVG 1.1//EN" "http://www.w3.org/Graphics/SVG/1.1/DTD/svg11.dtd">
<svg version="1.1" id="Layer_1" xmlns="http://www.w3.org/2000/svg" xmlns:xlink="http://www.w3.org/1999/xlink" x="0px" y="0px"
	 width="500px" height="500px" viewBox="0 0 500 500" enable-background="new 0 0 500 500" xml:space="preserve">
<path d="M250,63.5C142.028,63.5,54.5,151.028,54.5,259S142.028,454.5,250,454.5S445.5,366.972,445.5,259S357.972,63.5,250,63.5z
	 M250,444.5c-102.449,0-185.5-83.051-185.5-185.5c0-102.449,83.051-185.5,185.5-185.5c102.449,0,185.5,83.051,185.5,185.5
	C435.5,361.449,352.449,444.5,250,444.5z"/>
<polygon points="87.291,158.871 159.653,427.016 173.167,433.833 96.296,146.232 "/>
<path d="M105.833,154.499c0,0,119.382-71.999,148.473-11.332c0,0,29.078,67.377,130.903-13.978l-31.614,94.644l81.766,42.008
	c0,0-88.372,85.992-160.01,29.992c0,0-37.585-42.924-121.518,32.538"/>
</svg>
