<?xml version="1.0" encoding="utf-8"?>
<!-- Generator: Adobe Illustrator 16.0.0, SVG Export Plug-In . SVG Version: 6.00 Build 0)  -->
<!DOCTYPE svg PUBLIC "-//W3C//DTD SVG 1.1//EN" "http://www.w3.org/Graphics/SVG/1.1/DTD/svg11.dtd">
<svg version="1.1" id="Layer_1" xmlns="http://www.w3.org/2000/svg" xmlns:xlink="http://www.w3.org/1999/xlink" x="0px" y="0px"
	 width="100px" height="100px" viewBox="0 0 100 100" enable-background="new 0 0 100 100" xml:space="preserve">

	 <style type="text/css">
	  .arrow{fill:{{statusColor}};display:{{arrowDisplay}}}
	  .hourglass{fill:{{hourglassColor}};display:{{hourglassDisplay}}}
    .parking{display:{{parkingDisplay}};fill:{{parkingColor}}}
	 </style>
	}

<g transform="translate({{translateX}},0) scale({{scaleX}},1)">
	<g display="none">
		<path id="smoke_2" display="inline" fill="#666766" d="M66.838,48.515c0.199,0.299-0.301,0.599-0.301,0.599c0.5,0.602,0,1,0,1
			c-0.199,0.301-0.898,0-0.898,0c-0.199,0.602-0.801,0.5-0.801,0.5c-0.699,0-0.602-0.6-0.602-0.6c-0.604-0.101-0.5-0.5-0.5-0.5
			c0-0.3,0.602-0.3,0.602-0.3c-0.699-0.301-0.5-0.801-0.5-0.801c0.199-0.6,1-0.199,1-0.199c0.699-0.601,1.199,0.199,1.199,0.199
			C66.338,47.914,66.838,48.515,66.838,48.515z		">
<animateTransform  type="translate" fill="remove" attributeName="transform" dur="1" calcMode="linear" restart="always" values="0,0;2,-2" begin="0s" additive="replace" repeatCount="indefinite" accumulate="none" attributeType="XML">
				</animateTransform>
			
				<animate  fill="remove" to="0" attributeName="opacity" dur="1" calcMode="linear" restart="always" begin="0.5s" additive="replace" repeatCount="indefinite" accumulate="none" from="1">
				</animate>
		</path>
		<path id="smoke_1" display="inline" fill="#999999" d="M65.539,49.414c0.102,0.199-0.199,0.4-0.199,0.4c0.301,0.399,0,0.6,0,0.6
			c-0.102,0.199-0.5,0-0.5,0c-0.102,0.4-0.5,0.301-0.5,0.301c-0.4,0-0.4-0.4-0.4-0.4c-0.396-0.1-0.299-0.301-0.299-0.301
			c0-0.199,0.299-0.199,0.299-0.199c-0.5-0.2-0.299-0.5-0.299-0.5c0.104-0.399,0.604-0.1,0.604-0.1c0.396-0.301,0.694,0.1,0.694,0.1
			C65.238,49.113,65.539,49.414,65.539,49.414z		">
<animateTransform  type="translate" fill="remove" attributeName="transform" dur="0.5" calcMode="linear" restart="always" values="0,0;1,-1" begin="0s" additive="replace" repeatCount="indefinite" accumulate="none" attributeType="XML">
				</animateTransform>
			
				<animate  fill="remove" to="0" attributeName="opacity" dur="1" calcMode="linear" restart="always" begin="0.5s" additive="replace" repeatCount="indefinite" accumulate="none" from="1">
				</animate>
		</path>
	</g>
	
		<animateTransform  type="translate" fill="remove" attributeName="transform" dur="1" calcMode="linear" restart="always" values="0,0;0.1,0.1;0,0" begin="0s" additive="replace" repeatCount="indefinite" accumulate="none" attributeType="XML">
		</animateTransform>
	
		<animateTransform  type="translate" fill="remove" attributeName="transform" dur="1" calcMode="linear" restart="always" values="0,0;0.1,0.1;0,0" begin="0s" additive="replace" repeatCount="indefinite" accumulate="none" attributeType="XML">
		</animateTransform>
	<g>
		<path fill="#5B5C5B" d="M43.452,49.696c-1.353-1.799-4.232-1.803-6.437-0.016c-2.204,1.789-2.894,4.697-1.543,6.492
			c1.353,1.807,4.236,1.807,6.436,0.021C44.113,54.398,44.801,51.494,43.452,49.696z M41.916,55.081
			c-1.405,1.452-3.309,1.832-4.247,0.854c-0.94-0.982-0.562-2.955,0.842-4.408c1.407-1.452,3.307-1.834,4.247-0.856
			C43.7,51.656,43.323,53.629,41.916,55.081z"/>
		<path fill="#5B5C5B" d="M61.314,44.335c-1.353-1.799-4.234-1.803-6.438-0.015c-2.199,1.787-2.894,4.693-1.541,6.491
			c1.354,1.795,4.238,1.803,6.44,0.016C61.977,49.037,62.666,46.134,61.314,44.335z M59.779,49.715
			c-1.406,1.455-3.307,1.835-4.246,0.857c-0.941-0.982-0.564-2.957,0.846-4.409c1.406-1.453,3.303-1.833,4.246-0.854
			C61.561,46.292,61.18,48.263,59.779,49.715z"/>
		<g>
			<path fill="#212120" d="M54.961,44.346l0.516,0.726l1.166,0.667c0,0,1.603,0.643,2.424,0.612l0.451,0.099l0.232,0.143
				c0,0,0.359,0.718,0,1.4c0,0-0.51,1.325-1.445,1.615c0,0-1.119,0.06-0.977-0.911c0,0-0.121-0.502-1.352-0.227
				c0,0-2.976,0.761-3.345,1.326l-0.547-0.335l0.312-2.215l0.592-1.035l1.119-1.405L54.961,44.346z"/>
			<path fill="#565146" d="M54.961,44.524l0.516,0.723l1.166,0.667c0,0,1.603,0.646,2.424,0.612l0.451,0.098l0.232,0.147
				c0,0,0.359,0.714,0,1.4c0,0-0.51,1.321-1.445,1.61c0,0-1.119,0.059-0.977-0.912c0,0-0.121-0.5-1.352-0.225
				c0,0-2.976,0.76-3.345,1.327l-0.547-0.339l0.312-2.215l0.592-1.035l1.119-1.404L54.961,44.524z"/>
			<path fill="#212120" d="M53.57,49.245c-0.021,0.121-0.127,0.197-0.242,0.181l0,0c-0.111-0.023-0.191-0.13-0.174-0.251
				l0.613-3.928c0.018-0.122,0.119-0.2,0.237-0.182l0,0c0.115,0.02,0.19,0.132,0.175,0.248L53.57,49.245z"/>
			<path fill="#212120" d="M55.264,48.729c0.049,0.106,0.014,0.237-0.09,0.293l0,0c-0.102,0.055-0.229,0.019-0.285-0.094
				l-1.785-3.518c-0.055-0.11-0.014-0.237,0.088-0.292l0,0c0.104-0.057,0.23-0.02,0.281,0.09L55.264,48.729z"/>
			<path fill="#2D2E2D" d="M36.141,50.22c0,0,1.211-1.824,2.986-2.258c0,0,2.449-0.335,4.221,0.426l-0.684,0.884l-2.456,4.533
				h-0.172H39.31c0,0-0.277-0.359-0.138-0.699l0.514-2.063c0,0,0.118-0.577-0.608-0.438c0,0-1.351,0.195-2.052,0.121
				C37.028,50.723,35.909,50.527,36.141,50.22z"/>
			<path fill="#BCBCBC" d="M52.006,45.57l1.816,1.5l1.531-0.462c0,0-0.902-1.369-0.123-2.38c0,0,0.311-0.301,2.768-0.948
				c0,0,1.709-0.256,3.887-1.904c0,0,1.029-1.779,1.213-2.229c0,0,0.25-0.605,0.623-0.596l-0.5-0.798c0,0-4.729-0.521-5.504,0.816
				c0,0-0.219,1.125-3.33,2.807C54.387,41.374,50.686,43.598,52.006,45.57z"/>
			<path opacity="0.4" fill="#3A3A38" enable-background="new    " d="M55.016,42.59c0,0-2.94,2.37-2.158,3.051l1.191,1.357
				l-0.227,0.072l-2-1.666l2.482-2.941C54.303,42.461,54.588,42.188,55.016,42.59z"/>
			<path fill="#3A3A38" d="M53.871,41.624c0,0,0.566-0.481,1.703-1.031c0,0,1.471-0.758,2-1.75c0,0,0.047-0.162,0.277-0.454
				c0,0,0.301-0.309,0.746-0.268c0,0,1.215,0.044,1.309,0.699c0,0,0.107,2.246-2.168,3.252c0,0-1.197,0.568-1.582,0.587
				c0,0-0.893,0.098-1.828-0.304C54.332,42.35,53.484,41.881,53.871,41.624z"/>
			<path fill="#665D4C" d="M53.77,41.624c0,0,0.563-0.481,1.701-1.031c0,0,1.473-0.758,1.998-1.75c0,0,0.041-0.162,0.275-0.454
				c0,0,0.299-0.309,0.75-0.268c0,0,1.213,0.044,1.307,0.699c0,0,0.105,2.246-2.164,3.252c0,0-1.205,0.568-1.584,0.587
				c0,0-0.893,0.098-1.826-0.304C54.227,42.35,53.379,41.881,53.77,41.624z"/>
			<path fill="#191919" d="M44.144,50.893c0,0-0.01,2.498-0.794,3.342l0.521,0.121h0.273c0,0,8.534-2.525,10.772-3.651
				c0,0,1.119-0.742,1.209-1.437l-0.275-0.533l-0.432,0.035L44.144,50.893z"/>
			<path fill="#B3B3B3" d="M44.144,42.122c0,0,0.226-1.14,0.778-1.283l1.885-0.632c0,0,2.121-0.372,2.959-0.346
				c0.049,0,0.139-0.023,0.175-0.02c0.678,0.067,2.646-0.039,3.48,0.122c0.05,0.007,0.093,0.015,0.125,0.026
				c0.748,0.193,1.074,2.037,1.006,2.447l-0.094,0.225l-1.039,0.987l-1.396,1.816l-0.201,0.925l-1.765,0.757
				C50.061,47.146,44.144,42.777,44.144,42.122z"/>
			<path fill="#BCBCBC" d="M38.799,48.165c0,0,3.285,0.304,7.078,4.185l-0.388,0.199l-0.065,0.26l0.312,0.127l0.749-0.16
				l0.578-0.227h0.509l0.11,0.166l0.125,0.389l5.86-2.302l0.349-0.167l2.271-1.182l-0.812-0.162c0,0-1.336,1.064-1.961,1.166
				l-0.934-0.682c0,0-0.373-0.647,0.684-1.878l0.156-0.75l-1.986-1.576c0,0-0.324-1.741-12.638,2.261L38.799,48.165L38.799,48.165z"
				/>
			<path fill="#3E3D35" d="M39.828,42.661l1.005,0.794l1.072-0.127l-0.44-1.456l-0.127-0.162v-1.042v-0.095l0.732-0.123v0.15
				l0.094,0.482l0.325-0.339c0,0,0.026-0.099,0.422,0c0,0,0.654,0.146,0.512,0.462l-0.188,0.312l-0.397,0.245l0.024,0.197
				l0.793,0.481l0.141-0.481h0.293l1.99,0.967v0.316l0.248-0.229l0.315,0.012l0.729,0.437l0.087,0.328l0.35,0.861l-0.235,1.118
				l-2.401,1.18l-2.056,0.123l-1.213-0.292l-1.122-0.967L38.5,45.01l-0.304-0.388C38.194,44.62,39.676,42.536,39.828,42.661z"/>
			<path fill="#C3C4C2" d="M47.184,43.346c0,0,0.319,0.789,6.412-2.751c0,0,0.533-0.521-0.047-0.605l-1.623-0.117
				c0,0-4.655-0.32-7.219,1.065c0,0-0.518,0.508-0.445,1.331C44.261,42.271,44.205,42.582,47.184,43.346z"/>
			<path opacity="0.4" fill="#3A3A38" enable-background="new    " d="M38.799,48.165c0,0,1.496,0.379,2.626,0.221
				c0,0,4.082-0.771,4.676-1.317l2.45-1.019l-0.288-0.451c0,0-9.189,1.953-9.464,2.412V48.165z"/>
			<path fill="#22201D" d="M45.66,44.225l0.283,0.862c0,0-0.142,0.323-0.142,0.367c0,0.052-0.065,0.279-0.221,0.343
				c-0.156,0.063-0.915,0.451-1.072,0.517c-0.154,0.066-0.964,0.275-1.058,0.289c-0.094,0.019-0.525,0-0.525,0l-0.235-0.289v-0.399
				l-0.317,0.06c0,0-0.208,0.354-0.208,0.422c0,0.063,0,0.545,0,0.545l1.101,0.226h0.996l1.058-0.226c0,0,1.058-0.447,1.185-0.497
				c0.121-0.048,1.181-0.75,1.181-0.75l-0.047-0.437l-0.268-0.447l-1.319-0.588L45.66,44.225L45.66,44.225z"/>
			<path fill="#CDCCCC" d="M47.304,40.739c0,0-0.337,0.587-0.12,1.587l-0.543,0.64h-0.264l-0.156,0.146h-0.14l-0.063-0.226
				l-0.265-0.146l-0.139,0.016l-2.429,2.456l-0.604,0.853l-0.098,0.324v0.226l0.203,0.131l0.592,0.257l1.911-0.124l2.379-1.118
				l0.063-0.505l-0.264-0.241l-1.711-0.79l0.141-0.354l1.275,0.726l0.822,0.609l0.656,0.695v0.146L48.409,46l-0.138-0.162
				l-3.021,1.306c0,0-3.325,1.02-4.833,1.02c0,0-2.443-0.162-2.83-0.422l-0.42-0.679l-0.141-0.114l-0.124,0.064L36.81,47.14
				c0,0-0.201-1.902,0.435-2.972c0,0,2.115-3.743,4.884-4.744c0,0-2.566,1.226-4.045,4.368l-0.576,1.35l0.278,0.305l2.847-1.016
				l1.882-1.163l4.011-2.393L47.304,40.739z"/>
			<path opacity="0.4" fill="#343A56" enable-background="new    " d="M47.184,40.53c0,0-2.162,0.226-4.043-1.064
				c0,0-0.031-0.292,0-0.407l0.063-0.114h-0.467l-1.898,1.405c0,0-1.662,1.958-1.709,1.97c-0.047,0.019-0.935,1.325-0.935,1.325
				v0.632l0.188,0.485l0.5,0.146l1.431-0.196l1.104-0.584l5.77-3.536"/>
			<polyline fill="#444130" points="42.287,39.174 42.222,39.075 42.222,38.331 42.146,38.218 41.07,37.751 40.918,37.751 
				40.635,38.007 40.635,38.458 40.838,38.687 41.195,39.027 42.099,39.174 42.208,39.347 42.287,39.279 			"/>
			<path fill="#232321" d="M47.293,40.257c0,0-3.825,1.889-5.271,3.01c0,0-4.294,2.471-3.595,0.677c0,0,2.021-3.923,4.394-4.65
				l0.161-0.244l0.063-0.095h-0.543l-0.358,0.368c0,0-2.378,0.956-4.651,4.619c0,0-0.219,0.52-0.328,2.152l0.141,0.226
				c0,0,2.101-0.182,3.872-1.31l4.447-3.198c0,0,0.812-0.746,1.946-1.181v-0.11L47.293,40.257z"/>
			<path fill="#444130" d="M46.362,41.627l0.248-0.526c0,0,0.388-0.041,0.574,0l1.007,0.723c0,0,0.221,0.162,0.221,0.241
				l-0.076,0.417c0,0-0.062,0.268-0.373,0.151l-1.398-0.553C46.565,42.078,46.221,41.916,46.362,41.627z"/>
			<path fill="#343438" d="M47.092,44.362c0,0-0.172-0.549,0.342-0.715l2.192,1.054l0.079-0.098l0.359,0.21L49.72,45.57
				l-0.592-0.285l-0.03-0.068L47.092,44.362z"/>
			<path fill="#B0B0B0" d="M50.181,45.318c-0.091,0.214-0.24,0.354-0.334,0.312c-0.091-0.042-0.095-0.25-0.002-0.464
				c0.089-0.214,0.238-0.354,0.328-0.312C50.269,44.896,50.271,45.104,50.181,45.318z"/>
			<path fill="#B0B0B0" d="M50.177,45.309c-0.091,0.216-0.268,0.345-0.398,0.286c-0.131-0.059-0.162-0.282-0.071-0.499
				c0.092-0.216,0.271-0.343,0.4-0.285C50.24,44.869,50.269,45.093,50.177,45.309z"/>
			<path fill="#111111" d="M37.736,47.037l1.085,0.176c0,0,0.98,1.068,1.704-0.285l0.523-0.064l0.595-0.592V46.11l-3.219,0.354
				c0,0-0.371,0.075-0.548,0.229C37.876,46.694,37.736,46.878,37.736,47.037z"/>
			<path fill="#CAB749" d="M37.736,47.007l1.05,0.162c0,0,0.979,1.073,1.702-0.285l0.524-0.06l0.594-0.59v-0.123l-3.216,0.312
				c0,0-0.373,0.071-0.551,0.233C37.839,46.652,37.736,46.85,37.736,47.007z"/>
			<path fill="#CDCCCC" d="M40.342,46.388c0,0,0.15,0.456-0.233,0.84c0,0-0.571,0.542-1.263-0.209l-0.047,0.064
				c0,0,0.491,0.603,1.083,0.371c0,0,0.497-0.181,0.545-0.699c0,0,0.035-0.192-0.031-0.354L40.342,46.388z"/>
			<path fill="#3A3B3B" d="M42.925,49.842l-2.224,4.682l-0.239,0.072l-0.532-0.316l2.079-4.942
				C42.009,49.336,42.791,49.573,42.925,49.842z"/>
			<path fill="#D1D2D2" d="M42.845,49.779l-2.224,4.678l-0.239,0.07l-0.529-0.313l2.076-4.944
				C41.929,49.27,42.711,49.507,42.845,49.779z"/>
			<polygon opacity="0.3" fill="#CFCFCE" enable-background="new    " points="40.082,44.245 40.038,45.599 40.386,45.445 
				40.386,44.102 			"/>
			<polygon fill="#DEDEDD" points="42.555,44.019 42.555,45.941 42.845,45.57 42.845,43.807 			"/>
			<path fill="#232321" d="M41.545,49.147c0,0,2.742,1.429,4.14,3.203H46.5l6.061-3.225c0,0,0.449-1.069,0.775-1.212l0.086-0.767
				l-1.986-1.576c0,0-0.268,0.5-0.99,0.746l-2.905,0.853l0.27,0.334c0,0-3.269,1.339-4.18,1.456L41.545,49.147z"/>
			<path fill="#010101" d="M47.808,47.505l1.376,1.765c0,0,2.591-1.523,2.639-1.658l-2.753,1.351L47.808,47.505z"/>
			<path fill="#B3B3B3" d="M57.322,44.102"/>
			<path fill="#353635" d="M49.883,39.859l0.259-0.147c0,0,0.922-0.206,1.657,0.072l0.248,0.169c0,0,0.324,0.447-0.83,0.438
				c0,0-0.735-0.039-1.111-0.252c-0.12-0.068-0.232-0.17-0.225-0.282"/>
			<path fill="#353635" d="M53.723,40.596c0,0-2.02,0.884-2.006,1.504c0,0-0.012,0.605,0.365,1.659c0,0-0.555-1.406-0.156-1.832
				C51.926,41.928,52.09,41.528,53.723,40.596z"/>
			<path fill="#232321" d="M57.998,43.278c0,0-0.656-1.148,1.023-1.647c0,0,1.342-0.339,2.182-1.697c0,0,0.08-0.387-0.111-0.437
				c-0.189-0.051-0.232-0.099-0.357-0.099c-0.121,0-0.149-0.146-0.149-0.146s0.106-0.387,1.506-0.516
				c1.397-0.132,1.522-0.114,1.522-0.114l-0.393,0.455c0,0-0.354,0.481-0.572,0.932c-0.221,0.451-0.735,1.295-0.936,1.536
				c-0.203,0.245-2.883,1.587-3.672,1.73"/>
			<path fill="#111111" d="M53.85,49.605c0,0.264-0.217,0.477-0.488,0.477c-0.274,0-0.498-0.213-0.498-0.477
				s0.281-0.526,0.558-0.526S53.85,49.343,53.85,49.605z"/>
			<path fill="#838383" d="M53.85,49.605c0,0.207-0.217,0.458-0.428,0.458c-0.213,0-0.293-0.103-0.293-0.309
				c0-0.209,0.27-0.557,0.479-0.557C53.822,49.198,53.85,49.399,53.85,49.605z"/>
			<path fill="#111111" d="M53.668,49.621c0,0.072-0.072,0.159-0.148,0.159c-0.067,0-0.098-0.039-0.098-0.11
				c0-0.067,0.092-0.189,0.16-0.189C53.654,49.48,53.668,49.554,53.668,49.621z"/>
			<path opacity="0.5" fill="#E5E5E5" enable-background="new    " d="M37.736,49.967c0,0-0.477,0.509-0.786,0.629h0.231
				C37.182,50.596,37.677,50.299,37.736,49.967z"/>
			<path fill="#D1D2D1" d="M57.283,47.334v-0.189c0,0,1.936-0.782,2.543-0.441c0,0,0.561,0.646-0.352,2.123
				c0,0-0.691,0.963-1.257,1.003l-2.59,0.362v-0.13l2.513-0.433c0,0,0.858,0.15,1.52-1.46c0,0,0.77-1.757-0.885-1.328L57.283,47.334
				z"/>
			<path opacity="0.5" fill="#FFFFFF" enable-background="new    " d="M49.655,40.448c0,0-0.341,1.784-0.79,2.582l0.917-0.399
				c0,0,0.731-2.077,0.442-2.435c0,0-0.207-0.011-0.308-0.229c-0.015-0.035-0.025-0.071-0.034-0.114l-0.232,0.012
				C49.655,39.866,49.7,40.22,49.655,40.448z"/>
			<path fill="#A09F9F" d="M40.494,53.889c0.111,0,0.199,0.096,0.199,0.207c0,0.116-0.088,0.207-0.199,0.207
				c-0.11,0-0.201-0.091-0.201-0.207C40.293,53.982,40.384,53.889,40.494,53.889z"/>
			<circle fill="#282828" cx="40.494" cy="54.098" r="0.1"/>
		</g>
	</g>
	<path id="parking" class="parking" d="M53.154,17.552l-9.925,0.146l-4.863,8.393l5.061,8.247l9.925-0.146l4.863-8.393L53.154,17.552z
		 M49.126,30.557c-0.078,0.056-0.208,0.083-0.39,0.083h-0.21H45.77h-0.16c-0.148,0-0.263-0.031-0.344-0.093
		c-0.08-0.062-0.12-0.15-0.12-0.265c0-0.188,0.082-0.313,0.247-0.372c0.136-0.05,0.216-0.081,0.238-0.093
		c0.022-0.011,0.046-0.037,0.071-0.079c0.049-0.073,0.074-0.189,0.074-0.351v-6.885c0-0.16-0.025-0.277-0.074-0.351
		c-0.025-0.041-0.049-0.067-0.071-0.079c-0.022-0.012-0.103-0.042-0.238-0.093c-0.165-0.06-0.247-0.184-0.247-0.371
		c0-0.115,0.04-0.203,0.12-0.266c0.081-0.062,0.195-0.093,0.344-0.093h0.16h2.751v8.082c0,0.179,0.03,0.307,0.092,0.385
		c0.033,0.046,0.064,0.075,0.093,0.086c0.029,0.012,0.124,0.04,0.285,0.086c0.197,0.051,0.296,0.177,0.296,0.379
		C49.286,30.388,49.232,30.483,49.126,30.557z M52.02,25.805c-0.279,0.444-0.672,0.772-1.176,0.983
		c-0.416,0.17-1.016,0.255-1.799,0.255v-0.736c0.178-0.046,0.303-0.094,0.374-0.145c0.072-0.051,0.136-0.128,0.188-0.233
		c0.087-0.18,0.13-0.42,0.13-0.723v-2.201c0-0.215-0.014-0.376-0.043-0.481c-0.029-0.105-0.087-0.201-0.173-0.289
		c-0.12-0.128-0.28-0.208-0.482-0.24v-0.743c0.849,0,1.477,0.09,1.879,0.269c0.466,0.206,0.834,0.522,1.105,0.949
		c0.275,0.437,0.414,0.97,0.414,1.604C52.438,24.777,52.299,25.355,52.02,25.805z"/>
</g>
<g id="Direction">
	<g transform="rotate({{angle}} 50 50)">
		<polygon id="arrow" class="arrow" opacity="0.7" enable-background="new    " points="59.7,31.4 50.8,24 41.9,31.3 41.9,35.4 42,35.4 50.8,28.1 
			59.3,35.4 59.7,35.4 		">
		
			<animate  fill="remove" attributeName="opacity" dur="0.5s" calcMode="linear" restart="always" values="0.5; 0" begin="0s;anim_arrow3.end" additive="replace" accumulate="none" id="anim_arrow1">
			</animate>
		</polygon>
		<polygon id="arrow2" class="arrow" opacity="0.7" enable-background="new    " points="59.8,26.4 50.9,19 42,26.4 42,30.4 42.1,30.4 50.9,23.2 
			59.4,30.4 59.8,30.4 		">
		
			<animate  fill="remove" attributeName="opacity" dur="0.5s" calcMode="linear" restart="always" values="0.5; 0" begin="anim_arrow1.end" additive="replace" accumulate="none" id="anim_arrow2">
			</animate>
		</polygon>
		<polygon id="arrow3" class="arrow" opacity="0.7" enable-background="new    " points="59.9,21.4 51,14.1 42.1,21.4 42.1,25.5 42.2,25.5 
			51,18.2 59.5,25.5 59.9,25.5 		">
		
			<animate  fill="remove" attributeName="opacity" dur="0.5s" calcMode="linear" restart="always" values="0.5; 0" begin="anim_arrow2.end" additive="replace" accumulate="none" id="anim_arrow3">
			</animate>
		</polygon>
	</g>
</g>
<path id="Idle" class="hourglass" d="M53.254,17.539l-9.925,0.173l-4.841,8.392l5.084,8.247l9.901-0.146l4.863-8.433L53.254,17.539z M49.65,30.516
	l-2.625,0.005c0,0-0.5,0.019-0.516-0.293c0,0-0.031-0.281,0.375-0.391c0,0,0.234,0.016,0.25-0.453l-0.031-5.906
	c0,0,0.047-0.266-0.359-0.344c0,0-0.268-0.109-0.235-0.391c0,0,0.11-0.172,0.329-0.25h3.125c0,0,0.328,0.031,0.344,0.281
	c0,0,0.031,0.313-0.313,0.359c0,0-0.359,0.109-0.266,0.656l-0.031,5.641c0,0,0.031,0.422,0.328,0.438c0,0,0.361,0.063,0.282,0.484
	C50.307,30.353,50.212,30.555,49.65,30.516z"/>
</svg>
