<?xml version="1.0" encoding="utf-8"?>
<!-- Generator: Adobe Illustrator 19.2.1, SVG Export Plug-In . SVG Version: 6.00 Build 0)  -->
<svg version="1.1" id="Layer_1" xmlns="http://www.w3.org/2000/svg" xmlns:xlink="http://www.w3.org/1999/xlink" x="0px" y="0px"
	 viewBox="0 0 100 100" style="enable-background:new 0 0 100 100;" xml:space="preserve">
<style type="text/css">
	.st0{fill:#FFFFFF;}
	.st1{fill:#CCCCCC;}
</style>
<g id="Cloud_2">
	<path class="st0" d="M9.313,39.631c0,0-0.169-12.014,11.337-7.783c0,0-1.015-6.937,4.061-8.122c0,0,7.276-2.876,10.829,3.892
		c0,0,4.907-0.438,3.384,3.757c0,0,2.369-2.573,4.569-1.219c0,0,6.261,1.015,3.723,7.445c0,0-1.692,3.046-3.892,3.215
		c0,0,3.215-0.508,2.707,2.03c0,0-0.508,1.692-1.015,2.03c0,0,5.127-1.144,6.43,4.399c0,0,0.447,2.706-1.928,3.894l-3.188,0.875
		l-2.668-0.708c0,0-2.369,3.892-7.53,2.369c0,0,0.085,3.723-3.807,3.215c0,0-4.569,0.338-6.768-3.553c0,0-2.2,1.692-4.061,0.169
		c0,0-2.03-1.354-0.677-3.892c0,0-1.523,4.738-7.614,4.061c0,0-5.245-0.846-5.245-6.599l0.308-1.062l0.538-0.63l0.587-0.495
		l-1.094-1.028C8.297,45.892,4.236,41.831,9.313,39.631z"/>
	<g>
		<path class="st1" d="M14.538,55.025c0,0-5.245-0.846-5.245-6.599L9.6,47.364l0.539-0.63l0.586-0.495l-1.094-1.028
			c0,0-4.061-4.061,1.015-6.261c0,0-0.07-5.316,3.271-7.629c-4.694,1.661-4.604,8.31-4.604,8.31c-5.076,2.2-1.015,6.261-1.015,6.261
			l1.094,1.028l-0.586,0.495l-0.539,0.63l-0.308,1.062c0,5.753,5.245,6.599,5.245,6.599c2.399,0.267,4.087-0.305,5.253-1.096
			C17.43,54.999,16.147,55.204,14.538,55.025z"/>
		<path class="st1" d="M44.656,40.135c0,0,0.161-0.024,0.399-0.035c0.022-0.016,0.044-0.031,0.065-0.047
			C44.968,40.092,44.814,40.123,44.656,40.135z"/>
		<path class="st1" d="M41.166,29.922c-0.277,0.088-0.541,0.203-0.782,0.335c-0.039,0.144-0.07,0.281-0.127,0.437
			C40.257,30.694,40.609,30.314,41.166,29.922z"/>
		<path class="st1" d="M22.428,32.635c0,0-1.177-6.545,1.796-8.751c-3.856,1.501-3.616,6.041-3.574,7.964
			C21.102,31.972,21.933,32.453,22.428,32.635z"/>
		<path class="st1" d="M33.658,58.24c0,0-4.569,0.338-6.768-3.553c0,0-2.2,1.692-4.061,0.169c0,0-1.719-1.153-0.928-3.321
			c-0.256,0.502-0.472-0.179-1.269,0.51c-1.124,1.66,0.864,3.491,0.864,3.491c1.861,1.523,4.061-0.169,4.061-0.169
			c2.2,3.892,6.768,3.553,6.768,3.553c1.396,0.182,2.274-0.183,2.835-0.723C34.737,58.288,34.248,58.317,33.658,58.24z"/>
		<path class="st1" d="M47.662,53.364l-2.668-0.708c0,0-0.863,0.208-1.333,0.681l2.668,0.708l3.188-0.875
			c0.308-0.154,0.567-0.335,0.788-0.531L47.662,53.364z"/>
		<path class="st1" d="M37.465,55.025c0,0-1.204,0.152-1.333,0.681c2.924,0.846,4.81-0.016,5.849-0.716
			C40.824,55.414,39.33,55.575,37.465,55.025z"/>
	</g>

			<animateTransform accumulate="none" additive="replace" attributeName="transform" attributeType="XML" begin="0s" calcMode="linear" dur="5" fill="remove" repeatCount="indefinite" restart="always" type="translate" values="0,0;-6,0;0,0">
		</animateTransform>
</g>
<g id="Cloud_3">
	<path class="st0" d="M31.21,77.406c0,0-0.139-7.814,9.287-5.063c0,0-0.832-4.512,3.327-5.283c0,0,5.96-1.871,8.871,2.531
		c0,0,4.02-0.285,2.772,2.444c0,0,1.94-1.673,3.742-0.793c0,0,5.128,0.66,3.049,4.842c0,0-1.386,1.981-3.188,2.091
		c0,0,2.634-0.33,2.218,1.321c0,0-0.416,1.101-0.832,1.321c0,0,4.2-0.744,5.267,2.861c0,0,0.366,1.76-1.579,2.533l-2.611,0.569
		l-2.185-0.461c0,0-1.941,2.531-6.168,1.541c0,0,0.069,2.421-3.119,2.091c0,0-3.742,0.22-5.544-2.311c0,0-1.802,1.101-3.327,0.11
		c0,0-1.663-0.88-0.554-2.531c0,0-1.247,3.082-6.237,2.641c0,0-4.297-0.55-4.297-4.292l0.252-0.691l0.441-0.41l0.48-0.322
		l-0.896-0.669C30.379,81.478,27.052,78.836,31.21,77.406z"/>
	<g>
		<path class="st1" d="M35.49,87.418c0,0-4.297-0.55-4.297-4.292l0.252-0.691l0.441-0.41l0.48-0.322l-0.896-0.669
			c0,0-3.327-2.641,0.832-4.072c0,0-0.057-3.458,2.679-4.962c-3.845,1.08-3.772,5.405-3.772,5.405
			c-4.158,1.431-0.832,4.072-0.832,4.072l0.896,0.669l-0.48,0.322l-0.441,0.41l-0.252,0.691c0,3.742,4.297,4.292,4.297,4.292
			c1.965,0.173,3.348-0.199,4.303-0.713C37.859,87.401,36.809,87.534,35.49,87.418z"/>
		<path class="st1" d="M60.162,77.733c0,0,0.132-0.016,0.327-0.023c0.018-0.01,0.036-0.02,0.053-0.031
			C60.418,77.706,60.292,77.725,60.162,77.733z"/>
		<path class="st1" d="M57.303,71.091c-0.227,0.057-0.443,0.132-0.641,0.218c-0.032,0.093-0.057,0.183-0.104,0.284
			C56.559,71.593,56.847,71.345,57.303,71.091z"/>
		<path class="st1" d="M41.954,72.855c0,0-0.964-4.257,1.471-5.692c-3.158,0.976-2.962,3.929-2.928,5.18
			C40.867,72.424,41.548,72.737,41.954,72.855z"/>
		<path class="st1" d="M51.153,89.509c0,0-3.742,0.22-5.544-2.311c0,0-1.802,1.101-3.327,0.11c0,0-1.408-0.75-0.761-2.16
			c-0.209,0.326-0.387-0.116-1.039,0.332c-0.921,1.08,0.708,2.271,0.708,2.271c1.525,0.991,3.327-0.11,3.327-0.11
			c1.802,2.531,5.544,2.311,5.544,2.311c1.143,0.118,1.863-0.119,2.322-0.47C52.037,89.54,51.636,89.559,51.153,89.509z"/>
		<path class="st1" d="M62.625,86.338l-2.185-0.461c0,0-0.707,0.135-1.092,0.443l2.185,0.461l2.611-0.569
			c0.253-0.1,0.465-0.218,0.645-0.345L62.625,86.338z"/>
		<path class="st1" d="M54.271,87.418c0,0-0.986,0.099-1.092,0.443c2.396,0.55,3.94-0.01,4.791-0.466
			C57.024,87.671,55.799,87.776,54.271,87.418z"/>
	</g>

		<animateTransform accumulate="none" additive="replace" attributeName="transform" attributeType="XML" begin="0s" calcMode="linear" dur="4" fill="remove" repeatCount="indefinite" restart="always" type="translate" values="0,0;-4,0;0,0">
		</animateTransform>

</g>
<g id="Cloud_1_1_">
	<path class="st0" d="M26.449,31.306c0,0-0.267-15.046,17.884-9.748c0,0-1.602-8.688,6.406-10.172c0,0,11.478-3.602,17.083,4.874
		c0,0,7.741-0.549,5.338,4.706c0,0,3.737-3.222,7.207-1.527c0,0,9.876,1.271,5.872,9.324c0,0-2.669,3.814-6.139,4.026
		c0,0,5.071-0.636,4.271,2.543c0,0-0.801,2.119-1.602,2.543c0,0,8.087-1.433,10.143,5.51c0,0,0.705,3.389-3.042,4.877l-5.028,1.096
		l-4.208-0.887c0,0-3.737,4.874-11.878,2.967c0,0,0.134,4.662-6.006,4.026c0,0-7.207,0.424-10.677-4.45c0,0-3.47,2.119-6.406,0.212
		c0,0-3.203-1.695-1.068-4.874c0,0-2.402,5.933-12.011,5.086c0,0-8.275-1.06-8.275-8.264l0.485-1.33l0.849-0.789l0.925-0.62
		l-1.726-1.287C24.848,39.146,18.442,34.061,26.449,31.306z"/>
	<g>
		<path class="st1" d="M34.692,50.585c0,0-8.275-1.06-8.275-8.264l0.485-1.33l0.85-0.789l0.925-0.62l-1.726-1.287
			c0,0-6.406-5.086,1.602-7.841c0,0-0.111-6.658,5.16-9.555c-7.405,2.08-7.263,10.407-7.263,10.407
			c-8.008,2.755-1.601,7.841-1.601,7.841l1.726,1.287l-0.925,0.62l-0.85,0.789l-0.485,1.33c0,7.205,8.275,8.264,8.275,8.264
			c3.784,0.334,6.447-0.382,8.287-1.373C39.254,50.553,37.231,50.809,34.692,50.585z"/>
		<path class="st1" d="M82.204,31.937c0,0,0.254-0.03,0.63-0.044c0.034-0.02,0.069-0.039,0.103-0.059
			C82.696,31.883,82.453,31.922,82.204,31.937z"/>
		<path class="st1" d="M76.698,19.147c-0.437,0.11-0.853,0.255-1.234,0.42c-0.062,0.18-0.111,0.351-0.2,0.547
			C75.264,20.113,75.82,19.637,76.698,19.147z"/>
		<path class="st1" d="M47.138,22.544c0,0-1.857-8.197,2.833-10.96c-6.082,1.88-5.705,7.566-5.639,9.974
			C45.047,21.713,46.358,22.316,47.138,22.544z"/>
		<path class="st1" d="M64.854,54.611c0,0-7.207,0.424-10.677-4.45c0,0-3.47,2.119-6.406,0.212c0,0-2.712-1.444-1.465-4.159
			c-0.403,0.629-0.744-0.224-2.001,0.639c-1.773,2.079,1.363,4.372,1.363,4.372c2.936,1.907,6.406-0.212,6.406-0.212
			c3.47,4.874,10.677,4.45,10.677,4.45c2.202,0.228,3.588-0.23,4.471-0.905C66.557,54.671,65.785,54.708,64.854,54.611z"/>
		<path class="st1" d="M86.946,48.505l-4.208-0.887c0,0-1.361,0.261-2.103,0.852l4.208,0.887l5.028-1.096
			c0.487-0.193,0.895-0.419,1.243-0.665L86.946,48.505z"/>
		<path class="st1" d="M70.859,50.585c0,0-1.899,0.19-2.103,0.852c4.613,1.06,7.588-0.02,9.226-0.897
			C76.159,51.072,73.801,51.274,70.859,50.585z"/>
	</g>

			<animateTransform accumulate="none" additive="replace" attributeName="transform" attributeType="XML" begin="0s" calcMode="linear" dur="6" fill="remove" repeatCount="indefinite" restart="always" type="translate" values="0,0;-4,0;0,0">
		</animateTransform>
</g>
</svg>
