<?xml version="1.0" encoding="utf-8"?>
<!-- Generator: Adobe Illustrator 16.0.0, SVG Export Plug-In . SVG Version: 6.00 Build 0)  -->
<!DOCTYPE svg PUBLIC "-//W3C//DTD SVG 1.1//EN" "http://www.w3.org/Graphics/SVG/1.1/DTD/svg11.dtd">
<svg version="1.1" id="Layer_1" xmlns="http://www.w3.org/2000/svg" xmlns:xlink="http://www.w3.org/1999/xlink" x="0px" y="0px"
	 width="92.451px" height="15.901px" viewBox="45.748 49.145 92.451 15.901" enable-background="new 45.748 49.145 92.451 15.901"
	 xml:space="preserve">
<g>
	<path fill="#FFFFFF" d="M100.485,49.145c-1.848,0-3.345,1.497-3.345,3.345c0,1.425,0.892,2.641,2.146,3.122h-0.003l1.152,9.435
		l1.119-9.387c1.32-0.447,2.272-1.696,2.272-3.168C103.829,50.642,102.332,49.145,100.485,49.145z M100.443,55.353
		c-1.589,0-2.875-1.287-2.875-2.876c0-1.588,1.286-2.875,2.875-2.875s2.876,1.288,2.876,2.875S102.031,55.353,100.443,55.353z"/>
</g>
<g>
	<path fill="#FFFFFF" d="M47.344,61.302v3.48h-1.596v-8.448h8.688v1.248h-7.092v2.473h6.612v1.247H47.344z"/>
	<path fill="#FFFFFF" d="M55.072,56.335h1.597v7.2h6.852v1.248h-8.448V56.335z"/>
	<path fill="#FFFFFF" d="M66.388,60.943v2.592h7.092v1.248h-8.688v-8.448h8.688v1.248h-7.092v2.112h6.732v1.248H66.388z"/>
	<path fill="#FFFFFF" d="M76.516,60.943v2.592h7.092v1.248H74.92v-8.448h8.688v1.248h-7.092v2.112h6.732v1.248H76.516z"/>
	<path fill="#FFFFFF" d="M84.544,56.335h10.332v1.248h-4.309v7.2h-1.596v-7.2h-4.428V56.335z"/>
	<path fill="#FFFFFF" d="M105.944,64.783v-8.448h6.563c2.008,0,3.013,0.608,3.013,1.824v1.68c0,1.217-1.005,1.824-3.013,1.824
		h-4.968v3.12H105.944z M107.539,57.583v2.832h4.968c0.944,0,1.416-0.191,1.416-0.576v-1.68c0-0.384-0.472-0.576-1.416-0.576
		H107.539z"/>
	<path fill="#FFFFFF" d="M116.491,64.783v-8.448h6.684c2.008,0,3.012,0.608,3.012,1.824v1.032c0,1.016-0.695,1.607-2.088,1.775
		l2.004,3.816H124.4l-1.98-3.768h-4.332v3.768H116.491z M118.087,57.583v2.185h5.088c0.944,0,1.416-0.192,1.416-0.576v-1.032
		c0-0.384-0.472-0.576-1.416-0.576H118.087z"/>
	<path fill="#FFFFFF" d="M127.327,58.159c0-1.216,1.004-1.824,3.012-1.824h4.848c2.009,0,3.013,0.608,3.013,1.824v4.824
		c0,1.2-1.004,1.8-3.013,1.8h-4.848c-2.008,0-3.012-0.607-3.012-1.824V58.159z M135.187,63.535c0.944,0,1.416-0.184,1.416-0.552
		v-4.824c0-0.384-0.472-0.576-1.416-0.576h-4.848c-0.944,0-1.416,0.192-1.416,0.576v4.8c0,0.384,0.472,0.576,1.416,0.576H135.187z"
		/>
</g>
</svg>
