<?xml version="1.0" encoding="utf-8"?>
<!-- Generator: Adobe Illustrator 19.2.1, SVG Export Plug-In . SVG Version: 6.00 Build 0)  -->
<svg version="1.1" id="streetlight" xmlns="http://www.w3.org/2000/svg" xmlns:xlink="http://www.w3.org/1999/xlink" x="0px"
	 y="0px" viewBox="0 0 160 90" style="enable-background:new 0 0 160 90;" xml:space="preserve">
<style type="text/css">
	.st0{fill:#CCCCCC;}
	.st1{fill:#FFFF33;}
	.st2{fill:#333333;}
	.st3{fill:#FFFF66;}
	.st4{fill:#666666;}
	.st5{fill:#666766;}
	.st6{fill:#999999;}
	.st7{fill:#676867;}
	.st8{fill:#141318;}
	.st9{fill:#121332;}
	.st10{fill:#CDCCCC;}
	.st11{fill:#989898;}
	.st12{fill:#010101;}
	.st13{fill:#BBB9BA;}
	.st14{fill:#E5E5E5;}
	.st15{fill:#1E2C32;}
	.st16{opacity:0.7;fill:#BBB9BA;enable-background:new    ;}
	.st17{opacity:0.3;fill:#989898;enable-background:new    ;}
	.st18{opacity:0.3;fill:#CDCCCC;enable-background:new    ;}
	.st19{opacity:0.5;fill:#989898;enable-background:new    ;}
	.st20{opacity:0.5;fill:#CDCCCC;enable-background:new    ;}
	.st21{opacity:0.5;fill:#FFFFFF;enable-background:new    ;}
	.st22{fill:none;stroke:#676867;stroke-width:0.1;stroke-miterlimit:10;}
	.st23{opacity:0.4;fill:#676867;enable-background:new    ;}
	.st24{fill:#FFFFFF;}
	.st25{fill:#394A54;}
	.st26{fill:#1B555D;}
	.st27{fill:#193E45;}
	.st28{fill:#171E1E;}
	.st29{fill:#303D44;}
	.st30{opacity:0.5;fill:#669A9A;enable-background:new    ;}
	.st31{opacity:0.5;fill:#188598;enable-background:new    ;}
	.st32{opacity:0.3;fill:#669A9A;enable-background:new    ;}
	.st33{fill:#3C4759;}
	.st34{fill:#25343E;}
	.st35{fill:#A2A1A2;}
	.st36{fill:#C2BFBF;}
	.st37{opacity:0.5;fill:#676867;enable-background:new    ;}
	.st38{opacity:0.48;fill:#676867;enable-background:new    ;}
	.st39{display:none;fill:#FFFF66;}
</style>
<g id="Road">
	
		<rect id="kalsada" x="66.233" y="-74.56" transform="matrix(0.4662 -0.8847 0.8847 0.4662 -14.3967 106.1345)" class="st0" width="29.036" height="279.115"/>
	
		<rect id="kalsada_1_" x="290.309" y="43.594" transform="matrix(0.4662 -0.8847 0.8847 0.4662 0.6884 367.4432)" class="st0" width="29.036" height="279.115"/>
	
		<rect id="yellowlane_1_" x="303.826" y="43.236" transform="matrix(0.4662 -0.8847 0.8847 0.4662 0.6398 366.6467)" class="st1" width="0.634" height="279.115"/>
	
		<rect id="yellowlane" x="79.749" y="-74.918" transform="matrix(0.4662 -0.8847 0.8847 0.4662 -14.4454 105.338)" class="st1" width="0.634" height="279.115"/>
	<g id="postlight">
		<path class="st2" d="M60.088,28.812c0,0,6.114-0.012,7.929,5.719h-0.478c0,0-1.099-5.158-7.451-5.398V28.812z"/>
		<path class="st2" d="M60.197,28.936c0,0.448-0.644,0.602-1.506,0.602s-1.559-0.363-1.559-0.811s0.848-0.784,1.691-0.611
			C59.58,28.272,60.197,28.489,60.197,28.936z"/>
		<path class="st3" d="M59.686,29.277c0,0.208-0.597,0.336-1.341,0.248c-0.899-0.106-1.102-0.499-1.102-0.499
			c0-0.208,0.303-0.345,1.056-0.243C59.095,28.892,59.686,29.07,59.686,29.277z"/>
		<rect x="67.472" y="34.286" class="st4" width="1.213" height="7.95"/>
	</g>
	<g id="postlight_1_">
		<path class="st2" d="M-16.207-11.348c0,0,6.114-0.012,7.929,5.719h-0.478c0,0-1.099-5.158-7.451-5.398
			C-16.207-11.027-16.207-11.348-16.207-11.348z"/>
		<path class="st2" d="M-16.097-11.223c0,0.448-0.644,0.602-1.506,0.602s-1.559-0.363-1.559-0.811s0.848-0.784,1.691-0.611
			C-16.714-11.888-16.097-11.671-16.097-11.223z"/>
		<path class="st3" d="M-16.608-10.883c0,0.208-0.597,0.336-1.341,0.248c-0.899-0.106-1.102-0.499-1.102-0.499
			c0-0.208,0.303-0.345,1.056-0.243C-17.199-11.268-16.608-11.09-16.608-10.883z"/>
		<rect x="-8.822" y="-5.873" class="st4" width="1.213" height="7.95"/>
	</g>
	<g id="postlight_2_">
		<path class="st2" d="M22.542,9.106c0,0,6.114-0.012,7.929,5.719h-0.478c0,0-1.099-5.158-7.451-5.398V9.106z"/>
		<path class="st2" d="M22.652,9.23c0,0.448-0.644,0.602-1.506,0.602s-1.559-0.363-1.559-0.811s0.848-0.784,1.691-0.611
			C22.035,8.566,22.652,8.783,22.652,9.23z"/>
		<path class="st3" d="M22.141,9.571c0,0.208-0.597,0.336-1.341,0.248c-0.899-0.106-1.102-0.499-1.102-0.499
			c0-0.208,0.303-0.345,1.056-0.243C21.55,9.186,22.141,9.364,22.141,9.571z"/>
		<rect x="29.927" y="14.58" class="st4" width="1.213" height="7.95"/>
	</g>
	<g id="postlight_8_">
		<path class="st2" d="M177.862,90.822c0,0,6.114-0.012,7.929,5.719h-0.478c0,0-1.099-5.158-7.451-5.398V90.822z"/>
		<path class="st2" d="M177.972,90.947c0,0.448-0.644,0.602-1.506,0.602c-0.861,0-1.559-0.363-1.559-0.811s0.848-0.784,1.691-0.611
			C177.354,90.282,177.972,90.499,177.972,90.947z"/>
		<path class="st3" d="M177.461,91.287c0,0.208-0.597,0.336-1.341,0.248c-0.899-0.106-1.102-0.499-1.102-0.499
			c0-0.208,0.303-0.345,1.056-0.243C176.87,90.903,177.461,91.08,177.461,91.287z"/>
		<rect x="185.247" y="96.297" class="st4" width="1.213" height="7.95"/>
	</g>
	<g id="postlight_7_">
		<path class="st2" d="M96.926,48.247c0,0,6.114-0.012,7.929,5.719h-0.478c0,0-1.099-5.158-7.451-5.398V48.247z"/>
		<path class="st2" d="M97.035,48.372c0,0.448-0.644,0.602-1.506,0.602s-1.559-0.363-1.559-0.811s0.848-0.784,1.691-0.611
			C96.418,47.707,97.035,47.924,97.035,48.372z"/>
		<path class="st3" d="M96.524,48.713c0,0.208-0.597,0.336-1.341,0.248c-0.899-0.106-1.102-0.499-1.102-0.499
			c0-0.208,0.303-0.345,1.056-0.243C95.933,48.328,96.524,48.505,96.524,48.713z"/>
		<rect x="104.31" y="53.722" class="st4" width="1.213" height="7.95"/>
	</g>
	<g id="postlight_6_">
		<path class="st2" d="M136.32,69.146c0,0,6.114-0.012,7.929,5.719h-0.478c0,0-1.099-5.158-7.451-5.398V69.146z"/>
		<path class="st2" d="M136.429,69.271c0,0.448-0.644,0.602-1.506,0.602c-0.861,0-1.559-0.363-1.559-0.811s0.848-0.784,1.691-0.611
			C135.812,68.606,136.429,68.823,136.429,69.271z"/>
		<path class="st3" d="M135.918,69.611c0,0.208-0.597,0.336-1.341,0.248c-0.899-0.106-1.102-0.499-1.102-0.499
			c0-0.208,0.303-0.345,1.056-0.243C135.327,69.227,135.918,69.404,135.918,69.611z"/>
		<rect x="143.704" y="74.621" class="st4" width="1.213" height="7.95"/>
	</g>
	<g id="postlight_16_">
		<path class="st2" d="M285.916,148.022c0,0,6.114-0.012,7.929,5.719h-0.478c0,0-1.099-5.158-7.451-5.398V148.022z"/>
		<path class="st2" d="M286.025,148.146c0,0.448-0.644,0.602-1.506,0.602s-1.559-0.363-1.559-0.811c0-0.448,0.848-0.784,1.691-0.611
			C285.408,147.482,286.025,147.699,286.025,148.146z"/>
		<path class="st3" d="M285.514,148.487c0,0.208-0.597,0.336-1.341,0.248c-0.899-0.106-1.102-0.499-1.102-0.499
			c0-0.208,0.303-0.345,1.056-0.243C284.923,148.102,285.514,148.28,285.514,148.487z"/>
		<rect x="293.3" y="153.496" class="st4" width="1.213" height="7.95"/>
	</g>
	<g id="postlight_15_">
		<path class="st2" d="M209.621,107.862c0,0,6.114-0.012,7.929,5.719h-0.478c0,0-1.099-5.158-7.451-5.398
			C209.621,108.183,209.621,107.862,209.621,107.862z"/>
		<path class="st2" d="M209.731,107.987c0,0.448-0.644,0.602-1.506,0.602s-1.559-0.363-1.559-0.811c0-0.448,0.848-0.784,1.691-0.611
			C209.114,107.322,209.731,107.539,209.731,107.987z"/>
		<path class="st3" d="M209.22,108.327c0,0.208-0.597,0.336-1.341,0.248c-0.899-0.106-1.102-0.499-1.102-0.499
			c0-0.208,0.303-0.345,1.056-0.243C208.629,107.942,209.22,108.12,209.22,108.327z"/>
		<rect x="217.006" y="113.337" class="st4" width="1.213" height="7.95"/>
	</g>
	<g id="postlight_14_">
		<path class="st2" d="M248.37,128.316c0,0,6.114-0.012,7.929,5.719h-0.478c0,0-1.099-5.158-7.451-5.398V128.316z"/>
		<path class="st2" d="M248.48,128.44c0,0.448-0.644,0.602-1.506,0.602s-1.559-0.363-1.559-0.811c0-0.448,0.848-0.784,1.691-0.611
			C247.863,127.776,248.48,127.993,248.48,128.44z"/>
		<path class="st3" d="M247.969,128.781c0,0.208-0.597,0.336-1.341,0.248c-0.899-0.106-1.102-0.499-1.102-0.499
			c0-0.208,0.303-0.345,1.056-0.243C247.378,128.396,247.969,128.574,247.969,128.781z"/>
		<rect x="255.755" y="133.79" class="st4" width="1.213" height="7.95"/>
	</g>
	<g id="postlight_13_">
		<path class="st2" d="M403.69,210.032c0,0,6.114-0.012,7.929,5.719h-0.478c0,0-1.099-5.158-7.451-5.398V210.032z"/>
		<path class="st2" d="M403.8,210.157c0,0.448-0.644,0.602-1.506,0.602c-0.861,0-1.559-0.363-1.559-0.811s0.848-0.784,1.691-0.611
			C403.182,209.492,403.8,209.709,403.8,210.157z"/>
		<path class="st3" d="M403.289,210.497c0,0.208-0.597,0.336-1.341,0.248c-0.899-0.106-1.102-0.499-1.102-0.499
			c0-0.208,0.303-0.345,1.056-0.243C402.698,210.113,403.289,210.29,403.289,210.497z"/>
		<rect x="411.075" y="215.507" class="st4" width="1.213" height="7.95"/>
	</g>
	<g id="postlight_12_">
		<path class="st2" d="M322.754,167.457c0,0,6.114-0.012,7.929,5.719h-0.478c0,0-1.099-5.158-7.451-5.398V167.457z"/>
		<path class="st2" d="M322.863,167.582c0,0.448-0.644,0.602-1.506,0.602s-1.559-0.363-1.559-0.811s0.848-0.784,1.691-0.611
			C322.246,166.917,322.863,167.134,322.863,167.582z"/>
		<path class="st3" d="M322.352,167.923c0,0.208-0.597,0.336-1.341,0.248c-0.899-0.106-1.102-0.499-1.102-0.499
			c0-0.208,0.303-0.345,1.056-0.243C321.761,167.538,322.352,167.715,322.352,167.923z"/>
		<rect x="330.138" y="172.932" class="st4" width="1.213" height="7.95"/>
	</g>
	<g id="postlight_9_">
		<path class="st2" d="M362.148,188.356c0,0,6.114-0.012,7.929,5.719h-0.478c0,0-1.099-5.158-7.451-5.398V188.356z"/>
		<path class="st2" d="M362.257,188.481c0,0.448-0.644,0.602-1.506,0.602c-0.861,0-1.559-0.363-1.559-0.811s0.848-0.784,1.691-0.611
			C361.64,187.816,362.257,188.033,362.257,188.481z"/>
		<path class="st3" d="M361.746,188.821c0,0.208-0.597,0.336-1.341,0.248c-0.899-0.106-1.102-0.499-1.102-0.499
			c0-0.208,0.303-0.345,1.056-0.243C361.155,188.437,361.746,188.614,361.746,188.821z"/>
		<rect x="369.532" y="193.831" class="st4" width="1.213" height="7.95"/>
	</g>
	
		<animateTransform  accumulate="none" additive="replace" attributeName="transform" attributeType="XML" begin="0s" calcMode="linear" dur="3.5" fill="remove" repeatCount="indefinite" restart="always" type="translate" values="0,0;-114,-60">
		</animateTransform>
</g>
<path id="smoke_2" class="st5" d="M50.235,38.077c0,0,0.202-0.33,0.48-0.092c0,0,0.296-0.185,0.393,0.069
	c0,0,0.096,0.239-0.202,0.352c0,0,0.221-0.006,0.227,0.115c0,0,0.052,0.184-0.187,0.225c0,0,0.038,0.23-0.241,0.253
	c0,0-0.263,0.026-0.33-0.237c0,0-0.252,0.152-0.346,0.009c0,0-0.231-0.169-0.012-0.431c0,0-0.204-0.116-0.107-0.253
	C49.909,38.085,50.123,37.838,50.235,38.077z">

	
		<animateTransform  accumulate="none" additive="replace" attributeName="transform" attributeType="XML" begin="0s" calcMode="linear" dur="1" fill="remove" repeatCount="indefinite" restart="always" type="translate" values="0,0;-6,-5">
		</animateTransform>
	
		<animate  accumulate="none" additive="replace" attributeName="opacity" begin="0.5s" calcMode="linear" dur="1" fill="remove" from="1" repeatCount="indefinite" restart="always" to="0">
		</animate>
</path>
<path id="smoke_1" class="st6" d="M50.638,38.487c0,0,0.124-0.202,0.294-0.057c0,0,0.182-0.113,0.241,0.043
	c0,0,0.059,0.146-0.123,0.216c0,0,0.136-0.004,0.139,0.07c0,0,0.032,0.112-0.115,0.138c0,0,0.023,0.141-0.148,0.155
	c0,0-0.162,0.016-0.203-0.146c0,0-0.155,0.093-0.212,0.006c0,0-0.142-0.103-0.007-0.264c0,0-0.125-0.071-0.066-0.155
	C50.438,38.492,50.57,38.341,50.638,38.487z">

	
		<animateTransform  accumulate="none" additive="replace" attributeName="transform" attributeType="XML" begin="0s" calcMode="linear" dur="0.5" fill="remove" repeatCount="indefinite" restart="always" type="translate" values="0,0;-4,-5">
		</animateTransform>
	
		<animate  accumulate="none" additive="replace" attributeName="opacity" begin="0.5s" calcMode="linear" dur="1" fill="remove" from="1" repeatCount="indefinite" restart="always" to="0">
		</animate>
</path>
<polygon class="st2" points="56.228,42.915 54.447,43.812 54.315,43.702 54.266,41.875 "/>
<polygon class="st7" points="54.315,43.702 54.266,41.875 54.397,41.946 54.447,43.812 "/>
<g id="Tire_3_">
	<path class="st8" d="M58.887,43.683c0.549,0.095,1.154,0.691,1.354,1.327c0.2,0.636-0.081,1.076-0.626,0.977
		c-0.549-0.095-1.154-0.691-1.354-1.327C58.061,44.024,58.342,43.587,58.887,43.683z"/>
	<path class="st9" d="M58.779,43.773c0.541,0.096,1.14,0.688,1.336,1.32c0.196,0.636-0.081,1.073-0.622,0.977
		s-1.14-0.688-1.336-1.32C57.96,44.114,58.239,43.679,58.779,43.773z"/>
	<path class="st8" d="M58.616,43.855c0.549,0.095,1.154,0.691,1.354,1.327s-0.081,1.076-0.626,0.977
		c-0.549-0.095-1.154-0.691-1.354-1.327S58.073,43.76,58.616,43.855z"/>
	<path class="st9" d="M58.51,43.945c0.541,0.096,1.14,0.688,1.336,1.32c0.196,0.636-0.081,1.073-0.622,0.977s-1.14-0.688-1.336-1.32
		C57.691,44.29,57.968,43.85,58.51,43.945z"/>
	<path class="st8" d="M58.386,44.008c0.549,0.095,1.154,0.691,1.354,1.327s-0.081,1.076-0.626,0.977
		c-0.545-0.098-1.154-0.691-1.354-1.327S57.842,43.912,58.386,44.008z"/>
	<path class="st9" d="M58.279,44.099c0.541,0.096,1.14,0.688,1.336,1.32c0.196,0.636-0.081,1.073-0.622,0.977
		c-0.541-0.096-1.14-0.688-1.336-1.32C57.46,44.439,57.738,44.003,58.279,44.099z"/>
	<path class="st8" d="M58.229,44.154c0.523,0.092,1.102,0.674,1.291,1.303c0.189,0.629-0.082,1.061-0.604,0.969
		c-0.523-0.092-1.102-0.674-1.291-1.303C57.435,44.494,57.707,44.063,58.229,44.154z"/>
	<path class="st9" d="M58.264,44.37c0.442,0.076,0.928,0.568,1.088,1.099c0.161,0.527-0.068,0.896-0.509,0.816
		c-0.442-0.076-0.928-0.568-1.088-1.099C57.595,44.659,57.823,44.29,58.264,44.37z"/>
	<path class="st10" d="M58.338,44.518c0.354,0.064,0.745,0.456,0.874,0.881c0.128,0.426-0.058,0.72-0.412,0.656
		c-0.354-0.064-0.745-0.456-0.874-0.881C57.802,44.749,57.984,44.458,58.338,44.518z"/>
	<path class="st11" d="M58.429,44.644c0.287,0.05,0.603,0.369,0.707,0.714s-0.046,0.58-0.334,0.529
		c-0.287-0.051-0.603-0.369-0.707-0.714C57.99,44.832,58.142,44.592,58.429,44.644z"/>
	<path class="st10" d="M58.478,44.83c0.21,0.038,0.443,0.27,0.52,0.524c0.077,0.251-0.033,0.426-0.243,0.392
		c-0.21-0.038-0.443-0.27-0.52-0.524C58.159,44.966,58.268,44.791,58.478,44.83z"/>
	<path class="st12" d="M58.555,45.117c0.066,0.013,0.137,0.084,0.162,0.165c0.024,0.08-0.011,0.132-0.078,0.123
		c-0.066-0.013-0.137-0.084-0.162-0.165C58.454,45.16,58.493,45.107,58.555,45.117z"/>
	<path class="st12" d="M58.583,44.915c0.037,0.006,0.074,0.045,0.09,0.09c0.012,0.044-0.005,0.073-0.042,0.067
		c-0.037-0.006-0.074-0.045-0.09-0.09C58.528,44.938,58.547,44.908,58.583,44.915z"/>
	<path class="st12" d="M58.33,44.94c0.037,0.006,0.074,0.045,0.09,0.09c0.016,0.044-0.005,0.073-0.042,0.067
		c-0.037-0.006-0.074-0.045-0.09-0.09C58.276,44.963,58.294,44.934,58.33,44.94z"/>
	<path class="st12" d="M58.338,45.217c0.037,0.006,0.074,0.045,0.09,0.09c0.016,0.044-0.005,0.073-0.042,0.067
		c-0.037-0.006-0.074-0.045-0.09-0.09C58.28,45.241,58.302,45.211,58.338,45.217z"/>
	<path class="st12" d="M58.582,45.461c0.037,0.006,0.074,0.045,0.09,0.09c0.016,0.044-0.005,0.073-0.042,0.067
		c-0.037-0.006-0.074-0.045-0.09-0.09C58.525,45.484,58.546,45.454,58.582,45.461z"/>
	<path class="st12" d="M58.85,45.454c0.037,0.006,0.074,0.045,0.09,0.09c0.016,0.044-0.005,0.073-0.042,0.067
		c-0.037-0.006-0.074-0.045-0.09-0.09C58.796,45.476,58.817,45.447,58.85,45.454z"/>
	<path class="st12" d="M58.843,45.182c0.037,0.006,0.074,0.045,0.09,0.09c0.016,0.044-0.005,0.073-0.042,0.067
		c-0.037-0.006-0.074-0.045-0.09-0.09C58.789,45.205,58.81,45.176,58.843,45.182z"/>
</g>
<g id="Tire_4_">
	<path class="st8" d="M56.549,42.162c0.549,0.095,1.154,0.691,1.354,1.327s-0.081,1.076-0.626,0.977
		c-0.549-0.095-1.154-0.691-1.354-1.327C55.719,42.503,56.001,42.064,56.549,42.162z"/>
	<path class="st9" d="M56.442,42.25c0.541,0.096,1.14,0.688,1.336,1.32c0.196,0.636-0.081,1.073-0.622,0.977
		c-0.541-0.096-1.14-0.688-1.336-1.32C55.623,42.594,55.901,42.154,56.442,42.25z"/>
	<path class="st8" d="M56.279,42.334c0.549,0.095,1.154,0.691,1.354,1.327c0.2,0.636-0.081,1.076-0.626,0.977
		c-0.549-0.095-1.154-0.691-1.354-1.327C55.453,42.676,55.73,42.239,56.279,42.334z"/>
	<path class="st9" d="M56.168,42.421c0.541,0.096,1.14,0.688,1.336,1.32c0.196,0.636-0.081,1.073-0.622,0.977
		s-1.14-0.688-1.336-1.32C55.353,42.766,55.63,42.326,56.168,42.421z"/>
	<path class="st8" d="M56.049,42.488c0.549,0.095,1.154,0.691,1.354,1.327c0.2,0.636-0.081,1.076-0.626,0.977
		c-0.549-0.095-1.154-0.691-1.354-1.327C55.219,42.828,55.5,42.392,56.049,42.488z"/>
	<path class="st9" d="M55.937,42.575c0.541,0.096,1.14,0.688,1.336,1.32c0.196,0.636-0.081,1.073-0.622,0.977
		s-1.14-0.688-1.336-1.32C55.122,42.919,55.4,42.479,55.937,42.575z"/>
	<path class="st8" d="M55.888,42.631c0.523,0.092,1.102,0.674,1.291,1.303c0.189,0.629-0.082,1.061-0.604,0.969
		c-0.523-0.092-1.102-0.674-1.291-1.303C55.095,42.974,55.365,42.538,55.888,42.631z"/>
	<path class="st9" d="M55.922,42.846c0.442,0.076,0.928,0.568,1.088,1.099c0.161,0.527-0.068,0.896-0.509,0.816
		c-0.442-0.076-0.928-0.568-1.088-1.099C55.253,43.131,55.481,42.77,55.922,42.846z"/>
	<path class="st10" d="M56,42.998c0.354,0.064,0.745,0.456,0.874,0.881c0.128,0.426-0.058,0.72-0.412,0.656
		c-0.354-0.064-0.745-0.456-0.874-0.881C55.46,43.229,55.643,42.934,56,42.998z"/>
	<path class="st11" d="M56.088,43.12c0.287,0.05,0.603,0.369,0.707,0.714s-0.046,0.58-0.334,0.529
		c-0.287-0.05-0.603-0.369-0.707-0.714C55.65,43.304,55.801,43.073,56.088,43.12z"/>
	<path class="st10" d="M56.137,43.31c0.21,0.038,0.443,0.27,0.52,0.524c0.077,0.251-0.033,0.426-0.243,0.392
		c-0.21-0.038-0.443-0.27-0.52-0.524C55.818,43.446,55.927,43.271,56.137,43.31z"/>
	<path class="st12" d="M56.218,43.597c0.066,0.013,0.137,0.084,0.162,0.165c0.024,0.08-0.011,0.132-0.078,0.123
		c-0.066-0.013-0.137-0.084-0.162-0.165C56.116,43.639,56.151,43.583,56.218,43.597z"/>
	<path class="st12" d="M56.245,43.395c0.037,0.006,0.074,0.045,0.09,0.09c0.012,0.044-0.005,0.073-0.042,0.067
		c-0.037-0.006-0.074-0.045-0.09-0.09C56.191,43.417,56.208,43.388,56.245,43.395z"/>
	<path class="st12" d="M55.993,43.42c0.037,0.006,0.074,0.045,0.09,0.09c0.016,0.044-0.005,0.073-0.042,0.067
		c-0.037-0.006-0.074-0.045-0.09-0.09C55.938,43.443,55.956,43.414,55.993,43.42z"/>
	<path class="st12" d="M56,43.694c0.037,0.006,0.074,0.045,0.09,0.09c0.016,0.045-0.005,0.073-0.042,0.067
		c-0.037-0.006-0.074-0.045-0.09-0.09C55.946,43.717,55.963,43.687,56,43.694z"/>
	<path class="st12" d="M56.245,43.94c0.037,0.006,0.074,0.045,0.09,0.09c0.016,0.044-0.005,0.073-0.042,0.067
		c-0.037-0.006-0.074-0.045-0.09-0.09C56.19,43.963,56.209,43.934,56.245,43.94z"/>
	<path class="st12" d="M56.513,43.933c0.037,0.006,0.074,0.045,0.09,0.09c0.016,0.044-0.005,0.073-0.042,0.067
		c-0.037-0.006-0.074-0.045-0.09-0.09C56.458,43.956,56.476,43.927,56.513,43.933z"/>
	<path class="st12" d="M56.505,43.659c0.037,0.006,0.074,0.045,0.09,0.09c0.016,0.045-0.005,0.073-0.042,0.067
		c-0.037-0.006-0.074-0.045-0.09-0.09C56.451,43.682,56.468,43.656,56.505,43.659z"/>
</g>
<g id="Tire_2_">
	<path class="st8" d="M61.382,45.184c0.549,0.095,1.154,0.691,1.354,1.327c0.2,0.636-0.081,1.076-0.626,0.977
		c-0.545-0.098-1.154-0.691-1.354-1.327C60.552,45.525,60.833,45.089,61.382,45.184z"/>
	<path class="st9" d="M61.274,45.271c0.541,0.096,1.14,0.688,1.336,1.32c0.196,0.632-0.081,1.073-0.622,0.977
		s-1.14-0.688-1.336-1.32S60.733,45.175,61.274,45.271z"/>
	<path class="st8" d="M61.111,45.356c0.549,0.095,1.154,0.691,1.354,1.327s-0.081,1.076-0.626,0.977
		c-0.549-0.095-1.154-0.691-1.354-1.327C60.281,45.698,60.564,45.261,61.111,45.356z"/>
	<path class="st9" d="M61.001,45.443c0.541,0.096,1.14,0.688,1.336,1.32s-0.081,1.073-0.622,0.977
		c-0.541-0.096-1.14-0.688-1.336-1.32C60.186,45.787,60.463,45.348,61.001,45.443z"/>
	<path class="st8" d="M60.881,45.509c0.549,0.095,1.154,0.691,1.354,1.327s-0.081,1.076-0.626,0.977
		c-0.545-0.098-1.154-0.691-1.354-1.327S60.333,45.414,60.881,45.509z"/>
	<path class="st9" d="M60.77,45.597c0.541,0.096,1.14,0.688,1.336,1.32c0.196,0.632-0.081,1.073-0.622,0.977
		c-0.541-0.096-1.14-0.688-1.336-1.32C59.952,45.941,60.233,45.501,60.77,45.597z"/>
	<path class="st8" d="M60.72,45.652c0.523,0.092,1.102,0.674,1.291,1.303c0.189,0.629-0.082,1.061-0.604,0.969
		c-0.523-0.092-1.102-0.674-1.291-1.303C59.927,45.996,60.198,45.56,60.72,45.652z"/>
	<path class="st9" d="M60.756,45.867c0.442,0.076,0.928,0.568,1.088,1.099c0.161,0.527-0.068,0.896-0.509,0.816
		c-0.442-0.076-0.928-0.568-1.088-1.099C60.085,46.153,60.314,45.792,60.756,45.867z"/>
	<path class="st10" d="M60.833,46.019c0.354,0.064,0.745,0.456,0.874,0.881c0.128,0.426-0.058,0.72-0.412,0.656
		c-0.354-0.064-0.745-0.456-0.874-0.881C60.293,46.251,60.476,45.956,60.833,46.019z"/>
	<path class="st11" d="M60.92,46.142c0.287,0.05,0.603,0.369,0.707,0.714s-0.046,0.58-0.334,0.529
		c-0.287-0.051-0.603-0.369-0.707-0.714C60.486,46.329,60.633,46.094,60.92,46.142z"/>
	<path class="st10" d="M60.969,46.33c0.21,0.038,0.443,0.27,0.52,0.524c0.077,0.254-0.033,0.426-0.243,0.392s-0.443-0.27-0.52-0.524
		C60.65,46.468,60.759,46.292,60.969,46.33z"/>
	<path class="st12" d="M61.05,46.618c0.066,0.013,0.137,0.084,0.162,0.165c0.024,0.08-0.011,0.132-0.078,0.123
		c-0.066-0.013-0.137-0.084-0.162-0.165C60.948,46.661,60.984,46.605,61.05,46.618z"/>
	<path class="st12" d="M61.078,46.416c0.037,0.006,0.074,0.045,0.09,0.09c0.012,0.044-0.005,0.073-0.042,0.067
		c-0.037-0.006-0.074-0.045-0.09-0.09C61.023,46.439,61.042,46.41,61.078,46.416z"/>
	<path class="st12" d="M60.826,46.441c0.037,0.006,0.074,0.045,0.09,0.09c0.012,0.044-0.005,0.073-0.042,0.067
		c-0.037-0.006-0.074-0.045-0.09-0.09C60.772,46.465,60.789,46.434,60.826,46.441z"/>
	<path class="st12" d="M60.834,46.715c0.037,0.006,0.074,0.045,0.09,0.09c0.012,0.044-0.005,0.073-0.042,0.067
		c-0.037-0.006-0.074-0.045-0.09-0.09C60.779,46.739,60.797,46.709,60.834,46.715z"/>
	<path class="st12" d="M61.077,46.962c0.037,0.006,0.074,0.045,0.09,0.09c0.012,0.044-0.005,0.073-0.042,0.067
		c-0.037-0.006-0.074-0.045-0.09-0.09C61.023,46.985,61.041,46.956,61.077,46.962z"/>
	<path class="st12" d="M61.345,46.955c0.037,0.006,0.074,0.045,0.09,0.09c0.012,0.044-0.005,0.073-0.042,0.067
		c-0.037-0.006-0.074-0.045-0.09-0.09C61.287,46.978,61.308,46.949,61.345,46.955z"/>
	<path class="st12" d="M61.338,46.684c0.037,0.006,0.074,0.045,0.09,0.09c0.012,0.044-0.005,0.073-0.042,0.067
		c-0.037-0.006-0.074-0.045-0.09-0.09C61.284,46.703,61.301,46.678,61.338,46.684z"/>
</g>
<path class="st2" d="M69.5,51.173l-0.292-0.227l-0.064-0.64l0.531-0.263l2.083,1.018l-2.17,1.028
	C69.338,51.955,69.5,51.173,69.5,51.173z"/>
<g id="Tire_1_">
	<path class="st8" d="M71.02,50.751c0.549,0.095,1.154,0.691,1.354,1.327c0.2,0.636-0.081,1.076-0.626,0.977
		c-0.549-0.095-1.154-0.691-1.354-1.327C70.194,51.092,70.472,50.657,71.02,50.751z"/>
	<path class="st9" d="M70.913,50.839c0.541,0.096,1.14,0.688,1.336,1.32s-0.081,1.073-0.622,0.977s-1.14-0.688-1.336-1.32
		C70.093,51.183,70.372,50.744,70.913,50.839z"/>
	<path class="st8" d="M70.75,50.924c0.549,0.095,1.154,0.691,1.354,1.327c0.2,0.636-0.081,1.076-0.626,0.977
		c-0.549-0.095-1.154-0.691-1.354-1.327C69.921,51.265,70.202,50.829,70.75,50.924z"/>
	<path class="st9" d="M70.642,51.012c0.541,0.096,1.14,0.688,1.336,1.32c0.196,0.636-0.081,1.073-0.622,0.977
		s-1.14-0.688-1.336-1.32C69.824,51.356,70.101,50.916,70.642,51.012z"/>
	<path class="st8" d="M70.52,51.077c0.549,0.095,1.154,0.691,1.354,1.327c0.2,0.636-0.081,1.076-0.626,0.977
		c-0.549-0.095-1.154-0.691-1.354-1.327C69.69,51.417,69.971,50.981,70.52,51.077z"/>
	<path class="st9" d="M70.412,51.164c0.541,0.096,1.14,0.688,1.336,1.32c0.196,0.636-0.081,1.073-0.622,0.977
		c-0.541-0.096-1.14-0.688-1.336-1.32C69.593,51.508,69.87,51.068,70.412,51.164z"/>
	<path class="st8" d="M70.359,51.22c0.523,0.092,1.102,0.674,1.291,1.303c0.189,0.629-0.082,1.061-0.604,0.969
		c-0.523-0.092-1.102-0.674-1.291-1.303C69.565,51.564,69.836,51.128,70.359,51.22z"/>
	<path class="st9" d="M70.393,51.439c0.442,0.076,0.928,0.568,1.088,1.099c0.161,0.527-0.068,0.896-0.509,0.816
		c-0.442-0.08-0.928-0.572-1.088-1.099C69.724,51.724,69.952,51.359,70.393,51.439z"/>
	<path class="st10" d="M70.471,51.587c0.354,0.064,0.745,0.456,0.874,0.881c0.128,0.425-0.054,0.72-0.412,0.656
		c-0.354-0.064-0.745-0.456-0.874-0.881C69.931,51.818,70.114,51.524,70.471,51.587z"/>
	<path class="st11" d="M70.559,51.713c0.287,0.05,0.603,0.369,0.707,0.714c0.104,0.345-0.046,0.58-0.334,0.529
		c-0.287-0.05-0.603-0.369-0.707-0.714C70.124,51.897,70.271,51.663,70.559,51.713z"/>
	<path class="st10" d="M70.608,51.899c0.21,0.038,0.443,0.27,0.52,0.524c0.077,0.254-0.033,0.426-0.243,0.392
		c-0.21-0.038-0.443-0.27-0.52-0.524C70.289,52.035,70.398,51.86,70.608,51.899z"/>
	<path class="st12" d="M70.688,52.186c0.066,0.013,0.137,0.084,0.162,0.165c0.024,0.08-0.011,0.132-0.078,0.123
		c-0.066-0.013-0.137-0.084-0.162-0.165C70.591,52.229,70.622,52.173,70.688,52.186z"/>
	<path class="st12" d="M70.716,51.984c0.037,0.006,0.074,0.045,0.09,0.09c0.012,0.044-0.005,0.073-0.042,0.067
		c-0.037-0.006-0.074-0.045-0.09-0.09C70.662,52.007,70.679,51.977,70.716,51.984z"/>
	<path class="st12" d="M70.464,52.009c0.037,0.006,0.074,0.045,0.09,0.09c0.012,0.044-0.005,0.073-0.042,0.067
		c-0.037-0.006-0.074-0.045-0.09-0.09C70.409,52.032,70.428,52.003,70.464,52.009z"/>
	<path class="st12" d="M70.471,52.284c0.037,0.006,0.074,0.045,0.09,0.09c0.012,0.044-0.005,0.073-0.042,0.067
		c-0.037-0.006-0.074-0.045-0.09-0.09C70.417,52.307,70.435,52.277,70.471,52.284z"/>
	<path class="st12" d="M70.717,52.529c0.037,0.006,0.074,0.045,0.09,0.09c0.012,0.044-0.005,0.073-0.042,0.067
		c-0.037-0.006-0.074-0.045-0.09-0.09C70.662,52.553,70.68,52.523,70.717,52.529z"/>
	<path class="st12" d="M70.984,52.522c0.037,0.006,0.074,0.045,0.09,0.09c0.012,0.044-0.005,0.073-0.042,0.067
		c-0.037-0.006-0.074-0.045-0.09-0.09C70.929,52.545,70.946,52.516,70.984,52.522z"/>
	<path class="st12" d="M70.976,52.251c0.037,0.006,0.074,0.045,0.09,0.09c0.012,0.044-0.005,0.073-0.042,0.067
		c-0.037-0.006-0.074-0.045-0.09-0.09C70.922,52.272,70.939,52.245,70.976,52.251z"/>
</g>
<polygon class="st2" points="76.839,55.289 76.479,53.878 75.752,53.403 74.266,52.138 76.33,51.614 79.314,54.828 77.17,56.164 "/>
<polygon class="st2" points="53.636,41.585 53.641,41.782 52.198,42.612 52.029,42.466 51.98,40.636 53.524,41.511 "/>
<polygon class="st7" points="52.148,40.741 52.198,42.612 52.029,42.466 51.98,40.636 "/>
<path class="st2" d="M72.339,53.501l0.439-0.29l-0.041-1.515l-2.18-1.235c-0.643,0.09-0.934,0.439-0.934,0.439
	C71.591,50.322,72.339,53.501,72.339,53.501z"/>
<path class="st7" d="M72.339,53.501c0.044-2.207-2.037-2.749-2.037-2.749c-1.149-0.225-0.911,1.267-0.911,1.267l0.196,0.072
	c-0.091-0.243-0.018-0.688-0.018-0.688c0.252-0.849,1.282-0.269,1.282-0.269c1.242,0.809,1.252,2.293,1.252,2.293L72.339,53.501z"/>
<path class="st13" d="M76.761,55.929l-4.422-2.351c0.057-1.178-0.314-1.472-0.314-1.472l0.591-0.375l4.406,1.594
	C77.333,55.401,76.761,55.929,76.761,55.929z"/>
<polygon class="st11" points="77.201,53.763 76.958,53.312 73.322,51.306 72.438,51.843 76.655,54.034 "/>
<polygon class="st2" points="63.173,46.096 62.048,46.127 62.099,48.001 63.208,47.389 "/>
<polygon class="st14" points="80.718,49.657 80.549,43.188 56.595,30.309 51.621,33.373 51.816,40.659 75.752,53.403 "/>
<polygon class="st15" points="77.088,51.296 75.792,52.163 75.445,51.956 75.463,53.047 71.053,50.743 71.049,49.769 70.752,49.63 
	70.778,50.583 66.35,48.183 66.323,47.185 65.993,47.021 66.019,48.002 61.511,45.65 61.532,44.623 61.261,44.509 61.287,45.498 
	56.755,43.139 56.727,42.106 56.479,41.999 56.531,43.006 51.969,40.508 51.946,39.655 51.748,39.514 51.816,40.659 75.752,53.403 
	77.05,52.653 "/>
<polygon class="st16" points="80.701,49.016 75.792,52.163 75.638,46.422 80.558,43.499 "/>
<polygon class="st16" points="75.582,46.362 75.721,52.121 51.875,39.338 51.722,33.59 "/>
<path class="st17" d="M78.602,45.046c-0.028,0.708,0.331,1.567,0.331,1.567L78.602,45.046z"/>
<path class="st18" d="M78.634,45.034c0.323,0.721,0.328,1.563,0.328,1.563L78.634,45.034z"/>
<path class="st19" d="M76.992,45.961c-0.463,0.661-0.398,1.593-0.398,1.593L76.992,45.961z"/>
<path class="st20" d="M77.015,45.982c-0.037,0.789-0.413,1.543-0.413,1.543L77.015,45.982z"/>
<polygon class="st21" points="76.574,54.457 72.11,52.05 72.024,52.106 76.495,54.485 "/>
<path class="st22" d="M76.411,54.778l0.017,0.622c0.014,0.121-0.08,0.149-0.08,0.149l-2.018-1.056
	c-0.096-0.026-0.091-0.122-0.091-0.122l-0.021-0.776c0.008-0.103,0.137-0.077,0.137-0.077l1.97,1.058
	C76.444,54.63,76.411,54.778,76.411,54.778z"/>
<path class="st22" d="M74.122,53.581l0.017,0.622c0.014,0.121-0.08,0.149-0.08,0.149l-1.487-0.802
	c-0.096-0.026-0.091-0.122-0.091-0.122l-0.035-0.746c0.008-0.103,0.137-0.077,0.137-0.077l1.453,0.77
	C74.151,53.438,74.122,53.581,74.122,53.581z"/>
<polygon class="st10" points="76.318,55.421 74.326,54.345 74.412,54.288 76.352,55.302 "/>
<polygon class="st10" points="74.046,54.277 72.536,53.47 72.623,53.412 74.079,54.158 "/>
<polygon class="st2" points="67.748,49.099 67.777,50.172 67.9,50.242 67.907,50.52 67.788,50.593 67.792,50.747 68.155,50.898 
	68.414,50.697 68.412,50.62 68.207,50.512 68.199,50.234 68.399,50.148 68.38,49.422 "/>
<polygon class="st23" points="67.989,49.224 68.018,50.297 68.092,50.295 68.064,49.263 "/>
<polygon class="st23" points="68.059,50.457 67.872,50.59 68.104,50.738 68.283,50.579 "/>
<polygon class="st10" points="66.459,48.455 66.486,49.444 66.654,49.55 66.819,49.545 66.795,48.649 "/>
<polygon class="st10" points="63.285,46.764 63.288,47.672 63.475,47.799 63.614,47.795 63.59,46.928 "/>
<polygon class="st11" points="63.59,46.928 63.614,47.795 63.475,47.799 63.428,46.881 "/>
<polygon class="st10" points="63.003,47.291 62.878,47.398 62.842,48.127 66.838,50.285 67.036,50.119 67.018,49.448 "/>
<polygon class="st11" points="67.038,50.199 66.838,50.285 66.819,49.545 67.018,49.448 "/>
<polygon class="st24" points="66.821,49.655 62.878,47.398 66.819,49.545 "/>
<path class="st17" d="M79.367,44.33c0.399,0.271,0.959,0.23,0.959,0.23L79.367,44.33z"/>
<path class="st18" d="M79.37,44.293c0.475-0.053,0.956,0.235,0.956,0.235L79.37,44.293z"/>
<path class="st17" d="M78.748,44.632c0.436,0.557,1.269,0.981,1.269,0.981L78.748,44.632z"/>
<path class="st18" d="M78.766,44.602c0.712,0.34,1.261,0.982,1.261,0.982L78.766,44.602z"/>
<path class="st17" d="M73.898,49.437c0.276-1.316-0.459-3.055-0.459-3.055L73.898,49.437z"/>
<path class="st18" d="M73.802,49.446c-0.676-1.465-0.448-3.047-0.448-3.047L73.802,49.446z"/>
<path class="st17" d="M72.166,49.735c0.15-0.835-0.193-1.871-0.193-1.871L72.166,49.735z"/>
<path class="st18" d="M72.115,49.744c-0.316-0.867-0.185-1.868-0.185-1.868L72.115,49.744z"/>
<path class="st17" d="M73.047,48.851c-0.045-1.123-0.757-2.669-0.757-2.669L73.047,48.851z"/>
<path class="st18" d="M72.988,48.853c-0.636-1.305-0.745-2.662-0.745-2.662L72.988,48.853z"/>
<path class="st17" d="M74.939,49.05c0.057-0.995-0.443-2.304-0.443-2.304L74.939,49.05z"/>
<path class="st18" d="M74.891,49.058c-0.451-1.105-0.436-2.3-0.436-2.3L74.891,49.058z"/>
<path class="st17" d="M68.657,45.935c0.276-1.316-0.459-3.055-0.459-3.055L68.657,45.935z"/>
<path class="st18" d="M68.558,45.94c-0.676-1.465-0.448-3.047-0.448-3.047L68.558,45.94z"/>
<path class="st17" d="M66.268,46.255c0.15-0.835-0.193-1.871-0.193-1.871L66.268,46.255z"/>
<path class="st18" d="M66.222,46.267c-0.316-0.867-0.185-1.868-0.185-1.868L66.222,46.267z"/>
<path class="st17" d="M67.15,45.371c-0.045-1.123-0.757-2.669-0.757-2.669L67.15,45.371z"/>
<path class="st18" d="M67.095,45.372c-0.636-1.305-0.745-2.662-0.745-2.662L67.095,45.372z"/>
<path class="st17" d="M63.035,42.74c0.276-1.316-0.459-3.055-0.459-3.055L63.035,42.74z"/>
<path class="st18" d="M62.94,42.75c-0.676-1.465-0.448-3.047-0.448-3.047L62.94,42.75z"/>
<path class="st17" d="M60.651,43.061c0.15-0.835-0.193-1.871-0.193-1.871L60.651,43.061z"/>
<path class="st18" d="M60.604,43.073c-0.316-0.867-0.185-1.868-0.185-1.868L60.604,43.073z"/>
<path class="st17" d="M61.533,42.176c-0.045-1.123-0.757-2.669-0.757-2.669L61.533,42.176z"/>
<path class="st18" d="M61.474,42.178c-0.636-1.305-0.745-2.662-0.745-2.662L61.474,42.178z"/>
<path class="st17" d="M56.754,39.677c0.276-1.316-0.459-3.055-0.459-3.055L56.754,39.677z"/>
<path class="st18" d="M56.659,39.686c-0.676-1.465-0.448-3.047-0.448-3.047L56.659,39.686z"/>
<path class="st17" d="M54.37,39.997c0.15-0.835-0.193-1.871-0.193-1.871L54.37,39.997z"/>
<path class="st18" d="M54.322,40.009c-0.316-0.867-0.185-1.868-0.185-1.868L54.322,40.009z"/>
<path class="st17" d="M55.251,39.112c-0.045-1.123-0.757-2.669-0.757-2.669L55.251,39.112z"/>
<path class="st18" d="M55.192,39.113c-0.636-1.305-0.745-2.662-0.745-2.662L55.192,39.113z"/>
<g id="Tire">
	<path class="st8" d="M78.48,54.864c0.549,0.095,1.154,0.691,1.354,1.327c0.2,0.636-0.081,1.076-0.626,0.977
		c-0.549-0.095-1.154-0.691-1.354-1.327C77.654,55.209,77.931,54.769,78.48,54.864z"/>
	<path class="st9" d="M78.372,54.955c0.541,0.096,1.14,0.688,1.336,1.32c0.196,0.636-0.081,1.073-0.622,0.977
		s-1.14-0.688-1.336-1.32C77.553,55.296,77.832,54.86,78.372,54.955z"/>
	<path class="st8" d="M78.209,55.037c0.549,0.095,1.154,0.691,1.354,1.327c0.2,0.636-0.081,1.076-0.626,0.977
		c-0.549-0.095-1.154-0.691-1.354-1.327C77.383,55.382,77.662,54.941,78.209,55.037z"/>
	<path class="st9" d="M78.103,55.128c0.541,0.096,1.14,0.688,1.336,1.32c0.196,0.636-0.081,1.073-0.622,0.977
		c-0.541-0.096-1.14-0.688-1.336-1.32C77.284,55.472,77.561,55.032,78.103,55.128z"/>
	<path class="st8" d="M77.979,55.189c0.549,0.095,1.154,0.691,1.354,1.327c0.2,0.636-0.081,1.076-0.626,0.977
		c-0.549-0.095-1.154-0.691-1.354-1.327C77.153,55.53,77.431,55.094,77.979,55.189z"/>
	<path class="st9" d="M77.872,55.28c0.541,0.096,1.14,0.688,1.336,1.32c0.196,0.636-0.081,1.073-0.622,0.977
		c-0.541-0.096-1.14-0.688-1.336-1.32C77.053,55.625,77.331,55.185,77.872,55.28z"/>
	<path class="st8" d="M77.822,55.336c0.523,0.092,1.102,0.674,1.291,1.303c0.189,0.629-0.082,1.061-0.604,0.969
		c-0.523-0.092-1.102-0.674-1.291-1.303C77.025,55.677,77.296,55.244,77.822,55.336z"/>
	<path class="st9" d="M77.857,55.551c0.442,0.076,0.928,0.568,1.088,1.099c0.161,0.527-0.068,0.896-0.509,0.816
		c-0.442-0.076-0.928-0.568-1.088-1.099C77.188,55.84,77.416,55.476,77.857,55.551z"/>
	<path class="st10" d="M77.931,55.699c0.354,0.064,0.745,0.456,0.874,0.881c0.128,0.426-0.054,0.72-0.412,0.656
		c-0.354-0.064-0.745-0.456-0.874-0.881C77.391,55.934,77.577,55.64,77.931,55.699z"/>
	<path class="st11" d="M78.018,55.826c0.287,0.05,0.603,0.369,0.707,0.714c0.104,0.345-0.046,0.58-0.334,0.529
		c-0.287-0.05-0.603-0.369-0.707-0.714C77.583,56.014,77.731,55.775,78.018,55.826z"/>
	<path class="st10" d="M78.071,56.012c0.21,0.038,0.443,0.27,0.52,0.524c0.077,0.254-0.033,0.426-0.243,0.392
		c-0.21-0.038-0.443-0.27-0.52-0.524C77.748,56.152,77.857,55.976,78.071,56.012z"/>
	<path class="st12" d="M78.148,56.303c0.066,0.013,0.137,0.084,0.162,0.165c0.024,0.08-0.011,0.132-0.078,0.123
		c-0.066-0.013-0.137-0.084-0.162-0.165C78.05,56.345,78.082,56.29,78.148,56.303z"/>
	<path class="st12" d="M78.176,56.1c0.037,0.006,0.074,0.045,0.09,0.09c0.012,0.044-0.005,0.073-0.042,0.067
		c-0.037-0.006-0.074-0.045-0.09-0.09C78.121,56.123,78.139,56.094,78.176,56.1z"/>
	<path class="st12" d="M77.923,56.125c0.037,0.006,0.074,0.045,0.09,0.09c0.012,0.044-0.005,0.073-0.042,0.067
		c-0.037-0.006-0.074-0.045-0.09-0.09C77.869,56.149,77.887,56.119,77.923,56.125z"/>
	<path class="st12" d="M77.931,56.4c0.037,0.006,0.074,0.045,0.09,0.09c0.012,0.044-0.005,0.073-0.042,0.067
		c-0.037-0.006-0.074-0.045-0.09-0.09C77.876,56.423,77.895,56.394,77.931,56.4z"/>
	<path class="st12" d="M78.175,56.642c0.037,0.006,0.074,0.045,0.09,0.09c0.012,0.044-0.005,0.073-0.042,0.067
		c-0.037-0.006-0.074-0.045-0.09-0.09C78.121,56.666,78.139,56.636,78.175,56.642z"/>
	<path class="st12" d="M78.443,56.635c0.037,0.006,0.074,0.045,0.09,0.09c0.012,0.044-0.005,0.073-0.042,0.067
		c-0.037-0.006-0.074-0.045-0.09-0.09C78.389,56.658,78.406,56.629,78.443,56.635z"/>
	<path class="st12" d="M78.436,56.364c0.037,0.006,0.074,0.045,0.09,0.09c0.012,0.044-0.005,0.073-0.042,0.067
		c-0.037-0.006-0.074-0.045-0.09-0.09C78.382,56.388,78.399,56.358,78.436,56.364z"/>
</g>
<g id="Body">
	<path class="st10" d="M81.603,58.082c-0.264,0.128-0.346,0.071-0.346,0.071l-1.6-0.752c0.047-0.561-0.176-1.084-0.176-1.084
		c-0.166-0.718-0.529-1.001-0.529-1.001l-1.066-0.558c-0.175-0.105-0.378-0.027-0.378-0.027c-0.226,0.178-0.348,0.68-0.348,0.68
		l0.01,0.746l-0.472-0.269l-0.056-2.076c-0.017-0.209,0.078-0.233,0.078-0.233l0.19-0.14l-0.162-3.722
		c-0.036-0.391,0.159-0.48,0.159-0.48l-0.03-1.135l0.793-0.497l-0.013-0.476l2.44-1.495l0.327,0.284l0.361-0.193l1.142,1.168
		l2.109,1.153c0.221,0.02,0.635,0.836,0.635,0.836l0.03,0.054l0.336,1.035l-0.005,0.062l0.431,1.857l0.06,2.244l-0.132,0.114
		l0.003,0.11c0.305,0.018,0.272,0.202,0.272,0.202l0.027,1L81.603,58.082z"/>
	<path class="st25" d="M85.345,53.611l-0.371,0.211c-0.145,0.059-0.124,0.168-0.124,0.168l-0.108,0.48l-0.071,0.086l-2.138,1.314
		c-0.199,0.089-0.212,0.006-0.212,0.006l-0.11-0.246c-0.058-0.126-0.13-0.063-0.13-0.063l-0.299,0.191
		c-0.181,0.082-0.177-0.042-0.177-0.042l-0.018-0.685c0.01-0.286,0.174-0.345,0.174-0.345l3.482-2.134
		c0.138-0.051,0.166,0.051,0.166,0.051l0.023,0.853C85.436,53.572,85.345,53.611,85.345,53.611z"/>
	<path class="st25" d="M84.996,55.9l-2.66,1.629c-0.136,0.121-0.201,0.005-0.201,0.005l-0.011-0.575
		C82.09,56.777,82.22,56.7,82.22,56.7l2.643-1.565c0.108-0.084,0.14,0.033,0.14,0.033l0.018,0.67L84.996,55.9z"/>
	<path class="st12" d="M85.457,51.897l-4.182,2.519c-0.391,0.047-0.532-0.279-0.532-0.279l-0.31-1.611
		c0.198,0.153,0.443,0.105,0.443,0.105l4.155-2.591L85.457,51.897z"/>
	<path class="st26" d="M85.455,51.839l-4.201,2.523c-0.391,0.047-0.477-0.309-0.477-0.309l-0.307-1.494
		c0.198,0.153,0.44-0.012,0.44-0.012l4.12-2.506L85.455,51.839z"/>
	<path class="st12" d="M85.262,53.258l-3.512,2.12l-0.001-0.047l-0.002-0.062c-0.014-0.099,0.07-0.13,0.07-0.13l3.372-2.043
		c0.09-0.064,0.103-0.003,0.103-0.003l0.003,0.11L85.262,53.258z"/>
	<path class="st12" d="M85.272,53.474l-0.054,0.045l-3.436,2.093l-0.055,0.001l-0.003-0.11l0.028-0.048l3.516-2.099
		C85.337,53.418,85.272,53.474,85.272,53.474z"/>
	<path class="st12" d="M84.628,54.202l-2.144,1.336L82.4,55.54l-0.062,0.002l-0.001-0.044l-0.001-0.055l0.06-0.083l2.244-1.316
		l0.044-0.001l0.037-0.001C84.759,54.14,84.628,54.202,84.628,54.202z"/>
	<polygon class="st12" points="84.475,54.506 82.601,55.681 82.546,55.683 82.545,55.635 82.589,55.59 84.426,54.434 84.469,54.411 
		84.509,54.41 84.51,54.458 	"/>
	<polygon class="st12" points="84.889,55.297 84.89,55.356 84.863,55.409 82.331,56.927 82.294,56.928 82.266,56.855 82.291,56.818 
		84.818,55.27 	"/>
	<polygon class="st12" points="84.895,55.539 84.897,55.598 84.869,55.65 82.338,57.169 82.301,57.17 82.273,57.097 82.298,57.06 
		84.824,55.512 	"/>
	<polygon class="st12" points="84.894,55.777 84.895,55.84 84.868,55.888 82.336,57.41 82.299,57.411 82.272,57.339 82.296,57.301 
		84.824,55.754 	"/>
	<polygon class="st24" points="83.697,53.648 83.845,53.563 83.852,53.808 83.704,53.896 	"/>
	<polygon class="st24" points="83.51,53.769 83.658,53.685 83.665,53.931 83.517,54.015 	"/>
	<polygon class="st24" points="83.326,53.877 83.478,53.789 83.485,54.038 83.333,54.123 	"/>
	<polygon class="st24" points="83.128,53.993 83.279,53.908 83.286,54.154 83.135,54.239 	"/>
</g>
<polygon class="st12" points="78.519,51.405 78.559,52.895 80.464,53.837 80.157,52.241 "/>
<polygon class="st27" points="78.564,51.429 78.603,52.875 80.464,53.819 80.161,52.221 "/>
<path class="st28" d="M81.176,52.403c-0.407,0.256-0.463,0.236-0.463,0.236l-0.35-0.075l-0.049-0.351l-0.003-0.11
	c0.287,0.047,0.468-0.031,0.468-0.031l4.128-2.528l0.055-0.001l0.131,0.382c0.021,0.109-0.055,0.123-0.055,0.123L81.176,52.403z"/>
<path class="st29" d="M80.215,52.088c0.269,0.191,0.56-0.015,0.56-0.015l4.128-2.528c0.015-0.256-0.234-0.653-0.234-0.653
	c0.027,0.043-0.033,0.133-0.033,0.133l-3.993,2.368c-0.226,0.2-0.412,0.095-0.412,0.095l-0.092,0.002L80.215,52.088z"/>
<polygon class="st29" points="80.309,52.159 77.054,50.444 77.049,50.253 80.256,51.963 "/>
<path class="st30" d="M81.547,54.189c-0.303,0.195-0.353,0.093-0.353,0.093l-0.127-0.514l0.084-0.002
	c0.278,0.011,1.226-0.626,1.226-0.626l0.224-0.116c0.443-0.023,0.711-0.132,0.711-0.132l2.087-1.276l0.034,0.193L81.547,54.189z"/>
<path class="st31" d="M85.395,51.649l0.025,0.112l-1.778,1.165c0.174-0.606,0.01-1.012,0.01-1.012
	c-0.149-0.362-0.134-0.785-0.134-0.785l1.539-0.949L85.395,51.649z"/>
<path class="st31" d="M81.452,54.239l-0.446-1.608l0.277-0.194c0.091-0.039,0.128-0.003,0.128-0.003l0.732,1.34L81.452,54.239z"/>
<path class="st31" d="M81.388,54.281c-0.148,0.077-0.205,0.005-0.205,0.005l-0.381-1.543c0.094-0.193,0.135-0.004,0.135-0.004
	L81.388,54.281z"/>
<path class="st12" d="M79.95,54.214c-0.147-0.014-0.134-0.213-0.134-0.213l0.102-0.05l0.019,0.158
	c0.103,0.015,0.329-0.167,0.329-0.167l0.095-0.003l0.001,0.047C80.147,54.187,79.95,54.214,79.95,54.214z"/>
<path class="st32" d="M79.716,52.058l-0.062,0.002c0.014,0.117-0.246,0.106-0.246,0.106l0.03,1.124l0.247,0.074l0.327-0.785
	l-0.011-0.154l-0.084-0.108C79.698,52.183,79.716,52.058,79.716,52.058L79.716,52.058z"/>
<path class="st33" d="M80.069,53.866l-0.447,0.276l-0.051-0.017l-0.033-1.227c0.07-0.13,0.472-0.324,0.472-0.324
	c0.048,0.028,0.073,0.093,0.073,0.093L80.069,53.866z"/>
<path class="st34" d="M80.117,53.883l-0.451,0.261l-0.047,0.001l-0.033-1.227c0.07-0.13,0.45-0.305,0.45-0.305
	c0.048,0.028,0.05,0.098,0.05,0.098L80.117,53.883z"/>
<path class="st12" d="M79.848,52.461l-0.006,0.205l-0.065,0.024l-0.006-0.224c0.277-0.334,0.445-0.236,0.445-0.236l0.002,0.081
	C80.026,52.259,79.848,52.461,79.848,52.461z"/>
<polygon class="st24" points="81.232,54.498 81.33,58.166 81.491,58.133 81.392,54.416 "/>
<path class="st35" d="M81.648,56.725c-0.306,0.202-0.426,0.11-0.426,0.11l-1.206-0.58c-0.458-1.647-1.543-1.937-1.543-1.937
	c1.244,0.37,1.626,1.872,1.626,1.872l0.892,0.459c0.259,0.121,0.461-0.012,0.461-0.012l3.934-2.38l0.031,0.175L81.648,56.725z"/>
<path class="st24" d="M84.159,48.121l0.138,0.117C84.834,49.128,84.562,49,84.562,49c0.044-0.111-0.272-0.605-0.272-0.605
	l-4.111,2.433l-0.308,0.008c0.248,0.092,0.414,0.403,0.414,0.403c0.164,0.241,0.272,0.202,0.272,0.202L80.449,51.5l-0.158,0.004
	l-0.151-0.018c-0.076-0.357-0.412-0.608-0.412-0.608l-2.593-1.455c-0.324-0.174-0.338,0.093-0.338,0.093
	c-0.032-0.208,0.114-0.27,0.114-0.27c0.524-0.025,3.253,0.928,3.253,0.928l3.111-1.904l-0.003-0.121l-0.071,0.064l-3.06-2.494
	l2.609,2.044l-0.878-0.893L84.159,48.121z"/>
<polygon class="st24" points="76.847,48.185 77.171,47.993 79.931,49.935 "/>
<polygon class="st36" points="77.676,47.686 77.661,47.137 79.971,49.934 "/>
<path class="st11" d="M80.161,50.17c-2.724-1.162-2.844-1.125-2.844-1.125c0.161-0.169,1.879,0.653,1.879,0.653l0.963,0.388
	l3.11-1.941l0.003,0.121L80.161,50.17z"/>
<polygon class="st37" points="80.536,55.179 77.132,53.366 77.124,53.043 80.527,54.832 "/>
<polygon class="st21" points="80.537,55.231 77.134,53.417 77.132,53.366 80.536,55.179 "/>
<polygon class="st2" points="78.585,53.869 78.59,54.033 78.979,54.24 78.975,54.075 "/>
<path class="st7" d="M77.119,52.86l0.855,0.483l0.103-0.003l-0.046-1.713l-0.075-0.056l-0.736-0.416l-0.11,0.003L77.119,52.86z
	 M77.175,52.782l-0.007-1.487l0.095-0.003l0.644,0.364l0.063,0.049l0.04,1.493L77.922,53.2L77.175,52.782z"/>
<path class="st7" d="M77.267,52.662l0.577,0.325l0.07-0.002l-0.031-1.154l-0.048-0.039l-0.495-0.28l-0.074,0.002L77.267,52.662z
	 M77.306,52.61l-0.005-1.004l0.066-0.002l0.432,0.245l0.045,0.036l0.027,1.007l-0.058,0.002L77.306,52.61z"/>
<path class="st24" d="M81.302,57.127l0.002,0.07L79.74,56.4c-0.363-1.236-0.779-1.445-0.779-1.445l-2.316-1.257l0.028-0.056
	l2.39,1.27c0.441,0.325,0.753,1.456,0.753,1.456L81.302,57.127L81.302,57.127z"/>
<polygon class="st37" points="66.772,51.196 66.113,50.788 66.111,50.715 66.15,50.659 66.767,51.016 "/>
<path class="st21" d="M66.113,50.788c-0.227,0.017-0.227,0.156-0.227,0.156l0.893,0.493l-0.006-0.242L66.113,50.788z"/>
<path class="st38" d="M32.821,81.639l0.018,0.454l0.396-0.224V81.44L32.821,81.639z M32.842,81.653l0.363-0.172v0.377l-0.348,0.198
	L32.842,81.653z"/>
<path class="st38" d="M67.514,51.132l0.03,0.453l0.39-0.235l-0.011-0.429L67.514,51.132z M67.54,51.145l0.358-0.182l0.01,0.377
	l-0.343,0.207L67.54,51.145z"/>
<path class="st38" d="M32.842,82.158v0.264l0.363-0.19v-0.267L32.842,82.158z M32.872,82.169l0.297-0.158v0.22l-0.297,0.154V82.169z
	"/>
<path class="st38" d="M67.554,51.662l0.007,0.264l0.358-0.2l-0.007-0.268L67.554,51.662z M67.583,51.672l0.293-0.166l0.006,0.22
	l-0.293,0.162L67.583,51.672z"/>
<polygon class="st11" points="76.678,55.869 76.53,55.796 76.495,54.485 76.651,54.426 "/>
<polygon class="st11" points="66.819,49.545 66.654,49.55 66.627,48.55 66.795,48.649 "/>
<polygon class="st7" points="75.353,52.211 71.216,50.007 71.214,49.911 75.351,52.131 "/>
<polygon class="st7" points="75.36,52.497 71.224,50.289 71.222,50.197 75.358,52.416 "/>
<polygon class="st7" points="75.368,52.779 71.232,50.574 71.229,50.479 75.366,52.702 "/>
<polygon class="st7" points="70.537,49.677 66.397,47.472 66.394,47.377 70.535,49.6 "/>
<polygon class="st7" points="70.545,49.963 66.405,47.758 66.402,47.663 70.543,49.882 "/>
<polygon class="st7" points="70.553,50.245 66.412,48.04 66.41,47.945 70.55,50.168 "/>
<polygon class="st7" points="65.814,47.18 61.676,44.971 61.674,44.88 65.812,47.099 "/>
<polygon class="st7" points="65.822,47.465 61.684,45.257 61.682,45.165 65.819,47.385 "/>
<polygon class="st7" points="65.829,47.747 61.692,45.542 61.689,45.447 65.827,47.667 "/>
<polygon class="st7" points="61.012,44.626 56.874,42.418 56.872,42.326 61.01,44.546 "/>
<polygon class="st7" points="61.02,44.912 56.882,42.702 56.88,42.612 61.017,44.832 "/>
<polygon class="st7" points="61.027,45.194 56.89,42.988 56.887,42.893 61.025,45.114 "/>
<polygon class="st7" points="56.206,42.083 52.07,39.879 52.067,39.783 56.204,42.006 "/>
<polygon class="st7" points="56.214,42.369 52.077,40.165 52.075,40.069 56.212,42.292 "/>
<polygon class="st7" points="56.221,42.651 52.085,40.447 52.082,40.351 56.219,42.574 "/>
<g>
	<polygon class="st7" points="73.827,51.196 73.947,51.263 73.945,51.179 73.825,51.112 	"/>
	<polygon class="st7" points="74.05,51.316 74.189,51.392 74.186,51.308 74.048,51.236 	"/>
	<polygon class="st7" points="73.274,50.904 73.411,50.977 73.409,50.894 73.272,50.816 	"/>
	<polygon class="st7" points="73.516,51.033 73.724,51.145 73.721,51.06 73.513,50.949 	"/>
	<polygon class="st7" points="74.292,51.445 74.482,51.55 74.48,51.465 74.29,51.364 	"/>
	<polygon class="st7" points="74.582,51.601 74.705,51.668 74.703,51.587 74.58,51.521 	"/>
	<polygon class="st7" points="74.944,51.717 74.803,51.64 74.806,51.72 74.947,51.794 	"/>
	<polygon class="st7" points="73.051,50.785 73.17,50.848 73.167,50.764 73.049,50.697 	"/>
	<polygon class="st7" points="71.776,50.105 71.917,50.182 71.915,50.09 71.774,50.014 	"/>
	<polygon class="st7" points="71.553,49.987 71.676,50.053 71.673,49.962 71.551,49.895 	"/>
	<polygon class="st7" points="75.047,51.849 75.289,51.979 75.287,51.902 75.045,51.769 	"/>
	<polygon class="st7" points="72.761,50.632 72.947,50.73 72.945,50.642 72.758,50.544 	"/>
	<polygon class="st7" points="71.15,49.678 71.152,49.773 71.453,49.934 71.45,49.839 	"/>
	<polygon class="st7" points="72.519,50.503 72.661,50.575 72.659,50.488 72.517,50.415 	"/>
	<polygon class="st7" points="72.018,50.234 72.195,50.329 72.193,50.24 72.015,50.143 	"/>
	<polygon class="st7" points="72.297,50.384 72.419,50.447 72.416,50.359 72.294,50.293 	"/>
</g>
<g>
	<polygon class="st7" points="69.067,48.683 69.19,48.746 69.188,48.662 69.065,48.599 	"/>
	<polygon class="st7" points="69.29,48.801 69.431,48.874 69.429,48.794 69.288,48.717 	"/>
	<polygon class="st7" points="68.513,48.387 68.654,48.463 68.652,48.375 68.511,48.302 	"/>
	<polygon class="st7" points="68.755,48.515 68.967,48.626 68.964,48.543 68.752,48.431 	"/>
	<polygon class="st7" points="69.531,48.931 69.721,49.031 69.719,48.95 69.529,48.847 	"/>
	<polygon class="st7" points="69.825,49.088 69.944,49.151 69.942,49.07 69.823,49.004 	"/>
	<polygon class="st7" points="70.183,49.199 70.046,49.126 70.049,49.206 70.186,49.279 	"/>
	<polygon class="st7" points="68.29,48.267 68.413,48.334 68.41,48.246 68.288,48.183 	"/>
	<polygon class="st7" points="67.019,47.591 67.156,47.664 67.154,47.573 67.017,47.499 	"/>
	<polygon class="st7" points="66.796,47.472 66.915,47.535 66.912,47.443 66.794,47.377 	"/>
	<polygon class="st7" points="70.29,49.335 70.532,49.461 70.53,49.384 70.288,49.254 	"/>
	<polygon class="st7" points="68.004,48.114 68.19,48.215 68.188,48.127 68.001,48.026 	"/>
	<polygon class="st7" points="66.389,47.165 66.391,47.256 66.693,47.416 66.69,47.325 	"/>
	<polygon class="st7" points="67.762,47.984 67.9,48.062 67.898,47.974 67.76,47.897 	"/>
	<polygon class="st7" points="67.261,47.72 67.435,47.814 67.433,47.722 67.258,47.629 	"/>
	<polygon class="st7" points="67.54,47.866 67.659,47.932 67.656,47.841 67.538,47.778 	"/>
</g>
<g>
	<polygon class="st7" points="64.346,46.145 64.466,46.212 64.463,46.127 64.343,46.061 	"/>
	<polygon class="st7" points="64.569,46.264 64.706,46.341 64.704,46.257 64.567,46.183 	"/>
	<polygon class="st7" points="63.793,45.852 63.93,45.925 63.927,45.841 63.79,45.765 	"/>
	<polygon class="st7" points="64.034,45.981 64.242,46.093 64.24,46.005 64.032,45.893 	"/>
	<polygon class="st7" points="64.811,46.393 65,46.495 64.998,46.414 64.808,46.313 	"/>
	<polygon class="st7" points="65.101,46.55 65.224,46.613 65.221,46.532 65.099,46.469 	"/>
	<polygon class="st7" points="65.463,46.661 65.322,46.588 65.324,46.668 65.465,46.741 	"/>
	<polygon class="st7" points="63.569,45.734 63.688,45.797 63.686,45.709 63.567,45.646 	"/>
	<polygon class="st7" points="62.295,45.054 62.436,45.127 62.433,45.039 62.292,44.962 	"/>
	<polygon class="st7" points="62.072,44.936 62.194,44.997 62.192,44.906 62.069,44.844 	"/>
	<polygon class="st7" points="65.565,46.798 65.807,46.926 65.805,46.846 65.562,46.717 	"/>
	<polygon class="st7" points="63.279,45.58 63.465,45.679 63.463,45.59 63.277,45.492 	"/>
	<polygon class="st7" points="61.667,44.627 61.67,44.722 61.971,44.879 61.969,44.787 	"/>
	<polygon class="st7" points="63.038,45.451 63.179,45.524 63.176,45.436 63.035,45.36 	"/>
	<polygon class="st7" points="62.536,45.182 62.715,45.276 62.712,45.185 62.534,45.091 	"/>
	<polygon class="st7" points="62.814,45.333 62.937,45.396 62.935,45.308 62.812,45.241 	"/>
</g>
<g>
	<polygon class="st7" points="59.541,43.621 59.663,43.687 59.661,43.603 59.539,43.537 	"/>
	<polygon class="st7" points="59.765,43.74 59.906,43.817 59.904,43.732 59.763,43.66 	"/>
	<polygon class="st7" points="58.987,43.328 59.128,43.402 59.126,43.318 58.985,43.24 	"/>
	<polygon class="st7" points="59.229,43.458 59.441,43.569 59.439,43.484 59.227,43.373 	"/>
	<polygon class="st7" points="60.006,43.869 60.196,43.97 60.194,43.889 60.004,43.788 	"/>
	<polygon class="st7" points="60.3,44.026 60.418,44.092 60.416,44.011 60.297,43.946 	"/>
	<polygon class="st7" points="60.658,44.141 60.52,44.064 60.522,44.145 60.66,44.218 	"/>
	<polygon class="st7" points="58.764,43.209 58.887,43.272 58.885,43.188 58.762,43.122 	"/>
	<polygon class="st7" points="57.494,42.529 57.631,42.606 57.628,42.514 57.491,42.438 	"/>
	<polygon class="st7" points="57.27,42.41 57.389,42.477 57.387,42.386 57.268,42.319 	"/>
	<polygon class="st7" points="60.764,44.274 61.006,44.403 61.004,44.326 60.762,44.193 	"/>
	<polygon class="st7" points="58.478,43.056 58.664,43.154 58.661,43.066 58.476,42.968 	"/>
	<polygon class="st7" points="56.866,42.103 56.868,42.198 57.167,42.359 57.164,42.263 	"/>
	<polygon class="st7" points="58.236,42.927 58.375,43.001 58.372,42.913 58.234,42.839 	"/>
	<polygon class="st7" points="57.735,42.659 57.91,42.752 57.907,42.665 57.733,42.567 	"/>
	<polygon class="st7" points="58.013,42.808 58.133,42.871 58.131,42.783 58.011,42.717 	"/>
</g>
<g>
	<polygon class="st7" points="54.738,41.024 54.857,41.087 54.855,41.006 54.736,40.94 	"/>
	<polygon class="st7" points="54.961,41.142 55.099,41.216 55.096,41.136 54.958,41.058 	"/>
	<polygon class="st7" points="54.184,40.727 54.321,40.804 54.319,40.716 54.182,40.643 	"/>
	<polygon class="st7" points="54.426,40.856 54.634,40.968 54.632,40.884 54.423,40.772 	"/>
	<polygon class="st7" points="55.202,41.272 55.392,41.373 55.39,41.292 55.2,41.187 	"/>
	<polygon class="st7" points="55.492,41.429 55.615,41.492 55.613,41.411 55.49,41.348 	"/>
	<polygon class="st7" points="55.855,41.54 55.714,41.466 55.716,41.547 55.857,41.621 	"/>
	<polygon class="st7" points="53.961,40.609 54.081,40.676 54.078,40.587 53.959,40.525 	"/>
	<polygon class="st7" points="52.686,39.932 52.827,40.005 52.825,39.914 52.684,39.841 	"/>
	<polygon class="st7" points="52.463,39.814 52.586,39.876 52.583,39.784 52.461,39.722 	"/>
	<polygon class="st7" points="55.957,41.677 56.199,41.805 56.197,41.724 55.955,41.596 	"/>
	<polygon class="st7" points="53.672,40.456 53.858,40.557 53.855,40.469 53.669,40.368 	"/>
	<polygon class="st7" points="52.06,39.505 52.062,39.597 52.363,39.757 52.36,39.666 	"/>
	<polygon class="st7" points="53.43,40.326 53.571,40.403 53.569,40.315 53.428,40.238 	"/>
	<polygon class="st7" points="52.928,40.061 53.107,40.156 53.104,40.064 52.926,39.969 	"/>
	<polygon class="st7" points="53.207,40.208 53.33,40.274 53.327,40.183 53.205,40.12 	"/>
</g>
<g id="postlight_left_2_">
	<g id="postlight_left">
		<g id="postlight_3_">
			<path class="st2" d="M15.732,28.393c-6.707,0.253-7.868,5.7-7.868,5.7H7.359c1.917-6.052,8.372-6.039,8.372-6.039L15.732,28.393
				L15.732,28.393z"/>
			<path class="st2" d="M17.067,27.32c0.89-0.183,1.786,0.172,1.786,0.645s-0.737,0.856-1.647,0.856s-1.59-0.163-1.59-0.636
				S16.268,27.484,17.067,27.32z"/>
			<path class="st39" d="M17.62,28.024c0.795-0.108,1.115,0.037,1.115,0.256c0,0-0.215,0.414-1.164,0.527
				c-0.785,0.093-1.416-0.042-1.416-0.261S16.78,28.139,17.62,28.024z"/>
			<rect x="6.653" y="33.835" class="st4" width="1.281" height="8.394"/>
		</g>
		<g id="postlight_4_">
			<path class="st2" d="M-24.846,7.167c-6.707,0.253-7.868,5.7-7.868,5.7h-0.505c1.917-6.052,8.372-6.039,8.372-6.039L-24.846,7.167
				L-24.846,7.167z"/>
			<path class="st2" d="M-23.511,6.093c0.89-0.183,1.786,0.172,1.786,0.645s-0.737,0.856-1.647,0.856s-1.59-0.163-1.59-0.636
				S-24.31,6.257-23.511,6.093z"/>
			<path class="st39" d="M-22.958,6.798c0.795-0.108,1.115,0.037,1.115,0.256c0,0-0.215,0.414-1.164,0.527
				c-0.785,0.093-1.416-0.042-1.416-0.261S-23.798,6.913-22.958,6.798z"/>
			<rect x="-33.925" y="12.609" class="st4" width="1.281" height="8.394"/>
		</g>
		<g id="postlight_5_">
			<path class="st2" d="M56.195,49.711c-6.707,0.253-7.868,5.7-7.868,5.7h-0.505c1.917-6.052,8.372-6.039,8.372-6.039L56.195,49.711
				L56.195,49.711z"/>
			<path class="st2" d="M57.53,48.637c0.89-0.183,1.786,0.172,1.786,0.645s-0.737,0.856-1.647,0.856s-1.59-0.163-1.59-0.636
				C56.08,49.031,56.732,48.801,57.53,48.637z"/>
			<path class="st39" d="M58.084,49.342c0.795-0.108,1.115,0.037,1.115,0.256c0,0-0.215,0.414-1.164,0.527
				c-0.785,0.093-1.416-0.042-1.416-0.261C56.619,49.644,57.244,49.457,58.084,49.342z"/>
			<rect x="47.117" y="55.153" class="st4" width="1.281" height="8.394"/>
		</g>
		<g id="postlight_11_">
			<path class="st2" d="M137.892,93.286c-6.707,0.253-7.868,5.7-7.868,5.7h-0.505c1.917-6.052,8.372-6.039,8.372-6.039v0.339
				H137.892z"/>
			<path class="st2" d="M139.227,92.212c0.89-0.183,1.786,0.172,1.786,0.645s-0.737,0.856-1.647,0.856s-1.59-0.163-1.59-0.636
				S138.429,92.376,139.227,92.212z"/>
			<path class="st39" d="M139.781,92.916c0.795-0.108,1.115,0.037,1.115,0.256c0,0-0.215,0.414-1.164,0.527
				c-0.785,0.093-1.416-0.042-1.416-0.261C138.316,93.219,138.94,93.032,139.781,92.916z"/>
			<rect x="128.814" y="98.727" class="st4" width="1.281" height="8.394"/>
		</g>
		<g id="postlight_10_">
			<path class="st2" d="M94.315,70.059c-6.707,0.253-7.868,5.7-7.868,5.7h-0.505c1.917-6.052,8.372-6.039,8.372-6.039L94.315,70.059
				L94.315,70.059z"/>
			<path class="st2" d="M95.649,68.986c0.89-0.183,1.786,0.172,1.786,0.645s-0.737,0.856-1.647,0.856s-1.59-0.163-1.59-0.636
				S94.851,69.149,95.649,68.986z"/>
			<path class="st39" d="M96.203,69.69c0.795-0.108,1.115,0.037,1.115,0.256c0,0-0.215,0.414-1.164,0.527
				c-0.785,0.093-1.416-0.042-1.416-0.261C94.738,69.992,95.363,69.805,96.203,69.69z"/>
			<rect x="85.236" y="75.501" class="st4" width="1.281" height="8.394"/>
		</g>
		
			<animateTransform  accumulate="none" additive="replace" attributeName="transform" attributeType="XML" begin="0s" calcMode="linear" dur="3.5" fill="remove" repeatCount="indefinite" restart="always" type="translate" values="0,0;-114,-60">
			</animateTransform>
	</g>
	<g id="postlight_left_1_">
		<g id="postlight_21_">
			<path class="st2" d="M213.156,132.686c-6.707,0.253-7.868,5.7-7.868,5.7h-0.505c1.917-6.052,8.372-6.039,8.372-6.039v0.339
				H213.156z"/>
			<path class="st2" d="M214.491,131.613c0.89-0.183,1.786,0.172,1.786,0.645c0,0.473-0.737,0.856-1.647,0.856
				c-0.91,0-1.59-0.163-1.59-0.636S213.692,131.777,214.491,131.613z"/>
			<path class="st39" d="M215.044,132.317c0.795-0.108,1.115,0.037,1.115,0.256c0,0-0.215,0.414-1.164,0.527
				c-0.785,0.093-1.416-0.042-1.416-0.261C213.579,132.62,214.204,132.432,215.044,132.317z"/>
			<rect x="204.077" y="138.128" class="st4" width="1.281" height="8.394"/>
		</g>
		<g id="postlight_20_">
			<path class="st2" d="M172.578,111.46c-6.707,0.253-7.868,5.7-7.868,5.7h-0.505c1.917-6.052,8.372-6.039,8.372-6.039v0.339
				H172.578z"/>
			<path class="st2" d="M173.913,110.386c0.89-0.183,1.786,0.172,1.786,0.645s-0.737,0.856-1.647,0.856s-1.59-0.163-1.59-0.636
				C172.462,110.778,173.114,110.55,173.913,110.386z"/>
			<path class="st39" d="M174.466,111.091c0.795-0.108,1.115,0.037,1.115,0.256c0,0-0.215,0.414-1.164,0.527
				c-0.785,0.093-1.416-0.042-1.416-0.261S173.626,111.206,174.466,111.091z"/>
			<rect x="163.499" y="116.902" class="st4" width="1.281" height="8.394"/>
		</g>
		<g id="postlight_19_">
			<path class="st2" d="M253.619,154.004c-6.707,0.253-7.868,5.7-7.868,5.7h-0.505c1.917-6.052,8.372-6.039,8.372-6.039v0.339
				H253.619z"/>
			<path class="st2" d="M254.954,152.93c0.89-0.183,1.786,0.172,1.786,0.645c0,0.473-0.737,0.856-1.647,0.856
				s-1.59-0.163-1.59-0.636C253.504,153.324,254.156,153.094,254.954,152.93z"/>
			<path class="st39" d="M255.508,153.635c0.795-0.108,1.115,0.037,1.115,0.256c0,0-0.215,0.414-1.164,0.527
				c-0.785,0.093-1.416-0.042-1.416-0.261C254.043,153.937,254.668,153.75,255.508,153.635z"/>
			<rect x="244.541" y="159.446" class="st4" width="1.281" height="8.394"/>
		</g>
		<g id="postlight_18_">
			<path class="st2" d="M335.316,197.579c-6.707,0.253-7.868,5.7-7.868,5.7h-0.505c1.917-6.052,8.372-6.039,8.372-6.039v0.339
				H335.316z"/>
			<path class="st2" d="M336.651,196.505c0.89-0.183,1.786,0.172,1.786,0.645c0,0.473-0.737,0.856-1.647,0.856
				s-1.59-0.163-1.59-0.636C335.2,196.897,335.853,196.669,336.651,196.505z"/>
			<path class="st39" d="M337.205,197.209c0.795-0.108,1.115,0.037,1.115,0.256c0,0-0.215,0.414-1.164,0.527
				c-0.785,0.093-1.416-0.042-1.416-0.261C335.74,197.512,336.364,197.325,337.205,197.209z"/>
			<rect x="326.238" y="203.02" class="st4" width="1.281" height="8.394"/>
		</g>
		<g id="postlight_17_">
			<path class="st2" d="M291.739,174.352c-6.707,0.253-7.868,5.7-7.868,5.7h-0.505c1.917-6.052,8.372-6.039,8.372-6.039v0.339
				H291.739z"/>
			<path class="st2" d="M293.073,173.279c0.89-0.183,1.786,0.172,1.786,0.645c0,0.473-0.737,0.856-1.647,0.856
				s-1.59-0.163-1.59-0.636C291.622,173.671,292.275,173.442,293.073,173.279z"/>
			<path class="st39" d="M293.627,173.983c0.795-0.108,1.115,0.037,1.115,0.256c0,0-0.215,0.414-1.164,0.527
				c-0.785,0.093-1.416-0.042-1.416-0.261C292.162,174.285,292.787,174.098,293.627,173.983z"/>
			<rect x="282.66" y="179.794" class="st4" width="1.281" height="8.394"/>
		</g>
		
			<animateTransform  accumulate="none" additive="replace" attributeName="transform" attributeType="XML" begin="0s" calcMode="linear" dur="3.5" fill="remove" repeatCount="indefinite" restart="always" type="translate" values="0,0;-114,-60">
			</animateTransform>
	</g>
</g>
</svg>
