<?xml version="1.0" encoding="utf-8"?>
<!-- Generator: Adobe Illustrator 16.0.0, SVG Export Plug-In . SVG Version: 6.00 Build 0)  -->
<!DOCTYPE svg PUBLIC "-//W3C//DTD SVG 1.1//EN" "http://www.w3.org/Graphics/SVG/1.1/DTD/svg11.dtd">
<svg version="1.1" id="streetlight" xmlns="http://www.w3.org/2000/svg" xmlns:xlink="http://www.w3.org/1999/xlink" x="0px"
	 y="0px" width="300px" height="300px" viewBox="0 0 300 300" enable-background="new 0 0 300 300" xml:space="preserve">
<g id="HIGH">
	<g id="highway">
		
			<rect id="kalsada_1_" x="544.419" y="147.261" transform="matrix(-0.4662 0.8847 -0.8847 -0.4662 1199.9553 93.9011)" fill="#CCCCCC" width="54.458" height="523.426"/>
		<g>
			
				<rect id="kalsada" x="124.21" y="-74.233" transform="matrix(-0.4662 0.8847 -0.8847 -0.4662 387.8988 140.9057)" fill="#CCCCCC" width="54.459" height="523.425"/>
			
				<rect id="yellowlane_1_" x="569.766" y="146.59" transform="matrix(-0.4665 0.8845 -0.8845 -0.4665 1197.5834 94.2733)" fill="#FFFF33" width="1.189" height="523.425"/>
			
				<rect id="yellowlane" x="149.559" y="-74.902" transform="matrix(-0.4662 0.8847 -0.8847 -0.4662 385.4205 141.0566)" fill="#FFFF33" width="1.189" height="523.425"/>
		</g>
		
			<animateTransform  type="translate" fill="remove" values="0,0;-114,-60" restart="always" repeatCount="indefinite" dur="8" calcMode="linear" begin="0s" attributeType="XML" attributeName="transform" additive="replace" accumulate="none">
			</animateTransform>
	</g>
	<g>
		<g id="lights">
			<g id="pairlight">
				<g id="postlight_1_">
					<path fill="#333333" d="M7.706,64.108c0,0,12.066-0.024,15.649,11.286h-0.943c0,0-2.169-10.179-14.704-10.653
						C7.706,64.742,7.706,64.108,7.706,64.108z"/>
					<path fill="#333333" d="M7.924,64.355c0,0.885-1.271,1.189-2.972,1.189c-1.7,0-3.077-0.718-3.077-1.601
						c0-0.883,1.674-1.547,3.337-1.206C6.707,63.043,7.924,63.471,7.924,64.355z"/>
					<path fill="#FFFF66" d="M6.915,65.025c0,0.411-1.178,0.664-2.646,0.489c-1.776-0.208-2.175-0.984-2.175-0.984
						c0-0.411,0.598-0.68,2.083-0.48C5.749,64.266,6.915,64.618,6.915,65.025z"/>
					<rect x="22.281" y="74.914" fill="#666666" width="2.394" height="15.69"/>
				</g>
				<g id="postlight_left_2_">
					<g id="postlight_left">
						<g id="postlight_4_">
							<path fill="#333333" d="M-75.227,64.725c-12.576,0.474-14.752,10.688-14.752,10.688h-0.947
								c3.594-11.348,15.698-11.323,15.698-11.323L-75.227,64.725L-75.227,64.725z"/>
							<path fill="#333333" d="M-72.724,62.711c1.668-0.343,3.349,0.322,3.349,1.209c0,0.887-1.382,1.605-3.088,1.605
								c-1.707,0-2.981-0.305-2.981-1.192C-75.444,63.446-74.222,63.019-72.724,62.711z"/>
							<path display="none" fill="#FFFF66" d="M-71.687,64.033c1.491-0.203,2.091,0.069,2.091,0.48c0,0-0.403,0.776-2.183,0.988
								c-1.472,0.174-2.655-0.079-2.655-0.49S-73.262,64.249-71.687,64.033z"/>
							<rect x="-92.25" y="74.929" fill="#666666" width="2.402" height="15.739"/>
						</g>
					</g>
				</g>
			</g>
			<g id="pairlight_1_">
				<g id="postlight_3_">
					<path fill="#333333" d="M116.831,121.487c0,0,12.066-0.024,15.649,11.286h-0.943c0,0-2.169-10.179-14.704-10.654
						C116.831,122.121,116.831,121.487,116.831,121.487z"/>
					<path fill="#333333" d="M117.049,121.734c0,0.885-1.271,1.189-2.972,1.189c-1.7,0-3.077-0.716-3.077-1.602
						c0-0.885,1.674-1.547,3.337-1.206C115.832,120.422,117.049,120.85,117.049,121.734z"/>
					<path fill="#FFFF66" d="M116.04,122.406c0,0.411-1.178,0.664-2.646,0.489c-1.774-0.21-2.175-0.984-2.175-0.984
						c0-0.411,0.598-0.681,2.083-0.48C114.874,121.646,116.04,121.997,116.04,122.406z"/>
					<rect x="131.406" y="132.292" fill="#666666" width="2.394" height="15.69"/>
				</g>
				<g id="postlight_left_1_">
					<g id="postlight_left_3_">
						<g id="postlight_2_">
							<path fill="#333333" d="M33.898,122.105c-12.576,0.475-14.752,10.688-14.752,10.688h-0.947
								c3.594-11.347,15.698-11.323,15.698-11.323L33.898,122.105L33.898,122.105z"/>
							<path fill="#333333" d="M36.401,120.092c1.668-0.343,3.349,0.323,3.349,1.209s-1.382,1.605-3.088,1.605
								c-1.707,0-2.981-0.306-2.981-1.192C33.681,120.827,34.903,120.399,36.401,120.092z"/>
							<path display="none" fill="#FFFF66" d="M37.438,121.414c1.491-0.202,2.091,0.069,2.091,0.48c0,0-0.403,0.776-2.183,0.988
								c-1.472,0.174-2.655-0.079-2.655-0.489S35.863,121.629,37.438,121.414z"/>
							<rect x="16.875" y="132.31" fill="#666666" width="2.402" height="15.739"/>
						</g>
					</g>
				</g>
			</g>
			<g id="pairlight_3_">
				<g id="postlight_8_">
					<path fill="#333333" d="M224.531,178.561c0,0,12.065-0.025,15.648,11.285h-0.943c0,0-2.169-10.18-14.703-10.654
						C224.531,179.193,224.531,178.561,224.531,178.561z"/>
					<path fill="#333333" d="M224.748,178.808c0,0.885-1.271,1.188-2.971,1.188c-1.701,0-3.077-0.717-3.077-1.602
						s1.675-1.547,3.337-1.205C223.531,177.495,224.748,177.922,224.748,178.808z"/>
					<path fill="#FFFF66" d="M223.74,179.477c0,0.411-1.178,0.664-2.646,0.49c-1.773-0.211-2.174-0.984-2.174-0.984
						c0-0.411,0.598-0.682,2.082-0.48C222.574,178.717,223.74,179.07,223.74,179.477z"/>
					<rect x="239.105" y="189.365" fill="#666666" width="2.395" height="15.69"/>
				</g>
				<g id="postlight_left_6_">
					<g id="postlight_left_7_">
						<g id="postlight_7_">
							<path fill="#333333" d="M141.598,179.179c-12.576,0.475-14.752,10.688-14.752,10.688h-0.947
								c3.594-11.348,15.697-11.323,15.697-11.323L141.598,179.179L141.598,179.179z"/>
							<path fill="#333333" d="M144.101,177.165c1.669-0.343,3.349,0.322,3.349,1.21c0,0.887-1.382,1.604-3.088,1.604
								c-1.706,0-2.981-0.306-2.981-1.192S142.603,177.473,144.101,177.165z"/>
							<path display="none" fill="#FFFF66" d="M145.138,178.486c1.491-0.202,2.09,0.07,2.09,0.48c0,0-0.403,0.776-2.182,0.988
								c-1.472,0.174-2.655-0.078-2.655-0.489S143.563,178.703,145.138,178.486z"/>
							<rect x="124.575" y="189.383" fill="#666666" width="2.402" height="15.738"/>
						</g>
					</g>
				</g>
			</g>
			<g id="pairlight_2_">
				<g id="postlight_6_">
					<path fill="#333333" d="M333.656,235.939c0,0,12.065-0.025,15.648,11.285h-0.942c0,0-2.17-10.18-14.704-10.654
						C333.656,236.572,333.656,235.939,333.656,235.939z"/>
					<path fill="#333333" d="M333.874,236.186c0,0.886-1.271,1.189-2.972,1.189c-1.701,0-3.077-0.717-3.077-1.602
						s1.674-1.547,3.337-1.205C332.657,234.873,333.874,235.301,333.874,236.186z"/>
					<path fill="#FFFF66" d="M332.865,236.857c0,0.41-1.178,0.664-2.646,0.489c-1.774-0.21-2.176-0.984-2.176-0.984
						c0-0.411,0.599-0.681,2.084-0.479C331.699,236.098,332.865,236.449,332.865,236.857z"/>
					<rect x="348.23" y="246.744" fill="#666666" width="2.395" height="15.69"/>
				</g>
				<g id="postlight_left_4_">
					<g id="postlight_left_5_">
						<g id="postlight_5_">
							<path fill="#333333" d="M250.723,236.558c-12.575,0.474-14.752,10.688-14.752,10.688h-0.947
								c3.595-11.348,15.697-11.323,15.697-11.323L250.723,236.558L250.723,236.558z"/>
							<path fill="#333333" d="M253.227,234.544c1.668-0.343,3.349,0.322,3.349,1.209c0,0.888-1.382,1.604-3.089,1.604
								c-1.705,0-2.98-0.305-2.98-1.191S251.729,234.852,253.227,234.544z"/>
							<path display="none" fill="#FFFF66" d="M254.264,235.865c1.49-0.202,2.09,0.07,2.09,0.48c0,0-0.402,0.776-2.182,0.988
								c-1.473,0.174-2.656-0.079-2.656-0.49C251.516,236.434,252.688,236.081,254.264,235.865z"/>
							<rect x="233.7" y="246.762" fill="#666666" width="2.401" height="15.738"/>
						</g>
					</g>
				</g>
			</g>
		</g>
	</g>
	<g>
		<g id="lights_1_">
			<g id="pairlight_7_">
				<g id="postlight_16_">
					<path fill="#333333" d="M439.532,292.111c0,0,12.065-0.023,15.648,11.286h-0.943c0,0-2.169-10.179-14.703-10.653
						C439.532,292.746,439.532,292.111,439.532,292.111z"/>
					<path fill="#333333" d="M439.747,292.359c0,0.885-1.271,1.189-2.972,1.189c-1.7,0-3.076-0.717-3.076-1.602
						s1.674-1.547,3.337-1.206C438.53,291.047,439.747,291.475,439.747,292.359z"/>
					<path fill="#FFFF66" d="M438.74,293.031c0,0.41-1.177,0.663-2.646,0.488c-1.773-0.209-2.175-0.984-2.175-0.984
						c0-0.41,0.599-0.68,2.083-0.479C437.572,292.271,438.74,292.622,438.74,293.031z"/>
					<rect x="454.106" y="302.918" fill="#666666" width="2.395" height="15.689"/>
				</g>
				<g id="postlight_left_14_">
					<g id="postlight_left_15_">
						<g id="postlight_15_">
							<path fill="#333333" d="M356.597,292.73c-12.575,0.475-14.752,10.688-14.752,10.688h-0.947
								c3.595-11.348,15.697-11.322,15.697-11.322L356.597,292.73L356.597,292.73z"/>
							<path fill="#333333" d="M359.1,290.717c1.669-0.344,3.35,0.322,3.35,1.209s-1.383,1.605-3.089,1.605
								s-2.981-0.306-2.981-1.192C356.379,291.451,357.602,291.024,359.1,290.717z"/>
							<path display="none" fill="#FFFF66" d="M360.137,292.039c1.491-0.203,2.091,0.068,2.091,0.479c0,0-0.403,0.776-2.183,0.988
								c-1.472,0.175-2.655-0.079-2.655-0.489S358.562,292.254,360.137,292.039z"/>
							<rect x="339.574" y="302.935" fill="#666666" width="2.401" height="15.739"/>
						</g>
					</g>
				</g>
			</g>
			<g id="pairlight_6_">
				<g id="postlight_14_">
					<path fill="#333333" d="M548.657,349.492c0,0,12.065-0.023,15.648,11.286h-0.943c0,0-2.169-10.18-14.703-10.653
						C548.657,350.127,548.657,349.492,548.657,349.492z"/>
					<path fill="#333333" d="M548.872,349.74c0,0.885-1.271,1.188-2.972,1.188c-1.7,0-3.076-0.716-3.076-1.601
						c0-0.886,1.674-1.547,3.337-1.206C547.655,348.428,548.872,348.855,548.872,349.74z"/>
					<path fill="#FFFF66" d="M547.865,350.409c0,0.411-1.177,0.664-2.646,0.489c-1.773-0.209-2.175-0.984-2.175-0.984
						c0-0.41,0.599-0.68,2.083-0.479C546.697,349.65,547.865,350,547.865,350.409z"/>
					<rect x="563.231" y="360.299" fill="#666666" width="2.395" height="15.689"/>
				</g>
				<g id="postlight_left_12_">
					<g id="postlight_left_13_">
						<g id="postlight_13_">
							<path fill="#333333" d="M465.722,350.109c-12.575,0.475-14.752,10.688-14.752,10.688h-0.947
								c3.595-11.348,15.697-11.323,15.697-11.323L465.722,350.109L465.722,350.109z"/>
							<path fill="#333333" d="M468.225,348.096c1.669-0.344,3.35,0.322,3.35,1.209s-1.383,1.605-3.089,1.605
								s-2.981-0.306-2.981-1.193C465.504,348.83,466.727,348.403,468.225,348.096z"/>
							<path display="none" fill="#FFFF66" d="M469.262,349.418c1.491-0.203,2.091,0.068,2.091,0.479c0,0-0.403,0.776-2.183,0.988
								c-1.472,0.175-2.655-0.079-2.655-0.489S467.687,349.633,469.262,349.418z"/>
							<rect x="448.699" y="360.313" fill="#666666" width="2.401" height="15.739"/>
						</g>
					</g>
				</g>
			</g>
			<g id="pairlight_5_">
				<g id="postlight_12_">
					<path fill="#333333" d="M656.356,406.563c0,0,12.066-0.024,15.649,11.286h-0.943c0,0-2.17-10.18-14.704-10.654
						C656.356,407.197,656.356,406.563,656.356,406.563z"/>
					<path fill="#333333" d="M656.572,406.812c0,0.885-1.271,1.188-2.972,1.188s-3.077-0.716-3.077-1.602
						c0-0.885,1.675-1.547,3.338-1.205C655.355,405.499,656.572,405.926,656.572,406.812z"/>
					<path fill="#FFFF66" d="M655.565,407.482c0,0.411-1.177,0.664-2.646,0.489c-1.773-0.21-2.175-0.984-2.175-0.984
						c0-0.41,0.598-0.681,2.083-0.479C654.397,406.723,655.565,407.074,655.565,407.482z"/>
					<rect x="670.932" y="417.369" fill="#666666" width="2.394" height="15.69"/>
				</g>
				<g id="postlight_left_10_">
					<g id="postlight_left_11_">
						<g id="postlight_11_">
							<path fill="#333333" d="M573.422,407.183c-12.575,0.475-14.753,10.688-14.753,10.688h-0.946
								c3.594-11.348,15.697-11.323,15.697-11.323L573.422,407.183L573.422,407.183z"/>
							<path fill="#333333" d="M575.925,405.169c1.669-0.344,3.349,0.322,3.349,1.209s-1.382,1.605-3.088,1.605
								s-2.981-0.306-2.981-1.192C573.204,405.903,574.427,405.477,575.925,405.169z"/>
							<path display="none" fill="#FFFF66" d="M576.962,406.49c1.49-0.202,2.091,0.069,2.091,0.48c0,0-0.403,0.776-2.183,0.988
								c-1.472,0.174-2.655-0.079-2.655-0.489C574.215,407.059,575.387,406.706,576.962,406.49z"/>
							<rect x="556.398" y="417.387" fill="#666666" width="2.402" height="15.738"/>
						</g>
					</g>
				</g>
			</g>
			<g id="pairlight_4_">
				<g id="postlight_10_">
					<path fill="#333333" d="M765.481,463.944c0,0,12.066-0.024,15.649,11.286h-0.943c0,0-2.169-10.18-14.704-10.654
						C765.481,464.578,765.481,463.944,765.481,463.944z"/>
					<path fill="#333333" d="M765.697,464.191c0,0.886-1.271,1.189-2.972,1.189s-3.077-0.717-3.077-1.602s1.675-1.547,3.338-1.205
						C764.48,462.879,765.697,463.307,765.697,464.191z"/>
					<path fill="#FFFF66" d="M764.69,464.861c0,0.41-1.178,0.664-2.646,0.489c-1.773-0.21-2.175-0.984-2.175-0.984
						c0-0.41,0.598-0.681,2.083-0.479C763.522,464.102,764.69,464.452,764.69,464.861z"/>
					<rect x="780.057" y="474.75" fill="#666666" width="2.394" height="15.69"/>
				</g>
				<g id="postlight_left_8_">
					<g id="postlight_left_9_">
						<g id="postlight_9_">
							<path fill="#333333" d="M682.547,464.562c-12.575,0.474-14.753,10.688-14.753,10.688h-0.946
								c3.594-11.348,15.697-11.323,15.697-11.323L682.547,464.562L682.547,464.562z"/>
							<path fill="#333333" d="M685.05,462.548c1.669-0.344,3.349,0.322,3.349,1.209s-1.382,1.605-3.088,1.605
								s-2.981-0.306-2.981-1.193C682.329,463.282,683.552,462.855,685.05,462.548z"/>
							<path display="none" fill="#FFFF66" d="M686.087,463.869c1.49-0.202,2.091,0.069,2.091,0.48c0,0-0.403,0.776-2.183,0.988
								c-1.472,0.174-2.655-0.079-2.655-0.49C683.34,464.438,684.512,464.085,686.087,463.869z"/>
							<rect x="665.523" y="474.765" fill="#666666" width="2.402" height="15.739"/>
						</g>
					</g>
				</g>
			</g>
		</g>
	</g>
	
		<animateTransform  type="translate" fill="remove" values="0,0;-114,-60" restart="always" repeatCount="indefinite" dur="5" calcMode="linear" begin="0s" attributeType="XML" attributeName="transform" additive="replace" accumulate="none">
		</animateTransform>
</g>
<g id="MiniVan">
	<g id="Tire_2_1_">
		<path d="M140.875,172.366c0.533-0.955,1.87-1.1,1.87-1.1c1.735,0.603,1.571,2.698,1.571,2.698
			c-0.517,1.236-1.656,1.513-1.656,1.513S140.325,173.517,140.875,172.366z"/>
		<path fill="#333333" d="M141.123,172.185c0.527-0.267,1.353,0.145,1.808,1.067c0.524,0.895,0.466,1.892-0.063,2.159
			c-0.527,0.267-1.353-0.139-1.808-1.064C140.562,173.537,140.593,172.458,141.123,172.185z"/>
		<path fill="#999999" d="M141.196,174.301c0.37,0.663,0.932,0.965,1.319,0.743c0.388-0.225,0.464-0.931,0.095-1.591
			c-0.367-0.659-0.928-0.962-1.317-0.741C140.904,172.94,140.898,173.624,141.196,174.301z M141.482,173.526
			c0.14-0.045,0.434,0.152,0.59,0.394c0.154,0.239,0.201,0.62-0.007,0.684c-0.139,0.045-0.406-0.062-0.59-0.392
			C141.293,173.884,141.347,173.574,141.482,173.526z"/>
		<path fill="#FFFFFF" d="M142.133,172.927c-0.14,0.047-0.232,0.465-0.232,0.465l-0.098-0.064c0.052-0.307,0.231-0.467,0.231-0.467
			L142.133,172.927z"/>
	</g>
	<g id="Tire_2_3_">
		<path d="M125.134,163.701c0.534-0.951,1.869-1.099,1.869-1.099c1.739,0.604,1.577,2.697,1.577,2.697
			c-0.521,1.24-1.663,1.517-1.663,1.517S124.585,164.854,125.134,163.701z"/>
		<path fill="#333333" d="M125.382,163.521c0.526-0.268,1.353,0.144,1.81,1.063c0.524,0.902,0.463,1.895-0.064,2.161
			c-0.525,0.272-1.351-0.141-1.81-1.063C124.822,164.871,124.854,163.793,125.382,163.521z"/>
		<path fill="#999999" d="M125.456,165.638c0.367,0.659,0.93,0.96,1.32,0.737c0.387-0.219,0.466-0.929,0.096-1.585
			c-0.369-0.664-0.928-0.965-1.319-0.741C125.165,164.273,125.157,164.96,125.456,165.638z M125.743,164.865
			c0.14-0.046,0.433,0.149,0.589,0.387c0.154,0.241,0.201,0.62-0.008,0.687c-0.139,0.045-0.404-0.061-0.589-0.39
			C125.551,165.221,125.604,164.91,125.743,164.865z"/>
		<path fill="#FFFFFF" d="M126.39,164.265c-0.136,0.044-0.23,0.462-0.23,0.462l-0.099-0.066c0.052-0.306,0.233-0.461,0.233-0.461
			L126.39,164.265z"/>
	</g>
	<g id="Body_1_">
		<path fill="#E5E5E5" d="M144.83,175.559l-0.668-0.395c-0.168-1.822-1.324-2.624-1.324-2.624c-2.006-1.782-2.491,0.126-2.491,0.126
			l-11.888-6.65c-0.757-2.592-2.909-3.146-2.909-3.146c-0.857-0.173-0.944,0.855-0.944,0.855l-0.373,0.019l-2.685-1.91
			c-0.772-0.392,0.299-1.522,0.299-1.522l-0.047-0.967c-0.14-1.661,0.676-3.479,0.676-3.479c1.232-2.056,5.629-5.291,5.629-5.291
			l0.848-0.043l15.057,8.493l1.342,0.903l1.79,1.875c-0.319-0.951,0.332-1.312,0.332-1.312c0.606,0.184-0.105,1.558-0.105,1.558
			l1.612,1.547l2.813,2.428l0.224,1.206l0.14,0.272l0.233,1.755C149.635,174.335,144.83,175.561,144.83,175.559z"/>
		<path fill="#191919" d="M152.146,167.3l0.233,1.781c-1.652,3.492-5.183,5.323-5.183,5.323c-1.535,0.867-2.381,0.875-2.381,0.875
			l-0.653-0.111c-0.032-0.648-0.497-1.64-0.497-1.64l0.928,0.117l-0.066-1.3l0.586-0.371c4.747-1.41,6.681-5.95,6.681-5.95
			L152.146,167.3z"/>
		<path fill="#191919" d="M143.514,168.848c-1.194,0.386-1.583,0.081-1.583,0.081c-0.225-0.203-2.47-4.149-2.47-4.149
			c2.388-1.025,5.605-4.765,5.605-4.765l3.704,3.67C147.691,166.452,143.514,168.847,143.514,168.848z"/>
		<path fill="#191919" d="M139.894,167.531c-0.148-0.109,0.178,0.092-0.186-0.012c-0.362-0.101-0.869,0.383-0.869,0.383
			l-2.416-1.494c-0.083-2.364,0.323-2.715,0.323-2.715l1.785,1.132l0.486,0.439l1.089,1.879L139.894,167.531z"/>
		<path fill="#191919" d="M129.404,159.438c-0.337,0.269-0.292,2.992-0.292,2.992l5.943,3.25l0.169-0.224l0.099-2.334l-0.016-0.286
			L129.404,159.438z"/>
		<path fill="#191919" d="M123.854,156.273l-0.361,0.019c-0.487,0.311-0.792,2.269-0.792,2.269l0.25,0.45l5.741,3.116
			c-0.081-0.596,0.262-2.813,0.262-2.813L123.854,156.273z"/>
		<path fill="#6D6D6D" d="M147.104,171.55l0.21,1.263c1.332-0.571,3.709-3.163,3.709-3.163l-0.14-1.449
			C149.516,169.919,147.104,171.552,147.104,171.55z"/>
		<path fill="#EAEAEA" d="M152.155,167.504c-0.164,0.621-0.843,1.712-0.843,1.712l-0.024-0.465c0.208-0.117,0.729-1.521,0.729-1.521
			L152.155,167.504z"/>
		<path fill="#EAEAEA" d="M144.81,173.326l0.02,0.381c0.72,0.018,2.347-0.799,2.347-0.799l-0.02-0.34
			C145.709,173.394,144.81,173.323,144.81,173.326z"/>
		<polygon fill="#EAEAEA" points="144.679,172.539 144.698,172.944 145.395,172.834 145.356,172.102 		"/>
		<polygon fill="#EAEAEA" points="151.911,167.237 151.684,167.248 151.563,166.763 151.871,166.461 		"/>
		<path fill="#A8A8A8" d="M152.39,169.258c-0.871,2.456-4.577,4.933-4.577,4.933c-3.081,2.17-3.641,1.117-3.641,1.117l-0.118-0.789
			c5.162-0.047,8.258-5.974,8.258-5.974L152.39,169.258z"/>
		<path fill="#EAEAEA" stroke="#000000" stroke-width="0.1" stroke-miterlimit="10" d="M148.573,165.118
			c0.574,0.083,2.235,2.174,2.235,2.174"/>
		<path fill="#EAEAEA" stroke="#000000" stroke-width="0.1" stroke-miterlimit="10" d="M144.359,169.071
			c0.384,0.683,2.236,2.176,2.236,2.176"/>
		<path fill="none" stroke="#000000" stroke-width="0.1" stroke-miterlimit="10" d="M142.373,169.669
			c4.283-0.478,6.846-5.625,6.846-5.625"/>
		<path fill="none" stroke="#000000" stroke-width="0.1" stroke-miterlimit="10" d="M140.1,168.645l-1.069,0.401l-0.144-0.175
			l-0.049-0.971c0.437-0.424,1.056-0.366,1.056-0.366l0.118-0.384c0.218,0.077,1.349,2.209,1.349,2.209L140.1,168.645z"/>
		
			<line fill="none" stroke="#000000" stroke-width="0.1" stroke-miterlimit="10" x1="139.814" y1="167.514" x2="140.1" y2="168.644"/>
		<path fill="none" stroke="#000000" stroke-width="0.1" stroke-miterlimit="10" d="M135.913,170.202
			c-0.334-5.5,0.32-7.472,0.32-7.472"/>
		<path fill="none" stroke="#000000" stroke-width="0.1" stroke-miterlimit="10" d="M140.165,172.172
			c0.712-1.458,0.321-3.307,0.321-3.307"/>
		<path fill="none" stroke="#000000" stroke-width="0.1" stroke-miterlimit="10" d="M123.466,155.574l8.948,5.081
			c4.64,2.311,6.83,4.103,6.83,4.103"/>
		<path fill="none" stroke="#000000" stroke-width="0.1" stroke-miterlimit="10" d="M122.278,161.904l-0.117-2.279
			c0.004-2.074,1.063-4.038,1.063-4.038c1.375-1.523,5.611-5.021,5.611-5.021"/>
		<polygon fill="none" stroke="#000000" stroke-width="0.1" stroke-miterlimit="10" points="136,167.654 136.496,167.885 
			136.44,166.802 135.935,166.365 		"/>
		<polygon opacity="0.8" fill="#F7F7F7" enable-background="new    " points="143.846,161.564 146.558,166.598 147.078,165.907 
			144.192,161.169 		"/>
		<polygon opacity="0.8" fill="#F7F7F7" enable-background="new    " points="137.152,163.949 137.479,167.059 138.146,167.474 
			137.391,164.289 		"/>
		<polygon opacity="0.8" fill="#F7F7F7" enable-background="new    " points="132.344,161.133 133.394,164.773 132.096,163.928 
			131.671,160.745 		"/>
		<polygon opacity="0.8" fill="#F7F7F7" enable-background="new    " points="125.342,157.158 125.313,160.293 126.217,160.784 
			125.873,157.477 		"/>
	</g>

	<animateTransform  type="translate" fill="remove" values="0,0;0.5,0.1;0,0" restart="always" repeatCount="indefinite" dur="1" calcMode="linear" begin="0s" attributeType="XML" attributeName="transform" additive="replace" accumulate="none">
	</animateTransform>
</g>
<g id="Motor">
	<path fill="#2D2D2D" d="M159.532,202.021l0.901,1.497l1.782,1.24l0.85,0.606l-0.426,0.41h-0.268l-2.471-1.626l-1.286-1.398
		l0.135-0.567C158.75,202.184,158.692,201.706,159.532,202.021z"/>
	<g id="Motorcycle">
		<path fill="#5B5C5B" d="M162.12,213.179c0.996,1.06,2.464,1.257,3.275,0.432c0.811-0.82,0.66-2.348-0.34-3.407
			c-0.999-1.062-2.463-1.257-3.273-0.436C160.971,210.591,161.121,212.115,162.12,213.179z M162.067,210.312
			c0.546-0.433,1.485-0.107,2.102,0.728c0.614,0.834,0.672,1.864,0.127,2.301c-0.545,0.432-1.488,0.108-2.104-0.728
			C161.577,211.778,161.521,210.748,162.067,210.312z"/>
		<path fill="#5B5C5B" d="M153.399,209.225c0.997,1.059,2.465,1.253,3.277,0.433c0.811-0.823,0.658-2.347-0.338-3.408
			c-0.998-1.06-2.465-1.257-3.276-0.435C152.25,206.638,152.403,208.162,153.399,209.225z M153.345,206.357
			c0.549-0.434,1.488-0.109,2.104,0.727c0.616,0.836,0.674,1.866,0.128,2.301c-0.547,0.434-1.487,0.108-2.103-0.727
			C152.86,207.823,152.803,206.794,153.345,206.357z"/>
		<g>
			<path fill="#212120" d="M156.696,206.551l0.473,0.789l0.229,0.568l0.008,1.147l-0.303,0.133
				c-0.148-0.313-1.608-0.904-1.608-0.904c-0.608-0.224-0.704,0.023-0.704,0.023c0.006,0.504-0.559,0.396-0.559,0.396
				c-0.456-0.213-0.625-0.92-0.625-0.92c-0.136-0.372,0.097-0.715,0.097-0.715l0.127-0.056l0.237-0.018
				c0.415,0.071,1.273-0.146,1.273-0.146l0.64-0.259l0.313-0.335L156.696,206.551z"/>
			<path fill="#565146" d="M156.685,206.637l0.473,0.792l0.23,0.566l0.007,1.147l-0.302,0.137c-0.149-0.316-1.611-0.905-1.611-0.905
				c-0.606-0.223-0.703,0.021-0.703,0.021c0.007,0.503-0.56,0.397-0.56,0.397c-0.455-0.212-0.623-0.919-0.623-0.919
				c-0.138-0.374,0.095-0.712,0.095-0.712l0.128-0.06l0.237-0.019c0.415,0.074,1.275-0.145,1.275-0.145l0.639-0.261l0.312-0.33
				L156.685,206.637z"/>
			<path fill="#212120" d="M156.624,206.803c0.001-0.062,0.046-0.112,0.107-0.114l0,0c0.06-0.002,0.105,0.045,0.107,0.108
				l0.041,2.041c0.002,0.062-0.046,0.112-0.104,0.115l0,0c-0.06,0-0.108-0.045-0.109-0.108L156.624,206.803z"/>
			<path fill="#212120" d="M156.991,206.798c0.033-0.053,0.1-0.063,0.149-0.026l0,0c0.049,0.034,0.06,0.102,0.023,0.153
				l-1.149,1.669c-0.036,0.052-0.104,0.062-0.15,0.027l0,0c-0.048-0.037-0.058-0.105-0.025-0.155L156.991,206.798z"/>
			<path fill="#2D2E2D" d="M164.979,210.732c-0.36-0.01-1.036-0.201-1.036-0.201c-0.358-0.122-0.337,0.181-0.337,0.181l0.117,1.084
				c0.05,0.184-0.117,0.347-0.117,0.347l-0.369-0.05l-0.088-0.013l-0.938-2.474l-0.286-0.495c0.953-0.267,2.177,0.072,2.177,0.072
				c0.873,0.342,1.363,1.354,1.363,1.354C165.561,210.709,164.979,210.731,164.979,210.732z"/>
			<path fill="#BCBCBC" d="M156.788,204.785c-1.466-1.068-1.5-1.655-1.5-1.655c-0.303-0.735-2.743-0.794-2.743-0.794l-0.309,0.371
				c0.189,0.021,0.275,0.347,0.275,0.347c0.062,0.242,0.464,1.218,0.464,1.218c0.994,0.987,1.847,1.236,1.847,1.236
				c1.205,0.497,1.342,0.67,1.342,0.67c0.327,0.568-0.226,1.203-0.226,1.203l0.747,0.34l1.027-0.638
				C158.52,206.171,156.788,204.785,156.788,204.785z"/>
			<path opacity="0.4" fill="#3A3A38" enable-background="new    " d="M156.756,205.344l1.063,1.666l-1.133,0.711l-0.11-0.052
				l0.699-0.61c0.444-0.292-0.888-1.699-0.888-1.699C156.631,205.185,156.758,205.344,156.756,205.344z"/>
			<path fill="#3A3A38" d="M156.753,205.287c-0.505,0.141-0.952,0.029-0.952,0.029c-0.194-0.036-0.765-0.407-0.765-0.407
				c-1.089-0.668-0.879-1.803-0.879-1.803c0.092-0.327,0.713-0.267,0.713-0.267c0.229,0.01,0.361,0.188,0.361,0.188
				c0.098,0.165,0.109,0.25,0.109,0.25c0.201,0.541,0.897,1.026,0.897,1.026c0.542,0.358,0.797,0.644,0.797,0.644
				C157.214,205.104,156.75,205.284,156.753,205.287z"/>
			<path fill="#665D4C" d="M156.804,205.294c-0.503,0.141-0.949,0.03-0.949,0.03c-0.191-0.037-0.766-0.408-0.766-0.408
				c-1.086-0.666-0.878-1.803-0.878-1.803c0.093-0.326,0.713-0.266,0.713-0.266c0.232,0.01,0.363,0.187,0.363,0.187
				c0.099,0.165,0.108,0.251,0.108,0.251c0.198,0.54,0.896,1.027,0.896,1.027c0.543,0.359,0.796,0.642,0.796,0.642
				C157.267,205.111,156.804,205.293,156.804,205.294z"/>
			<path fill="#191919" d="M155.757,208.476l-0.216-0.047l-0.179,0.252c0,0.359,0.518,0.815,0.518,0.815
				c1.062,0.725,5.229,2.595,5.229,2.595l0.139,0.018l0.272-0.023c-0.34-0.484-0.175-1.756-0.175-1.756L155.757,208.476z"/>
			<path fill="#B3B3B3" d="M158.596,208.019l-0.845-0.508l-0.04-0.484l-0.585-1.02l-0.46-0.573l-0.032-0.12
				c-0.008-0.213,0.284-1.13,0.678-1.175c0.019-0.006,0.041-0.006,0.065-0.006c0.437-0.025,1.429,0.164,1.778,0.177
				c0.019,0.001,0.063,0.019,0.09,0.021c0.427,0.045,1.48,0.38,1.48,0.38l0.916,0.451c0.27,0.11,0.308,0.705,0.308,0.705
				C161.903,206.201,158.594,208.019,158.596,208.019z"/>
			<path fill="#BCBCBC" d="M164.253,209.308l0.024-0.168c-5.989-2.881-6.272-2.019-6.272-2.019l-1.119,0.666l0.026,0.393
				c0.454,0.698,0.221,1.003,0.221,1.003l-0.523,0.282c-0.309-0.096-0.917-0.729-0.917-0.729l-0.423,0.027l1.073,0.758l0.167,0.108
				l2.822,1.572l0.089-0.188l0.069-0.076l0.259,0.033l0.277,0.156l0.37,0.133l0.168-0.043l-0.016-0.136l-0.184-0.129
				C162.562,209.237,164.253,209.308,164.253,209.308L164.253,209.308z"/>
			<path fill="#3E3D35" d="M164.804,207.548l-0.182,0.177l-1.215,0.252l-0.64,0.414l-0.637,0.064l-1.037-0.201l-1.139-0.767
				l-0.044-0.585l0.237-0.413l0.068-0.161l0.4-0.173l0.159,0.016l0.111,0.133l0.021-0.159l1.079-0.356l0.149,0.02l0.039,0.256
				l0.437-0.191l0.026-0.097l-0.187-0.153l-0.074-0.171c-0.05-0.171,0.293-0.2,0.293-0.2c0.208-0.023,0.213,0.029,0.213,0.029
				l0.144,0.194l0.079-0.239l0.011-0.076l0.365,0.113l-0.007,0.048l-0.072,0.532l-0.074,0.072l-0.325,0.71l0.537,0.138l0.565-0.335
				C164.193,206.385,164.804,207.547,164.804,207.548z"/>
			<path fill="#C3C4C2" d="M161.879,205.935c0.093-0.414-0.135-0.707-0.135-0.707c-1.209-0.883-3.6-1.037-3.6-1.037l-0.834-0.052
				c-0.301,0.004-0.065,0.303-0.065,0.303c2.856,2.221,3.074,1.84,3.074,1.84C161.886,206.098,161.88,205.936,161.879,205.935z"/>
			<path opacity="0.4" fill="#3A3A38" enable-background="new    " d="M164.253,209.308l0.011-0.077
				c-0.107-0.253-4.649-1.876-4.649-1.876l-0.177,0.21l1.176,0.685c0.265,0.32,2.288,0.992,2.288,0.992
				C163.466,209.399,164.253,209.308,164.253,209.308L164.253,209.308z"/>
			<path fill="#22201D" d="M161.033,206.833l-0.2-0.027l-0.711,0.208l-0.167,0.209l-0.054,0.219c0,0,0.49,0.431,0.549,0.464
				c0.062,0.035,0.568,0.334,0.568,0.334l0.522,0.188l0.508,0.068l0.575-0.041c0,0,0.033-0.244,0.037-0.276
				c0.006-0.035-0.075-0.229-0.075-0.229l-0.157-0.052L162.4,208.1l-0.141,0.131c0,0-0.219-0.02-0.266-0.034
				s-0.444-0.177-0.519-0.22c-0.075-0.046-0.434-0.295-0.509-0.338c-0.077-0.042-0.094-0.164-0.09-0.188
				c0.004-0.022-0.047-0.197-0.047-0.197L161.033,206.833L161.033,206.833z"/>
			<path fill="#CDCCCC" d="M160.822,205.07l1.877,1.491l0.877,0.723l1.378,0.712l0.164-0.137l-0.201-0.726
				c-0.537-1.701-1.758-2.5-1.758-2.5c1.34,0.7,2.158,2.748,2.158,2.748c0.25,0.588,0.018,1.542,0.018,1.542l-0.038-0.069
				l-0.059-0.042l-0.079,0.048l-0.261,0.316c-0.216,0.105-1.469,0.021-1.469,0.021c-0.767-0.104-2.388-0.852-2.388-0.852
				l-1.447-0.872l-0.082,0.074l-0.075,0.013l0.01-0.073l0.382-0.308l0.46-0.256l0.697-0.281l0.048,0.191l-0.924,0.283l-0.15,0.104
				l-0.002,0.262l1.133,0.732l0.964,0.193l0.317-0.09l0.113-0.053l0.016-0.115l-0.028-0.172l-0.248-0.476l-1.067-1.415l-0.069-0.019
				l-0.145,0.058l-0.049,0.109l-0.07-0.01l-0.069-0.084l-0.134-0.02l-0.233-0.362c0.18-0.493,0.049-0.814,0.049-0.814
				L160.822,205.07z"/>
			<path opacity="0.4" fill="#343A56" enable-background="new    " d="M160.505,204.881l2.693,2.194l0.521,0.374l0.715,0.196
				l0.264-0.038l0.13-0.236l0.043-0.319c0,0-0.363-0.728-0.385-0.738c-0.022-0.01-0.733-1.119-0.733-1.119l-0.87-0.846l-0.237-0.032
				l0.023,0.063c0.009,0.06-0.028,0.206-0.028,0.206c-1.046,0.527-2.13,0.264-2.13,0.264"/>
			<polyline fill="#444130" points="163.09,204.549 163.123,204.59 163.192,204.509 163.661,204.496 163.866,204.348 
				163.985,204.245 164.017,204.015 163.89,203.865 163.813,203.855 163.233,204.019 163.187,204.072 163.136,204.45 
				163.096,204.495 			"/>
			<path fill="#232321" d="M160.314,204.818l-0.008,0.056c0.547,0.299,0.911,0.735,0.911,0.735l2.041,1.932
				c0.823,0.694,1.88,0.931,1.88,0.931l0.087-0.104c0.057-0.837-0.018-1.115-0.018-1.115c-0.906-2.021-2.05-2.671-2.05-2.671
				l-0.156-0.212l-0.276-0.036l0.024,0.052l0.064,0.135c1.159,0.534,1.917,2.667,1.917,2.667c0.232,0.961-1.781-0.59-1.781-0.59
				c-0.659-0.671-2.477-1.894-2.477-1.894L160.314,204.818z"/>
			<path fill="#444130" d="M160.72,205.681l-0.749,0.185c-0.167,0.038-0.18-0.103-0.18-0.103l-0.011-0.217
				c0.006-0.041,0.13-0.106,0.13-0.106l0.562-0.299c0.098-0.01,0.292,0.039,0.292,0.039l0.091,0.284
				C160.904,205.62,160.72,205.68,160.72,205.681z"/>
			<path fill="#343438" d="M159.216,207.102l-0.021,0.033l-0.319,0.104l-0.123-0.408l0.196-0.083l0.034,0.056l1.188-0.387
				c0.249,0.121,0.124,0.389,0.124,0.389L159.216,207.102z"/>
			<path fill="#B0B0B0" d="M158.693,206.844c0.049-0.015,0.116,0.066,0.146,0.182c0.034,0.115,0.017,0.221-0.033,0.236
				c-0.05,0.014-0.116-0.067-0.147-0.183C158.628,206.965,158.642,206.858,158.693,206.844z"/>
			<path fill="#B0B0B0" d="M158.73,206.826c0.069-0.019,0.151,0.057,0.183,0.173c0.032,0.117,0.001,0.228-0.068,0.249
				c-0.071,0.021-0.152-0.057-0.184-0.174C158.63,206.96,158.659,206.847,158.73,206.826z"/>
			<path fill="#111111" d="M164.823,208.623c-0.079-0.091-0.263-0.153-0.263-0.153l-1.613-0.401l-0.011,0.083l0.261,0.342
				l0.263,0.068c0.275,0.739,0.848,0.261,0.848,0.261l0.563-0.015C164.882,208.727,164.823,208.623,164.823,208.623z"/>
			<path fill="#CAB749" d="M164.845,208.607c-0.079-0.095-0.265-0.157-0.265-0.157l-1.614-0.379l-0.008,0.062l0.261,0.343
				l0.263,0.066c0.273,0.739,0.846,0.262,0.846,0.262l0.547-0.011C164.885,208.713,164.845,208.605,164.845,208.607z"/>
			<path fill="#CDCCCC" d="M163.563,208.303c-0.046,0.077-0.04,0.178-0.04,0.178c-0.012,0.267,0.229,0.392,0.229,0.392
				c0.285,0.16,0.575-0.113,0.575-0.113l-0.019-0.037c-0.404,0.337-0.658,0.02-0.658,0.02c-0.168-0.221-0.061-0.441-0.061-0.441
				L163.563,208.303z"/>
			<path fill="#3A3B3B" d="M162.54,209.686l0.718,2.656l-0.292,0.126l-0.117-0.054l-0.811-2.535
				C162.125,209.752,162.54,209.685,162.54,209.686z"/>
			<path fill="#D1D2D2" d="M162.583,209.657l0.718,2.656l-0.291,0.123l-0.114-0.052l-0.812-2.532
				C162.171,209.723,162.584,209.657,162.583,209.657z"/>
			<polygon opacity="0.3" fill="#CFCFCE" enable-background="new    " points="163.725,207.133 163.633,207.816 163.8,207.92 
				163.87,207.227 			"/>
			<polygon fill="#DEDEDD" points="162.494,206.814 162.372,207.71 162.494,207.921 162.626,206.942 			"/>
			<path fill="#232321" d="M161.741,209.382c-0.455-0.123-2.026-1.029-2.026-1.029l0.159-0.15l-1.419-0.634
				c-0.351-0.175-0.453-0.447-0.453-0.447l-1.117,0.666l-0.01,0.395c0.156,0.097,0.312,0.672,0.312,0.672l2.861,2.056l0.415,0.056
				c0.833-0.807,2.325-1.345,2.325-1.345L161.741,209.382z"/>
			<path fill="#010101" d="M158.973,209.01l-1.307-0.877c0.015,0.073,1.227,1.025,1.227,1.025l0.823-0.804L158.973,209.01z"/>
			<path fill="#B3B3B3" d="M155.108,205.971"/>
			<path fill="#353635" d="M159.185,204.322c-0.003,0.058-0.066,0.102-0.132,0.128c-0.206,0.083-0.583,0.052-0.583,0.052
				c-0.588-0.076-0.393-0.279-0.393-0.279l0.139-0.069c0.393-0.092,0.847,0.077,0.847,0.077L159.185,204.322"/>
			<path fill="#353635" d="M158.003,205.234c0.174,0.243-0.205,0.921-0.205,0.921c0.266-0.51,0.301-0.819,0.301-0.819
				c0.05-0.313-0.919-0.901-0.919-0.901C157.947,205.021,158.002,205.235,158.003,205.234z"/>
			<path fill="#232321" d="M154.801,205.499c-0.394-0.125-1.663-0.993-1.75-1.13c-0.086-0.138-0.29-0.602-0.37-0.847
				c-0.08-0.244-0.228-0.513-0.228-0.513l-0.168-0.259c0,0,0.064,0,0.767,0.162c0.703,0.162,0.729,0.366,0.729,0.366
				s-0.023,0.072-0.085,0.064c-0.064-0.01-0.089,0.013-0.189,0.024c-0.1,0.013-0.086,0.216-0.086,0.216
				c0.334,0.748,0.993,1.013,0.993,1.013c0.819,0.369,0.408,0.908,0.408,0.908"/>
			<path fill="#111111" d="M156.751,208.77c0.143,0.021,0.268,0.172,0.248,0.306c-0.018,0.135-0.147,0.229-0.286,0.21
				c-0.139-0.02-0.233-0.143-0.216-0.276C156.516,208.875,156.609,208.752,156.751,208.77z"/>
			<path fill="#838383" d="M156.648,208.817c0.107,0.015,0.221,0.21,0.207,0.317c-0.016,0.104-0.064,0.151-0.171,0.136
				c-0.107-0.016-0.201-0.156-0.188-0.262C156.512,208.903,156.539,208.804,156.648,208.817z"/>
			<path fill="#111111" d="M156.642,208.963c0.035,0.005,0.074,0.074,0.069,0.107c-0.005,0.036-0.023,0.054-0.058,0.05
				c-0.039-0.005-0.068-0.055-0.064-0.092C156.594,208.994,156.606,208.957,156.642,208.963z"/>
			<path opacity="0.5" fill="#E5E5E5" enable-background="new    " d="M164.908,210.657l0.118,0.016
				c-0.149-0.083-0.356-0.374-0.356-0.374C164.678,210.472,164.909,210.656,164.908,210.657z"/>
			<path fill="#D1D2D1" d="M154.182,207.264c-0.812-0.331-0.541,0.615-0.541,0.615c0.227,0.864,0.673,0.847,0.673,0.847l1.248,0.393
				l-0.009,0.066l-1.292-0.361c-0.285-0.06-0.571-0.596-0.571-0.596c-0.362-0.814-0.033-1.105-0.033-1.105
				c0.333-0.133,1.264,0.399,1.264,0.399l-0.012,0.097L154.182,207.264z"/>
			<path opacity="0.5" fill="#FFFFFF" enable-background="new    " d="M159.303,204.342l-0.118-0.021
				c-0.007,0.021-0.014,0.039-0.023,0.056c-0.068,0.103-0.173,0.096-0.173,0.096c-0.173,0.162,0.058,1.269,0.058,1.269l0.438,0.266
				c-0.174-0.437-0.225-1.367-0.225-1.367C159.253,204.52,159.3,204.342,159.303,204.342z"/>
			<path fill="#A09F9F" d="M163.085,212.223c-0.007,0.06-0.06,0.101-0.115,0.092c-0.058-0.007-0.096-0.06-0.087-0.119
				c0.008-0.056,0.06-0.098,0.115-0.091C163.054,212.112,163.094,212.166,163.085,212.223z"/>
			<circle fill="#282828" cx="162.983" cy="212.211" r="0.051"/>
		</g>
		
	</g>
	<path fill="#353535" d="M155.254,202.843c0,0-0.566,0.066-0.714,0.804c-0.146,0.736,0.176,1.281,0.568,1.719
		c0.393,0.438,1.015,1.407,1.015,1.407l-1.015,0.36l-0.183,0.234v0.368l0.437,0.397h0.458l0.831,0.01l0.477-0.322l0.344-0.453
		l0.168-0.465l0.02-0.596l-0.658-1.278l-0.386-0.924L155.254,202.843z"/>
	<path fill="#474747" d="M159.064,206.307h0.651l-0.01,0.262l-0.723,0.235l-0.541,0.002
		C158.442,206.806,158.461,206.384,159.064,206.307z"/>
	<path fill="#545454" d="M158.221,200.881c0,0-1.822-0.529-2.951,1.87c0,0-0.235,1.204,1.117,1.883h0.47l1.359-0.48l0.574-1.402
		l0.501-0.415l0.125-0.32l-0.271,0.003l-0.455-0.346L158.221,200.881z"/>
	<polygon fill="#2D2D2D" points="158.163,200.719 157.818,200.834 157.926,201.28 158.163,201.914 158.75,202.184 159.146,202.019 	
		"/>
	<polygon fill="#7C7777" points="159.716,206.307 160.034,206.688 159.829,207.181 159.291,207.239 159.291,206.842 
		159.093,206.609 	"/>
	<path fill="#2D2D2D" d="M158.046,202.336c0,0-0.282-1.068-0.848-0.801c0,0-0.525-0.018-0.564,1.308c0,0-0.141,1.291,0.367,2.186
		l1.441,1.777l0.622-0.499l-1.139-1.673L158.046,202.336z"/>
	<path opacity="0.5" fill="#002E60" d="M159.723,201.962c0,0-0.72,0.482-1.093-1.157l0.402-0.501c0,0,0.559,0.96,1.401,0.602
		C160.434,200.905,160.12,201.65,159.723,201.962z"/>
	<path fill="#423F3F" d="M158.739,201.047c0,0,0-0.484,0.259-0.553c0,0,0.755,1.118,1.436,0.411c0.007-0.063,0.033-0.12,0.033-0.187
		c0-0.734-0.535-1.329-1.194-1.329c-0.593,0-1.062,0.487-1.157,1.115c0.075,0.446,0.312,1.109,1.03,1.514
		c0.043,0.006,0.082,0.029,0.127,0.029c0.05,0,0.094-0.026,0.144-0.032C159.176,201.893,158.866,201.807,158.739,201.047z"/>
	<path fill="#353535" d="M158.63,199.607c0,0-0.062,0.101,0.03,0.784c0,0-0.116,0.344,0.13,0.952v0.424c0,0-0.487-0.354-0.675-1.263
		C158.115,200.505,158.174,199.946,158.63,199.607z"/>
	<path fill="#777171" d="M157.818,200.834l0.051,0.206c0,0-0.487,0.006-0.671,0.126c0,0-1.276,0.523-1.713,1.677
		c0,0,0.002,0.604,0.46,1.013c0,0,0.508,0.46,0.731,0.367l0.165,0.402l-0.455,0.009c0,0-1.195-0.535-1.133-1.798
		C155.254,202.836,155.896,200.934,157.818,200.834z"/>

		<animateTransform  type="translate" fill="remove" values="0,0;5,0.1;0,0" restart="always" repeatCount="indefinite" dur="3" calcMode="linear" begin="0s" attributeType="XML" attributeName="transform" additive="replace" accumulate="none">
			</animateTransform>
</g>
<path id="smoke_2" fill="#666766" d="M31.886,105.301c0,0,0.379-0.619,0.9-0.173c0,0,0.555-0.347,0.737,0.129
	c0,0,0.18,0.449-0.379,0.66c0,0,0.415-0.011,0.426,0.217c0,0,0.097,0.344-0.351,0.422c0,0,0.071,0.431-0.452,0.474
	c0,0-0.493,0.049-0.619-0.444c0,0-0.473,0.285-0.649,0.018c0,0-0.433-0.317-0.022-0.809c0,0-0.382-0.218-0.201-0.475
	C31.275,105.316,31.676,104.853,31.886,105.301z">
<animateTransform  type="translate" fill="remove" values="0,0;-6,-5" restart="always" repeatCount="indefinite" dur="1" calcMode="linear" begin="0s" attributeType="XML" attributeName="transform" additive="replace" accumulate="none">
		</animateTransform>
	
		<animate  fill="remove" to="0" from="1" restart="always" repeatCount="indefinite" dur="1" calcMode="linear" begin="0.5s" attributeName="opacity" additive="replace" accumulate="none">
		</animate>
</path>
<path id="smoke_1" fill="#999999" d="M32.642,106.07c0,0,0.232-0.379,0.551-0.107c0,0,0.341-0.211,0.452,0.081
	c0,0,0.111,0.274-0.23,0.405c0,0,0.255-0.008,0.261,0.131c0,0,0.06,0.211-0.216,0.259c0,0,0.043,0.265-0.277,0.291
	c0,0-0.304,0.03-0.381-0.274c0,0-0.291,0.175-0.397,0.012c0,0-0.266-0.193-0.013-0.495c0,0-0.234-0.133-0.124-0.29
	C32.267,106.08,32.515,105.796,32.642,106.07z">
<animateTransform  type="translate" fill="remove" values="0,0;-4,-5" restart="always" repeatCount="indefinite" dur="0.5" calcMode="linear" begin="0s" attributeType="XML" attributeName="transform" additive="replace" accumulate="none">
		</animateTransform>
	
		<animate  fill="remove" to="0" from="1" restart="always" repeatCount="indefinite" dur="1" calcMode="linear" begin="0.5s" attributeName="opacity" additive="replace" accumulate="none">
		</animate>
</path>
<g id="Truck">
	<g id="Tire_Mid_Back_2">
		<path fill="#141318" d="M49.023,116.516c1.029,0.178,2.164,1.295,2.539,2.488c0.375,1.193-0.152,2.018-1.174,1.832
			c-1.029-0.178-2.164-1.295-2.539-2.488C47.474,117.155,48.001,116.335,49.023,116.516z"/>
		<path fill="#121332" d="M48.82,116.684c1.014,0.18,2.137,1.29,2.505,2.475c0.368,1.192-0.152,2.012-1.166,1.833
			c-1.015-0.181-2.138-1.291-2.505-2.476C47.285,117.324,47.808,116.508,48.82,116.684z"/>
		<path fill="#141318" d="M48.515,116.838c1.029,0.178,2.164,1.296,2.539,2.488c0.375,1.193-0.152,2.017-1.174,1.832
			c-1.029-0.178-2.164-1.295-2.539-2.488C46.966,117.478,47.497,116.66,48.515,116.838z"/>
		<path fill="#121332" d="M48.316,117.007c1.014,0.18,2.137,1.29,2.505,2.475c0.368,1.192-0.152,2.012-1.166,1.832
			c-1.015-0.18-2.138-1.291-2.505-2.475C46.78,117.654,47.3,116.829,48.316,117.007z"/>
		<path fill="#141318" d="M48.083,117.125c1.029,0.178,2.164,1.295,2.539,2.488c0.375,1.193-0.152,2.018-1.174,1.832
			c-1.022-0.184-2.164-1.295-2.539-2.488C46.535,117.764,47.063,116.945,48.083,117.125z"/>
		<path fill="#121332" d="M47.883,117.295c1.014,0.18,2.137,1.29,2.505,2.476c0.368,1.191-0.152,2.012-1.166,1.832
			c-1.015-0.181-2.138-1.291-2.505-2.476C46.347,117.933,46.868,117.116,47.883,117.295z"/>
		<path fill="#141318" d="M47.789,117.398c0.98,0.173,2.066,1.264,2.42,2.443c0.354,1.18-0.154,1.99-1.132,1.817
			c-0.98-0.173-2.066-1.264-2.421-2.443C46.3,118.036,46.81,117.228,47.789,117.398z"/>
		<path fill="#121332" d="M47.854,117.804c0.829,0.143,1.74,1.065,2.04,2.061c0.302,0.988-0.127,1.68-0.954,1.529
			c-0.829-0.143-1.74-1.064-2.04-2.061C46.6,118.346,47.028,117.654,47.854,117.804z"/>
		<path fill="#CDCCCC" d="M47.993,118.081c0.664,0.12,1.397,0.855,1.639,1.652c0.24,0.799-0.109,1.351-0.773,1.229
			c-0.664-0.119-1.396-0.854-1.639-1.651C46.988,118.514,47.33,117.969,47.993,118.081z"/>
		<path fill="#989898" d="M48.164,118.317c0.538,0.094,1.13,0.692,1.326,1.338c0.195,0.647-0.086,1.088-0.626,0.992
			c-0.538-0.096-1.13-0.691-1.326-1.339C47.341,118.67,47.626,118.22,48.164,118.317z"/>
		<path fill="#CDCCCC" d="M48.256,118.666c0.394,0.071,0.831,0.506,0.975,0.982c0.144,0.471-0.062,0.799-0.456,0.736
			c-0.394-0.072-0.831-0.507-0.975-0.982C47.658,118.921,47.862,118.593,48.256,118.666z"/>
		<g id="Tire_Mid_Back_2_Holes">
			<path fill="#010101" d="M48.4,119.204c0.124,0.024,0.257,0.158,0.304,0.309c0.045,0.15-0.021,0.248-0.146,0.23
				c-0.124-0.023-0.257-0.156-0.304-0.309C48.211,119.285,48.284,119.186,48.4,119.204z"/>
			<path fill="#010101" d="M48.453,118.826c0.069,0.011,0.139,0.084,0.169,0.168c0.022,0.083-0.009,0.137-0.079,0.126
				c-0.07-0.011-0.139-0.084-0.169-0.169C48.35,118.869,48.385,118.813,48.453,118.826z"/>
			<path fill="#010101" d="M47.979,118.873c0.069,0.011,0.139,0.084,0.168,0.168c0.03,0.083-0.009,0.137-0.079,0.126
				s-0.139-0.084-0.169-0.169C47.877,118.916,47.911,118.861,47.979,118.873z"/>
			<path fill="#010101" d="M47.993,119.392c0.069,0.011,0.139,0.084,0.169,0.168c0.03,0.083-0.009,0.137-0.079,0.126
				s-0.139-0.085-0.169-0.169C47.885,119.437,47.926,119.38,47.993,119.392z"/>
			<path fill="#010101" d="M48.451,119.849c0.069,0.012,0.139,0.084,0.169,0.169c0.03,0.083-0.009,0.137-0.079,0.126
				c-0.069-0.012-0.139-0.085-0.169-0.169C48.344,119.892,48.383,119.835,48.451,119.849z"/>
			<path fill="#010101" d="M48.953,119.835c0.07,0.012,0.139,0.085,0.169,0.17c0.03,0.082-0.009,0.137-0.079,0.125
				s-0.139-0.084-0.169-0.168C48.852,119.877,48.892,119.824,48.953,119.835z"/>
			<path fill="#010101" d="M48.94,119.326c0.069,0.011,0.139,0.084,0.168,0.169c0.03,0.082-0.009,0.137-0.079,0.125
				s-0.139-0.084-0.169-0.169C48.839,119.369,48.878,119.315,48.94,119.326z"/>
		</g>
		
			<animateTransform  type="translate" fill="remove" values="0,0;0.1,0.1;0,0" restart="always" repeatCount="indefinite" dur="1" calcMode="linear" begin="0s" attributeType="XML" attributeName="transform" additive="replace" accumulate="none">
			</animateTransform>
	</g>
	<g id="Tire_Back">
		<path fill="#141318" d="M44.639,113.943c1.029,0.178,2.164,1.296,2.539,2.488s-0.152,2.018-1.174,1.832
			c-1.029-0.178-2.164-1.296-2.539-2.488C43.083,114.583,43.611,113.759,44.639,113.943z"/>
		<path fill="#121332" d="M44.438,114.108c1.014,0.18,2.137,1.29,2.505,2.475c0.368,1.192-0.152,2.012-1.166,1.832
			c-1.015-0.18-2.138-1.29-2.505-2.475C42.903,114.753,43.424,113.928,44.438,114.108z"/>
		<path fill="#141318" d="M44.133,114.266c1.029,0.178,2.164,1.295,2.539,2.488c0.375,1.193-0.152,2.018-1.174,1.832
			c-1.029-0.178-2.164-1.295-2.539-2.488C42.584,114.907,43.104,114.087,44.133,114.266z"/>
		<path fill="#121332" d="M43.925,114.429c1.014,0.18,2.137,1.29,2.505,2.475c0.367,1.192-0.152,2.012-1.167,1.832
			c-1.014-0.18-2.137-1.29-2.505-2.475C42.396,115.076,42.916,114.25,43.925,114.429z"/>
		<path fill="#141318" d="M43.702,114.554c1.029,0.178,2.164,1.296,2.539,2.488s-0.152,2.018-1.174,1.832
			c-1.029-0.178-2.164-1.296-2.539-2.488C42.145,115.192,42.672,114.375,43.702,114.554z"/>
		<path fill="#121332" d="M43.492,114.717c1.014,0.18,2.137,1.29,2.505,2.475c0.367,1.192-0.152,2.012-1.167,1.832
			c-1.014-0.18-2.137-1.29-2.505-2.475C41.963,115.362,42.484,114.538,43.492,114.717z"/>
		<path fill="#141318" d="M43.399,114.822c0.981,0.173,2.066,1.264,2.421,2.443c0.354,1.179-0.154,1.989-1.133,1.817
			c-0.98-0.173-2.066-1.264-2.42-2.443C41.913,115.465,42.419,114.648,43.399,114.822z"/>
		<path fill="#121332" d="M43.463,115.226c0.829,0.143,1.74,1.065,2.04,2.061c0.302,0.988-0.127,1.68-0.955,1.53
			c-0.829-0.142-1.74-1.065-2.04-2.061C42.209,115.76,42.637,115.083,43.463,115.226z"/>
		<path fill="#CDCCCC" d="M43.609,115.511c0.664,0.12,1.397,0.855,1.639,1.652c0.24,0.798-0.109,1.35-0.772,1.23
			c-0.664-0.12-1.397-0.855-1.639-1.652C42.597,115.944,42.94,115.391,43.609,115.511z"/>
		<path fill="#989898" d="M43.774,115.739c0.538,0.094,1.131,0.692,1.326,1.339c0.195,0.647-0.086,1.087-0.626,0.992
			c-0.538-0.094-1.131-0.692-1.326-1.339C42.953,116.084,43.236,115.651,43.774,115.739z"/>
		<path fill="#CDCCCC" d="M43.867,116.096c0.394,0.071,0.831,0.506,0.975,0.982c0.145,0.471-0.062,0.799-0.456,0.735
			c-0.394-0.071-0.831-0.506-0.975-0.982C43.269,116.351,43.473,116.022,43.867,116.096z"/>
		<g id="Tire_Back_Holes">
			<path fill="#010101" d="M44.019,116.634c0.124,0.024,0.257,0.157,0.304,0.309c0.045,0.15-0.021,0.248-0.146,0.231
				c-0.124-0.024-0.257-0.158-0.304-0.31C43.827,116.712,43.893,116.607,44.019,116.634z"/>
			<path fill="#010101" d="M44.069,116.255c0.069,0.011,0.139,0.084,0.169,0.169c0.022,0.083-0.009,0.137-0.079,0.125
				s-0.139-0.084-0.169-0.169C43.968,116.296,44,116.242,44.069,116.255z"/>
			<path fill="#010101" d="M43.597,116.302c0.069,0.011,0.139,0.084,0.168,0.169c0.03,0.083-0.009,0.137-0.079,0.125
				s-0.139-0.084-0.169-0.169C43.493,116.345,43.527,116.291,43.597,116.302z"/>
			<path fill="#010101" d="M43.609,116.815c0.07,0.011,0.139,0.084,0.169,0.169c0.03,0.084-0.009,0.137-0.079,0.125
				s-0.139-0.084-0.169-0.169C43.508,116.859,43.54,116.802,43.609,116.815z"/>
			<path fill="#010101" d="M44.069,117.277c0.069,0.011,0.139,0.084,0.169,0.168c0.03,0.083-0.009,0.137-0.079,0.126
				s-0.139-0.084-0.169-0.169C43.966,117.32,44.001,117.266,44.069,117.277z"/>
			<path fill="#010101" d="M44.571,117.264c0.069,0.011,0.139,0.084,0.169,0.169c0.03,0.083-0.009,0.137-0.079,0.125
				s-0.139-0.084-0.169-0.169C44.468,117.307,44.502,117.252,44.571,117.264z"/>
			<path fill="#010101" d="M44.557,116.75c0.069,0.011,0.139,0.084,0.168,0.168c0.03,0.084-0.009,0.137-0.079,0.126
				s-0.139-0.084-0.169-0.169C44.455,116.793,44.487,116.744,44.557,116.75z"/>
		</g>
		
			<animateTransform  type="translate" fill="remove" values="0,0;0.1,0.1;0,0" restart="always" repeatCount="indefinite" dur="1" calcMode="linear" begin="0s" attributeType="XML" attributeName="transform" additive="replace" accumulate="none">
			</animateTransform>
	</g>
	<g id="Tire_Mid_Back">
		<path fill="#141318" d="M53.753,119.214c1.029,0.178,2.164,1.295,2.539,2.488s-0.152,2.018-1.174,1.832
			c-1.021-0.184-2.164-1.296-2.539-2.488C52.197,119.853,52.724,119.036,53.753,119.214z"/>
		<path fill="#121332" d="M53.551,119.376c1.015,0.18,2.138,1.291,2.505,2.475c0.368,1.186-0.152,2.013-1.166,1.832
			c-1.015-0.18-2.138-1.289-2.505-2.475C52.017,120.023,52.537,119.197,53.551,119.376z"/>
		<path fill="#141318" d="M53.245,119.537c1.029,0.178,2.164,1.295,2.539,2.488c0.375,1.191-0.152,2.018-1.174,1.831
			c-1.029-0.178-2.164-1.296-2.539-2.487C51.689,120.177,52.22,119.358,53.245,119.537z"/>
		<path fill="#121332" d="M53.039,119.699c1.014,0.181,2.137,1.291,2.505,2.476s-0.152,2.012-1.166,1.832
			c-1.015-0.181-2.138-1.29-2.505-2.476C51.511,120.344,52.03,119.521,53.039,119.699z"/>
		<path fill="#141318" d="M52.814,119.824c1.029,0.178,2.164,1.295,2.539,2.487s-0.152,2.018-1.173,1.832
			c-1.022-0.184-2.164-1.296-2.539-2.488S51.787,119.645,52.814,119.824z"/>
		<path fill="#121332" d="M52.606,119.988c1.014,0.18,2.137,1.29,2.505,2.475c0.368,1.186-0.152,2.013-1.166,1.832
			c-1.015-0.18-2.138-1.289-2.505-2.475C51.072,120.632,51.599,119.808,52.606,119.988z"/>
		<path fill="#141318" d="M52.512,120.091c0.98,0.172,2.066,1.264,2.42,2.443s-0.154,1.988-1.132,1.816
			c-0.98-0.172-2.066-1.264-2.421-2.443C51.025,120.736,51.533,119.918,52.512,120.091z"/>
		<path fill="#121332" d="M52.58,120.494c0.829,0.143,1.74,1.065,2.04,2.061c0.302,0.988-0.127,1.681-0.955,1.531
			c-0.829-0.143-1.74-1.065-2.04-2.061C51.321,121.031,51.751,120.353,52.58,120.494z"/>
		<path fill="#CDCCCC" d="M52.724,120.779c0.664,0.121,1.397,0.855,1.639,1.652c0.24,0.799-0.109,1.35-0.772,1.23
			c-0.664-0.121-1.397-0.855-1.639-1.652C51.711,121.214,52.055,120.662,52.724,120.779z"/>
		<path fill="#989898" d="M52.887,121.009c0.538,0.094,1.13,0.692,1.326,1.34c0.195,0.646-0.086,1.087-0.626,0.991
			c-0.538-0.095-1.13-0.692-1.326-1.339C52.073,121.361,52.349,120.919,52.887,121.009z"/>
		<path fill="#CDCCCC" d="M52.979,121.363c0.394,0.07,0.831,0.506,0.975,0.982c0.144,0.477-0.062,0.799-0.456,0.734
			c-0.394-0.063-0.831-0.506-0.975-0.982C52.381,121.621,52.585,121.291,52.979,121.363z"/>
		<g>
			<path fill="#010101" d="M53.131,121.902c0.124,0.025,0.257,0.158,0.304,0.311c0.045,0.149-0.021,0.247-0.146,0.23
				c-0.124-0.025-0.257-0.158-0.304-0.311C52.939,121.983,53.007,121.878,53.131,121.902z"/>
			<path fill="#010101" d="M53.184,121.523c0.069,0.012,0.139,0.085,0.168,0.17c0.022,0.082-0.009,0.137-0.079,0.125
				s-0.139-0.084-0.169-0.168C53.08,121.567,53.116,121.512,53.184,121.523z"/>
			<path fill="#010101" d="M52.711,121.57c0.069,0.012,0.139,0.085,0.168,0.17c0.023,0.082-0.009,0.137-0.079,0.125
				s-0.139-0.084-0.168-0.168C52.609,121.616,52.642,121.558,52.711,121.57z"/>
			<path fill="#010101" d="M52.726,122.084c0.069,0.011,0.139,0.084,0.168,0.169c0.022,0.082-0.009,0.137-0.079,0.125
				s-0.139-0.084-0.169-0.168C52.623,122.129,52.656,122.074,52.726,122.084z"/>
			<path fill="#010101" d="M53.182,122.547c0.069,0.011,0.139,0.085,0.168,0.169c0.022,0.082-0.009,0.137-0.079,0.125
				c-0.069-0.011-0.139-0.084-0.169-0.168C53.08,122.59,53.114,122.537,53.182,122.547z"/>
			<path fill="#010101" d="M53.684,122.535c0.069,0.011,0.139,0.084,0.168,0.168c0.022,0.083-0.009,0.137-0.079,0.126
				s-0.139-0.085-0.168-0.169C53.575,122.578,53.615,122.523,53.684,122.535z"/>
			<path fill="#010101" d="M53.671,122.027c0.069,0.011,0.139,0.084,0.169,0.168c0.022,0.082-0.01,0.137-0.079,0.125
				c-0.069-0.011-0.139-0.084-0.168-0.168C53.57,122.062,53.602,122.015,53.671,122.027z"/>
		</g>
		
			<animateTransform  type="translate" fill="remove" values="0,0;0.1,0.1;0,0" restart="always" repeatCount="indefinite" dur="1" calcMode="linear" begin="0s" attributeType="XML" attributeName="transform" additive="replace" accumulate="none">
			</animateTransform>
	</g>
	<path fill="#333333" d="M68.975,130.443l-0.547-0.426l-0.12-1.199l0.996-0.494l3.906,1.909l-4.069,1.928
		C68.671,131.91,68.975,130.443,68.975,130.443z"/>
	<g id="Tire_Mid">
		<path fill="#141318" d="M71.825,129.652c1.029,0.178,2.164,1.295,2.539,2.488c0.375,1.192-0.152,2.018-1.174,1.832
			c-1.029-0.179-2.164-1.296-2.539-2.488C70.276,130.291,70.797,129.476,71.825,129.652z"/>
		<path fill="#121332" d="M71.624,129.817c1.014,0.18,2.138,1.29,2.505,2.476c0.368,1.184-0.152,2.012-1.166,1.831
			c-1.015-0.18-2.138-1.29-2.505-2.476C70.086,130.462,70.609,129.638,71.624,129.817z"/>
		<path fill="#141318" d="M71.318,129.976c1.029,0.178,2.164,1.296,2.539,2.488s-0.152,2.018-1.173,1.832
			c-1.03-0.178-2.164-1.296-2.539-2.488C69.764,130.616,70.291,129.798,71.318,129.976z"/>
		<path fill="#121332" d="M71.116,130.141c1.015,0.181,2.138,1.29,2.505,2.476c0.367,1.191-0.152,2.012-1.167,1.832
			c-1.014-0.181-2.138-1.291-2.505-2.476C69.582,130.787,70.102,129.96,71.116,130.141z"/>
		<path fill="#141318" d="M70.887,130.263c1.029,0.178,2.164,1.295,2.539,2.488c0.375,1.192-0.152,2.018-1.174,1.832
			c-1.029-0.179-2.164-1.296-2.539-2.488C69.331,130.9,69.858,130.083,70.887,130.263z"/>
		<path fill="#121332" d="M70.685,130.426c1.015,0.18,2.138,1.29,2.505,2.476c0.368,1.191-0.152,2.012-1.166,1.831
			c-1.015-0.18-2.138-1.29-2.505-2.476C69.149,131.072,69.668,130.246,70.685,130.426z"/>
		<path fill="#141318" d="M70.585,130.531c0.98,0.173,2.066,1.264,2.42,2.443s-0.154,1.99-1.132,1.816
			c-0.981-0.172-2.066-1.264-2.421-2.442C69.097,131.176,69.604,130.359,70.585,130.531z"/>
		<path fill="#121332" d="M70.649,130.942c0.829,0.143,1.74,1.065,2.04,2.061c0.302,0.988-0.127,1.681-0.955,1.53
			c-0.829-0.15-1.74-1.072-2.04-2.061C69.395,131.476,69.822,130.792,70.649,130.942z"/>
		<path fill="#CDCCCC" d="M70.795,131.219c0.664,0.12,1.396,0.854,1.639,1.651c0.24,0.797-0.102,1.351-0.772,1.23
			c-0.664-0.12-1.397-0.855-1.639-1.652C69.783,131.652,70.126,131.101,70.795,131.219z"/>
		<path fill="#989898" d="M70.96,131.456c0.538,0.094,1.13,0.692,1.325,1.339c0.195,0.646-0.086,1.088-0.626,0.992
			c-0.538-0.094-1.131-0.692-1.326-1.34C70.145,131.8,70.42,131.362,70.96,131.456z"/>
		<path fill="#CDCCCC" d="M71.052,131.804c0.394,0.071,0.831,0.506,0.975,0.982c0.144,0.477-0.062,0.799-0.456,0.735
			c-0.394-0.071-0.831-0.507-0.975-0.983C70.454,132.059,70.658,131.731,71.052,131.804z"/>
		<g id="Tire_Mid_Hole">
			<path fill="#010101" d="M71.202,132.342c0.124,0.024,0.257,0.157,0.304,0.31c0.045,0.15-0.021,0.248-0.146,0.23
				c-0.124-0.024-0.257-0.157-0.304-0.309C71.02,132.423,71.078,132.318,71.202,132.342z"/>
			<path fill="#010101" d="M71.254,131.964c0.07,0.011,0.139,0.084,0.169,0.168c0.022,0.082-0.009,0.137-0.079,0.125
				c-0.069-0.011-0.139-0.084-0.169-0.168C71.153,132.007,71.185,131.951,71.254,131.964z"/>
			<path fill="#010101" d="M70.782,132.011c0.069,0.011,0.139,0.084,0.168,0.168c0.022,0.082-0.009,0.137-0.079,0.125
				c-0.069-0.011-0.139-0.084-0.169-0.168C70.679,132.054,70.715,132,70.782,132.011z"/>
			<path fill="#010101" d="M70.795,132.527c0.069,0.011,0.139,0.084,0.168,0.168c0.022,0.082-0.009,0.137-0.079,0.125
				c-0.069-0.011-0.139-0.084-0.169-0.168C70.694,132.57,70.728,132.513,70.795,132.527z"/>
			<path fill="#010101" d="M71.256,132.986c0.069,0.011,0.139,0.084,0.169,0.168c0.022,0.083-0.009,0.137-0.079,0.126
				s-0.139-0.085-0.169-0.169C71.153,133.031,71.187,132.974,71.256,132.986z"/>
			<path fill="#010101" d="M71.757,132.972c0.069,0.012,0.139,0.084,0.168,0.169c0.022,0.083-0.009,0.137-0.079,0.126
				c-0.069-0.012-0.139-0.084-0.169-0.169C71.654,133.015,71.686,132.96,71.757,132.972z"/>
			<path fill="#010101" d="M71.742,132.464c0.069,0.012,0.139,0.084,0.168,0.168c0.023,0.083-0.009,0.138-0.079,0.127
				c-0.069-0.012-0.139-0.085-0.168-0.17C71.641,132.503,71.673,132.453,71.742,132.464z"/>
		</g>
		
			<animateTransform  type="translate" fill="remove" values="0,0;0.1,0.1;0,0" restart="always" repeatCount="indefinite" dur="1" calcMode="linear" begin="0s" attributeType="XML" attributeName="transform" additive="replace" accumulate="none">
			</animateTransform>
	</g>
	<polygon fill="#333333" points="82.735,138.161 82.06,135.515 80.697,134.625 77.911,132.252 81.781,131.27 87.376,137.296 
		83.356,139.801 	"/>
	<path fill="#333333" d="M74.298,134.808l0.823-0.544l-0.077-2.841l-4.087-2.315c-1.206,0.169-1.751,0.823-1.751,0.823
		C72.895,128.847,74.298,134.808,74.298,134.808z"/>
	<path fill="#676867" d="M74.298,134.808c0.083-4.139-3.819-5.154-3.819-5.154c-2.154-0.422-1.708,2.375-1.708,2.375l0.368,0.135
		c-0.17-0.455-0.034-1.289-0.034-1.289c0.473-1.592,2.404-0.504,2.404-0.504c2.329,1.516,2.347,4.299,2.347,4.299L74.298,134.808z"
		/>
	<path fill="#BBB9BA" d="M82.589,139.361l-8.291-4.408c0.107-2.209-0.589-2.76-0.589-2.76l1.108-0.703l8.261,2.988
		C83.662,138.371,82.589,139.361,82.589,139.361z"/>
	<polygon fill="#989898" points="83.414,135.299 82.958,134.454 76.141,130.693 74.483,131.699 82.39,135.808 	"/>
	<polygon opacity="0.5" fill="#FFFFFF" enable-background="new    " points="82.238,136.601 73.868,132.087 73.707,132.193 
		82.09,136.653 	"/>
	<path fill="none" stroke="#676867" stroke-width="0.1" stroke-miterlimit="10" d="M81.933,137.203l0.032,1.166
		c0.026,0.227-0.15,0.279-0.15,0.279l-3.784-1.98c-0.18-0.049-0.17-0.229-0.17-0.229l-0.04-1.455
		c0.015-0.193,0.257-0.145,0.257-0.145l3.694,1.984C81.995,136.925,81.933,137.203,81.933,137.203z"/>
	<path fill="none" stroke="#676867" stroke-width="0.1" stroke-miterlimit="10" d="M77.641,134.958l0.032,1.166
		c0.026,0.227-0.15,0.279-0.15,0.279l-2.789-1.504c-0.18-0.049-0.17-0.229-0.17-0.229l-0.065-1.398
		c0.015-0.193,0.257-0.145,0.257-0.145l2.724,1.443C77.695,134.69,77.641,134.958,77.641,134.958z"/>
	<polygon fill="#CDCCCC" points="81.758,138.408 78.023,136.39 78.185,136.284 81.822,138.185 	"/>
	<polygon fill="#CDCCCC" points="77.499,136.263 74.667,134.75 74.83,134.641 77.56,136.041 	"/>
	<polygon fill="#CDCCCC" points="57.321,122.176 57.327,123.878 57.678,124.117 57.938,124.109 57.894,122.484 	"/>
	<path opacity="0.3" fill="#CDCCCC" enable-background="new    " d="M67.208,120.631c-1.268-2.747-0.84-5.713-0.84-5.713
		L67.208,120.631z"/>
	<g>
		<polygon fill="#333333" points="44.09,114.959 40.75,116.641 40.503,116.435 40.411,113.009 		"/>
		<polygon fill="#333333" points="39.229,112.465 39.239,112.835 36.533,114.391 36.216,114.117 36.125,110.686 39.02,112.327 		"/>
		<polygon fill="#333333" points="57.111,120.923 55.002,120.982 55.098,124.496 57.177,123.348 		"/>
		<g>
			<g>
				<g id="Container">
					<polygon fill="#E5E5E5" points="90.008,127.601 89.691,115.471 44.778,91.323 35.452,97.068 35.817,110.729 80.697,134.625 
											"/>
					<polygon opacity="0.7" fill="#BBB9BA" enable-background="new    " points="89.977,126.398 80.772,132.299 80.483,121.535 
						89.709,116.054 					"/>
					<polygon opacity="0.7" fill="#BBB9BA" enable-background="new    " points="80.378,121.422 80.639,132.22 35.928,108.252 
						35.641,97.475 					"/>
					<path opacity="0.3" fill="#989898" enable-background="new    " d="M86.041,118.955c-0.053,1.328,0.621,2.938,0.621,2.938
						L86.041,118.955z"/>
					<path opacity="0.3" fill="#CDCCCC" enable-background="new    " d="M86.101,118.933c0.605,1.352,0.615,2.93,0.615,2.93
						L86.101,118.933z"/>
					<path opacity="0.5" fill="#989898" enable-background="new    " d="M83.022,120.67c-0.868,1.239-0.746,2.987-0.746,2.987
						L83.022,120.67z"/>
					<path opacity="0.5" fill="#CDCCCC" enable-background="new    " d="M83.065,120.71c-0.069,1.479-0.774,2.893-0.774,2.893
						L83.065,120.71z"/>
					<path opacity="0.3" fill="#989898" enable-background="new    " d="M87.475,117.612c0.748,0.508,1.798,0.431,1.798,0.431
						L87.475,117.612z"/>
					<path opacity="0.3" fill="#CDCCCC" enable-background="new    " d="M87.481,117.543c0.891-0.099,1.792,0.441,1.792,0.441
						L87.481,117.543z"/>
					<path opacity="0.3" fill="#989898" enable-background="new    " d="M86.314,118.179c0.818,1.044,2.379,1.839,2.379,1.839
						L86.314,118.179z"/>
					<path opacity="0.3" fill="#CDCCCC" enable-background="new    " d="M86.348,118.123c1.335,0.637,2.365,1.842,2.365,1.842
						L86.348,118.123z"/>
					<path opacity="0.3" fill="#989898" enable-background="new    " d="M77.221,127.188c0.518-2.468-0.86-5.728-0.86-5.728
						L77.221,127.188z"/>
					<path opacity="0.3" fill="#CDCCCC" enable-background="new    " d="M77.041,127.205c-1.268-2.746-0.84-5.713-0.84-5.713
						L77.041,127.205z"/>
					<path opacity="0.3" fill="#989898" enable-background="new    " d="M73.973,127.747c0.281-1.565-0.362-3.508-0.362-3.508
						L73.973,127.747z"/>
					<path opacity="0.3" fill="#CDCCCC" enable-background="new    " d="M73.878,127.763c-0.593-1.625-0.347-3.502-0.347-3.502
						L73.878,127.763z"/>
					<path opacity="0.3" fill="#989898" enable-background="new    " d="M75.625,126.089c-0.084-2.105-1.419-5.004-1.419-5.004
						L75.625,126.089z"/>
					<path opacity="0.3" fill="#CDCCCC" enable-background="new    " d="M75.515,126.093c-1.192-2.447-1.397-4.992-1.397-4.992
						L75.515,126.093z"/>
					<path opacity="0.3" fill="#989898" enable-background="new    " d="M79.173,126.462c0.107-1.865-0.831-4.32-0.831-4.32
						L79.173,126.462z"/>
					<path opacity="0.3" fill="#CDCCCC" enable-background="new    " d="M79.083,126.478c-0.845-2.072-0.817-4.313-0.817-4.313
						L79.083,126.478z"/>
					<path opacity="0.3" fill="#989898" enable-background="new    " d="M67.394,120.622c0.518-2.467-0.861-5.728-0.861-5.728
						L67.394,120.622z"/>
					<path opacity="0.3" fill="#989898" enable-background="new    " d="M62.915,121.222c0.281-1.566-0.362-3.508-0.362-3.508
						L62.915,121.222z"/>
					<path opacity="0.3" fill="#CDCCCC" enable-background="new    " d="M62.828,121.244c-0.592-1.625-0.347-3.502-0.347-3.502
						L62.828,121.244z"/>
					<path opacity="0.3" fill="#989898" enable-background="new    " d="M64.568,119.564c-0.084-2.105-1.419-5.004-1.419-5.004
						L64.568,119.564z"/>
					<path opacity="0.3" fill="#CDCCCC" enable-background="new    " d="M64.465,119.566c-1.192-2.447-1.397-4.991-1.397-4.991
						L64.465,119.566z"/>
					<path opacity="0.3" fill="#989898" enable-background="new    " d="M56.853,114.631c0.518-2.468-0.86-5.729-0.86-5.729
						L56.853,114.631z"/>
					<path opacity="0.3" fill="#CDCCCC" enable-background="new    " d="M56.675,114.65c-1.268-2.747-0.84-5.713-0.84-5.713
						L56.675,114.65z"/>
					<path opacity="0.3" fill="#989898" enable-background="new    " d="M52.383,115.233c0.281-1.565-0.362-3.508-0.362-3.508
						L52.383,115.233z"/>
					<path opacity="0.3" fill="#CDCCCC" enable-background="new    " d="M52.294,115.255c-0.592-1.625-0.347-3.502-0.347-3.502
						L52.294,115.255z"/>
					<path opacity="0.3" fill="#989898" enable-background="new    " d="M54.037,113.574c-0.084-2.105-1.419-5.004-1.419-5.004
						L54.037,113.574z"/>
					<path opacity="0.3" fill="#CDCCCC" enable-background="new    " d="M53.926,113.578c-1.192-2.447-1.397-4.992-1.397-4.992
						L53.926,113.578z"/>
					<path opacity="0.3" fill="#989898" enable-background="new    " d="M45.076,108.888c0.518-2.468-0.86-5.729-0.86-5.729
						L45.076,108.888z"/>
					<path opacity="0.3" fill="#CDCCCC" enable-background="new    " d="M44.898,108.905c-1.268-2.747-0.84-5.713-0.84-5.713
						L44.898,108.905z"/>
					<path opacity="0.3" fill="#989898" enable-background="new    " d="M40.606,109.488c0.281-1.565-0.362-3.508-0.362-3.508
						L40.606,109.488z"/>
					<path opacity="0.3" fill="#CDCCCC" enable-background="new    " d="M40.516,109.511c-0.592-1.626-0.347-3.503-0.347-3.503
						L40.516,109.511z"/>
					<path opacity="0.3" fill="#989898" enable-background="new    " d="M42.258,107.829c-0.084-2.105-1.419-5.004-1.419-5.004
						L42.258,107.829z"/>
					<path opacity="0.3" fill="#CDCCCC" enable-background="new    " d="M42.147,107.831c-1.192-2.447-1.397-4.991-1.397-4.991
						L42.147,107.831z"/>
				</g>
				<polygon fill="#676867" points="79.949,132.389 72.192,128.257 72.188,128.077 79.945,132.24 				"/>
				<polygon fill="#676867" points="79.962,132.925 72.207,128.786 72.203,128.613 79.958,132.773 				"/>
				<polygon fill="#676867" points="79.977,133.455 72.222,129.32 72.216,129.142 79.973,133.31 				"/>
				<polygon fill="#676867" points="70.919,127.638 63.156,123.503 63.151,123.326 70.915,127.494 				"/>
				<polygon fill="#676867" points="70.934,128.174 63.171,124.041 63.166,123.862 70.93,128.023 				"/>
				<polygon fill="#676867" points="70.949,128.703 63.185,124.569 63.181,124.39 70.943,128.558 				"/>
				<polygon fill="#676867" points="62.063,122.957 54.305,118.814 54.301,118.644 62.06,122.804 				"/>
				<polygon fill="#676867" points="62.078,123.491 54.32,119.351 54.316,119.178 62.073,123.34 				"/>
				<polygon fill="#676867" points="62.091,124.019 54.334,119.884 54.329,119.707 62.088,123.869 				"/>
				<polygon fill="#676867" points="53.06,118.167 45.301,114.027 45.297,113.855 53.056,118.018 				"/>
				<polygon fill="#676867" points="53.075,118.704 45.316,114.56 45.312,114.391 53.069,118.554 				"/>
				<polygon fill="#676867" points="53.088,119.232 45.331,115.096 45.325,114.918 53.084,119.083 				"/>
				<polygon fill="#676867" points="44.048,113.399 36.293,109.267 36.288,109.087 44.044,113.255 				"/>
				<polygon fill="#676867" points="44.063,113.936 36.307,109.803 36.303,109.623 44.06,113.791 				"/>
				<polygon fill="#676867" points="44.077,114.464 36.321,110.332 36.316,110.152 44.073,114.32 				"/>
				<g>
					<polygon fill="#676867" points="77.088,130.486 77.313,130.612 77.309,130.455 77.084,130.329 					"/>
					<polygon fill="#676867" points="77.506,130.71 77.767,130.853 77.761,130.697 77.502,130.561 					"/>
					<polygon fill="#676867" points="76.051,129.939 76.308,130.076 76.304,129.919 76.047,129.773 					"/>
					<polygon fill="#676867" points="76.504,130.181 76.895,130.39 76.889,130.231 76.499,130.023 					"/>
					<polygon fill="#676867" points="77.959,130.953 78.316,131.15 78.312,130.991 77.956,130.801 					"/>
					<polygon fill="#676867" points="78.503,131.246 78.734,131.371 78.73,131.219 78.5,131.095 					"/>
					<polygon fill="#676867" points="79.182,131.462 78.918,131.319 78.923,131.468 79.188,131.607 					"/>
					<polygon fill="#676867" points="75.633,129.715 75.856,129.833 75.85,129.676 75.629,129.55 					"/>
					<polygon fill="#676867" points="73.242,128.441 73.506,128.585 73.503,128.413 73.238,128.27 					"/>
					<polygon fill="#676867" points="72.824,128.219 73.055,128.343 73.049,128.172 72.82,128.046 					"/>
					<polygon fill="#676867" points="79.375,131.71 79.829,131.955 79.825,131.81 79.372,131.56 					"/>
					<polygon fill="#676867" points="75.089,129.429 75.438,129.613 75.434,129.447 75.083,129.263 					"/>
					<polygon fill="#676867" points="72.068,127.64 72.072,127.818 72.637,128.121 72.631,127.942 					"/>
					<polygon fill="#676867" points="74.635,129.187 74.901,129.322 74.898,129.159 74.631,129.022 					"/>
					<polygon fill="#676867" points="73.696,128.683 74.028,128.861 74.024,128.694 73.69,128.511 					"/>
					<polygon fill="#676867" points="74.219,128.964 74.448,129.082 74.442,128.917 74.213,128.792 					"/>
				</g>
				<g>
					<polygon fill="#676867" points="68.163,125.775 68.394,125.892 68.39,125.735 68.159,125.617 					"/>
					<polygon fill="#676867" points="68.581,125.996 68.845,126.132 68.841,125.982 68.577,125.837 					"/>
					<polygon fill="#676867" points="67.124,125.219 67.388,125.362 67.385,125.197 67.12,125.06 					"/>
					<polygon fill="#676867" points="67.578,125.459 67.975,125.667 67.97,125.511 67.572,125.302 					"/>
					<polygon fill="#676867" points="69.033,126.24 69.389,126.427 69.385,126.275 69.029,126.082 					"/>
					<polygon fill="#676867" points="69.584,126.534 69.807,126.652 69.803,126.5 69.58,126.376 					"/>
					<polygon fill="#676867" points="70.255,126.742 69.999,126.605 70.004,126.755 70.261,126.892 					"/>
					<polygon fill="#676867" points="66.706,124.994 66.937,125.121 66.931,124.955 66.702,124.837 					"/>
					<polygon fill="#676867" points="64.323,123.726 64.58,123.864 64.576,123.693 64.319,123.554 					"/>
					<polygon fill="#676867" points="63.905,123.503 64.128,123.622 64.122,123.449 63.901,123.326 					"/>
					<polygon fill="#676867" points="70.456,126.997 70.91,127.233 70.906,127.089 70.452,126.845 					"/>
					<polygon fill="#676867" points="66.169,124.708 66.519,124.897 66.515,124.732 66.164,124.542 					"/>
					<polygon fill="#676867" points="63.142,122.928 63.145,123.099 63.711,123.398 63.706,123.228 					"/>
					<polygon fill="#676867" points="65.716,124.464 65.975,124.61 65.971,124.445 65.712,124.3 					"/>
					<polygon fill="#676867" points="64.776,123.968 65.103,124.145 65.099,123.972 64.771,123.798 					"/>
					<polygon fill="#676867" points="65.3,124.242 65.523,124.367 65.517,124.195 65.296,124.078 					"/>
				</g>
				<g>
					<polygon fill="#676867" points="59.311,121.015 59.536,121.141 59.53,120.982 59.305,120.858 					"/>
					<polygon fill="#676867" points="59.729,121.239 59.986,121.382 59.982,121.226 59.725,121.087 					"/>
					<polygon fill="#676867" points="58.274,120.466 58.531,120.603 58.525,120.445 58.269,120.303 					"/>
					<polygon fill="#676867" points="58.726,120.708 59.116,120.917 59.112,120.753 58.722,120.542 					"/>
					<polygon fill="#676867" points="60.183,121.48 60.537,121.671 60.533,121.52 60.177,121.331 					"/>
					<polygon fill="#676867" points="60.727,121.775 60.957,121.893 60.952,121.742 60.723,121.623 					"/>
					<polygon fill="#676867" points="61.405,121.983 61.141,121.846 61.145,121.996 61.409,122.132 					"/>
					<polygon fill="#676867" points="57.854,120.246 58.077,120.363 58.073,120.199 57.85,120.08 					"/>
					<polygon fill="#676867" points="55.465,118.97 55.729,119.107 55.724,118.942 55.459,118.797 					"/>
					<polygon fill="#676867" points="55.047,118.749 55.276,118.863 55.272,118.692 55.042,118.576 					"/>
					<polygon fill="#676867" points="61.597,122.24 62.05,122.48 62.046,122.33 61.591,122.087 					"/>
					<polygon fill="#676867" points="57.31,119.957 57.659,120.142 57.655,119.975 57.307,119.791 					"/>
					<polygon fill="#676867" points="54.288,118.169 54.293,118.347 54.858,118.642 54.854,118.469 					"/>
					<polygon fill="#676867" points="56.858,119.714 57.123,119.851 57.117,119.686 56.853,119.543 					"/>
					<polygon fill="#676867" points="55.917,119.21 56.253,119.386 56.247,119.215 55.914,119.039 					"/>
					<polygon fill="#676867" points="56.438,119.494 56.669,119.611 56.665,119.447 56.435,119.32 					"/>
				</g>
				<g>
					<polygon fill="#676867" points="50.301,116.283 50.53,116.407 50.526,116.25 50.298,116.125 					"/>
					<polygon fill="#676867" points="50.722,116.506 50.986,116.65 50.982,116.491 50.718,116.356 					"/>
					<polygon fill="#676867" points="49.263,115.734 49.527,115.873 49.523,115.715 49.259,115.569 					"/>
					<polygon fill="#676867" points="49.716,115.978 50.114,116.186 50.11,116.026 49.713,115.818 					"/>
					<polygon fill="#676867" points="51.173,116.748 51.53,116.938 51.526,116.786 51.169,116.596 					"/>
					<polygon fill="#676867" points="51.725,117.042 51.946,117.166 51.942,117.014 51.719,116.893 					"/>
					<polygon fill="#676867" points="52.396,117.258 52.137,117.114 52.141,117.266 52.399,117.402 					"/>
					<polygon fill="#676867" points="48.845,115.511 49.075,115.628 49.071,115.471 48.841,115.347 					"/>
					<polygon fill="#676867" points="46.463,114.235 46.72,114.38 46.715,114.208 46.458,114.065 					"/>
					<polygon fill="#676867" points="46.043,114.012 46.267,114.138 46.263,113.967 46.04,113.842 					"/>
					<polygon fill="#676867" points="52.595,117.507 53.048,117.75 53.044,117.605 52.591,117.355 					"/>
					<polygon fill="#676867" points="48.309,115.224 48.657,115.407 48.651,115.242 48.305,115.059 					"/>
					<polygon fill="#676867" points="45.286,113.437 45.29,113.615 45.85,113.917 45.845,113.737 					"/>
					<polygon fill="#676867" points="47.854,114.982 48.115,115.121 48.109,114.956 47.851,114.817 					"/>
					<polygon fill="#676867" points="46.915,114.479 47.243,114.654 47.238,114.491 46.912,114.307 					"/>
					<polygon fill="#676867" points="47.437,114.759 47.662,114.877 47.658,114.712 47.433,114.588 					"/>
				</g>
				<g>
					<polygon fill="#676867" points="41.296,111.414 41.519,111.532 41.515,111.38 41.292,111.256 					"/>
					<polygon fill="#676867" points="41.714,111.635 41.973,111.773 41.967,111.624 41.708,111.478 					"/>
					<polygon fill="#676867" points="40.257,110.857 40.514,111.001 40.51,110.836 40.253,110.699 					"/>
					<polygon fill="#676867" points="40.711,111.099 41.101,111.309 41.097,111.151 40.705,110.941 					"/>
					<polygon fill="#676867" points="42.166,111.878 42.522,112.068 42.519,111.916 42.162,111.719 					"/>
					<polygon fill="#676867" points="42.709,112.173 42.94,112.291 42.937,112.139 42.706,112.021 					"/>
					<polygon fill="#676867" points="43.39,112.381 43.126,112.242 43.129,112.394 43.394,112.533 					"/>
					<polygon fill="#676867" points="39.839,110.636 40.064,110.761 40.059,110.594 39.835,110.478 					"/>
					<polygon fill="#676867" points="37.448,109.366 37.713,109.503 37.709,109.333 37.445,109.195 					"/>
					<polygon fill="#676867" points="37.03,109.145 37.261,109.261 37.255,109.089 37.026,108.972 					"/>
					<polygon fill="#676867" points="43.582,112.638 44.035,112.878 44.031,112.726 43.578,112.486 					"/>
					<polygon fill="#676867" points="39.297,110.349 39.646,110.538 39.64,110.373 39.292,110.184 					"/>
					<polygon fill="#676867" points="36.274,108.565 36.278,108.738 36.843,109.038 36.837,108.867 					"/>
					<polygon fill="#676867" points="38.843,110.105 39.108,110.25 39.104,110.084 38.84,109.94 					"/>
					<polygon fill="#676867" points="37.902,109.608 38.238,109.786 38.232,109.614 37.898,109.436 					"/>
					<polygon fill="#676867" points="38.425,109.884 38.656,110.007 38.65,109.837 38.421,109.719 					"/>
				</g>
			</g>
			<polygon fill="#1E2C32" points="83.202,130.673 80.772,132.299 80.122,131.912 80.155,133.957 71.887,129.636 71.879,127.81 
				71.322,127.55 71.371,129.337 63.068,124.837 63.018,122.965 62.399,122.658 62.448,124.498 53.995,120.087 54.035,118.162 
				53.526,117.948 53.575,119.802 45.078,115.379 45.025,113.442 44.56,113.242 44.658,115.13 36.104,110.446 36.061,108.847 
				35.689,108.583 35.817,110.729 80.697,134.625 83.131,133.218 			"/>
		</g>
		<polygon fill="#333333" points="65.689,126.554 65.744,128.566 65.975,128.697 65.988,129.218 65.765,129.355 65.772,129.644 
			66.453,129.927 66.938,129.55 66.935,129.406 66.55,129.204 66.535,128.683 66.91,128.521 66.875,127.16 		"/>
		<polygon fill="#989898" points="57.894,122.484 57.938,124.109 57.678,124.117 57.59,122.396 		"/>
		<polygon fill="#CDCCCC" points="56.793,123.164 56.559,123.365 56.491,124.732 63.983,128.778 64.354,128.466 64.321,127.208 		
			"/>
		<polygon fill="#989898" points="64.358,128.617 63.983,128.778 63.948,127.39 64.321,127.208 		"/>
		<polygon fill="#FFFFFF" points="63.952,127.597 56.559,123.365 63.948,127.39 		"/>
		<polygon fill="#989898" points="63.948,127.39 63.638,127.4 63.588,125.525 63.903,125.71 		"/>
		
			<animateTransform  type="translate" fill="remove" values="0,0;-0.1,-0.2;0,0" restart="always" repeatCount="indefinite" dur="1" calcMode="linear" begin="0s" attributeType="XML" attributeName="transform" additive="replace" accumulate="none">
			</animateTransform>
	</g>
	<g id="Tire">
		<path fill="#141318" d="M85.812,137.364c1.029,0.179,2.164,1.296,2.539,2.487c0.375,1.193-0.152,2.018-1.174,1.832
			c-1.029-0.178-2.164-1.295-2.539-2.488C84.263,138.011,84.783,137.185,85.812,137.364z"/>
		<path fill="#121332" d="M85.609,137.535c1.015,0.18,2.138,1.289,2.505,2.475c0.367,1.192-0.152,2.012-1.167,1.832
			c-1.014-0.18-2.137-1.29-2.505-2.475C84.074,138.173,84.597,137.356,85.609,137.535z"/>
		<path fill="#141318" d="M85.304,137.688c1.029,0.179,2.164,1.296,2.539,2.488s-0.152,2.018-1.174,1.831
			c-1.029-0.178-2.164-1.295-2.539-2.487C83.755,138.335,84.278,137.507,85.304,137.688z"/>
		<path fill="#121332" d="M85.105,137.859c1.014,0.18,2.137,1.289,2.505,2.475c0.367,1.193-0.152,2.012-1.167,1.832
			c-1.014-0.18-2.137-1.29-2.505-2.475C83.57,138.503,84.089,137.679,85.105,137.859z"/>
		<path fill="#141318" d="M84.873,137.973c1.03,0.179,2.164,1.296,2.539,2.487c0.375,1.193-0.152,2.018-1.174,1.832
			c-1.029-0.178-2.164-1.295-2.539-2.488C83.324,138.613,83.845,137.794,84.873,137.973z"/>
		<path fill="#121332" d="M84.672,138.144c1.015,0.18,2.138,1.289,2.505,2.475c0.367,1.192-0.152,2.012-1.167,1.832
			c-1.014-0.18-2.137-1.29-2.505-2.475C83.137,138.791,83.658,137.965,84.672,138.144z"/>
		<path fill="#141318" d="M84.578,138.249c0.981,0.173,2.066,1.264,2.421,2.443c0.354,1.179-0.154,1.989-1.132,1.817
			c-0.981-0.174-2.066-1.264-2.421-2.443C83.084,138.888,83.592,138.076,84.578,138.249z"/>
		<path fill="#121332" d="M84.644,138.652c0.829,0.143,1.74,1.064,2.04,2.061c0.302,0.988-0.127,1.68-0.955,1.529
			c-0.829-0.142-1.74-1.064-2.04-2.061C83.39,139.194,83.817,138.511,84.644,138.652z"/>
		<path fill="#CDCCCC" d="M84.783,138.929c0.664,0.12,1.397,0.855,1.639,1.652c0.24,0.799-0.101,1.35-0.772,1.229
			c-0.664-0.12-1.397-0.854-1.639-1.651C83.77,139.371,84.119,138.819,84.783,138.929z"/>
		<path fill="#989898" d="M84.946,139.167c0.538,0.094,1.131,0.691,1.326,1.339c0.195,0.646-0.086,1.087-0.626,0.991
			c-0.538-0.094-1.13-0.691-1.325-1.338C84.13,139.52,84.408,139.072,84.946,139.167z"/>
		<path fill="#CDCCCC" d="M85.045,139.516c0.394,0.071,0.831,0.507,0.975,0.982c0.145,0.477-0.062,0.799-0.456,0.735
			c-0.394-0.071-0.831-0.506-0.975-0.982C84.439,139.779,84.644,139.449,85.045,139.516z"/>
		<g id="Tire_Hole">
			<path fill="#010101" d="M85.189,140.062c0.124,0.023,0.257,0.157,0.304,0.309c0.045,0.15-0.021,0.248-0.146,0.23
				c-0.124-0.023-0.257-0.156-0.304-0.309C85.006,140.14,85.066,140.038,85.189,140.062z"/>
			<path fill="#010101" d="M85.242,139.681c0.069,0.012,0.139,0.084,0.168,0.169c0.023,0.083-0.009,0.137-0.079,0.126
				c-0.069-0.012-0.139-0.085-0.168-0.17C85.139,139.724,85.173,139.669,85.242,139.681z"/>
			<path fill="#010101" d="M84.768,139.728c0.069,0.012,0.139,0.084,0.169,0.169c0.022,0.083-0.009,0.137-0.079,0.126
				c-0.069-0.012-0.139-0.085-0.169-0.17C84.667,139.773,84.7,139.716,84.768,139.728z"/>
			<path fill="#010101" d="M84.783,140.244c0.069,0.012,0.139,0.084,0.169,0.169c0.022,0.083-0.01,0.137-0.079,0.126
				c-0.069-0.012-0.139-0.085-0.168-0.17C84.68,140.287,84.715,140.232,84.783,140.244z"/>
			<path fill="#010101" d="M85.24,140.697c0.069,0.012,0.139,0.085,0.169,0.17c0.022,0.082-0.01,0.137-0.079,0.125
				s-0.139-0.084-0.168-0.168C85.139,140.742,85.173,140.686,85.24,140.697z"/>
			<path fill="#010101" d="M85.743,140.684c0.069,0.011,0.139,0.085,0.169,0.169c0.022,0.082-0.009,0.137-0.079,0.125
				c-0.069-0.011-0.139-0.084-0.168-0.168C85.642,140.728,85.673,140.673,85.743,140.684z"/>
			<path fill="#010101" d="M85.729,140.176c0.069,0.011,0.139,0.085,0.169,0.169c0.022,0.082-0.009,0.137-0.079,0.125
				c-0.07-0.011-0.139-0.084-0.169-0.168C85.628,140.221,85.66,140.166,85.729,140.176z"/>
		</g>
	</g>
	<g id="Body">
		<path fill="#CDCCCC" d="M91.668,143.398c-0.495,0.239-0.648,0.133-0.648,0.133l-3-1.41c0.088-1.052-0.33-2.033-0.33-2.033
			c-0.311-1.346-0.992-1.877-0.992-1.877l-1.999-1.045c-0.328-0.197-0.708-0.051-0.708-0.051c-0.424,0.334-0.653,1.274-0.653,1.274
			l0.019,1.399l-0.885-0.505l-0.105-3.893c-0.032-0.392,0.146-0.437,0.146-0.437l0.356-0.263l-0.304-6.979
			c-0.067-0.732,0.298-0.899,0.298-0.899l-0.056-2.128l1.487-0.932l-0.024-0.893l4.575-2.803l0.613,0.531l0.677-0.361l2.142,2.189
			l3.954,2.162c0.415,0.037,1.19,1.568,1.19,1.568l0.057,0.101l0.63,1.94l-0.009,0.117l0.808,3.481l0.112,4.208l-0.248,0.213
			l0.006,0.207c0.572,0.033,0.51,0.378,0.51,0.378l0.051,1.875L91.668,143.398z"/>
		<path fill="#394A54" d="M98.684,135.014l-0.695,0.396c-0.271,0.111-0.232,0.315-0.232,0.315l-0.203,0.899l-0.133,0.162
			l-4.008,2.463c-0.373,0.168-0.398,0.012-0.398,0.012l-0.206-0.461c-0.108-0.236-0.243-0.119-0.243-0.119l-0.561,0.359
			c-0.34,0.153-0.332-0.08-0.332-0.08l-0.034-1.283c0.019-0.537,0.326-0.647,0.326-0.647l6.528-4.001
			c0.26-0.096,0.313,0.096,0.313,0.096l0.043,1.6C98.854,134.941,98.684,135.014,98.684,135.014z"/>
		<path fill="#394A54" d="M98.029,139.306l-4.987,3.055c-0.255,0.227-0.377,0.01-0.377,0.01l-0.021-1.078
			c-0.063-0.342,0.18-0.486,0.18-0.486l4.956-2.935c0.202-0.157,0.263,0.062,0.263,0.062l0.033,1.257L98.029,139.306z"/>
		<path fill="#010101" d="M98.895,131.8l-7.842,4.723C90.32,136.612,90.055,136,90.055,136l-0.58-3.021
			c0.371,0.287,0.83,0.197,0.83,0.197l7.791-4.858L98.895,131.8z"/>
		<path fill="#1B555D" d="M98.891,131.692l-7.877,4.73c-0.733,0.089-0.895-0.579-0.895-0.579l-0.576-2.801
			c0.371,0.286,0.825-0.023,0.825-0.023l7.726-4.699L98.891,131.692z"/>
		<path fill="#010101" d="M98.528,134.353l-6.585,3.975l-0.002-0.088l-0.004-0.117c-0.025-0.186,0.131-0.243,0.131-0.243
			l6.323-3.831c0.169-0.119,0.192-0.006,0.192-0.006l0.006,0.207L98.528,134.353z"/>
		<path fill="#010101" d="M98.547,134.757l-0.102,0.084l-6.441,3.925l-0.104,0.002l-0.006-0.206l0.053-0.09l6.592-3.936
			C98.669,134.652,98.547,134.757,98.547,134.757z"/>
		<path fill="#010101" d="M97.34,136.123l-4.02,2.505l-0.158,0.004l-0.116,0.003l-0.002-0.082l-0.002-0.104l0.112-0.155l4.208-2.468
			l0.083-0.002l0.068-0.002C97.586,136.006,97.34,136.123,97.34,136.123z"/>
		<polygon fill="#010101" points="97.053,136.693 93.539,138.896 93.436,138.9 93.434,138.809 93.517,138.725 96.961,136.558 
			97.041,136.514 97.117,136.512 97.118,136.603 		"/>
		<polygon fill="#010101" points="97.829,138.175 97.831,138.287 97.78,138.386 93.033,141.232 92.963,141.234 92.91,141.097 
			92.957,141.027 97.695,138.125 		"/>
		<polygon fill="#010101" points="97.84,138.629 97.844,138.74 97.791,138.837 93.046,141.685 92.977,141.687 92.924,141.55 
			92.971,141.481 97.707,138.579 		"/>
		<polygon fill="#010101" points="97.838,139.076 97.84,139.194 97.789,139.284 93.042,142.137 92.973,142.139 92.922,142.004 
			92.967,141.933 97.707,139.033 		"/>
		<polygon fill="#FFFFFF" points="95.594,135.083 95.871,134.924 95.885,135.384 95.607,135.548 		"/>
		<polygon fill="#FFFFFF" points="95.243,135.31 95.521,135.153 95.534,135.615 95.256,135.772 		"/>
		<polygon fill="#FFFFFF" points="94.898,135.513 95.184,135.348 95.196,135.815 94.912,135.974 		"/>
		<polygon fill="#FFFFFF" points="94.527,135.73 94.811,135.572 94.823,136.033 94.54,136.192 		"/>
	</g>
	<polygon fill="#010101" points="85.885,130.878 85.96,133.671 89.532,135.438 88.957,132.445 	"/>
	<polygon fill="#193E45" points="85.97,130.923 86.043,133.634 89.532,135.404 88.964,132.408 	"/>
	<path fill="#171E1E" d="M90.867,132.75c-0.764,0.48-0.868,0.442-0.868,0.442l-0.656-0.141l-0.092-0.658l-0.006-0.206
		c0.538,0.088,0.878-0.059,0.878-0.059l7.74-4.74l0.103-0.002l0.245,0.717c0.04,0.205-0.103,0.23-0.103,0.23L90.867,132.75z"/>
	<path fill="#303D44" d="M89.065,132.159c0.505,0.358,1.05-0.028,1.05-0.028l7.74-4.74c0.027-0.479-0.439-1.225-0.439-1.225
		c0.051,0.081-0.062,0.25-0.062,0.25l-7.487,4.439c-0.424,0.375-0.772,0.179-0.772,0.179l-0.172,0.004L89.065,132.159z"/>
	<polygon fill="#303D44" points="89.242,132.292 83.138,129.076 83.129,128.718 89.142,131.924 	"/>
	<path opacity="0.5" fill="#669A9A" enable-background="new    " d="M91.563,136.098c-0.568,0.366-0.662,0.175-0.662,0.175
		l-0.238-0.965l0.158-0.004c0.521,0.021,2.299-1.173,2.299-1.173l0.42-0.218c0.83-0.043,1.333-0.248,1.333-0.248l3.913-2.393
		l0.064,0.363L91.563,136.098z"/>
	<path opacity="0.5" fill="#188598" enable-background="new    " d="M98.777,131.335l0.047,0.21l-3.334,2.185
		c0.326-1.137,0.02-1.897,0.02-1.897c-0.279-0.679-0.252-1.472-0.252-1.472l2.887-1.779L98.777,131.335z"/>
	<path opacity="0.5" fill="#188598" enable-background="new    " d="M91.385,136.192l-0.836-3.015l0.52-0.364
		c0.17-0.073,0.239-0.005,0.239-0.005l1.372,2.512L91.385,136.192z"/>
	<path opacity="0.5" fill="#188598" enable-background="new    " d="M91.265,136.271c-0.277,0.145-0.384,0.009-0.384,0.009
		l-0.715-2.894c0.176-0.361,0.253-0.007,0.253-0.007L91.265,136.271z"/>
	<path fill="#010101" d="M88.568,136.145c-0.275-0.026-0.251-0.399-0.251-0.399l0.191-0.094l0.036,0.297
		c0.193,0.027,0.617-0.314,0.617-0.314l0.178-0.005l0.002,0.088C88.938,136.094,88.568,136.145,88.568,136.145z"/>
	<path opacity="0.3" fill="#669A9A" enable-background="new    " d="M88.129,132.103l-0.116,0.003
		c0.026,0.22-0.461,0.198-0.461,0.198l0.056,2.108l0.463,0.139l0.613-1.472l-0.021-0.289l-0.158-0.203
		C88.096,132.337,88.129,132.103,88.129,132.103L88.129,132.103z"/>
	<path fill="#3C4759" d="M88.792,135.492l-0.838,0.518l-0.095-0.031l-0.062-2.301c0.131-0.244,0.885-0.607,0.885-0.607
		c0.09,0.053,0.137,0.174,0.137,0.174L88.792,135.492z"/>
	<path fill="#25343E" d="M88.881,135.525l-0.846,0.488l-0.088,0.002l-0.062-2.301c0.131-0.243,0.844-0.571,0.844-0.571
		c0.09,0.052,0.094,0.184,0.094,0.184L88.881,135.525z"/>
	<path fill="#010101" d="M88.377,132.858l-0.011,0.384l-0.122,0.046l-0.011-0.421c0.519-0.625,0.834-0.441,0.834-0.441l0.004,0.151
		C88.711,132.48,88.377,132.858,88.377,132.858z"/>
	<polygon fill="#FFFFFF" points="90.973,136.677 91.156,143.554 91.457,143.494 91.271,136.523 	"/>
	<path fill="#A2A1A2" d="M91.752,140.853c-0.574,0.379-0.799,0.206-0.799,0.206l-2.261-1.087c-0.858-3.088-2.893-3.633-2.893-3.633
		c2.333,0.694,3.049,3.511,3.049,3.511l1.672,0.86c0.486,0.227,0.865-0.022,0.865-0.022l7.376-4.462l0.058,0.328L91.752,140.853z"/>
	<path fill="#FFFFFF" d="M96.461,124.72l0.258,0.22c1.008,1.669,0.497,1.429,0.497,1.429c0.083-0.208-0.51-1.135-0.51-1.135
		l-7.708,4.563l-0.577,0.015c0.465,0.173,0.776,0.756,0.776,0.756c0.308,0.452,0.511,0.378,0.511,0.378l-0.203,0.111l-0.297,0.008
		l-0.282-0.034c-0.143-0.669-0.772-1.14-0.772-1.14l-4.862-2.729c-0.607-0.326-0.634,0.174-0.634,0.174
		c-0.06-0.389,0.214-0.506,0.214-0.506c0.982-0.047,6.1,1.74,6.1,1.74l5.833-3.57l-0.006-0.227l-0.133,0.12l-5.738-4.677
		l4.892,3.833l-1.646-1.675L96.461,124.72z"/>
	<polygon fill="#FFFFFF" points="82.75,124.84 83.358,124.48 88.533,128.122 	"/>
	<polygon fill="#C2BFBF" points="84.305,123.905 84.276,122.875 88.608,128.121 	"/>
	<path fill="#989898" d="M88.964,128.562c-5.107-2.178-5.333-2.109-5.333-2.109c0.302-0.316,3.523,1.225,3.523,1.225l1.806,0.728
		l5.831-3.64l0.006,0.227L88.964,128.562z"/>
	<polygon opacity="0.5" fill="#676867" enable-background="new    " points="89.667,137.955 83.285,134.554 83.27,133.949 
		89.65,137.304 	"/>
	<polygon opacity="0.5" fill="#FFFFFF" enable-background="new    " points="89.669,138.052 83.289,134.65 83.285,134.554 
		89.667,137.955 	"/>
	<polygon fill="#333333" points="86.009,135.498 86.019,135.806 86.748,136.194 86.74,135.884 	"/>
	<path fill="#676867" d="M83.26,133.606l1.603,0.905l0.193-0.005l-0.086-3.212l-0.141-0.105l-1.38-0.779l-0.207,0.006L83.26,133.606
		z M83.365,133.46l-0.013-2.789l0.178-0.006l1.208,0.684l0.118,0.092l0.075,2.799l-0.165,0.004L83.365,133.46z"/>
	<path fill="#676867" d="M83.538,133.235l1.082,0.609l0.131-0.004l-0.058-2.163l-0.09-0.074l-0.928-0.524l-0.139,0.004
		L83.538,133.235z M83.611,133.137l-0.009-1.882l0.124-0.004l0.81,0.459l0.084,0.067l0.051,1.888l-0.109,0.004L83.611,133.137z"/>
	<path fill="#FFFFFF" d="M91.104,141.607l0.004,0.131l-2.933-1.494c-0.681-2.317-1.461-2.709-1.461-2.709l-4.342-2.357l0.052-0.105
		l4.481,2.382c0.827,0.609,1.412,2.729,1.412,2.729L91.104,141.607L91.104,141.607z"/>
	<path opacity="0.48" fill="#676867" enable-background="new    " d="M0.202,187.566l0.034,0.852l0.742-0.42v-0.805L0.202,187.566z
		 M0.241,187.594l0.681-0.322v0.707l-0.652,0.371L0.241,187.594z"/>
	<path opacity="0.48" fill="#676867" enable-background="new    " d="M0.241,188.541v0.494l0.681-0.355v-0.502L0.241,188.541z
		 M0.297,188.561l0.557-0.297v0.414l-0.557,0.287V188.561z"/>
	<polygon fill="#989898" points="82.434,139.248 82.156,139.111 82.09,136.653 82.383,136.542 	"/>
	
		<animateTransform  type="translate" fill="remove" values="0,0;1,-0.3;0,0" restart="always" repeatCount="indefinite" dur="2" calcMode="linear" begin="0s" attributeType="XML" attributeName="transform" additive="replace" accumulate="none">
		</animateTransform>
</g>
</svg>
