<?xml version="1.0" encoding="utf-8"?>
<!-- Generator: Adobe Illustrator 19.2.1, SVG Export Plug-In . SVG Version: 6.00 Build 0)  -->
<svg version="1.1" id="Layer_1" xmlns="http://www.w3.org/2000/svg" xmlns:xlink="http://www.w3.org/1999/xlink" x="0px" y="0px"
	 viewBox="0 0 1000 1000" style="enable-background:new 0 0 1000 1000;" xml:space="preserve">
<style type="text/css">
	.st0{fill:#CCCCCC;}
	.st1{fill:#12215A;}
	.st2{fill:#E8E8E8;}
	.st3{fill:#454545;}
	.st4{fill:#333333;}
	.st5{fill:#666766;}
	.st6{fill:#E3E3E3;}
	.st7{opacity:0.5;fill:#FFFFFF;enable-background:new    ;}
	.st8{opacity:0.28;fill:#666766;}
</style>
<g>
<polygon class="st0" points="370.4,479.9 373.7,477.4 373.7,481.6 370.4,484.4 "/>
<polygon class="st0" points="377.2,475.5 380.6,473 380.6,477.2 377.2,479.9 "/>
<polygon class="st0" points="384.3,472 387.6,469.5 387.6,473.7 384.3,476.4 "/>
<polygon class="st0" points="390.4,468.1 393.8,465.5 393.8,469.8 390.4,472.5 "/>
<polygon class="st0" points="397.3,463.6 400.7,461.1 400.7,465.3 397.3,468 "/>
<polygon class="st0" points="404.4,460.1 407.7,457.6 407.7,461.8 404.4,464.5 "/>
<polygon class="st0" points="412.1,455.7 415.4,453.2 415.4,457.4 412.1,460.1 "/>
<polygon class="st0" points="419,451.2 422.3,448.7 422.3,452.9 419,455.6 "/>
<polygon class="st0" points="426,447.8 429.4,445.3 429.4,449.5 426,452.2 "/>
<polygon class="st0" points="432.1,445.1 435.5,442.6 435.5,446.8 432.1,449.5 "/>
<polygon class="st0" points="439,440.6 442.4,438.1 442.4,442.3 439,445 "/>
<polygon class="st0" points="446.1,437.2 449.4,434.6 449.4,438.9 446.1,441.6 "/>
<polygon class="st0" points="359.5,442.2 377.5,550.2 381.5,552.4 384,546.7 366.3,409 359.5,412.6 364,437.7 "/>
<polygon class="st0" points="547.1,352.4 908,208.6 908.6,214.6 549.8,357.4 "/>
<polygon class="st0" points="562.2,446.1 923.1,302.3 923.7,308.3 564.9,451.1 "/>
<polygon class="st0" points="69.1,569.1 347.5,444.6 347.9,449.8 71.2,573.4 "/>
<polygon class="st0" points="80.8,650.2 359.1,525.7 359.6,530.9 82.9,654.5 "/>
<g>
	<g>
		<polygon class="st1" points="62.8,515.4 67.7,537.1 71.6,552.3 81,659.8 80.6,678.7 78.6,688.7 82.6,687.7 85.1,676.7 85.4,659.8 
			74.8,549.8 71.9,536 66.3,513.9 		"/>
		<polygon class="st1" points="67.3,513.7 72.2,535.4 76.1,550.6 85.5,658 85.2,677 83,687.7 87.9,686.5 89.6,675 90,658.1 
			79.4,548.1 76.5,534.3 70.8,512.2 		"/>
		<polygon class="st1" points="72.5,511.7 77.4,533.5 81.3,548.6 90.7,656.1 90.3,675 88.2,685.7 93.1,684.5 94.8,673 95.1,656.1 
			84.5,546.1 81.6,532.3 76,510.2 		"/>
		<polygon class="st1" points="77.1,510 82,531.7 85.9,546.9 95.3,654.4 94.9,673.3 93.6,683.8 97.6,682.8 99.4,671.3 99.7,654.4 
			89.1,544.4 86.2,530.6 80.6,508.5 		"/>
		<polygon class="st1" points="82.9,507.2 87.8,528.9 91.7,544 101.1,651.5 100.7,670.4 98.4,682 103,680.4 105.2,668.4 
			105.5,651.5 94.9,541.5 92,527.7 86.4,505.6 		"/>
		<polygon class="st1" points="87.5,505.4 92.4,527.1 96.3,542.3 105.7,649.8 105.3,668.7 103,680.4 107.2,679.4 109.8,666.7 
			110.1,649.8 99.5,539.8 96.6,526 91,503.9 		"/>
		<polygon class="st1" points="93.4,502.7 98.3,524.4 102.2,539.6 111.6,647 111.2,665.9 108.6,678.9 113.1,677.7 115.7,663.9 
			116,647 105.4,537.1 102.5,523.3 96.9,501.2 		"/>
		<polygon class="st1" points="97.9,501 102.8,522.7 106.7,537.8 116.1,645.3 115.8,664.2 113.1,677.7 118.2,675.7 120.2,662.2 
			120.6,645.3 110,535.3 107,521.6 101.4,499.5 		"/>
		<polygon class="st1" points="103.2,498.7 108.1,520.4 112,535.6 121.4,643.1 121,662 118.9,675.6 123.3,674.2 125.5,660 
			125.8,643.1 115.2,533.1 112.3,519.3 106.7,497.2 		"/>
		<polygon class="st1" points="107.7,497 112.6,518.7 116.5,533.9 125.9,641.3 125.6,660.3 124,673.6 127.9,672.5 130,658.3 
			130.4,641.4 119.8,531.4 116.8,517.6 111.2,495.5 		"/>
	</g>
	<g>
		<polygon class="st1" points="176.8,466.3 182.2,487.8 186.4,502.8 198.2,609.8 198.3,628.7 196.5,638.7 200.5,637.6 202.7,626.5 
			202.7,609.6 189.6,500.1 186.4,486.5 180.3,464.6 		"/>
		<polygon class="st1" points="181.3,464.4 186.7,485.9 191,500.9 202.8,607.9 202.8,626.8 200.9,637.6 205.8,636.2 207.3,624.6 
			207.2,607.7 194.1,498.3 190.9,484.6 184.8,462.7 		"/>
		<polygon class="st1" points="186.4,462.2 191.8,483.7 196.1,498.7 207.9,605.7 208,624.6 206,635.4 210.9,634.1 212.4,622.5 
			212.3,605.6 199.3,496.1 196,482.4 189.9,460.6 		"/>
		<polygon class="st1" points="191,460.3 196.3,481.8 200.6,496.8 212.4,603.8 212.5,622.7 211.5,633.3 215.4,632.2 216.9,620.6 
			216.8,603.7 203.8,494.2 200.6,480.6 194.4,458.7 		"/>
		<polygon class="st1" points="196.7,457.2 202.1,478.7 206.4,493.7 218.2,600.7 218.3,619.7 216.2,631.3 220.7,629.6 222.7,617.5 
			222.6,600.6 209.6,491.1 206.3,477.5 200.2,455.6 		"/>
		<polygon class="st1" points="201.3,455.3 206.7,476.8 210.9,491.8 222.7,598.8 222.8,617.8 220.7,629.6 224.9,628.4 227.2,615.6 
			227.2,598.7 214.1,489.2 210.9,475.6 204.7,453.7 		"/>
		<polygon class="st1" points="207.1,452.4 212.5,473.9 216.7,488.9 228.6,595.9 228.6,614.8 226.3,627.9 230.7,626.5 233,612.6 
			233,595.7 219.9,486.3 216.7,472.6 210.6,450.7 		"/>
		<polygon class="st1" points="211.6,450.5 217,472 221.3,487 233.1,594 233.1,612.9 230.7,626.5 235.8,624.3 237.6,610.7 
			237.5,593.8 224.4,484.4 221.2,470.7 215.1,448.8 		"/>
		<polygon class="st1" points="216.8,448.1 222.2,469.6 226.5,484.6 238.3,591.6 238.3,610.5 236.5,624.2 240.9,622.6 242.8,608.3 
			242.7,591.4 229.6,482 226.4,468.3 220.3,446.4 		"/>
		<polygon class="st1" points="221.3,446.2 226.7,467.7 231,482.7 242.8,589.7 242.8,608.6 241.6,622 245.5,620.7 247.3,606.4 
			247.2,589.5 234.2,480.1 230.9,466.4 224.8,444.5 		"/>
	</g>
	<g>
		<polygon class="st1" points="119.1,490.7 124.3,512.2 128.4,527.3 139.4,634.5 139.3,653.4 137.5,663.4 141.4,662.3 143.8,651.3 
			143.8,634.4 131.6,524.7 128.5,511 122.6,489.1 		"/>
		<polygon class="st1" points="123.6,488.8 128.8,510.4 133,525.5 144,632.6 143.9,651.6 141.9,662.3 146.7,661 148.3,649.4 
			148.4,632.6 136.2,522.9 133,509.2 127.1,487.2 		"/>
		<polygon class="st1" points="128.8,486.7 134,508.3 138.1,523.4 149.1,630.5 149,649.5 147,660.2 151.9,658.9 153.5,647.3 
			153.5,630.5 141.3,520.8 138.2,507.1 132.2,485.1 		"/>
		<polygon class="st1" points="133.3,484.9 138.5,506.5 142.6,521.5 153.6,628.7 153.5,647.6 152.4,658.2 156.4,657.1 158,645.5 
			158.1,628.6 145.8,519 142.7,505.3 136.8,483.3 		"/>
		<polygon class="st1" points="139.1,481.9 144.3,503.5 148.4,518.5 159.4,625.7 159.3,644.6 157.2,656.3 161.7,654.6 163.8,642.5 
			163.9,625.6 151.6,515.9 148.5,502.2 142.6,480.3 		"/>
		<polygon class="st1" points="143.6,480.1 148.8,501.6 153,516.7 164,623.9 163.9,642.8 161.7,654.6 165.9,653.5 168.3,640.7 
			168.4,623.8 156.2,514.1 153.1,500.4 147.1,478.5 		"/>
		<polygon class="st1" points="149.5,477.2 154.7,498.7 158.8,513.8 169.8,621 169.7,639.9 167.3,652.9 171.8,651.6 174.2,637.8 
			174.3,620.9 162,511.2 158.9,497.5 153,475.6 		"/>
		<polygon class="st1" points="154,475.3 159.2,496.9 163.4,512 174.4,619.1 174.3,638.1 171.8,651.6 176.9,649.5 178.7,635.9 
			178.8,619.1 166.6,509.4 163.5,495.7 157.5,473.7 		"/>
		<polygon class="st1" points="159.2,473 164.4,494.5 168.6,509.6 179.6,616.8 179.5,635.7 177.6,649.4 182,647.9 183.9,633.6 
			184,616.7 171.8,507 168.7,493.3 162.7,471.4 		"/>
		<polygon class="st1" points="163.8,471.1 169,492.7 173.1,507.8 184.1,614.9 184,633.9 182.6,647.3 186.5,646 188.5,631.7 
			188.5,614.9 176.3,505.2 173.2,491.5 167.3,469.6 		"/>
	</g>
	<g>
		<polygon class="st1" points="237.6,444.1 243.3,465.4 247.7,480.4 260.7,587.1 261,606 259.3,616.1 263.2,614.9 265.4,603.7 
			265.1,586.9 250.8,477.7 247.4,464.1 241.1,442.4 		"/>
		<polygon class="st1" points="242.1,442.1 247.8,463.5 252.2,478.4 265.2,585.1 265.5,604 263.7,614.9 268.5,613.4 269.9,601.8 
			269.6,584.9 255.3,475.7 251.9,462.1 245.6,440.4 		"/>
		<polygon class="st1" points="247.2,439.8 252.9,461.2 257.3,476.1 270.3,582.9 270.6,601.8 268.8,612.6 273.6,611.2 275,599.5 
			274.7,582.7 260.4,473.5 257,459.9 250.7,438.1 		"/>
		<polygon class="st1" points="251.7,437.9 257.4,459.2 261.8,474.2 274.8,580.9 275.1,599.8 274.2,610.4 278.1,609.2 279.5,597.5 
			279.2,580.7 264.9,471.5 261.5,457.9 255.2,436.2 		"/>
		<polygon class="st1" points="257.5,434.7 263.1,456 267.5,471 280.5,577.7 280.8,596.6 278.9,608.3 283.4,606.5 285.2,594.3 
			285,577.5 270.7,468.3 267.3,454.7 260.9,433 		"/>
		<polygon class="st1" points="262,432.7 267.6,454.1 272,469 285.1,575.7 285.3,594.6 283.4,606.5 287.6,605.3 289.7,592.4 
			289.5,575.5 275.2,466.3 271.8,452.7 265.4,431 		"/>
		<polygon class="st1" points="267.8,429.6 273.4,451 277.8,465.9 290.9,572.6 291.1,591.6 288.9,604.7 293.4,603.2 295.5,589.3 
			295.3,572.4 281,463.2 277.6,449.6 271.2,427.9 		"/>
		<polygon class="st1" points="272.3,427.6 277.9,449 282.3,463.9 295.4,570.7 295.6,589.6 293.4,603.2 298.5,600.9 300,587.3 
			299.8,570.5 285.5,461.3 282.1,447.7 275.7,425.9 		"/>
		<polygon class="st1" points="277.5,425.1 283.1,446.5 287.5,461.4 300.5,568.1 300.8,587.1 299.2,600.8 303.5,599.2 305.2,584.8 
			305,567.9 290.7,458.7 287.3,445.1 280.9,423.4 		"/>
		<polygon class="st1" points="282,423.1 287.6,444.5 292,459.4 305,566.2 305.3,585.1 304.2,598.5 308,597.1 309.7,582.8 
			309.5,566 295.2,456.8 291.8,443.2 285.4,421.4 		"/>
	</g>
	<g>
		<polygon class="st1" points="300.6,417.8 306.3,439.1 310.9,454 324.7,560.5 325.1,579.4 323.5,589.5 327.4,588.3 329.5,577.1 
			329.1,560.2 314,451.3 310.5,437.7 304,416.1 		"/>
		<polygon class="st1" points="305,415.8 310.8,437.1 315.4,451.9 329.2,558.5 329.6,577.4 327.9,588.2 332.7,586.7 334,575.1 
			333.6,558.2 318.5,449.2 315,435.7 308.5,414 		"/>
		<polygon class="st1" points="310.1,413.5 315.9,434.8 320.4,449.6 334.3,556.2 334.7,575.1 333,585.9 337.8,584.4 339.1,572.8 
			338.7,555.9 323.6,446.9 320.1,433.4 313.6,411.7 		"/>
		<polygon class="st1" points="314.6,411.4 320.4,432.7 324.9,447.6 338.8,554.1 339.2,573.1 338.4,583.6 342.3,582.4 343.6,570.7 
			343.2,553.9 328.1,444.9 324.6,431.3 318.1,409.7 		"/>
		<polygon class="st1" points="320.3,408.1 326.1,429.5 330.7,444.3 344.5,550.9 344.9,569.8 343,581.5 347.5,579.6 349.3,567.5 
			348.9,550.6 333.8,441.6 330.3,428.1 323.8,406.4 		"/>
		<polygon class="st1" points="324.8,406.1 330.6,427.4 335.1,442.3 349,548.8 349.4,567.7 347.5,579.6 351.7,578.3 353.8,565.4 
			353.4,548.6 338.3,439.6 334.8,426 328.3,404.4 		"/>
		<polygon class="st1" points="330.6,403 336.4,424.3 340.9,439.1 354.7,545.7 355.2,564.6 353.1,577.7 357.5,576.2 359.6,562.3 
			359.2,545.4 344.1,436.4 340.6,422.9 334.1,401.2 		"/>
		<polygon class="st1" points="335.1,400.9 340.9,422.3 345.4,437.1 359.2,543.7 359.7,562.6 357.5,576.2 362.6,573.9 364,560.2 
			363.7,543.4 348.6,434.4 345.1,420.9 338.5,399.2 		"/>
		<polygon class="st1" points="340.2,398.4 346,419.7 350.6,434.5 364.4,541.1 364.8,560 363.3,573.7 367.6,572 369.2,557.7 
			368.8,540.8 353.7,431.8 350.2,418.3 343.7,396.6 		"/>
		<polygon class="st1" points="344.7,396.3 350.5,417.6 355.1,432.5 368.9,539 369.3,558 368.3,571.4 372.1,569.9 373.7,555.6 
			373.3,538.8 358.2,429.8 354.7,416.2 348.2,394.6 		"/>
	</g>
</g>
<g id="body">
	<path class="st2" d="M421.5,587.9l14.3,5.5l13.2,17c0,0-16.8-4-13.2-11.3l-3.7-2.8c0,0-3.6,6,8.4,19l11,9.5v3
		c0,0,19.1,18.5,18.1,18.5c-1.1,0,30.4,33.5,30.4,33.5l0,3.5c0,0-3,1.5-17.8-9.5c0,0,17.2,26,59.7,25.5c0,0,17.5-2,20.5-3.5l4,6.5
		v-7c0,0,60.5-29.5,75.5-80.5l7-3.5l-5-11c0,0,0.5-15.5-1-26.5c0,0-6.5-35.2-36.5-52.1l-14-16.4h-3l-6.5-11l-4-2.5l-4-14.5
		c0,0-11.5-33.3-37.5-41.2c0,0-22.5-6.6-49,3.8C488.5,440,361,488.9,421.5,587.9z"/>
	<path class="st3" d="M391.3,468.9c0,0-1.3,7.4,0,9.1l17,18.9l4.3-1.5v-5.8L391.3,468.9z"/>
	<path class="st3" d="M374.7,428.2l56.3,79.2c0,0-16.5,49.5,0,58.5c0,0,28,18.5,75.5-13c0,0,44-38,34-69.5c0,0-9-26.5-40.5-22.5
		s-12.5,3-12.5,3l-10-2l-52-74.1C425.5,387.8,375.3,390.1,374.7,428.2z"/>
	<path class="st0" d="M464.5,523.9c0,0-13.8,5.3-10.2,18.7c0,0,2.8,11.3,19,8.3c0,0,14.6-5.3,11.6-18.6
		C485,532.2,478.7,516.2,464.5,523.9z"/>
	<g id="Layer_1_1_">
		<path class="st2" d="M370.7,435.1c0,0-1,15.3,3.8,18.8c0,0,6.5,8.3,16.7,6.3c0,0,18-2.3,24.1-7.3l1.9,2.5c0,0-20.5,13-35.9,6.8
			v5.2c0,0,19.4,2.5,39.4-8l2,2.8l2.8,0.3c0,0,30,37.8,33.2,45.2c0,0-19.2,11-31,4.8c0,0-0.7,3.7,1,5.2c0,0,23,1.7,32.7-7l1.8,2.8
			c0,0-15.5,10.2-30,7.3c0,0-1,2,2.2,3.8c0,0,19.2-0.2,29.8-8l11.7,15.5l10-7L475,509.6c0,0,19.2-11.3,21.7-28.2l-2-1
			c0,0-6.5,20.2-21.3,27l-2.3-3.2c0,0,21.3-17.5,21.7-28.5l-2.2-2.8l-1.5,1.5c0,0-7.3,21.8-20.5,26.2c0,0-26.4-39.5-34.9-44.5
			l-3-2.3v-2c0,0,12.7-7.7,14.8-15.5l-1.3-1.2c0,0-11.8,12.7-16.7,14.7l-2.3-3.3c0,0,15.2-11.8,16.2-21.3l-2-1.3
			c0,0-1.9,9.7-15.4,18.5l-1.9-0.7l-3-3.7l-3.2-0.3l-6.3,4.7l-1.3,3.8l3,0.8l1.3,2.2c0,0-11.5,7.8-21.8,6.3l1.7-2.7l-2.3-4l-2.5-0.8
			l-1.5,2.7l-2.3-0.5l1.7-2.5l0.7-3.3l-1.7-2h-6.7l-1,7.1l-1-1.2l0.5-10.2l-1.7-1.8L370.7,435.1z"/>
		
			<ellipse transform="matrix(0.7629 -0.6466 0.6466 0.7629 -155.8489 335.0505)" class="st0" cx="378.8" cy="380" rx="59.7" ry="39.2"/>
		<path class="st4" d="M326.3,383.3c0,0-0.9,6.4-5.3,8.4l-1.8-4.2c0,0-10-2.1-11.3,6.9c0,0,0.1,4,7.7,4l10.7,12.8h2.9l2.3,6
			c0,0,14.9,11.8,41.2-1.3c0,0,23-8.5,41.3-36.8c0,0,11.3-12,9.8-36.8l-2-5l-13.3-17h-2.8l-5.6-7.2
			C400.1,313.2,327.7,355.2,326.3,383.3z"/>
		
			<ellipse transform="matrix(0.7629 -0.6466 0.6466 0.7629 -131.5601 295.7666)" class="st5" cx="337.4" cy="327.2" rx="78.6" ry="43.3"/>
		
			<ellipse transform="matrix(0.7629 -0.6466 0.6466 0.7629 -128.4999 290.3731)" class="st0" cx="331.6" cy="320.4" rx="78.6" ry="43.3"/>
		
			<ellipse transform="matrix(0.7829 -0.6221 0.6221 0.7829 -123.3973 270.7876)" class="st2" cx="326.3" cy="312.2" rx="44.7" ry="28.2"/>
		<path class="st4" d="M314,314.5C314,314.5,309.7,323.6,314,314.5s8.3-11.3,14.6-13.6c6.3-2.3,5.7,4.4,5.7,4.4
			c-0.7,7.8-10.3,12.6-10.3,12.6C313.7,320.9,314,314.5,314,314.5"/>
		<path class="st0" d="M329.3,384.4c0,0,7.5,1,15-7.8c0,0,6,9-3.5,14C340.8,390.7,330.2,395.5,329.3,384.4z"/>
		<path class="st2" d="M319.5,397.9l3.7,3c0,0,13.7,6.8,42.7-9.2l3.3,5.3c0,0-20.8,14.9-42.9,8.9l2.9,3.5c0,0,21,4.8,42.3-10.3
			l3.5,5c0,0,5,0,6.3-3.2l-13.5-16.7C367.8,384.2,346.3,403.2,319.5,397.9z"/>
		<path class="st2" d="M371.8,382.9l12.8,16l4.3-4v-1.5l-2.8-4.3c0,0,22.5-17.5,29.3-44l-2.5-2.3c0,0-1.3,18.5-29,44.3l-5.5-6.8
			c0,0,26-15.5,31.3-44.3l-4-2.5C405.5,333.7,407.3,352.7,371.8,382.9z"/>
		<path class="st2" d="M393.5,329.4l4.8,4.3l5.8-4.3v-5.3c0,0-3-3.9-7.5,3.1L393.5,329.4z"/>
		<path class="st2" d="M410.6,323.1l-2.1,6.6l12,16.8c0,0,2.5-3.5,1.3-9l-2.9-3.8c0,0,0.7,2.5-0.1,4l-7.5-9.3c0,0,1.3-1.2,1.3-3.2
			L410.6,323.1z"/>
		<path class="st4" d="M369.3,429.6l0.7,14.7h1.8v-7.3l4.4,1.2v4.2h9.8l-11.3-14C374.7,428.2,370.8,430.1,369.3,429.6z"/>
		
			<image style="display:none;overflow:visible;enable-background:new    ;" width="502" height="282" xlink:href="../../References/Satellite-PNG-File.png"  transform="matrix(1.914 0 0 2.0216 19.586 157.229)">
		</image>
	</g>
	<g id="Layer_2">
		<circle class="st6" cx="321.1" cy="305.3" r="10.5"/>
		<circle class="st7" cx="315.7" cy="304.1" r="2.7"/>
	</g>
	<path class="st2" d="M396.8,466.2v8.1c0,0,3.2,2.4,4.8,2.4c0,0,6.4,14.5,21.4,6.3c0,0,12.8-10.8-1.5-19.3c0,0-10.1,0.8-19.9,5.3
		L396.8,466.2z"/>
	<path class="st2" d="M408.2,485.4c0,0,4,3.5,5.6,1.7v4.5l4.5-1l12.7,16.8v2h-5l-1,6h-3l-0.5-4.5l-9-14l0-4.8c0,0-7.4-2-4.3-5.3"/>
	<polygon class="st2" points="421.5,490.7 437.3,510.2 444.5,505.4 429.5,485.4 	"/>
	<polygon class="st2" points="455.8,468.9 455.8,471.7 470.3,489.2 476.3,484.2 463,465.7 460.5,465.7 	"/>
	<polygon class="st2" points="466,454.2 464.5,459.9 465.3,461.9 479.3,479.6 482.3,472.7 468,454.2 	"/>
	<polygon class="st2" points="470.3,451.7 470.3,446.2 468,446.2 470.3,444.2 471.8,442.3 478.8,445.7 476.3,447 486,459.9 
		488.8,459.9 490.5,462.2 479.3,462.3 	"/>
	<path class="st5" d="M358.5,452.3c0,0,6.3-4.9,13.3,0l9.5,7.6l-1,14.6C380.3,474.6,365.5,462.4,358.5,452.3z"/>
	<path class="st5" d="M444.5,422c0,0,4.8-25.9,20-15.1c0,0,9.5,10.8,0,25c0,0-6,12.8-16,6.3C448.5,438.2,441.9,430.4,444.5,422z"/>
	<path class="st2" d="M460.7,558.2c0,0,4.3-9.3,10.3-7l19.5,26v3l-8.3,2.7L460.7,558.2z"/>
	<polygon class="st2" points="477.7,553.6 476.3,548.6 480.7,542.6 485.3,542.6 505,566.9 496.7,576.2 	"/>
	<path class="st0" d="M444.5,520.9l-25.3,67.7c0,0,6.5,37-24.2,51c0,0-37,13-20.3-35.7c0,0,14-26.7,37.8-21l23.8-60.3L444.5,520.9z"
		/>
	<path class="st0" d="M465.6,449.9l13.1-41.5c0,0-11.7-17,14.6-32.7c0,0,32.3-17,24.3,12.5c0,0-8.9,17.5-31.9,21.3l-12.8,37.4
		L465.6,449.9z"/>
	<path class="st0" d="M405.7,517.6c0,0,11.2,15.4,24.6,20.4c0,0,6.1-14.7-3.6-20.4C426.7,517.6,416,510.6,405.7,517.6z"/>
	<path class="st0" d="M505,489.2c0,0-19-16.1-3-35c0,0,9.7-5.4,11,23.8v4.9l31.3,2.5l-4.3,22.1l-29.3-10.7
		C510.7,496.9,504.7,494.1,505,489.2z"/>
	<polygon class="st0" points="430.1,559.4 443.9,547.9 440.3,571.3 437,571.3 427.8,565.5 	"/>
	<path class="st0" d="M414.8,500.4c0,0-17.1,35.4-13.2,51l-8.1-6l-5-5l-2.5-0.5l-2.5,2.7l5,8.8l5,2l13.9,17.9l7.3,4.9"/>
	<path class="st4" d="M466,646.4l10.3,11.5c0,0,4.4,17.4,19.3,24.4C495.6,682.3,471.5,675.4,466,646.4z"/>
	<path class="st4" d="M495.6,686.5c0,0,26.9,12,53.9,2.5l3.5,3.7c0,0-25.5,5.2-48,0L495.6,686.5z"/>
	<path class="st4" d="M555.5,686.5c0,0,71-29,81.5-88l3.5,6c0,0-11,55-81.5,86.3L555.5,686.5z"/>
	<path class="st4" d="M640.5,591.9c0,0,1-19.8,0-26.9l2.8,11.2v19.7L640.5,591.9z"/>
	<path class="st4" d="M435.8,599.2c0,0,0.7,11.3,13.2,11.3l-11.2-14.5L435.8,599.2z"/>
	<path class="st4" d="M444.5,615.9c0,0,19,22,48.5,18v-8.8c0,0-30.5,0.3-37.3-7.2L444.5,615.9z"/>
	<path class="st4" d="M509,622.4c0,0,51-19.1,68-62.8l7.5,5.4c0,0-23.5,53.9-75.5,64.4v-4.3"/>
	<polygon class="st4" points="582.5,542.6 584.5,536.6 591,542.6 591,547.9 	"/>
	<path class="st4" d="M584.5,529.4l8.5,8.5c0,0,4.5-17-0.5-32.5l-9.5-11C583,494.4,589.5,512.4,584.5,529.4z"/>
	<path class="st4" d="M451.5,627.9c0,0,22.5,36.5,62.5,30.5C514,658.4,490.5,672.9,451.5,627.9z"/>
	<path class="st4" d="M531,652.9c0,0,45-8,72-63.5l2.5,5.1c0,0-21,44.9-74.5,62.9V652.9z"/>
	<rect x="610.5" y="561.4" class="st4" width="3.5" height="9.9"/>
	<path class="st4" d="M612.3,553.9c0,0,1.8-15.2-5.8-32.1c0,0,12.5,17.6,7.5,39.6L612.3,553.9z"/>
	<path class="st0" d="M479.3,589.4l3,6.5c0,0,22.8,18,26.8,33.5l5,8l45.5,57.5l7,0.5l-8,1.5l-14.2-14.6l-13.3,2.6l-35.4-46.5
		l-2.6-13.3l-7.6-9.2l10.2-2.5c0,0-3.1-6.5-16.3-15c0,0-5.3-5.9-3-17.9l3,2.4V589.4z"/>
	<polygon class="st0" points="624.5,615.9 586.8,565 577,559.6 568.3,550.9 576.5,536.6 582.5,542.6 596.4,551.4 630,595.9 
		632.5,603.2 	"/>
	<path class="st0" d="M546.8,505.4l2.8-5H562l6.3,5l2.3,4.8c0,0,11.2,22.4,24.4,32.1c0,0,12.1,9.3,15.6,19.2l38.5,50l3-1l-46.5-62.5
		c0,0-17-4.5-33-42.5c0,0,1.3-10-25.8-7.6V505.4z"/>
	<polygon class="st0" points="537.5,468.9 542,463.7 544.3,462.3 562,485.4 559,494.4 553,494.4 	"/>
	<polygon class="st0" points="537.5,453.8 542,457.9 544.3,457.9 555.5,468.9 553,463.7 542,450.1 	"/>
	<polygon class="st5" points="482.8,407.4 490.6,407.4 509,428.9 500,434.2 	"/>
	<polygon class="st5" points="495.9,410.1 500,413.4 514,434.2 520,431.4 505,410.1 500,407.4 	"/>
</g>
<path class="st8" d="M442.4,598.4c0,0,49.6,40.9,122.6-47.5c0,0,16-20.5,10-73.5l4,14.5c0,0,21.5,75.1-79,121.6c0,0-16.5,5-48.5-3.1
	L442.4,598.4z"/>
<polygon class="st0" points="537.5,364.4 555.5,472.4 559.5,474.6 562,468.9 544.3,331.2 537.5,334.7 542,359.9 "/>
<g>
	<g>
		<polygon class="st1" points="536,309.7 544.1,330.8 550.4,345.5 571.6,451.1 572.7,469.8 571,479.9 576,478.6 578.3,467.5 
			577.3,450.7 554.4,342.7 549.5,329.3 540.4,307.9 		"/>
		<polygon class="st1" points="541.7,307.6 549.8,328.7 556.1,343.4 577.3,449 578.5,467.7 576.6,478.5 582.8,477 584,465.4 
			583,448.6 560.1,340.6 555.2,327.2 546.1,305.8 		"/>
		<polygon class="st1" points="548.2,305.2 556.3,326.3 562.6,341 583.8,446.6 584.9,465.4 583.1,476.2 589.3,474.6 590.5,463 
			589.5,446.2 566.6,338.2 561.6,324.8 552.6,303.4 		"/>
		<polygon class="st1" points="553.9,303.1 562,324.2 568.3,338.9 589.5,444.5 590.7,463.3 589.9,473.8 595,472.5 596.2,460.9 
			595.2,444.1 572.3,336.1 567.4,322.7 558.3,301.3 		"/>
		<polygon class="st1" points="561.2,299.8 569.3,320.8 575.6,335.5 596.8,441.1 597.9,459.9 595.9,471.6 601.6,469.6 603.5,457.5 
			602.5,440.8 579.6,332.8 574.6,319.4 565.5,298 		"/>
		<polygon class="st1" points="566.9,297.7 575,318.8 581.3,333.4 602.5,439 603.6,457.8 601.6,469.6 607,468.3 609.2,455.4 
			608.2,438.7 585.3,330.7 580.3,317.3 571.3,295.9 		"/>
		<polygon class="st1" points="574.2,294.5 582.3,315.5 588.7,330.2 609.8,435.8 611,454.6 608.7,467.7 614.4,466.1 616.6,452.2 
			615.5,435.5 592.6,327.5 587.7,314.1 578.6,292.7 		"/>
		<polygon class="st1" points="579.9,292.4 588.1,313.4 594.4,328.1 615.6,433.7 616.7,452.5 614.4,466.1 620.8,463.7 622.3,450.1 
			621.3,433.4 598.3,325.4 593.4,312 584.3,290.6 		"/>
		<polygon class="st1" points="586.5,289.7 594.6,310.8 600.9,325.5 622.1,431.1 623.2,449.8 621.7,463.5 627.3,461.8 628.8,447.4 
			627.8,430.7 604.9,322.7 599.9,309.3 590.9,287.9 		"/>
		<polygon class="st1" points="592.2,287.6 600.3,308.7 606.6,323.4 627.8,429 629,447.7 628.1,461.1 633,459.6 634.5,445.4 
			633.5,428.6 610.6,320.6 605.7,307.2 596.6,285.8 		"/>
	</g>
	<g>
		<polygon class="st1" points="678.3,251.2 687.1,272 693.8,286.5 718.1,391.4 719.8,410.2 718.3,420.3 723.3,418.8 725.3,407.6 
			723.8,390.9 697.7,283.6 692.4,270.4 682.7,249.3 		"/>
		<polygon class="st1" points="684,248.9 692.7,269.8 699.5,284.2 723.7,389.2 725.4,407.9 723.9,418.8 730,417 730.9,405.4 
			729.4,388.7 703.3,281.4 698,268.1 688.3,247 		"/>
		<polygon class="st1" points="690.4,246.3 699.1,267.2 705.9,281.7 730.1,386.6 731.8,405.3 730.3,416.2 736.4,414.4 737.3,402.8 
			735.8,386.1 709.7,278.8 704.4,265.6 694.7,244.4 		"/>
		<polygon class="st1" points="696.1,244.1 704.8,264.9 711.5,279.4 735.8,384.3 737.5,403.1 737,413.6 742,412.2 743,400.5 
			741.5,383.8 715.4,276.5 710.1,263.3 700.4,242.2 		"/>
		<polygon class="st1" points="703.2,240.5 712,261.3 718.7,275.8 742.9,380.8 744.6,399.5 743,411.2 748.6,409.1 750.1,397 
			748.6,380.3 722.6,273 717.2,259.7 707.5,238.6 		"/>
		<polygon class="st1" points="708.9,238.3 717.6,259.1 724.3,273.6 748.6,378.5 750.3,397.3 748.6,409.1 753.9,407.6 755.8,394.7 
			754.3,378 728.2,270.7 722.9,257.5 713.2,236.3 		"/>
		<polygon class="st1" points="716.1,234.8 724.9,255.6 731.6,270.1 755.8,375.1 757.5,393.8 755.6,407 761.2,405.2 763,391.3 
			761.5,374.6 735.5,267.3 730.1,254 720.4,232.9 		"/>
		<polygon class="st1" points="721.8,232.6 730.5,253.4 737.2,267.9 761.5,372.8 763.2,391.6 761.2,405.2 767.6,402.6 768.7,389 
			767.2,372.3 741.1,265 735.8,251.8 726.1,230.6 		"/>
		<polygon class="st1" points="728.2,229.7 737,250.5 743.7,265 768,370 769.6,388.7 768.5,402.4 774,400.5 775.1,386.2 
			773.6,369.5 747.6,262.2 742.3,248.9 732.6,227.8 		"/>
		<polygon class="st1" points="733.9,227.5 742.6,248.3 749.4,262.8 773.6,367.7 775.3,386.4 774.8,399.8 779.7,398.2 780.8,383.9 
			779.3,367.2 753.2,259.9 747.9,246.7 738.2,225.5 		"/>
	</g>
	<g>
		<polygon class="st1" points="606.3,280.3 614.8,301.2 621.4,315.8 644.6,421 646.1,439.7 644.5,449.8 649.5,448.4 651.6,437.2 
			650.3,420.5 625.3,313 620.1,299.7 610.6,278.5 		"/>
		<polygon class="st1" points="611.9,278.1 620.5,299 627,313.6 650.2,418.8 651.7,437.5 650.1,448.4 656.2,446.7 657.3,435 
			655.9,418.3 630.9,310.8 625.8,297.5 616.3,276.3 		"/>
		<polygon class="st1" points="618.4,275.6 626.9,296.5 633.5,311.1 656.7,416.3 658.2,435 656.5,445.8 662.7,444.1 663.7,432.5 
			662.4,415.8 637.4,308.3 632.2,295 622.7,273.7 		"/>
		<polygon class="st1" points="624,273.4 632.6,294.3 639.2,308.9 662.3,414.1 663.8,432.8 663.3,443.3 668.3,441.9 669.4,430.3 
			668,413.6 643,306.1 637.9,292.8 628.4,271.5 		"/>
		<polygon class="st1" points="631.2,269.9 639.8,290.8 646.3,305.4 669.5,410.6 671,429.3 669.3,441 674.9,439 676.6,426.8 
			675.2,410.1 650.2,302.6 645.1,289.3 635.6,268 		"/>
		<polygon class="st1" points="636.9,267.7 645.4,288.6 652,303.2 675.2,408.4 676.7,427.1 674.9,439 680.3,437.5 682.2,424.6 
			680.9,407.9 655.9,300.4 650.7,287.1 641.2,265.8 		"/>
		<polygon class="st1" points="644.2,264.3 652.7,285.3 659.3,299.8 682.5,405 684,423.7 681.9,436.9 687.6,435.2 689.5,421.2 
			688.2,404.5 663.2,297 658,283.7 648.5,262.5 		"/>
		<polygon class="st1" points="649.9,262.1 658.4,283.1 665,297.6 688.2,402.8 689.7,421.5 687.6,435.2 694,432.6 695.2,419 
			693.9,402.3 668.9,294.8 663.7,281.5 654.2,260.3 		"/>
		<polygon class="st1" points="656.4,259.4 664.9,280.3 671.5,294.8 694.7,400 696.2,418.8 694.9,432.4 700.4,430.6 701.7,416.3 
			700.4,399.5 675.4,292 670.2,278.7 660.7,257.5 		"/>
		<polygon class="st1" points="662,257.2 670.6,278.1 677.1,292.6 700.3,397.8 701.8,416.6 701.2,429.9 706.1,428.3 707.4,414.1 
			706,397.3 681,289.8 675.9,276.5 666.4,255.3 		"/>
	</g>
	<g>
		<polygon class="st1" points="754.6,224 763.7,244.7 770.6,259 796.4,363.6 798.4,382.3 797.1,392.5 802,390.9 803.8,379.7 
			802.1,363 774.4,256.1 768.9,243 758.9,222 		"/>
		<polygon class="st1" points="760.3,221.6 769.3,242.3 776.2,256.7 802,361.3 804,380 802.6,390.9 808.7,389 809.5,377.4 
			807.7,360.7 780.1,253.8 774.6,240.6 764.6,219.6 		"/>
		<polygon class="st1" points="766.6,219 775.7,239.6 782.6,254 808.4,358.6 810.3,377.3 809,388.2 815.1,386.3 815.8,374.7 
			814.1,358 786.4,251.1 780.9,237.9 770.9,217 		"/>
		<polygon class="st1" points="772.2,216.6 781.3,237.3 788.2,251.7 814,356.3 816,375 815.7,385.5 820.7,384 821.4,372.3 
			819.7,355.7 792.1,248.8 786.5,235.6 776.5,214.6 		"/>
		<polygon class="st1" points="779.3,212.9 788.4,233.6 795.3,248 821.1,352.6 823.1,371.3 821.6,383.1 827.2,380.9 828.5,368.7 
			826.8,352 799.2,245.1 793.7,231.9 783.6,211 		"/>
		<polygon class="st1" points="785,210.6 794,231.3 801,245.7 826.7,350.2 828.7,369 827.2,380.9 832.5,379.3 834.2,366.3 
			832.4,349.7 804.8,242.8 799.3,229.6 789.3,208.6 		"/>
		<polygon class="st1" points="792.2,207 801.2,227.7 808.2,242.1 833.9,346.7 835.9,365.4 834.2,378.6 839.8,376.7 841.4,362.8 
			839.6,346.1 812,239.2 806.5,226 796.5,205.1 		"/>
		<polygon class="st1" points="797.8,204.7 806.8,225.4 813.8,239.8 839.6,344.4 841.5,363.1 839.8,376.7 846.1,374.1 847,360.4 
			845.2,343.8 817.6,236.9 812.1,223.7 802.1,202.7 		"/>
		<polygon class="st1" points="804.2,201.8 813.2,222.5 820.2,236.9 846,341.4 847.9,360.1 847,373.8 852.5,371.9 853.4,357.5 
			851.7,340.8 824,233.9 818.5,220.8 808.5,199.8 		"/>
		<polygon class="st1" points="809.8,199.4 818.9,220.1 825.8,234.5 851.6,339.1 853.6,357.8 853.2,371.2 858.1,369.5 859,355.2 
			857.3,338.5 829.6,231.6 824.1,218.4 814.1,197.4 		"/>
	</g>
	<g>
		<polygon class="st1" points="833.3,192.5 842.5,213.1 849.6,227.5 876.4,331.8 878.5,350.5 877.3,360.6 882.3,359 884,347.8 
			882.1,331.1 853.4,224.5 847.8,211.4 837.6,190.5 		"/>
		<polygon class="st1" points="838.9,190.1 848.1,210.7 855.2,225.1 882,329.4 884.1,348.1 882.8,359 888.9,357 889.6,345.4 
			887.7,328.7 859,222.1 853.4,209 843.1,188.1 		"/>
		<polygon class="st1" points="845.2,187.4 854.4,208 861.5,222.3 888.3,326.7 890.5,345.3 889.2,356.2 895.3,354.3 895.9,342.7 
			894,326 865.3,219.4 859.7,206.3 849.5,185.4 		"/>
		<polygon class="st1" points="850.8,185 860,205.6 867.1,219.9 893.9,324.3 896.1,342.9 895.9,353.5 900.9,351.9 901.5,340.3 
			899.6,323.6 870.9,217 865.3,203.9 855.1,183 		"/>
		<polygon class="st1" points="857.9,181.3 867.1,201.9 874.2,216.2 901,320.5 903.1,339.2 901.8,351 907.3,348.7 908.6,336.5 
			906.7,319.9 878,213.2 872.4,200.1 862.2,179.2 		"/>
		<polygon class="st1" points="863.5,178.9 872.7,199.5 879.8,213.8 906.6,318.1 908.7,336.8 907.3,348.7 912.6,347.1 914.2,334.1 
			912.3,317.5 883.6,210.9 878,197.7 867.8,176.9 		"/>
		<polygon class="st1" points="870.6,175.3 879.9,195.9 887,210.2 913.7,314.5 915.9,333.2 914.3,346.4 919.9,344.5 921.3,330.5 
			919.4,313.9 890.8,207.2 885.1,194.1 874.9,173.2 		"/>
		<polygon class="st1" points="876.2,172.9 885.5,193.5 892.6,207.8 919.3,312.1 921.5,330.8 919.9,344.5 926.2,341.8 926.9,328.1 
			925,311.5 896.4,204.8 890.7,191.7 880.5,170.8 		"/>
		<polygon class="st1" points="882.6,169.9 891.9,190.5 899,204.8 925.7,309.1 927.9,327.8 927.1,341.5 932.5,339.5 933.3,325.1 
			931.4,308.5 902.7,201.8 897.1,188.7 886.9,167.8 		"/>
		<polygon class="st1" points="888.2,167.5 897.5,188.1 904.6,202.4 931.3,306.7 933.5,325.4 933.3,338.8 938.1,337 938.9,322.7 
			937,306.1 908.3,199.4 902.7,186.3 892.5,165.4 		"/>
	</g>
</g>
<polygon class="st0" points="462.7,432.4 466,429.9 466,434.2 462.7,436.9 "/>
<polygon class="st0" points="469.6,428 472.9,425.5 472.9,429.7 469.6,432.4 "/>
<polygon class="st0" points="476.6,424.5 479.9,422 479.9,426.2 476.6,428.9 "/>
<polygon class="st0" points="482.8,420.6 486.1,418.1 486.1,422.3 482.8,425 "/>
<polygon class="st0" points="489.6,416.1 493,413.6 493,417.8 489.6,420.5 "/>
<polygon class="st0" points="496.7,412.6 500,410.1 500,414.3 496.7,417.1 "/>
<polygon class="st0" points="504.4,408.2 507.8,405.7 507.8,409.9 504.4,412.6 "/>
<polygon class="st0" points="511.3,403.7 514.6,401.2 514.6,405.4 511.3,408.2 "/>
<polygon class="st0" points="518.3,400.3 521.7,397.8 521.7,402 518.3,404.7 "/>
<polygon class="st0" points="524.5,397.6 527.8,395.1 527.8,399.3 524.5,402 "/>
<polygon class="st0" points="531.4,393.1 534.7,390.6 534.7,394.8 531.4,397.5 "/>
<polygon class="st0" points="538.4,389.7 541.7,387.2 541.7,391.4 538.4,394.1 "/>


<animateTransform accumulate="none" additive="replace" attributeName="transform" attributeType="XML" begin="0s" calcMode="linear" dur="3" fill="remove" repeatCount="indefinite" restart="always" type="translate" values="0,0;20,-1;0,-1">
		</animateTransform>
</g>
</svg>
