<?xml version="1.0" encoding="utf-8"?>
<!-- Generator: Adobe Illustrator 19.2.1, SVG Export Plug-In . SVG Version: 6.00 Build 0)  -->
<svg version="1.1" id="Layer_1" xmlns="http://www.w3.org/2000/svg" xmlns:xlink="http://www.w3.org/1999/xlink" x="0px" y="0px"
	 viewBox="0 0 100 100" style="enable-background:new 0 0 100 100;" xml:space="preserve">
<style type="text/css">
	.st0{fill:#666766;}
	.st1{fill:#999999;}
	.st2{fill:#333333;}
	.st3{fill:#676867;}
	.st4{fill:#141318;}
	.st5{fill:#121332;}
	.st6{fill:#CDCCCC;}
	.st7{fill:#989898;}
	.st8{fill:#010101;}
	.st9{fill:#BBB9BA;}
	.st10{fill:#E5E5E5;}
	.st11{fill:#1E2C32;}
	.st12{opacity:0.7;fill:#BBB9BA;enable-background:new    ;}
	.st13{opacity:0.3;fill:#989898;enable-background:new    ;}
	.st14{opacity:0.3;fill:#CDCCCC;enable-background:new    ;}
	.st15{opacity:0.5;fill:#989898;enable-background:new    ;}
	.st16{opacity:0.5;fill:#CDCCCC;enable-background:new    ;}
	.st17{opacity:0.5;fill:#FFFFFF;enable-background:new    ;}
	.st18{fill:none;stroke:#676867;stroke-width:0.1;stroke-miterlimit:10;}
	.st19{opacity:0.4;fill:#676867;enable-background:new    ;}
	.st20{fill:#FFFFFF;}
	.st21{fill:#394A54;}
	.st22{fill:#1B555D;}
	.st23{fill:#193E45;}
	.st24{fill:#171E1E;}
	.st25{fill:#303D44;}
	.st26{opacity:0.5;fill:#669A9A;enable-background:new    ;}
	.st27{opacity:0.5;fill:#188598;enable-background:new    ;}
	.st28{opacity:0.3;fill:#669A9A;enable-background:new    ;}
	.st29{fill:#3C4759;}
	.st30{fill:#25343E;}
	.st31{fill:#A2A1A2;}
	.st32{fill:#C2BFBF;}
	.st33{opacity:0.5;fill:#676867;enable-background:new    ;}
	.st34{opacity:0.48;fill:#676867;enable-background:new    ;}
</style>
<path id="smoke_2" class="st0" d="M15.615,37.03c0,0,0.501-0.772,1.146-0.189c0,0,0.716-0.42,0.931,0.189
	c0,0,0.215,0.573-0.501,0.824c0,0,0.526,0,0.532,0.287c0,0,0.113,0.439-0.46,0.524c0,0,0.075,0.55-0.589,0.586
	c0,0-0.628,0.045-0.772-0.586c0,0-0.609,0.345-0.824,0c0,0-0.537-0.416,0-1.025c0,0-0.478-0.287-0.239-0.609
	C14.839,37.03,15.364,36.457,15.615,37.03z">

<animate  accumulate="none" additive="replace" attributeName="d" calcMode="linear" dur="1" fill="remove" repeatCount="indefinite" restart="always" to="M14.269,35.604c0,0,0.804-1.237,1.837-0.303c0,0,1.148-0.674,1.493,0.303
	c0,0,0.344,0.919-0.804,1.321c0,0,0.843,0,0.852,0.459c0,0,0.181,0.704-0.737,0.84c0,0,0.12,0.882-0.945,0.94
	c0,0-1.007,0.072-1.237-0.94c0,0-0.976,0.553-1.32,0c0,0-0.861-0.667,0-1.644c0,0-0.765-0.46-0.383-0.976
	C13.025,35.604,13.867,34.685,14.269,35.604z">
		</animate>
	
		<animateTransform  accumulate="none" additive="replace" attributeName="transform" attributeType="XML" begin="0s" calcMode="linear" dur="1" fill="remove" repeatCount="indefinite" restart="always" type="translate" values="0,0;-6,-2">
		</animateTransform>
	
		<animate  accumulate="none" additive="replace" attributeName="opacity" begin="0.5s" calcMode="linear" dur="1" fill="remove" from="1" repeatCount="indefinite" restart="always" to="0">
		</animate>

</path>


<path id="smoke_1" class="st1" d="M16.548,38.032c0,0,0.308-0.473,0.703-0.116c0,0,0.44-0.258,0.571,0.116
	c0,0,0.132,0.352-0.308,0.506c0,0,0.323,0,0.326,0.176c0,0,0.069,0.269-0.282,0.322c0,0,0.046,0.338-0.362,0.36
	c0,0-0.386,0.028-0.474-0.36c0,0-0.374,0.212-0.505,0c0,0-0.33-0.255,0-0.629c0,0-0.293-0.176-0.147-0.374
	C16.072,38.032,16.395,37.68,16.548,38.032z">

	<animate  accumulate="none" additive="replace" attributeName="d" calcMode="linear" dur="1" fill="remove" repeatCount="indefinite" restart="always" to="M15.765,37.21c0,0,0.493-0.759,1.127-0.186c0,0,0.705-0.413,0.916,0.186
	c0,0,0.211,0.564-0.493,0.81c0,0,0.517,0,0.523,0.282c0,0,0.111,0.432-0.452,0.515c0,0,0.074,0.541-0.58,0.577
	c0,0-0.618,0.044-0.759-0.577c0,0-0.599,0.339-0.81,0c0,0-0.528-0.409,0-1.009c0,0-0.47-0.282-0.235-0.599
	C15.002,37.21,15.519,36.646,15.765,37.21z">
		</animate>
	
		<animateTransform  accumulate="none" additive="replace" attributeName="transform" attributeType="XML" begin="0s" calcMode="linear" dur="0.5" fill="remove" repeatCount="indefinite" restart="always" type="translate" values="0,0;-4,-2">
		</animateTransform>
	
		<animate  accumulate="none" additive="replace" attributeName="opacity" begin="0.5s" calcMode="linear" dur="1" fill="remove" from="1" repeatCount="indefinite" restart="always" to="0">
		</animate>
</path>
<polygon class="st2" points="29.563,48.919 25.267,50.941 24.962,50.671 24.962,46.322 "/>
<polygon class="st3" points="24.962,50.671 24.962,46.322 25.267,46.497 25.267,50.941 "/>
<g id="Tire_3_">
	<path class="st4" d="M35.837,50.915c1.298,0.261,2.701,1.717,3.137,3.242s-0.261,2.553-1.551,2.283
		c-1.298-0.261-2.701-1.717-3.137-3.242C33.85,51.673,34.547,50.653,35.837,50.915z"/>
	<path class="st5" d="M35.576,51.124c1.281,0.261,2.667,1.708,3.094,3.224c0.427,1.525-0.261,2.545-1.542,2.283
		c-1.281-0.261-2.667-1.708-3.094-3.224C33.606,51.882,34.295,50.863,35.576,51.124z"/>
	<path class="st4" d="M35.183,51.307c1.298,0.261,2.701,1.717,3.137,3.242s-0.261,2.553-1.551,2.283
		c-1.298-0.261-2.701-1.717-3.137-3.242S33.894,51.046,35.183,51.307z"/>
	<path class="st5" d="M34.922,51.516c1.281,0.261,2.667,1.708,3.094,3.224c0.427,1.525-0.261,2.545-1.542,2.283
		c-1.281-0.261-2.667-1.708-3.094-3.224C32.953,52.283,33.641,51.255,34.922,51.516z"/>
	<path class="st4" d="M34.626,51.656c1.298,0.261,2.701,1.717,3.137,3.242s-0.261,2.553-1.551,2.283
		c-1.29-0.27-2.701-1.717-3.137-3.242S33.336,51.394,34.626,51.656z"/>
	<path class="st5" d="M34.364,51.865c1.281,0.261,2.667,1.708,3.094,3.224c0.427,1.525-0.261,2.545-1.542,2.283
		c-1.281-0.261-2.667-1.708-3.094-3.224C32.395,52.623,33.083,51.603,34.364,51.865z"/>
	<path class="st4" d="M34.242,51.995c1.237,0.253,2.579,1.673,2.989,3.181c0.41,1.508-0.261,2.518-1.499,2.266
		s-2.579-1.673-2.989-3.181S33.005,51.743,34.242,51.995z"/>
	<path class="st5" d="M34.312,52.51c1.046,0.209,2.17,1.412,2.518,2.684c0.349,1.264-0.218,2.126-1.264,1.908
		c-1.046-0.209-2.17-1.412-2.518-2.684C32.7,53.154,33.266,52.292,34.312,52.51z"/>
	<path class="st6" d="M34.478,52.867c0.837,0.174,1.743,1.133,2.022,2.152c0.279,1.02-0.183,1.708-1.02,1.534
		c-0.837-0.174-1.743-1.133-2.022-2.152C33.188,53.381,33.641,52.701,34.478,52.867z"/>
	<path class="st7" d="M34.687,53.172c0.68,0.139,1.412,0.915,1.638,1.743c0.227,0.828-0.148,1.377-0.828,1.237
		s-1.412-0.915-1.638-1.743C33.632,53.59,34.007,53.032,34.687,53.172z"/>
	<path class="st6" d="M34.791,53.616c0.497,0.105,1.037,0.671,1.203,1.281c0.166,0.601-0.105,1.011-0.601,0.915
		c-0.497-0.105-1.037-0.671-1.203-1.281S34.295,53.512,34.791,53.616z"/>
	<path class="st8" d="M34.957,54.305c0.157,0.035,0.322,0.209,0.375,0.401s-0.035,0.314-0.192,0.288
		c-0.157-0.035-0.322-0.209-0.375-0.401C34.713,54.401,34.809,54.279,34.957,54.305z"/>
	<path class="st8" d="M35.035,53.825c0.087,0.017,0.174,0.113,0.209,0.218c0.026,0.105-0.017,0.174-0.105,0.157
		s-0.174-0.113-0.209-0.218C34.905,53.878,34.948,53.808,35.035,53.825z"/>
	<path class="st8" d="M34.434,53.869c0.087,0.017,0.174,0.113,0.209,0.218c0.035,0.105-0.017,0.174-0.105,0.157
		c-0.087-0.017-0.174-0.113-0.209-0.218C34.303,53.921,34.347,53.852,34.434,53.869z"/>
	<path class="st8" d="M34.434,54.531c0.087,0.017,0.174,0.113,0.209,0.218c0.035,0.105-0.017,0.174-0.105,0.157
		c-0.087-0.017-0.174-0.113-0.209-0.218C34.295,54.583,34.347,54.514,34.434,54.531z"/>
	<path class="st8" d="M35,55.124c0.087,0.017,0.174,0.113,0.209,0.218s-0.017,0.174-0.105,0.157
		c-0.087-0.017-0.174-0.113-0.209-0.218C34.861,55.176,34.913,55.106,35,55.124z"/>
	<path class="st8" d="M35.637,55.124c0.087,0.017,0.174,0.113,0.209,0.218s-0.017,0.174-0.105,0.157s-0.174-0.113-0.209-0.218
		C35.506,55.176,35.558,55.106,35.637,55.124z"/>
	<path class="st8" d="M35.637,54.479c0.087,0.017,0.174,0.113,0.209,0.218c0.035,0.105-0.017,0.174-0.105,0.157
		s-0.174-0.113-0.209-0.218C35.506,54.531,35.558,54.462,35.637,54.479z"/>
</g>
<g id="Tire_4_">
	<path class="st4" d="M30.373,47.15c1.298,0.261,2.701,1.717,3.137,3.242s-0.261,2.553-1.551,2.283
		c-1.298-0.261-2.701-1.717-3.137-3.242C28.378,47.908,29.075,46.88,30.373,47.15z"/>
	<path class="st5" d="M30.112,47.351c1.281,0.261,2.667,1.708,3.094,3.224c0.427,1.525-0.261,2.545-1.542,2.283
		c-1.281-0.261-2.667-1.708-3.094-3.224C28.142,48.118,28.831,47.089,30.112,47.351z"/>
	<path class="st4" d="M29.72,47.542c1.298,0.261,2.701,1.717,3.137,3.242s-0.261,2.553-1.551,2.283
		c-1.298-0.261-2.701-1.717-3.137-3.242C27.733,48.301,28.421,47.281,29.72,47.542z"/>
	<path class="st5" d="M29.45,47.743c1.281,0.261,2.667,1.708,3.094,3.224c0.427,1.525-0.261,2.545-1.542,2.283
		c-1.281-0.261-2.667-1.708-3.094-3.224C27.489,48.51,28.177,47.481,29.45,47.743z"/>
	<path class="st4" d="M29.162,47.891c1.298,0.261,2.701,1.717,3.137,3.242c0.436,1.525-0.261,2.553-1.551,2.283
		c-1.298-0.261-2.701-1.717-3.137-3.242C27.166,48.649,27.864,47.63,29.162,47.891z"/>
	<path class="st5" d="M28.892,48.091c1.281,0.261,2.667,1.708,3.094,3.224c0.427,1.525-0.261,2.545-1.542,2.283
		c-1.281-0.261-2.667-1.708-3.094-3.224C26.931,48.858,27.62,47.83,28.892,48.091z"/>
	<path class="st4" d="M28.77,48.222c1.237,0.253,2.579,1.673,2.989,3.181s-0.261,2.518-1.499,2.266
		c-1.237-0.253-2.579-1.673-2.989-3.181C26.861,48.989,27.532,47.969,28.77,48.222z"/>
	<path class="st5" d="M28.84,48.736c1.046,0.209,2.17,1.412,2.518,2.684c0.349,1.264-0.218,2.126-1.264,1.908
		c-1.046-0.209-2.17-1.412-2.518-2.684S27.794,48.527,28.84,48.736z"/>
	<path class="st6" d="M29.014,49.102c0.837,0.174,1.743,1.133,2.022,2.152c0.279,1.02-0.183,1.708-1.02,1.534
		s-1.743-1.133-2.022-2.152C27.715,49.616,28.169,48.928,29.014,49.102z"/>
	<path class="st7" d="M29.214,49.399c0.68,0.139,1.412,0.915,1.638,1.743s-0.148,1.377-0.828,1.237
		c-0.68-0.139-1.412-0.915-1.638-1.743S28.535,49.268,29.214,49.399z"/>
	<path class="st6" d="M29.319,49.852c0.497,0.105,1.037,0.671,1.203,1.281c0.166,0.601-0.105,1.011-0.601,0.915
		c-0.497-0.105-1.037-0.671-1.203-1.281S28.822,49.747,29.319,49.852z"/>
	<path class="st8" d="M29.493,50.54c0.157,0.035,0.322,0.209,0.375,0.401c0.052,0.192-0.035,0.314-0.192,0.288
		c-0.157-0.035-0.322-0.209-0.375-0.401C29.249,50.636,29.336,50.505,29.493,50.54z"/>
	<path class="st8" d="M29.572,50.061c0.087,0.017,0.174,0.113,0.209,0.218c0.026,0.105-0.017,0.174-0.105,0.157
		s-0.174-0.113-0.209-0.218C29.441,50.113,29.484,50.043,29.572,50.061z"/>
	<path class="st8" d="M28.97,50.104c0.087,0.017,0.174,0.113,0.209,0.218c0.035,0.105-0.017,0.174-0.105,0.157
		c-0.087-0.017-0.174-0.113-0.209-0.218C28.84,50.157,28.883,50.087,28.97,50.104z"/>
	<path class="st8" d="M28.97,50.758c0.087,0.017,0.174,0.113,0.209,0.218c0.035,0.105-0.017,0.174-0.105,0.157
		c-0.087-0.017-0.174-0.113-0.209-0.218C28.84,50.81,28.883,50.741,28.97,50.758z"/>
	<path class="st8" d="M29.537,51.359c0.087,0.017,0.174,0.113,0.209,0.218c0.035,0.105-0.017,0.174-0.105,0.157
		s-0.174-0.113-0.209-0.218C29.406,51.412,29.45,51.342,29.537,51.359z"/>
	<path class="st8" d="M30.173,51.359c0.087,0.017,0.174,0.113,0.209,0.218c0.035,0.105-0.017,0.174-0.105,0.157
		s-0.174-0.113-0.209-0.218C30.042,51.412,30.086,51.342,30.173,51.359z"/>
	<path class="st8" d="M30.173,50.706c0.087,0.017,0.174,0.113,0.209,0.218c0.035,0.105-0.017,0.174-0.105,0.157
		s-0.174-0.113-0.209-0.218C30.042,50.758,30.086,50.697,30.173,50.706z"/>
</g>
<g id="Tire_2_">
	<path class="st4" d="M41.675,54.645c1.298,0.261,2.701,1.717,3.137,3.242s-0.261,2.553-1.551,2.283
		c-1.29-0.27-2.701-1.717-3.137-3.242C39.68,55.403,40.377,54.383,41.675,54.645z"/>
	<path class="st5" d="M41.414,54.845c1.281,0.261,2.667,1.708,3.094,3.224s-0.261,2.545-1.542,2.283s-2.667-1.708-3.094-3.224
		C39.445,55.612,40.133,54.583,41.414,54.845z"/>
	<path class="st4" d="M41.022,55.037c1.298,0.261,2.701,1.717,3.137,3.242c0.436,1.525-0.261,2.553-1.551,2.283
		c-1.298-0.261-2.701-1.717-3.137-3.242C39.026,55.795,39.724,54.775,41.022,55.037z"/>
	<path class="st5" d="M40.752,55.237c1.281,0.261,2.667,1.708,3.094,3.224c0.427,1.516-0.261,2.545-1.542,2.283
		c-1.281-0.261-2.667-1.708-3.094-3.224C38.791,56.004,39.48,54.976,40.752,55.237z"/>
	<path class="st4" d="M40.464,55.385c1.298,0.261,2.701,1.717,3.137,3.242S43.34,61.18,42.05,60.91
		c-1.29-0.27-2.701-1.717-3.137-3.242S39.166,55.124,40.464,55.385z"/>
	<path class="st5" d="M40.194,55.586c1.281,0.261,2.667,1.708,3.094,3.224c0.427,1.516-0.261,2.545-1.542,2.283
		c-1.281-0.261-2.667-1.708-3.094-3.224C38.225,56.352,38.922,55.324,40.194,55.586z"/>
	<path class="st4" d="M40.072,55.716c1.237,0.253,2.579,1.673,2.989,3.181c0.41,1.508-0.261,2.518-1.499,2.266
		s-2.579-1.673-2.989-3.181C38.164,56.483,38.835,55.464,40.072,55.716z"/>
	<path class="st5" d="M40.142,56.23c1.046,0.209,2.17,1.412,2.518,2.684c0.349,1.264-0.218,2.126-1.264,1.908
		c-1.046-0.209-2.17-1.412-2.518-2.684C38.53,56.867,39.096,56.021,40.142,56.23z"/>
	<path class="st6" d="M40.316,56.596c0.837,0.174,1.743,1.133,2.022,2.152c0.279,1.02-0.183,1.708-1.02,1.534
		c-0.837-0.174-1.743-1.133-2.022-2.152C39.018,57.111,39.471,56.422,40.316,56.596z"/>
	<path class="st7" d="M40.517,56.893c0.68,0.139,1.412,0.915,1.638,1.743c0.227,0.828-0.148,1.377-0.828,1.237
		s-1.412-0.915-1.638-1.743C39.471,57.311,39.837,56.762,40.517,56.893z"/>
	<path class="st6" d="M40.621,57.346c0.497,0.105,1.037,0.671,1.203,1.281c0.166,0.61-0.105,1.011-0.601,0.915
		c-0.497-0.096-1.037-0.671-1.203-1.281C39.854,57.651,40.124,57.241,40.621,57.346z"/>
	<path class="st8" d="M40.795,58.034c0.157,0.035,0.322,0.209,0.375,0.401c0.052,0.192-0.035,0.314-0.192,0.288
		c-0.157-0.035-0.322-0.209-0.375-0.401C40.551,58.13,40.639,57.999,40.795,58.034z"/>
	<path class="st8" d="M40.874,57.555c0.087,0.017,0.174,0.113,0.209,0.218c0.026,0.105-0.017,0.174-0.105,0.157
		c-0.087-0.017-0.174-0.113-0.209-0.218C40.743,57.607,40.787,57.538,40.874,57.555z"/>
	<path class="st8" d="M40.273,57.599c0.087,0.017,0.174,0.113,0.209,0.218c0.026,0.105-0.017,0.174-0.105,0.157
		s-0.174-0.113-0.209-0.218C40.142,57.651,40.185,57.581,40.273,57.599z"/>
	<path class="st8" d="M40.273,58.252c0.087,0.017,0.174,0.113,0.209,0.218c0.026,0.105-0.017,0.174-0.105,0.157
		s-0.174-0.113-0.209-0.218C40.142,58.304,40.185,58.235,40.273,58.252z"/>
	<path class="st8" d="M40.839,58.853c0.087,0.017,0.174,0.113,0.209,0.218c0.026,0.105-0.017,0.174-0.105,0.157
		c-0.087-0.017-0.174-0.113-0.209-0.218C40.708,58.906,40.752,58.836,40.839,58.853z"/>
	<path class="st8" d="M41.475,58.853c0.087,0.017,0.174,0.113,0.209,0.218c0.026,0.105-0.017,0.174-0.105,0.157
		c-0.087-0.017-0.174-0.113-0.209-0.218C41.336,58.906,41.388,58.836,41.475,58.853z"/>
	<path class="st8" d="M41.475,58.209c0.087,0.017,0.174,0.113,0.209,0.218c0.026,0.105-0.017,0.174-0.105,0.157
		c-0.087-0.017-0.174-0.113-0.209-0.218C41.344,58.252,41.388,58.191,41.475,58.209z"/>
</g>
<path class="st2" d="M60.603,69.406l-0.68-0.558l-0.113-1.525l1.281-0.593l4.889,2.553l-5.228,2.309
	C60.167,71.254,60.603,69.406,60.603,69.406z"/>
<g id="Tire_1_">
	<path class="st4" d="M64.245,68.5c1.298,0.261,2.701,1.717,3.137,3.242c0.436,1.525-0.261,2.553-1.551,2.283
		c-1.298-0.261-2.701-1.717-3.137-3.242C62.258,69.258,62.947,68.239,64.245,68.5z"/>
	<path class="st5" d="M63.984,68.7c1.281,0.261,2.667,1.708,3.094,3.224c0.427,1.516-0.261,2.545-1.542,2.283
		s-2.667-1.708-3.094-3.224C62.014,69.467,62.703,68.439,63.984,68.7z"/>
	<path class="st4" d="M63.592,68.892c1.298,0.261,2.701,1.717,3.137,3.242c0.436,1.525-0.261,2.553-1.551,2.283
		c-1.298-0.261-2.701-1.717-3.137-3.242C61.596,69.65,62.293,68.631,63.592,68.892z"/>
	<path class="st5" d="M63.33,69.093c1.281,0.261,2.667,1.708,3.094,3.224c0.427,1.525-0.261,2.545-1.542,2.283
		c-1.281-0.261-2.667-1.708-3.094-3.224C61.361,69.859,62.049,68.831,63.33,69.093z"/>
	<path class="st4" d="M63.034,69.241c1.298,0.261,2.701,1.717,3.137,3.242c0.436,1.525-0.261,2.553-1.551,2.283
		c-1.298-0.261-2.701-1.717-3.137-3.242C61.038,69.999,61.735,68.979,63.034,69.241z"/>
	<path class="st5" d="M62.772,69.441c1.281,0.261,2.667,1.708,3.094,3.224c0.427,1.525-0.261,2.545-1.542,2.283
		c-1.281-0.261-2.667-1.708-3.094-3.224C60.803,70.208,61.491,69.18,62.772,69.441z"/>
	<path class="st4" d="M62.642,69.572c1.237,0.253,2.579,1.673,2.989,3.181c0.41,1.508-0.261,2.518-1.499,2.266
		c-1.237-0.253-2.579-1.673-2.989-3.181C60.733,70.339,61.404,69.319,62.642,69.572z"/>
	<path class="st5" d="M62.711,70.095c1.046,0.209,2.17,1.412,2.518,2.684c0.349,1.264-0.218,2.126-1.264,1.908
		c-1.046-0.218-2.17-1.42-2.518-2.684C61.099,70.731,61.666,69.877,62.711,70.095z"/>
	<path class="st6" d="M62.886,70.452c0.837,0.174,1.743,1.133,2.022,2.152s-0.174,1.708-1.02,1.534
		c-0.837-0.174-1.743-1.133-2.022-2.152S62.04,70.278,62.886,70.452z"/>
	<path class="st7" d="M63.086,70.757c0.68,0.139,1.412,0.915,1.638,1.743c0.227,0.828-0.148,1.377-0.828,1.237
		c-0.68-0.139-1.412-0.915-1.638-1.743C62.04,71.167,62.406,70.618,63.086,70.757z"/>
	<path class="st6" d="M63.191,71.201c0.497,0.105,1.037,0.671,1.203,1.281c0.166,0.61-0.105,1.011-0.601,0.915
		c-0.497-0.105-1.037-0.671-1.203-1.281C62.424,71.506,62.694,71.097,63.191,71.201z"/>
	<path class="st8" d="M63.365,71.89c0.157,0.035,0.322,0.209,0.375,0.401c0.052,0.192-0.035,0.314-0.192,0.288
		c-0.157-0.035-0.322-0.209-0.375-0.401C63.13,71.986,63.208,71.855,63.365,71.89z"/>
	<path class="st8" d="M63.443,71.411c0.087,0.017,0.174,0.113,0.209,0.218c0.026,0.105-0.017,0.174-0.105,0.157
		c-0.087-0.017-0.174-0.113-0.209-0.218C63.313,71.463,63.356,71.393,63.443,71.411z"/>
	<path class="st8" d="M62.842,71.454c0.087,0.017,0.174,0.113,0.209,0.218c0.026,0.105-0.017,0.174-0.105,0.157
		c-0.087-0.017-0.174-0.113-0.209-0.218C62.711,71.506,62.755,71.437,62.842,71.454z"/>
	<path class="st8" d="M62.842,72.108c0.087,0.017,0.174,0.113,0.209,0.218c0.026,0.105-0.017,0.174-0.105,0.157
		c-0.087-0.017-0.174-0.113-0.209-0.218C62.711,72.16,62.755,72.09,62.842,72.108z"/>
	<path class="st8" d="M63.409,72.709c0.087,0.017,0.174,0.113,0.209,0.218c0.026,0.105-0.017,0.174-0.105,0.157
		c-0.087-0.017-0.174-0.113-0.209-0.218C63.278,72.761,63.321,72.691,63.409,72.709z"/>
	<path class="st8" d="M64.045,72.709c0.087,0.017,0.174,0.113,0.209,0.218c0.026,0.105-0.017,0.174-0.105,0.157
		c-0.087-0.017-0.174-0.113-0.209-0.218C63.914,72.761,63.958,72.691,64.045,72.709z"/>
	<path class="st8" d="M64.045,72.064c0.087,0.017,0.174,0.113,0.209,0.218c0.026,0.105-0.017,0.174-0.105,0.157
		c-0.087-0.017-0.174-0.113-0.209-0.218C63.914,72.108,63.958,72.047,64.045,72.064z"/>
</g>
<polygon class="st2" points="77.796,79.663 77.029,76.282 75.329,75.105 71.879,72.003 76.82,70.888 83.713,78.722 78.528,81.763 
	"/>
<polygon class="st2" points="23.48,45.591 23.48,46.061 19.995,47.943 19.603,47.586 19.603,43.229 23.219,45.408 "/>
<polygon class="st3" points="19.995,43.49 19.995,47.943 19.603,47.586 19.603,43.229 "/>
<path class="st2" d="M67.208,75.123l1.063-0.662v-3.608l-5.106-3.076c-1.534,0.174-2.248,0.985-2.248,0.985
	C65.631,67.515,67.208,75.123,67.208,75.123z"/>
<path class="st3" d="M67.208,75.123c0.244-5.246-4.671-6.666-4.671-6.666c-2.719-0.61-2.248,2.954-2.248,2.954l0.462,0.183
	c-0.2-0.584,0-1.638,0-1.638c0.654-2.004,3.067-0.558,3.067-0.558c2.902,2.004,2.832,5.533,2.832,5.533L67.208,75.123z"/>
<path class="st9" d="M77.569,81.179l-10.37-5.873c0.209-2.797-0.654-3.521-0.654-3.521l1.429-0.854l10.379,4.07
	C78.963,79.959,77.569,81.179,77.569,81.179z"/>
<polygon class="st7" points="78.754,76.055 78.205,74.966 69.683,69.964 67.548,71.184 77.438,76.665 "/>
<polygon class="st2" points="45.876,56.928 43.2,56.928 43.2,61.389 45.876,60.004 "/>
<polygon class="st10" points="87.381,66.513 87.39,51.115 31.236,18.96 19.21,25.931 19.21,43.273 75.329,75.105 "/>
<polygon class="st11" points="78.641,70.182 75.504,72.16 74.693,71.646 74.667,74.243 64.324,68.483 64.376,66.165 63.679,65.816 
	63.679,68.082 53.3,62.095 53.3,59.716 52.525,59.307 52.525,61.642 41.954,55.76 42.068,53.32 41.431,53.032 41.431,55.385 
	30.8,49.486 30.8,47.028 30.216,46.758 30.277,49.155 19.585,42.924 19.585,40.894 19.123,40.545 19.21,43.273 75.329,75.105 
	78.467,73.406 "/>
<polygon class="st12" points="87.381,64.988 75.504,72.16 75.504,58.496 87.39,51.856 "/>
<polygon class="st12" points="75.373,58.348 75.338,72.055 19.437,40.135 19.437,26.454 "/>
<path class="st13" d="M82.641,55.411c-0.113,1.682,0.688,3.747,0.688,3.747L82.641,55.411z"/>
<path class="st14" d="M82.719,55.385c0.723,1.734,0.68,3.738,0.68,3.738L82.719,55.385z"/>
<path class="st15" d="M78.754,57.485c-1.142,1.542-1.046,3.765-1.046,3.765L78.754,57.485z"/>
<path class="st16" d="M78.806,57.538c-0.139,1.874-1.081,3.643-1.081,3.643L78.806,57.538z"/>
<polygon class="st17" points="77.22,77.667 66.755,71.655 66.546,71.785 77.029,77.728 "/>
<path class="st18" d="M76.811,78.417v1.481c0.026,0.288-0.2,0.349-0.2,0.349l-4.732-2.64c-0.227-0.07-0.209-0.296-0.209-0.296
	v-1.847c0.026-0.244,0.331-0.174,0.331-0.174l4.618,2.64C76.898,78.068,76.811,78.417,76.811,78.417z"/>
<path class="st18" d="M71.443,75.428v1.481c0.026,0.288-0.2,0.349-0.2,0.349l-3.486-2.004c-0.227-0.07-0.209-0.296-0.209-0.296
	l-0.035-1.778c0.026-0.244,0.331-0.174,0.331-0.174l3.407,1.926C71.521,75.088,71.443,75.428,71.443,75.428z"/>
<polygon class="st6" points="76.549,79.942 71.879,77.258 72.088,77.127 76.637,79.663 "/>
<polygon class="st6" points="71.216,77.075 67.678,75.062 67.888,74.931 71.304,76.796 "/>
<polygon class="st2" points="56.568,64.361 56.568,66.914 56.856,67.088 56.856,67.751 56.568,67.916 56.568,68.282 57.422,68.666 
	58.049,68.204 58.049,68.021 57.57,67.751 57.57,67.088 58.049,66.897 58.049,65.171 "/>
<polygon class="st19" points="57.134,64.674 57.134,67.228 57.309,67.228 57.309,64.77 "/>
<polygon class="st19" points="57.222,67.611 56.768,67.916 57.309,68.282 57.744,67.916 "/>
<polygon class="st6" points="53.544,62.749 53.544,65.101 53.936,65.363 54.328,65.363 54.328,63.228 "/>
<polygon class="st6" points="46.102,58.522 46.05,60.683 46.486,60.997 46.817,60.997 46.817,58.932 "/>
<polygon class="st7" points="46.817,58.932 46.817,60.997 46.486,60.997 46.433,58.81 "/>
<polygon class="st6" points="45.396,59.76 45.091,60.004 44.961,61.738 54.328,67.123 54.808,66.74 54.808,65.145 "/>
<polygon class="st7" points="54.808,66.931 54.328,67.123 54.328,65.363 54.808,65.145 "/>
<polygon class="st20" points="54.328,65.624 45.091,60.004 54.328,65.363 "/>
<path class="st13" d="M84.505,53.756c0.932,0.671,2.266,0.61,2.266,0.61L84.505,53.756z"/>
<path class="st14" d="M84.514,53.669c1.133-0.096,2.257,0.619,2.257,0.619L84.514,53.669z"/>
<path class="st13" d="M83.015,54.435c1.002,1.351,2.954,2.414,2.954,2.414L83.015,54.435z"/>
<path class="st14" d="M83.059,54.366c1.673,0.854,2.937,2.414,2.937,2.414L83.059,54.366z"/>
<path class="st13" d="M71.173,65.555c0.741-3.111-0.898-7.294-0.898-7.294L71.173,65.555z"/>
<path class="st14" d="M70.946,65.572c-1.516-3.529-0.871-7.276-0.871-7.276L70.946,65.572z"/>
<path class="st13" d="M67.034,66.156c0.41-1.978-0.34-4.462-0.34-4.462L67.034,66.156z"/>
<path class="st14" d="M66.912,66.173c-0.697-2.083-0.322-4.453-0.322-4.453L66.912,66.173z"/>
<path class="st13" d="M69.186,64.108c-0.035-2.675-1.63-6.396-1.63-6.396L69.186,64.108z"/>
<path class="st14" d="M69.047,64.108c-1.429-3.146-1.603-6.379-1.603-6.379L69.047,64.108z"/>
<path class="st13" d="M73.674,64.701c0.2-2.362-0.906-5.507-0.906-5.507L73.674,64.701z"/>
<path class="st14" d="M73.561,64.718c-1.002-2.658-0.889-5.499-0.889-5.499L73.561,64.718z"/>
<path class="st13" d="M58.929,56.893c0.741-3.111-0.898-7.294-0.898-7.294L58.929,56.893z"/>
<path class="st14" d="M58.694,56.901c-1.516-3.529-0.871-7.276-0.871-7.276L58.694,56.901z"/>
<path class="st13" d="M53.23,57.503c0.41-1.978-0.34-4.462-0.34-4.462L53.23,57.503z"/>
<path class="st14" d="M53.117,57.529c-0.697-2.083-0.322-4.453-0.322-4.453L53.117,57.529z"/>
<path class="st13" d="M55.383,55.455c-0.035-2.675-1.63-6.396-1.63-6.396L55.383,55.455z"/>
<path class="st14" d="M55.252,55.455c-1.429-3.146-1.603-6.379-1.603-6.379L55.252,55.455z"/>
<path class="st13" d="M45.762,48.937c0.741-3.111-0.898-7.294-0.898-7.294L45.762,48.937z"/>
<path class="st14" d="M45.536,48.954c-1.516-3.529-0.871-7.276-0.871-7.276L45.536,48.954z"/>
<path class="st13" d="M40.072,49.547c0.41-1.978-0.34-4.462-0.34-4.462L40.072,49.547z"/>
<path class="st14" d="M39.959,49.573c-0.697-2.083-0.322-4.453-0.322-4.453L39.959,49.573z"/>
<path class="st13" d="M42.224,47.499c-0.035-2.675-1.63-6.396-1.63-6.396L42.224,47.499z"/>
<path class="st14" d="M42.085,47.499c-1.429-3.146-1.603-6.379-1.603-6.379L42.085,47.499z"/>
<path class="st13" d="M31.018,41.251c0.741-3.111-0.898-7.294-0.898-7.294L31.018,41.251z"/>
<path class="st14" d="M30.792,41.268c-1.516-3.529-0.871-7.276-0.871-7.276L30.792,41.268z"/>
<path class="st13" d="M25.328,41.861c0.41-1.978-0.34-4.462-0.34-4.462L25.328,41.861z"/>
<path class="st14" d="M25.214,41.887c-0.697-2.083-0.322-4.453-0.322-4.453L25.214,41.887z"/>
<path class="st13" d="M27.48,39.813c-0.035-2.675-1.63-6.396-1.63-6.396L27.48,39.813z"/>
<path class="st14" d="M27.341,39.813c-1.429-3.146-1.603-6.379-1.603-6.379L27.341,39.813z"/>
<g id="Tire">
	<path class="st4" d="M81.726,78.757c1.298,0.261,2.701,1.717,3.137,3.242c0.436,1.525-0.261,2.553-1.551,2.283
		c-1.298-0.261-2.701-1.717-3.137-3.242C79.739,79.523,80.427,78.495,81.726,78.757z"/>
	<path class="st5" d="M81.464,78.966c1.281,0.261,2.667,1.708,3.094,3.224c0.427,1.525-0.261,2.545-1.542,2.283
		c-1.281-0.261-2.667-1.708-3.094-3.224C79.495,79.724,80.183,78.704,81.464,78.966z"/>
	<path class="st4" d="M81.072,79.149c1.298,0.261,2.701,1.717,3.137,3.242c0.436,1.525-0.261,2.553-1.551,2.283
		c-1.298-0.261-2.701-1.717-3.137-3.242C79.085,79.916,79.774,78.887,81.072,79.149z"/>
	<path class="st5" d="M80.811,79.358c1.281,0.261,2.667,1.708,3.094,3.224c0.427,1.525-0.261,2.545-1.542,2.283
		c-1.281-0.261-2.667-1.708-3.094-3.224C78.841,80.125,79.53,79.096,80.811,79.358z"/>
	<path class="st4" d="M80.514,79.497c1.298,0.261,2.701,1.717,3.137,3.242c0.436,1.525-0.261,2.553-1.551,2.283
		c-1.298-0.261-2.701-1.717-3.137-3.242C78.528,80.255,79.216,79.236,80.514,79.497z"/>
	<path class="st5" d="M80.253,79.706c1.281,0.261,2.667,1.708,3.094,3.224c0.427,1.525-0.261,2.545-1.542,2.283
		s-2.667-1.708-3.094-3.224C78.284,80.473,78.972,79.445,80.253,79.706z"/>
	<path class="st4" d="M80.131,79.837c1.237,0.253,2.579,1.673,2.989,3.181c0.41,1.508-0.261,2.518-1.499,2.266
		c-1.237-0.253-2.579-1.673-2.989-3.181C78.214,80.595,78.885,79.584,80.131,79.837z"/>
	<path class="st5" d="M80.201,80.351c1.046,0.209,2.17,1.412,2.518,2.684c0.349,1.264-0.218,2.126-1.264,1.908
		c-1.046-0.209-2.17-1.412-2.518-2.684C78.589,80.996,79.155,80.142,80.201,80.351z"/>
	<path class="st6" d="M80.366,80.708c0.837,0.174,1.743,1.133,2.022,2.152c0.279,1.02-0.174,1.708-1.02,1.534
		c-0.837-0.174-1.743-1.133-2.022-2.152C79.068,81.231,79.53,80.543,80.366,80.708z"/>
	<path class="st7" d="M80.567,81.013c0.68,0.139,1.412,0.915,1.638,1.743c0.227,0.828-0.148,1.377-0.828,1.237
		c-0.68-0.139-1.412-0.915-1.638-1.743C79.521,81.432,79.887,80.874,80.567,81.013z"/>
	<path class="st6" d="M80.68,81.458c0.497,0.105,1.037,0.671,1.203,1.281c0.166,0.61-0.105,1.011-0.601,0.915
		c-0.497-0.105-1.037-0.671-1.203-1.281C79.904,81.772,80.175,81.362,80.68,81.458z"/>
	<path class="st8" d="M80.846,82.155c0.157,0.035,0.322,0.209,0.375,0.401c0.052,0.192-0.035,0.314-0.192,0.288
		c-0.157-0.035-0.322-0.209-0.375-0.401C80.61,82.251,80.689,82.12,80.846,82.155z"/>
	<path class="st8" d="M80.924,81.676c0.087,0.017,0.174,0.113,0.209,0.218c0.026,0.105-0.017,0.174-0.105,0.157
		c-0.087-0.017-0.174-0.113-0.209-0.218C80.793,81.728,80.837,81.658,80.924,81.676z"/>
	<path class="st8" d="M80.323,81.719c0.087,0.017,0.174,0.113,0.209,0.218c0.026,0.105-0.017,0.174-0.105,0.157
		c-0.087-0.017-0.174-0.113-0.209-0.218C80.192,81.772,80.236,81.702,80.323,81.719z"/>
	<path class="st8" d="M80.323,82.373c0.087,0.017,0.174,0.113,0.209,0.218c0.026,0.105-0.017,0.174-0.105,0.157
		c-0.087-0.017-0.174-0.113-0.209-0.218C80.192,82.425,80.236,82.355,80.323,82.373z"/>
	<path class="st8" d="M80.889,82.965c0.087,0.017,0.174,0.113,0.209,0.218c0.026,0.105-0.017,0.174-0.105,0.157
		c-0.087-0.017-0.174-0.113-0.209-0.218C80.758,83.018,80.802,82.948,80.889,82.965z"/>
	<path class="st8" d="M81.525,82.965c0.087,0.017,0.174,0.113,0.209,0.218c0.026,0.105-0.017,0.174-0.105,0.157
		c-0.087-0.017-0.174-0.113-0.209-0.218C81.395,83.018,81.438,82.948,81.525,82.965z"/>
	<path class="st8" d="M81.525,82.321c0.087,0.017,0.174,0.113,0.209,0.218c0.026,0.105-0.017,0.174-0.105,0.157
		c-0.087-0.017-0.174-0.113-0.209-0.218C81.395,82.373,81.438,82.303,81.525,82.321z"/>
</g>
<g id="Body">
	<path class="st6" d="M88.95,86.608c-0.636,0.288-0.828,0.148-0.828,0.148l-3.756-1.891c0.148-1.333-0.349-2.588-0.349-2.588
		c-0.349-1.717-1.194-2.414-1.194-2.414l-2.501-1.394c-0.41-0.261-0.898-0.087-0.898-0.087c-0.549,0.41-0.871,1.595-0.871,1.595
		l-0.026,1.769l-1.107-0.671v-4.941c-0.026-0.497,0.2-0.549,0.2-0.549l0.462-0.322L77.935,66.4c-0.061-0.932,0.41-1.133,0.41-1.133
		v-2.701l1.917-1.133V60.3l5.899-3.399l0.758,0.697l0.871-0.436l2.64,2.85l4.941,2.876c0.523,0.061,1.455,2.03,1.455,2.03
		l0.07,0.131l0.732,2.484l-0.017,0.148l0.906,4.444v5.342l-0.322,0.261v0.261c0.723,0.061,0.636,0.497,0.636,0.497v2.379
		L88.95,86.608z"/>
	<path class="st21" d="M98.134,76.212l-0.898,0.479c-0.349,0.131-0.305,0.392-0.305,0.392l-0.288,1.133l-0.174,0.2l-5.167,2.989
		c-0.479,0.2-0.505,0-0.505,0l-0.244-0.593c-0.131-0.305-0.305-0.157-0.305-0.157l-0.723,0.436
		c-0.436,0.183-0.418-0.113-0.418-0.113v-1.63c0.044-0.68,0.436-0.81,0.436-0.81l8.418-4.854c0.331-0.113,0.392,0.131,0.392,0.131
		v2.03C98.352,76.125,98.134,76.212,98.134,76.212z"/>
	<path class="st21" d="M97.158,81.632l-6.431,3.704c-0.331,0.279-0.479,0-0.479,0l0.009-1.368c-0.07-0.436,0.244-0.61,0.244-0.61
		l6.387-3.555c0.261-0.192,0.331,0.087,0.331,0.087v1.595L97.158,81.632z"/>
	<path class="st8" d="M98.509,72.142l-10.108,5.725c-0.932,0.087-1.246-0.697-1.246-0.697l-0.636-3.852
		c0.462,0.375,1.046,0.279,1.046,0.279l10.047-5.899L98.509,72.142z"/>
	<path class="st22" d="M98.509,72.003l-10.152,5.734c-0.932,0.087-1.115-0.767-1.115-0.767l-0.636-3.573
		c0.462,0.375,1.046,0,1.046,0l9.96-5.699L98.509,72.003z"/>
	<path class="st8" d="M97.96,75.367l-8.488,4.819v-0.113v-0.148c-0.026-0.235,0.174-0.305,0.174-0.305l8.148-4.645
		c0.218-0.148,0.244,0,0.244,0v0.261L97.96,75.367z"/>
	<path class="st8" d="M97.969,75.881l-0.131,0.105l-8.305,4.758h-0.131v-0.261l0.07-0.113l8.496-4.767
		C98.126,75.75,97.969,75.881,97.969,75.881z"/>
	<path class="st8" d="M96.392,77.571l-5.185,3.041h-0.2h-0.148v-0.105v-0.131l0.148-0.192l5.42-2.989h0.105h0.087
		C96.705,77.432,96.392,77.571,96.392,77.571z"/>
	<polygon class="st8" points="96.008,78.286 91.477,80.961 91.346,80.961 91.346,80.848 91.451,80.743 95.895,78.112 95.999,78.059 
		96.095,78.059 96.095,78.173 	"/>
	<polygon class="st8" points="96.941,80.194 96.941,80.334 96.871,80.456 90.754,83.907 90.666,83.907 90.605,83.732 90.666,83.645 
		96.775,80.125 	"/>
	<polygon class="st8" points="96.941,80.769 96.941,80.909 96.871,81.031 90.754,84.482 90.666,84.482 90.605,84.307 90.666,84.22 
		96.775,80.7 	"/>
	<polygon class="st8" points="96.923,81.336 96.923,81.484 96.853,81.597 90.736,85.057 90.649,85.057 90.588,84.883 90.649,84.795 
		96.758,81.275 	"/>
	<polygon class="st20" points="94.213,76.195 94.57,76.003 94.57,76.587 94.213,76.787 	"/>
	<polygon class="st20" points="93.76,76.473 94.117,76.282 94.117,76.866 93.76,77.057 	"/>
	<polygon class="st20" points="93.315,76.717 93.681,76.517 93.681,77.11 93.315,77.301 	"/>
	<polygon class="st20" points="92.836,76.979 93.202,76.787 93.202,77.371 92.836,77.563 	"/>
</g>
<polygon class="st8" points="82.039,70.53 82.039,74.077 86.51,76.439 85.882,72.622 "/>
<polygon class="st23" points="82.144,70.591 82.144,74.033 86.51,76.395 85.891,72.578 "/>
<path class="st24" d="M88.296,73.075c-0.985,0.584-1.115,0.532-1.115,0.532l-0.828-0.2l-0.096-0.837v-0.261
	c0.68,0.131,1.115-0.044,1.115-0.044l9.978-5.751h0.131l0.288,0.915c0.044,0.261-0.139,0.288-0.139,0.288L88.296,73.075z"/>
<path class="st25" d="M86.03,72.264c0.627,0.471,1.333,0,1.333,0l9.978-5.751c0.052-0.61-0.514-1.569-0.514-1.569
	c0.061,0.105-0.087,0.314-0.087,0.314l-9.647,5.377c-0.549,0.462-0.985,0.2-0.985,0.2h-0.218L86.03,72.264z"/>
<polygon class="st25" points="86.248,72.439 78.615,68.151 78.615,67.698 86.135,71.968 "/>
<path class="st26" d="M89.063,77.345c-0.732,0.444-0.845,0.2-0.845,0.2l-0.27-1.229h0.2c0.662,0.044,2.954-1.412,2.954-1.412
	l0.54-0.261c1.054-0.026,1.699-0.27,1.699-0.27l5.045-2.902l0.07,0.462L89.063,77.345z"/>
<path class="st27" d="M98.378,71.55l0.052,0.27l-4.305,2.658c0.453-1.429,0.087-2.405,0.087-2.405
	c-0.331-0.871-0.27-1.874-0.27-1.874l3.721-2.161L98.378,71.55z"/>
<path class="st27" d="M88.836,77.458l-0.959-3.852l0.671-0.444c0.218-0.087,0.305,0,0.305,0l1.656,3.233L88.836,77.458z"/>
<path class="st27" d="M88.68,77.554c-0.357,0.174-0.488,0-0.488,0l-0.81-3.695c0.235-0.453,0.322,0,0.322,0L88.68,77.554z"/>
<path class="st8" d="M85.264,77.301c-0.349-0.044-0.305-0.514-0.305-0.514l0.244-0.113l0.035,0.375
	c0.244,0.044,0.793-0.375,0.793-0.375h0.227v0.113C85.734,77.249,85.264,77.301,85.264,77.301z"/>
<path class="st28" d="M84.845,72.16h-0.148c0.026,0.279-0.593,0.235-0.593,0.235v2.675l0.584,0.192l0.828-1.847l-0.017-0.366
	l-0.192-0.261C84.793,72.456,84.845,72.16,84.845,72.16L84.845,72.16z"/>
<path class="st29" d="M85.569,76.482l-1.081,0.627l-0.122-0.044v-2.919c0.174-0.305,1.142-0.741,1.142-0.741
	c0.113,0.07,0.166,0.227,0.166,0.227L85.569,76.482z"/>
<path class="st30" d="M85.682,76.526l-1.089,0.593h-0.113v-2.919c0.174-0.305,1.089-0.697,1.089-0.697
	c0.113,0.07,0.113,0.235,0.113,0.235V76.526z"/>
<path class="st8" d="M85.133,73.127l-0.026,0.488l-0.157,0.052v-0.532c0.68-0.776,1.072-0.532,1.072-0.532v0.192
	C85.569,72.657,85.133,73.127,85.133,73.127z"/>
<polygon class="st20" points="88.296,78.059 88.296,86.791 88.68,86.721 88.68,77.876 "/>
<path class="st31" d="M89.141,83.384c-0.741,0.462-1.02,0.235-1.02,0.235l-2.832-1.455c-0.985-3.948-3.547-4.706-3.547-4.706
	c2.937,0.959,3.747,4.557,3.747,4.557l2.091,1.15c0.61,0.305,1.098,0,1.098,0l9.507-5.411l0.061,0.418L89.141,83.384z"/>
<path class="st20" d="M95.66,63.08l0.322,0.288c1.22,2.152,0.584,1.83,0.584,1.83c0.113-0.261-0.61-1.455-0.61-1.455l-9.934,5.525
	H85.29c0.584,0.235,0.959,0.985,0.959,0.985c0.375,0.584,0.636,0.497,0.636,0.497l-0.261,0.131h-0.375l-0.357-0.052
	c-0.157-0.854-0.941-1.473-0.941-1.473l-6.074-3.625c-0.758-0.436-0.81,0.2-0.81,0.2c-0.061-0.497,0.288-0.636,0.288-0.636
	c1.246-0.026,7.677,2.414,7.677,2.414l7.52-4.331v-0.288l-0.174,0.148l-7.119-6.126l6.074,5.028L90.3,59.96L95.66,63.08z"/>
<polygon class="st20" points="78.266,62.766 79.05,62.33 85.49,67.123 "/>
<polygon class="st32" points="80.27,61.633 80.27,60.326 85.586,67.123 "/>
<path class="st7" d="M86.022,67.698c-6.405-2.937-6.692-2.858-6.692-2.858c0.392-0.392,4.427,1.673,4.427,1.673l2.266,0.985
	l7.52-4.418v0.288L86.022,67.698z"/>
<polygon class="st33" points="86.597,79.637 78.615,75.105 78.615,74.338 86.597,78.809 "/>
<polygon class="st17" points="86.597,79.759 78.615,75.227 78.615,75.105 86.597,79.637 "/>
<polygon class="st2" points="82.039,76.395 82.039,76.787 82.954,77.301 82.954,76.909 "/>
<path class="st3" d="M78.615,73.903l2.004,1.203h0.244v-4.078l-0.174-0.139l-1.725-1.037h-0.261L78.615,73.903z M78.754,73.72
	l0.078-3.538h0.227l1.508,0.906l0.148,0.122v3.555h-0.209L78.754,73.72z"/>
<path class="st3" d="M78.981,73.441l1.351,0.81h0.166v-2.745l-0.113-0.096l-1.159-0.697H79.05L78.981,73.441z M79.077,73.319
	l0.052-2.388h0.157l1.011,0.61l0.105,0.087v2.396h-0.139L79.077,73.319z"/>
<path class="st20" d="M88.296,84.316v0.166l-3.669-1.996c-0.784-2.963-1.76-3.486-1.76-3.486l-5.429-3.137l0.07-0.131l5.603,3.172
	c1.028,0.802,1.699,3.512,1.699,3.512L88.296,84.316L88.296,84.316z"/>
<polygon class="st33" points="87.05,84.482 85.508,83.471 85.508,83.297 85.603,83.166 87.05,84.055 "/>
<path class="st17" d="M85.508,83.471c-0.54,0.026-0.549,0.357-0.549,0.357l2.091,1.229v-0.575L85.508,83.471z"/>
<path class="st34" d="M97.655,79.332l0.044,1.081l0.941-0.532v-1.02L97.655,79.332z M97.707,79.367l0.863-0.41v0.898l-0.828,0.471
	L97.707,79.367z"/>
<path class="st34" d="M88.819,84.377l0.044,1.081l0.941-0.532v-1.02L88.819,84.377z M88.88,84.412l0.863-0.41V84.9l-0.828,0.471
	L88.88,84.412z"/>
<path class="st34" d="M97.707,80.569v0.627l0.863-0.453v-0.636L97.707,80.569z M97.777,80.595l0.706-0.375v0.523l-0.706,0.366
	V80.595z"/>
<path class="st34" d="M88.88,85.641v0.627l0.863-0.453v-0.636L88.88,85.641z M88.95,85.667l0.706-0.375v0.523l-0.706,0.366V85.667z"
	/>
<polygon class="st7" points="77.377,81.031 77.029,80.848 77.029,77.728 77.403,77.598 "/>
<polygon class="st7" points="54.328,65.363 53.936,65.363 53.936,62.984 54.328,63.228 "/>
<polygon class="st3" points="74.458,72.247 64.759,66.74 64.759,66.513 74.458,72.055 "/>
<polygon class="st3" points="74.458,72.927 64.759,67.411 64.759,67.193 74.458,72.735 "/>
<polygon class="st3" points="74.458,73.598 64.759,68.09 64.759,67.864 74.458,73.415 "/>
<polygon class="st3" points="63.165,65.912 53.457,60.405 53.457,60.178 63.165,65.729 "/>
<polygon class="st3" points="63.165,66.592 53.457,61.084 53.457,60.858 63.165,66.4 "/>
<polygon class="st3" points="63.165,67.263 53.457,61.755 53.457,61.529 63.165,67.08 "/>
<polygon class="st3" points="52.089,59.673 42.39,54.157 42.39,53.939 52.089,59.481 "/>
<polygon class="st3" points="52.089,60.352 42.39,54.836 42.39,54.618 52.089,60.161 "/>
<polygon class="st3" points="52.089,61.023 42.39,55.516 42.39,55.289 52.089,60.832 "/>
<polygon class="st3" points="40.83,53.294 31.131,47.778 31.131,47.56 40.83,53.102 "/>
<polygon class="st3" points="40.83,53.974 31.131,48.457 31.131,48.24 40.83,53.782 "/>
<polygon class="st3" points="40.83,54.645 31.131,49.137 31.131,48.911 40.83,54.453 "/>
<polygon class="st3" points="29.563,46.941 19.864,41.434 19.864,41.207 29.563,46.758 "/>
<polygon class="st3" points="29.563,47.621 19.864,42.114 19.864,41.887 29.563,47.438 "/>
<polygon class="st3" points="29.563,48.292 19.864,42.785 19.864,42.558 29.563,48.109 "/>
<g>
	<polygon class="st3" points="70.894,69.737 71.173,69.903 71.173,69.703 70.894,69.537 	"/>
	<polygon class="st3" points="71.417,70.034 71.739,70.225 71.739,70.025 71.417,69.842 	"/>
	<polygon class="st3" points="69.596,69.005 69.918,69.188 69.918,68.988 69.596,68.796 	"/>
	<polygon class="st3" points="70.162,69.328 70.65,69.607 70.65,69.406 70.162,69.127 	"/>
	<polygon class="st3" points="71.983,70.356 72.428,70.618 72.428,70.417 71.983,70.164 	"/>
	<polygon class="st3" points="72.663,70.748 72.951,70.914 72.951,70.722 72.663,70.557 	"/>
	<polygon class="st3" points="73.517,71.045 73.186,70.853 73.186,71.045 73.517,71.228 	"/>
	<polygon class="st3" points="69.073,68.709 69.352,68.866 69.352,68.666 69.073,68.5 	"/>
	<polygon class="st3" points="66.084,67.01 66.415,67.202 66.415,66.984 66.084,66.792 	"/>
	<polygon class="st3" points="65.561,66.714 65.849,66.879 65.849,66.661 65.561,66.496 	"/>
	<polygon class="st3" points="73.752,71.367 74.319,71.689 74.319,71.506 73.752,71.175 	"/>
	<polygon class="st3" points="68.393,68.326 68.829,68.57 68.829,68.361 68.393,68.117 	"/>
	<polygon class="st3" points="64.62,65.955 64.62,66.182 65.326,66.583 65.326,66.356 	"/>
	<polygon class="st3" points="67.827,68.003 68.158,68.186 68.158,67.977 67.827,67.794 	"/>
	<polygon class="st3" points="66.65,67.332 67.068,67.568 67.068,67.358 66.65,67.114 	"/>
	<polygon class="st3" points="67.304,67.707 67.591,67.864 67.591,67.655 67.304,67.489 	"/>
</g>
<g>
	<polygon class="st3" points="59.731,63.454 60.019,63.611 60.019,63.411 59.731,63.254 	"/>
	<polygon class="st3" points="60.254,63.751 60.585,63.934 60.585,63.742 60.254,63.55 	"/>
	<polygon class="st3" points="58.433,62.714 58.764,62.906 58.764,62.696 58.433,62.513 	"/>
	<polygon class="st3" points="58.999,63.036 59.496,63.315 59.496,63.115 58.999,62.836 	"/>
	<polygon class="st3" points="60.82,64.073 61.265,64.326 61.265,64.134 60.82,63.873 	"/>
	<polygon class="st3" points="61.509,64.465 61.788,64.622 61.788,64.43 61.509,64.265 	"/>
	<polygon class="st3" points="62.354,64.753 62.032,64.57 62.032,64.762 62.354,64.945 	"/>
	<polygon class="st3" points="57.91,62.418 58.197,62.583 58.197,62.374 57.91,62.217 	"/>
	<polygon class="st3" points="54.93,60.727 55.252,60.91 55.252,60.692 54.93,60.509 	"/>
	<polygon class="st3" points="54.407,60.431 54.686,60.588 54.686,60.37 54.407,60.204 	"/>
	<polygon class="st3" points="62.598,65.084 63.165,65.398 63.165,65.215 62.598,64.892 	"/>
	<polygon class="st3" points="57.239,62.034 57.675,62.287 57.675,62.078 57.239,61.825 	"/>
	<polygon class="st3" points="53.457,59.673 53.457,59.89 54.163,60.291 54.163,60.073 	"/>
	<polygon class="st3" points="56.673,61.712 56.995,61.903 56.995,61.694 56.673,61.503 	"/>
	<polygon class="st3" points="55.496,61.049 55.906,61.285 55.906,61.067 55.496,60.832 	"/>
	<polygon class="st3" points="56.15,61.415 56.429,61.581 56.429,61.363 56.15,61.206 	"/>
</g>
<g>
	<polygon class="st3" points="48.664,57.119 48.943,57.285 48.943,57.084 48.664,56.919 	"/>
	<polygon class="st3" points="49.187,57.416 49.509,57.607 49.509,57.407 49.187,57.224 	"/>
	<polygon class="st3" points="47.366,56.387 47.688,56.57 47.688,56.37 47.366,56.178 	"/>
	<polygon class="st3" points="47.932,56.71 48.42,56.989 48.42,56.779 47.932,56.501 	"/>
	<polygon class="st3" points="49.753,57.738 50.198,57.991 50.198,57.799 49.753,57.546 	"/>
	<polygon class="st3" points="50.433,58.13 50.721,58.287 50.721,58.095 50.433,57.938 	"/>
	<polygon class="st3" points="51.287,58.418 50.956,58.235 50.956,58.426 51.287,58.609 	"/>
	<polygon class="st3" points="46.843,56.091 47.122,56.248 47.122,56.039 46.843,55.882 	"/>
	<polygon class="st3" points="43.854,54.392 44.185,54.575 44.185,54.366 43.854,54.174 	"/>
	<polygon class="st3" points="43.331,54.096 43.619,54.252 43.619,54.035 43.331,53.878 	"/>
	<polygon class="st3" points="51.522,58.749 52.089,59.071 52.089,58.88 51.522,58.557 	"/>
	<polygon class="st3" points="46.163,55.708 46.599,55.952 46.599,55.742 46.163,55.498 	"/>
	<polygon class="st3" points="42.39,53.337 42.39,53.564 43.096,53.956 43.096,53.738 	"/>
	<polygon class="st3" points="45.597,55.385 45.928,55.568 45.928,55.359 45.597,55.167 	"/>
	<polygon class="st3" points="44.42,54.714 44.839,54.949 44.839,54.732 44.42,54.496 	"/>
	<polygon class="st3" points="45.074,55.089 45.362,55.246 45.362,55.037 45.074,54.871 	"/>
</g>
<g>
	<polygon class="st3" points="37.397,50.81 37.684,50.976 37.684,50.775 37.397,50.61 	"/>
	<polygon class="st3" points="37.92,51.107 38.251,51.298 38.251,51.098 37.92,50.915 	"/>
	<polygon class="st3" points="36.098,50.078 36.43,50.261 36.43,50.061 36.098,49.869 	"/>
	<polygon class="st3" points="36.665,50.401 37.162,50.68 37.162,50.479 36.665,50.2 	"/>
	<polygon class="st3" points="38.486,51.429 38.931,51.682 38.931,51.49 38.486,51.237 	"/>
	<polygon class="st3" points="39.175,51.821 39.453,51.987 39.453,51.795 39.175,51.629 	"/>
	<polygon class="st3" points="40.02,52.117 39.697,51.926 39.697,52.117 40.02,52.3 	"/>
	<polygon class="st3" points="35.576,49.782 35.863,49.939 35.863,49.738 35.576,49.573 	"/>
	<polygon class="st3" points="32.595,48.083 32.918,48.274 32.918,48.057 32.595,47.865 	"/>
	<polygon class="st3" points="32.072,47.786 32.351,47.952 32.351,47.734 32.072,47.569 	"/>
	<polygon class="st3" points="40.264,52.44 40.83,52.762 40.83,52.579 40.264,52.248 	"/>
	<polygon class="st3" points="34.905,49.399 35.34,49.643 35.34,49.433 34.905,49.189 	"/>
	<polygon class="st3" points="31.131,47.028 31.131,47.255 31.829,47.656 31.829,47.429 	"/>
	<polygon class="st3" points="34.338,49.076 34.661,49.259 34.661,49.05 34.338,48.867 	"/>
	<polygon class="st3" points="33.162,48.405 33.571,48.64 33.571,48.431 33.162,48.187 	"/>
	<polygon class="st3" points="33.815,48.78 34.094,48.937 34.094,48.728 33.815,48.562 	"/>
</g>
<g>
	<polygon class="st3" points="26.138,44.327 26.417,44.484 26.417,44.292 26.138,44.127 	"/>
	<polygon class="st3" points="26.661,44.623 26.983,44.806 26.983,44.615 26.661,44.423 	"/>
	<polygon class="st3" points="24.84,43.586 25.162,43.778 25.162,43.569 24.84,43.386 	"/>
	<polygon class="st3" points="25.406,43.909 25.894,44.188 25.894,43.987 25.406,43.708 	"/>
	<polygon class="st3" points="27.227,44.946 27.672,45.198 27.672,45.007 27.227,44.745 	"/>
	<polygon class="st3" points="27.907,45.338 28.195,45.495 28.195,45.303 27.907,45.146 	"/>
	<polygon class="st3" points="28.761,45.625 28.43,45.442 28.43,45.634 28.761,45.817 	"/>
	<polygon class="st3" points="24.317,43.29 24.596,43.456 24.596,43.246 24.317,43.09 	"/>
	<polygon class="st3" points="21.328,41.599 21.659,41.782 21.659,41.565 21.328,41.382 	"/>
	<polygon class="st3" points="20.805,41.303 21.093,41.46 21.093,41.242 20.805,41.085 	"/>
	<polygon class="st3" points="28.996,45.957 29.563,46.279 29.563,46.087 28.996,45.765 	"/>
	<polygon class="st3" points="23.637,42.907 24.073,43.159 24.073,42.95 23.637,42.697 	"/>
	<polygon class="st3" points="19.864,40.545 19.864,40.763 20.57,41.164 20.57,40.946 	"/>
	<polygon class="st3" points="23.071,42.584 23.402,42.776 23.402,42.567 23.071,42.375 	"/>
	<polygon class="st3" points="21.894,41.922 22.313,42.157 22.313,41.939 21.894,41.704 	"/>
	<polygon class="st3" points="22.548,42.288 22.836,42.453 22.836,42.236 22.548,42.079 	"/>
</g>
</svg>
