<?xml version="1.0" encoding="utf-8"?>
<!-- Generator: Adobe Illustrator 16.0.0, SVG Export Plug-In . SVG Version: 6.00 Build 0)  -->
<!DOCTYPE svg PUBLIC "-//W3C//DTD SVG 1.1//EN" "http://www.w3.org/Graphics/SVG/1.1/DTD/svg11.dtd">
<svg version="1.1" id="Layer_1" xmlns="http://www.w3.org/2000/svg" xmlns:xlink="http://www.w3.org/1999/xlink" x="0px" y="0px"
	 width="200px" height="200px" viewBox="0 0 200 200" enable-background="new 0 0 200 200" xml:space="preserve">
<polygon fill="#666666" points="128.796,94.394 128.796,99.388 121.657,97.67 "/>
<polygon points="128.796,94.812 128.796,99.271 129.279,99.388 129.279,94.394 "/>
<g id="Tire_2_2_">
	<path d="M123.512,104.828c0,0-3.582,0.221-6.078-2.072c0,0-2.488-4.565,2.006-7.111c0,0,3.832-0.717,6.371,1.18
		C128.377,98.721,123.512,104.828,123.512,104.828z"/>
	<path fill="#333333" d="M127.135,101.176c-0.525,2.303-2.384,3.918-4.145,3.623c-1.762-0.297-2.762-2.416-2.239-4.713
		c0.532-2.304,2.384-3.93,4.146-3.626C126.663,96.754,127.663,98.866,127.135,101.176z"/>
	<path fill="#999999" d="M124.791,97.593c-1.296-0.219-2.659,0.973-3.036,2.662c-0.387,1.688,0.353,3.239,1.642,3.462
		c1.291,0.221,2.648-0.967,3.039-2.666C126.823,99.363,126.091,97.819,124.791,97.593z M125.68,101.035
		c-0.179,0.764-0.789,1.304-1.379,1.211c-0.583-0.104-0.914-0.803-0.736-1.568c0.174-0.767,0.785-1.303,1.369-1.212
		C125.523,99.566,125.852,100.271,125.68,101.035z"/>
	<path fill="#FFFFFF" d="M122.979,98.574c0,0,0.75,0.27,1.119,0.886l-0.318,0.245c0,0-0.694-0.892-1.117-0.922L122.979,98.574z"/>
	
		<animateTransform  type="translate" fill="remove" attributeName="transform" dur="1" calcMode="linear" restart="always" values="0,0;0.1,0.1;0,0" begin="0s" additive="replace" repeatCount="indefinite" accumulate="none" attributeType="XML">
		</animateTransform>
</g>
<g id="container">
	<polygon fill="#333333" points="88.045,108.822 105.339,101.516 105.339,102.26 104.521,102.732 104.605,106.043 87.279,113.838 
		87.168,109.35 	"/>
	<polygon fill="#666666" points="91.043,110.451 108.336,103.143 108.336,103.886 107.52,104.361 107.602,107.672 90.283,115.455 
		90.17,110.967 	"/>
	<path fill="#999999" d="M69.301,89.307V76.173c0,0-0.25-2.264,1.019-3.174l40.297-15.157l1.291,0.377l23.742,9.186
		c0,0,2.086,0.106,1.225,2.325l-1.709,22.568l-41.918,17.884L69.301,89.307z"/>
	<polygon points="69.913,75.336 91.934,85.355 92.446,107.672 71.457,92.803 69.913,91.055 	"/>
	<polygon fill="#666666" points="70.585,76.173 91.561,85.822 92.016,106.75 71.167,92.168 69.66,90.529 	"/>
	<polygon fill="#333333" points="92.987,84.928 93.456,107.994 133.285,91.538 135.484,69.52 	"/>
	<polygon fill="#CCCCCC" points="93.351,85.292 93.799,107.672 132.963,91.492 135.133,69.834 	"/>
	
		<animateTransform  type="translate" fill="remove" attributeName="transform" dur="1" calcMode="linear" restart="always" values="0,0;-0.1,-0.2;0,0" begin="0s" additive="replace" repeatCount="indefinite" accumulate="none" attributeType="XML">
		</animateTransform>
</g>
<g>
	<path d="M90.028,115.922l-8.202-2.473c0,0,2.418-3.723,6.261-3.42C88.087,110.027,90.244,110.641,90.028,115.922z"/>
	<polygon points="91.842,110.99 106.266,104.844 91.842,111.396 	"/>
	<polygon points="106.266,104.994 106.266,107.443 92.792,113.359 106.128,107.303 	"/>
	<polygon fill="#999999" points="104.154,106.205 103.156,108.428 102.078,109.145 103.37,106.576 	"/>
	
		<animateTransform  type="translate" fill="remove" attributeName="transform" dur="1" calcMode="linear" restart="always" values="0,0;-0.1,-0.2;0,0" begin="0s" additive="replace" repeatCount="indefinite" accumulate="none" attributeType="XML">
		</animateTransform>
</g>
<g id="Tire_2_1_">
	<path d="M85.359,121.057c0,0-3.581,0.221-6.074-2.072c0,0-2.492-4.563,2.008-7.112c0,0,3.827-0.722,6.373,1.187
		C90.221,114.955,85.359,121.057,85.359,121.057z"/>
	<path fill="#333333" d="M88.98,117.402c-0.523,2.303-2.381,3.926-4.145,3.625s-2.765-2.412-2.239-4.709
		c0.526-2.31,2.383-3.928,4.146-3.629C88.506,112.99,89.51,115.096,88.98,117.402z"/>
	<path fill="#999999" d="M86.64,113.824c-1.294-0.223-2.651,0.967-3.039,2.662c-0.387,1.69,0.353,3.242,1.639,3.459
		c1.297,0.217,2.657-0.971,3.038-2.662C88.671,115.588,87.934,114.045,86.64,113.824z M87.531,117.262
		c-0.177,0.764-0.795,1.309-1.384,1.209c-0.583-0.1-0.913-0.803-0.742-1.57c0.177-0.77,0.793-1.303,1.379-1.205
		C87.371,115.795,87.705,116.494,87.531,117.262z"/>
	<path fill="#FFFFFF" d="M84.825,114.801c0,0,0.749,0.271,1.118,0.883l-0.322,0.254c0,0-0.693-0.893-1.108-0.926L84.825,114.801z"/>
	
		<animateTransform  type="translate" fill="remove" attributeName="transform" dur="1" calcMode="linear" restart="always" values="0,0;0.1,0.1;0,0" begin="0s" additive="replace" repeatCount="indefinite" accumulate="none" attributeType="XML">
		</animateTransform>
</g>
<g id="Body_1_">
	<g>
		<path fill="#CCCCCC" d="M57.363,103.223v4.283c0,0,1.76,6.566,15.646,10.369c0,0,0.548,0.479,8.263-2.854
			c0,0,0.222-4.088,7.383-5.14l0.548-0.569c0,0,1.547-11.228-0.768-13.798l-1.873-1.142c0,0,0.771-4.094-1.542-4.849
			c0,0-1.323-6.375-2.647-6.663l-7.795-3.303l-5.866,8.066c0,0-1.761,0.568-4.299,2.946c0,0-3.85,0.763-4.4,2.666
			C60.008,93.227,58.352,94.942,57.363,103.223z"/>
		<path d="M57.363,103.223c0,0,0.155-6.164,2.978-10.756h0.771l13.993,7.899v0.571l-1.57,9.899c0,0-0.418,1.425-4.603,0
			C68.93,110.828,60.119,105.6,57.363,103.223z"/>
		<path fill="#333333" d="M57.542,102.993c0,0,0.12-6.021,2.85-10.193h0.663l13.688,7.604v0.513l-1.52,8.992
			c0,0-0.402,1.301-4.463,0C68.761,109.908,60.213,105.154,57.542,102.993z"/>
		<path d="M76.313,102.549l-1.209,6.762c0,0-0.554,2.09,1.209,1.142l8.593-6.666c0,0,0.888-0.476,0-4.377h-0.66
			C84.245,99.413,78.515,100.744,76.313,102.549z"/>
		<path opacity="0.5" fill="#666666" enable-background="new    " d="M76.809,102.439l-1.093,6.338c0,0-0.495,1.613,1.09,0.723
			l7.747-5.9c0,0,0.797-0.188,0-3.851l-0.696,0.045C83.858,99.794,78.796,100.736,76.809,102.439z"/>
		<path d="M59.09,107.027c0,0-0.106,0.727-0.032,1.521c0,0,3.269,3.81,9.325,6.187c0,0,0.843-0.639,0-1.713
			C68.377,113.021,63.458,111.305,59.09,107.027z"/>
		<path fill="#333333" d="M59.243,107.332c0,0-0.042,0.529,0.029,1.264c0,0,3.114,3.689,9.017,5.894c0,0,0.617-0.466-0.205-1.476
			C68.083,113.021,63.496,111.311,59.243,107.332z"/>
		<path fill="#333333" d="M58.898,108.811c0,0-0.102,0.707-0.025,1.482c0,0,3.175,3.717,9.068,6.033c0,0,0.822-0.625,0-1.674
			C67.944,114.648,63.157,112.982,58.898,108.811z"/>
		<path d="M78.788,101.223c0,0,1.833,0.601,2.205,3.572c0,0-1.108-0.479-1.021,0.615l-3.329-1.616v0.569l3.25,1.664l0.056,2.783
			l0.21,0.217h1.718l0.333-0.217v-3.306v-0.385l-0.773-0.326c0,0-0.273-2.826-2.256-3.717L78.788,101.223z"/>
		<path d="M58.265,97.863c0,0-1.488-3.496-0.535-5.396c0,0,0.646-0.127,0.799,0.762c0,0-0.464,1.79,0.21,2.831L58.265,97.863z"/>
		<path d="M57.494,107.432c0,0-0.166-0.17-0.387,0.764l0.054,2.437c0,0,10.024,8.476,14.356,9.427c0,0,3.949,1.008,8.77-1.597
			l0.49-0.312c0,0,1.174-6.055,7.341-7.346v-0.885c0,0-4.775,0.236-7.341,5.18l-7.644,2.695l-0.803-0.227
			c0,0-6.716-0.892-13.461-7.752l-1.026-1.531L57.494,107.432z"/>
		<path opacity="0.75" fill="#999999" enable-background="new    " d="M68.753,116.529c0,0-0.743-0.951,2.636-2.568
			c0,0,2.754-0.289,3.854,0c0,0,0.515,0.254,0.481,0.984l-0.359,2.088c0,0-1.316,0.568-2.226,0.773
			C73.14,117.807,71.25,117.656,68.753,116.529z"/>
		<path fill="#FFFFFF" d="M74.695,115.229c0,0-0.12,1.938-1.164,2.064c0,0,1.992,0.291,1.488-1.779L74.695,115.229z"/>
		<path opacity="0.75" fill="#999999" enable-background="new    " d="M57.363,104.789c0,0,1.64,1.066,1.347,3.822l-0.093,0.649
			h-0.263c0,0-1.058-1.315-0.986-1.762C57.363,107.506,57.106,106.311,57.363,104.789z"/>
		<path fill="#FFFFFF" d="M57.994,106.293c0,0,0.591,1.605,0.146,2.068c0,0,0.89-0.414-0.023-1.719L57.994,106.293z"/>
		<path opacity="0.5" fill="#666666" enable-background="new    " d="M72.843,101.643c0,0-6.403,1.773-10.691,0
			c0,0,1.048-2.315,3.255-2.158c0,0-3.288-0.413-5.396,1.88c0,0,0.725-6.461,2.586-6.575l0.552-0.469l-2.367-1.098
			c0,0-2.535,3.757-2.785,9.71c0,0,9.209,6.178,10.759,6.565c0,0,3.92,1.24,4.09-0.244l1.154-7.29L72.843,101.643z"/>
		<path opacity="0.58" fill="#FFFFFF" enable-background="new    " d="M72.345,99.152c0,0-3.931,4.969-4.463,9.209v0.654
			c0,0,1.048,0.879,2.37,0.752c0,0,1.438-8.886,3.279-10.021L72.345,99.152z"/>
		<path opacity="0.58" fill="#FFFFFF" enable-background="new    " d="M72.095,99.152c0,0-4.044,4.704-4.514,9.659l0.105,0.211
			l-0.706-0.389c0,0,1.593-5.816,4.87-9.481C71.854,99.152,72.095,99.152,72.095,99.152z"/>
		<path opacity="0.58" fill="#FFFFFF" enable-background="new    " d="M71.315,98.721c0,0-4.047,4.707-4.517,9.66l0.104,0.215
			l-0.707-0.385c0,0,1.596-5.828,4.87-9.49C71.068,98.721,71.315,98.721,71.315,98.721z"/>
		<path d="M74.576,79.552l7.795,3.3c0,0,0.698,0.193,0.847,1.05l1.066,5.356l-11.166,5.999l11.533-5.456
			c0,0,1.574-0.011,1.865,1.574l0.043,2.995c0,0,1.602,1.039,1.875,1.142c0,0,0.09,0.353,0.145,1.678l0.626,12.117l0.635-0.889
			l-0.388-12.267c0,0-0.108-1.144-2.242-1.942l0.031-2.532c0,0-0.313-2.261-2.117-2.358l-1.357-5.739c0,0-0.074-1.118-1.721-1.49
			C82.043,82.093,76.63,79.803,74.576,79.552z"/>
		<polygon points="69.204,86.943 66.229,91.039 68.329,87.773 		"/>
		<path d="M86.56,94.367l-9.917,3.496C76.641,97.863,86.506,94.991,86.56,94.367z"/>
		<path d="M74.744,96.891l-9.505-5.186C65.239,91.705,71.87,96.207,74.744,96.891z"/>
		<path d="M74.277,97.863l0.828-0.495c0,0,1.155,0.049,1.048,0.809l-0.939,0.544L74.277,97.863z"/>
		<path d="M62.212,91.705l1.104,0.475l0.771-0.475l-0.933-0.476C63.146,91.229,62.261,91.182,62.212,91.705z"/>
		<path opacity="0.7" fill="#FFFFFF" enable-background="new    " d="M85.297,92.177c0,0-6.705,2.694-7.885,3.46
			C77.415,95.639,84.22,93.44,85.297,92.177z"/>
		<path opacity="0.7" fill="#FFFFFF" enable-background="new    " d="M80.794,84.473c0,0-6.949,7.104-7.26,8.756
			C73.531,93.227,80.72,85.042,80.794,84.473z"/>
		<polygon opacity="0.7" fill="#FFFFFF" enable-background="new    " points="73.998,112.129 73.998,113.527 74.744,113.527 		"/>
		<polygon opacity="0.7" fill="#FFFFFF" enable-background="new    " points="73.113,118.604 73.113,120.24 74.277,120.229 
			74.374,117.896 73.113,118.285 		"/>
		<path opacity="0.65" fill="#666666" enable-background="new    " d="M80.609,101.32l1.357,2.34c0,0,1.616-0.311,1.103,0.668
			c0,0,1.653-0.697,1.506-2.12l-0.404-2.025C84.171,100.171,81.155,100.934,80.609,101.32z"/>
		<path d="M88.122,110.805c0,0,1.578,0.5,1.716,5.213l0.633-0.479c0,0-0.18-4.102-2.349-5.617V110.805z"/>
	</g>
	<polygon points="84.904,109.021 85.297,107.332 86.964,107.027 86.964,107.627 85.297,108.361 	"/>
</g>
<g>
	<rect x="85.907" y="12.181" fill="#FFFFFF" width="27.983" height="33.516"/>
	<rect x="85.907" y="14.389" fill="#FFFFFF" width="27.983" height="33.516"/>
	<path id="parking" fill="#4478BC" d="M112.998,5.911l-28.453,0.42L70.604,30.389L85.11,54.03l28.453-0.417l13.941-24.061
		L112.998,5.911z M101.447,43.194c-0.223,0.157-0.592,0.235-1.116,0.235h-0.604h-7.899H91.37c-0.426,0-0.753-0.089-0.985-0.266
		c-0.229-0.176-0.344-0.428-0.344-0.759c0-0.54,0.235-0.898,0.708-1.066c0.39-0.143,0.619-0.232,0.683-0.266
		c0.063-0.034,0.129-0.106,0.203-0.229c0.14-0.207,0.211-0.541,0.211-1.002v-19.74c0-0.459-0.072-0.794-0.211-1.007
		c-0.074-0.117-0.141-0.191-0.203-0.227c-0.063-0.034-0.297-0.12-0.683-0.266c-0.473-0.172-0.708-0.527-0.708-1.063
		c0-0.329,0.115-0.583,0.344-0.763c0.232-0.178,0.561-0.266,0.985-0.266h0.459h7.886v23.168c0,0.512,0.088,0.879,0.264,1.103
		c0.095,0.134,0.182,0.215,0.266,0.246c0.083,0.034,0.36,0.115,0.819,0.247c0.563,0.146,0.85,0.509,0.85,1.086
		C101.908,42.706,101.754,42.981,101.447,43.194z M109.746,29.572c-0.801,1.271-1.928,2.211-3.371,2.816
		c-1.191,0.487-2.91,0.73-5.156,0.73V31.01c0.51-0.134,0.867-0.271,1.068-0.417c0.209-0.148,0.393-0.367,0.541-0.669
		c0.248-0.515,0.371-1.204,0.371-2.071v-6.31c0-0.616-0.039-1.078-0.123-1.378c-0.084-0.301-0.248-0.576-0.494-0.829
		c-0.344-0.367-0.803-0.597-1.381-0.688v-2.13c2.434,0,4.232,0.258,5.389,0.771c1.332,0.59,2.391,1.496,3.168,2.721
		c0.781,1.253,1.188,2.78,1.188,4.598C110.943,26.621,110.547,28.278,109.746,29.572z"/>
</g>
</svg>
