<?xml version="1.0" encoding="utf-8"?>
<!-- Generator: Adobe Illustrator 16.0.0, SVG Export Plug-In . SVG Version: 6.00 Build 0)  -->
<!DOCTYPE svg PUBLIC "-//W3C//DTD SVG 1.1//EN" "http://www.w3.org/Graphics/SVG/1.1/DTD/svg11.dtd">
<svg version="1.1" id="Layer_1" xmlns="http://www.w3.org/2000/svg" xmlns:xlink="http://www.w3.org/1999/xlink" x="0px" y="0px"
	 width="200px" height="200px" viewBox="0 0 200 200" enable-background="new 0 0 200 200" xml:space="preserve">
<path fill="#494949" d="M80.425,112.807c0,0,10.914-5.135,17.673-11.836l-4.699-7.161l-14.76,6.64l-1.331,7.554
	C77.308,108.004,78.403,112.135,80.425,112.807z"/>
<path fill="#727272" d="M94.556,99.451L85.395,100c0,0,0.633-2.486,0.758-2.528s4.929-1.852,4.929-1.852l2.317-0.169l1.159,1.601
	L94.556,99.451L94.556,99.451z"/>
<path fill="#8E8E8E" d="M78.824,107.921l1.349,0.925l6.298-2.945v-1.518l1.578,0.336l3.16-1.347h3.031l6.233,3.956l3.654-3.032
	l-9.313-5.137H90.87l-2.816,0.336l-3.833,0.592c0,0-4.211,3.368-4.464,3.368C79.503,103.455,78.15,105.729,78.824,107.921z"/>
<path fill="#565656" d="M80.425,112.807c0,0-4.969-2.527,0.338-9.099l12.636-8.424l-2.533-7.188L75.118,98.989
	c0,0-5.612,5.366-0.446,11.36L80.425,112.807z"/>
<path fill="#494949" d="M100.475,123.25l35.634-20.889c0,0,2.673-2.278,0.841-6.99c0,0-0.904-2.505-4.087-1.652l-31.989,18.159
	l-3.306,3.79l-1.181,2.971v1.832l0.886,2.149l0.823,0.634C98.096,123.25,99.835,123.625,100.475,123.25z"/>
<path fill="#8E8E8E" d="M104.127,116.427l24.104-13.772h2.274c0,0,5.288-4.736,3.749-6.569l-2.232-1.644l-31.084,16.933v1.394
	l0.277,2.478C101.213,115.234,103.357,116.869,104.127,116.427z"/>
<path fill="#565656" d="M102.917,111.712c0,0-5.728,3.455-5.98,9.351c0,0,0.506,2.693,3.538,2.188l-1.212,0.438l-1.167-0.271
	l-5.878-2.947c0,0-4.122-5.176,2.022-10.867l3.37-2.188l30.074-17.712l4.959,1.244c0,0,4.31,1.947,4.98,4.001
	c0,0,1.35,5.644-1.516,7.411c0,0,2.453-2.393,0.842-6.988c0,0-0.758-2.357-4.801-0.083c0,0-14.599,7.077-19.303,10.19
	C108.139,108.596,102.917,111.712,102.917,111.712z"/>
<polygon fill="#191919" points="103.914,103.455 110.911,106.84 111.962,106.234 104.773,102.941 "/>
<polygon fill="#191919" points="106.891,101.133 114.051,104.715 115.264,104 107.752,100.624 "/>
<polygon fill="#191919" points="109.807,99.348 117.156,102.941 118.163,102.396 110.664,98.839 "/>
<polygon fill="#191919" points="112.969,97.966 120.168,101.352 121.17,100.801 113.826,97.455 "/>
<polygon fill="#191919" points="116.219,96.258 123.421,99.645 124.266,99.041 117.079,95.749 "/>
<polygon fill="#191919" points="119.275,94.825 126.236,98.211 127.318,97.605 120.137,94.315 "/>
<polygon fill="#191919" points="122.186,93.184 129.389,96.569 130.422,96.127 123.044,92.672 "/>
<polygon fill="#191919" points="125.25,91.677 132.447,95.066 133.488,94.621 126.109,91.166 "/>
<polygon fill="#191919" points="128.787,91.054 135.717,94.315 136.652,94.315 129.648,90.542 "/>
<polygon fill="#191919" points="84.25,92.672 91.901,95.989 92.948,95.383 85.093,92.089 "/>
<polygon fill="#191919" points="88.089,90.28 95.25,93.862 96.466,93.151 88.951,89.769 "/>
<polygon fill="#191919" points="91.005,88.497 98.356,92.089 99.363,91.542 91.865,87.985 "/>
<polygon fill="#191919" points="94.167,87.114 101.367,90.498 102.37,89.946 95.028,86.603 "/>
<polygon fill="#191919" points="97.418,85.405 104.621,88.79 105.466,88.187 98.279,84.894 "/>
<polygon fill="#191919" points="100.475,83.97 107.438,87.356 108.52,86.752 101.336,83.458 "/>
<polygon fill="#191919" points="103.385,82.33 110.586,85.717 111.626,85.274 104.244,81.819 "/>
<polygon fill="#191919" points="106.449,80.824 113.652,84.209 114.688,83.768 107.309,80.313 "/>
<polygon fill="#191919" points="72.108,106.145 78.28,108.947 78.167,109.813 72.255,107.033 "/>
<polygon fill="#191919" points="72.486,104.043 78.978,106.48 79.663,105.205 72.868,102.725 "/>
<polygon fill="#191919" points="73.565,101.09 80.959,103.617 81.911,102.941 73.99,100.308 "/>
<polygon fill="#191919" points="76.074,98.365 83.718,101.773 84.837,101.029 76.914,97.821 "/>
<polygon fill="#191919" points="78.638,96.639 86.739,99.794 87.874,99.037 79.606,95.967 "/>
<polygon fill="#191919" points="82.047,94.252 90.053,97.629 90.892,96.99 82.827,93.714 "/>
<path fill="#848484" d="M87.164,88.97l0.885-2.406l4.592-2.485l5.457-7.267l3.472-1.747l-0.926-0.653l0.588-0.695h1.183l0.505,0.695
	l13.186-8.107c0,0,10.487,2.022,19.586,9.688l1.938,3.475v1.58v7.049l-32.011,18.305l-14.32-11.117l0.515-3.118L87.164,88.97z"/>
<path opacity="0.4" fill="#4C4C4C" enable-background="new    " d="M98.096,76.813c0,0,2.587,0.148,5.558,2.159l4.929-2.474
	l9.246,13.204l4.59-3.348l0.758,0.633l2.087-1.454l-4.992-2.717l8.721-4.929l-2.653-3.033l-7.013,4.233l-7.329-4.233l-3.435,1.139
	c0,0-2.314-0.633-2.946-1.58l1.264-2.402l-5.31,2.907l-0.926-0.505l0.221,1.009L98.096,76.813z"/>
<path fill="#A0A0A0" d="M89.628,79.824V81.3l5.182,11.372l-1.074,4.171l-2.022-1.769v-1.769L87.586,82.63l-1.431-1.833l0.316-1.327
	C86.469,79.467,88.618,79.041,89.628,79.824z"/>
<path fill="#B5B5B6" d="M55.406,77.088l1.516-2.359l1.875,1.179l1.644,3.432l0.885-0.885l0.506-0.063l0.758,0.633l24.071-9.793
	h3.096L95,72.139l6.57,9.919l-6.254,7.644L92.093,81.3c0,0-2.337-1.833-5.055-1.833l-25.272,6.634l-4.043-1.769l-3.042-5.37
	L55.406,77.088z"/>
<path fill="#B5B5B6" d="M55.406,77.088c0,0-2.189-0.336-2.189,2.359v6.991l-1.179,1.684l1.179,1.937l0.505,7.835l-0.673,0.423
	L53.133,100l0.59,1.182v2.021l-1.684,1.347l-0.421,1.353l1.349,0.842l1.349,1.854l-0.253,2.359l1.349,2.277l4.458,2.613l1.602,0.506
	l3.623,2.19c0,0,3.371,1.519,7.497-5.137c0,0,5.897-8.005,5.56-8.847c0,0-0.337-0.93-3.033,2.272l-1.769-1.011
	c0,0,2.527-2.697,1.854-3.202c0,0-0.673-0.761-3.2,2.524l-1.602-1.011c0,0,2.865-3.454,1.937-3.538c0,0-1.011-0.087-3.37,2.779
	l-1.517-0.841c0,0,2.19-2.444,1.685-3.455c0,0-1.179-0.253-3.201,3.03l-0.673,0.172c0,0-1.516,2.271-4.296,2.609l1.264-19.04
	l-2.274-0.505l1.517-2.612l-3.454-4.381C58.016,78.36,57.175,77.162,55.406,77.088z"/>
<path fill="#A0A0A0" d="M61.071,105.527c0,0,2.969-0.694,4.644-2.717l0.305,0.502c0,0-2.022,3.621-4.211,4.844l-0.127,0.146
	l-2.988,3.392h0.505l3.106-3.164l0.095,1.141c0,0-2.189,2.395-1.011,6.475l3.117,1.875c0,0-2.174-4.043,0.386-6.57
	c0,0,6.69,0.801,10.061-3.707l0.926-0.254l1.896-2.231l0.393-0.379v0.379l-4.564,6.653c0,0-4.086,7.035-8.087,6.783l-4.381-2.53
	l-1.727-0.507l-0.042-3.746h-1.011l3.326-3.604L61.071,105.527z"/>
<path fill="#4C4C4C" d="M53.995,105.43c0,0,0.569,0.213,1.368,0v-5.643l-1.368,0.209V105.43z"/>
<polygon fill="#A0A0A0" points="55.741,87.998 51.951,87.998 53.214,89.892 54.563,90.06 54.647,98.483 53.847,98.188 
	53.089,98.188 53.046,99.747 53.637,100.632 56.037,100.422 "/>
<path fill="#A0A0A0" d="M57.771,78.086c0,0-2.03,0.013-1.734,4.309l2.654,19.916l0.38,5.561h-1.528l-5.505-3.32l-0.421,1.354
	c0,0,2.442,0.746,2.695,2.433l2.99,1.769l4.379-1.799l-0.608-2.777l1.158-19.669l-2.274-0.505l1.517-2.612L57.771,78.086z"/>
<polygon fill="#A0A0A0" points="64.609,111.372 62.229,109.88 62.397,109.666 64.89,111.443 64.743,111.602 "/>
<polygon fill="#A0A0A0" points="62.46,108.498 61.807,108.158 61.679,108.305 "/>
<polygon fill="#3D3D3D" points="93.396,98.483 95.924,84.165 97.188,82.901 108.561,75.993 116.816,80.626 117.828,81.973 
	117.828,97.474 104.096,105.898 95.756,101.434 "/>
<polygon fill="#171735" points="66.063,82.185 86.469,75.42 86.469,78.566 66.063,84.459 "/>
<polygon fill="#4C4C4C" points="89.881,77.073 92.639,84.08 93.734,83.438 91.28,77.073 "/>
<polygon fill="#A0A0A0" points="91.712,83.196 92.345,82.185 93.862,82.185 95.756,86.038 94.728,90.945 "/>
<polygon points="96.83,84.933 94.556,98.357 101.253,101.801 103.969,88.21 "/>
<polygon fill="#142344" points="96.767,85.152 94.24,98.357 100.938,101.643 103.652,88.438 "/>
<polygon points="106.055,88.953 104.602,96.384 104.602,96.843 112.184,92.861 112.563,92.356 112.846,85.927 112.277,85.927 "/>
<polygon fill="#142344" points="106.055,88.97 104.602,96.399 104.602,96.652 111.993,92.811 112.309,92.356 112.563,86.099 
	112.057,86.099 "/>
<polygon points="104.76,97.919 104.127,100.17 104.127,100.758 105.201,101.801 105.454,101.801 110.256,98.997 110.635,98.409 
	112.15,95.605 112.15,95.085 112.15,93.714 "/>
<polygon fill="#142344" points="104.602,97.883 103.969,100.063 103.969,100.632 105.043,101.643 105.297,101.643 110.098,98.926 
	110.477,98.357 111.993,95.642 111.993,95.136 111.993,93.81 "/>
<polygon fill="#303038" points="113.889,85.152 116.1,84.08 116.1,96.337 113.889,97.758 "/>
<polygon fill="#8E8E8E" points="98.368,82.901 105.275,86.204 109.699,84.08 102.412,80.584 "/>
<polygon fill="#8E8E8E" points="104.033,79.868 110.943,83.171 115.363,81.047 108.076,77.551 "/>
<polygon fill="#262626" points="118.163,92.334 118.163,97.727 134.254,88.096 134.254,82.901 "/>
<polygon fill="#727272" points="106.779,111.289 125.914,100.45 125.914,102.273 106.779,113.229 "/>
<path fill="#727272" d="M131.475,97.883l-2.104,0.853v2.191h1.055C130.422,100.928,133.749,98.203,131.475,97.883z"/>
<polygon fill="#727272" points="86.469,100.45 86.469,104.383 87.702,104.645 "/>
<polygon fill="#191919" points="90.999,114.895 97.82,117.457 98.5,116.174 91.381,113.576 "/>
<polygon fill="#191919" points="92.366,111.744 99.756,114.473 100.388,113.793 92.791,111.163 "/>
<polygon fill="#191919" points="94.24,109.604 101.568,112.703 102.391,112.066 95.079,109.059 "/>
<polygon fill="#191919" points="97.493,107.57 104.822,110.666 105.645,110.029 98.33,107.025 "/>
<polygon fill="#191919" points="100.525,105.75 107.586,108.846 108.676,108.209 101.363,105.205 "/>
<path fill="#44597F" d="M102.832,88.79c0,0-5.097,2.993-8.023,9.421l6.128,2.717L102.832,88.79z"/>
<path fill="#44597F" d="M111.077,87.356c0,0-3.128,7.425-5.435,8.391l5.435-3.075C111.077,92.672,112.161,88.527,111.077,87.356z"/>
<path fill="#44597F" d="M110.568,95.674c0,0-2.703,4.156-4.926,5.254l3.672-2.089C109.32,98.839,110.872,97.635,110.568,95.674z"/>
<path fill="#8E8E8E" d="M97.588,117.994l2.211,1.402l1.706-0.707l0.888-2.203l-0.951-1.139l-1.453-0.761
	C99.989,114.596,97.335,114.824,97.588,117.994z"/>
<polygon fill="#191919" points="90.908,116.995 97.079,119.799 96.969,120.668 91.056,117.889 "/>
<g>
	<rect x="84.36" y="15.014" fill="#FFFFFF" width="27.984" height="33.516"/>
	<path id="Idle_1_" fill="#ffcc00" d="M111.052,7.522l-28.635,0.5L68.45,32.232l14.668,23.791l28.564-0.421l14.025-24.329
		L111.052,7.522z M100.649,44.961l-7.572,0.013c0,0-1.443,0.057-1.486-0.844c0,0-0.092-0.813,1.08-1.129
		c0,0,0.678,0.046,0.722-1.308l-0.091-17.037c0,0,0.136-0.768-1.033-0.993c0,0-0.774-0.314-0.678-1.127c0,0,0.316-0.498,0.948-0.721
		h9.015c0,0,0.946,0.088,0.996,0.81c0,0,0.088,0.901-0.904,1.034c0,0-1.033,0.315-0.77,1.894l-0.088,16.275
		c0,0,0.088,1.216,0.944,1.262c0,0,1.042,0.184,0.817,1.397C102.55,44.489,102.276,45.073,100.649,44.961z"/>
</g>
</svg>
