<?xml version="1.0" encoding="utf-8"?>
<!-- Generator: Adobe Illustrator 16.0.0, SVG Export Plug-In . SVG Version: 6.00 Build 0)  -->
<!DOCTYPE svg PUBLIC "-//W3C//DTD SVG 1.1//EN" "http://www.w3.org/Graphics/SVG/1.1/DTD/svg11.dtd">
<svg version="1.1" id="Layer_1" xmlns="http://www.w3.org/2000/svg" xmlns:xlink="http://www.w3.org/1999/xlink" x="0px" y="0px"
	 width="200px" height="200px" viewBox="0 0 200 200" enable-background="new 0 0 200 200" xml:space="preserve">
<g id="Tire_2_1_">
	<path fill="#010101" d="M82.411,137.373c0,0-3.344-0.63-5.027-4.146c0,0-0.775-6.047,4.159-8.047c0,0,3.891,0.223,5.585,2.913
		C88.884,131.348,82.411,137.373,82.411,137.373z"/>
	<path fill="#333333" d="M86.882,133.861c-1.186,2.744-3.517,4.045-5.086,3.349c-1.568-0.703-1.889-3.571-0.499-6.25
		c1.182-2.737,3.516-4.048,5.083-3.353C87.95,128.314,88.199,131.441,86.882,133.861z"/>
	<path fill="#989898" d="M85.96,129.159c-1.158-0.61-2.737,0.37-3.711,2.337c-0.972,1.958-0.643,3.999,0.512,4.589
		c1.159,0.591,2.74-0.369,3.711-2.34C87.24,131.736,87.118,129.754,85.96,129.159z M85.651,133.525
		c-0.488,0.981-1.24,1.336-1.65,1.227c-0.614-0.167-0.535-1.266-0.122-1.977c0.417-0.721,1.238-1.34,1.652-1.229
		C85.939,131.654,86.138,132.549,85.651,133.525z"/>
	<path fill="#FFFFFF" d="M83.836,129.699c0,0,0.543,0.43,0.74,1.313l-0.273,0.198c0,0-0.334-1.194-0.744-1.31L83.836,129.699z"/>
	
		<animateTransform  type="translate" fill="remove" attributeName="transform" dur="1" calcMode="linear" restart="always" values="0,0;0.1,0.1;0,0" begin="0s" additive="replace" repeatCount="indefinite" accumulate="none" attributeType="XML">
		</animateTransform>
</g>
<g id="Tire_2_3_">
	<path fill="#010101" d="M123.994,113.436c0,0-3.342-0.629-5.037-4.15c0,0-0.779-6.042,4.154-8.038c0,0,3.9,0.226,5.587,2.911
		C130.467,107.409,123.994,113.436,123.994,113.436z"/>
	<path fill="#333333" d="M128.465,109.924c-1.188,2.743-3.517,4.051-5.084,3.346c-1.57-0.692-1.889-3.567-0.502-6.252
		c1.182-2.73,3.516-4.043,5.082-3.345C129.534,104.372,129.777,107.498,128.465,109.924z"/>
	<path fill="#989898" d="M127.542,105.225c-1.166-0.596-2.74,0.367-3.709,2.332c-0.972,1.959-0.649,4,0.513,4.596
		c1.157,0.59,2.739-0.377,3.711-2.332C128.823,107.796,128.703,105.811,127.542,105.225z M127.234,109.589
		c-0.486,0.981-1.239,1.333-1.648,1.222c-0.611-0.166-0.54-1.262-0.125-1.979c0.421-0.719,1.245-1.333,1.654-1.223
		C127.521,107.721,127.723,108.615,127.234,109.589z"/>
	<path fill="#FFFFFF" d="M125.421,105.764c0,0,0.544,0.422,0.74,1.307l-0.274,0.205c0,0-0.332-1.193-0.746-1.308L125.421,105.764z"
		/>
	
		<animateTransform  type="translate" fill="remove" attributeName="transform" dur="1" calcMode="linear" restart="always" values="0,0;0.1,0.1;0,0" begin="0s" additive="replace" repeatCount="indefinite" accumulate="none" attributeType="XML">
		</animateTransform>
</g>
<path fill="#CDCCCC" d="M60.748,105.686c0,0-1.702-2.668-2.345-2.603c0,0-0.945,0.573-0.319,1.616l1.082,1.477l-0.572,0.67
	l0.311,1.938L60.748,105.686z"/>
<path fill="#EAEAEA" d="M71.524,84.564v2.545L69.2,90.873l-10.072,16.602l-6.529,9.186v7.191l22.356,13.172l3.984-1.551
	c0,0,0.552-6.416,4.98-9.52c0,0,3.652-2.102,5.092,3.984l30.213-17.482c0,0,0.996-7.859,5.528-9.744c0,0,4.427-1.658,5.203,4.096
	l7.745-5.754l-1.104-27.891L112.139,61.53L79.051,78.907L71.524,84.564z"/>
<path fill="#243245" d="M68.316,94.302l-8.301,13.06c0,0,9.74,6.756,21.36,11.951l8.521-13.83L68.316,94.302z"/>
<polygon fill="#243245" points="91.224,105.259 82.537,119.76 97.089,109.908 97.089,101.716 "/>
<polygon fill="#ED2224" points="92.22,97.901 136.62,73.823 136.62,77.234 91.556,102.137 69.405,90.552 71.524,87.109 "/>
<polygon fill="#ED2224" points="53.856,114.893 76.074,126.744 92.884,114.584 137.184,87.94 137.377,92.918 77.402,127.989 
	76.863,131.354 74.167,132.593 52.599,120.396 52.599,116.657 "/>
<path fill="#EAEAEA" stroke="#010101" stroke-miterlimit="10" d="M52.599,118.072"/>
<path fill="#161616" d="M80.909,129.352l-5.664,2.334l-0.299-0.166l-7.621-4.111l1.53-1.741l-11.663-6.56l0.289,2.906l-4.882-2.701
	v4.539l22.356,13.172l3.984-1.551C78.94,135.473,79.147,132.593,80.909,129.352z"/>
<path fill="#EAEAEA" d="M80.138,131.042"/>
<polygon fill="#CFCFCE" points="75.245,131.686 75.713,128.986 68.854,125.664 67.322,127.404 "/>
<polygon fill="#CFCFCE" points="52.599,116.657 57.192,119.107 57.481,122.014 52.599,119.313 "/>
<polygon fill="#F99D1C" points="77.402,127.989 75.713,128.986 75.245,131.686 76.913,131.042 "/>
<path fill="#ED2224" d="M57.481,122.014"/>
<polygon fill="#161616" points="57.192,119.107 68.854,125.664 67.322,127.404 57.481,122.014 "/>
<polygon fill="#EAEAEA" points="57.192,120.064 68.366,126.221 68.171,126.438 57.338,120.559 "/>
<polygon fill="#EAEAEA" points="57.481,121.682 67.555,127.141 67.322,127.404 57.481,122.014 "/>
<polygon fill="#EAEAEA" points="58.383,125.18 58.383,127.538 65.418,131.686 65.418,128.958 "/>
<polygon fill="#3E5AA9" points="80.909,82.047 80.909,80.137 84.417,78.477 99.771,87.028 99.771,89.188 96.482,91.076 "/>
<polygon fill="#FFFFFF" points="93.962,83.791 90.56,85.699 90.34,87.517 86.18,85.102 86.18,83.126 89.303,81.2 "/>
<path fill="#FFFFFF" d="M98.361,87.221l-1.604,0.72l-1.604-0.72C95.153,87.221,96.093,88.273,98.361,87.221z"/>
<path fill="#CDCCCC" d="M84.394,116.657c0,0,3.155,0.233,3.399,0.829c0,0-0.056,1.104-1.272,1.054l-1.812-0.25l-0.318,0.819
	l-1.856,0.647L84.394,116.657z"/>
<polygon fill="#EAEAEA" points="75.453,90.098 87.958,96.849 87.017,98.62 74.568,91.924 "/>
<polygon fill="#ED2224" points="118.035,92.376 123.833,89.084 124.117,91.204 118.333,94.601 "/>
<polygon fill="#ED2224" points="120.527,96.286 119.656,88.408 121.771,87.394 122.497,94.958 "/>
<path fill="#426183" d="M86.852,105.537c0,0-11.625-4.596-24.072,1.938c0,0-0.066,0.301-1.769,0c0,0,11.565,7.69,19.368,10.594
	C80.376,118.072,88.789,106.643,86.852,105.537z"/>
<path fill="#426183" d="M96.411,102.965c0,0-5.023,1.866-10.418,13.116l0.665,0.58l9.753-6.929V102.965z"/>
<path fill="#729DC4" d="M85.993,106.201c0,0-7.165,9.516-9.489,9.848l3.652,1.494C80.156,117.543,87.516,106.811,85.993,106.201z"/>
<path fill="#729DC4" d="M95.816,103.968v5.845l-1.107,0.931C94.709,110.74,96.387,104.307,95.816,103.968z"/>
<polygon fill="#161616" points="137.553,97.282 136.62,97.992 136.62,101.859 137.704,101.053 "/>
<ellipse id="light2" opacity="0.6" fill="#597DBE" enable-background="new    " cx="84.467" cy="81.202" rx="8.937" ry="5.24">
<animate  fill="remove" id="light1" to="0" from="0.2" attributeName="opacity" dur="1" calcMode="linear" restart="always" begin="0.1s;light2.end" additive="replace" repeatCount="indefinite" accumulate="none">
	</animate>
</ellipse>
<ellipse id="light1" opacity="0.6" fill="#597DBE" enable-background="new    " cx="95.323" cy="87.394" rx="9.231" ry="5.416">
<animate  fill="remove" id="light2" to="0" from="0.2" attributeName="opacity" dur="1" calcMode="linear" restart="always" begin="0.2s;light1.end" additive="replace" repeatCount="indefinite" accumulate="none">
	</animate>
</ellipse>
<g>
	<ellipse fill="#FFFFFF" cx="96.411" cy="33.741" rx="18.667" ry="18.25"/>
	<path fill="#ADADAD" d="M96.759,8.5c-13.94,0-25.241,11.301-25.241,25.241c0,13.94,11.301,25.241,25.241,25.241
		c13.94,0,25.241-11.3,25.241-25.241C122,19.8,110.699,8.5,96.759,8.5z M104.592,19.779l-7.834,7.834l-7.834-7.834
		c2.317-1.303,4.986-2.055,7.834-2.055C99.605,17.724,102.273,18.476,104.592,19.779z M82.795,25.906l7.834,7.834l-7.835,7.835
		c-1.303-2.317-2.054-4.986-2.054-7.834C80.74,30.894,81.491,28.224,82.795,25.906z M96.757,49.759
		c-2.848,0-5.517-0.751-7.834-2.055l7.835-7.835l7.835,7.835C102.275,49.007,99.605,49.759,96.757,49.759z M110.721,41.576
		l-7.836-7.835l7.836-7.835c1.303,2.317,2.055,4.987,2.055,7.835C112.773,36.59,112.023,39.259,110.721,41.576z"/>
</g>
</svg>
