<?xml version="1.0" encoding="utf-8"?>
<!-- Generator: Adobe Illustrator 16.0.0, SVG Export Plug-In . SVG Version: 6.00 Build 0)  -->
<!DOCTYPE svg PUBLIC "-//W3C//DTD SVG 1.1//EN" "http://www.w3.org/Graphics/SVG/1.1/DTD/svg11.dtd">
<svg version="1.1" id="Layer_1" xmlns="http://www.w3.org/2000/svg" xmlns:xlink="http://www.w3.org/1999/xlink" x="0px" y="0px"
	 width="200px" height="200px" viewBox="0 0 200 200" enable-background="new 0 0 200 200" xml:space="preserve">
<g id="Tire_2_1_">
	<path d="M88.838,121.615c0,0-3.797-0.713-5.708-4.713c0,0-0.88-6.862,4.723-9.137c0,0,4.418,0.254,6.341,3.313
		C96.188,114.775,88.838,121.615,88.838,121.615z"/>
	<path fill="#333333" d="M93.917,117.629c-1.343,3.115-3.994,4.584-5.776,3.805c-1.779-0.802-2.145-4.06-0.567-7.1
		c1.344-3.107,3.994-4.588,5.772-3.816C95.128,111.331,95.411,114.883,93.917,117.629z"/>
	<path fill="#999999" d="M92.869,112.284c-1.314-0.685-3.108,0.424-4.215,2.657c-1.103,2.221-0.729,4.541,0.583,5.217
		c1.316,0.672,3.107-0.422,4.214-2.66C94.324,115.218,94.183,112.961,92.869,112.284z M92.519,117.251
		c-0.557,1.112-1.408,1.515-1.873,1.39c-0.699-0.193-0.61-1.441-0.139-2.25c0.474-0.813,1.405-1.515,1.876-1.392
		C92.846,115.123,93.069,116.139,92.519,117.251z"/>
	<path fill="#FFFFFF" d="M90.454,112.904c0,0,0.618,0.486,0.843,1.488l-0.309,0.225c0,0-0.38-1.354-0.846-1.484L90.454,112.904z"/>
	
		<animateTransform  type="translate" fill="remove" attributeType="XML" accumulate="none" repeatCount="indefinite" additive="replace" begin="0s" values="0,0;0.1,0.1;0,0" restart="always" calcMode="linear" dur="1" attributeName="transform">
		</animateTransform>
</g>
<g id="Tire_2_3_">
	<path d="M127.188,99.269c0,0-3.795-0.714-5.715-4.71c0,0-0.885-6.865,4.717-9.133c0,0,4.424,0.253,6.346,3.305
		C134.544,92.425,127.188,99.269,127.188,99.269z"/>
	<path fill="#333333" d="M132.27,95.286c-1.344,3.112-3.988,4.597-5.772,3.8c-1.785-0.792-2.146-4.056-0.565-7.101
		c1.344-3.097,3.994-4.587,5.773-3.799C133.479,88.978,133.759,92.528,132.27,95.286z"/>
	<path fill="#999999" d="M131.217,89.943c-1.32-0.676-3.105,0.419-4.208,2.651c-1.097,2.223-0.729,4.542,0.576,5.212
		c1.319,0.682,3.101-0.423,4.213-2.645C132.675,92.866,132.54,90.609,131.217,89.943z M130.872,94.902
		c-0.56,1.115-1.407,1.514-1.872,1.39c-0.689-0.189-0.613-1.436-0.143-2.25c0.475-0.817,1.414-1.514,1.879-1.384
		C131.189,92.782,131.427,93.798,130.872,94.902z"/>
	<path fill="#FFFFFF" d="M128.805,90.552c0,0,0.618,0.483,0.838,1.485l-0.316,0.236c0,0-0.375-1.361-0.842-1.485L128.805,90.552z"/>
	
		<animateTransform  type="translate" fill="remove" attributeType="XML" accumulate="none" repeatCount="indefinite" additive="replace" begin="0s" values="0,0;0.1,0.1;0,0" restart="always" calcMode="linear" dur="1" attributeName="transform">
		</animateTransform>
</g>
<path fill="#151515" d="M58.735,109.82c0,0-0.25-5.529,0.755-5.529l1.508-3.393L76.33,86.369c0,0-2.012-3.191-0.881-3.695h0.881
	l1.364,2.193l7.429-6.968c0,0,18.225-13.573,27.525-12.315c0,0,6.41-2.513,8.043-2.262c0,0,13.951,4.524,16.591,10.053
	c0,0,2.618,4.271,1.813,10.053c0,0-0.111,1.732-5.207,4.902c0,0-2.42-4.778-6.734-0.754c0,0-3.194,4.092-3.445,8.645l-27.9,17.327
	c0,0-2.263-7.745-7.29-3.475c0,0-4.157,3.351-3.396,9.47c0,0-8.919,2.469-17.341-0.861C67.784,118.682,61.628,115.225,58.735,109.82
	z"/>
<path fill="#515151" d="M61.15,104.025c0,0,5.253,7.729,14.351,8.436l-0.283,2.245c0,0-11.405-0.578-14.704-8.372L61.15,104.025z"/>
<path fill="#151515" d="M61.15,104.855c0,0,3.483,6.715,13.253,8.088l0.202,0.191c0,0-9.143-0.563-13.764-8.26h0.308L61.15,104.855
	L61.15,104.855z"/>
<path fill="#151515" d="M60.742,105.863c0,0,3.484,6.716,13.253,8.089l0.202,0.19c0,0-9.142-0.567-13.763-8.266h0.308V105.863
	L60.742,105.863z"/>
<path fill="#C9C9C9" d="M61.033,106.803h-1.039c0,0-0.988-2.775-0.047-4.475c0,0,0.691-2.058,1.052-1.43
	C60.998,100.9,61.315,105.395,61.033,106.803z"/>
<path fill="#C9C9C9" d="M73.239,114.348c0,0,0.848-1.744,2.262-1.887c0,0,6.222-0.52,7.257,0c0,0,1.155,2.168-0.908,2.352
	C81.85,114.816,75.311,115.193,73.239,114.348z"/>
<polygon fill="#D3D3D3" points="61.15,111.564 61.056,113.568 67.534,118.682 67.77,116.373 "/>
<path fill="#4C5A72" d="M84.751,79.597c0,0-8.735,7.478-10.149,9.993c0,0,7.069,9.193,19.387,11.037l6.656-11.712
	C100.645,88.915,89.276,81.359,84.751,79.597z"/>
<path fill="#4C5A72" d="M109.639,82.677c0,0-6.539,4.654-7.979,8.015l-3.584,6.188l1.131-0.657l2.076,1.092l9.18-5.97
	C110.448,91.349,110.393,84.625,109.639,82.677z"/>
<path fill="#4C5A72" d="M111.201,81.735c0,0,0.818,3.747,1.008,8.376l12.255-8.391l-3.038-3.442
	C121.421,78.279,118.029,76.365,111.201,81.735z"/>
<polyline fill="#26344F" points="122.391,77.948 125.221,81.042 127.148,80.165 127.148,77.948 122.203,77.948 "/>
<path fill="#EAEAEA" d="M95.561,100.627l3.082-1.988c0,0,2.132,0.127,3.205,0v-0.817l-0.25-0.506l25.564-17.157l0.898,0.377
	c0,0,1.023,2.892,1.308,5.622c0,0-3.823,0.607-5.63,10.059l-27.9,17.322C95.812,113.552,96.943,104.756,95.561,100.627z"/>
<path fill="#4C5A72" d="M107.055,66.655c0,0,10.41,4.256,13.574,8.545h10.303c0,0-7.787-7.667-16.275-9.239
	C114.664,65.961,107.938,66.151,107.055,66.655z"/>
<polygon fill="#FF0000" points="93.959,71.65 93.723,73.329 99.461,76.425 101.668,74.98 101.668,73.665 95.985,70.583 "/>
<polygon fill="#CCCCCC" points="98.074,74.054 98.074,75.706 103.338,78.426 105.789,77.384 104.77,75.2 100.336,72.781 "/>
<polyline fill="#0062FF" points="102.885,78.164 102.885,76.295 104.861,75.323 109.947,78.038 110.826,79.495 108.033,81.005 
	102.885,78.164 "/>
<g>
	<path fill="#ED2626" d="M97.927,103.412c0.254-0.243,0.581-0.528,1.011-0.807c0.53-0.342,0.937-0.377,1.201-0.153
		c0.248,0.188,0.423,0.625,0.464,1.218c0.058,0.637-0.03,1.2-0.195,1.706c-0.235,0.694-0.687,1.256-1.199,1.585
		c-0.159,0.1-0.312,0.193-0.433,0.211l0.215,2.83l-0.524,0.322L97.927,103.412z M98.719,106.443c0.124-0.004,0.271-0.08,0.442-0.192
		c0.645-0.426,0.996-1.2,0.925-2.187c-0.071-0.916-0.495-1.121-1.078-0.754c-0.236,0.162-0.412,0.312-0.5,0.41L98.719,106.443z"/>
	<path fill="#ED2626" d="M104.984,102.357c0.186,2.438-0.586,4.266-1.645,4.966c-1.081,0.692-1.959-0.229-2.119-2.372
		c-0.179-2.245,0.524-4.23,1.622-4.936C103.979,99.281,104.818,100.283,104.984,102.357z M101.782,104.566
		c0.118,1.502,0.688,2.533,1.534,1.996c0.84-0.562,1.217-2.195,1.088-3.785c-0.092-1.394-0.648-2.577-1.537-2.012
		C102.001,101.339,101.658,103.008,101.782,104.566z"/>
	<path fill="#ED2626" d="M105.404,98.458l0.539-0.338l0.496,6.282l1.762-1.148l0.059,0.77l-2.297,1.492L105.404,98.458z"/>
	<path fill="#ED2626" d="M108.843,96.248l0.539,7.048l-0.524,0.339l-0.549-7.057L108.843,96.248z"/>
	<path fill="#ED2626" d="M113.188,100.59c-0.182,0.279-0.565,0.694-1.061,1.045c-1.172,0.748-2.139,0.055-2.327-2.254
		c-0.177-2.198,0.587-4.283,1.886-5.097c0.5-0.336,0.83-0.348,0.984-0.314l-0.063,0.818c-0.211-0.049-0.506,0.036-0.846,0.247
		c-0.978,0.648-1.529,2.093-1.394,3.961c0.135,1.725,0.815,2.451,1.806,1.82c0.321-0.224,0.652-0.552,0.846-0.872L113.188,100.59z"
		/>
	<path fill="#ED2626" d="M115.768,95.68l-1.611,1.065l0.191,2.527l1.813-1.154l0.051,0.769l-2.314,1.497l-0.56-7.04l2.226-1.445
		l0.063,0.76l-1.699,1.091l0.171,2.241l1.612-1.067L115.768,95.68z"/>
</g>
<path d="M110.508,91.337c0,0-0.168,3.097-0.06,13.444"/>
<polygon fill="#3F3F3F" points="107.545,97.943 109.947,96.248 109.947,97.709 107.545,99.269 "/>
<polygon fill="#3F3F3F" points="122.52,88.779 124.926,87.093 124.926,88.556 122.52,90.115 "/>
<path fill="#697FA3" d="M75.501,90.001c0,0,15.601-6.003,24.131-0.914l-5.939,10.858C93.693,99.945,84.69,99.583,75.501,90.001z"/>
<path fill="#697FA3" d="M109.382,83.48c0,0-8.196,7.535-9.279,12.768l1.09,0.61l8.754-5.699
	C109.947,91.159,110.133,84.326,109.382,83.48z"/>
<path fill="#697FA3" d="M111.742,82.159c0,0,1.143,6.268,0.71,7.399l10.835-7.731C123.287,81.83,114.286,85.365,111.742,82.159z"/>
<path fill="#5C749B" d="M123.729,78.426l1.197,1.94c0,0-0.531-1.806,0-1.94C125.455,78.294,123.729,78.426,123.729,78.426z"/>
<path fill="#A3B7D3" d="M98.451,89.322c0,0-8.925,8.687-11.075,8.611l5.538,1.083C92.914,99.03,98.878,90.923,98.451,89.322z"/>
<path fill="#A3B7D3" d="M108.85,84.89l0.532,5.892c0,0-2.919,2.026-3.205,2.169C105.895,93.093,108.027,85.5,108.85,84.89z"/>
<path fill="#A3B7D3" d="M112.688,83.715c0,0,0.574,3.51,0.5,4.888l2.375-2.062C115.563,86.542,115.326,85.458,112.688,83.715z"/>
<ellipse id="lightblue" opacity="0.3" fill="#0062FF" enable-background="new    " cx="107.768" cy="78.428" rx="10.104" ry="6.31">
<animate  fill="remove" from="0.3" to="0" accumulate="none" repeatCount="indefinite" additive="replace" begin="0.1s;light2.end" restart="always" calcMode="linear" dur="0.5" attributeName="opacity" id="light1">
	</animate>
</ellipse>
<ellipse id="lightred" opacity="0.3" fill="#FF0000" enable-background="new    " cx="93.244" cy="70.616" rx="10.097" ry="6.31">
<animate  fill="remove" from="0.5" to="0" accumulate="none" repeatCount="indefinite" additive="replace" begin="0.2s;light2.end" restart="always" calcMode="linear" dur="0.5" attributeName="opacity" id="light1">
	</animate>
</ellipse>
<path fill="#697FA3" d="M116.549,70.615c0,0,4.385,2.637,4.877,3.958h7.934c0,0-7.246-5.468-9.885-6.315
	C119.475,68.257,122.203,71.372,116.549,70.615z"/>
<path fill="#D32424" d="M139.197,79.891c0,0-0.967,1.229-1.744,1.655l0.316,2.829c0,0,0.731-0.377,1.4-1.526
	C139.165,82.838,139.548,80.366,139.197,79.891z"/>
<path id="parking" fill="#ff0000" d="M112.418,8.546l-28.454,0.42L70.023,33.024l14.506,23.642l28.452-0.417l13.94-24.061
	L112.418,8.546z M100.867,45.83c-0.224,0.157-0.593,0.235-1.115,0.235h-0.604h-7.899H90.79c-0.426,0-0.753-0.089-0.985-0.266
	c-0.229-0.176-0.344-0.428-0.344-0.759c0-0.54,0.235-0.898,0.708-1.066c0.39-0.143,0.619-0.232,0.683-0.266
	c0.063-0.034,0.129-0.106,0.203-0.229c0.14-0.207,0.211-0.541,0.211-1.002v-19.74c0-0.459-0.072-0.794-0.211-1.007
	c-0.074-0.117-0.141-0.191-0.203-0.227c-0.063-0.034-0.297-0.12-0.683-0.266c-0.473-0.172-0.708-0.527-0.708-1.063
	c0-0.329,0.115-0.583,0.344-0.763c0.232-0.178,0.561-0.266,0.985-0.266h0.459h7.886v23.168c0,0.512,0.088,0.879,0.264,1.103
	c0.095,0.134,0.182,0.215,0.266,0.246c0.084,0.034,0.359,0.115,0.818,0.247c0.563,0.146,0.852,0.509,0.852,1.086
	C101.327,45.341,101.172,45.617,100.867,45.83z M109.166,32.208c-0.802,1.271-1.928,2.211-3.371,2.816
	c-1.191,0.487-2.91,0.73-5.156,0.73v-2.108c0.51-0.134,0.867-0.271,1.068-0.417c0.209-0.148,0.393-0.367,0.541-0.669
	c0.248-0.515,0.371-1.204,0.371-2.071v-6.31c0-0.616-0.039-1.078-0.123-1.378c-0.084-0.301-0.248-0.576-0.494-0.829
	c-0.345-0.367-0.804-0.597-1.381-0.688v-2.13c2.434,0,4.231,0.258,5.389,0.771c1.332,0.59,2.391,1.496,3.168,2.721
	c0.781,1.253,1.188,2.78,1.188,4.598C110.363,29.256,109.965,30.914,109.166,32.208z"/>
</svg>
