<?xml version="1.0" encoding="utf-8"?>
<!-- Generator: Adobe Illustrator 16.0.0, SVG Export Plug-In . SVG Version: 6.00 Build 0)  -->
<!DOCTYPE svg PUBLIC "-//W3C//DTD SVG 1.1//EN" "http://www.w3.org/Graphics/SVG/1.1/DTD/svg11.dtd">
<svg version="1.1" id="Layer_1" xmlns="http://www.w3.org/2000/svg" xmlns:xlink="http://www.w3.org/1999/xlink" x="0px" y="0px"
	 width="200px" height="200px" viewBox="0 0 200 200" enable-background="new 0 0 200 200" xml:space="preserve">
<g id="Direction">
	<g transform="rotate({{angle}} 50 50)">
		<polygon id="arrow" opacity="0.7" fill="#ff0000" enable-background="new    " points="153.252,73.278 172.906,96.92 
			153.52,120.559 142.629,120.559 142.629,120.293 162.018,96.92 142.627,74.344 142.629,73.278 		">
		
			<animate  fill="remove" accumulate="none" additive="replace" begin="0s;anim_arrow3.end" values="0.5; 0" restart="always" calcMode="linear" dur="0.5s" attributeName="opacity" id="anim_arrow1">
			</animate>
		</polygon>
		<polygon id="arrow2" opacity="0.7" fill="#ff0000" enable-background="new    " points="166.532,73.014 186.188,96.653 
			166.531,120.291 155.91,120.291 155.91,120.027 175.031,96.653 155.91,74.075 155.91,73.016 		">
		
			<animate  fill="remove" accumulate="none" additive="replace" begin="anim_arrow1.end" values="0.5; 0" restart="always" calcMode="linear" dur="0.5s" attributeName="opacity" id="anim_arrow2">
			</animate>
		</polygon>
		<polygon id="arrow3" opacity="0.7" fill="#ff0000" enable-background="new    " points="179.814,72.747 199.203,96.389 
			179.813,120.027 168.922,120.027 168.922,119.764 188.313,96.389 168.924,73.813 168.923,72.747 		">
		
			<animate  fill="remove" accumulate="none" additive="replace" begin="anim_arrow2.end" values="0.5; 0" restart="always" calcMode="linear" dur="0.5s" attributeName="opacity" id="anim_arrow3">
			</animate>
		</polygon>
	</g>
</g>
<g>
	<g>
		<g id="Tire_Mid_Back_2">
			<path fill="#141318" d="M74.705,86.909c1.435,0.248,3.007,1.773,3.524,3.395c0.517,1.621-0.224,2.741-1.647,2.486
				c-1.436-0.249-3.008-1.772-3.527-3.398C72.537,87.766,73.277,86.658,74.705,86.909z"/>
			<path fill="#121332" d="M74.418,87.139c1.414,0.251,2.973,1.764,3.479,3.378c0.51,1.621-0.221,2.733-1.633,2.482
				c-1.414-0.246-2.977-1.764-3.482-3.378C72.273,87.999,73.006,86.891,74.418,87.139z"/>
			<path fill="#141318" d="M73.992,87.344c1.435,0.247,3.008,1.772,3.528,3.396c0.517,1.626-0.226,2.742-1.647,2.487
				c-1.436-0.251-3.014-1.774-3.529-3.399C71.828,88.205,72.572,87.096,73.992,87.344z"/>
			<path fill="#121332" d="M73.714,87.57c1.414,0.251,2.974,1.764,3.479,3.378c0.506,1.622-0.225,2.735-1.639,2.487
				c-1.411-0.251-2.973-1.765-3.479-3.378C71.568,88.443,72.295,87.325,73.714,87.57z"/>
			<path fill="#141318" d="M73.391,87.731c1.434,0.247,3.01,1.773,3.525,3.398c0.518,1.623-0.227,2.743-1.648,2.484
				c-1.423-0.255-3.009-1.773-3.527-3.395C71.223,88.593,71.965,87.481,73.391,87.731z"/>
			<path fill="#121332" d="M73.107,87.962c1.414,0.251,2.975,1.764,3.48,3.378c0.508,1.622-0.221,2.734-1.635,2.487
				c-1.416-0.251-2.975-1.765-3.482-3.378C70.961,88.819,71.693,87.711,73.107,87.962z"/>
			<path fill="#141318" d="M72.977,88.101c1.363,0.242,2.871,1.73,3.359,3.336c0.49,1.604-0.225,2.703-1.586,2.466
				c-1.367-0.243-2.875-1.734-3.363-3.336C70.896,88.961,71.609,87.866,72.977,88.101z"/>
			<path fill="#121332" d="M73.063,88.655c1.156,0.196,2.424,1.455,2.838,2.809c0.414,1.348-0.188,2.285-1.338,2.077
				c-1.156-0.195-2.424-1.458-2.836-2.813C71.313,89.383,71.912,88.443,73.063,88.655z"/>
			<path fill="#CDCCCC" d="M73.258,89.031c0.925,0.167,1.943,1.171,2.275,2.254c0.332,1.087-0.156,1.836-1.082,1.669
				c-0.926-0.168-1.945-1.167-2.277-2.254C71.855,89.617,72.33,88.874,73.258,89.031z"/>
			<path fill="#989898" d="M73.494,89.356c0.748,0.131,1.572,0.947,1.842,1.828c0.269,0.879-0.125,1.472-0.877,1.342
				c-0.752-0.133-1.574-0.945-1.842-1.826C72.344,89.827,72.746,89.216,73.494,89.356z"/>
			<path fill="#CDCCCC" d="M73.619,89.826c0.545,0.1,1.156,0.694,1.354,1.342c0.199,0.641-0.088,1.084-0.639,0.997
				c-0.548-0.1-1.155-0.694-1.354-1.343C72.785,90.173,73.072,89.726,73.619,89.826z"/>
			<g id="Tire_Mid_Back_2_Holes">
				<path fill="#010101" d="M73.82,90.562c0.172,0.032,0.361,0.214,0.422,0.422c0.062,0.203-0.03,0.338-0.207,0.314
					c-0.172-0.037-0.355-0.215-0.422-0.423C73.555,90.671,73.656,90.536,73.82,90.562z"/>
				<path fill="#010101" d="M73.896,90.048c0.095,0.015,0.191,0.114,0.232,0.229c0.03,0.112-0.015,0.184-0.111,0.167
					c-0.097-0.012-0.192-0.113-0.233-0.226C73.748,90.102,73.801,90.031,73.896,90.048z"/>
				<path fill="#010101" d="M73.234,90.106c0.098,0.017,0.192,0.115,0.235,0.231c0.037,0.111-0.017,0.187-0.115,0.171
					c-0.093-0.017-0.187-0.114-0.231-0.231C73.092,90.166,73.139,90.094,73.234,90.106z"/>
				<path fill="#010101" d="M73.25,90.815c0.097,0.013,0.191,0.111,0.236,0.227c0.034,0.112-0.016,0.188-0.117,0.171
					c-0.094-0.016-0.188-0.114-0.23-0.23C73.098,90.875,73.154,90.8,73.25,90.815z"/>
				<path fill="#010101" d="M73.889,91.437c0.096,0.015,0.191,0.112,0.232,0.229c0.037,0.112-0.016,0.188-0.113,0.172
					c-0.096-0.016-0.191-0.115-0.232-0.23C73.738,91.495,73.793,91.419,73.889,91.437z"/>
				<path fill="#010101" d="M74.59,91.42c0.095,0.017,0.191,0.119,0.23,0.231c0.043,0.111-0.012,0.187-0.109,0.171
					c-0.096-0.017-0.193-0.114-0.234-0.231C74.445,91.478,74.502,91.406,74.59,91.42z"/>
				<path fill="#010101" d="M74.574,90.728c0.095,0.016,0.19,0.115,0.229,0.23c0.039,0.112-0.011,0.189-0.108,0.171
					c-0.098-0.015-0.193-0.112-0.236-0.229C74.43,90.787,74.486,90.716,74.574,90.728z"/>
			</g>
		</g>
		<g id="Tire_Back">
			<path fill="#141318" d="M68.599,83.388c1.433,0.247,3.009,1.773,3.526,3.395c0.517,1.625-0.223,2.742-1.647,2.487
				c-1.435-0.251-3.007-1.773-3.526-3.398C66.426,84.25,67.17,83.133,68.599,83.388z"/>
			<path fill="#121332" d="M68.322,83.61c1.412,0.251,2.974,1.766,3.479,3.379c0.506,1.621-0.228,2.733-1.638,2.482
				c-1.414-0.246-2.975-1.764-3.479-3.374C66.176,84.479,66.908,83.36,68.322,83.61z"/>
			<path fill="#141318" d="M67.894,83.823c1.431,0.247,3.007,1.772,3.527,3.394c0.514,1.627-0.226,2.747-1.648,2.488
				c-1.433-0.247-3.009-1.774-3.526-3.399C65.729,84.688,66.459,83.576,67.894,83.823z"/>
			<path fill="#121332" d="M67.602,84.045c1.414,0.246,2.975,1.76,3.482,3.374c0.506,1.626-0.223,2.737-1.639,2.487
				c-1.41-0.25-2.975-1.765-3.48-3.378C65.465,84.914,66.195,83.794,67.602,84.045z"/>
			<path fill="#141318" d="M67.295,84.213c1.433,0.252,3.007,1.772,3.525,3.399c0.518,1.621-0.227,2.741-1.648,2.482
				c-1.436-0.247-3.01-1.773-3.527-3.395C65.115,85.069,65.857,83.961,67.295,84.213z"/>
			<path fill="#121332" d="M66.994,84.431c1.416,0.251,2.975,1.765,3.482,3.378c0.504,1.627-0.223,2.738-1.637,2.487
				s-2.975-1.765-3.48-3.379C64.861,85.299,65.592,84.184,66.994,84.431z"/>
			<path fill="#141318" d="M66.867,84.575c1.365,0.239,2.873,1.731,3.363,3.336c0.488,1.605-0.227,2.705-1.59,2.467
				c-1.367-0.243-2.873-1.734-3.363-3.336C64.793,85.445,65.5,84.333,66.867,84.575z"/>
			<path fill="#121332" d="M66.951,85.125c1.156,0.2,2.424,1.458,2.836,2.813c0.416,1.344-0.186,2.284-1.338,2.076
				c-1.153-0.2-2.422-1.459-2.834-2.813C65.199,85.842,65.801,84.926,66.951,85.125z"/>
			<path fill="#CDCCCC" d="M67.156,85.511c0.924,0.168,1.944,1.168,2.276,2.254c0.332,1.088-0.155,1.837-1.084,1.67
				c-0.923-0.167-1.942-1.171-2.274-2.255C65.74,86.097,66.223,85.344,67.156,85.511z"/>
			<path fill="#989898" d="M67.389,85.821c0.75,0.132,1.572,0.948,1.838,1.829c0.268,0.879-0.125,1.476-0.881,1.346
				c-0.744-0.131-1.57-0.946-1.836-1.828C66.238,86.29,66.637,85.704,67.389,85.821z"/>
			<path fill="#CDCCCC" d="M67.51,86.31c0.545,0.099,1.154,0.693,1.354,1.342c0.203,0.641-0.088,1.087-0.637,0.995
				c-0.547-0.099-1.156-0.693-1.354-1.337C66.678,86.65,66.965,86.21,67.51,86.31z"/>
			<g id="Tire_Back_Holes">
				<path fill="#010101" d="M67.725,87.04c0.174,0.037,0.357,0.215,0.424,0.423c0.059,0.203-0.033,0.339-0.209,0.31
					c-0.176-0.031-0.359-0.209-0.422-0.417C67.453,87.15,67.545,87.005,67.725,87.04z"/>
				<path fill="#010101" d="M67.793,86.528c0.101,0.015,0.193,0.114,0.234,0.226c0.033,0.116-0.014,0.188-0.111,0.176
					c-0.096-0.017-0.189-0.118-0.23-0.231C67.65,86.583,67.697,86.508,67.793,86.528z"/>
				<path fill="#010101" d="M67.134,86.587c0.097,0.017,0.19,0.114,0.231,0.231c0.041,0.112-0.011,0.187-0.112,0.171
					c-0.097-0.016-0.19-0.114-0.229-0.23C66.988,86.648,67.035,86.57,67.134,86.587z"/>
				<path fill="#010101" d="M67.148,87.285c0.096,0.016,0.192,0.115,0.235,0.23c0.037,0.116-0.015,0.188-0.113,0.171
					c-0.097-0.016-0.192-0.113-0.231-0.23C67.008,87.344,67.053,87.269,67.148,87.285z"/>
				<path fill="#010101" d="M67.789,87.918c0.095,0.015,0.195,0.115,0.233,0.227c0.039,0.112-0.013,0.188-0.11,0.171
					c-0.096-0.015-0.189-0.113-0.232-0.229C67.645,87.974,67.691,87.905,67.789,87.918z"/>
				<path fill="#010101" d="M68.494,87.905c0.095,0.015,0.188,0.112,0.229,0.229c0.041,0.112-0.015,0.183-0.11,0.167
					c-0.098-0.015-0.191-0.115-0.236-0.226C68.344,87.958,68.391,87.886,68.494,87.905z"/>
				<path fill="#010101" d="M68.469,87.202c0.102,0.016,0.195,0.114,0.236,0.23c0.041,0.116-0.014,0.188-0.109,0.171
					c-0.098-0.016-0.191-0.114-0.234-0.23C68.328,87.26,68.375,87.193,68.469,87.202z"/>
			</g>
		</g>
		<g id="Tire_Mid_Back">
			<path fill="#141318" d="M81.287,90.604c1.435,0.248,3.009,1.773,3.529,3.395c0.516,1.622-0.227,2.741-1.652,2.486
				c-1.422-0.255-3.008-1.776-3.525-3.399C79.111,91.464,79.854,90.353,81.287,90.604z"/>
			<path fill="#121332" d="M81,90.822c1.416,0.251,2.975,1.765,3.484,3.379c0.504,1.613-0.223,2.733-1.639,2.482
				c-1.414-0.247-2.977-1.764-3.482-3.378C78.859,91.696,79.59,90.571,81,90.822z"/>
			<path fill="#141318" d="M80.578,91.038c1.435,0.247,3.007,1.774,3.526,3.399c0.515,1.622-0.224,2.742-1.649,2.483
				c-1.439-0.247-3.012-1.773-3.527-3.399C78.402,91.904,79.145,90.792,80.578,91.038z"/>
			<path fill="#121332" d="M80.287,91.257c1.412,0.251,2.973,1.765,3.479,3.379c0.51,1.613-0.221,2.737-1.633,2.486
				c-1.414-0.251-2.977-1.764-3.482-3.378C78.152,92.126,78.879,91.01,80.287,91.257z"/>
			<path fill="#141318" d="M79.972,91.424c1.437,0.246,3.007,1.773,3.526,3.398c0.519,1.622-0.221,2.743-1.647,2.484
				c-1.423-0.255-3.009-1.773-3.526-3.395C77.809,92.286,78.541,91.177,79.972,91.424z"/>
			<path fill="#121332" d="M79.681,91.647c1.411,0.25,2.974,1.764,3.479,3.377c0.508,1.614-0.224,2.738-1.635,2.488
				c-1.412-0.251-2.975-1.765-3.48-3.379C77.539,92.515,78.277,91.398,79.681,91.647z"/>
			<path fill="#141318" d="M79.549,91.787c1.361,0.244,2.871,1.731,3.359,3.335c0.492,1.606-0.224,2.706-1.586,2.466
				c-1.365-0.241-2.873-1.729-3.361-3.334C77.475,92.656,78.184,91.548,79.549,91.787z"/>
			<path fill="#121332" d="M79.643,92.336c1.156,0.199,2.422,1.459,2.838,2.813c0.412,1.345-0.189,2.285-1.34,2.077
				c-1.158-0.2-2.424-1.459-2.836-2.813C77.885,93.059,78.486,92.142,79.643,92.336z"/>
			<path fill="#CDCCCC" d="M79.842,92.724c0.921,0.167,1.941,1.17,2.273,2.254c0.332,1.087-0.16,1.836-1.082,1.668
				c-0.926-0.167-1.945-1.166-2.275-2.253C78.426,93.313,78.908,92.56,79.842,92.724z"/>
			<path fill="#989898" d="M80.068,93.037c0.75,0.131,1.574,0.948,1.842,1.829c0.266,0.879-0.127,1.476-0.881,1.346
				c-0.75-0.135-1.57-0.947-1.842-1.828C78.928,93.514,79.318,92.915,80.068,93.037z"/>
			<path fill="#CDCCCC" d="M80.191,93.518c0.551,0.104,1.158,0.694,1.355,1.342c0.201,0.648-0.088,1.088-0.637,1
				c-0.551-0.093-1.156-0.695-1.355-1.343C79.355,93.868,79.646,93.421,80.191,93.518z"/>
			<g>
				<path fill="#010101" d="M80.402,94.253c0.174,0.037,0.358,0.214,0.424,0.422c0.06,0.207-0.032,0.339-0.209,0.314
					c-0.17-0.031-0.354-0.214-0.42-0.422C80.135,94.367,80.23,94.221,80.402,94.253z"/>
				<path fill="#010101" d="M80.478,93.739c0.095,0.016,0.188,0.115,0.229,0.229c0.033,0.112-0.008,0.189-0.104,0.171
					c-0.103-0.015-0.194-0.112-0.235-0.229C80.334,93.799,80.383,93.723,80.478,93.739z"/>
				<path fill="#010101" d="M79.82,93.799c0.094,0.016,0.19,0.114,0.231,0.23c0.028,0.111-0.015,0.188-0.11,0.172
					c-0.096-0.017-0.191-0.114-0.232-0.231C79.678,93.86,79.723,93.784,79.82,93.799z"/>
				<path fill="#010101" d="M79.838,94.501c0.095,0.014,0.191,0.109,0.232,0.226c0.029,0.116-0.014,0.187-0.113,0.171
					c-0.096-0.016-0.188-0.115-0.232-0.23C79.689,94.56,79.742,94.486,79.838,94.501z"/>
				<path fill="#010101" d="M80.475,95.131c0.096,0.016,0.189,0.113,0.232,0.23c0.029,0.112-0.018,0.187-0.111,0.171
					c-0.098-0.016-0.193-0.114-0.236-0.23C80.328,95.19,80.375,95.114,80.475,95.131z"/>
				<path fill="#010101" d="M81.17,95.115c0.097,0.017,0.189,0.118,0.234,0.231c0.029,0.115-0.014,0.187-0.109,0.171
					c-0.096-0.017-0.195-0.114-0.234-0.231C81.02,95.174,81.074,95.103,81.17,95.115z"/>
				<path fill="#010101" d="M81.156,94.425c0.094,0.016,0.19,0.114,0.233,0.23c0.028,0.112-0.015,0.188-0.114,0.171
					c-0.096-0.016-0.191-0.113-0.23-0.23C81.014,94.472,81.057,94.409,81.156,94.425z"/>
			</g>
		</g>
		<path fill="#333333" d="M102.457,105.954l-0.76-0.583l-0.164-1.635l1.393-0.66l5.438,2.613l-5.687,2.598
			C102.027,107.945,102.457,105.954,102.457,105.954z"/>
		<g id="Tire_Mid">
			<path fill="#141318" d="M106.436,104.891c1.434,0.246,3.01,1.772,3.528,3.397c0.516,1.622-0.226,2.743-1.65,2.483
				c-1.434-0.248-3.007-1.774-3.526-3.396C104.273,105.749,105.004,104.646,106.436,104.891z"/>
			<path fill="#121332" d="M106.156,105.114c1.414,0.25,2.975,1.764,3.48,3.379c0.506,1.612-0.225,2.735-1.641,2.485
				c-1.41-0.252-2.973-1.766-3.479-3.379C104.008,105.98,104.74,104.865,106.156,105.114z"/>
			<path fill="#141318" d="M105.73,105.329c1.434,0.251,3.01,1.771,3.528,3.397c0.515,1.621-0.226,2.742-1.649,2.482
				c-1.437-0.249-3.013-1.773-3.527-3.395C103.557,106.188,104.297,105.081,105.73,105.329z"/>
			<path fill="#121332" d="M105.445,105.551c1.412,0.251,2.973,1.762,3.482,3.375c0.506,1.622-0.225,2.74-1.639,2.485
				c-1.412-0.246-2.975-1.761-3.48-3.374C103.303,106.42,104.031,105.299,105.445,105.551z"/>
			<path fill="#141318" d="M105.127,105.719c1.434,0.243,3.008,1.77,3.525,3.391c0.519,1.625-0.223,2.746-1.645,2.486
				c-1.438-0.248-3.012-1.775-3.53-3.396C102.951,106.574,103.691,105.467,105.127,105.719z"/>
			<path fill="#121332" d="M104.845,105.938c1.41,0.252,2.972,1.766,3.478,3.379c0.506,1.623-0.223,2.733-1.636,2.481
				c-1.411-0.246-2.974-1.765-3.481-3.378S103.426,105.688,104.845,105.938z"/>
			<path fill="#141318" d="M104.703,106.08c1.365,0.238,2.875,1.73,3.36,3.335c0.489,1.606-0.226,2.702-1.589,2.463
				s-2.871-1.729-3.361-3.336C102.621,106.949,103.335,105.838,104.703,106.08z"/>
			<path fill="#121332" d="M104.787,106.634c1.156,0.204,2.423,1.462,2.836,2.813c0.416,1.351-0.188,2.287-1.336,2.08
				c-1.157-0.209-2.426-1.469-2.838-2.813C103.037,107.354,103.637,106.432,104.787,106.634z"/>
			<path fill="#CDCCCC" d="M104.992,107.018c0.926,0.172,1.943,1.172,2.277,2.254c0.332,1.088-0.146,1.834-1.083,1.67
				c-0.924-0.166-1.944-1.17-2.278-2.254C103.576,107.6,104.06,106.854,104.992,107.018z"/>
			<path fill="#989898" d="M105.222,107.34c0.751,0.133,1.576,0.944,1.843,1.825c0.268,0.878-0.128,1.476-0.883,1.346
				c-0.747-0.131-1.572-0.946-1.839-1.827C104.082,107.803,104.468,107.208,105.222,107.34z"/>
			<path fill="#CDCCCC" d="M105.346,107.814c0.546,0.1,1.154,0.689,1.355,1.34c0.199,0.648-0.092,1.087-0.64,0.998
				c-0.548-0.098-1.155-0.693-1.354-1.342C104.51,108.156,104.799,107.711,105.346,107.814z"/>
			<g id="Tire_Mid_Hole">
				<path fill="#010101" d="M105.556,108.541c0.174,0.042,0.358,0.221,0.423,0.428c0.061,0.204-0.029,0.336-0.205,0.311
					c-0.176-0.034-0.359-0.215-0.423-0.422C105.299,108.654,105.381,108.512,105.556,108.541z"/>
				<path fill="#010101" d="M105.629,108.032c0.098,0.013,0.193,0.114,0.234,0.225c0.03,0.115-0.016,0.192-0.11,0.171
					c-0.095-0.017-0.193-0.111-0.235-0.228C105.486,108.089,105.529,108.014,105.629,108.032z"/>
				<path fill="#010101" d="M104.969,108.092c0.096,0.018,0.191,0.117,0.232,0.229c0.031,0.115-0.016,0.187-0.11,0.173
					c-0.095-0.015-0.19-0.117-0.235-0.228C104.824,108.148,104.875,108.076,104.969,108.092z"/>
				<path fill="#010101" d="M104.986,108.794c0.098,0.017,0.192,0.112,0.232,0.228c0.029,0.117-0.016,0.188-0.111,0.166
					c-0.096-0.011-0.191-0.106-0.232-0.223C104.845,108.852,104.892,108.773,104.986,108.794z"/>
				<path fill="#010101" d="M105.63,109.42c0.095,0.016,0.19,0.111,0.231,0.23c0.031,0.111-0.013,0.188-0.111,0.17
					c-0.098-0.014-0.19-0.113-0.232-0.229C105.482,109.484,105.529,109.402,105.63,109.42z"/>
				<path fill="#010101" d="M106.324,109.402c0.097,0.017,0.191,0.113,0.233,0.232c0.032,0.11-0.017,0.186-0.112,0.17
					c-0.095-0.019-0.19-0.115-0.234-0.229C106.179,109.464,106.223,109.389,106.324,109.402z"/>
				<path fill="#010101" d="M106.308,108.715c0.097,0.012,0.192,0.112,0.235,0.223c0.029,0.119-0.016,0.188-0.112,0.172
					c-0.096-0.012-0.192-0.112-0.235-0.224C106.164,108.768,106.207,108.698,106.308,108.715z"/>
			</g>
		</g>
		<polygon fill="#333333" points="121.607,116.52 120.683,112.918 118.785,111.698 114.91,108.46 120.316,107.145 128.087,115.369 
			122.466,118.75 		"/>
		<path fill="#333333" d="M109.861,111.914l1.146-0.732l-0.092-3.865l-5.688-3.168c-1.683,0.223-2.447,1.107-2.447,1.107
			C107.932,103.802,109.861,111.914,109.861,111.914z"/>
		<path fill="#676867" d="M109.859,111.909c0.137-5.621-5.301-7.023-5.301-7.023c-3.002-0.581-2.396,3.224-2.396,3.224l0.512,0.184
			c-0.236-0.621-0.041-1.753-0.041-1.753c0.669-2.163,3.357-0.674,3.357-0.674c3.24,2.075,3.25,5.858,3.25,5.858L109.859,111.909z"
			/>
		<path fill="#BBB9BA" d="M121.396,118.148l-11.538-6.033c0.158-3.006-0.81-3.758-0.81-3.758l1.55-0.948l11.507,4.104
			C122.9,116.807,121.398,118.148,121.396,118.148z"/>
		<polygon fill="#989898" points="122.572,112.631 121.938,111.48 112.451,106.328 110.132,107.686 121.141,113.316 		"/>
		<polygon opacity="0.5" fill="#FFFFFF" enable-background="new    " points="120.922,114.396 109.271,108.212 109.048,108.355 
			120.717,114.464 		"/>
		<path fill="none" stroke="#676867" stroke-width="0.1" stroke-miterlimit="10" d="M120.492,115.208l0.043,1.585
			c0.033,0.313-0.213,0.383-0.213,0.383l-5.269-2.713c-0.251-0.066-0.235-0.311-0.235-0.311l-0.043-1.979
			c0.019-0.264,0.357-0.194,0.357-0.194l5.141,2.717C120.582,114.835,120.492,115.209,120.492,115.208z"/>
		<path fill="none" stroke="#676867" stroke-width="0.1" stroke-miterlimit="10" d="M114.522,112.137l0.038,1.586
			c0.034,0.307-0.213,0.379-0.213,0.379l-3.881-2.06c-0.251-0.069-0.234-0.312-0.234-0.312l-0.084-1.904
			c0.02-0.26,0.355-0.195,0.355-0.195l3.792,1.98C114.598,111.771,114.523,112.137,114.522,112.137z"/>
		<polygon fill="#CDCCCC" points="120.244,116.852 115.045,114.085 115.271,113.941 120.336,116.547 		"/>
		<polygon fill="#CDCCCC" points="114.316,113.91 110.371,111.839 110.602,111.691 114.402,113.607 		"/>
		<polygon fill="#CDCCCC" points="86.244,94.647 86.244,96.967 86.734,97.289 87.098,97.281 87.041,95.069 		"/>
		<path opacity="0.3" fill="#CDCCCC" enable-background="new    " d="M100.046,92.601c-1.755-3.741-1.142-7.771-1.142-7.771
			L100.046,92.601z"/>
		<g>
			<polygon fill="#333333" points="67.828,84.768 63.162,87.034 62.818,86.754 62.707,82.097 			"/>
			<polygon fill="#333333" points="61.063,81.348 61.074,81.854 57.293,83.954 56.852,83.58 56.74,78.914 60.771,81.161 			"/>
			<polygon fill="#333333" points="85.961,92.946 83.018,93.015 83.133,97.791 86.041,96.243 			"/>
			<g>
				<g>
					<g id="Container">
						<polygon fill="#E5E5E5" points="131.807,102.203 131.432,85.708 68.912,52.632 55.875,60.393 56.313,78.969 118.785,111.698 
													"/>
						<polygon opacity="0.7" fill="#BBB9BA" enable-background="new    " points="131.773,100.566 118.902,108.539 118.555,93.903 
							131.451,86.499 						"/>
						<polygon opacity="0.7" fill="#BBB9BA" enable-background="new    " points="118.41,93.748 118.715,108.434 56.48,75.602 
							56.137,60.947 						"/>
						<path opacity="0.3" fill="#989898" enable-background="new    " d="M126.318,90.424c-0.078,1.806,0.852,3.997,0.852,3.997
							L126.318,90.424z"/>
						<path opacity="0.3" fill="#CDCCCC" enable-background="new    " d="M126.404,90.394c0.84,1.84,0.844,3.988,0.844,3.988
							L126.404,90.394z"/>
						<path opacity="0.5" fill="#989898" enable-background="new    " d="M122.101,92.739c-1.217,1.682-1.056,4.061-1.056,4.061
							L122.101,92.739z"/>
						<path opacity="0.5" fill="#CDCCCC" enable-background="new    " d="M122.16,92.795c-0.104,2.013-1.094,3.929-1.094,3.929
							L122.16,92.795z"/>
						<path opacity="0.3" fill="#989898" enable-background="new    " d="M128.326,88.606c1.043,0.694,2.508,0.594,2.508,0.594
							L128.326,88.606z"/>
						<path opacity="0.3" fill="#CDCCCC" enable-background="new    " d="M128.335,88.511c1.247-0.127,2.499,0.609,2.499,0.609
							L128.335,88.511z"/>
						<path opacity="0.3" fill="#989898" enable-background="new    " d="M126.707,89.37c1.136,1.426,3.309,2.513,3.309,2.513
							L126.707,89.37z"/>
						<path opacity="0.3" fill="#CDCCCC" enable-background="new    " d="M126.753,89.294c1.858,0.875,3.29,2.517,3.29,2.517
							L126.753,89.294z"/>
						<path opacity="0.3" fill="#989898" enable-background="new    " d="M113.975,101.57c0.735-3.35-1.169-7.793-1.169-7.793
							L113.975,101.57z"/>
						<path opacity="0.3" fill="#CDCCCC" enable-background="new    " d="M113.724,101.593c-1.756-3.741-1.142-7.774-1.142-7.774
							L113.724,101.593z"/>
						<path opacity="0.3" fill="#989898" enable-background="new    " d="M109.443,102.316c0.401-2.13-0.486-4.776-0.486-4.776
							L109.443,102.316z"/>
						<path opacity="0.3" fill="#CDCCCC" enable-background="new    " d="M109.311,102.335c-0.82-2.211-0.466-4.766-0.466-4.766
							L109.311,102.335z"/>
						<path opacity="0.3" fill="#989898" enable-background="new    " d="M111.758,100.068c-0.107-2.861-1.955-6.81-1.955-6.81
							L111.758,100.068z"/>
						<path opacity="0.3" fill="#CDCCCC" enable-background="new    " d="M111.602,100.076c-1.65-3.337-1.924-6.795-1.924-6.795
							L111.602,100.076z"/>
						<path opacity="0.3" fill="#989898" enable-background="new    " d="M116.703,100.598c0.158-2.538-1.137-5.881-1.137-5.881
							L116.703,100.598z"/>
						<path opacity="0.3" fill="#CDCCCC" enable-background="new    " d="M116.578,100.611c-1.166-2.82-1.119-5.864-1.119-5.864
							L116.578,100.611z"/>
						<path opacity="0.3" fill="#989898" enable-background="new    " d="M100.304,92.59c0.735-3.354-1.169-7.793-1.169-7.793
							L100.304,92.59z"/>
						<path opacity="0.3" fill="#989898" enable-background="new    " d="M94.051,93.379c0.402-2.127-0.484-4.773-0.484-4.773
							L94.051,93.379z"/>
						<path opacity="0.3" fill="#CDCCCC" enable-background="new    " d="M93.931,93.413c-0.817-2.212-0.466-4.766-0.466-4.766
							L93.931,93.413z"/>
						<path opacity="0.3" fill="#989898" enable-background="new    " d="M96.367,91.138c-0.109-2.864-1.955-6.814-1.955-6.814
							L96.367,91.138z"/>
						<path opacity="0.3" fill="#CDCCCC" enable-background="new    " d="M96.223,91.138c-1.646-3.332-1.922-6.793-1.922-6.793
							L96.223,91.138z"/>
						<path opacity="0.3" fill="#989898" enable-background="new    " d="M85.631,84.388c0.734-3.35-1.172-7.794-1.172-7.794
							L85.631,84.388z"/>
						<path opacity="0.3" fill="#CDCCCC" enable-background="new    " d="M85.386,84.412c-1.756-3.742-1.146-7.771-1.146-7.771
							L85.386,84.412z"/>
						<path opacity="0.3" fill="#989898" enable-background="new    " d="M79.394,85.182c0.405-2.128-0.485-4.77-0.485-4.77
							L79.394,85.182z"/>
						<path opacity="0.3" fill="#CDCCCC" enable-background="new    " d="M79.271,85.211c-0.818-2.215-0.467-4.765-0.467-4.765
							L79.271,85.211z"/>
						<path opacity="0.3" fill="#989898" enable-background="new    " d="M81.711,82.934c-0.109-2.861-1.953-6.81-1.953-6.81
							L81.711,82.934z"/>
						<path opacity="0.3" fill="#CDCCCC" enable-background="new    " d="M81.555,82.942c-1.65-3.336-1.922-6.794-1.922-6.794
							L81.555,82.942z"/>
						<path opacity="0.3" fill="#989898" enable-background="new    " d="M69.234,76.514c0.734-3.35-1.166-7.794-1.166-7.794
							L69.234,76.514z"/>
						<path opacity="0.3" fill="#CDCCCC" enable-background="new    " d="M68.988,76.54c-1.756-3.742-1.143-7.775-1.143-7.775
							L68.988,76.54z"/>
						<path opacity="0.3" fill="#989898" enable-background="new    " d="M62.998,77.309c0.406-2.128-0.486-4.77-0.486-4.77
							L62.998,77.309z"/>
						<path opacity="0.3" fill="#CDCCCC" enable-background="new    " d="M62.877,77.339c-0.822-2.215-0.467-4.765-0.467-4.765
							L62.877,77.339z"/>
						<path opacity="0.3" fill="#989898" enable-background="new    " d="M65.314,75.061c-0.111-2.864-1.957-6.814-1.957-6.814
							L65.314,75.061z"/>
						<path opacity="0.3" fill="#CDCCCC" enable-background="new    " d="M65.154,75.064c-1.649-3.335-1.92-6.793-1.92-6.793
							L65.154,75.064z"/>
					</g>
					<polygon fill="#676867" points="117.755,108.654 106.955,102.996 106.951,102.754 117.75,108.452 					"/>
					<polygon fill="#676867" points="117.766,109.383 106.972,103.714 106.972,103.479 117.766,109.182 					"/>
					<polygon fill="#676867" points="117.785,110.104 106.992,104.441 106.984,104.2 117.781,109.909 					"/>
					<polygon fill="#676867" points="105.187,102.148 94.381,96.485 94.373,96.247 105.179,101.953 					"/>
					<polygon fill="#676867" points="105.199,102.877 94.396,97.214 94.389,96.975 105.195,102.67 					"/>
					<polygon fill="#676867" points="105.219,103.596 94.412,97.937 94.406,97.693 105.214,103.398 					"/>
					<polygon fill="#676867" points="92.855,95.737 82.057,90.061 82.053,89.831 92.852,95.529 					"/>
					<polygon fill="#676867" points="92.875,96.461 82.072,90.792 82.068,90.557 92.867,96.257 					"/>
					<polygon fill="#676867" points="92.891,97.179 82.092,91.516 82.086,91.277 92.885,96.975 					"/>
					<polygon fill="#676867" points="80.324,89.178 69.521,83.504 69.518,83.267 80.318,88.97 					"/>
					<polygon fill="#676867" points="80.342,89.906 69.541,84.229 69.535,84.002 80.334,89.7 					"/>
					<polygon fill="#676867" points="80.359,90.625 69.563,84.957 69.555,84.714 80.352,90.42 					"/>
					<polygon fill="#676867" points="67.781,82.644 56.986,76.985 56.979,76.742 67.775,82.447 					"/>
					<polygon fill="#676867" points="67.797,83.372 56.998,77.715 56.994,77.47 67.793,83.176 					"/>
					<polygon fill="#676867" points="67.813,84.094 57.018,78.431 57.01,78.188 67.809,83.894 					"/>
					<g>
						<polygon fill="#676867" points="113.77,106.053 114.087,106.225 114.08,106.014 113.77,105.838 						"/>
						<polygon fill="#676867" points="114.355,106.359 114.718,106.557 114.71,106.346 114.352,106.16 						"/>
						<polygon fill="#676867" points="112.326,105.305 112.686,105.491 112.682,105.279 112.326,105.081 						"/>
						<polygon fill="#676867" points="112.961,105.635 113.507,105.922 113.498,105.706 112.953,105.419 						"/>
						<polygon fill="#676867" points="114.984,106.691 115.479,106.962 115.475,106.746 114.98,106.486 						"/>
						<polygon fill="#676867" points="115.742,107.093 116.064,107.266 116.061,107.061 115.738,106.891 						"/>
						<polygon fill="#676867" points="116.688,107.393 116.32,107.195 116.328,107.398 116.697,107.592 						"/>
						<polygon fill="#676867" points="111.746,104.997 112.06,105.16 112.053,104.945 111.742,104.773 						"/>
						<polygon fill="#676867" points="108.419,103.252 108.787,103.445 108.783,103.216 108.414,103.021 						"/>
						<polygon fill="#676867" points="107.837,102.949 108.16,103.119 108.152,102.891 107.832,102.714 						"/>
						<polygon fill="#676867" points="116.957,107.73 117.587,108.064 117.582,107.869 116.951,107.527 						"/>
						<polygon fill="#676867" points="110.99,104.605 111.475,104.857 111.475,104.634 110.98,104.379 						"/>
						<polygon fill="#676867" points="106.789,102.159 106.793,102.398 107.578,102.814 107.57,102.575 						"/>
						<polygon fill="#676867" points="110.359,104.275 110.729,104.459 110.726,104.234 110.354,104.049 						"/>
						<polygon fill="#676867" points="109.051,103.582 109.514,103.826 109.511,103.6 109.041,103.352 						"/>
						<polygon fill="#676867" points="109.777,103.971 110.1,104.128 110.09,103.904 109.773,103.736 						"/>
					</g>
					<g>
						<polygon fill="#676867" points="101.35,99.602 101.669,99.761 101.664,99.545 101.346,99.387 						"/>
						<polygon fill="#676867" points="101.932,99.905 102.299,100.092 102.295,99.889 101.928,99.69 						"/>
						<polygon fill="#676867" points="99.902,98.84 100.27,99.035 100.266,98.807 99.9,98.622 						"/>
						<polygon fill="#676867" points="100.533,99.167 101.087,99.455 101.08,99.243 100.525,98.956 						"/>
						<polygon fill="#676867" points="102.557,100.239 103.055,100.494 103.052,100.287 102.554,100.024 						"/>
						<polygon fill="#676867" points="103.326,100.641 103.637,100.802 103.632,100.598 103.322,100.427 						"/>
						<polygon fill="#676867" points="104.263,100.928 103.904,100.742 103.912,100.943 104.271,101.133 						"/>
						<polygon fill="#676867" points="99.322,98.534 99.641,98.706 99.634,98.476 99.316,98.317 						"/>
						<polygon fill="#676867" points="96.002,96.796 96.361,96.983 96.354,96.753 95.998,96.561 						"/>
						<polygon fill="#676867" points="95.422,96.49 95.732,96.652 95.726,96.418 95.416,96.247 						"/>
						<polygon fill="#676867" points="104.541,101.275 105.176,101.6 105.172,101.404 104.535,101.068 						"/>
						<polygon fill="#676867" points="98.572,98.137 99.059,98.396 99.055,98.174 98.568,97.915 						"/>
						<polygon fill="#676867" points="94.361,95.7 94.365,95.934 95.154,96.345 95.146,96.114 						"/>
						<polygon fill="#676867" points="97.943,97.803 98.302,98.003 98.297,97.781 97.937,97.584 						"/>
						<polygon fill="#676867" points="96.635,97.125 97.089,97.369 97.084,97.134 96.629,96.896 						"/>
						<polygon fill="#676867" points="97.365,97.501 97.672,97.672 97.666,97.438 97.357,97.277 						"/>
					</g>
					<g>
						<polygon fill="#676867" points="89.029,93.082 89.34,93.253 89.332,93.037 89.021,92.866 						"/>
						<polygon fill="#676867" points="89.611,93.389 89.967,93.584 89.961,93.368 89.604,93.183 						"/>
						<polygon fill="#676867" points="87.584,92.33 87.941,92.515 87.934,92.301 87.58,92.105 						"/>
						<polygon fill="#676867" points="88.213,92.66 88.758,92.95 88.752,92.724 88.209,92.436 						"/>
						<polygon fill="#676867" points="90.24,93.715 90.736,93.978 90.73,93.773 90.232,93.518 						"/>
						<polygon fill="#676867" points="90.998,94.123 91.322,94.287 91.313,94.078 90.994,93.915 						"/>
						<polygon fill="#676867" points="91.941,94.409 91.576,94.221 91.58,94.425 91.949,94.612 						"/>
						<polygon fill="#676867" points="86.998,92.025 87.309,92.188 87.307,91.963 86.994,91.803 						"/>
						<polygon fill="#676867" points="83.676,90.281 84.041,90.469 84.033,90.245 83.668,90.047 						"/>
						<polygon fill="#676867" points="83.094,89.973 83.412,90.134 83.408,89.901 83.084,89.743 						"/>
						<polygon fill="#676867" points="92.209,94.76 92.84,95.085 92.836,94.884 92.201,94.554 						"/>
						<polygon fill="#676867" points="86.24,91.632 86.727,91.883 86.727,91.661 86.236,91.406 						"/>
						<polygon fill="#676867" points="82.037,89.187 82.043,89.428 82.83,89.831 82.826,89.596 						"/>
						<polygon fill="#676867" points="85.613,91.301 85.98,91.485 85.973,91.261 85.607,91.067 						"/>
						<polygon fill="#676867" points="84.303,90.607 84.771,90.851 84.762,90.616 84.301,90.378 						"/>
						<polygon fill="#676867" points="85.029,90.998 85.35,91.157 85.344,90.935 85.025,90.763 						"/>
					</g>
					<g>
						<polygon fill="#676867" points="76.486,86.6 76.805,86.771 76.797,86.557 76.48,86.385 						"/>
						<polygon fill="#676867" points="77.068,86.905 77.439,87.102 77.434,86.887 77.064,86.699 						"/>
						<polygon fill="#676867" points="75.039,85.846 75.408,86.039 75.402,85.821 75.037,85.624 						"/>
						<polygon fill="#676867" points="75.674,86.181 76.225,86.465 76.219,86.249 75.668,85.967 						"/>
						<polygon fill="#676867" points="77.699,87.238 78.195,87.497 78.189,87.289 77.693,87.03 						"/>
						<polygon fill="#676867" points="78.467,87.64 78.775,87.807 78.77,87.603 78.459,87.435 						"/>
						<polygon fill="#676867" points="79.402,87.934 79.041,87.74 79.047,87.941 79.404,88.133 						"/>
						<polygon fill="#676867" points="74.459,85.541 74.779,85.704 74.773,85.488 74.455,85.32 						"/>
						<polygon fill="#676867" points="71.143,83.794 71.502,83.994 71.494,83.759 71.137,83.563 						"/>
						<polygon fill="#676867" points="70.561,83.488 70.869,83.664 70.863,83.427 70.555,83.255 						"/>
						<polygon fill="#676867" points="79.678,88.276 80.311,88.606 80.305,88.414 79.674,88.069 						"/>
						<polygon fill="#676867" points="73.711,85.149 74.197,85.4 74.189,85.173 73.707,84.921 						"/>
						<polygon fill="#676867" points="69.506,82.703 69.51,82.946 70.291,83.355 70.283,83.113 						"/>
						<polygon fill="#676867" points="73.08,84.814 73.441,85.005 73.438,84.782 73.076,84.592 						"/>
						<polygon fill="#676867" points="71.773,84.129 72.229,84.367 72.223,84.145 71.77,83.894 						"/>
						<polygon fill="#676867" points="72.498,84.513 72.809,84.676 72.805,84.447 72.494,84.28 						"/>
					</g>
					<g>
						<polygon fill="#676867" points="63.951,79.931 64.26,80.094 64.258,79.886 63.947,79.718 						"/>
						<polygon fill="#676867" points="64.533,80.232 64.891,80.424 64.887,80.22 64.525,80.018 						"/>
						<polygon fill="#676867" points="62.504,79.169 62.863,79.364 62.855,79.14 62.502,78.953 						"/>
						<polygon fill="#676867" points="63.137,79.5 63.68,79.785 63.674,79.571 63.131,79.284 						"/>
						<polygon fill="#676867" points="65.158,80.567 65.656,80.826 65.652,80.618 65.154,80.349 						"/>
						<polygon fill="#676867" points="65.92,80.968 66.242,81.132 66.234,80.926 65.916,80.763 						"/>
						<polygon fill="#676867" points="66.867,81.256 66.502,81.065 66.506,81.273 66.873,81.464 						"/>
						<polygon fill="#676867" points="61.924,78.865 62.236,79.037 62.229,78.811 61.918,78.651 						"/>
						<polygon fill="#676867" points="58.596,77.125 58.963,77.31 58.959,77.081 58.592,76.892 						"/>
						<polygon fill="#676867" points="58.01,76.822 58.334,76.979 58.326,76.746 58.01,76.586 						"/>
						<polygon fill="#676867" points="67.133,81.606 67.764,81.938 67.76,81.729 67.127,81.399 						"/>
						<polygon fill="#676867" points="61.166,78.472 61.652,78.731 61.648,78.506 61.158,78.247 						"/>
						<polygon fill="#676867" points="56.963,76.031 56.967,76.265 57.752,76.674 57.748,76.444 						"/>
						<polygon fill="#676867" points="60.535,78.137 60.902,78.334 60.898,78.112 60.533,77.912 						"/>
						<polygon fill="#676867" points="59.227,77.456 59.695,77.698 59.688,77.468 59.221,77.223 						"/>
						<polygon fill="#676867" points="59.955,77.833 60.275,78.004 60.27,77.77 59.951,77.61 						"/>
					</g>
				</g>
				<polygon fill="#1E2C32" points="122.301,106.34 118.902,108.539 117.996,108.005 118.033,110.791 106.521,104.874 
					106.521,102.391 105.746,102.033 105.805,104.463 94.248,98.297 94.188,95.751 93.324,95.333 93.385,97.832 81.619,91.791 
					81.686,89.173 80.973,88.877 81.037,91.402 69.205,85.34 69.143,82.706 68.494,82.432 68.621,85.001 56.715,78.585 
					56.664,76.411 56.146,76.048 56.313,78.969 118.785,111.698 122.185,109.799 				"/>
			</g>
			<polygon fill="#333333" points="97.895,100.65 97.959,103.384 98.281,103.563 98.297,104.271 97.984,104.455 97.992,104.85 
				98.941,105.236 99.623,104.727 99.617,104.531 99.078,104.257 99.063,103.542 99.588,103.327 99.545,101.479 			"/>
			<polygon fill="#989898" points="87.041,95.069 87.098,97.281 86.734,97.289 86.619,94.951 			"/>
			<polygon fill="#CDCCCC" points="85.504,95.992 85.176,96.261 85.074,98.12 95.5,103.661 96.023,103.24 95.982,101.529 			"/>
			<polygon fill="#989898" points="96.027,103.443 95.5,103.661 95.461,101.777 95.982,101.529 			"/>
			<polygon fill="#FFFFFF" points="95.465,102.057 85.176,96.261 95.461,101.777 			"/>
			<polygon fill="#989898" points="95.461,101.777 95.031,101.785 94.971,99.24 95.408,99.49 			"/>
		</g>
		<g id="Tire">
			<path fill="#141318" d="M125.906,115.451c1.436,0.249,3.008,1.773,3.527,3.396c0.516,1.62-0.224,2.743-1.646,2.484
				c-1.435-0.246-3.012-1.773-3.527-3.396C123.74,116.32,124.472,115.206,125.906,115.451z"/>
			<path fill="#121332" d="M125.623,115.684c1.412,0.25,2.974,1.765,3.479,3.379c0.507,1.621-0.223,2.733-1.638,2.48
				c-1.411-0.25-2.973-1.764-3.479-3.379C123.476,116.543,124.214,115.438,125.623,115.684z"/>
			<path fill="#141318" d="M125.193,115.891c1.435,0.248,3.012,1.772,3.527,3.395c0.516,1.621-0.223,2.74-1.646,2.484
				c-1.435-0.25-3.008-1.774-3.526-3.397C123.033,116.759,123.765,115.641,125.193,115.891z"/>
			<path fill="#121332" d="M124.919,116.118c1.413,0.255,2.972,1.769,3.481,3.379c0.506,1.624-0.225,2.735-1.638,2.485
				c-1.415-0.25-2.976-1.765-3.481-3.379C122.771,116.989,123.5,115.871,124.919,116.118z"/>
			<path fill="#141318" d="M124.593,116.275c1.433,0.25,3.01,1.771,3.526,3.396c0.518,1.622-0.226,2.742-1.647,2.482
				c-1.435-0.248-3.008-1.773-3.526-3.396C122.428,117.133,123.16,116.025,124.593,116.275z"/>
			<path fill="#121332" d="M124.312,116.504c1.413,0.25,2.974,1.766,3.479,3.378c0.508,1.622-0.223,2.738-1.635,2.485
				c-1.414-0.25-2.976-1.764-3.483-3.379C122.164,117.376,122.898,116.258,124.312,116.504z"/>
			<path fill="#141318" d="M124.179,116.645c1.364,0.244,2.871,1.73,3.36,3.336c0.49,1.606-0.223,2.705-1.586,2.463
				c-1.365-0.239-2.875-1.728-3.363-3.332C122.094,117.507,122.805,116.407,124.179,116.645z"/>
			<path fill="#121332" d="M124.269,117.193c1.155,0.199,2.423,1.461,2.833,2.815c0.416,1.345-0.186,2.283-1.335,2.074
				c-1.157-0.2-2.424-1.457-2.837-2.813C122.516,117.925,123.117,117.002,124.269,117.193z"/>
			<path fill="#CDCCCC" d="M124.459,117.575c0.926,0.167,1.943,1.168,2.277,2.252c0.332,1.086-0.145,1.835-1.084,1.67
				c-0.925-0.168-1.945-1.172-2.275-2.256C123.046,118.169,123.535,117.42,124.459,117.575z"/>
			<path fill="#989898" d="M124.688,117.902c0.751,0.131,1.573,0.951,1.84,1.828c0.271,0.877-0.127,1.475-0.877,1.344
				c-0.752-0.133-1.572-0.944-1.844-1.829C123.548,118.372,123.938,117.768,124.688,117.902z"/>
			<path fill="#CDCCCC" d="M124.822,118.372c0.549,0.101,1.156,0.692,1.355,1.343c0.2,0.649-0.088,1.09-0.639,0.996
				c-0.549-0.102-1.155-0.693-1.354-1.339C123.978,118.727,124.265,118.279,124.822,118.372z"/>
			<g id="Tire_Hole">
				<path fill="#010101" d="M125.023,119.117c0.174,0.031,0.359,0.212,0.422,0.423c0.063,0.203-0.029,0.333-0.205,0.31
					c-0.174-0.035-0.357-0.216-0.422-0.422C124.765,119.221,124.851,119.081,125.023,119.117z"/>
				<path fill="#010101" d="M125.102,118.598c0.096,0.017,0.189,0.113,0.23,0.228c0.033,0.116-0.012,0.188-0.111,0.173
					c-0.096-0.016-0.189-0.116-0.23-0.232C124.953,118.659,125.002,118.583,125.102,118.598z"/>
				<path fill="#010101" d="M124.436,118.659c0.096,0.014,0.192,0.11,0.235,0.229c0.028,0.111-0.017,0.188-0.111,0.172
					c-0.096-0.019-0.194-0.115-0.235-0.23C124.297,118.719,124.341,118.643,124.436,118.659z"/>
				<path fill="#010101" d="M124.453,119.359c0.099,0.017,0.193,0.111,0.235,0.23c0.031,0.112-0.013,0.189-0.108,0.172
					c-0.101-0.015-0.195-0.115-0.235-0.23C124.313,119.416,124.361,119.346,124.453,119.359z"/>
				<path fill="#010101" d="M125.089,119.979c0.1,0.016,0.194,0.114,0.235,0.229c0.031,0.113-0.012,0.189-0.111,0.173
					c-0.096-0.016-0.191-0.116-0.23-0.231C124.949,120.041,124.994,119.965,125.089,119.979z"/>
				<path fill="#010101" d="M125.789,119.965c0.099,0.018,0.193,0.118,0.236,0.229c0.029,0.117-0.017,0.188-0.111,0.172
					c-0.098-0.016-0.193-0.115-0.235-0.229C125.65,120.023,125.693,119.953,125.789,119.965z"/>
				<path fill="#010101" d="M125.775,119.271c0.1,0.016,0.192,0.111,0.234,0.23c0.033,0.113-0.012,0.189-0.111,0.173
					c-0.094-0.016-0.188-0.116-0.23-0.231C125.634,119.336,125.679,119.256,125.775,119.271z"/>
			</g>
		</g>
		<g id="Body">
			<path fill="#CDCCCC" d="M134.037,123.68c-0.693,0.325-0.906,0.18-0.906,0.18l-4.178-1.932c0.127-1.432-0.45-2.766-0.45-2.766
				c-0.427-1.833-1.373-2.559-1.373-2.559l-2.783-1.438c-0.456-0.267-0.985-0.072-0.985-0.072c-0.595,0.455-0.918,1.733-0.918,1.733
				l0.021,1.906l-1.233-0.691l-0.127-5.294c-0.042-0.534,0.208-0.595,0.208-0.595l0.498-0.354l-0.388-9.481
				c-0.088-1.004,0.422-1.228,0.422-1.228l-0.068-2.894l2.082-1.259l-0.029-1.216l6.396-3.784l0.852,0.729l0.945-0.49l2.975,2.988
				l5.504,2.96c0.58,0.055,1.652,2.14,1.652,2.14l0.078,0.139l0.871,2.643l-0.014,0.15l1.109,4.738l0.135,5.727l-0.348,0.287
				l0.006,0.285c0.801,0.047,0.711,0.514,0.711,0.514l0.061,2.55L134.037,123.68z"/>
			<path fill="#394A54" d="M143.873,112.33l-0.973,0.538c-0.377,0.146-0.324,0.427-0.324,0.427l-0.289,1.225l-0.187,0.219
				l-5.604,3.326c-0.521,0.228-0.555,0.016-0.555,0.016l-0.283-0.629c-0.152-0.324-0.342-0.163-0.342-0.163l-0.783,0.478
				c-0.476,0.207-0.461-0.106-0.461-0.106l-0.043-1.745c0.028-0.732,0.457-0.881,0.457-0.881l9.129-5.397
				c0.362-0.136,0.434,0.126,0.434,0.126l0.052,2.172C144.111,112.229,143.867,112.324,143.873,112.33z"/>
			<path fill="#394A54" d="M142.936,118.157l-6.973,4.122c-0.357,0.313-0.526,0.013-0.526,0.013l-0.022-1.466
				c-0.088-0.462,0.252-0.657,0.252-0.657l6.929-3.964c0.284-0.212,0.366,0.088,0.366,0.088l0.042,1.708L142.936,118.157z"/>
			<path fill="#010101" d="M144.183,107.958l-10.961,6.383c-1.022,0.112-1.39-0.72-1.39-0.72l-0.797-4.107
				c0.517,0.389,1.156,0.271,1.156,0.271l10.896-6.563L144.183,107.958z"/>
			<path fill="#1B555D" d="M144.177,107.809l-11.011,6.389c-1.022,0.119-1.244-0.789-1.244-0.789l-0.787-3.813
				c0.514,0.391,1.148-0.029,1.148-0.029l10.799-6.342L144.177,107.809z"/>
			<path fill="#010101" d="M143.656,111.424l-9.205,5.37l-0.002-0.123l-0.006-0.155c-0.035-0.25,0.185-0.33,0.185-0.33l8.838-5.177
				c0.235-0.157,0.271-0.003,0.271-0.003l0.006,0.282L143.656,111.424z"/>
			<path fill="#010101" d="M143.682,111.973l-0.143,0.115l-9.006,5.305h-0.144l-0.008-0.281l0.073-0.122l9.218-5.313
				C143.854,111.834,143.682,111.979,143.682,111.973z"/>
			<path fill="#010101" d="M141.992,113.826l-5.621,3.383l-0.219,0.008h-0.162l-0.002-0.107l-0.004-0.145l0.157-0.211l5.882-3.331
				h0.115l0.098-0.002C142.332,113.667,141.99,113.826,141.992,113.826z"/>
			<polygon fill="#010101" points="141.585,114.6 136.675,117.575 136.533,117.578 136.529,117.455 136.644,117.344 
				141.459,114.416 141.57,114.355 141.678,114.355 141.679,114.477 			"/>
			<polygon fill="#010101" points="142.662,116.618 142.664,116.77 142.593,116.9 135.957,120.75 135.861,120.75 135.787,120.564 
				135.853,120.468 142.477,116.552 			"/>
			<polygon fill="#010101" points="142.675,117.236 142.679,117.389 142.604,117.52 135.97,121.363 135.875,121.368 135.801,121.18 
				135.869,121.086 142.49,117.165 			"/>
			<polygon fill="#010101" points="142.671,117.843 142.673,118.006 142.601,118.125 135.963,121.977 135.869,121.98 
				135.796,121.798 135.861,121.704 142.488,117.783 			"/>
			<polygon fill="#FFFFFF" points="139.559,112.402 139.949,112.188 139.963,112.814 139.576,113.037 			"/>
			<polygon fill="#FFFFFF" points="139.072,112.711 139.457,112.495 139.474,113.125 139.089,113.336 			"/>
			<polygon fill="#FFFFFF" points="138.59,112.982 138.986,112.764 139.003,113.396 138.604,113.611 			"/>
			<polygon fill="#FFFFFF" points="138.07,113.275 138.464,113.063 138.479,113.689 138.084,113.904 			"/>
		</g>
		<polygon fill="#010101" points="126.039,106.635 126.13,110.432 131.104,112.854 130.318,108.782 		"/>
		<polygon fill="#193E45" points="126.158,106.693 126.25,110.385 131.104,112.807 130.328,108.73 		"/>
		<path fill="#171E1E" d="M132.979,109.202c-1.067,0.649-1.214,0.599-1.214,0.599l-0.916-0.197l-0.124-0.896l-0.008-0.276
			c0.752,0.121,1.226-0.076,1.226-0.076l10.821-6.399l0.144-0.004l0.338,0.976c0.055,0.28-0.146,0.313-0.146,0.313L132.979,109.202z
			"/>
		<path fill="#303D44" d="M130.47,108.395c0.701,0.487,1.464-0.035,1.464-0.035l10.819-6.402c0.042-0.65-0.604-1.665-0.604-1.665
			c0.069,0.115-0.088,0.337-0.088,0.337l-10.468,5.998c-0.593,0.505-1.075,0.238-1.075,0.238h-0.24L130.47,108.395z"/>
		<polygon fill="#303D44" points="130.714,108.574 122.219,104.168 122.209,103.684 130.576,108.074 		"/>
		<path opacity="0.5" fill="#669A9A" enable-background="new    " d="M133.933,113.764c-0.795,0.492-0.923,0.229-0.923,0.229
			l-0.327-1.315l0.218-0.004c0.727,0.036,3.211-1.578,3.211-1.578l0.588-0.294c1.156-0.056,1.857-0.331,1.857-0.331l5.475-3.23
			l0.086,0.494L133.933,113.764z"/>
		<path opacity="0.5" fill="#188598" enable-background="new    " d="M144.019,107.324l0.063,0.287l-4.659,2.951
			c0.46-1.541,0.036-2.58,0.036-2.58c-0.385-0.926-0.344-2.002-0.344-2.002l4.037-2.406L144.019,107.324z"/>
		<path opacity="0.5" fill="#188598" enable-background="new    " d="M133.682,113.889l-1.148-4.105l0.728-0.491
			c0.235-0.104,0.333-0.013,0.333-0.013l1.902,3.432L133.682,113.889z"/>
		<path opacity="0.5" fill="#188598" enable-background="new    " d="M133.517,113.994c-0.392,0.199-0.539,0.016-0.539,0.016
			l-0.979-3.939c0.248-0.493,0.354-0.012,0.354-0.012L133.517,113.994z"/>
		<path fill="#010101" d="M129.757,113.807c-0.388-0.035-0.349-0.541-0.349-0.541l0.267-0.127l0.047,0.401
			c0.271,0.039,0.864-0.422,0.864-0.422l0.248-0.013l0.001,0.127C130.271,113.742,129.755,113.813,129.757,113.807z"/>
		<path opacity="0.3" fill="#669A9A" enable-background="new    " d="M129.164,108.313l-0.161,0.004
			c0.036,0.3-0.644,0.269-0.644,0.269l0.066,2.864l0.645,0.189l0.862-1.996l-0.026-0.396l-0.219-0.272
			C129.115,108.631,129.164,108.313,129.164,108.313L129.164,108.313z"/>
		<path fill="#3C4759" d="M130.068,112.923l-1.17,0.697l-0.133-0.041l-0.074-3.132c0.184-0.327,1.236-0.82,1.236-0.82
			c0.126,0.072,0.191,0.238,0.191,0.238L130.068,112.923z"/>
		<path fill="#25343E" d="M130.195,112.966l-1.182,0.662h-0.122l-0.073-3.129c0.182-0.322,1.18-0.772,1.18-0.772
			c0.123,0.072,0.127,0.252,0.127,0.252L130.195,112.966z"/>
		<path fill="#010101" d="M129.508,109.34l-0.02,0.521l-0.17,0.061l-0.013-0.572c0.728-0.847,1.166-0.596,1.166-0.596l0.005,0.208
			C129.973,108.826,129.506,109.34,129.508,109.34z"/>
		<polygon fill="#FFFFFF" points="133.104,114.548 133.324,123.898 133.746,123.814 133.525,114.34 		"/>
		<path fill="#A2A1A2" d="M134.171,120.225c-0.804,0.508-1.116,0.274-1.116,0.274l-3.148-1.485
			c-1.181-4.203-4.017-4.953-4.017-4.953c3.25,0.957,4.233,4.785,4.233,4.785l2.33,1.178c0.675,0.313,1.205-0.021,1.205-0.021
			l10.313-6.027l0.079,0.445L134.171,120.225z"/>
		<path fill="#FFFFFF" d="M140.822,98.321l0.359,0.298c1.398,2.277,0.686,1.947,0.686,1.947c0.117-0.283-0.707-1.547-0.707-1.547
			l-10.774,6.161l-0.806,0.018c0.647,0.238,1.078,1.031,1.078,1.031c0.427,0.617,0.711,0.519,0.711,0.519l-0.284,0.147l-0.411,0.01
			l-0.395-0.043c-0.195-0.916-1.072-1.563-1.072-1.563l-6.768-3.732c-0.841-0.446-0.883,0.234-0.883,0.234
			c-0.083-0.529,0.297-0.684,0.297-0.684c1.371-0.061,8.5,2.393,8.5,2.393l8.154-4.821l-0.005-0.306l-0.188,0.163l-7.979-6.391
			l6.804,5.238l-2.287-2.287L140.822,98.321z"/>
		<polygon fill="#FFFFFF" points="121.699,98.406 122.55,97.923 129.748,102.9 		"/>
		<polygon fill="#C2BFBF" points="123.875,97.146 123.839,95.747 129.85,102.9 		"/>
		<path fill="#989898" d="M130.351,103.507c-7.114-2.989-7.428-2.896-7.428-2.896c0.422-0.429,4.907,1.682,4.907,1.682l2.513,1.001
			l8.151-4.919l0.009,0.306L130.351,103.507z"/>
		<polygon opacity="0.5" fill="#676867" enable-background="new    " points="131.279,116.277 122.394,111.619 122.375,110.795 
			131.26,115.389 		"/>
		<polygon opacity="0.5" fill="#FFFFFF" enable-background="new    " points="131.281,116.407 122.398,111.751 122.394,111.619 
			131.279,116.277 		"/>
		<polygon fill="#333333" points="126.189,112.913 126.201,113.333 127.218,113.866 127.205,113.443 		"/>
		<path fill="#676867" d="M122.363,110.328l2.231,1.234l0.271-0.004l-0.104-4.371l-0.195-0.139l-1.922-1.063l-0.289,0.002
			L122.363,110.328z M122.513,110.129l-0.004-3.79l0.249-0.008l1.679,0.937l0.165,0.123l0.09,3.811l-0.228,0.003L122.513,110.129z"
			/>
		<path fill="#676867" d="M122.757,109.826l1.506,0.833l0.183-0.005l-0.07-2.939l-0.125-0.101l-1.293-0.722l-0.194,0.004
			L122.757,109.826z M122.857,109.691l-0.008-2.563l0.176-0.004l1.127,0.633l0.119,0.092l0.061,2.567l-0.153,0.007L122.857,109.691z
			"/>
		<path fill="#FFFFFF" d="M133.262,121.249l0.004,0.175l-4.08-2.045c-0.938-3.152-2.023-3.689-2.023-3.689l-6.045-3.229l0.074-0.144
			l6.237,3.264c1.149,0.831,1.957,3.717,1.957,3.717L133.262,121.249L133.262,121.249z"/>
		<polygon fill="#989898" points="121.181,117.994 120.797,117.807 120.717,114.464 121.125,114.316 		"/>
	</g>
</g>
</svg>
