<?xml version="1.0" encoding="utf-8"?>
<!-- Generator: Adobe Illustrator 16.0.0, SVG Export Plug-In . SVG Version: 6.00 Build 0)  -->
<!DOCTYPE svg PUBLIC "-//W3C//DTD SVG 1.1//EN" "http://www.w3.org/Graphics/SVG/1.1/DTD/svg11.dtd">
<svg version="1.1" id="Layer_1" xmlns="http://www.w3.org/2000/svg" xmlns:xlink="http://www.w3.org/1999/xlink" x="0px" y="0px"
	 width="200px" height="200px" viewBox="0 0 200 200" enable-background="new 0 0 200 200" xml:space="preserve">
<path fill="#EAEAEA" stroke="#010101" stroke-miterlimit="10" d="M52.599,118.072"/>
<g id="Direction">
	<g transform="rotate({{angle}} 50 50)">
		<polygon id="arrow" opacity="0.7" fill="#80C342" enable-background="new    " points="125.039,141.589 101.396,161.246 
			77.76,141.855 77.76,130.967 78.026,130.967 101.396,150.355 123.975,130.968 125.039,130.966 		">
		
		</polygon>
		<polygon id="arrow2" opacity="0.7" fill="#80C342" enable-background="new    " points="125.302,154.871 101.664,174.525 
			78.025,154.871 78.025,144.248 78.291,144.247 101.664,163.37 124.241,144.248 125.302,144.248 		">
		
		</polygon>
		<polygon id="arrow3" opacity="0.7" fill="#80C342" enable-background="new    " points="125.57,168.15 101.93,187.541 
			78.291,168.152 78.291,157.264 78.557,157.264 101.93,176.65 124.505,157.262 125.57,157.262 		">

		</polygon>
	</g>
</g>
<polygon fill="#999999" points="61.166,73.786 61.727,75.442 63.303,77.523 68.727,80.671 68.023,81.822 66.758,82.02 64.902,81.88 
	63.303,80.896 60.801,80.108 62.178,82.198 63.836,82.198 63.864,82.742 62.178,82.555 61.895,82.198 60.835,80.439 59.04,79.497 
	58.579,80.193 62.823,83.959 63.074,83.655 64.707,83.621 67.572,83.734 89.236,98.691 89.384,101.945 62.542,86.713 57.344,82.198 
	58.227,86.413 53.83,83.255 53.858,79.293 51.133,77.741 50.963,73.786 53.07,72.492 53.07,70.496 55.012,69.345 56.19,69.681 
	56.5,70.496 62.415,66.787 65.493,68.445 65.493,69.26 "/>
<polygon fill="#636363" points="89.535,79.141 101.657,86.341 88.934,92.071 79.227,87.052 73.98,84.578 73.98,81.655 71.17,80.269 
	71.17,74.239 71.395,73.86 85.711,73.41 85.711,79.218 "/>
<path fill="#212121" d="M84.174,110.714L61.016,96.463c-4.385-4.249-2.098-8.41-2.098-8.41l3.035-1.888
	c1.389-0.788,2.398-0.488,2.398-0.488l20.184,11.474c7.632,4.887,6.198,10.906,6.198,10.906
	C87.921,111.662,84.173,110.723,84.174,110.714z"/>
<path fill="#3D3D3D" d="M83.931,109.254L65.775,98.631c-4.889-3.313-6.408-7.084-6.408-7.084c-1.072-2.697,0.225-3.147,0.225-3.147
	c7.869-1.407,26.12,15.79,26.12,15.79C86.927,107,83.93,109.251,83.931,109.254z"/>
<polygon fill="#AFAFAF" points="101.075,91.165 88.792,100.46 84.886,96.936 83.273,97.947 80.688,94.423 62.178,83.894 
	63.413,83.563 63.413,81.13 65.325,81.019 65.325,80.044 67.196,79.669 67.196,78.47 69.221,79.263 69.146,73.831 68.286,73.232 
	68.286,70.946 79.9,64.239 81.249,64.688 82.729,63.938 83.424,63.938 83.386,67.534 82.262,68.246 85.746,72.515 85.679,73.791 
	79.489,76.939 78.854,77.14 71.805,74.05 71.17,74.239 71.17,80.269 73.98,81.655 73.98,84.578 79.113,86.9 79.113,85.028 
	89.041,91.474 99.763,85.177 102.874,87.087 "/>
<polygon fill="#444444" points="98.994,92.812 93.206,95.796 93.317,92.923 99.951,88.651 "/>
<path fill="#8E8E8E" d="M84.501,108.416l-6.636-3.211l-0.395-1.016l-1.078-0.787c-1.243,0.789-2.859-0.277-2.859-0.277
	c-1.572-1.574-1.404-3.205-1.404-3.205l-1.236-0.843l-0.113,1.38c-2.922,1.041-4.163-2.958-4.163-2.958l0.283-0.864l-0.788-0.843
	c-2.585,0.65-4.945-2.169-4.945-2.169c-2.081-2.698-0.449-4.346-0.449-4.346c2.303-1.649,16.075,7.383,16.075,7.383l0.167,0.842
	l-0.843-0.533v0.533c3.147,1.628,9.219,6.691,9.219,6.691L84.501,108.416z"/>
<path fill="none" stroke="#000000" stroke-width="0.1" stroke-miterlimit="10" d="M81.892,105.12l-4.948-2.552l-0.111-0.619
	c-0.956-3.054-3.638-2.041-3.638-2.041l-2.316-1.961c-1.543-2.745-3.703-1.789-3.703-1.789l-1.285-1.163
	c-2.211,0.714-4.01-1.085-4.01-1.085c-1.429-1.436-1.015-3.41-1.015-3.41c0.457-2.885,13.004,4.721,13.004,4.721l1.086,1.349v1.377
	c1.8,0.218,9.518,6.345,9.518,6.345L81.892,105.12z"/>
<polygon fill="#AFAFAF" points="102.426,123.213 96.655,120.363 95.454,118.564 88.634,101.1 89.534,97.502 96.129,93.829 
	100.401,87.837 107.221,84.535 109.695,86.109 116.215,82.287 120.111,84.686 127.334,92.5 127.436,103.352 130.529,106.753 "/>
<polygon fill="#AFAFAF" points="92.474,107.452 86.066,106.553 86.01,107.004 92.606,111.585 94.462,116.489 82.486,107.566 
	79.827,105.094 80.051,103.801 83.593,103.801 90.618,105.094 "/>
<path fill="#9B9B9B" d="M127.68,108.421l1.472-0.996l-3.179-3.46l1.463-0.617l-0.104-10.853l-1.049,0.285l-6.858-7.588l-3.344-2.024
	l-5.746,3.375l-2.443-1.583l-7.153,3.52l-0.464-0.472l-4.146,5.814l0.569,0.548l-5.667,3.126l1.782,1.521l18.268-10.342l-1.5,6.693
	c4.968,5.903,6.278,10.512,6.278,10.512l9.779,0.338L127.68,108.421z"/>
<polygon fill="#9B9B9B" points="88.634,101.1 95.305,118.717 95.904,119.24 96.279,119.989 102.124,123.213 99.726,119.766 
	101.376,119.091 101.376,107.023 100.486,107.271 92.945,100.355 89.534,97.502 "/>
<polygon fill="#454545" points="92.839,95.661 92.337,95.94 92.337,95.372 91.857,95.396 91.887,94.442 90.874,95.006 
	90.844,96.771 90.485,96.969 88.23,96.969 87.415,95.396 87.415,91.548 87.892,91.548 87.892,95.426 88.37,96.409 90.338,96.409 
	90.283,95.536 89.494,94.583 88.82,94.892 88.82,93.683 89.384,93.486 89.384,92.923 89.909,92.784 89.909,94.022 91.213,93.233 
	91.034,91.548 92.839,92.953 "/>
<polygon fill="#9B9A9A" points="102.24,86.945 100.325,82.704 90.733,88.1 91.034,88.661 89.684,89.3 91.894,93.984 90.658,94.732 
	88.184,89.75 85.897,90.874 85.149,90.536 84.886,88.176 87.246,86.713 85.409,82.517 86.16,82.067 86.874,82.067 88.448,85.665 
	89.27,86.077 98.566,80.833 98.713,79.857 99.314,79.668 97.627,75.659 98.263,75.322 98.938,75.322 100.551,78.957 102.838,77.682 
	104.035,78.245 104.035,80.23 102.311,81.055 102.557,81.655 101.637,82.105 103.477,86.348 "/>
<polygon fill="#FFFFFF" points="85.711,88.998 85.971,90.498 87.585,89.676 87.324,88.063 "/>
<polygon fill="#727272" points="83.575,92.563 79.145,88.483 79.113,86.9 75.706,88.847 71.17,86.305 74.018,85.028 74.018,81.844 
	71.17,83.171 65.325,79.747 65.325,81.019 63.303,81.169 63.303,83.382 75.854,90.498 77.41,89.691 81.699,93.455 81.249,95.329 
	83.273,97.947 86.234,96.13 "/>
<path fill="#444444" d="M65.236,93.793c-0.354,0.626-1.299,0.759-2.107,0.299c-0.806-0.46-1.172-1.34-0.816-1.965
	c0.357-0.624,1.299-0.757,2.107-0.297S65.596,93.169,65.236,93.793z"/>
<ellipse transform="matrix(-0.4961 0.8683 -0.8683 -0.4961 176.0817 84.0964)" fill="#777777" cx="63.637" cy="93.146" rx="1.303" ry="1.687"/>
<path fill="#777777" d="M70.23,99.063c-0.352,0.624-1.295,0.756-2.104,0.295c-0.808-0.46-1.173-1.338-0.817-1.963
	c0.354-0.622,1.297-0.755,2.104-0.295S70.59,98.438,70.23,99.063z"/>
<path fill="#777777" d="M76.053,102.365c-0.356,0.624-1.297,0.756-2.106,0.296c-0.808-0.461-1.173-1.338-0.817-1.966
	c0.352-0.62,1.297-0.753,2.106-0.294C76.044,100.861,76.407,101.74,76.053,102.365z"/>
</svg>
