<?xml version="1.0" encoding="utf-8"?>
<!-- Generator: Adobe Illustrator 16.0.0, SVG Export Plug-In . SVG Version: 6.00 Build 0)  -->
<!DOCTYPE svg PUBLIC "-//W3C//DTD SVG 1.1//EN" "http://www.w3.org/Graphics/SVG/1.1/DTD/svg11.dtd">
<svg version="1.1" id="Layer_1" xmlns="http://www.w3.org/2000/svg" xmlns:xlink="http://www.w3.org/1999/xlink" x="0px" y="0px"
	 width="200px" height="200px" viewBox="0 0 200 200" enable-background="new 0 0 200 200" xml:space="preserve">
<path fill="#EAEAEA" stroke="#010101" stroke-miterlimit="10" d="M52.599,118.072"/>
<g id="Direction">
	<g transform="rotate({{angle}} 50 50)">
		<polygon id="arrow" opacity="0.7" fill="#80C342" enable-background="new    " points="47.247,116.184 27.59,92.542 
			46.979,68.904 57.87,68.904 57.87,69.17 38.481,92.542 57.87,115.119 57.87,116.184 		">

		</polygon>
		<polygon id="arrow2" opacity="0.7" fill="#80C342" enable-background="new    " points="33.965,116.447 14.311,92.809 
			33.965,69.17 44.589,69.17 44.589,69.436 25.467,92.809 44.589,115.387 44.589,116.447 		">

		</polygon>
		<polygon id="arrow3" opacity="0.7" fill="#80C342" enable-background="new    " points="20.684,116.715 1.295,93.073 
			20.684,69.436 31.575,69.436 31.575,69.701 12.186,93.073 31.575,115.65 31.575,116.715 		">

		</polygon>
	</g>
</g>
<polygon fill="#999999" points="115.999,69.26 115.999,68.445 119.077,66.787 124.992,70.496 125.302,69.681 126.481,69.345 
	128.422,70.496 128.422,72.492 130.529,73.786 130.359,77.741 127.634,79.293 127.662,83.255 123.265,86.413 124.149,82.198 
	118.95,86.713 92.108,101.945 92.256,98.691 113.92,83.734 116.785,83.621 118.418,83.655 118.669,83.959 122.913,80.193 
	122.452,79.497 120.657,80.439 119.597,82.198 119.315,82.555 117.628,82.742 117.656,82.198 119.315,82.198 120.691,80.108 
	118.189,80.896 116.59,81.88 114.734,82.02 113.469,81.822 112.766,80.671 118.189,77.523 119.765,75.442 120.326,73.786 "/>
<polygon fill="#636363" points="95.781,79.218 95.781,73.41 110.097,73.86 110.322,74.239 110.322,80.269 107.512,81.655 
	107.512,84.578 102.266,87.052 92.558,92.071 79.835,86.341 91.957,79.141 "/>
<path fill="#212121" d="M90.759,108.057c0,0-1.434-6.019,6.198-10.906l20.183-11.474c0,0,1.011-0.3,2.399,0.488l3.035,1.888
	c0,0,2.288,4.161-2.098,8.41l-23.158,14.251C97.319,110.722,93.571,111.662,90.759,108.057z"/>
<path fill="#3D3D3D" d="M95.781,104.19c0,0,18.25-17.197,26.119-15.79c0,0,1.297,0.45,0.225,3.147c0,0-1.519,3.771-6.408,7.084
	l-18.156,10.623C97.562,109.251,94.565,107,95.781,104.19z"/>
<polygon fill="#AFAFAF" points="78.618,87.087 81.729,85.177 92.451,91.474 102.379,85.028 102.379,86.9 107.512,84.578 
	107.512,81.655 110.322,80.269 110.322,74.239 109.687,74.05 102.639,77.14 102.003,76.939 95.813,73.791 95.746,72.515 
	99.23,68.246 98.106,67.534 98.068,63.938 98.763,63.938 100.243,64.688 101.592,64.239 113.206,70.946 113.206,73.232 
	112.346,73.831 112.271,79.263 114.296,78.47 114.296,79.669 116.167,80.044 116.167,81.019 118.079,81.13 118.079,83.563 
	119.315,83.894 100.805,94.423 98.219,97.947 96.606,96.936 92.7,100.46 80.417,91.165 "/>
<polygon fill="#444444" points="81.541,88.651 88.175,92.923 88.286,95.796 82.498,92.812 "/>
<path fill="#8E8E8E" d="M96.157,104.194c0,0,6.071-5.064,9.219-6.692v-0.533l-0.843,0.533l0.167-0.842
	c0,0,13.772-9.032,16.076-7.383c0,0,1.631,1.648-0.45,4.346c0,0-2.36,2.819-4.945,2.169l-0.788,0.843l0.283,0.864
	c0,0-1.241,3.999-4.163,2.958l-0.113-1.38l-1.236,0.843c0,0,0.167,1.631-1.405,3.205c0,0-1.616,1.067-2.859,0.277l-1.079,0.788
	l-0.394,1.015l-6.636,3.211L96.157,104.194z"/>
<path fill="none" stroke="#000000" stroke-width="0.1" stroke-miterlimit="10" d="M97.018,104.292c0,0,7.718-6.127,9.518-6.345
	v-1.377l1.086-1.349c0,0,12.547-7.606,13.004-4.721c0,0,0.414,1.974-1.015,3.41c0,0-1.798,1.799-4.009,1.085l-1.285,1.163
	c0,0-2.161-0.956-3.703,1.789l-2.317,1.961c0,0-2.682-1.013-3.638,2.041l-0.111,0.62L99.6,105.12L97.018,104.292z"/>
<polygon fill="#AFAFAF" points="50.963,106.753 54.056,103.352 54.158,92.5 61.381,84.686 65.277,82.287 71.797,86.109 
	74.271,84.535 81.091,87.837 85.363,93.829 91.958,97.502 92.858,101.099 86.038,118.564 84.837,120.363 79.067,123.213 "/>
<polygon fill="#AFAFAF" points="90.874,105.094 97.899,103.801 101.441,103.801 101.665,105.094 99.006,107.567 87.03,116.489 
	88.886,111.585 95.482,107.004 95.426,106.553 89.018,107.452 "/>
<path fill="#9B9B9B" d="M55.855,106.218l9.78-0.338c0,0,1.31-4.609,6.278-10.512l-1.5-6.693l18.268,10.342l1.782-1.521l-5.667-3.126
	l0.569-0.548l-4.146-5.814l-0.464,0.472l-7.154-3.52l-2.443,1.583l-5.746-3.375l-3.343,2.024L55.21,92.78l-1.049-0.285
	l-0.105,10.852l1.463,0.618l-3.178,3.46l1.472,0.996L55.855,106.218z"/>
<polygon fill="#9B9B9B" points="91.958,97.502 88.547,100.355 81.006,107.272 80.116,107.023 80.116,119.091 81.766,119.766 
	79.368,123.213 85.213,119.989 85.588,119.24 86.187,118.717 92.858,101.099 "/>
<polygon fill="#454545" points="88.653,92.953 90.458,91.548 90.279,93.233 91.583,94.022 91.583,92.784 92.108,92.923 
	92.108,93.486 92.672,93.683 92.672,94.892 91.998,94.583 91.209,95.536 91.154,96.409 93.122,96.409 93.6,95.426 93.6,91.548 
	94.077,91.548 94.077,95.396 93.262,96.969 91.007,96.969 90.648,96.771 90.618,95.006 89.605,94.442 89.635,95.396 89.155,95.372 
	89.155,95.94 88.653,95.661 "/>
<polygon fill="#9B9A9A" points="78.015,86.348 79.856,82.105 78.936,81.655 79.182,81.055 77.457,80.23 77.457,78.245 
	78.655,77.682 80.942,78.957 82.554,75.322 83.229,75.322 83.865,75.659 82.178,79.668 82.779,79.857 82.926,80.833 92.222,86.077 
	93.044,85.665 94.618,82.067 95.332,82.067 96.083,82.517 94.246,86.713 96.606,88.176 96.343,90.536 95.595,90.874 93.308,89.75 
	90.834,94.732 89.598,93.984 91.808,89.3 90.458,88.661 90.759,88.1 81.167,82.704 79.252,86.945 "/>
<polygon fill="#FFFFFF" points="94.168,88.063 93.907,89.676 95.521,90.498 95.781,88.998 "/>
<polygon fill="#727272" points="95.258,96.13 98.219,97.947 100.243,95.329 99.793,93.455 104.082,89.691 105.639,90.498 
	118.189,83.382 118.189,81.169 116.167,81.019 116.167,79.747 110.322,83.171 107.474,81.844 107.474,85.028 110.322,86.305 
	105.786,88.847 102.379,86.9 102.347,88.483 97.917,92.563 "/>
<path fill="#444444" d="M117.072,91.83c0.809-0.46,1.75-0.327,2.107,0.297c0.356,0.625-0.01,1.505-0.816,1.965
	c-0.808,0.46-1.754,0.327-2.107-0.299C115.896,93.169,116.264,92.29,117.072,91.83z"/>
<ellipse transform="matrix(-0.496 -0.8683 0.8683 -0.496 95.4366 241.683)" fill="#777777" cx="117.86" cy="93.144" rx="1.303" ry="1.687"/>
<path fill="#777777" d="M112.079,97.1c0.808-0.46,1.75-0.327,2.105,0.295c0.355,0.625-0.01,1.503-0.818,1.963
	c-0.809,0.461-1.752,0.329-2.105-0.295C110.902,98.438,111.271,97.56,112.079,97.1z"/>
<path fill="#777777" d="M106.257,100.401c0.809-0.459,1.754-0.326,2.107,0.295c0.355,0.627-0.01,1.504-0.818,1.965
	c-0.809,0.46-1.75,0.328-2.107-0.296C105.085,101.74,105.448,100.862,106.257,100.401z"/>
</svg>
