<?xml version="1.0" encoding="utf-8"?>
<!-- Generator: Adobe Illustrator 16.0.0, SVG Export Plug-In . SVG Version: 6.00 Build 0)  -->
<!DOCTYPE svg PUBLIC "-//W3C//DTD SVG 1.1//EN" "http://www.w3.org/Graphics/SVG/1.1/DTD/svg11.dtd">
<svg version="1.1" id="Layer_1" xmlns="http://www.w3.org/2000/svg" xmlns:xlink="http://www.w3.org/1999/xlink" x="0px" y="0px"
	 width="100px" height="100px" viewBox="0 0 100 100" enable-background="new 0 0 100 100" xml:space="preserve">
<circle cx="50" cy="50" r="10.539"/>
<path d="M32.741,70.093c-5.654-4.861-9.247-12.051-9.247-20.092c0-8.44,3.946-15.956,10.091-20.811l-0.014-0.018
	c0.861-0.662,1.426-1.692,1.426-2.862c0-2-1.622-3.623-3.622-3.623c-1.021,0-1.94,0.427-2.599,1.107
	c-7.634,6.188-12.535,15.613-12.535,26.207c0,10.222,4.565,19.355,11.744,25.543c0.672,0.78,1.655,1.285,2.765,1.285
	c2.024,0,3.666-1.642,3.666-3.665C34.417,71.875,33.747,70.746,32.741,70.093z"/>
<path d="M24.051,82.158l0.013-0.017C14.69,74.567,8.684,62.991,8.684,50c0-13.078,6.083-24.729,15.567-32.299v-0.038
	c1.252-0.764,2.097-2.13,2.097-3.705c0-2.402-1.949-4.351-4.351-4.351c-1.118,0-2.127,0.434-2.897,1.127l-0.019-0.023
	C7.462,19.866,0,34.06,0,50c0,15.508,7.075,29.351,18.158,38.52c0.063,0.064,0.138,0.115,0.206,0.175
	c0.113,0.093,0.22,0.192,0.334,0.284l0.004-0.005c0.717,0.521,1.592,0.837,2.545,0.837c2.402,0,4.351-1.949,4.351-4.352
	C25.598,84.131,24.989,82.956,24.051,82.158z"/>
<path d="M67.119,29.324c5.653,4.861,9.246,12.051,9.246,20.092c0,8.44-3.946,15.956-10.092,20.811l0.015,0.019
	c-0.861,0.662-1.426,1.692-1.426,2.862c0,2,1.622,3.623,3.622,3.623c1.021,0,1.939-0.428,2.599-1.107
	c7.634-6.188,12.534-15.613,12.534-26.207c0-10.222-4.564-19.355-11.744-25.543c-0.672-0.78-1.654-1.285-2.765-1.285
	c-2.024,0-3.665,1.642-3.665,3.665C65.443,27.542,66.112,28.671,67.119,29.324z"/>
<path d="M75.809,17.259l-0.013,0.017c9.374,7.574,15.38,19.15,15.38,32.142c0,13.078-6.084,24.729-15.567,32.3v0.037
	c-1.253,0.765-2.097,2.131-2.097,3.705c0,2.402,1.949,4.352,4.352,4.352c1.117,0,2.127-0.435,2.896-1.128l0.02,0.023
	c11.618-9.155,19.08-23.349,19.08-39.289c0-15.508-7.075-29.351-18.158-38.52c-0.063-0.064-0.138-0.115-0.205-0.175
	c-0.113-0.093-0.221-0.192-0.334-0.284l-0.004,0.005c-0.717-0.521-1.592-0.837-2.545-0.837c-2.402,0-4.352,1.949-4.352,4.352
	C74.262,15.286,74.87,16.461,75.809,17.259z"/>
</svg>
