<?xml version="1.0" encoding="utf-8"?>
<!-- Generator: Adobe Illustrator 16.0.0, SVG Export Plug-In . SVG Version: 6.00 Build 0)  -->
<!DOCTYPE svg PUBLIC "-//W3C//DTD SVG 1.1//EN" "http://www.w3.org/Graphics/SVG/1.1/DTD/svg11.dtd">
<svg version="1.1" id="Layer_1" xmlns="http://www.w3.org/2000/svg" xmlns:xlink="http://www.w3.org/1999/xlink" x="0px" y="0px"
	 width="200px" height="200px" viewBox="0 0 200 200" enable-background="new 0 0 200 200" xml:space="preserve">
<g id="Direction">
	<g transform="rotate({{angle}} 50 50)">
		<polygon id="arrow" opacity="0.7" fill="#80C342" enable-background="new    " points="76.626,135.836 77.689,135.832 
			100.267,155.223 123.641,135.834 123.904,135.834 123.906,146.723 100.27,166.113 76.625,146.457 		">
		
	
		</polygon>
		<polygon id="arrow2" opacity="0.7" fill="#80C342" enable-background="new    " points="76.363,149.115 77.422,149.117 
			99.999,168.236 123.375,149.113 123.637,149.113 123.641,159.734 99.999,179.393 76.363,159.738 		">
		
		</polygon>
		<polygon id="arrow3" opacity="0.7" fill="#80C342" enable-background="new    " points="76.095,162.129 77.16,162.129 
			99.737,181.518 123.109,162.127 123.375,162.127 123.375,173.018 99.737,192.408 76.095,173.02 		">
		
	
		</polygon>
	</g>
</g>
<g id="Tire">
	<path fill="#141318" d="M103.936,112.49c2.969,1.031,5.793,4.824,6.324,8.455c0.531,3.633-1.431,5.756-4.369,4.709
		c-2.965-1.025-5.787-4.816-6.321-8.447C99.032,113.585,100.97,111.461,103.936,112.49z"/>
	<path fill="#121332" d="M103.257,112.88c2.921,1.022,5.708,4.795,6.226,8.397c0.51,3.629-1.424,5.74-4.346,4.714
		c-2.926-1.021-5.712-4.787-6.228-8.396C98.393,113.969,100.338,111.865,103.257,112.88z"/>
	<path fill="#141318" d="M102.275,113.167c2.965,1.034,5.783,4.821,6.318,8.455c0.531,3.633-1.43,5.756-4.367,4.718
		c-2.966-1.035-5.784-4.822-6.32-8.454C97.371,114.271,99.322,112.146,102.275,113.167z"/>
	<path fill="#121332" d="M101.602,113.566c2.922,1.022,5.711,4.793,6.229,8.4c0.507,3.626-1.43,5.735-4.35,4.717
		c-2.922-1.029-5.708-4.798-6.227-8.404C96.736,114.67,98.675,112.545,101.602,113.566z"/>
	<path fill="#141318" d="M100.859,113.781c2.965,1.027,5.789,4.814,6.318,8.451c0.531,3.635-1.429,5.756-4.367,4.711
		c-2.966-1.023-5.789-4.816-6.32-8.453C95.957,114.857,97.898,112.759,100.859,113.781z"/>
	<path fill="#121332" d="M100.175,114.175c2.923,1.023,5.71,4.792,6.226,8.401c0.515,3.629-1.424,5.736-4.342,4.716
		c-2.918-1.026-5.709-4.794-6.229-8.396C95.312,115.291,97.259,113.158,100.175,114.175z"/>
	<path fill="#141318" d="M99.846,114.434c2.825,0.982,5.514,4.676,5.992,8.262c0.479,3.587-1.418,5.672-4.238,4.689
		c-2.822-0.986-5.511-4.685-5.989-8.267C95.108,115.536,97.011,113.443,99.846,114.434z"/>
	<path fill="#121332" d="M99.846,115.633c2.389,0.823,4.648,3.946,5.053,6.969c0.416,3.013-1.195,4.793-3.571,3.949
		c-2.385-0.824-4.645-3.947-5.051-6.973C95.868,116.574,97.464,114.813,99.846,115.633z"/>
	<path fill="#CDCCCC" d="M100.131,116.501c1.909,0.677,3.727,3.157,4.055,5.587c0.326,2.432-0.955,3.854-2.887,3.174
		c-1.91-0.677-3.729-3.164-4.058-5.586C96.91,117.271,98.21,115.854,100.131,116.501z"/>
	<path fill="#989898" d="M100.492,117.273c1.55,0.537,3.014,2.559,3.28,4.531c0.271,1.963-0.781,3.092-2.338,2.553
		c-1.547-0.539-3.014-2.56-3.28-4.529C97.907,117.886,98.947,116.729,100.492,117.273z"/>
	<path fill="#CDCCCC" d="M100.622,118.327c1.132,0.412,2.215,1.883,2.412,3.327c0.2,1.451-0.57,2.279-1.706,1.9
		c-1.13-0.404-2.218-1.878-2.412-3.324C98.697,118.79,99.461,117.938,100.622,118.327z"/>
	<g id="Tire_Hole">
		<path fill="#010101" d="M100.787,119.98c0.357,0.131,0.686,0.58,0.75,1.045c0.058,0.451-0.184,0.703-0.549,0.592
			c-0.357-0.133-0.683-0.583-0.75-1.045C100.202,120.114,100.425,119.848,100.787,119.98z"/>
		<path fill="#010101" d="M101.128,118.904c0.199,0.059,0.368,0.308,0.417,0.563c0.025,0.259-0.098,0.392-0.294,0.333
			c-0.205-0.072-0.375-0.316-0.424-0.57C100.798,118.979,100.921,118.837,101.128,118.904z"/>
		<path fill="#010101" d="M99.695,118.801c0.203,0.065,0.373,0.313,0.422,0.57c0.025,0.254-0.098,0.395-0.299,0.327
			c-0.196-0.071-0.371-0.312-0.42-0.575C99.374,118.887,99.501,118.739,99.695,118.801z"/>
		<path fill="#010101" d="M99.489,120.302c0.202,0.066,0.374,0.31,0.418,0.571c0.027,0.255-0.093,0.387-0.294,0.326
			c-0.2-0.066-0.372-0.317-0.416-0.571C99.161,120.377,99.295,120.234,99.489,120.302z"/>
		<path fill="#010101" d="M100.62,121.834c0.202,0.064,0.375,0.316,0.422,0.568c0.026,0.26-0.093,0.392-0.294,0.332
			c-0.199-0.067-0.371-0.316-0.416-0.57C100.3,121.92,100.432,121.775,100.62,121.834z"/>
		<path fill="#010101" d="M102.119,122.048c0.199,0.065,0.374,0.317,0.419,0.572c0.026,0.256-0.095,0.394-0.295,0.332
			c-0.199-0.071-0.368-0.313-0.415-0.574C101.805,122.129,101.921,121.984,102.119,122.048z"/>
		<path fill="#010101" d="M102.324,120.579c0.205,0.065,0.375,0.312,0.421,0.571c0.028,0.254-0.095,0.389-0.292,0.326
			c-0.199-0.072-0.371-0.317-0.42-0.572C102.006,120.654,102.127,120.507,102.324,120.579z"/>
	</g>
</g>
<g id="Tire_1_">
	<path fill="#141318" d="M66.07,83.992c2.58,1.117,4.832,4.694,5.062,7.966c0.22,3.271-1.672,5.026-4.215,3.895
		c-2.577-1.116-4.83-4.691-5.06-7.964C61.628,84.634,63.505,82.871,66.07,83.992z"/>
	<path fill="#121332" d="M65.445,84.293c2.529,1.117,4.752,4.663,4.968,7.914c0.205,3.267-1.666,5.016-4.197,3.895
		c-2.537-1.104-4.758-4.656-4.967-7.907C61.034,84.929,62.911,83.188,65.445,84.293z"/>
	<path fill="#141318" d="M64.55,84.488c2.565,1.119,4.821,4.693,5.052,7.964c0.219,3.275-1.673,5.029-4.22,3.895
		c-2.571-1.115-4.821-4.691-5.051-7.962C60.102,85.127,61.984,83.364,64.55,84.488z"/>
	<path fill="#121332" d="M63.919,84.792c2.534,1.116,4.763,4.66,4.974,7.912c0.202,3.265-1.668,5.017-4.201,3.898
		c-2.53-1.111-4.752-4.657-4.969-7.904C59.507,85.439,61.382,83.677,63.919,84.792z"/>
	<path fill="#141318" d="M63.24,84.934c2.574,1.115,4.828,4.689,5.062,7.964c0.216,3.277-1.676,5.03-4.223,3.896
		c-2.572-1.119-4.826-4.689-5.05-7.966C58.798,85.557,60.673,83.816,63.24,84.934z"/>
	<path fill="#121332" d="M62.609,85.236c2.535,1.111,4.759,4.66,4.976,7.911c0.203,3.271-1.674,5.01-4.201,3.904
		c-2.532-1.117-4.76-4.662-4.969-7.909C58.193,85.889,60.079,84.13,62.609,85.236z"/>
	<path fill="#141318" d="M62.295,85.444c2.451,1.075,4.598,4.551,4.775,7.78c0.181,3.219-1.659,4.951-4.103,3.878
		c-2.448-1.073-4.59-4.541-4.771-7.77C57.997,86.103,59.839,84.368,62.295,85.444z"/>
	<path fill="#121332" d="M62.217,86.51c2.07,0.893,3.869,3.834,4.021,6.557c0.16,2.704-1.394,4.185-3.457,3.271
		c-2.069-0.899-3.868-3.835-4.021-6.556C58.605,87.082,60.148,85.618,62.217,86.51z"/>
	<path fill="#CDCCCC" d="M62.404,87.306c1.658,0.735,3.104,3.073,3.233,5.26c0.121,2.188-1.12,3.365-2.795,2.631
		c-1.655-0.743-3.103-3.083-3.229-5.262C59.482,87.767,60.738,86.596,62.404,87.306z"/>
	<path fill="#989898" d="M62.679,88.02c1.343,0.587,2.511,2.491,2.607,4.261c0.104,1.768-0.906,2.702-2.257,2.115
		c-1.342-0.589-2.508-2.49-2.608-4.264C60.331,88.385,61.333,87.424,62.679,88.02z"/>
	<path fill="#CDCCCC" d="M62.717,88.968c0.982,0.439,1.85,1.824,1.92,3.128c0.083,1.307-0.66,1.994-1.646,1.58
		c-0.987-0.444-1.85-1.831-1.924-3.133C60.975,89.242,61.712,88.533,62.717,88.968z"/>
	<g id="Tire_Hole_1_">
		<path fill="#010101" d="M62.749,90.449c0.313,0.144,0.573,0.566,0.601,0.981c0.023,0.412-0.205,0.617-0.527,0.491
			c-0.312-0.142-0.569-0.567-0.596-0.982C62.227,90.53,62.439,90.305,62.749,90.449z"/>
		<path fill="#010101" d="M63.134,89.513c0.175,0.072,0.308,0.303,0.336,0.539c0.007,0.225-0.112,0.34-0.286,0.27
			c-0.177-0.076-0.313-0.305-0.336-0.538C62.835,89.56,62.954,89.439,63.134,89.513z"/>
		<path fill="#010101" d="M61.861,89.325c0.177,0.073,0.308,0.301,0.332,0.537c0.011,0.225-0.11,0.343-0.284,0.268
			c-0.173-0.072-0.308-0.3-0.332-0.538C61.57,89.375,61.693,89.253,61.861,89.325z"/>
		<path fill="#010101" d="M61.572,90.646c0.177,0.074,0.315,0.303,0.337,0.536c0.004,0.223-0.111,0.34-0.285,0.267
			c-0.175-0.068-0.31-0.299-0.336-0.533C61.277,90.687,61.404,90.573,61.572,90.646z"/>
		<path fill="#010101" d="M62.484,92.094c0.17,0.069,0.306,0.302,0.334,0.533c0.002,0.226-0.119,0.342-0.291,0.272
			c-0.168-0.072-0.309-0.301-0.334-0.533C62.188,92.144,62.314,92.024,62.484,92.094z"/>
		<path fill="#010101" d="M63.802,92.387c0.177,0.073,0.31,0.303,0.336,0.539c0.007,0.224-0.108,0.34-0.284,0.268
			c-0.175-0.072-0.313-0.305-0.334-0.535C63.509,92.435,63.62,92.313,63.802,92.387z"/>
		<path fill="#010101" d="M64.089,91.088c0.174,0.072,0.313,0.304,0.336,0.537c0.007,0.224-0.11,0.345-0.287,0.272
			c-0.174-0.078-0.305-0.307-0.336-0.543C63.794,91.138,63.911,91.012,64.089,91.088z"/>
	</g>
</g>
<g id="Layer_2">
	<path fill="#8E8E8E" d="M134.55,107.074c0.746,1.81,0.746,5.749,0.746,5.749c1.173,2.872-0.53,4.471-0.53,4.471
		c-2.877,3.511-15.647,9.577-15.647,9.577c-5.96,1.702-9.048,0.744-9.048,0.744l-2.129-0.961
		c-2.871-11.066-7.875-12.772-7.875-12.772c-5.107-3.833-5.214,3.729-5.214,3.729l-0.531-2.449L70.369,95.686l-1.379-0.43
		c-1.705-6.493-4.793-9.901-4.793-9.901c-5.008-5-5.641,0.216-5.641,0.216l-4.685-4.894v-5.856l0.639-2.236l1.703-3.086
		l20.438-8.195h2.234l13.624,9.267c4.041-1.809,4.255-0.958,4.255-0.958l14.263,9.906c4.152,3.297,10.43,11.71,10.43,11.71
		c3.939,2.554,6.495,6.064,6.495,6.064l6.278,5.326l0.53,1.166C135.049,104.42,134.551,107.076,134.55,107.074z"/>
</g>
<path fill="#AAAAAA" d="M120.662,119.332c-4.631,2.025-4.631,1.173-4.631,1.173c-1.758-0.278-0.454-3.955-0.454-3.955
	c0.411-1.755,2.315-2.38,2.315-2.38l13.467-7.396c1.223-0.373,1.223,0,1.223,0c0.745,0.75,0,5.002,0,5.002
	C130.453,114.486,120.659,119.328,120.662,119.332z"/>
<path fill="#636363" d="M121.057,118.891c-4.429,1.92-4.787,1.393-4.787,1.393c-1.687-0.244-0.24-4.135-0.24-4.135
	c0.326-1.146,2.318-2.033,2.318-2.033l12.856-7.01c1.172-0.355,1.174-0.014,1.174-0.014c0.724,0.688,0.052,4.646,0.052,4.646
	C130.41,114.281,121.061,118.887,121.057,118.891z"/>
<path d="M120.161,91.708c-9.166,7.216-20.62,9.843-20.62,9.843c-1.063-0.078-1.228-0.797-1.228-0.797l-4.417-10.442
	c11.615-3.507,18.081-8.451,18.081-8.451h0.655l7.527,8.852C120.591,91.228,120.159,91.712,120.161,91.708z"/>
<path fill="#2A344C" d="M119.787,91.812c-8.942,7.225-20.116,9.859-20.116,9.859c-1.038-0.084-1.197-0.803-1.197-0.803L94.16,90.411
	c11.335-3.512,17.641-8.465,17.641-8.465h0.639l7.345,8.863C120.21,91.317,119.784,91.804,119.787,91.812z"/>
<path d="M95.276,102.088c-2.476-0.402-11.336-7.598-11.336-7.598c-0.314-1.13,1.838-7.491,1.838-7.491h0.639
	c0.638,0.16,4.709,3.993,4.709,3.993C92.161,92.668,95.276,102.086,95.276,102.088z"/>
<path fill="#2A344C" d="M95.591,102.139c-2.474-0.402-11.335-7.599-11.335-7.599c-0.316-1.129,1.838-7.491,1.838-7.491h0.637
	c0.643,0.162,4.713,3.995,4.713,3.995C92.48,92.722,95.595,102.143,95.591,102.139z"/>
<path fill="#DBDBDB" d="M118.363,124.18c-3.029,0.797-8.195-0.107-8.195-0.107c-0.479-0.159-3.702-2.002-3.702-2.002
	c-0.163,1.115,1.384,4.578,1.384,4.578c1.477,2.709,9.713,1.201,9.713,1.201c17.147-7.873,17.883-10.799,17.883-10.799
	c1.011-1.644,0-3.953,0-3.953C134.273,118.098,118.361,124.17,118.363,124.18z"/>
<path fill="#DBDBDB" d="M115.676,116.148c0,0-0.015,0.049-0.039,0.146c-0.143,0.614-0.679,2.963-0.402,3.472
	c0,0-6.172,0.693-7.717-0.744c0,0-1.438-1.547,3.086-2.504"/>
<polygon fill="#494949" points="76.861,77.023 76.225,77.553 73.824,82.45 72.177,83.194 56.747,70.849 56.747,69.677 
	77.072,61.905 78.777,61.905 90.913,70.849 "/>
<polygon fill="#2B2B2B" points="84.229,73.785 76.225,77.553 73.824,82.45 72.177,83.194 56.747,70.849 56.747,69.677 
	77.072,61.905 78.777,61.905 78.296,69.092 "/>
<path fill="#E0E0E0" d="M132.713,108.688c-7.98,5.269-17.042,8.861-17.042,8.861l0.047-0.38c4.752-1.456,16.99-8.769,16.99-8.769
	L132.713,108.688z"/>
<path fill="#E0E0E0" d="M115.468,119.223v0.4c12.298-4.91,17.117-9.02,17.117-9.02l0.044-0.397
	c-5.953,4.946-17.154,9.017-17.154,9.017H115.468z"/>
<path fill="#606060" d="M103.064,108.77c5.797,6.864,13.558,6.146,13.558,6.146c-2.687,0.638-7.532-1.938-7.532-1.938
	c-8.146-5.572-9.424-11.313-9.424-11.313C98.867,103.736,103.064,108.768,103.064,108.77z"/>
<path fill="#606060" d="M127.118,95.537c6.655,6.04,5.655,13.77,5.655,13.77c0.731-2.662-1.666-7.6-1.666-7.6
	c-5.273-8.34-10.967-9.821-10.967-9.821C122.247,91.16,127.119,95.537,127.118,95.537z"/>
<polygon fill="#606060" points="82.186,91.053 75.479,85.749 76.861,81.141 83.564,86.247 "/>
<polygon fill="#A5A4A4" points="103.557,77.096 94.789,70.849 96.316,70.487 104.914,76.487 "/>
<polygon fill="#A5A4A4" points="100.738,78.319 91.971,72.072 93.494,71.711 102.096,77.715 "/>
<polygon fill="#A5A4A4" points="97.335,79.598 88.568,73.348 90.086,72.989 98.684,78.992 "/>
<polygon fill="#A5A4A4" points="93.872,81.141 85.107,74.892 86.628,74.53 95.227,80.535 "/>
<polygon fill="#A5A4A4" points="90.615,82.575 81.85,76.33 83.372,75.968 91.973,81.971 "/>
<polygon fill="#A5A4A4" points="87.27,84.147 78.505,77.9 80.023,77.543 88.624,83.541 "/>
<path fill="#606060" d="M83.566,94.541c-0.135,1.424-0.453,11.458-0.453,11.458l0.453,0.371c-0.215-3.276,0.373-11.773,0.373-11.773
	L83.566,94.541z"/>
<polygon fill="#606060" points="81.85,94.541 55.759,72.553 56.081,72.204 81.85,93.795 "/>
<path fill="#B2B2B2" d="M53.875,78.19v-1.167c-1.799,0.372-1.547,4.044-1.547,4.044l3.191,3.526
	c0.478-0.516,0.239-1.993,0.239-1.993l-1.887-1.974V78.19H53.875z"/>
<polygon fill="#DBDBDB" points="84.477,98.046 86.547,99.853 86.547,99.159 84.477,97.415 "/>
<path fill="#415170" d="M99.321,101.135c10.699-1.918,20.171-9.328,20.171-9.328l-0.322-0.375
	c-8.939-3.902-23.943-0.379-23.943-0.379C94.852,91.131,99.32,101.129,99.321,101.135z"/>
<path fill="#415170" d="M84.473,94.422c4.31,3.887,9.685,6.707,9.685,6.707l-0.534-0.58c-3.671-2.38-7.077-12.83-7.077-12.83
	C85.809,88.049,84.477,94.422,84.473,94.422z"/>
<path fill="#7D838C" d="M99.907,100.557l4.044-0.7c-2.447-0.166-7.61-8.051-7.61-8.051C96.294,92.8,99.907,100.555,99.907,100.557z"
	/>
<path fill="#7D838C" d="M85.911,95.357l-0.808-0.935c0.15-1.006,1.125-5.054,1.125-5.054C85.32,94.051,85.91,95.358,85.911,95.357z"
	/>
<path fill="#DBDBDB" d="M133.23,108.466c2.633-3.046,1.312-4.018,1.312-4.018v-0.144c-1.237-0.287-1.628,2.065-1.628,2.065
	L133.23,108.466z"/>
</svg>
