<?xml version="1.0" encoding="utf-8"?>
<!-- Generator: Adobe Illustrator 16.0.0, SVG Export Plug-In . SVG Version: 6.00 Build 0)  -->
<!DOCTYPE svg PUBLIC "-//W3C//DTD SVG 1.1//EN" "http://www.w3.org/Graphics/SVG/1.1/DTD/svg11.dtd">
<svg version="1.1" id="Layer_1" xmlns="http://www.w3.org/2000/svg" xmlns:xlink="http://www.w3.org/1999/xlink" x="0px" y="0px"
	 width="200px" height="200px" viewBox="0 0 200 200" enable-background="new 0 0 200 200" xml:space="preserve">
<g id="Tire">
	<path fill="#141318" d="M88.641,117.207c-0.534,3.631-3.356,7.422-6.32,8.447c-2.939,1.047-4.901-1.076-4.37-4.709
		c0.531-3.631,3.356-7.424,6.324-8.455C87.241,111.461,89.179,113.585,88.641,117.207z"/>
	<path fill="#121332" d="M89.302,117.596c-0.516,3.608-3.302,7.375-6.228,8.396c-2.921,1.026-4.855-1.085-4.346-4.714
		c0.518-3.603,3.305-7.375,6.226-8.397C87.873,111.865,89.818,113.969,89.302,117.596z"/>
	<path fill="#141318" d="M90.304,117.886c-0.536,3.632-3.354,7.419-6.319,8.454c-2.938,1.038-4.899-1.085-4.368-4.718
		c0.536-3.634,3.354-7.421,6.319-8.455C88.889,112.146,90.84,114.271,90.304,117.886z"/>
	<path fill="#121332" d="M90.957,118.279c-0.518,3.606-3.305,7.375-6.226,8.404c-2.921,1.019-4.857-1.091-4.35-4.717
		c0.518-3.607,3.307-7.378,6.228-8.4C89.536,112.545,91.475,114.67,90.957,118.279z"/>
	<path fill="#141318" d="M91.72,118.49c-0.531,3.637-3.354,7.43-6.319,8.453c-2.939,1.045-4.899-1.076-4.368-4.711
		c0.529-3.637,3.354-7.424,6.319-8.451C90.313,112.759,92.254,114.857,91.72,118.49z"/>
	<path fill="#121332" d="M92.381,118.896c-0.519,3.602-3.31,7.369-6.228,8.396c-2.918,1.021-4.857-1.087-4.343-4.716
		c0.516-3.609,3.303-7.378,6.226-8.401C90.952,113.158,92.899,115.291,92.381,118.896z"/>
	<path fill="#141318" d="M92.6,119.118c-0.478,3.582-3.167,7.28-5.989,8.267c-2.82,0.982-4.716-1.103-4.238-4.689
		c0.478-3.586,3.167-7.279,5.992-8.262C91.2,113.443,93.103,115.536,92.6,119.118z"/>
	<path fill="#121332" d="M91.935,119.578c-0.406,3.025-2.666,6.148-5.051,6.973c-2.376,0.844-3.988-0.937-3.571-3.949
		c0.404-3.022,2.663-6.146,5.052-6.969C90.747,114.813,92.343,116.574,91.935,119.578z"/>
	<path fill="#CDCCCC" d="M90.97,119.676c-0.329,2.422-2.148,4.909-4.058,5.586c-1.932,0.68-3.213-0.742-2.887-3.174
		c0.328-2.43,2.146-4.91,4.055-5.587C90.001,115.854,91.301,117.271,90.97,119.676z"/>
	<path fill="#989898" d="M90.057,119.828c-0.266,1.97-1.733,3.99-3.28,4.529c-1.556,0.539-2.608-0.59-2.338-2.553
		c0.266-1.973,1.73-3.994,3.28-4.531C89.264,116.729,90.304,117.886,90.057,119.828z"/>
	<path fill="#CDCCCC" d="M89.295,120.23c-0.194,1.446-1.282,2.92-2.412,3.324c-1.136,0.379-1.907-0.449-1.706-1.9
		c0.197-1.444,1.28-2.915,2.412-3.327C88.75,117.938,89.514,118.79,89.295,120.23z"/>
	<g id="Tire_Hole">
		<path fill="#010101" d="M87.973,120.572c-0.067,0.462-0.393,0.912-0.75,1.045c-0.366,0.111-0.607-0.141-0.549-0.592
			c0.065-0.465,0.393-0.914,0.75-1.045C87.786,119.848,88.009,120.114,87.973,120.572z"/>
		<path fill="#010101" d="M87.384,119.23c-0.049,0.254-0.219,0.498-0.424,0.57c-0.196,0.059-0.319-0.074-0.294-0.333
			c0.049-0.256,0.218-0.505,0.417-0.563C87.29,118.837,87.413,118.979,87.384,119.23z"/>
		<path fill="#010101" d="M88.813,119.123c-0.049,0.264-0.224,0.504-0.42,0.575c-0.201,0.067-0.324-0.073-0.299-0.327
			c0.049-0.258,0.219-0.505,0.422-0.57C88.71,118.739,88.837,118.887,88.813,119.123z"/>
		<path fill="#010101" d="M89.014,120.628c-0.044,0.254-0.216,0.505-0.416,0.571c-0.201,0.061-0.321-0.071-0.294-0.326
			c0.044-0.262,0.216-0.505,0.418-0.571C88.916,120.234,89.05,120.377,89.014,120.628z"/>
		<path fill="#010101" d="M87.879,122.164c-0.045,0.254-0.217,0.503-0.416,0.57c-0.201,0.06-0.321-0.072-0.294-0.332
			c0.047-0.252,0.219-0.504,0.422-0.568C87.779,121.775,87.911,121.92,87.879,122.164z"/>
		<path fill="#010101" d="M86.383,122.378c-0.047,0.261-0.216,0.503-0.415,0.574c-0.201,0.062-0.322-0.076-0.295-0.332
			c0.045-0.255,0.219-0.507,0.419-0.572C86.29,121.984,86.406,122.129,86.383,122.378z"/>
		<path fill="#010101" d="M86.178,120.904c-0.049,0.255-0.221,0.5-0.42,0.572c-0.198,0.063-0.321-0.072-0.292-0.326
			c0.046-0.26,0.216-0.506,0.42-0.571C86.084,120.507,86.205,120.654,86.178,120.904z"/>
	</g>
</g>
<g id="Tire_1_">
	<path fill="#141318" d="M126.354,87.889c-0.229,3.273-2.482,6.848-5.06,7.964c-2.543,1.131-4.435-0.624-4.215-3.895
		c0.229-3.272,2.481-6.849,5.062-7.966C124.706,82.871,126.583,84.634,126.354,87.889z"/>
	<path fill="#121332" d="M126.962,88.195c-0.209,3.251-2.43,6.803-4.967,7.907c-2.531,1.121-4.402-0.628-4.197-3.895
		c0.216-3.251,2.438-6.797,4.968-7.914C125.3,83.188,127.177,84.929,126.962,88.195z"/>
	<path fill="#141318" d="M127.88,88.385c-0.229,3.271-2.479,6.847-5.051,7.962c-2.547,1.134-4.438-0.62-4.22-3.895
		c0.23-3.271,2.486-6.845,5.052-7.964C126.227,83.364,128.109,85.127,127.88,88.385z"/>
	<path fill="#121332" d="M128.488,88.698c-0.217,3.247-2.438,6.793-4.969,7.904c-2.533,1.119-4.403-0.633-4.201-3.898
		c0.211-3.252,2.439-6.796,4.974-7.912C126.829,83.677,128.704,85.439,128.488,88.698z"/>
	<path fill="#141318" d="M129.182,88.828c-0.224,3.277-2.478,6.847-5.05,7.966c-2.547,1.134-4.438-0.619-4.223-3.896
		c0.233-3.275,2.487-6.849,5.062-7.964C127.538,83.816,129.413,85.557,129.182,88.828z"/>
	<path fill="#121332" d="M129.796,89.142c-0.209,3.247-2.437,6.792-4.969,7.909c-2.527,1.106-4.404-0.633-4.201-3.904
		c0.217-3.251,2.44-6.8,4.976-7.911C128.132,84.13,130.018,85.889,129.796,89.142z"/>
	<path fill="#141318" d="M130.014,89.332c-0.181,3.229-2.322,6.697-4.771,7.77c-2.443,1.073-4.283-0.659-4.103-3.878
		c0.178-3.229,2.324-6.705,4.775-7.78C128.372,84.368,130.214,86.103,130.014,89.332z"/>
	<path fill="#121332" d="M129.45,89.782c-0.152,2.721-1.951,5.657-4.021,6.556c-2.063,0.914-3.617-0.567-3.457-3.271
		c0.152-2.723,1.951-5.664,4.021-6.557C128.063,85.618,129.605,87.082,129.45,89.782z"/>
	<path fill="#CDCCCC" d="M128.598,89.935c-0.127,2.179-1.574,4.519-3.229,5.262c-1.675,0.734-2.916-0.443-2.795-2.631
		c0.129-2.187,1.575-4.525,3.233-5.26C127.473,86.596,128.729,87.767,128.598,89.935z"/>
	<path fill="#989898" d="M127.79,90.132c-0.101,1.774-1.267,3.675-2.608,4.264c-1.351,0.587-2.361-0.347-2.257-2.115
		c0.097-1.77,1.265-3.674,2.607-4.261C126.878,87.424,127.88,88.385,127.79,90.132z"/>
	<path fill="#CDCCCC" d="M127.145,90.543c-0.074,1.302-0.937,2.689-1.924,3.133c-0.986,0.414-1.729-0.273-1.646-1.58
		c0.07-1.304,0.938-2.689,1.92-3.128C126.499,88.533,127.236,89.242,127.145,90.543z"/>
	<g id="Tire_Hole_1_">
		<path fill="#010101" d="M125.984,90.939c-0.026,0.415-0.284,0.84-0.596,0.982c-0.322,0.126-0.551-0.079-0.527-0.491
			c0.027-0.415,0.287-0.837,0.601-0.981C125.771,90.305,125.984,90.53,125.984,90.939z"/>
		<path fill="#010101" d="M125.363,89.784c-0.022,0.233-0.159,0.462-0.336,0.538c-0.174,0.07-0.293-0.045-0.286-0.27
			c0.028-0.236,0.161-0.467,0.336-0.539C125.257,89.439,125.376,89.56,125.363,89.784z"/>
		<path fill="#010101" d="M126.634,89.592c-0.024,0.238-0.159,0.466-0.332,0.538c-0.174,0.075-0.295-0.043-0.284-0.268
			c0.024-0.236,0.155-0.464,0.332-0.537C126.518,89.253,126.641,89.375,126.634,89.592z"/>
		<path fill="#010101" d="M126.923,90.916c-0.026,0.234-0.162,0.465-0.336,0.533c-0.174,0.073-0.289-0.044-0.285-0.267
			c0.021-0.233,0.16-0.462,0.337-0.536C126.807,90.573,126.934,90.687,126.923,90.916z"/>
		<path fill="#010101" d="M126.018,92.366c-0.025,0.232-0.166,0.461-0.334,0.533c-0.172,0.07-0.293-0.046-0.291-0.272
			c0.028-0.231,0.164-0.464,0.334-0.533C125.896,92.024,126.023,92.144,126.018,92.366z"/>
		<path fill="#010101" d="M124.691,92.659c-0.021,0.23-0.159,0.463-0.334,0.535c-0.176,0.072-0.291-0.044-0.284-0.268
			c0.026-0.236,0.159-0.466,0.336-0.539C124.591,92.313,124.702,92.435,124.691,92.659z"/>
		<path fill="#010101" d="M124.409,91.354c-0.031,0.236-0.162,0.465-0.336,0.543c-0.177,0.073-0.294-0.048-0.287-0.272
			c0.022-0.233,0.162-0.465,0.336-0.537C124.3,91.012,124.417,91.138,124.409,91.354z"/>
	</g>
</g>
<g id="Layer_2">
	<path fill="#8E8E8E" d="M53.448,103.785l0.53-1.166l6.279-5.326c0,0,2.555-3.51,6.495-6.064c0,0,6.278-8.413,10.43-11.71
		l14.263-9.906c0,0,0.214-0.851,4.255,0.958l13.624-9.267h2.234l20.438,8.195l1.703,3.086l0.639,2.236v5.856l-4.685,4.894
		c0,0-0.633-5.216-5.641-0.216c0,0-3.088,3.408-4.793,9.901l-1.379,0.43L93.89,115.162l-0.531,2.449c0,0-0.107-7.563-5.214-3.729
		c0,0-5.004,1.706-7.876,12.772l-2.128,0.961c0,0-3.088,0.958-9.048-0.744c0,0-12.771-6.066-15.648-9.577
		c0,0-1.703-1.599-0.53-4.471c0,0,0-3.939,0.746-5.749C53.66,107.076,53.162,104.42,53.448,103.785z"/>
</g>
<path fill="#AAAAAA" d="M55.629,111.775c0,0-0.745-4.252,0-5.002c0,0,0-0.373,1.223,0l13.466,7.396c0,0,1.905,0.625,2.316,2.38
	c0,0,1.304,3.677-0.454,3.955c0,0,0,0.853-4.631-1.173C67.552,119.328,57.758,114.486,55.629,111.775z"/>
<path fill="#636363" d="M55.781,111.738c0,0-0.672-3.959,0.052-4.646c0,0,0.002-0.342,1.174,0.014l12.856,7.01
	c0,0,1.992,0.887,2.318,2.033c0,0,1.447,3.891-0.239,4.135c0,0-0.359,0.527-4.787-1.393
	C67.151,118.887,57.801,114.281,55.781,111.738z"/>
<path d="M68.052,90.713l7.527-8.852h0.655c0,0,6.466,4.944,18.081,8.451l-4.417,10.442c0,0-0.165,0.719-1.228,0.797
	c0,0-11.454-2.627-20.62-9.843C68.052,91.712,67.62,91.228,68.052,90.713z"/>
<path fill="#2A344C" d="M68.427,90.809l7.344-8.863h0.639c0,0,6.306,4.953,17.641,8.465l-4.314,10.457c0,0-0.159,0.719-1.197,0.803
	c0,0-11.174-2.634-20.116-9.859C68.427,91.804,68.001,91.317,68.427,90.809z"/>
<path d="M97.086,90.992c0,0,4.071-3.833,4.709-3.993h0.639c0,0,2.152,6.361,1.838,7.491c0,0-8.86,7.195-11.336,7.598
	C92.935,102.086,96.05,92.668,97.086,90.992z"/>
<path fill="#2A344C" d="M96.767,91.044c0,0,4.071-3.833,4.713-3.995h0.637c0,0,2.154,6.362,1.838,7.491
	c0,0-8.861,7.196-11.335,7.599C92.616,102.143,95.731,92.722,96.767,91.044z"/>
<path fill="#DBDBDB" d="M52.766,113.098c0,0-1.011,2.31,0,3.953c0,0,0.735,2.926,17.883,10.799c0,0,8.236,1.508,9.712-1.201
	c0,0,1.547-3.463,1.384-4.578c0,0-3.223,1.843-3.702,2.002c0,0-5.166,0.904-8.195,0.107C69.85,124.17,53.937,118.098,52.766,113.098
	z"/>
<path fill="#DBDBDB" d="M77.607,116.518c4.524,0.957,3.086,2.504,3.086,2.504c-1.545,1.438-7.717,0.744-7.717,0.744
	c0.277-0.509-0.259-2.857-0.402-3.472c-0.024-0.097-0.039-0.146-0.039-0.146"/>
<polygon fill="#494949" points="97.298,70.849 109.434,61.905 111.139,61.905 131.464,69.677 131.464,70.849 116.034,83.194 
	114.387,82.45 111.986,77.553 111.35,77.023 "/>
<polygon fill="#2B2B2B" points="109.915,69.092 109.434,61.905 111.139,61.905 131.464,69.677 131.464,70.849 116.034,83.194 
	114.387,82.45 111.986,77.553 103.982,73.785 "/>
<path fill="#E0E0E0" d="M55.503,108.4c0,0,12.238,7.313,16.99,8.769l0.047,0.38c0,0-9.062-3.593-17.042-8.861L55.503,108.4z"/>
<path fill="#E0E0E0" d="M72.737,119.223c0,0-11.202-4.07-17.155-9.017l0.044,0.397c0,0,4.82,4.109,17.117,9.02v-0.4H72.737z"/>
<path fill="#606060" d="M88.545,101.664c0,0-1.277,5.74-9.424,11.313c0,0-4.845,2.576-7.532,1.938c0,0,7.76,0.719,13.557-6.146
	C85.146,108.768,89.344,103.736,88.545,101.664z"/>
<path fill="#606060" d="M68.07,91.886c0,0-5.693,1.481-10.966,9.821c0,0-2.398,4.938-1.667,7.6c0,0-0.999-7.729,5.656-13.77
	C61.092,95.537,65.964,91.16,68.07,91.886z"/>
<polygon fill="#606060" points="104.646,86.247 111.35,81.141 112.732,85.749 106.025,91.053 "/>
<polygon fill="#A5A4A4" points="83.297,76.487 91.895,70.487 93.422,70.849 84.655,77.096 "/>
<polygon fill="#A5A4A4" points="86.115,77.715 94.717,71.711 96.24,72.072 87.473,78.319 "/>
<polygon fill="#A5A4A4" points="89.527,78.992 98.125,72.989 99.643,73.348 90.876,79.598 "/>
<polygon fill="#A5A4A4" points="92.984,80.535 101.583,74.53 103.104,74.892 94.339,81.141 "/>
<polygon fill="#A5A4A4" points="96.238,81.971 104.839,75.968 106.361,76.33 97.596,82.575 "/>
<polygon fill="#A5A4A4" points="99.587,83.541 108.188,77.543 109.706,77.9 100.941,84.147 "/>
<path fill="#606060" d="M104.271,94.597c0,0,0.588,8.497,0.373,11.773l0.453-0.371c0,0-0.318-10.034-0.453-11.458L104.271,94.597z"
	/>
<polygon fill="#606060" points="106.361,93.795 132.13,72.204 132.452,72.553 106.361,94.541 "/>
<path fill="#B2B2B2" d="M134.339,78.19v2.436l-1.887,1.974c0,0-0.238,1.477,0.239,1.993l3.191-3.526c0,0,0.252-3.672-1.547-4.044
	v1.167H134.339z"/>
<polygon fill="#DBDBDB" points="103.734,97.415 101.664,99.159 101.664,99.853 103.734,98.046 "/>
<path fill="#415170" d="M92.984,91.053c0,0-15.004-3.523-23.943,0.379l-0.322,0.375c0,0,9.473,7.41,20.171,9.328
	C88.891,101.129,93.359,91.131,92.984,91.053z"/>
<path fill="#415170" d="M101.664,87.719c0,0-3.406,10.45-7.077,12.83l-0.534,0.58c0,0,5.375-2.82,9.685-6.707
	C103.734,94.422,102.402,88.049,101.664,87.719z"/>
<path fill="#7D838C" d="M91.87,91.806c0,0-5.163,7.885-7.61,8.051l4.044,0.7C88.304,100.555,91.917,92.8,91.87,91.806z"/>
<path fill="#7D838C" d="M101.982,89.368c0,0,0.975,4.048,1.125,5.054l-0.808,0.935C102.301,95.358,102.891,94.051,101.982,89.368z"
	/>
<path fill="#DBDBDB" d="M55.297,106.37c0,0-0.391-2.353-1.628-2.065v0.144c0,0-1.322,0.972,1.311,4.018L55.297,106.37z"/>
<g>
	<rect x="83.297" y="12" fill="#FFFFFF" width="27.317" height="36"/>
	<path id="parking" fill="#FF0000" d="M110.184,5.212L81.73,5.632L67.789,29.69l14.506,23.642l28.452-0.417l13.94-24.061
		L110.184,5.212z M98.633,42.497c-0.224,0.157-0.593,0.235-1.115,0.235h-0.604h-7.899h-0.459c-0.426,0-0.753-0.089-0.985-0.266
		c-0.229-0.176-0.344-0.428-0.344-0.759c0-0.54,0.235-0.898,0.708-1.066c0.39-0.143,0.619-0.232,0.683-0.266
		c0.063-0.034,0.129-0.106,0.203-0.229c0.14-0.207,0.211-0.541,0.211-1.002v-19.74c0-0.459-0.072-0.794-0.211-1.007
		c-0.074-0.117-0.141-0.191-0.203-0.227c-0.063-0.034-0.297-0.12-0.683-0.266c-0.473-0.172-0.708-0.527-0.708-1.063
		c0-0.329,0.115-0.583,0.344-0.763c0.232-0.178,0.561-0.266,0.985-0.266h0.459H96.9V38.98c0,0.512,0.088,0.879,0.264,1.103
		c0.095,0.134,0.182,0.215,0.266,0.246c0.084,0.034,0.359,0.115,0.818,0.247c0.563,0.146,0.852,0.509,0.852,1.086
		C99.093,42.007,98.938,42.284,98.633,42.497z M106.932,28.875c-0.802,1.271-1.928,2.211-3.371,2.816
		c-1.19,0.487-2.91,0.73-5.156,0.73v-2.108c0.51-0.134,0.867-0.271,1.068-0.417c0.209-0.148,0.393-0.367,0.541-0.669
		c0.248-0.515,0.371-1.204,0.371-2.071v-6.31c0-0.616-0.039-1.078-0.123-1.378c-0.084-0.301-0.248-0.576-0.494-0.829
		c-0.345-0.367-0.804-0.597-1.381-0.688v-2.13c2.433,0,4.231,0.258,5.388,0.771c1.332,0.59,2.392,1.496,3.168,2.721
		c0.781,1.253,1.188,2.78,1.188,4.598C108.129,25.922,107.73,27.581,106.932,28.875z"/>
</g>
</svg>
