<?xml version="1.0" encoding="utf-8"?>
<!-- Generator: Adobe Illustrator 16.0.0, SVG Export Plug-In . SVG Version: 6.00 Build 0)  -->
<!DOCTYPE svg PUBLIC "-//W3C//DTD SVG 1.1//EN" "http://www.w3.org/Graphics/SVG/1.1/DTD/svg11.dtd">
<svg version="1.1" id="Layer_1" xmlns="http://www.w3.org/2000/svg" xmlns:xlink="http://www.w3.org/1999/xlink" x="0px" y="0px"
	 width="200px" height="200px" viewBox="0 0 200 200" enable-background="new 0 0 200 200" xml:space="preserve">
<g id="Direction">
	<g transform="rotate({{angle}} 50 50)">
		<polygon id="arrow" opacity="0.7" fill="#80C342" enable-background="new    " points="56.574,76.599 56.576,77.664 
			37.186,100.242 56.574,123.613 56.574,123.879 45.684,123.879 26.296,100.242 45.951,76.599 		">
		
			<animate  fill="remove" accumulate="none" additive="replace" begin="0s;anim_arrow3.end" values="0.5; 0" restart="always" calcMode="linear" dur="0.5s" attributeName="opacity" id="anim_arrow1">
			</animate>
		</polygon>
		<polygon id="arrow2" opacity="0.7" fill="#80C342" enable-background="new    " points="43.293,76.335 43.293,77.396 
			24.172,99.972 43.293,123.348 43.293,123.611 32.672,123.613 13.016,99.972 32.67,76.335 		">
		
			<animate  fill="remove" accumulate="none" additive="replace" begin="anim_arrow1.end" values="0.5; 0" restart="always" calcMode="linear" dur="0.5s" attributeName="opacity" id="anim_arrow2">
			</animate>
		</polygon>
		<polygon id="arrow3" opacity="0.7" fill="#80C342" enable-background="new    " points="30.279,76.067 30.279,77.132 
			10.891,99.709 30.281,123.082 30.281,123.348 19.391,123.348 0,99.709 19.389,76.067 		">
		
			<animate  fill="remove" accumulate="none" additive="replace" begin="anim_arrow2.end" values="0.5; 0" restart="always" calcMode="linear" dur="0.5s" attributeName="opacity" id="anim_arrow3">
			</animate>
		</polygon>
	</g>
</g>
<g>
	<g id="Tire_2_1_">
		<path d="M85.769,135.944c0,0-3.018-0.606-4.538-3.985c0,0-0.7-5.825,3.754-7.75c0,0,3.514,0.217,5.041,2.802
			C91.615,130.147,85.769,135.944,85.769,135.944z"/>
		<path fill="#333333" d="M89.805,132.562c-1.069,2.646-3.175,3.896-4.589,3.224c-1.416-0.672-1.706-3.438-0.453-6.02
			c1.068-2.635,3.174-3.893,4.589-3.225C90.77,127.228,90.995,130.232,89.805,132.562z"/>
		<path fill="#999999" d="M88.975,128.039c-1.045-0.565-2.471,0.355-3.35,2.254c-0.875,1.886-0.58,3.848,0.464,4.415
			c1.045,0.566,2.472-0.353,3.35-2.253C90.127,130.52,90.02,128.611,88.975,128.039z M88.697,132.244
			c-0.439,0.95-1.119,1.282-1.489,1.175c-0.554-0.154-0.484-1.216-0.11-1.904c0.376-0.694,1.119-1.286,1.49-1.179
			C88.954,130.443,89.134,131.302,88.697,132.244z"/>
		<path fill="#FFFFFF" d="M87.058,128.558c0,0,0.49,0.416,0.669,1.264l-0.248,0.19c0,0-0.302-1.148-0.671-1.258L87.058,128.558z"/>
	</g>
	<g id="Tire_2_3_">
		<path d="M125.792,109.558c0,0-3.02-0.61-4.546-3.993c0,0-0.703-5.821,3.762-7.745c0,0,3.515,0.216,5.037,2.8
			C131.634,103.753,125.792,109.558,125.792,109.558z"/>
		<path fill="#333333" d="M129.825,106.175c-1.073,2.637-3.176,3.899-4.588,3.218c-1.417-0.67-1.707-3.434-0.454-6.018
			c1.069-2.633,3.178-3.894,4.589-3.225C130.788,100.834,131.014,103.84,129.825,106.175z"/>
		<path fill="#999999" d="M128.994,101.647c-1.048-0.571-2.473,0.35-3.349,2.248c-0.88,1.887-0.584,3.854,0.463,4.413
			c1.046,0.568,2.476-0.35,3.347-2.243C130.151,104.127,130.041,102.216,128.994,101.647z M128.716,105.852
			c-0.439,0.949-1.117,1.28-1.485,1.173c-0.556-0.155-0.489-1.212-0.115-1.908c0.379-0.691,1.121-1.278,1.491-1.169
			C128.977,104.055,129.157,104.913,128.716,105.852z"/>
		<path fill="#FFFFFF" d="M127.075,102.168c0,0,0.493,0.41,0.674,1.257l-0.246,0.196c0,0-0.305-1.148-0.673-1.255L127.075,102.168z"
			/>
	</g>
	<g id="Body_1_">
		<path fill="#BCBCBC" d="M59.493,119.972l0.376-4.93l0.329-0.775l0.424-3.402l7.039-7.167l4.012-4.541c0,0-2.041-3.73-0.482-4.331
			c0,0,1.75,0.911,1.044,3.613l4.435-5.489l3.387-2.702l38.257-25.819h2.222c0,0,11.927,8.406,15.424,13.962
			c0,0,2.371,4.955,2.229,9.607l0.005,2.703c0,0,2.952,3.001,0.981,4.204l-6.766,5.704h-0.978c0,0-0.365-2.854-2.583-2.254
			c0,0-5.56,1.856-7.188,9.186l-30.213,20.234c0,0-1.52-5.258-6.532,0c0,0-2.925,2.401-3.123,7.505l-1.693,1.197
			C80.099,136.479,67.376,133.737,59.493,119.972z"/>
		<path fill="#191919" d="M60.619,110.864c0,0,5.665,12.396,18.271,15.654l1.578,0.955v3.632l2.414-0.457
			c0,0-1.088,2.829-1.088,4.646l-1.693,0.399c0,0-2.21,0.099-6.339-2.102c0,0-9.478-4.607-14.264-14.111l0.375-5.006L60.619,110.864
			z"/>
		<path fill="#191919" d="M68.22,103.914l9.197-10.76c0,0,8.915,9.979,15.298,12.497c0,0-5.349,11.322-5.912,11.922
			c0,0-0.975,0.903-4.146,0C82.657,117.57,71.412,111.483,68.22,103.914z"/>
		<path fill="#191919" d="M91.344,112.339l2.593-5.393l1.218-1.295l4.519-3.411c0,0,1.108,0.921,1.205,7.524l-6.124,4.508
			c0,0-1.386-1.276-2.322-0.943c-0.937,0.338-0.11-0.267-0.484,0.061L91.344,112.339z"/>
		<path fill="#191919" d="M103.321,99.645v0.806l0.563,6.492l0.471,0.601l15.115-9.903c0,0-0.245-7.604-1.162-8.306L103.321,99.645z
			"/>
		<path fill="#191919" d="M119.47,88.925c0,0,1.192,6.129,1.064,7.804l14.601-9.503l0.59-1.291c0,0-1.056-5.416-2.371-6.216h-0.949
			L119.47,88.925z"/>
		<path fill="#6D6D6D" d="M63.294,116.808l-0.177,4.063c0,0,6.561,6.893,10.126,8.295l0.376-3.553
			C73.617,125.623,67.095,121.411,63.294,116.808z"/>
		<path fill="#EAEAEA" d="M60.197,114.267c0,0,1.55,3.834,2.113,4.136v1.299c0,0-1.923-2.951-2.439-4.655L60.197,114.267z"/>
		<path fill="#EAEAEA" d="M73.617,128.463v0.948c0,0,4.363,2.054,6.242,1.901v-1.067C79.859,130.238,77.514,130.563,73.617,128.463z
			"/>
		<polygon fill="#EAEAEA" points="78.264,126.907 78.264,128.955 80.099,129.166 80.099,128.032 		"/>
		<polygon fill="#EAEAEA" points="60.479,112.097 61.324,112.896 61.07,114.267 60.479,114.267 		"/>
		<path fill="#A8A8A8" d="M59.608,117.974c0,0,8.88,16.089,22.384,15.491l-0.198,2.217c0,0-1.325,3.02-9.677-2.598
			c0,0-10.018-6.388-12.623-13.112L59.608,117.974z"/>
		<path fill="#EAEAEA" stroke="#000000" stroke-width="0.1" stroke-miterlimit="10" d="M63.367,114.267c0,0,4.068-6.065,5.561-6.38"
			/>
		<path fill="#EAEAEA" stroke="#000000" stroke-width="0.1" stroke-miterlimit="10" d="M74.911,124.697c0,0,4.646-4.424,5.561-6.38"
			/>
		<path fill="none" stroke="#000000" stroke-width="0.1" stroke-miterlimit="10" d="M67.095,104.979c0,0,7.386,13.998,18.65,14.722"
			/>
		<path fill="none" stroke="#000000" stroke-width="0.1" stroke-miterlimit="10" d="M88.353,118.696c0,0,2.675-6.105,3.238-6.352
			l0.361,1.051c0,0,1.611-0.248,2.808,0.871v2.717l-0.352,0.511l-2.85-0.97L88.353,118.696z"/>
		
			<line fill="none" stroke="#000000" stroke-width="0.1" stroke-miterlimit="10" x1="91.558" y1="116.522" x2="92.152" y2="113.329"/>
		<path fill="none" stroke="#000000" stroke-width="0.1" stroke-miterlimit="10" d="M100.883,99.481c0,0,1.972,5.404,1.83,20.792"/>
		<path fill="none" stroke="#000000" stroke-width="0.1" stroke-miterlimit="10" d="M90.574,117.192c0,0-0.776,5.211,1.283,9.173"/>
		<path fill="none" stroke="#000000" stroke-width="0.1" stroke-miterlimit="10" d="M93.277,105.561c0,0,5.493-5.307,17.321-12.409
			l22.734-15.438"/>
		<path fill="none" stroke="#000000" stroke-width="0.1" stroke-miterlimit="10" d="M118.621,64.506c0,0,11.543,9.158,15.344,13.21
			c0,0,3.031,5.329,3.312,11.109v6.379"/>
		<polygon fill="none" stroke="#000000" stroke-width="0.1" stroke-miterlimit="10" points="102.149,109.576 100.883,110.864 
			100.883,113.895 102.149,113.181 		"/>
		<polygon opacity="0.8" fill="#F7F7F7" enable-background="new    " points="79.859,96.252 72.94,109.876 74.391,111.729 
			80.823,97.305 		"/>
		<polygon opacity="0.8" fill="#F7F7F7" enable-background="new    " points="98.068,103.993 96.513,112.979 98.205,111.729 
			98.646,103.013 		"/>
		<polygon opacity="0.8" fill="#F7F7F7" enable-background="new    " points="112.554,93.298 111.863,102.24 108.581,104.778 
			110.848,94.471 		"/>
		<polygon opacity="0.8" fill="#F7F7F7" enable-background="new    " points="127.286,83.363 126.825,92.636 129.125,91.135 
			128.637,82.401 		"/>
	</g>
</g>
</svg>
