<?xml version="1.0" encoding="utf-8"?>
<!-- Generator: Adobe Illustrator 16.0.0, SVG Export Plug-In . SVG Version: 6.00 Build 0)  -->
<!DOCTYPE svg PUBLIC "-//W3C//DTD SVG 1.1//EN" "http://www.w3.org/Graphics/SVG/1.1/DTD/svg11.dtd">
<svg version="1.1" id="Layer_1" xmlns="http://www.w3.org/2000/svg" xmlns:xlink="http://www.w3.org/1999/xlink" x="0px" y="0px"
	 width="200px" height="200px" viewBox="0 0 200 200" enable-background="new 0 0 200 200" xml:space="preserve">
<g id="Direction">
	<g transform="rotate({{angle}} 50 50)">
		<polygon id="arrow" opacity="0.7" fill="#ff0000" enable-background="new    " points="27.159,64.506 29.979,33.89 60.401,30.884 
			68.103,38.585 67.915,38.773 37.679,41.589 35.425,71.265 34.671,72.019 		">
		
		
		</polygon>
		<polygon id="arrow2" opacity="0.7" fill="#ff0000" enable-background="new    " points="17.581,55.301 20.397,24.689 
			51.013,21.872 58.522,29.383 58.335,29.57 28.286,32.578 25.843,62.064 25.093,62.812 		">
		
			
		</polygon>
		<polygon id="arrow3" opacity="0.7" fill="#ff0000" enable-background="new    " points="8.001,46.099 11.009,15.671 
			41.435,12.667 49.136,20.369 48.948,20.556 18.708,23.373 16.454,53.046 15.702,53.8 		">
		
		
		</polygon>
	</g>
</g>
<g id="Tire_2_4_">
	<path d="M80.182,116.382c0,0-2.806-1.673-3.381-4.83c0,0,0.695-4.995,5.493-4.741c0,0,3.269,1.398,4.111,4.259
		C87.253,113.936,80.182,116.382,80.182,116.382z"/>
	<path fill="#333333" d="M84.949,115.287c-1.689,1.6-3.989,1.955-5.141,0.806c-1.148-1.159-0.717-3.392,0.971-4.991
		c1.688-1.602,3.989-1.959,5.141-0.807C87.07,111.45,86.636,113.686,84.949,115.287z"/>
	<path fill="#999999" d="M85.204,111.166c-0.843-0.844-2.532-0.582-3.771,0.592c-1.236,1.175-1.556,2.813-0.714,3.667
		c0.843,0.844,2.532,0.583,3.769-0.595C85.731,113.653,86.049,112.015,85.204,111.166z M83.936,114.422
		c-0.559,0.53-1.325,0.649-1.71,0.264c-0.38-0.385-0.236-1.126,0.325-1.656c0.562-0.535,1.325-0.651,1.71-0.267
		C84.644,113.144,84.498,113.892,83.936,114.422z"/>
	<path fill="#FFFFFF" d="M83.292,111.021c0,0,0.412,0.605,0.343,1.294l-0.383,0.039c0,0-0.014-1.088-0.308-1.321L83.292,111.021z"/>
</g>
<g id="Tire_2_3_">
	<path d="M119.369,100.984c0,0-3.13-0.946-4.447-3.874c0,0-0.522-5.02,4.194-5.919c0,0,3.511,0.566,5.017,3.144
		C125.645,96.911,119.369,100.984,119.369,100.984z"/>
	<path fill="#333333" d="M123.729,98.773c-1.253,1.959-3.398,2.859-4.795,2.016c-1.396-0.845-1.513-3.118-0.255-5.077
		c1.257-1.96,3.402-2.859,4.798-2.014C124.871,94.544,124.986,96.816,123.729,98.773z"/>
	<path fill="#999999" d="M122.987,94.713c-1.021-0.621-2.595,0.045-3.518,1.48c-0.92,1.436-0.835,3.107,0.188,3.727
		c1.023,0.621,2.598-0.041,3.518-1.48C124.101,97.002,124.013,95.334,122.987,94.713z M122.54,98.179
		c-0.422,0.648-1.131,0.951-1.602,0.667c-0.459-0.278-0.498-1.036-0.078-1.686c0.413-0.651,1.127-0.955,1.593-0.67
		C122.921,96.771,122.958,97.528,122.54,98.179z"/>
	<path fill="#FFFFFF" d="M121.102,95.03c0,0,0.544,0.491,0.64,1.175l-0.362,0.132c0,0-0.275-1.05-0.615-1.215L121.102,95.03z"/>
</g>
<polygon fill="#282828" points="131.649,85.743 129.896,86.535 129.896,88.692 131.649,88.017 "/>
<g>
	<path fill="#FFE600" d="M75.873,86.678c0,0-19.591,8.044-19.074,11.343l0.31,4.947l13.402,12.476c0,0,2.991,1.238,7.838,0.312
		c0,0-1.341-4.742,3.4-7.007c0,0,5.258-1.65,5.464,3.809l29.384-12.472c0,0-1.34-4.948,3.193-7.423c0,0,5.464-2.269,5.571,3.609
		c0,0,6.393-5.156,6.287-5.878v-6.084c0,0,0.105-1.648-1.132-2.68l-12.168-7.322c0,0-1.029,0-9.278,1.339
		c0,0-2.579-0.928-8.144-1.442c0,0-11.961,2.988-16.395,5.773L75.873,86.678z"/>
	<path fill="#2B2B2B" d="M85.15,80.184l11.549,7.32l-0.105,1.338c0,0-4.536,8.353-6.393,8.661c0,0-13.093-7.73-13.505-10.927
		l7.423-5.979L85.15,80.184z"/>
	<path fill="#475160" d="M85.047,80.388l11.239,7.218v1.029c0,0-4.435,8.145-6.292,8.352c0,0-12.68-7.32-13.093-10.415l7.215-5.98
		L85.047,80.388z"/>
	<path fill="#2B2B2B" d="M103.813,85.544l-5.566,2.372c0,0-5.976,8.968-5.976,9.485l0.721,0.205l11.138-5.049
		C104.02,92.66,104.331,86.163,103.813,85.544z"/>
	<path fill="#475160" d="M103.503,85.75l-5.566,2.166c0,0-5.668,8.968-5.668,9.483l0.514,0.207l11.031-4.946
		C103.709,92.66,104.125,86.267,103.503,85.75z"/>
	<path fill="#2B2B2B" d="M105.877,85.132c0,0,0.102-0.31-0.208,6.905l9.589-4.33l0.412-0.515l-4.227-4.436l-0.516,0.207
		L105.877,85.132z"/>
	<path fill="#475160" d="M105.565,85.132c0,0,0.413-0.413,0.104,6.804l9.28-4.227l0.412-0.515l-4.124-4.332l-0.413,0.207
		L105.565,85.132z"/>
	<path fill="#2B2B2B" d="M101.646,74.305l11.447,6.186l0.824,0.414l7.631,1.959l-12.886-7.216
		C108.558,75.646,105.979,74.822,101.646,74.305z"/>
	<path fill="#475160" d="M101.339,74.305l11.444,6.186l0.826,0.414l7.421,1.856l-12.784-7.113
		C108.246,75.646,105.669,74.822,101.339,74.305z"/>
	<polygon fill="#2B2B2B" points="112.266,82.451 113.401,81.937 120.927,83.896 121.236,84.514 116.701,86.784 	"/>
	<polygon fill="#475160" points="112.164,82.554 113.195,81.937 120.517,83.896 120.927,84.514 116.598,86.678 	"/>
	<polygon opacity="0.3" fill="#EFEFEF" enable-background="new    " points="93.089,85.336 83.812,93.379 85.668,94.617 
		94.638,86.267 	"/>
	<polygon opacity="0.3" fill="#EFEFEF" enable-background="new    " points="92.475,84.928 82.783,92.761 83.191,92.965 
		92.679,85.132 	"/>
	<polygon opacity="0.3" fill="#EFEFEF" enable-background="new    " points="92.06,84.618 82.059,92.246 82.472,92.557 	"/>
	<path opacity="0.3" fill="#C6C6C5" enable-background="new    " d="M103.092,86.986c0,0-1.959,2.063-1.959,4.643
		c0,0-0.413,2.267-2.373,2.577c0,0-1.134,0.618-2.061,1.34l6.803-3.092C103.503,92.557,104.125,85.957,103.092,86.986z"/>
	<path opacity="0.3" fill="#C6C6C5" enable-background="new    " d="M110.721,83.896c0,0-2.163,1.233-1.546,3.813
		c0,0,0.828,0.62-0.31,2.063c-1.134,1.442-0.514,0.618-0.514,0.618l5.979-2.784l0.202-0.412
		C114.537,87.195,111.857,83.172,110.721,83.896z"/>
	<polygon fill="#6B6B6B" points="58.034,100.289 67.83,108.638 67.83,110.492 58.034,102.042 	"/>
	<polygon fill="#A3A2A2" points="58.345,101.114 67.111,108.537 67.008,110.184 58.345,102.657 	"/>
	<polygon fill="#6B6B6B" points="58.241,101.525 66.904,108.846 66.904,110.492 58.138,102.968 	"/>
	<path fill="#3F403F" d="M57.108,103.071l13.095,12.475c0,0,4.123,1.237,8.146,0.311c0,0-0.413-2.373,0.101-3.607l-0.617,0.105
		c0,0-4.948,0.62-7.321,0.102l-13.505-11.751L57.108,103.071z"/>
	<path fill="#3D3D3D" d="M67.419,108.432l2.887,1.131c0,0,1.549,0.621,4.022,0c0,0,0.621-0.104,0.621,0.314v2.473
		c0,0,0,0.311-0.414,0.416c0,0-3.505,0.41-4.64-0.517l-3.093-2.372C66.904,109.775,66.904,108.537,67.419,108.432z"/>
	<path fill="#A3A2A2" d="M67.419,107.92l2.887,1.131c0,0,1.549,0.619,4.022,0c0,0,0.621-0.104,0.621,0.31v2.476
		c0,0,0,0.313-0.414,0.413c0,0-3.505,0.415-4.64-0.514l-3.093-2.375C66.904,109.36,66.904,108.021,67.419,107.92z"/>
	<circle opacity="0.5" fill="#757576" enable-background="new    " cx="73.499" cy="111.114" r="0.622"/>
	<path stroke="#000000" stroke-width="0.1" stroke-miterlimit="10" d="M115.67,98.122l-29.175,12.374"/>
	<path fill="none" stroke="#000000" stroke-width="0.1" stroke-miterlimit="10" d="M121.549,82.762l5.672-2.063
		c1.234-0.311,2.68,0.517,2.68,0.517"/>
	<path fill="none" stroke="#000000" stroke-width="0.1" stroke-miterlimit="10" d="M105.669,92.04l-0.517,10.519"/>
	<path fill="none" stroke="#000000" stroke-width="0.1" stroke-miterlimit="10" d="M104.02,92.66l-0.721,10.721"/>
	<path fill="none" stroke="#000000" stroke-width="0.1" stroke-miterlimit="10" d="M89.276,109.36v-8.146l2.99-3.815"/>
	<path fill="none" stroke="#000000" stroke-width="0.1" stroke-miterlimit="10" d="M116.701,86.678v6.804
		c0,0-0.723,0.827-1.031,4.64"/>
	<path fill="none" stroke="#000000" stroke-width="0.1" stroke-miterlimit="10" d="M70.1,109.051
		c0.928-2.166,18.967-12.063,18.967-12.063"/>
	<path fill="none" stroke="#000000" stroke-width="0.1" stroke-miterlimit="10" d="M57.727,99.359
		c-0.619-4.124,19.28-11.548,19.28-11.548"/>
	<polygon fill="#F05123" points="85.254,107.713 86.802,106.885 86.802,107.713 85.254,108.432 	"/>
	<polygon fill="#F05123" points="123.829,89.514 125.376,88.689 125.376,89.514 123.829,90.235 	"/>
	<path fill="#333333" d="M100.72,96.781l2.476-1.029c0,0,0.104,0,0.207,0.204l-0.104,0.93l-0.207,0.208l-2.372,0.824h-0.105v-1.029
		L100.72,96.781z"/>
	<path fill="#787878" d="M100.926,96.987l2.063-0.825c0,0,0.104,0,0.205,0.102v0.62l-0.102,0.103l-1.959,0.722h-0.104l-0.104-0.618
		V96.987L100.926,96.987z"/>
	<path fill="#333333" d="M113.609,92.35l2.475-1.031c0,0,0.105,0,0.206,0.207l-0.206,0.928l-0.207,0.207l-2.268,0.827h-0.206v-1.031
		L113.609,92.35z"/>
	<path fill="#787878" d="M113.816,92.454l2.061-0.825c0,0,0.102,0,0.207,0.101v0.621l-0.313,0.101l-1.959,0.723h-0.102l-0.105-0.617
		L113.816,92.454z"/>
	<path opacity="0.3" fill="#FFFFFF" enable-background="new    " d="M114.432,95.855c0,0-1.859,1.443-2.166,2.679
		c0,0,0,0.623-3.4,1.549l-1.65,1.029l7.629-2.989c0,0,0.105-2.783,0.726-2.985L114.432,95.855z"/>
	<path opacity="0.3" fill="#FFFFFF" enable-background="new    " d="M91.647,105.031c0,0,2.269-0.209,3.506,0.516
		c0,0,0.413,0.413,3.506-1.238l1.955-0.411l-7.734,2.987c0,0-1.957-1.957-2.578-1.751L91.647,105.031z"/>
	<path opacity="0.2" fill="#F7F7F7" enable-background="new    " d="M71.437,110.083c0,0-1.337,0.622-1.337,1.34
		c0,0,0.617,0.413,1.337,0C71.437,111.423,70.304,111.526,71.437,110.083z"/>
	<polygon fill="#A3A2A2" points="71.437,112.866 71.437,115.856 72.059,115.962 72.059,112.866 	"/>
	<path fill="#3F403F" d="M124.433,93.276l7.217-3.813v0.72c0,0,0,0.414-0.515,1.031l-5.777,5.05
		C125.362,96.37,125.053,93.276,124.433,93.276z"/>
	<g>
		<path fill="#3A3A3A" d="M90.771,80.628l2.448-5.305c0,0,0.475-1.147,1.125-1.222l7.666-2.056c0,0,0.747-0.264,1.192,0.89
			l2.467,6.52l-11.06,4.154L90.771,80.628z"/>
		<path fill="#191919" d="M90.062,80.858l3.261-5.754c0,0,0.574-0.895,0.865-0.958c0,0,0.957-0.247,0.677,1.931l-0.257,7.535
			L90.062,80.858z"/>
	</g>
	
		<text transform="matrix(0.8011 -0.2205 0.1982 0.9802 96.9365 79.3755)" fill="#FFE600" font-family="'Calibri'" font-size="4.3456">TAXI</text>
	<g>
		<polygon fill="none" points="102.899,99.49 102.899,99.49 102.899,99.492 105.102,98.684 102.896,99.469 		"/>
		<polygon fill="none" points="112.395,99.061 114.592,98.191 112.389,99.036 		"/>
		<polygon fill="none" points="103.34,102.401 105.533,101.531 103.336,102.381 		"/>
		<polygon fill="none" points="111.958,96.149 111.958,96.149 111.958,96.151 114.158,95.343 111.953,96.128 		"/>
		<polygon fill="none" points="93.847,102.846 93.844,102.846 93.847,102.846 96.046,102.037 93.842,102.821 		"/>
		<polygon fill="none" points="94.281,105.756 96.475,104.887 94.279,105.73 		"/>
		<polygon fill="#E2E2E2" points="94.206,105.565 94.064,104.625 94.024,104.355 91.818,105.141 91.804,105.047 91.786,105.054 
			91.838,105.4 92.006,106.527 92.028,106.52 92.013,106.421 		"/>
		<polygon fill="#161616" points="94.239,105.771 94.281,105.756 94.279,105.73 96.475,104.887 96.259,103.449 96.259,103.449 
			94.013,104.275 94.02,104.336 94.02,104.336 93.851,103.211 93.797,102.859 93.847,102.846 93.844,102.846 91.603,103.707 
			91.649,104.02 91.804,105.047 91.818,105.141 94.024,104.355 94.064,104.625 94.206,105.565 92.013,106.421 92.028,106.52 
			92.067,106.771 92.237,108.06 94.513,107.103 94.229,106.1 		"/>
		<polygon fill="#E2E2E2" points="93.847,102.846 93.842,102.821 93.795,102.838 93.623,101.715 93.58,101.424 91.499,102.09 
			91.548,102.605 91.603,103.707 91.603,103.707 93.844,102.846 		"/>
		<polygon fill="#E2E2E2" points="91.868,105.147 91.872,105.171 91.872,105.171 91.656,103.734 89.323,104.52 89.276,104.896 
			89.276,106.057 89.276,106.057 89.623,105.974 		"/>
		<polygon fill="#161616" points="91.788,105.134 89.54,105.96 89.276,106.057 89.325,106.527 89.325,107.434 92.004,106.566 
			91.791,105.154 		"/>
		<polygon fill="#161616" points="89.276,102.838 89.276,103.457 89.276,104.606 91.656,103.734 91.499,102.09 		"/>
		<polygon fill="#E2E2E2" points="89.325,107.434 89.325,107.895 89.276,109.36 92.166,108.09 92.004,106.566 		"/>
		<polygon fill="#E2E2E2" points="98.705,103.869 98.524,102.659 96.291,103.457 96.277,103.363 96.257,103.369 96.31,103.721 
			96.479,104.843 96.498,104.836 96.489,104.736 		"/>
		<polygon fill="#161616" points="98.524,102.659 98.544,102.654 98.317,101.158 98.317,101.158 98.317,101.161 96.076,102.022 
			96.069,101.982 96.069,101.982 96.122,102.336 96.277,103.363 96.291,103.457 		"/>
		<polygon fill="#161616" points="98.705,103.869 96.489,104.736 96.498,104.836 96.539,105.088 96.709,106.213 98.921,105.299 
			98.728,103.863 		"/>
		<polygon fill="#E2E2E2" points="98.317,101.161 98.317,101.158 98.102,99.723 95.851,100.55 95.906,100.896 96.069,101.982 
			96.076,102.022 		"/>
		<polygon fill="#E2E2E2" points="93.797,102.859 93.851,103.211 94.02,104.336 94.02,104.336 94.013,104.275 96.259,103.449 
			96.046,102.037 93.847,102.846 		"/>
		<polygon fill="#161616" points="93.795,102.838 93.842,102.821 96.046,102.037 95.818,100.538 93.569,101.365 93.58,101.424 
			93.623,101.715 		"/>
		<polygon fill="#E2E2E2" points="94.281,105.756 94.239,105.771 94.229,106.1 94.369,107.016 94.398,107.225 96.709,106.213 
			96.475,104.887 		"/>
		<polygon fill="#E2E2E2" points="103.262,102.211 103.119,101.273 103.078,101.003 100.873,101.785 100.859,101.694 
			100.839,101.703 100.895,102.051 101.062,103.174 101.082,103.168 101.068,103.068 		"/>
		<polygon fill="#161616" points="103.294,102.42 103.34,102.401 103.336,102.381 105.533,101.531 105.313,100.099 105.313,100.099 
			103.064,100.922 102.906,99.859 102.854,99.509 102.899,99.492 102.899,99.49 102.899,99.49 102.899,99.49 100.658,100.352 
			100.65,100.314 100.65,100.314 100.706,100.664 100.859,101.694 100.873,101.785 103.078,101.003 103.119,101.273 
			103.262,102.211 101.068,103.068 101.082,103.168 101.119,103.422 101.293,104.355 103.422,103.663 103.285,102.746 		"/>
		<polygon fill="#E2E2E2" points="102.899,99.49 102.899,99.49 102.896,99.469 102.849,99.485 102.68,98.362 102.635,98.072 
			100.435,98.881 100.485,99.229 100.65,100.314 100.658,100.352 		"/>
		<polygon fill="#E2E2E2" points="100.846,101.805 100.846,101.803 100.628,100.368 98.379,101.193 98.434,101.543 98.595,102.605 
			100.844,101.781 		"/>
		<polygon fill="#161616" points="100.844,101.781 98.595,102.605 98.593,102.605 98.65,102.955 98.817,104.08 101.059,103.216 
			100.846,101.805 		"/>
		<polygon fill="#161616" points="98.154,99.7 98.207,100.047 98.375,101.17 100.628,100.368 100.403,98.87 		"/>
		<polygon fill="#E2E2E2" points="98.82,104.105 98.813,104.432 98.921,105.299 101.293,104.355 101.059,103.216 		"/>
		<polygon fill="#E2E2E2" points="107.759,100.516 107.576,99.312 105.348,100.104 105.332,100.009 105.313,100.016 
			105.365,100.366 105.535,101.489 105.555,101.482 105.54,101.384 		"/>
		<polygon fill="#161616" points="107.576,99.312 107.599,99.303 107.369,97.805 107.369,97.805 107.369,97.808 105.129,98.668 
			105.178,98.98 105.332,100.009 105.348,100.104 		"/>
		<polygon fill="#161616" points="107.759,100.516 105.54,101.384 105.555,101.482 105.594,101.736 105.763,102.856 
			107.977,101.948 107.777,100.51 		"/>
		<polygon fill="#E2E2E2" points="107.369,97.805 107.153,96.373 104.909,97.197 104.96,97.547 105.129,98.668 105.129,98.668 
			107.369,97.808 		"/>
		<polygon fill="#E2E2E2" points="102.854,99.509 102.906,99.859 103.064,100.922 105.313,100.099 105.102,98.684 102.899,99.492 		
			"/>
		<polygon fill="#161616" points="102.849,99.485 102.896,99.469 105.102,98.684 104.873,97.185 102.627,98.012 102.635,98.072 
			102.68,98.362 		"/>
		<polygon fill="#E2E2E2" points="103.34,102.401 103.294,102.42 103.285,102.746 103.422,103.663 103.422,103.663 105.763,102.856 
			105.533,101.531 		"/>
		<polygon fill="#E2E2E2" points="112.318,98.87 112.174,97.933 112.135,97.66 109.93,98.444 109.916,98.35 109.897,98.359 
			109.95,98.709 110.117,99.833 110.141,99.826 110.123,99.727 		"/>
		<polygon fill="#161616" points="112.353,99.077 112.395,99.061 112.389,99.036 114.592,98.191 114.371,96.758 114.371,96.758 
			112.123,97.58 111.963,96.518 111.91,96.168 111.958,96.151 111.958,96.149 111.958,96.149 111.958,96.149 109.714,97.012 
			109.709,96.974 109.709,96.974 109.76,97.324 109.916,98.35 109.93,98.444 112.135,97.66 112.174,97.933 112.318,98.87 
			110.123,99.727 110.141,99.826 110.178,100.077 110.348,101.107 112.48,100.321 112.344,99.408 		"/>
		<polygon fill="#E2E2E2" points="111.958,96.149 111.958,96.149 111.953,96.128 111.905,96.144 111.738,95.019 111.691,94.729 
			109.491,95.541 109.544,95.891 109.709,96.974 109.714,97.012 		"/>
		<polygon fill="#E2E2E2" points="109.902,98.44 109.684,97.025 107.438,97.853 107.49,98.202 107.658,99.323 107.658,99.323 
			107.653,99.265 		"/>
		<polygon fill="#161616" points="109.902,98.44 107.653,99.265 107.658,99.323 107.704,99.615 107.873,100.738 110.113,99.875 		
			"/>
		<polygon fill="#161616" points="107.211,96.355 107.268,96.704 107.434,97.828 109.684,97.025 109.459,95.529 		"/>
		<polygon fill="#E2E2E2" points="107.879,100.764 107.869,101.092 107.977,101.948 110.348,101.107 110.113,99.875 		"/>
		<polygon fill="#E2E2E2" points="116.459,97.317 116.793,96.09 114.404,96.765 114.391,96.671 114.369,96.678 114.422,97.025 
			114.592,98.148 114.61,98.144 114.597,98.045 		"/>
		<polygon fill="#161616" points="116.793,96.09 116.793,95.872 116.428,94.465 116.428,94.465 116.428,94.465 114.186,95.326 
			114.234,95.64 114.391,96.671 114.404,96.765 		"/>
		<polygon fill="#161616" points="116.459,97.317 116.459,97.317 114.597,98.045 114.61,98.144 114.649,98.395 114.821,99.323 
			116.428,98.747 		"/>
		<polygon fill="#E2E2E2" points="116.428,94.465 116.212,93.028 113.963,93.855 114.019,94.206 114.186,95.326 114.186,95.326 		
			"/>
		<polygon fill="#E2E2E2" points="111.91,96.168 111.963,96.518 112.123,97.58 114.371,96.758 114.158,95.343 111.958,96.151 		"/>
		<polygon fill="#161616" points="111.905,96.144 111.953,96.128 114.158,95.343 113.932,93.844 111.683,94.671 111.691,94.729 
			111.738,95.019 		"/>
		<polygon fill="#E2E2E2" points="112.395,99.061 112.353,99.077 112.344,99.408 112.48,100.321 112.48,100.321 114.821,99.323 
			114.592,98.191 		"/>
	</g>
</g>
<polygon fill="#51586B" points="131.649,85.905 130.075,86.678 130.075,88.851 131.649,88.177 "/>
<polygon fill="#919191" points="131.649,87.216 129.492,88.327 129.419,90.658 131.649,89.49 "/>
<polygon fill="#C1C1C1" points="131.649,88.017 129.694,89.023 129.639,90.56 131.649,89.463 "/>
</svg>
