<?xml version="1.0" encoding="utf-8"?>
<!-- Generator: Adobe Illustrator 16.0.0, SVG Export Plug-In . SVG Version: 6.00 Build 0)  -->
<!DOCTYPE svg PUBLIC "-//W3C//DTD SVG 1.1//EN" "http://www.w3.org/Graphics/SVG/1.1/DTD/svg11.dtd">
<svg version="1.1" id="Layer_1" xmlns="http://www.w3.org/2000/svg" xmlns:xlink="http://www.w3.org/1999/xlink" x="0px" y="0px"
	 width="200px" height="200px" viewBox="0 0 200 200" enable-background="new 0 0 200 200" xml:space="preserve">
<g id="Direction">
	<g transform="rotate({{angle}} 50 50)">
		<polygon id="arrow" opacity="0.7" fill="#80C342" enable-background="new    " points="161.988,113.829 159.168,144.445 
			128.746,147.451 121.045,139.75 121.232,139.563 151.469,136.746 153.723,107.07 154.477,106.316 		">
		
		
		</polygon>
		<polygon id="arrow2" opacity="0.7" fill="#80C342" enable-background="new    " points="171.566,123.034 168.75,153.646 
			138.135,156.464 130.625,148.952 130.813,148.766 160.861,145.758 163.305,116.271 164.055,115.523 		">
		
		
		</polygon>
		<polygon id="arrow3" opacity="0.7" fill="#80C342" enable-background="new    " points="181.146,132.236 178.139,162.664 
			147.713,165.668 140.012,157.967 140.199,157.779 170.439,154.963 172.693,125.289 173.445,124.535 		">
		
		
		</polygon>
	</g>
</g>
<g id="Tire_2_4_">
	<path d="M102.035,111.07c0.842-2.861,4.11-4.26,4.11-4.26c4.798-0.254,5.493,4.741,5.493,4.741c-0.575,3.157-3.381,4.83-3.381,4.83
		S101.187,113.936,102.035,111.07z"/>
	<path fill="#333333" d="M102.52,110.295c1.152-1.152,3.453-0.795,5.141,0.807c1.688,1.6,2.119,3.832,0.971,4.991
		c-1.151,1.149-3.451,0.794-5.141-0.806C101.803,113.686,101.369,111.45,102.52,110.295z"/>
	<path fill="#999999" d="M103.951,114.83c1.237,1.178,2.926,1.439,3.77,0.595c0.842-0.854,0.521-2.491-0.715-3.667
		c-1.238-1.174-2.928-1.436-3.771-0.592C102.391,112.016,102.709,113.652,103.951,114.83z M104.178,112.764
		c0.386-0.385,1.148-0.269,1.711,0.266c0.561,0.531,0.705,1.271,0.324,1.656c-0.385,0.385-1.15,0.267-1.709-0.264
		C103.941,113.893,103.795,113.145,104.178,112.764z"/>
	<path fill="#FFFFFF" d="M105.496,111.033c-0.295,0.232-0.309,1.32-0.309,1.32l-0.383-0.039c-0.069-0.688,0.343-1.293,0.343-1.293
		L105.496,111.033z"/>
</g>
<g id="Tire_2_3_">
	<path d="M64.307,94.335c1.506-2.578,5.017-3.144,5.017-3.144c4.716,0.899,4.194,5.919,4.194,5.919
		c-1.316,2.928-4.447,3.875-4.447,3.875S62.795,96.911,64.307,94.335z"/>
	<path fill="#333333" d="M64.963,93.698c1.396-0.845,3.541,0.054,4.797,2.014c1.259,1.959,1.142,4.232-0.254,5.077
		c-1.397,0.843-3.543-0.057-4.795-2.016C63.453,96.816,63.568,94.544,64.963,93.698z"/>
	<path fill="#999999" d="M65.265,98.44c0.92,1.439,2.495,2.101,3.518,1.48c1.023-0.62,1.108-2.291,0.188-3.727
		c-0.924-1.435-2.497-2.101-3.518-1.48C64.426,95.334,64.338,97.002,65.265,98.44z M65.986,96.49c0.467-0.285,1.18,0.019,1.594,0.67
		c0.42,0.65,0.381,1.408-0.078,1.686c-0.472,0.284-1.181-0.019-1.603-0.667C65.481,97.528,65.519,96.771,65.986,96.49z"/>
	<path fill="#FFFFFF" d="M67.674,95.122c-0.34,0.165-0.614,1.215-0.614,1.215l-0.362-0.132c0.096-0.684,0.641-1.175,0.641-1.175
		L67.674,95.122z"/>
</g>
<polygon fill="#282828" points="56.791,88.017 58.543,88.692 58.543,86.535 56.791,85.743 "/>
<g>
	<path fill="#FFE600" d="M103.908,79.978c-4.434-2.785-16.395-5.773-16.395-5.773c-5.565,0.514-8.145,1.442-8.145,1.442
		c-8.248-1.339-9.277-1.339-9.277-1.339L57.924,81.63c-1.237,1.032-1.133,2.68-1.133,2.68v6.084
		c-0.105,0.722,6.287,5.878,6.287,5.878c0.107-5.878,5.571-3.609,5.571-3.609c4.533,2.475,3.192,7.423,3.192,7.423l29.385,12.473
		c0.206-5.459,5.464-3.81,5.464-3.81c4.741,2.265,3.399,7.007,3.399,7.007c4.848,0.926,7.838-0.313,7.838-0.313l13.402-12.476
		l0.311-4.947c0.517-3.299-19.074-11.343-19.074-11.343L103.908,79.978z"/>
	<path fill="#2B2B2B" d="M104.32,80.597l7.424,5.979c-0.412,3.197-13.506,10.927-13.506,10.927
		c-1.857-0.308-6.393-8.661-6.393-8.661l-0.105-1.338l11.549-7.32L104.32,80.597z"/>
	<path fill="#475160" d="M104.323,80.592l7.216,5.98c-0.414,3.095-13.094,10.415-13.094,10.415
		c-1.857-0.207-6.292-8.352-6.292-8.352v-1.029l11.239-7.218L104.323,80.592z"/>
	<path fill="#2B2B2B" d="M84.31,92.557l11.138,5.049l0.721-0.205c0-0.517-5.976-9.485-5.976-9.485l-5.565-2.372
		C84.108,86.163,84.42,92.66,84.31,92.557z"/>
	<path fill="#475160" d="M84.625,92.66l11.031,4.946l0.514-0.207c0-0.515-5.668-9.483-5.668-9.483l-5.566-2.166
		C84.314,86.267,84.73,92.66,84.625,92.66z"/>
	<path fill="#2B2B2B" d="M77.513,82.963l-0.517-0.207l-4.227,4.436l0.412,0.515l9.589,4.33c-0.31-7.215-0.208-6.905-0.208-6.905
		L77.513,82.963z"/>
	<path fill="#475160" d="M77.615,83.069l-0.412-0.207l-4.125,4.332l0.412,0.515l9.28,4.227c-0.31-7.217,0.104-6.804,0.104-6.804
		L77.615,83.069z"/>
	<path fill="#2B2B2B" d="M79.777,75.648l-12.886,7.216l7.631-1.959l0.824-0.414l11.446-6.186
		C82.461,74.822,79.881,75.646,79.777,75.648z"/>
	<path fill="#475160" d="M80.193,75.648L67.41,82.761l7.42-1.856l0.826-0.414l11.444-6.186
		C82.771,74.822,80.193,75.646,80.193,75.648z"/>
	<polygon fill="#2B2B2B" points="71.738,86.784 67.203,84.514 67.513,83.896 75.039,81.937 76.174,82.451 	"/>
	<polygon fill="#475160" points="71.842,86.678 67.513,84.514 67.922,83.896 75.244,81.937 76.275,82.554 	"/>
	<polygon opacity="0.3" fill="#EFEFEF" enable-background="new    " points="93.801,86.267 102.771,94.617 104.627,93.379 
		95.351,85.336 	"/>
	<polygon opacity="0.3" fill="#EFEFEF" enable-background="new    " points="95.76,85.132 105.248,92.965 105.656,92.761 
		95.964,84.928 	"/>
	<polygon opacity="0.3" fill="#EFEFEF" enable-background="new    " points="105.967,92.557 106.381,92.246 96.379,84.618 	"/>
	<path opacity="0.3" fill="#C6C6C5" enable-background="new    " d="M84.938,92.454l6.803,3.092c-0.927-0.722-2.061-1.34-2.061-1.34
		c-1.961-0.31-2.373-2.577-2.373-2.577c0-2.58-1.959-4.643-1.959-4.643C84.314,85.957,84.937,92.557,84.938,92.454z"/>
	<path opacity="0.3" fill="#C6C6C5" enable-background="new    " d="M73.907,87.194l0.202,0.412l5.979,2.784
		c0,0,0.621,0.824-0.514-0.618c-1.138-1.443-0.31-2.063-0.31-2.063c0.616-2.58-1.546-3.813-1.546-3.813
		C76.582,83.172,73.902,87.195,73.907,87.194z"/>
	<polygon fill="#6B6B6B" points="130.405,102.042 120.609,110.492 120.609,108.639 130.405,100.289 	"/>
	<polygon fill="#A3A2A2" points="130.094,102.657 121.432,110.184 121.328,108.537 130.094,101.114 	"/>
	<polygon fill="#6B6B6B" points="130.301,102.968 121.535,110.492 121.535,108.846 130.198,101.525 	"/>
	<path fill="#3F403F" d="M131.433,100.706l-13.505,11.751c-2.373,0.518-7.321-0.102-7.321-0.102l-0.617-0.105
		c0.515,1.234,0.101,3.607,0.101,3.607c4.023,0.926,8.146-0.312,8.146-0.312l13.096-12.476L131.433,100.706z"/>
	<path fill="#3D3D3D" d="M121.638,109.877l-3.093,2.372c-1.135,0.927-4.641,0.517-4.641,0.517c-0.414-0.104-0.414-0.416-0.414-0.416
		v-2.473c0-0.418,0.621-0.314,0.621-0.314c2.473,0.621,4.021,0,4.021,0l2.888-1.131
		C121.535,108.537,121.535,109.775,121.638,109.877z"/>
	<path fill="#A3A2A2" d="M121.638,109.361l-3.093,2.375c-1.135,0.929-4.641,0.514-4.641,0.514c-0.414-0.1-0.414-0.413-0.414-0.413
		v-2.476c0-0.414,0.621-0.311,0.621-0.311c2.473,0.619,4.021,0,4.021,0l2.888-1.131
		C121.535,108.021,121.535,109.359,121.638,109.361z"/>
	<circle opacity="0.5" fill="#757576" enable-background="new    " cx="114.94" cy="111.114" r="0.622"/>
	<path stroke="#000000" stroke-width="0.1" stroke-miterlimit="10" d="M101.944,110.496L72.77,98.122"/>
	<path fill="none" stroke="#000000" stroke-width="0.1" stroke-miterlimit="10" d="M58.539,81.216c0,0,1.445-0.828,2.68-0.517
		l5.672,2.063"/>
	<path fill="none" stroke="#000000" stroke-width="0.1" stroke-miterlimit="10" d="M83.287,102.559L82.771,92.04"/>
	<path fill="none" stroke="#000000" stroke-width="0.1" stroke-miterlimit="10" d="M85.141,103.381L84.42,92.66"/>
	<path fill="none" stroke="#000000" stroke-width="0.1" stroke-miterlimit="10" d="M96.173,97.399l2.99,3.815v8.146"/>
	<path fill="none" stroke="#000000" stroke-width="0.1" stroke-miterlimit="10" d="M72.77,98.122
		c-0.309-3.813-1.031-4.64-1.031-4.64v-6.804"/>
	<path fill="none" stroke="#000000" stroke-width="0.1" stroke-miterlimit="10" d="M99.373,96.988c0,0,18.04,9.897,18.967,12.063"/>
	<path fill="none" stroke="#000000" stroke-width="0.1" stroke-miterlimit="10" d="M111.433,87.811c0,0,19.899,7.424,19.28,11.548"
		/>
	<polygon fill="#F05123" points="103.186,108.432 101.638,107.713 101.638,106.885 103.186,107.713 	"/>
	<polygon fill="#F05123" points="64.61,90.235 63.063,89.514 63.063,88.689 64.61,89.514 	"/>
	<path fill="#333333" d="M87.824,96.889v1.029h-0.105l-2.371-0.824l-0.207-0.208l-0.104-0.93c0.103-0.204,0.207-0.204,0.207-0.204
		l2.475,1.029L87.824,96.889z"/>
	<path fill="#787878" d="M87.515,96.987v0.104l-0.104,0.618h-0.104l-1.959-0.722l-0.102-0.103v-0.62
		c0.101-0.102,0.205-0.102,0.205-0.102L87.515,96.987L87.515,96.987z"/>
	<path fill="#333333" d="M75.037,92.457v1.031H74.83l-2.268-0.827l-0.207-0.207l-0.206-0.928c0.101-0.207,0.206-0.207,0.206-0.207
		l2.475,1.031L75.037,92.457z"/>
	<path fill="#787878" d="M74.834,92.558l-0.104,0.617h-0.103l-1.959-0.723l-0.313-0.101V91.73c0.105-0.101,0.207-0.101,0.207-0.101
		l2.061,0.825L74.834,92.558z"/>
	<path opacity="0.3" fill="#FFFFFF" enable-background="new    " d="M72.869,95.138c0.62,0.202,0.725,2.985,0.725,2.985l7.63,2.988
		l-1.65-1.028c-3.399-0.926-3.399-1.549-3.399-1.549c-0.308-1.236-2.166-2.679-2.166-2.679L72.869,95.138z"/>
	<path opacity="0.3" fill="#FFFFFF" enable-background="new    " d="M98.138,105.134c-0.621-0.206-2.578,1.751-2.578,1.751
		l-7.733-2.986l1.954,0.41c3.093,1.651,3.506,1.238,3.506,1.238c1.237-0.725,3.506-0.516,3.506-0.516L98.138,105.134z"/>
	<path opacity="0.2" fill="#F7F7F7" enable-background="new    " d="M117.002,111.423c0.721,0.413,1.338,0,1.338,0
		c0-0.718-1.338-1.34-1.338-1.34C118.135,111.525,117.002,111.423,117.002,111.423z"/>
	<polygon fill="#A3A2A2" points="116.381,112.866 116.381,115.962 117.002,115.855 117.002,112.866 	"/>
	<path fill="#3F403F" d="M63.082,96.264l-5.777-5.05c-0.516-0.617-0.516-1.031-0.516-1.031v-0.72l7.217,3.813
		C63.387,93.276,63.078,96.37,63.082,96.264z"/>
	<g>
		<path fill="#3A3A3A" d="M93.831,83.609l-11.06-4.154l2.467-6.52c0.445-1.154,1.192-0.89,1.192-0.89l7.666,2.056
			c0.65,0.075,1.125,1.222,1.125,1.222l2.448,5.305L93.831,83.609z"/>
		<path fill="#191919" d="M93.832,83.612l-0.257-7.535c-0.28-2.178,0.677-1.931,0.677-1.931c0.291,0.063,0.865,0.958,0.865,0.958
			l3.261,5.754L93.832,83.612z"/>
	</g>
	
		<text transform="matrix(-0.8011 -0.2205 -0.1982 0.9802 91.5034 79.376)" fill="#FFE600" font-family="'Calibri'" font-size="4.3458">TAXI</text>
	<g>
		<polygon fill="none" points="85.543,99.469 83.338,98.684 85.541,99.492 85.541,99.49 85.541,99.49 		"/>
		<polygon fill="none" points="76.051,99.036 73.848,98.191 76.045,99.061 		"/>
		<polygon fill="none" points="85.104,102.381 82.906,101.531 85.1,102.4 		"/>
		<polygon fill="none" points="76.486,96.128 74.281,95.343 76.481,96.151 76.481,96.149 76.481,96.149 		"/>
		<polygon fill="none" points="94.598,102.82 92.394,102.037 94.592,102.846 94.595,102.846 94.592,102.846 		"/>
		<polygon fill="none" points="94.161,105.73 91.964,104.887 94.159,105.756 		"/>
		<polygon fill="#E2E2E2" points="96.426,106.421 96.412,106.52 96.434,106.527 96.602,105.4 96.653,105.055 96.635,105.047 
			96.622,105.141 94.416,104.355 94.375,104.625 94.233,105.564 		"/>
		<polygon fill="#161616" points="94.21,106.1 93.926,107.104 96.203,108.061 96.373,106.771 96.412,106.52 96.426,106.421 
			94.233,105.564 94.375,104.625 94.416,104.355 96.622,105.141 96.635,105.047 96.791,104.02 96.836,103.707 94.595,102.846 
			94.592,102.846 94.643,102.859 94.588,103.211 94.419,104.336 94.419,104.336 94.426,104.275 92.181,103.449 92.181,103.449 
			91.964,104.887 94.161,105.73 94.159,105.756 94.201,105.771 		"/>
		<polygon fill="#E2E2E2" points="94.595,102.846 96.836,103.707 96.836,103.707 96.892,102.605 96.94,102.09 94.859,101.424 
			94.816,101.715 94.645,102.838 94.598,102.82 94.592,102.846 		"/>
		<polygon fill="#E2E2E2" points="98.816,105.975 99.164,106.057 99.164,106.057 99.164,104.896 99.116,104.52 96.784,103.734 
			96.567,105.171 96.567,105.171 96.571,105.146 		"/>
		<polygon fill="#161616" points="96.648,105.154 96.436,106.566 99.114,107.434 99.114,106.527 99.164,106.057 98.899,105.96 
			96.651,105.134 		"/>
		<polygon fill="#161616" points="96.94,102.09 96.784,103.734 99.164,104.605 99.164,103.457 99.164,102.838 		"/>
		<polygon fill="#E2E2E2" points="96.436,106.566 96.273,108.09 99.164,109.359 99.114,107.895 99.114,107.434 		"/>
		<polygon fill="#E2E2E2" points="91.951,104.736 91.941,104.836 91.96,104.843 92.129,103.721 92.183,103.369 92.163,103.363 
			92.148,103.457 89.916,102.659 89.734,103.869 		"/>
		<polygon fill="#161616" points="92.148,103.457 92.163,103.363 92.317,102.336 92.371,101.982 92.371,101.982 92.363,102.021 
			90.123,101.161 90.123,101.158 90.123,101.158 89.896,102.654 89.916,102.659 		"/>
		<polygon fill="#161616" points="89.711,103.863 89.519,105.299 91.73,106.213 91.9,105.088 91.941,104.836 91.951,104.736 
			89.734,103.869 		"/>
		<polygon fill="#E2E2E2" points="92.363,102.021 92.371,101.982 92.534,100.896 92.588,100.55 90.337,99.723 90.123,101.158 
			90.123,101.161 		"/>
		<polygon fill="#E2E2E2" points="94.592,102.846 92.394,102.037 92.181,103.449 94.426,104.275 94.419,104.336 94.419,104.336 
			94.588,103.211 94.643,102.859 		"/>
		<polygon fill="#161616" points="94.816,101.715 94.859,101.424 94.871,101.365 92.622,100.538 92.394,102.037 94.598,102.82 
			94.645,102.838 		"/>
		<polygon fill="#E2E2E2" points="91.964,104.887 91.73,106.213 94.042,107.225 94.07,107.016 94.21,106.1 94.201,105.771 
			94.159,105.756 		"/>
		<polygon fill="#E2E2E2" points="87.371,103.068 87.357,103.168 87.377,103.174 87.545,102.051 87.601,101.703 87.58,101.693 
			87.566,101.785 85.361,101.003 85.32,101.273 85.178,102.211 		"/>
		<polygon fill="#161616" points="85.154,102.746 85.018,103.663 87.146,104.355 87.32,103.422 87.357,103.168 87.371,103.068 
			85.178,102.211 85.32,101.273 85.361,101.003 87.566,101.785 87.58,101.693 87.733,100.664 87.789,100.314 87.789,100.314 
			87.781,100.352 85.541,99.49 85.541,99.49 85.541,99.49 85.541,99.492 85.586,99.509 85.533,99.859 85.375,100.922 
			83.127,100.099 83.127,100.099 82.906,101.531 85.104,102.381 85.1,102.4 85.146,102.42 		"/>
		<polygon fill="#E2E2E2" points="87.781,100.352 87.789,100.314 87.955,99.229 88.004,98.881 85.805,98.072 85.76,98.362 
			85.59,99.485 85.543,99.469 85.541,99.49 85.541,99.49 		"/>
		<polygon fill="#E2E2E2" points="87.596,101.781 89.844,102.605 90.005,101.543 90.061,101.193 87.812,100.368 87.594,101.803 
			87.594,101.805 		"/>
		<polygon fill="#161616" points="87.594,101.805 87.381,103.216 89.623,104.08 89.79,102.955 89.847,102.605 89.844,102.605 
			87.596,101.781 		"/>
		<polygon fill="#161616" points="88.037,98.87 87.812,100.368 90.064,101.17 90.232,100.047 90.286,99.7 		"/>
		<polygon fill="#E2E2E2" points="87.381,103.216 87.146,104.355 89.519,105.299 89.626,104.432 89.62,104.105 		"/>
		<polygon fill="#E2E2E2" points="82.899,101.384 82.885,101.482 82.904,101.489 83.074,100.366 83.127,100.016 83.107,100.009 
			83.092,100.104 80.863,99.312 80.681,100.516 		"/>
		<polygon fill="#161616" points="83.092,100.104 83.107,100.009 83.262,98.98 83.311,98.668 81.07,97.808 81.07,97.805 
			81.07,97.805 80.84,99.303 80.863,99.312 		"/>
		<polygon fill="#161616" points="80.662,100.51 80.463,101.948 82.676,102.855 82.846,101.736 82.885,101.482 82.899,101.384 
			80.681,100.516 		"/>
		<polygon fill="#E2E2E2" points="81.07,97.808 83.311,98.668 83.311,98.668 83.479,97.547 83.53,97.197 81.287,96.373 
			81.07,97.805 		"/>
		<polygon fill="#E2E2E2" points="85.541,99.492 83.338,98.684 83.127,100.099 85.375,100.922 85.533,99.859 85.586,99.509 		"/>
		<polygon fill="#161616" points="85.76,98.362 85.805,98.072 85.813,98.012 83.566,97.185 83.338,98.684 85.543,99.469 
			85.59,99.485 		"/>
		<polygon fill="#E2E2E2" points="82.906,101.531 82.676,102.855 85.018,103.663 85.018,103.663 85.154,102.746 85.146,102.42 
			85.1,102.4 		"/>
		<polygon fill="#E2E2E2" points="78.316,99.727 78.299,99.826 78.322,99.833 78.489,98.709 78.543,98.359 78.523,98.35 
			78.51,98.444 76.305,97.66 76.266,97.933 76.121,98.87 		"/>
		<polygon fill="#161616" points="76.096,99.408 75.959,100.321 78.092,101.107 78.262,100.077 78.299,99.826 78.316,99.727 
			76.121,98.87 76.266,97.933 76.305,97.66 78.51,98.444 78.523,98.35 78.68,97.324 78.73,96.974 78.73,96.974 78.726,97.012 
			76.481,96.149 76.481,96.149 76.481,96.149 76.481,96.151 76.529,96.168 76.477,96.518 76.316,97.58 74.068,96.758 74.068,96.758 
			73.848,98.191 76.051,99.036 76.045,99.061 76.086,99.077 		"/>
		<polygon fill="#E2E2E2" points="78.726,97.012 78.73,96.974 78.896,95.891 78.948,95.541 76.748,94.729 76.701,95.019 
			76.535,96.144 76.486,96.128 76.481,96.149 76.481,96.149 		"/>
		<polygon fill="#E2E2E2" points="80.787,99.265 80.781,99.323 80.781,99.323 80.949,98.202 81.002,97.853 78.756,97.025 
			78.537,98.44 		"/>
		<polygon fill="#161616" points="78.326,99.875 80.566,100.738 80.735,99.615 80.781,99.323 80.787,99.265 78.537,98.44 		"/>
		<polygon fill="#161616" points="78.98,95.529 78.756,97.025 81.006,97.828 81.172,96.704 81.229,96.355 		"/>
		<polygon fill="#E2E2E2" points="78.326,99.875 78.092,101.107 80.463,101.948 80.57,101.092 80.561,100.764 		"/>
		<polygon fill="#E2E2E2" points="73.842,98.045 73.83,98.144 73.848,98.148 74.018,97.025 74.07,96.678 74.049,96.671 
			74.035,96.765 71.646,96.09 71.98,97.317 		"/>
		<polygon fill="#161616" points="74.035,96.765 74.049,96.671 74.205,95.64 74.254,95.326 72.012,94.465 72.012,94.465 
			72.012,94.465 71.646,95.872 71.646,96.09 		"/>
		<polygon fill="#161616" points="72.012,98.747 73.619,99.323 73.791,98.395 73.83,98.144 73.842,98.045 71.98,97.317 
			71.98,97.317 		"/>
		<polygon fill="#E2E2E2" points="74.254,95.326 74.254,95.326 74.42,94.206 74.477,93.855 72.228,93.028 72.012,94.465 		"/>
		<polygon fill="#E2E2E2" points="76.481,96.151 74.281,95.343 74.068,96.758 76.316,97.58 76.477,96.518 76.529,96.168 		"/>
		<polygon fill="#161616" points="76.701,95.019 76.748,94.729 76.756,94.671 74.508,93.844 74.281,95.343 76.486,96.128 
			76.535,96.144 		"/>
		<polygon fill="#E2E2E2" points="73.848,98.191 73.619,99.323 75.959,100.321 75.959,100.321 76.096,99.408 76.086,99.077 
			76.045,99.061 		"/>
	</g>
</g>
<polygon fill="#51586B" points="56.791,88.177 58.364,88.851 58.364,86.678 56.791,85.905 "/>
<polygon fill="#919191" points="56.791,89.49 59.021,90.658 58.947,88.327 56.791,87.216 "/>
<polygon fill="#C1C1C1" points="56.791,89.463 58.801,90.56 58.746,89.023 56.791,88.017 "/>
</svg>
