<?xml version="1.0" encoding="utf-8"?>
<!-- Generator: Adobe Illustrator 16.0.0, SVG Export Plug-In . SVG Version: 6.00 Build 0)  -->
<!DOCTYPE svg PUBLIC "-//W3C//DTD SVG 1.1//EN" "http://www.w3.org/Graphics/SVG/1.1/DTD/svg11.dtd">
<svg version="1.1" id="Layer_1" xmlns="http://www.w3.org/2000/svg" xmlns:xlink="http://www.w3.org/1999/xlink" x="0px" y="0px"
	 width="53.146px" height="37.321px" viewBox="20.764 30.27 53.146 37.321" enable-background="new 20.764 30.27 53.146 37.321"
	 xml:space="preserve">
<g id="Tire_1_">
	<path fill="#141318" d="M60.811,53.902c-0.418,1.313-1.692,2.55-2.854,2.75c-1.151,0.209-1.75-0.697-1.332-2.012
		c0.419-1.313,1.692-2.549,2.854-2.748C60.639,51.691,61.229,52.6,60.811,53.902z"/>
	<path fill="#121332" d="M61.029,54.09c-0.409,1.307-1.672,2.532-2.815,2.734c-1.144,0.203-1.733-0.696-1.323-2.012
		c0.409-1.307,1.672-2.53,2.815-2.732C60.85,51.879,61.441,52.777,61.029,54.09z"/>
	<path fill="#141318" d="M61.387,54.259c-0.42,1.313-1.695,2.548-2.854,2.748c-1.152,0.208-1.75-0.696-1.333-2.011
		c0.419-1.313,1.693-2.548,2.854-2.749C61.21,52.045,61.803,52.952,61.387,54.259z"/>
	<path fill="#121332" d="M61.602,54.445c-0.41,1.305-1.672,2.531-2.815,2.731c-1.146,0.202-1.734-0.694-1.324-2.011
		c0.41-1.307,1.673-2.53,2.815-2.732C61.424,52.232,62.014,53.137,61.602,54.445z"/>
	<path fill="#141318" d="M61.872,54.57c-0.418,1.313-1.692,2.547-2.854,2.748c-1.15,0.207-1.752-0.697-1.332-2.01
		c0.416-1.315,1.693-2.551,2.854-2.75C61.699,52.359,62.292,53.256,61.872,54.57z"/>
	<path fill="#121332" d="M62.092,54.757c-0.408,1.306-1.673,2.531-2.816,2.734c-1.145,0.2-1.732-0.697-1.323-2.013
		c0.409-1.306,1.674-2.529,2.817-2.732C61.911,52.546,62.503,53.451,62.092,54.757z"/>
	<path fill="#141318" d="M62.161,54.855c-0.396,1.299-1.616,2.504-2.724,2.699c-1.104,0.191-1.682-0.695-1.285-1.994
		c0.396-1.301,1.615-2.504,2.722-2.699C61.986,52.668,62.563,53.559,62.161,54.855z"/>
	<path fill="#121332" d="M61.887,54.984c-0.335,1.096-1.359,2.115-2.296,2.274c-0.932,0.171-1.42-0.591-1.083-1.679
		c0.335-1.1,1.359-2.116,2.294-2.275C61.732,53.146,62.221,53.896,61.887,54.984z"/>
	<path fill="#CDCCCC" d="M61.523,54.961c-0.271,0.878-1.097,1.689-1.844,1.825c-0.759,0.135-1.146-0.47-0.879-1.351
		c0.271-0.879,1.096-1.689,1.846-1.826C61.396,53.486,61.791,54.091,61.523,54.961z"/>
	<path fill="#989898" d="M61.173,54.963c-0.216,0.713-0.883,1.373-1.489,1.479c-0.608,0.107-0.929-0.375-0.711-1.09
		c0.219-0.711,0.883-1.371,1.49-1.479C61.068,53.768,61.387,54.259,61.173,54.963z"/>
	<path fill="#CDCCCC" d="M60.868,55.064c-0.16,0.523-0.651,1.006-1.097,1.086c-0.442,0.072-0.679-0.282-0.518-0.809
		c0.161-0.523,0.65-1.005,1.098-1.085C60.805,54.184,61.036,54.545,60.868,55.064z"/>
	<g id="Tire_Hole_1_">
		<path fill="#010101" d="M60.357,55.111c-0.053,0.168-0.2,0.313-0.342,0.343c-0.144,0.021-0.218-0.088-0.166-0.253
			c0.053-0.168,0.2-0.315,0.342-0.344C60.331,54.832,60.398,54.943,60.357,55.111z"/>
		<path fill="#010101" d="M60.221,54.579c-0.033,0.092-0.111,0.172-0.188,0.187c-0.079,0.012-0.115-0.048-0.091-0.139
			c0.033-0.094,0.11-0.174,0.188-0.188C60.21,54.428,60.247,54.488,60.221,54.579z"/>
		<path fill="#010101" d="M60.756,54.629c-0.031,0.092-0.111,0.172-0.189,0.186s-0.113-0.047-0.088-0.139
			c0.033-0.093,0.11-0.173,0.188-0.187C60.742,54.477,60.779,54.54,60.756,54.629z"/>
		<path fill="#010101" d="M60.74,55.195c-0.033,0.093-0.112,0.174-0.189,0.186c-0.076,0.014-0.115-0.045-0.09-0.138
			c0.033-0.093,0.112-0.173,0.189-0.187C60.729,55.045,60.77,55.104,60.74,55.195z"/>
		<path fill="#010101" d="M60.227,55.695c-0.033,0.093-0.11,0.175-0.188,0.188c-0.077,0.012-0.115-0.048-0.089-0.139
			c0.031-0.094,0.111-0.174,0.188-0.188C60.213,55.546,60.251,55.607,60.227,55.695z"/>
		<path fill="#010101" d="M59.659,55.684c-0.033,0.094-0.112,0.174-0.188,0.188c-0.078,0.013-0.117-0.047-0.091-0.14
			c0.033-0.092,0.111-0.172,0.188-0.188C59.646,55.534,59.686,55.594,59.659,55.684z"/>
		<path fill="#010101" d="M59.671,55.126c-0.032,0.092-0.11,0.173-0.188,0.187s-0.114-0.047-0.09-0.139
			c0.032-0.094,0.111-0.174,0.189-0.188C59.661,54.975,59.695,55.036,59.671,55.126z"/>
	</g>
</g>
<g id="Tire_2_">
	<path fill="#141318" d="M66.427,50.242c-0.418,1.313-1.692,2.549-2.854,2.749c-1.152,0.209-1.75-0.697-1.332-2.011
		c0.419-1.313,1.692-2.548,2.854-2.75C66.255,48.031,66.846,48.938,66.427,50.242z"/>
	<path fill="#121332" d="M66.646,50.429c-0.41,1.307-1.672,2.532-2.815,2.734c-1.144,0.203-1.733-0.696-1.324-2.011
		c0.41-1.306,1.673-2.531,2.816-2.733C66.466,48.218,67.061,49.116,66.646,50.429z"/>
	<path fill="#141318" d="M67.003,50.598c-0.419,1.313-1.694,2.549-2.854,2.748c-1.151,0.209-1.75-0.697-1.334-2.011
		c0.42-1.313,1.694-2.548,2.854-2.749C66.827,48.384,67.42,49.291,67.003,50.598z"/>
	<path fill="#121332" d="M67.218,50.784c-0.409,1.305-1.672,2.53-2.815,2.733c-1.145,0.2-1.733-0.697-1.323-2.013
		c0.409-1.305,1.673-2.53,2.815-2.733C67.041,48.571,67.631,49.476,67.218,50.784z"/>
	<path fill="#141318" d="M67.488,50.909c-0.418,1.313-1.692,2.547-2.854,2.748c-1.151,0.208-1.752-0.697-1.333-2.011
		c0.417-1.314,1.694-2.548,2.854-2.75C67.316,48.698,67.909,49.595,67.488,50.909z"/>
	<path fill="#121332" d="M67.709,51.096c-0.409,1.305-1.673,2.531-2.816,2.734c-1.145,0.201-1.732-0.697-1.324-2.012
		c0.41-1.305,1.675-2.53,2.818-2.733C67.527,48.885,68.12,49.79,67.709,51.096z"/>
	<path fill="#141318" d="M67.777,51.193c-0.396,1.301-1.615,2.506-2.723,2.699c-1.104,0.192-1.682-0.693-1.285-1.992
		c0.396-1.301,1.614-2.505,2.722-2.699C67.604,49.007,68.182,49.896,67.777,51.193z"/>
	<path fill="#121332" d="M67.503,51.323c-0.334,1.096-1.358,2.114-2.295,2.276c-0.933,0.168-1.42-0.593-1.083-1.681
		c0.335-1.099,1.359-2.116,2.294-2.277C67.352,49.485,67.837,50.234,67.503,51.323z"/>
	<path fill="#CDCCCC" d="M67.141,51.3c-0.271,0.878-1.095,1.689-1.843,1.825c-0.758,0.135-1.146-0.471-0.878-1.352
		c0.27-0.879,1.096-1.688,1.844-1.824C67.014,49.825,67.408,50.43,67.141,51.3z"/>
	<path fill="#989898" d="M66.79,51.302c-0.216,0.714-0.883,1.373-1.49,1.479c-0.608,0.107-0.928-0.377-0.71-1.09
		c0.219-0.713,0.883-1.374,1.49-1.479S67.003,50.598,66.79,51.302z"/>
	<path fill="#CDCCCC" d="M66.484,51.404c-0.159,0.522-0.65,1.005-1.096,1.086c-0.443,0.07-0.679-0.283-0.518-0.809
		c0.161-0.524,0.65-1.006,1.097-1.084C66.422,50.521,66.652,50.884,66.484,51.404z"/>
	<g id="Tire_Hole_2_">
		<path fill="#010101" d="M65.975,51.45c-0.052,0.169-0.199,0.315-0.341,0.343c-0.143,0.02-0.217-0.088-0.167-0.253
			c0.053-0.168,0.202-0.315,0.342-0.343C65.948,51.171,66.018,51.283,65.975,51.45z"/>
		<path fill="#010101" d="M65.837,50.918c-0.032,0.092-0.11,0.172-0.188,0.186c-0.08,0.014-0.114-0.047-0.09-0.138
			c0.032-0.094,0.11-0.174,0.188-0.188C65.827,50.768,65.863,50.827,65.837,50.918z"/>
		<path fill="#010101" d="M66.373,50.968c-0.032,0.093-0.111,0.173-0.189,0.185c-0.078,0.015-0.115-0.045-0.088-0.137
			c0.032-0.094,0.11-0.174,0.188-0.188C66.359,50.814,66.396,50.879,66.373,50.968z"/>
		<path fill="#010101" d="M66.357,51.534c-0.033,0.093-0.112,0.174-0.189,0.187c-0.077,0.014-0.115-0.046-0.09-0.139
			c0.033-0.092,0.111-0.173,0.189-0.186C66.346,51.383,66.387,51.443,66.357,51.534z"/>
		<path fill="#010101" d="M65.844,52.035c-0.033,0.092-0.111,0.174-0.189,0.188c-0.076,0.012-0.114-0.049-0.09-0.14
			c0.033-0.093,0.112-0.174,0.189-0.187C65.83,51.885,65.868,51.947,65.844,52.035z"/>
		<path fill="#010101" d="M65.275,52.021c-0.032,0.095-0.111,0.174-0.188,0.188c-0.078,0.014-0.116-0.047-0.09-0.141
			c0.032-0.092,0.11-0.172,0.188-0.187C65.266,51.873,65.302,51.934,65.275,52.021z"/>
		<path fill="#010101" d="M65.288,51.465c-0.033,0.092-0.111,0.174-0.188,0.186c-0.078,0.015-0.115-0.047-0.091-0.137
			c0.033-0.095,0.112-0.175,0.19-0.188C65.277,51.313,65.313,51.375,65.288,51.465z"/>
	</g>
</g>
<g id="Tire">
	<path fill="#141318" d="M44.379,62.366c-0.418,1.313-1.694,2.549-2.855,2.749c-1.152,0.209-1.75-0.697-1.333-2.012
		c0.419-1.313,1.694-2.547,2.855-2.748C44.208,60.154,44.797,61.063,44.379,62.366z"/>
	<path fill="#121332" d="M44.6,62.553c-0.41,1.307-1.673,2.532-2.817,2.734c-1.144,0.203-1.734-0.696-1.324-2.012
		c0.41-1.307,1.672-2.53,2.817-2.732C44.417,60.342,45.012,61.24,44.6,62.553z"/>
	<path fill="#141318" d="M44.955,62.723c-0.418,1.313-1.694,2.547-2.855,2.748c-1.153,0.207-1.75-0.697-1.333-2.012
		c0.419-1.313,1.694-2.548,2.854-2.749C44.779,60.508,45.372,61.415,44.955,62.723z"/>
	<path fill="#121332" d="M45.17,62.908c-0.41,1.305-1.672,2.531-2.816,2.732s-1.734-0.695-1.325-2.012
		c0.41-1.305,1.673-2.529,2.817-2.732C44.993,60.695,45.583,61.6,45.17,62.908z"/>
	<path fill="#141318" d="M45.442,63.033c-0.418,1.313-1.694,2.547-2.854,2.748c-1.152,0.208-1.751-0.697-1.333-2.01
		c0.417-1.315,1.694-2.549,2.854-2.75C45.27,60.822,45.861,61.719,45.442,63.033z"/>
	<path fill="#121332" d="M45.661,63.221c-0.41,1.305-1.672,2.53-2.816,2.733c-1.145,0.2-1.734-0.697-1.325-2.013
		c0.41-1.306,1.673-2.529,2.817-2.732C45.481,61.009,46.073,61.914,45.661,63.221z"/>
	<path fill="#141318" d="M45.73,63.318c-0.396,1.3-1.616,2.505-2.722,2.699c-1.104,0.191-1.681-0.694-1.287-1.994
		c0.396-1.299,1.616-2.504,2.721-2.698C45.556,61.131,46.133,62.021,45.73,63.318z"/>
	<path fill="#121332" d="M45.455,63.447c-0.334,1.096-1.359,2.115-2.294,2.275c-0.933,0.17-1.42-0.592-1.083-1.68
		c0.334-1.1,1.359-2.116,2.294-2.275C45.303,61.609,45.789,62.357,45.455,63.447z"/>
	<path fill="#CDCCCC" d="M45.093,63.424c-0.27,0.878-1.094,1.689-1.843,1.825c-0.757,0.135-1.146-0.47-0.878-1.351
		c0.27-0.879,1.094-1.689,1.844-1.825C44.964,61.949,45.36,62.555,45.093,63.424z"/>
	<path fill="#989898" d="M44.743,63.426c-0.216,0.713-0.883,1.373-1.49,1.479c-0.609,0.106-0.929-0.375-0.71-1.09
		c0.218-0.711,0.883-1.371,1.49-1.479C44.639,62.229,44.955,62.723,44.743,63.426z"/>
	<path fill="#CDCCCC" d="M44.438,63.527c-0.161,0.523-0.652,1.006-1.096,1.087c-0.444,0.071-0.679-0.283-0.517-0.808
		c0.161-0.525,0.652-1.007,1.096-1.086C44.374,62.646,44.606,63.008,44.438,63.527z"/>
	<g id="Tire_Hole">
		<path fill="#010101" d="M43.927,63.574c-0.052,0.169-0.201,0.314-0.341,0.343c-0.142,0.021-0.216-0.088-0.167-0.253
			c0.053-0.168,0.202-0.314,0.342-0.344C43.901,63.295,43.968,63.407,43.927,63.574z"/>
		<path fill="#010101" d="M43.789,63.042c-0.033,0.092-0.112,0.172-0.19,0.187c-0.079,0.013-0.115-0.047-0.089-0.139
			c0.033-0.094,0.111-0.174,0.189-0.188C43.779,62.891,43.816,62.951,43.789,63.042z"/>
		<path fill="#010101" d="M44.325,63.092c-0.033,0.092-0.112,0.172-0.189,0.186c-0.078,0.014-0.115-0.047-0.089-0.139
			c0.033-0.093,0.112-0.173,0.19-0.187C44.312,62.939,44.35,63.003,44.325,63.092z"/>
		<path fill="#010101" d="M44.31,63.658c-0.033,0.093-0.112,0.174-0.189,0.186c-0.078,0.014-0.115-0.045-0.09-0.138
			c0.033-0.092,0.112-0.173,0.19-0.187C44.297,63.508,44.337,63.566,44.31,63.658z"/>
		<path fill="#010101" d="M43.796,64.159c-0.034,0.092-0.112,0.174-0.19,0.187c-0.078,0.012-0.115-0.048-0.089-0.139
			c0.033-0.094,0.112-0.174,0.189-0.188C43.782,64.009,43.821,64.07,43.796,64.159z"/>
		<path fill="#010101" d="M43.228,64.146c-0.033,0.094-0.112,0.174-0.189,0.188c-0.078,0.014-0.116-0.047-0.09-0.141
			c0.033-0.092,0.112-0.172,0.19-0.187C43.217,63.997,43.253,64.057,43.228,64.146z"/>
		<path fill="#010101" d="M43.241,63.589c-0.033,0.093-0.112,0.173-0.19,0.187c-0.078,0.014-0.115-0.047-0.089-0.139
			c0.033-0.094,0.112-0.174,0.19-0.187C43.23,63.438,43.266,63.499,43.241,63.589z"/>
	</g>
</g>
<polygon fill="#161616" points="61.348,51.721 62.968,52.844 63.33,52.844 63.766,52.559 64.064,51.408 64.891,50.573 
	66.984,49.273 67.432,49.438 67.868,49.732 68.193,49.659 68.412,49.438 68.448,48.556 68.193,48.262 67.143,47.765 "/>
<polygon fill="#2D2D2D" points="54.945,55.634 56.807,56.906 57.223,56.906 57.723,56.583 58.064,55.279 59.014,54.336 
	61.417,52.863 61.932,53.051 62.432,53.384 62.807,53.301 63.057,53.051 63.098,52.051 62.807,51.718 61.598,51.154 "/>
<polygon fill="#9A9A9B" points="52.516,57.551 70.947,45.759 71.223,44.363 69.783,44.136 51.473,54.32 "/>
<image display="none" overflow="visible" enable-background="new    " width="118" height="83" xlink:href="../../../../../References/kurrennu.jpg"  transform="matrix(0.5245 0 0 0.5245 19.0522 29.981)">
</image>
<image display="none" overflow="visible" enable-background="new    " width="235" height="168" xlink:href="../../../../../References/stock-illustration-66611047-vector-isometric-mining-bulldozer.jpg"  transform="matrix(0.274 0 0 0.274 20.499 27.625)">
</image>
<polygon fill="#191919" points="46.253,63.248 53.598,58.499 53.764,55.98 51.295,54.336 45.128,58.613 "/>
<polygon fill="#B5B5B5" points="44.909,47.867 60.659,38.613 71.223,44.363 52.434,55.953 52.434,52.613 "/>
<polygon fill="#999999" points="45.211,48.428 46.123,47.904 54.789,52.756 53.887,53.32 "/>
<polygon fill="#999999" points="47.751,46.873 48.663,46.35 57.33,51.201 56.427,51.766 "/>
<polygon fill="#999999" points="50.36,45.304 51.271,44.78 59.938,49.632 59.035,50.196 "/>
<polyline fill="#4C4C4C" points="41.657,47.343 43.075,46.801 43.888,47.343 53.055,52.338 53.055,56.238 45.805,60.779 
	41.657,47.613 "/>
<polygon fill="#2D2D2D" points="53.055,52.338 43.69,57.693 45.315,60.341 46.62,60.27 53.055,56.238 "/>
<image display="none" overflow="visible" enable-background="new    " width="91" height="90" xlink:href="../../../../../References/ambulansya.jpg"  transform="matrix(0.4888 0 0 0.4888 29.5938 34.5625)">
</image>
<path fill="#B5B5B5" d="M31.43,48.155l5.25-3.375h0.75l8.75,4.916l0.208,0.875v12.086l-0.417,0.414c0,0,0.208-3.916-2.417-2.125
	c0,0-2.523,1.375-2.262,4.669l-2.384,1.5c0,0-0.979,0.415-3.104-0.794l-6.625-4.125v-8.533C29.18,53.661,29.43,50.406,31.43,48.155z
	"/>
<path opacity="0.7" fill="#999999" enable-background="new    " d="M36.013,66.436v-1.361l1.432,0.613l0.578,0.582l0.71-1.215
	c0,0,0.175-2.379,0.05-4.824l0.271-4.275l0.417-1.521l6.708-4.733l0.208,0.875v12.084l-0.417,0.416c0,0,0.219-3.942-2.417-2.125
	c0,0-2.534,1.417-2.262,4.667l-2.384,1.5C38.909,67.113,38.089,67.471,36.013,66.436z"/>
<path d="M22.21,55.457l0.137,3.469l0.844,0.5c0.063,0.719-0.281,1.219-0.281,1.219c-0.438,1.031-1.688,0.438-1.688,0.438v-1.094
	l0.5,0.03c0.156,0.688,0.594,0.405,0.594,0.405c0.406-0.563-0.375-1.313-0.375-1.313v-3.655L22.21,55.457L22.21,55.457z"/>
<polygon fill="#4C4C4C" points="40.043,45.644 40.043,42.492 40.804,42.103 41.293,42.437 41.293,45.914 40.877,46.168 "/>
<path fill="#7F7F7F" d="M38.604,65.436c0,0,1.053-0.444,2.69-3.236c0,0,0.637-1.167,3.428-2.542l1.667-0.863l0.583,0.29
	l-0.167,4.282l-0.784-0.136c0,0,0.076-3.002-1.799-2.268c0,0-3.042,0.713-2.896,4.984c0,0-2.032,2.126-3.88,1.542l-8.265-4.782
	l-0.104-0.275v-2.024l0.104-0.291L38.604,65.436z"/>
<path fill="#434F6B" d="M29.472,55.738l-0.058-2.182l0.401-2.707c0,0,7.034,4,8.324,5.131l0.919-0.027l-0.274,4.275
	c0,0,0.019,0.429-0.349,0.326L29.472,55.738z"/>
<polygon fill="#2D2D2D" points="31.451,52.613 39.018,56.583 39.472,54.43 32.638,50.738 "/>
<path fill="#D8D8D8" d="M21.034,55.551c0,0,0-0.813,1.125-1.438l44.938-23.625l1.313,0.875v2.125L33.097,51.801
	C33.097,51.801,22.055,57.488,21.034,55.551z"/>
<path fill="#B5B5B5" d="M20.784,57.77l0.438-0.5l1.977-0.844l0.148,1.344l-1.563,1.313C21.784,59.082,20.597,58.926,20.784,57.77z"
	/>
<polygon points="23.597,55.738 24.222,54.301 25.909,53.707 25.326,55.238 "/>
<polygon points="26.503,54.723 27.034,53.207 28.128,52.613 27.532,54.368 "/>
<polygon points="30.451,53.093 30.888,51.624 31.826,51.063 31.241,52.714 "/>
<polygon fill="#BFBFBF" points="58.314,42.363 52.434,38.613 52.434,35.926 62.409,30.488 70.034,35.405 "/>
<polygon points="28.565,53.934 29.222,52.197 30.263,51.654 29.546,53.499 "/>
<polygon fill="#333333" points="32.764,52.077 68.409,33.738 68.682,31.279 67.247,30.27 31.43,48.903 33.597,49.82 "/>
<polygon fill="#606060" points="23.198,53.934 58.557,35.405 59.389,35.738 23.347,54.154 "/>
<ellipse fill="#5B5B5B" cx="61.096" cy="44.135" rx="6.151" ry="3.732"/>
<path fill="#D8D8D8" d="M55.389,44.78c0,0,0.414-8.354,7.459-9.104c0,0,1.069-0.227,1.194,0.211l4.367-2.148l3.563,2.25l1.938,1.313
	v2.5L61.035,48.99L55.389,44.78z"/>
<polygon fill="#2D2D2D" points="29.664,57.176 37.784,61.697 37.701,63.248 36.013,63.364 30.68,60.382 29.664,59.023 "/>
<path d="M30.465,63.354l0.04-1.719l5.305,3.072l-0.06,1.676L30.465,63.354z"/>
<path fill="#ADADAD" d="M73.909,39.801v-2.5l-5.095,2.688c0,0-0.897-2.618-4.219,0c0,0-3.125,2.781-3.563,9L73.909,39.801z"/>
<polygon fill="#434F6B" points="39.763,55.953 39.628,58.499 39.763,58.904 43.055,56.718 43.055,53.934 "/>
<path fill="#434F6B" d="M59.389,36.831c0,0-3.781,1.971-3.949,7.302l4.99,3.627c0,0,0.293-5.25,3.512-7.938L59.389,36.831z"/>
<path fill="#434F6B" d="M64.598,39.988c0,0-3.406,2.91-3.5,7.879l3.5-4.837V39.988z"/>
<polygon fill="#F2F2F2" points="36.602,65.279 36.602,66.447 37.445,66.904 37.445,65.688 "/>
<polygon fill="#F2F2F2" points="29.357,60.963 29.982,61.307 29.982,62.432 29.347,62.107 "/>
<path fill="#050505" d="M66.052,39.084l0.146,6.219l1.134-0.809l-0.16-5.67C67.171,38.825,66.639,38.783,66.052,39.084z"/>
<polygon fill="#050505" points="68.814,39.988 68.814,43.436 69.783,42.745 69.697,39.523 "/>
<polygon fill="#050505" points="70.877,38.901 70.877,42.003 71.85,41.271 71.85,38.387 "/>
<polygon fill="#050505" points="72.83,37.87 72.83,40.571 73.646,39.988 73.646,37.439 "/>
<polygon fill="#232323" points="39.411,54.718 39.972,54.927 39.691,59.072 39.201,58.904 39.201,59.072 39.847,59.26 
	39.847,58.218 40.347,58.436 40.493,56.419 40.034,56.218 40.097,54.843 39.43,54.552 "/>
<polygon fill="#9A9A9B" points="29.797,57.563 37.651,62.001 37.651,62.283 29.797,57.855 "/>
<polygon fill="#9A9A9B" points="29.797,58.421 37.651,62.857 37.651,63.141 29.797,58.713 "/>
<polygon fill="#4C4C4C" points="42.847,47.343 42.847,44.191 43.608,43.802 44.097,44.136 44.097,47.613 43.681,47.867 "/>
<path fill="#7685A5" d="M38.878,56.583l-0.375,3.341l-0.156,0.346l-8.083-4.314C30.263,55.953,30.503,53.709,38.878,56.583z"/>
<path fill="#7685A5" d="M42.409,54.723c0,0-1.041,0.768-1.208,2.643v0.391l1.677-1.171v-2.428L42.409,54.723z"/>
<path fill="#7685A5" d="M63.473,39.696c0,0-0.029,0-0.086,0.001c-0.795,0.019-6.851,0.295-7.707,4.438l4.313,2.957
	C59.992,47.092,58.889,44.821,63.473,39.696z"/>
<path fill="#7685A5" d="M64.18,41.345l-0.238,1.645l-1.094,1.792C62.848,44.78,63.555,42.034,64.18,41.345z"/>
<polygon fill="#5B5B5B" points="48.231,59.26 48.639,59.468 48.639,61.705 49.138,61.383 49.138,59.176 48.685,58.977 "/>
<polygon fill="#5B5B5B" points="51.02,57.489 51.426,57.697 51.426,59.936 51.925,59.611 51.925,57.404 51.473,57.206 "/>
</svg>
