<?xml version="1.0" encoding="utf-8"?>
<!-- Generator: Adobe Illustrator 16.0.0, SVG Export Plug-In . SVG Version: 6.00 Build 0)  -->
<!DOCTYPE svg PUBLIC "-//W3C//DTD SVG 1.1//EN" "http://www.w3.org/Graphics/SVG/1.1/DTD/svg11.dtd">
<svg version="1.1" id="Layer_1" xmlns="http://www.w3.org/2000/svg" xmlns:xlink="http://www.w3.org/1999/xlink" x="0px" y="0px"
	 width="68.95px" height="54.514px" viewBox="13.25 21.9 68.95 54.514" enable-background="new 13.25 21.9 68.95 54.514"
	 xml:space="preserve">
<g id="Tire_Mid">
	<path fill="#16151A" d="M41.1,66.9c-0.5,1.699-2.1,3.3-3.5,3.5c-1.4,0.3-2.2-0.9-1.6-2.603s2.1-3.3,3.5-3.5
		C40.8,64.1,41.6,65.3,41.1,66.9z"/>
	<path fill="#131433" d="M41.3,67.2c-0.5,1.7-2.1,3.3-3.5,3.5c-1.4,0.3-2.1-0.9-1.6-2.601c0.5-1.699,2.1-3.302,3.5-3.5
		C41.1,64.3,41.8,65.5,41.3,67.2z"/>
	<path fill="#16151A" d="M41.8,67.4c-0.5,1.699-2.1,3.3-3.5,3.5c-1.4,0.3-2.2-0.9-1.6-2.603c0.5-1.698,2.1-3.3,3.5-3.5
		C41.5,64.6,42.3,65.7,41.8,67.4z"/>
	<path fill="#131433" d="M42,67.6c-0.5,1.7-2.1,3.301-3.5,3.5c-1.4,0.301-2.1-0.897-1.6-2.6s2.1-3.3,3.5-3.5S42.5,66,42,67.6z"/>
	<path fill="#16151A" d="M42.4,67.8c-0.5,1.7-2.1,3.3-3.5,3.5c-1.4,0.3-2.2-0.899-1.6-2.6c0.5-1.7,2.1-3.3,3.5-3.5
		C42.2,65,42.9,66.1,42.4,67.8z"/>
	<path fill="#131433" d="M42.6,68c-0.5,1.7-2.1,3.3-3.5,3.5c-1.4,0.3-2.1-0.9-1.6-2.6c0.5-1.7,2.1-3.301,3.5-3.5
		C42.4,65.2,43.1,66.4,42.6,68z"/>
	<path fill="#16151A" d="M42.7,68.2c-0.5,1.7-2,3.2-3.4,3.5c-1.4,0.2-2.1-0.9-1.6-2.601c0.5-1.699,2-3.199,3.4-3.5
		C42.5,65.3,43.2,66.5,42.7,68.2z"/>
	<path fill="#131433" d="M42.4,68.3c-0.4,1.4-1.7,2.7-2.8,2.9s-1.7-0.8-1.3-2.2c0.4-1.4,1.7-2.7,2.8-2.9
		C42.2,66,42.8,66.9,42.4,68.3z"/>
	<path fill="#CECCCC" d="M41.9,68.3c-0.3,1.101-1.3,2.2-2.3,2.4c-0.9,0.2-1.4-0.601-1.1-1.7s1.3-2.2,2.3-2.4
		C41.8,66.4,42.3,67.2,41.9,68.3z"/>
	<path fill="#989798" d="M41.5,68.3c-0.3,0.9-1.1,1.8-1.8,1.9c-0.8,0.1-1.1-0.5-0.9-1.4c0.3-0.899,1.1-1.8,1.8-1.899
		C41.4,66.8,41.8,67.4,41.5,68.3z"/>
	<path fill="#CECCCC" d="M41.1,68.4c-0.2,0.699-0.8,1.3-1.4,1.397c-0.5,0.103-0.8-0.397-0.6-1c0.2-0.698,0.8-1.3,1.4-1.397
		C41,67.3,41.3,67.8,41.1,68.4z"/>
	<g id="Tire_Mid_Hole">
		<path fill="#020202" d="M40.5,68.5c-0.1,0.2-0.2,0.4-0.4,0.4c-0.2,0-0.3-0.103-0.2-0.301C40,68.4,40.1,68.2,40.3,68.2
			C40.5,68.1,40.5,68.3,40.5,68.5z"/>
		<path fill="#020202" d="M40.3,67.8c0,0.101-0.1,0.2-0.2,0.2S40,68,40,67.9c0-0.103,0.1-0.2,0.2-0.2C40.3,67.6,40.4,67.7,40.3,67.8
			z"/>
		<path fill="#020202" d="M41,67.9c0,0.1-0.1,0.199-0.2,0.199c-0.1,0-0.1-0.102-0.1-0.199c0-0.103,0.1-0.2,0.2-0.2S41,67.8,41,67.9z
			"/>
		<path fill="#020202" d="M41,68.6c0,0.103-0.1,0.2-0.2,0.2c-0.1,0-0.1-0.1-0.1-0.2c0-0.1,0.1-0.199,0.2-0.199S41,68.5,41,68.6z"/>
		<path fill="#020202" d="M40.3,69.3c0,0.101-0.1,0.2-0.2,0.2S40,69.4,40,69.3c0-0.1,0.1-0.2,0.2-0.2C40.3,69.1,40.4,69.1,40.3,69.3
			z"/>
		<path fill="#020202" d="M39.6,69.2c0,0.1-0.1,0.2-0.2,0.2s-0.1-0.103-0.1-0.2c0-0.101,0.1-0.2,0.2-0.2S39.7,69.1,39.6,69.2z"/>
		<path fill="#020202" d="M39.7,68.5c0,0.1-0.1,0.2-0.2,0.2s-0.1-0.101-0.1-0.2s0.1-0.2,0.2-0.2S39.7,68.4,39.7,68.5z"/>
	</g>
	
		<animateTransform  type="translate" fill="remove" additive="replace" attributeName="transform" calcMode="linear" begin="0s" accumulate="none" attributeType="XML" restart="always" values="0,0;0.1,0.1;0,0" repeatCount="indefinite" dur="1">
		</animateTransform>
</g>
<g id="Tire_Mid_1_">
	<path fill="#16151A" d="M73.1,48.3c-0.5,1.7-2.1,3.3-3.5,3.5C68.2,52.1,67.4,50.9,68,49.2c0.5-1.7,2.1-3.3,3.5-3.5
		C72.9,45.5,73.6,46.6,73.1,48.3z"/>
	<path fill="#131433" d="M73.4,48.5c-0.5,1.7-2.103,3.3-3.5,3.5c-1.4,0.3-2.103-0.9-1.603-2.6s2.103-3.3,3.5-3.5
		C73.2,45.7,73.9,46.9,73.4,48.5z"/>
	<path fill="#16151A" d="M73.8,48.8c-0.5,1.7-2.1,3.3-3.5,3.5c-1.399,0.3-2.2-0.899-1.6-2.6c0.5-1.7,2.1-3.3,3.5-3.5
		C73.6,45.9,74.4,47.1,73.8,48.8z"/>
	<path fill="#131433" d="M74.1,49c-0.5,1.7-2.1,3.3-3.5,3.5c-1.397,0.3-2.1-0.9-1.6-2.6s2.1-3.3,3.5-3.5
		C73.9,46.1,74.6,47.3,74.1,49z"/>
	<path fill="#16151A" d="M74.4,49.2c-0.5,1.7-2.103,3.3-3.5,3.5c-1.4,0.3-2.2-0.9-1.603-2.6c0.5-1.7,2.103-3.3,3.5-3.5
		C74.2,46.3,75,47.5,74.4,49.2z"/>
	<path fill="#131433" d="M74.7,49.4c-0.5,1.7-2.101,3.3-3.5,3.5C69.8,53.2,69.1,52,69.6,50.3c0.5-1.7,2.103-3.3,3.5-3.5
		C74.5,46.6,75.2,47.7,74.7,49.4z"/>
	<path fill="#16151A" d="M74.8,49.5c-0.5,1.7-2,3.2-3.399,3.5C70,53.2,69.3,52.1,69.8,50.4s2-3.2,3.4-3.5
		C74.6,46.7,75.3,47.9,74.8,49.5z"/>
	<path fill="#131433" d="M74.5,49.7c-0.4,1.399-1.7,2.7-2.8,2.899c-1.101,0.198-1.7-0.802-1.3-2.202c0.397-1.4,1.699-2.7,2.8-2.9
		C74.3,47.3,74.9,48.3,74.5,49.7z"/>
	<path fill="#CECCCC" d="M74,49.7c-0.3,1.1-1.3,2.2-2.3,2.399c-0.9,0.198-1.4-0.602-1.101-1.702C70.9,49.3,71.9,48.2,72.9,48
		S74.3,48.5,74,49.7z"/>
	<path fill="#989798" d="M73.6,49.7c-0.3,0.899-1.1,1.8-1.8,1.899C71,51.7,70.7,51.1,70.9,50.2c0.3-0.9,1.1-1.8,1.8-1.9
		C73.4,48.1,73.8,48.8,73.6,49.7z"/>
	<path fill="#CECCCC" d="M73.2,49.8c-0.2,0.7-0.8,1.3-1.4,1.4c-0.5,0.1-0.8-0.4-0.6-1c0.2-0.7,0.8-1.3,1.399-1.4
		C73.1,48.7,73.4,49.1,73.2,49.8z"/>
	<g id="Tire_Mid_Hole_1_">
		<path fill="#020202" d="M72.6,49.9c-0.1,0.2-0.199,0.4-0.397,0.4c-0.2,0-0.302-0.1-0.201-0.3s0.2-0.4,0.399-0.4
			C72.5,49.5,72.6,49.6,72.6,49.9z"/>
		<path fill="#020202" d="M72.4,49.2c0,0.1-0.103,0.2-0.2,0.2c-0.101,0-0.101-0.1-0.101-0.2c0-0.1,0.101-0.2,0.198-0.2
			C72.4,49,72.4,49.1,72.4,49.2z"/>
		<path fill="#020202" d="M73.1,49.2c0,0.1-0.1,0.2-0.199,0.2c-0.101,0-0.101-0.1-0.101-0.2c0-0.1,0.101-0.2,0.2-0.2
			C73,49,73.1,49.1,73.1,49.2z"/>
		<path fill="#020202" d="M73,50c0,0.1-0.1,0.2-0.2,0.2c-0.1,0-0.1-0.1-0.1-0.2s0.1-0.2,0.2-0.2C73,49.8,73.1,49.9,73,50z"/>
		<path fill="#020202" d="M72.4,50.6c0,0.103-0.103,0.2-0.2,0.2c-0.101,0-0.101-0.1-0.101-0.2c0-0.1,0.101-0.2,0.198-0.2
			C72.4,50.4,72.4,50.5,72.4,50.6z"/>
		<path fill="#020202" d="M71.7,50.6c0,0.103-0.101,0.2-0.2,0.2s-0.1-0.1-0.1-0.2c0-0.1,0.1-0.2,0.199-0.2
			C71.7,50.4,71.7,50.5,71.7,50.6z"/>
		<path fill="#020202" d="M71.7,49.9c0,0.1-0.101,0.2-0.2,0.2s-0.1-0.1-0.1-0.2s0.1-0.2,0.199-0.2C71.7,49.7,71.8,49.8,71.7,49.9z"
			/>
	</g>
	
		<animateTransform  type="translate" fill="remove" additive="replace" attributeName="transform" calcMode="linear" begin="0s" accumulate="none" attributeType="XML" restart="always" values="0,0;0.1,0.1;0,0" repeatCount="indefinite" dur="1">
		</animateTransform>
</g>
<image display="none" overflow="visible" enable-background="new    " width="590" height="412" xlink:href="../../../../../References/bus02_a-590.jpg"  transform="matrix(0.2483 0 0 0.2483 3.5928 2.0332)">
</image>
<g id="Body">
	<g>
		<g>
			<g>
				<g id="Bus_Body">
					<g>
						<g>
							<path fill="#0D0D0D" d="M16.2,56l-0.4,0.1c0,0-0.2,0.103-0.2,0.301V56.6l0.3,0.103v0.1v2.5l-0.1,0.101c0,0,0,0.5,0.4,0.3
								l0.2-0.101l0.1,0.101l-0.1,0.1h-0.3c0,0-0.6,0.101-0.6-0.399L15.1,59.6L15,59.5l-0.1-0.1v-2.7c0,0,0-0.3,0.2-0.2h0.3
								c0,0-0.1-0.4,0.1-0.5c0,0,0.2-0.1,0.6-0.2C16.2,55.9,16.3,55.9,16.2,56z"/>
							<path fill="#D3D3D3" d="M81.9,43.6l0.3-13.2l-0.4-0.5l-11.1-8L14.9,54.1v2.4c0,0,0.1,0.6,1.1,0.7c0,0-0.9,3.2-0.6,6.6
								L15,64.1v1.7l0.5,0.601L15,66.8v1.8c0,0,0.4,0.7,1,1l11.7,6.7c0,0,0.9,0.4,2.4-0.3l6.9-4.1V69.1c0,0,0.8-2.1,1.6-3l2.9-1.6
								c0,0,1.2-0.1,1.7,1.1v2.7L69,53.5v-2.8c0,0,0.6-2.2,1.9-3.1l2.397-1.4c0,0,1.103-0.6,1.802,0.7V50l4.301-2.4L81.9,43.6z"/>
							<path fill="#515251" d="M71.1,23.2v-0.7c0,0-0.6-0.5-1.199,0v0.7c0,0,0,0.4,0.602,0.5C70.5,23.6,71,23.6,71.1,23.2z"/>
							<g display="none">
								<path display="inline" fill="#B0AFB0" d="M87.5,26v-0.3l-3.3-2c0,0-0.4-0.2-0.7,0L79,26.6v0.2l3.7,2.1h0.2L87.5,26z"/>
								<path display="inline" fill="#848383" d="M87,25.8v-0.2l-2.9-1.7c0,0-0.3-0.2-0.6,0l-3.9,2.4v0.2l3.2,1.8H82.9L87,25.8z"/>
								<path display="inline" fill="#B0AFB0" d="M86.8,25.6v-0.2l-2.7-1.6c0,0-0.3-0.2-0.6,0L79.8,26v0.2l3,1.7H82.9L86.8,25.6z"/>
							</g>
							<g>
								<path fill="#B0AFB0" d="M72.1,30.6v-0.3l-3.3-2c0,0-0.399-0.2-0.7,0l-4.5,2.8v0.2l3.7,2.1h0.2L72.1,30.6z"/>
								<path fill="#848383" d="M71.6,30.4v-0.2L68.7,28.5c0,0-0.3-0.2-0.601,0L64.2,30.9v0.2l3.2,1.8h0.1L71.6,30.4z"/>
								<path fill="#B0AFB0" d="M71.4,30.2V30l-2.7-1.6c0,0-0.3-0.2-0.601,0L64.4,30.7v0.2l3,1.7h0.1L71.4,30.2z"/>
							</g>
							<g>
								<path fill="#B0AFB0" d="M57.9,38.8v-0.3l-3.301-2c0,0-0.399-0.2-0.699,0l-4.5,2.8v0.2l3.7,2.1h0.2L57.9,38.8z"/>
								<path fill="#848383" d="M57.3,38.6v-0.2L54.4,36.7c0,0-0.301-0.2-0.603,0l-3.9,2.4v0.2l3.202,1.8H53.2L57.3,38.6z"/>
								<path fill="#B0AFB0" d="M57.1,38.4v-0.2L54.4,36.6c0,0-0.301-0.2-0.603,0l-3.7,2.3V39l3,1.7H53.2L57.1,38.4z"/>
							</g>
							<g>
								<path fill="#B0AFB0" d="M41.9,48.2v-0.3l-3.3-2c0,0-0.4-0.2-0.7,0l-4.5,2.8v0.2l3.7,2.1h0.2L41.9,48.2z"/>
								<path fill="#848383" d="M41.3,48v-0.2L38.4,46c0,0-0.3-0.2-0.6,0l-3.9,2.4v0.2l3.2,1.8h0.1L41.3,48z"/>
								<path fill="#B0AFB0" d="M41.1,47.8v-0.2L38.4,46c0,0-0.3-0.2-0.6,0l-3.7,2.3v0.2l3,1.7h0.1L41.1,47.8z"/>
							</g>
							<ellipse fill="#727373" cx="70.5" cy="22.6" rx="0.4" ry="0.2"/>
							<path fill="#353535" d="M24.6,55.6c0,0-1.1,0.9-2.4,1l-0.3-0.1c0,0,1.2-1.2,1.8-1.2C23.7,55.3,24.6,55.2,24.6,55.6z"/>
							<polygon display="none" fill="#282828" points="83.9,44.7 83.9,31.8 77,35.8 77,48.7 							"/>
							<polygon fill="#282828" points="59.9,58.5 59.9,45.6 52.9,49.7 52.9,62.5 							"/>
							<polygon fill="#282828" points="36.8,71.7 36.8,59 29.8,62.9 29.8,75.6 							"/>
							<path fill="#5E5F5F" d="M76.9,35.2c0,0,0.397-1.6-0.5-1L70,37.9v1.4L76.9,35.2z"/>
							<path fill="#5E5F5F" d="M44.8,53.8c0,0,0.4-1.6-0.5-1l-6.4,3.7v1.4L44.8,53.8z"/>
							<polygon fill="#151515" points="76.4,35.4 76.4,34.1 69.9,37.9 69.9,39.3 							"/>
							<polygon fill="#151515" points="44.1,54.1 44.1,52.9 37.9,56.4 37.9,57.6 							"/>
							<polyline fill="#020202" points="77.5,35.1 77.4,34.8 81.7,32.3 81.6,32.7 							"/>
							<polygon fill="#020202" points="60.2,44.9 53,49.2 52.8,49 60,44.8 							"/>
							<polygon fill="#020202" points="36.7,58.7 29.5,63 29.3,62.7 36.5,58.5 							"/>
							<path fill="#787878" d="M15.9,56.2c0,0-0.4-1.4,0.5-0.9l10.7,6.2v1.2L15.9,56.2z"/>
							<polygon fill="#020202" points="27.1,61.6 27.1,62.8 16.4,56.5 16.4,55.3 							"/>
							<polygon fill="#F6851F" points="27.8,62.3 27.5,62.1 27.3,62.3 27.3,63 27.6,63.2 27.8,63.2 							"/>
							<polygon fill="#F6851F" points="15.5,55.4 15.5,56.2 15.3,56.2 15.1,55.8 15.1,55.4 15.3,55.3 							"/>
							<polygon fill="#434343" points="79.7,34.8 77.8,36 77.8,41.5 79.7,40.4 							"/>
							<path stroke="#000000" stroke-width="0.1" stroke-miterlimit="10" d="M81.6,30.1L27.8,61.3L81.6,30.1z"/>
							<path stroke="#000000" stroke-width="0.1" stroke-miterlimit="10" d="M81.6,33.2L28.2,63.9L81.6,33.2z"/>
							<path d="M28.2,64.3c0,0,0.4-2.8-0.4-3C27.8,61.3,28.5,61.2,28.2,64.3z"/>
							<g>
								<polygon fill="#D1D2D1" points="32.8,62 32.8,73.3 30,75 30,63.4 								"/>
								<polygon fill="#D1D2D1" points="36.2,60 36.2,71.2 33.4,72.8 33.3,61.6 								"/>
							</g>
							<g>
								<polygon fill="#D1D2D1" points="56.1,48.4 56.1,59.6 53.3,61.3 53.2,50 								"/>
								<polygon fill="#D1D2D1" points="59.5,46.6 59.5,57.8 56.7,59.4 56.6,48.2 								"/>
							</g>
							<g id="Glass_Doors">
								<polygon fill="#191919" points="59.3,47.2 59.3,55.8 56.8,57.2 56.8,48.5 								"/>
								<polygon fill="#191919" points="55.9,49.1 55.9,57.5 53.4,58.9 53.4,50.4 								"/>
								<polygon fill="#191919" points="35.9,60.6 35.9,69.2 33.4,70.6 33.4,61.9 								"/>
								<polygon fill="#191919" points="32.7,62.5 32.7,70.9 30.2,72.3 30.2,63.7 								"/>
								<polygon fill="#6D7D85" points="59.1,47.5 59.1,55.6 56.9,56.8 56.9,48.6 								"/>
								<polygon fill="#6D7D85" points="55.8,49.4 55.8,57.4 53.6,58.6 53.6,50.5 								"/>
								<polygon fill="#6D7D85" points="35.7,61 35.7,69 33.7,70.2 33.7,62.1 								"/>
								<polygon fill="#6D7D85" points="32.4,62.9 32.4,70.7 30.4,71.8 30.4,63.9 								"/>
								<path stroke="#000000" stroke-width="0.1" stroke-miterlimit="10" d="M27.7,61.1l-12.5-7L27.7,61.1z"/>
								<polygon fill="#282828" points="26.7,74.3 26.7,75.7 15.6,69.3 15.6,67.9 								"/>
							</g>
							<path fill="#0D0D0D" d="M29.9,63.9l0.4,0.1c0,0,0.2,0.1,0.2,0.3v0.2l-0.3,0.1V64.7v2.5l0.1,0.1c0,0,0,0.5-0.4,0.3l-0.2-0.1
								l-0.1,0.1l0.1,0.103H30c0,0,0.6,0.1,0.6-0.4l0.4,0.2l0.1-0.102l0.1-0.101v-2.7c0,0,0-0.3-0.2-0.199h-0.3
								c0,0,0.1-0.398-0.1-0.5c0,0-0.2-0.101-0.6-0.198C29.9,63.7,29.8,63.8,29.9,63.9z"/>
							<path fill="#1E1E1E" d="M29.4,63.2l0.2,7.6c0,0-1.6,1.4-3.4,0L15.5,65c0,0-0.3-0.4-0.1-0.8c0,0,0.2-5.5,1-6.601l11.7,6.5
								L29.4,63.2z"/>
							<path fill="#6D7D85" d="M29.2,63.6l0.2,7c0,0-1.4,1.4-3.3,0L15.6,64.7c0,0-0.4-0.5-0.2-0.8c0,0,0-5.5,0.8-6.5l11.9,6.8
								L29.2,63.6z"/>
							<path fill="none" stroke="#000000" stroke-width="0.1" stroke-miterlimit="10" d="M29.6,72.1c0,0-1.3,1.301-3.3,0.301
								l-11-6.398"/>
							<path fill="none" stroke="#000000" stroke-width="0.1" stroke-miterlimit="10" d="M29.3,73.9c0,0-1.3,1.1-2.8,0.3L15,67.5"/>
							<path fill="#B44326" d="M28.4,72.9V73.8c0,0-0.9,0.5-1.6-0.1v-0.8H27l0.3,0.397h0.2l0.1-0.3C27.7,73,28.1,73.1,28.4,72.9z"/>
							<path fill="#F26322" d="M28.2,73.1V73.9c0,0-0.7,0.397-1.3-0.103V73.1h0.2l0.3,0.301h0.2l0.1-0.199
								C27.7,73.2,28,73.3,28.2,73.1z"/>
							<polygon fill="#F4F4F4" points="22.2,71.8 22.2,72.8 19.3,71.2 19.3,70.2 							"/>
							<polygon fill="#848484" points="52.7,57.9 43.5,63.2 43.5,66.4 52.7,61.1 							"/>
							<polygon fill="#E5E5E5" points="52.5,58.1 43.6,63.3 43.7,66.2 52.5,61 							"/>
							<polygon fill="#848484" points="68.5,49.2 60.4,54 60.4,56.8 68.5,52.1 							"/>
							<polygon fill="#E5E5E5" points="68.4,49.5 60.5,54.1 60.5,56.6 68.4,52 							"/>
							<polygon fill="#F26322" points="45.3,65.7 45.3,66.3 44.3,66.9 44.3,66.3 							"/>
							<polygon fill="#F26322" points="52.4,61.6 52.4,62.2 51.5,62.7 51.5,62.2 							"/>
							<polygon fill="#F26322" points="61.7,56.5 61.7,57.1 60.8,57.6 60.8,57 							"/>
							<polygon fill="#F26322" points="68.8,52.3 68.8,52.9 67.8,53.5 67.8,52.9 							"/>
							<polygon fill="#F26322" points="80.2,44.2 80.2,44.8 79.3,45.3 79.3,44.7 							"/>
						</g>
						<g>
							<polygon fill="#919191" points="59.2,56.6 59.2,57.3 58.6,57.6 58.6,56.9 							"/>
							<polygon fill="#919191" points="54.1,59.6 54.1,60.3 53.7,60.6 53.7,59.9 							"/>
							<polygon fill="#919191" points="35.7,70.3 35.7,71 35.2,71.3 35.2,70.5 							"/>
							<polygon fill="#919191" points="30.7,73.3 30.7,73.9 30.3,74.2 30.3,73.5 							"/>
						</g>
					</g>
					<polygon fill="#282828" points="52.7,50.2 37.1,59.1 37.1,66.1 52.7,57.1 					"/>
					<path fill="#282828" d="M76.8,36.1v5.2l-4.3,2.8c0,0-4,2.8-8.1,6.3l-4.2,2.5V45.8L76.8,36.1z"/>
					<polygon fill="#6D7D85" points="52.4,50.7 52.4,57.1 45.4,61.1 45.4,54.7 					"/>
					<polygon fill="#6D7D85" points="44.9,55.1 44.9,56 37.6,60.2 37.6,59.3 					"/>
					<polygon fill="#6D7D85" points="44.9,56.4 44.8,61.4 37.6,65.6 37.6,60.7 					"/>
					<polygon fill="#6D7D85" points="76.6,36.6 76.6,41.1 72.4,43.8 72.4,39 					"/>
					<polygon fill="#6D7D85" points="71.6,40.8 71.6,44.1 64.8,49.8 64.8,44.8 					"/>
					<polygon fill="#6D7D85" points="71.8,39.3 64.8,43.3 64.8,44.5 71.8,40.2 					"/>
					<polygon fill="#6D7D85" points="64.1,43.8 64.1,50.1 60.5,52.3 60.5,45.9 					"/>
				</g>
				<polygon fill="#59595A" points="16.9,67.1 16.9,67.9 16.1,67.5 16.1,66.6 				"/>
				<polygon fill="#7DBDD1" points="17.1,67.2 17.1,68.1 16.3,67.7 16.3,66.7 				"/>
				<polygon fill="#59595A" points="26.6,72.6 26.6,73.6 25.4,72.9 25.4,71.9 				"/>
				<polygon fill="#7DBDD1" points="26.5,72.5 26.5,73.5 25.3,72.9 25.3,71.9 				"/>
				<polygon fill="#ABABAB" points="25.2,71.9 25.2,73.3 17.1,68.6 17.1,67.2 				"/>
			</g>
		</g>
		<path opacity="0.2" fill="#FFFFFF" enable-background="new    " d="M28.6,64.5c0,0-1.4,4.1-1,6h-0.5l-11.5-6.3
			C15.6,64.3,26,67.4,28.6,64.5z"/>
		<polygon opacity="0.3" fill="#FFFFFF" enable-background="new    " points="30.5,68.7 32.4,64.4 32.4,66.4 30.4,70.6 		"/>
		<polygon opacity="0.3" fill="#FFFFFF" enable-background="new    " points="33.7,65.9 35.7,62.9 35.7,64.4 33.7,67.2 		"/>
		<polygon opacity="0.3" fill="#FFFFFF" enable-background="new    " points="39.2,59.8 38.4,65.2 39.3,64.6 40.2,59.1 		"/>
		<polygon opacity="0.3" fill="#FFFFFF" enable-background="new    " points="40.8,58.9 39.9,64.3 40.2,64.1 41,58.7 		"/>
		<polygon opacity="0.3" fill="#FFFFFF" enable-background="new    " points="46.9,53.9 46.4,60.6 47.2,60.1 47.5,53.5 		"/>
		<polygon opacity="0.3" fill="#FFFFFF" enable-background="new    " points="49.8,52.2 49.2,59 49.8,58.6 50.6,51.8 		"/>
		<polygon opacity="0.3" fill="#FFFFFF" enable-background="new    " points="49.3,52.5 48.7,59.2 48.4,59.4 		"/>
		<polygon opacity="0.3" fill="#FFFFFF" enable-background="new    " points="55.8,50.1 53.6,54.9 53.6,56 55.8,51.4 		"/>
		<polygon opacity="0.3" fill="#FFFFFF" enable-background="new    " points="59.1,49.1 56.9,52.5 56.9,54 59.1,50.7 		"/>
	</g>
	<polygon opacity="0.3" fill="#FFFFFF" enable-background="new    " points="64.1,44.7 60.5,49.2 60.5,51 64.1,47 	"/>
	<polygon opacity="0.3" fill="#FFFFFF" enable-background="new    " points="67,43.5 65.8,49 67.4,47.6 68.2,42.8 	"/>
	<polygon opacity="0.3" fill="#FFFFFF" enable-background="new    " points="67.8,41.6 67.4,42.9 68.3,42.4 68.5,41.2 	"/>
	<polygon opacity="0.3" fill="#FFFFFF" enable-background="new    " points="74.5,37.8 73.4,43.1 74.4,42.5 75.2,37.4 	"/>
	
		<animateTransform  type="translate" fill="remove" additive="replace" attributeName="transform" calcMode="linear" begin="0s" accumulate="none" attributeType="XML" restart="always" values="0,0;-0.1,-0.1;0,0" repeatCount="indefinite" dur="1">
		</animateTransform>
</g>
<g id="Hour_Glass_1_" display="none">
	<g id="Hour_Glass" display="inline">
		<polygon fill="#FF6700" points="-4.5,22.278 -28.167,22.278 -28.167,26.167 -19.717,38.961 -28.167,51.754 -28.167,55.643 
			-4.5,55.643 -4.5,51.609 -12.472,38.961 -4.5,26.313 		"/>
		<path fill="#FFFFFF" d="M-17.587,38.167L-26.066,26.5c0,0-0.25-0.688,0.875-0.688h17.875c0,0,1.25,0.25,0.5,1.125l-7.688,11.229"
			/>
		<path fill="#FFFFFF" d="M-17.587,39.523l-8.479,11.667c0,0-0.25,0.688,0.875,0.688h17.875c0,0,1.25-0.25,0.5-1.125l-7.688-11.229"
			/>
		<path fill="#3F3F3F" d="M-24.063,29.3l6.417,8.867h1.166h1.976l4.732-6.912C-9.772,31.255-17.729,34.683-24.063,29.3z"/>
		<path fill="#3F3F3F" d="M-7.316,51.877c0,0-6.35-7.168-8.6-6.002c0,0-6.941,2.252-9.275,6.002H-7.316z"/>
	</g>
	<ellipse display="inline" fill="#3F3F3F" cx="-16.427" cy="40.906" rx="0.49" ry="0.531"/>
	<ellipse display="inline" fill="#3F3F3F" cx="-15" cy="41.969" rx="0.49" ry="0.531"/>
	<ellipse display="inline" fill="#3F3F3F" cx="-15.938" cy="43.269" rx="0.49" ry="0.531"/>
	<ellipse display="inline" fill="#3F3F3F" cx="-16.427" cy="45.169" rx="0.49" ry="0.531"/>
	<ellipse display="inline" fill="#3F3F3F" cx="-15" cy="45.169" rx="0.49" ry="0.531"/>
	<ellipse display="inline" fill="#3F3F3F" cx="-17.407" cy="46.563" rx="0.49" ry="0.531"/>
	<ellipse display="inline" fill="#3F3F3F" cx="-16.917" cy="42.5" rx="0.49" ry="0.531"/>
	<ellipse display="inline" fill="#3F3F3F" cx="-15.448" cy="40.375" rx="0.49" ry="0.531"/>
</g>
</svg>
