<?xml version="1.0" encoding="utf-8"?>
<!-- Generator: Adobe Illustrator 16.0.0, SVG Export Plug-In . SVG Version: 6.00 Build 0)  -->
<!DOCTYPE svg PUBLIC "-//W3C//DTD SVG 1.1//EN" "http://www.w3.org/Graphics/SVG/1.1/DTD/svg11.dtd">
<svg version="1.1" id="Layer_1" xmlns="http://www.w3.org/2000/svg" xmlns:xlink="http://www.w3.org/1999/xlink" x="0px" y="0px"
	 width="53.564px" height="43.729px" viewBox="25.25 29.925 53.564 43.729" enable-background="new 25.25 29.925 53.564 43.729"
	 xml:space="preserve">
<g id="Tire_2_1_">
	<path d="M47.479,73.641c0,0-2.824-0.445-4.464-2.906c0,0-1.06-4.231,2.907-5.627c0,0,3.252,0.158,4.842,2.037
		C52.443,69.426,47.479,73.641,47.479,73.641z"/>
	<path fill="#333333" d="M50.954,71.184c-0.797,1.916-2.646,2.832-3.997,2.34c-1.352-0.491-1.814-2.5-0.845-4.379
		c0.795-1.914,2.645-2.832,3.997-2.338C51.458,67.301,51.882,69.488,50.954,71.184z"/>
	<path fill="#999999" d="M49.865,67.895c-1.003-0.416-2.25,0.256-2.924,1.629c-0.673,1.369-0.262,2.797,0.741,3.209
		c1.004,0.416,2.251-0.254,2.921-1.627C51.104,69.695,50.868,68.309,49.865,67.895z M49.91,70.949
		c-0.336,0.686-0.939,0.933-1.288,0.854c-0.521-0.117-0.533-0.883-0.237-1.387c0.296-0.504,0.94-0.934,1.288-0.854
		C50.021,69.641,50.247,70.266,49.91,70.949z"/>
	<path fill="#FFFFFF" d="M48.136,68.268c0,0,0.48,0.299,0.708,0.922L48.63,69.33c0,0-0.361-0.84-0.708-0.918L48.136,68.268z"/>
	
		<animateTransform  type="translate" fill="remove" additive="replace" attributeName="transform" calcMode="linear" begin="0s" accumulate="none" attributeType="XML" restart="always" values="0,0;0.1,0.1;0,0" repeatCount="indefinite" dur="0.1">
		</animateTransform>
</g>
<g id="Tire_2_2_">
	<path d="M65.216,65.252c0,0-2.823-0.443-4.464-2.904c0,0-1.061-4.232,2.907-5.629c0,0,3.253,0.159,4.841,2.038
		C70.182,61.038,65.216,65.252,65.216,65.252z"/>
	<path fill="#333333" d="M68.691,62.796c-0.797,1.916-2.646,2.831-3.998,2.339c-1.353-0.492-1.813-2.5-0.844-4.378
		c0.795-1.914,2.645-2.832,3.996-2.338C69.195,58.913,69.619,61.102,68.691,62.796z"/>
	<path fill="#999999" d="M67.602,59.506c-1.002-0.416-2.25,0.256-2.924,1.629c-0.673,1.37-0.262,2.797,0.742,3.211
		c1.004,0.415,2.251-0.256,2.922-1.628C68.842,61.309,68.605,59.921,67.602,59.506z M67.646,62.563
		c-0.336,0.687-0.939,0.934-1.287,0.854c-0.521-0.117-0.533-0.883-0.237-1.388c0.296-0.504,0.94-0.934,1.288-0.854
		S67.984,61.877,67.646,62.563z"/>
	<path fill="#FFFFFF" d="M65.873,59.879c0,0,0.48,0.301,0.708,0.922l-0.214,0.141c0,0-0.361-0.84-0.709-0.918L65.873,59.879z"/>
	
		<animateTransform  type="translate" fill="remove" additive="replace" attributeName="transform" calcMode="linear" begin="0s" accumulate="none" attributeType="XML" restart="always" values="0,0;0.1,0.1;0,0" repeatCount="indefinite" dur="0.1">
		</animateTransform>
</g>
<g id="Tire_2_3_">
	<path d="M73.268,61.635c0,0-2.822-0.443-4.463-2.904c0,0-1.062-4.232,2.906-5.629c0,0,3.253,0.159,4.841,2.039
		C78.232,57.421,73.268,61.635,73.268,61.635z"/>
	<path fill="#333333" d="M76.743,59.18c-0.798,1.916-2.646,2.83-3.997,2.338s-1.814-2.5-0.846-4.377
		c0.795-1.914,2.646-2.832,3.996-2.339C77.247,55.296,77.671,57.482,76.743,59.18z"/>
	<path fill="#999999" d="M75.652,55.889c-1.002-0.416-2.25,0.256-2.924,1.629c-0.672,1.371-0.263,2.797,0.742,3.211
		c1.004,0.416,2.252-0.256,2.922-1.627C76.895,57.689,76.657,56.305,75.652,55.889z M75.698,58.943
		c-0.337,0.687-0.939,0.934-1.287,0.854c-0.521-0.115-0.533-0.883-0.237-1.387c0.297-0.504,0.939-0.934,1.288-0.854
		C75.811,57.636,76.036,58.26,75.698,58.943z"/>
	<path fill="#FFFFFF" d="M73.925,56.262c0,0,0.479,0.301,0.708,0.922l-0.214,0.142c0,0-0.36-0.841-0.709-0.918L73.925,56.262z"/>
	
		<animateTransform  type="translate" fill="remove" additive="replace" attributeName="transform" calcMode="linear" begin="0s" accumulate="none" attributeType="XML" restart="always" values="0,0;0.1,0.1;0,0" repeatCount="indefinite" dur="0.1">
		</animateTransform>
</g>
<path fill="#515151" d="M78.25,33.508l0.009,0.599c0,0-1.04,1.174-0.821,3.237l-0.229,3.587l-3.521,0.382
	c0,0-5.344-7.188-5.778-9.281l0.344-0.906l1.597-0.813l1.489-0.188l1.746,0.188l2.562,1.029l2.606,2.033"/>
<path fill="#5B5B5B" d="M68.406,33.095l-0.5-1.063v-1c0,0,1.844-1.25,3.219-1.094c0,0,1.406-0.094,2.563,0.438
	c0,0,4.347,1.938,4.563,3c0,0,0.313,0.719-2.719,1.719L75,34.875c0,0,2.938-1.029,2.438-1.78c0,0-4.278-3.438-6.903-2.751
	L68.5,31.219l-0.125,0.906l0.584,0.792L68.406,33.095z"/>
<path fill="#666666" d="M78.813,43.094c0,0,0.156,1.854-2.219,0.74l-4-3.271l0.364-0.64c0,0,0.948,1.327,2.229,0.577l1.271-0.577
	l0.748,1.008L78.813,43.094z"/>
<g>
	<polygon fill="#6B6B6B" points="77,50.875 77,52.333 55.605,62.375 54.542,59.354 75.75,50 	"/>
	<path fill="#515151" d="M68.658,32.885l-4.594,2l-0.219,5.927l0.771-0.333l-0.177,6.281l0.177,0.219h0.386v-0.667l2.25-1.021v0.313
		l0.344,0.094l0.188-0.125l0.257-6.587l0.618-0.209l0.25-5.734L68.658,32.885z M67.283,45.021l-2.313,0.989v-2.437l2.528-1.095
		L67.283,45.021z M67.502,42.26l-2.531,1.156l0.156-2.875l2.531-1.087L67.502,42.26z M68.377,38.51l-4.031,1.844l0.271-5.188
		l3.947-1.781L68.377,38.51z"/>
	<g>
		<g>
			<polygon fill="#CECECE" points="50.157,62.086 78.25,49.333 68.334,43.833 39.412,55.539 			"/>
			<path fill="#B7B7B7" d="M55.718,42.555v-0.78c0,0,2.44-3.867,5.716-5.194l8.438-2.823c0,0,3.657,1.333,4.222,4.867l-5.378,6.145
				c0,0-2.627,2.652-7.282,3.273c0,0-1.438-0.08-2.176-0.675C59.258,47.368,55.85,44.293,55.718,42.555z"/>
			<path fill="#A0A0A0" d="M73.71,37.209c-3.125-4.166-5.583-2.984-5.583-2.984c0-0.484,0.667-1.099,0.667-1.099
				c3.125-0.375,5.646,2.712,5.646,2.712c1.854,2.246,1.854,6.205,1.854,6.205l-3.126,7l-3.374,1.875l-0.917-0.708v-1.083
				l-2.5-1.417l1.281-1.406l2.469,1.406l4.521-5.737C74.646,41.973,74.96,38.876,73.71,37.209z"/>
			<path fill="#EAEAEA" d="M73.875,37c-3.125-4.166-5.583-2.984-5.583-2.984c0-0.484,0.667-1.099,0.667-1.099
				c3.125-0.375,5.645,2.712,5.645,2.712c1.855,2.246,1.855,6.205,1.855,6.205l-3.126,7l-3.374,1.875L69.042,50v-1.083l-2.5-1.417
				l1.281-1.406l2.469,1.406l4.521-5.737C74.813,41.763,75.125,38.667,73.875,37z"/>
			<path fill="#A8A8A8" d="M52.13,44.864v-0.922c0,0,2.888-4.576,6.761-6.146l9.478-3.689c0,0,4.651,1.372,5.319,5.553l-6.179,7.825
				c0,0-3.106,3.137-8.618,3.873c0,0-1.703-0.094-2.572-0.799C56.318,50.559,52.284,46.922,52.13,44.864z"/>
			<path fill="#898989" d="M46.067,47.439v-1.15c0,0-0.109-6.164,11.027-9.789l9.863-2.044c0,0,5.166,1.275,6,6.492l-7.708,9.76
				c0,0-3.875,3.914-10.75,4.831c0,0-2.125-0.119-3.208-0.997C51.292,54.542,46.26,50.006,46.067,47.439z"/>
			<path fill="#EAEAEA" d="M40.823,47.28c0,0,0.635-1.531,2.343-1.114l9.375,4.917c0,0,0.713,1.668,0.564,2.959l-0.564,0.5
				l-1.042-0.25l-0.5,0.25l-1,0.208l-9.177-6.792V47.28H40.823z"/>
			<polygon fill="#303030" points="42.016,46.813 49.417,50.875 51,50.078 43.542,46.094 			"/>
		</g>
		<polygon fill="#A0A0A0" points="49.5,60.209 55.432,57.375 49.851,54.542 		"/>
	</g>
	<path fill="#7A7A7A" d="M70,59.159L70.813,59l0.688,0.08c0,0,0.25-4.049,3.22-4.768c0,0,2.53-1.031,2.875,2.101l0.655-0.11
		c0,0,0.781-4.053-3.469-4.303c0,0-3.063-0.313-5.095,2.625l-2.748,1.184L70,59.159z"/>
	<path fill="#6B6B6B" d="M60.251,63.746l1,0.479h0.5l0.479-0.336c0,0,1.188-4.477,4.396-5.685c0,0,2.166-0.834,2.646,1.083
		l0.563-0.229V58.87c0,0-0.271-2.354-2.896-3.063c0,0-3.834-0.896-6.688,3.916C60.251,59.725,59.521,61.477,60.251,63.746z"/>
	<polygon fill="#727272" points="50,63.271 78.25,50.422 78.25,49.333 49.5,62.375 	"/>
	<path fill="#636363" d="M50.63,62.986c0,0,1.479,1.768,4.162,0.563l4.916-2.173c0,0,0.834-0.634,0.834-0.838v3.011
		c0,0-2.958,1.869-6.625,3.077c0,0-2.292,0.542-4.417-1.75l-0.125-2.088L50.63,62.986z"/>
	<path fill="#6B6B6B" d="M42.344,71.563l1.198,0.5c0,0,0.474,0.313,1.091,0c0,0,0.805-4.594,4.867-5.938
		c0,0,2.469-0.719,2.125,2.688l0.594-0.146c0,0,0.631-4.917-2.106-5.104C50.112,63.563,43.719,62.938,42.344,71.563z"/>
	<path fill="#A0A0A0" d="M50.63,62.986c0,0,1.663,1.879,4.162,0.563l4.916-2.173c0,0,2.354-1.005-0.666-2.221L50.63,62.986z"/>
	<polygon fill="#BCBCBC" points="52.74,62.025 54.792,63.553 54.792,66.324 55.605,66.014 55.605,63.193 53.391,61.73 	"/>
	<polygon fill="#BCBCBC" points="58.482,61.921 56.415,60.355 57.1,60.043 59.234,61.589 59.234,64.334 58.378,64.754 	"/>
	<path fill="#515151" d="M77,35.906l-4.594,2l-0.219,5.927l0.771-0.333l-0.177,6.281L72.958,50h0.386v-0.667l2.25-1.021v0.313
		l0.344,0.094l0.188-0.125l0.257-6.587L77,41.797l0.25-5.734L77,35.906z M75.625,48.042l-2.313,0.989v-2.438l2.528-1.095
		L75.625,48.042z M75.844,45.281l-2.531,1.156l0.156-2.875L76,42.475L75.844,45.281z M76.719,41.531l-4.031,1.844l0.271-5.188
		l3.948-1.781L76.719,41.531z"/>
	
		<animateTransform  type="translate" fill="remove" additive="replace" attributeName="transform" calcMode="linear" begin="0s" accumulate="none" attributeType="XML" restart="always" values="0,0;-0.1,0.1;0,0" repeatCount="indefinite" dur="1">
		</animateTransform>
</g>
<image display="none" overflow="visible" enable-background="new    " width="202" height="172" xlink:href="8A936B27.jpg"  transform="matrix(0.202 0.0116 -0.0116 0.202 30.5933 32.6362)">
</image>
<animateTransform  type="translate" fill="remove" additive="replace" attributeName="transform" calcMode="linear" begin="0s" accumulate="none" attributeType="XML" restart="always" values="0,0;0.1,0.1;0,0" repeatCount="indefinite" dur="1">
	</animateTransform>
<animateTransform  type="translate" fill="remove" additive="replace" attributeName="transform" calcMode="linear" begin="0s" accumulate="none" attributeType="XML" restart="always" values="0,0;0.1,0.1;0,0" repeatCount="indefinite" dur="1">
	</animateTransform>
<image display="none" overflow="visible" enable-background="new    " width="349" height="269" xlink:href="8A936B39.jpg"  transform="matrix(0.2071 0.0069 -0.0059 0.1771 17.7715 26.2832)">
</image>
<g id="Body">
	<path fill="#C4C4C4" d="M36.51,45.415l-7.917,3.583l-1.25,1.667c0,0-1.469,1.022-1.167,2.25l0.833,0.667l-0.979,3
		c0,0-0.604,2.249-0.521,3.416l-0.008,6.167v1.25l10.168,5.425l2.838,0.451c0,0,3.501-1.042,5.001-2.209
		c0,0,0.583-6.167,6.583-6.917l0.333-10.917l-0.333-1l-12.129-6.5L36.51,45.415z"/>
	<path fill="#FFFFFF" d="M25.409,60.209l-0.159,2.166l1.292,1.959c0,0,1,0.791,1.458,1.416l5.167,2.917h3.875L40,66.5l-1.083-0.625
		l-3.833,0.709l-2.125-2.146l-4.083-2.063L26.5,62L25.409,60.209z"/>
	<polygon fill="#4C4C4C" points="26.917,62.375 26.917,64.646 28,65.75 33.167,68.667 34.583,68.667 34.583,66.667 32.625,64.709 
		28.792,62.792 	"/>
	<path fill="#161616" d="M26.917,53.229l-0.822,3.75c0,0-0.084,1.328,0.327,2.912l8.828,4.547l4.156-1.578
		c0,0-0.115-1.851,0.594-2.017l1.234-3.094C41.234,57.75,30,56.063,26.917,53.229z"/>
	<path fill="#424656" d="M26.917,53.125l-0.822,3.75c0,0,0,1.334,0.411,2.917l8.744,4.542l4.083-1.584c0,0-0.167-1.834,0.542-2
		l1.25-3C41.125,57.75,30,55.958,26.917,53.125z"/>
	<polygon fill="#161616" points="41.391,61.459 42.349,57 49.458,53.75 49.891,53.917 49.641,57.875 41.391,62.484 	"/>
	<path fill="#4C4C4C" d="M27.749,50c0,0-2.64,2.125-1.457,3.084l0.875,0.791l9.125,4.834l1.579,0.375h1.837l1.417-1.834
		l-2.042-0.083l-0.625-0.083l-10.833-6C27.625,51.084,27.373,50.875,27.749,50z"/>
	<polygon fill="#424656" points="41.5,61.459 42.458,57 49.458,53.75 50,53.917 49.75,57.875 41.5,62.375 	"/>
	<polyline fill="#686868" points="43.542,62.042 43.542,62.792 45.958,61.417 45.958,60.542 43.542,61.917 	"/>
	<polygon fill="#AAAAAA" points="25.417,59.998 26.583,61.875 26.436,64.173 25.409,62.615 	"/>
	<polygon fill="#AAAAAA" points="35.083,66.584 35.083,68.667 36.958,68.667 36.958,66.236 	"/>
	<ellipse fill="#EDEDED" cx="36.117" cy="67.641" rx="0.742" ry="0.672"/>
	<polygon fill="#353535" points="26.938,62.521 34.547,66.781 34.583,67.188 26.917,62.792 	"/>
	<polygon fill="#353535" points="26.938,63.271 34.583,67.468 34.583,67.904 26.917,63.544 	"/>
	<polygon fill="#353535" points="26.906,64.18 34.583,68.313 34.583,68.667 26.917,64.547 	"/>
	<path fill="#EDEDED" d="M30.344,66.469c-0.514-0.137-0.744-0.682-0.608-1.191c0.136-0.514,0.606-0.666,1.12-0.528
		c0.514,0.137,0.82,0.663,0.684,1.174C31.403,66.434,30.857,66.604,30.344,66.469z"/>
	<path fill="#EDEDED" d="M25.568,61.503c0,0-0.238,1.164,0.492,1.289c0,0,0.432-0.086,0.193-0.763
		C26.253,62.029,26.015,61.066,25.568,61.503z"/>
	<polygon fill="#353535" points="25.411,64.063 27.292,65.938 26.325,65.938 25.409,65.234 	"/>
	<path fill="#353535" d="M34.104,69.625l0.729,0.729l2.125,0.75l0.913-0.334c0,0-1.934-1.188-3.871-1.146"/>
	<path fill="#707070" d="M25.409,65.938l0.862,0.896c0,0,1.708,0.188,2.313,0.354c0,0,3.854,1.979,4.563,2.438l1.625,1.688
		c0,0,1.708,0.834,2.938,0.543c0,0,1.479-0.459,1.667-0.625c0,0,3.005-1.81,4.693-2.287c0,0-0.519,1.535-0.558,2.14
		c0,0-2.935,2.201-5.639,2.209c0,0-1.746,0.112-4.892-1.722c0,0-6.883-3.404-7.571-4.154L25.409,65.938L25.409,65.938z"/>
	<polygon opacity="0.6" fill="#FFFFFF" enable-background="new    " points="38.719,68.667 38.563,71.104 39.313,70.844 
		39.531,68.313 	"/>
	<polygon opacity="0.6" fill="#FFFFFF" enable-background="new    " points="38.563,63.531 38.563,65.605 39.047,65.521 
		39.047,63.271 	"/>
	<polygon fill="#FFFFFF" points="28.125,68.136 32.125,70.096 32.125,71.096 28.125,69.034 	"/>
	<path fill="#C9C9C9" d="M39.229,71.479c0,0-0.105,1.388-0.183,1.543c0,0,0.349-0.022,0.484-0.063c0,0,0.344-1.624,0.219-1.854
		C39.75,71.104,39.354,71.458,39.229,71.479z"/>
	
		<animateTransform  type="translate" fill="remove" additive="replace" attributeName="transform" calcMode="linear" begin="0s" accumulate="none" attributeType="XML" restart="always" values="0,0;-0.1,0.1;0,0" repeatCount="indefinite" dur="1">
		</animateTransform>
</g>
<polygon fill="#777777" points="42.125,46.75 49.417,50.708 50.875,50 43.542,46.094 "/>
<path opacity="0.6" fill="#E5E5E5" enable-background="new    " d="M28.819,54.75c0,0-1.201,4.553-0.869,5.792l0.869,0.451
	c0,0-0.745-1.671,0.156-6.16L28.819,54.75z"/>
<polygon opacity="0.5" fill="#E5E5E5" enable-background="new    " points="44.75,55.936 43.933,61.048 44.75,60.542 45.333,55.665 
	"/>
</svg>
