<?xml version="1.0" encoding="utf-8"?>
<!-- Generator: Adobe Illustrator 16.0.0, SVG Export Plug-In . SVG Version: 6.00 Build 0)  -->
<!DOCTYPE svg PUBLIC "-//W3C//DTD SVG 1.1//EN" "http://www.w3.org/Graphics/SVG/1.1/DTD/svg11.dtd">
<svg version="1.1" id="Layer_1" xmlns="http://www.w3.org/2000/svg" xmlns:xlink="http://www.w3.org/1999/xlink" x="0px" y="0px"
	 width="15.604px" height="10.319px" viewBox="41.455 43.701 15.604 10.319" enable-background="new 41.455 43.701 15.604 10.319"
	 xml:space="preserve">
<g>
	<path fill="#5B5C5B" d="M46.13,49.953c-0.729-0.934-2.283-0.936-3.471-0.008c-1.188,0.928-1.56,2.438-0.832,3.37
		c0.729,0.938,2.284,0.938,3.471,0.012C46.487,52.395,46.858,50.887,46.13,49.953z M45.302,52.748
		c-0.758,0.754-1.784,0.951-2.29,0.443c-0.507-0.51-0.303-1.533,0.454-2.287c0.758-0.754,1.783-0.953,2.29-0.445
		C46.264,50.971,46.06,51.994,45.302,52.748z"/>
	<path fill="#5B5C5B" d="M55.762,47.17c-0.729-0.934-2.283-0.936-3.47-0.008c-1.188,0.928-1.562,2.436-0.832,3.369
		c0.729,0.932,2.284,0.936,3.472,0.008C56.119,49.611,56.491,48.104,55.762,47.17z M54.934,49.963
		c-0.758,0.756-1.783,0.953-2.289,0.445c-0.508-0.51-0.304-1.535,0.455-2.289c0.758-0.754,1.782-0.951,2.289-0.443
		C55.895,48.186,55.689,49.209,54.934,49.963z"/>
	<g>
		<path fill="#212120" d="M52.337,47.176l0.276,0.377l0.629,0.346c0,0,0.863,0.334,1.308,0.318l0.244,0.051l0.125,0.074
			c0,0,0.192,0.373,0,0.727c0,0-0.276,0.688-0.78,0.838c0,0-0.604,0.031-0.527-0.473c0,0-0.064-0.26-0.729-0.117
			c0,0-1.604,0.395-1.803,0.688l-0.294-0.174l0.168-1.15l0.317-0.537l0.604-0.729L52.337,47.176z"/>
		<path fill="#565146" d="M52.337,47.268l0.276,0.375l0.629,0.346c0,0,0.863,0.336,1.308,0.318l0.244,0.051l0.125,0.076
			c0,0,0.192,0.371,0,0.727c0,0-0.276,0.686-0.78,0.836c0,0-0.604,0.031-0.527-0.473c0,0-0.064-0.26-0.729-0.117
			c0,0-1.604,0.395-1.803,0.689l-0.294-0.176l0.168-1.15l0.317-0.537l0.604-0.729L52.337,47.268z"/>
		<path fill="#212120" d="M51.586,49.719c-0.011,0.063-0.068,0.102-0.13,0.094l0,0c-0.062-0.012-0.104-0.068-0.095-0.131l0.33-2.039
			c0.011-0.063,0.064-0.104,0.129-0.094l0,0c0.063,0.01,0.104,0.068,0.095,0.129L51.586,49.719z"/>
		<path fill="#212120" d="M52.498,49.451c0.027,0.055,0.008,0.123-0.047,0.152l0,0c-0.057,0.029-0.125,0.01-0.154-0.049
			l-0.963-1.826c-0.029-0.057-0.008-0.123,0.047-0.152l0,0c0.057-0.029,0.125-0.01,0.153,0.047L52.498,49.451z"/>
		<path fill="#2D2E2D" d="M42.188,50.225c0,0,0.653-0.947,1.61-1.172c0,0,1.32-0.174,2.276,0.221l-0.369,0.459l-1.324,2.354h-0.093
			h-0.391c0,0-0.15-0.188-0.075-0.364l0.278-1.07c0,0,0.063-0.299-0.328-0.228c0,0-0.729,0.103-1.107,0.063
			C42.666,50.486,42.063,50.385,42.188,50.225z"/>
		<path fill="#BCBCBC" d="M50.743,47.811l0.978,0.779l0.826-0.24c0,0-0.486-0.711-0.066-1.236c0,0,0.168-0.156,1.492-0.492
			c0,0,0.922-0.133,2.096-0.988c0,0,0.556-0.924,0.654-1.158c0,0,0.135-0.314,0.336-0.309l-0.27-0.414c0,0-2.551-0.271-2.967,0.424
			c0,0-0.119,0.584-1.797,1.457C52.025,45.633,50.03,46.787,50.743,47.811z"/>
		<path opacity="0.4" fill="#3A3A38" enable-background="new    " d="M52.366,46.264c0,0-1.587,1.23-1.165,1.584l0.643,0.705
			l-0.123,0.037l-1.078-0.865l1.34-1.527C51.98,46.197,52.135,46.055,52.366,46.264z"/>
		<path fill="#3A3A38" d="M51.749,45.762c0,0,0.304-0.25,0.918-0.535c0,0,0.793-0.393,1.077-0.908c0,0,0.025-0.084,0.15-0.236
			c0,0,0.162-0.16,0.402-0.139c0,0,0.654,0.023,0.705,0.363c0,0,0.059,1.166-1.168,1.688c0,0-0.646,0.295-0.854,0.305
			c0,0-0.481,0.051-0.985-0.158C51.996,46.139,51.539,45.896,51.749,45.762z"/>
		<path fill="#665D4C" d="M51.693,45.762c0,0,0.303-0.25,0.918-0.535c0,0,0.793-0.393,1.076-0.908c0,0,0.022-0.084,0.148-0.236
			c0,0,0.162-0.16,0.404-0.139c0,0,0.654,0.023,0.705,0.363c0,0,0.057,1.166-1.168,1.688c0,0-0.647,0.295-0.854,0.305
			c0,0-0.48,0.051-0.984-0.158C51.939,46.139,51.482,45.896,51.693,45.762z"/>
		<path fill="#191919" d="M46.503,50.574c0,0-0.005,1.297-0.428,1.734l0.281,0.063h0.147c0,0,4.601-1.312,5.808-1.896
			c0,0,0.604-0.385,0.653-0.746l-0.149-0.277l-0.232,0.018L46.503,50.574z"/>
		<path fill="#B3B3B3" d="M46.503,46.021c0,0,0.122-0.592,0.42-0.666l1.017-0.328c0,0,1.143-0.193,1.595-0.18
			c0.025,0,0.074-0.012,0.095-0.01c0.365,0.035,1.427-0.02,1.877,0.063c0.024,0.004,0.048,0.008,0.066,0.014
			c0.403,0.1,0.579,1.057,0.542,1.27l-0.051,0.117l-0.561,0.512l-0.751,0.943l-0.11,0.48l-0.951,0.393
			C49.693,48.629,46.503,46.361,46.503,46.021z"/>
		<path fill="#BCBCBC" d="M43.621,49.158c0,0,1.771,0.158,3.816,2.172l-0.208,0.104l-0.035,0.135l0.168,0.066l0.403-0.084
			l0.312-0.117h0.275l0.059,0.086l0.067,0.201l3.161-1.193l0.188-0.087l1.225-0.613l-0.438-0.084c0,0-0.721,0.553-1.057,0.605
			l-0.504-0.354c0,0-0.201-0.336,0.369-0.975l0.084-0.389l-1.073-0.818c0,0-0.172-0.904-6.813,1.174L43.621,49.158L43.621,49.158z"
			/>
		<path fill="#3E3D35" d="M44.176,46.301l0.542,0.412l0.578-0.066l-0.238-0.756l-0.068-0.084v-0.541v-0.049l0.395-0.064v0.078
			l0.051,0.25l0.176-0.176c0,0,0.013-0.051,0.227,0c0,0,0.352,0.076,0.276,0.24l-0.101,0.162L45.8,45.834l0.013,0.102l0.427,0.25
			l0.076-0.25h0.159l1.073,0.502v0.164l0.134-0.119l0.169,0.006l0.394,0.227l0.047,0.17l0.188,0.447l-0.126,0.58l-1.295,0.613
			L45.95,48.59l-0.654-0.152l-0.604-0.502L43.46,47.52l-0.164-0.201C43.295,47.318,44.094,46.236,44.176,46.301z"/>
		<path fill="#C3C4C2" d="M48.143,46.656c0,0,0.171,0.41,3.457-1.428c0,0,0.287-0.271-0.024-0.314L50.7,44.853
			c0,0-2.511-0.166-3.894,0.553c0,0-0.278,0.264-0.24,0.691C46.566,46.098,46.536,46.26,48.143,46.656z"/>
		<path opacity="0.4" fill="#3A3A38" enable-background="new    " d="M43.621,49.158c0,0,0.807,0.197,1.416,0.115
			c0,0,2.201-0.4,2.522-0.684l1.321-0.529l-0.155-0.234c0,0-4.955,1.014-5.104,1.252V49.158z"/>
		<path fill="#22201D" d="M47.32,47.113l0.152,0.447c0,0-0.076,0.168-0.076,0.191c0,0.027-0.034,0.145-0.118,0.178
			c-0.084,0.033-0.494,0.234-0.579,0.268c-0.083,0.035-0.52,0.143-0.57,0.15c-0.051,0.01-0.284,0-0.284,0l-0.126-0.15V47.99
			l-0.171,0.031c0,0-0.113,0.184-0.113,0.219c0,0.033,0,0.283,0,0.283l0.595,0.117h0.537l0.57-0.117c0,0,0.57-0.232,0.638-0.258
			c0.066-0.025,0.637-0.389,0.637-0.389l-0.025-0.227l-0.145-0.232l-0.711-0.305L47.32,47.113L47.32,47.113z"/>
		<path fill="#CDCCCC" d="M48.207,45.303c0,0-0.182,0.305-0.064,0.824l-0.293,0.332h-0.143l-0.084,0.076h-0.075l-0.034-0.117
			l-0.143-0.076l-0.075,0.008l-1.309,1.275l-0.327,0.443l-0.052,0.168v0.117l0.109,0.068l0.319,0.133l1.031-0.064l1.283-0.58
			l0.034-0.262l-0.143-0.125l-0.923-0.41l0.076-0.184l0.688,0.377l0.444,0.316l0.353,0.361v0.076l-0.076-0.025l-0.075-0.084
			L47.1,48.628c0,0-1.793,0.529-2.607,0.529c0,0-1.317-0.084-1.526-0.219l-0.227-0.352l-0.076-0.059l-0.066,0.033l-0.05,0.066
			c0,0-0.109-0.988,0.234-1.543c0,0,1.141-1.943,2.634-2.463c0,0-1.384,0.637-2.182,2.268l-0.31,0.701l0.15,0.158l1.535-0.527
			l1.015-0.604l2.163-1.242L48.207,45.303z"/>
		<path opacity="0.4" fill="#343A56" enable-background="new    " d="M48.143,45.195c0,0-1.166,0.117-2.181-0.553
			c0,0-0.017-0.152,0-0.211l0.034-0.059h-0.252l-1.023,0.729c0,0-0.897,1.016-0.922,1.023c-0.025,0.01-0.504,0.688-0.504,0.688
			v0.328l0.102,0.252l0.269,0.076l0.771-0.102l0.596-0.303l3.111-1.836"/>
		<polyline fill="#444130" points="45.502,44.49 45.467,44.439 45.467,44.053 45.426,43.994 44.846,43.752 44.763,43.752 
			44.611,43.885 44.611,44.119 44.721,44.238 44.913,44.414 45.401,44.49 45.459,44.58 45.502,44.545 		"/>
		<path fill="#232321" d="M48.201,45.053c0,0-2.063,0.98-2.842,1.562c0,0-2.315,1.283-1.938,0.352c0,0,1.09-2.037,2.369-2.414
			l0.087-0.127l0.034-0.049h-0.293l-0.193,0.191c0,0-1.283,0.496-2.508,2.398c0,0-0.118,0.27-0.177,1.117l0.076,0.117
			c0,0,1.133-0.094,2.089-0.68l2.398-1.66c0,0,0.437-0.387,1.048-0.613V45.19L48.201,45.053z"/>
		<path fill="#444130" d="M47.699,45.764l0.134-0.273c0,0,0.209-0.021,0.31,0l0.542,0.375c0,0,0.12,0.084,0.12,0.125l-0.042,0.217
			c0,0-0.033,0.139-0.201,0.078l-0.754-0.287C47.808,45.998,47.623,45.914,47.699,45.764z"/>
		<path fill="#343438" d="M48.093,47.184c0,0-0.093-0.285,0.184-0.371l1.183,0.547l0.042-0.051l0.193,0.109l-0.185,0.393
			l-0.318-0.148l-0.017-0.035L48.093,47.184z"/>
		
			<ellipse transform="matrix(0.9168 0.3993 -0.3993 0.9168 23.1519 -15.8683)" fill="#B0B0B0" cx="49.667" cy="47.641" rx="0.099" ry="0.22"/>
		
			<ellipse transform="matrix(0.9159 0.4014 -0.4014 0.9159 23.2868 -15.916)" fill="#B0B0B0" cx="49.63" cy="47.62" rx="0.138" ry="0.222"/>
		<path fill="#111111" d="M43.048,48.572l0.585,0.092c0,0,0.528,0.555,0.919-0.148l0.282-0.033l0.321-0.307v-0.084l-1.736,0.184
			c0,0-0.2,0.039-0.296,0.119C43.123,48.395,43.048,48.49,43.048,48.572z"/>
		<path fill="#CAB749" d="M43.048,48.557l0.566,0.084c0,0,0.528,0.557,0.918-0.148l0.283-0.031l0.32-0.307v-0.063L43.4,48.254
			c0,0-0.201,0.037-0.296,0.121C43.104,48.373,43.048,48.475,43.048,48.557z"/>
		<path fill="#CDCCCC" d="M44.453,48.236c0,0,0.081,0.236-0.126,0.436c0,0-0.308,0.281-0.681-0.109l-0.025,0.033
			c0,0,0.265,0.313,0.584,0.193c0,0,0.267-0.094,0.294-0.363c0,0,0.018-0.1-0.016-0.184L44.453,48.236z"/>
		<path fill="#3A3B3B" d="M45.845,50.029l-1.199,2.43l-0.129,0.037l-0.287-0.164l1.121-2.566
			C45.351,49.766,45.773,49.889,45.845,50.029z"/>
		<path fill="#D1D2D2" d="M45.803,49.996l-1.199,2.428l-0.129,0.037l-0.286-0.162l1.12-2.566
			C45.309,49.732,45.731,49.855,45.803,49.996z"/>
		<polygon opacity="0.3" fill="#CFCFCE" enable-background="new    " points="44.313,47.123 44.289,47.826 44.476,47.746 
			44.476,47.049 		"/>
		<polygon fill="#DEDEDD" points="45.646,47.006 45.646,48.004 45.803,47.811 45.803,46.896 		"/>
		<path fill="#232321" d="M45.101,49.668c0,0,1.479,0.742,2.233,1.662h0.44l3.268-1.674c0,0,0.242-0.555,0.418-0.629l0.047-0.398
			l-1.074-0.818c0,0-0.142,0.26-0.533,0.387l-1.565,0.443l0.145,0.174c0,0-1.762,0.695-2.253,0.756L45.101,49.668z"/>
		<path fill="#010101" d="M48.479,48.816l0.742,0.916c0,0,1.396-0.791,1.421-0.861l-1.484,0.701L48.479,48.816z"/>
		<path fill="#B3B3B3" d="M53.609,47.049"/>
		<path fill="#353635" d="M49.598,44.846l0.139-0.076c0,0,0.497-0.107,0.894,0.037l0.133,0.088c0,0,0.176,0.232-0.448,0.227
			c0,0-0.396-0.02-0.598-0.131c-0.066-0.035-0.125-0.088-0.122-0.146"/>
		<path fill="#353635" d="M51.668,45.229c0,0-1.089,0.459-1.082,0.781c0,0-0.005,0.314,0.198,0.861c0,0-0.299-0.73-0.085-0.951
			C50.699,45.92,50.787,45.713,51.668,45.229z"/>
		<path fill="#232321" d="M53.973,46.621c0,0-0.354-0.596,0.553-0.855c0,0,0.724-0.176,1.177-0.881c0,0,0.042-0.201-0.062-0.227
			c-0.101-0.026-0.125-0.051-0.19-0.051c-0.067,0-0.083-0.076-0.083-0.076s0.059-0.201,0.813-0.268
			c0.754-0.068,0.82-0.059,0.82-0.059l-0.21,0.236c0,0-0.19,0.25-0.31,0.484c-0.119,0.234-0.396,0.672-0.504,0.797
			c-0.109,0.127-1.555,0.824-1.979,0.898"/>
		<path fill="#111111" d="M51.736,49.906c0,0.137-0.117,0.248-0.264,0.248c-0.147,0-0.267-0.111-0.267-0.248
			c0-0.137,0.149-0.273,0.298-0.273S51.736,49.77,51.736,49.906z"/>
		<path fill="#838383" d="M51.736,49.906c0,0.107-0.116,0.238-0.23,0.238c-0.115,0-0.158-0.053-0.158-0.16
			c0-0.109,0.146-0.289,0.258-0.289C51.721,49.695,51.736,49.799,51.736,49.906z"/>
		<path fill="#111111" d="M51.639,49.914c0,0.037-0.039,0.082-0.08,0.082c-0.037,0-0.053-0.02-0.053-0.057
			c0-0.035,0.049-0.098,0.087-0.098C51.632,49.841,51.639,49.879,51.639,49.914z"/>
		<path opacity="0.5" fill="#E5E5E5" enable-background="new    " d="M43.048,50.094c0,0-0.257,0.264-0.424,0.326h0.125
			C42.749,50.42,43.015,50.266,43.048,50.094z"/>
		<path fill="#D1D2D1" d="M53.588,48.727v-0.098c0,0,1.044-0.406,1.371-0.229c0,0,0.303,0.336-0.189,1.102
			c0,0-0.373,0.5-0.678,0.521l-1.396,0.188v-0.068l1.356-0.225c0,0,0.462,0.078,0.818-0.758c0,0,0.415-0.912-0.478-0.689
			L53.588,48.727z"/>
		<path opacity="0.5" fill="#FFFFFF" enable-background="new    " d="M49.474,45.152c0,0-0.183,0.926-0.425,1.34l0.494-0.207
			c0,0,0.395-1.078,0.239-1.264c0,0-0.112-0.006-0.166-0.119c-0.008-0.018-0.014-0.037-0.019-0.059l-0.124,0.006
			C49.474,44.85,49.499,45.033,49.474,45.152z"/>
		<circle fill="#A09F9F" cx="44.535" cy="52.237" r="0.108"/>
		<circle fill="#282828" cx="44.535" cy="52.237" r="0.052"/>
	</g>
	
		<animateTransform  type="translate" fill="remove" additive="replace" attributeName="transform" calcMode="linear" begin="0s" accumulate="none" attributeType="XML" restart="always" values="0,0;0.2,0.2;0,0" repeatCount="indefinite" dur="0.1">
		</animateTransform>
</g>
</svg>
