<?xml version="1.0" encoding="utf-8"?>
<!-- Generator: Adobe Illustrator 16.0.0, SVG Export Plug-In . SVG Version: 6.00 Build 0)  -->
<!DOCTYPE svg PUBLIC "-//W3C//DTD SVG 1.1//EN" "http://www.w3.org/Graphics/SVG/1.1/DTD/svg11.dtd">
<svg version="1.1" id="Layer_1" xmlns="http://www.w3.org/2000/svg" xmlns:xlink="http://www.w3.org/1999/xlink" x="0px" y="0px"
	 width="6.249px" height="14.282px" viewBox="47.468 40.625 6.249 14.282" enable-background="new 47.468 40.625 6.249 14.282"
	 xml:space="preserve">
<g>
	
		<image display="none" overflow="visible" enable-background="new    " width="143" height="108" xlink:href="../../../../../References/white-commercial-delivery-truck-isolated-on-a-white-background_156402191.jpg"  transform="matrix(-0.4219 0 0 0.4219 78.1631 27.2188)">
	</image>
	
		<image display="none" overflow="visible" enable-background="new    " width="80" height="77" xlink:href="../Multicab/D43AD554.jpg"  transform="matrix(0.4425 0 0 0.4425 34.71 26.1499)">
	</image>
</g>
<g>
	<g>
		<path fill="#A8A8A8" d="M49.409,54.141c0,0-0.018,0.346-0.066,0.482c0,0-0.228,0.133-0.48,0.127c0,0-0.328,0.148-0.464,0.143
			c0,0-0.886,0.107-0.931-0.289c0,0-0.011-0.268,0.631-0.389c0,0,0.311-0.102,0.493-0.203C48.715,53.941,49.292,53.98,49.409,54.141
			z"/>
		<path fill="#1B1B1C" d="M49.419,54.078c0,0,0.006,0.334-0.043,0.469c0,0-0.251,0.146-0.505,0.141c0,0-0.328,0.148-0.463,0.145
			c0,0-0.857,0.104-0.931-0.289c0,0-0.011-0.27,0.63-0.391c0,0,0.312-0.102,0.494-0.201C48.725,53.879,49.301,53.918,49.419,54.078z
			"/>
		<path fill="#444444" d="M47.663,54.305c0,0,0.505-0.287,0.933,0.488C48.595,54.793,48.274,54.02,47.663,54.305z"/>
		<path fill="#444444" d="M48.865,54.115c0,0-0.246,0.207-0.534,0.326C48.331,54.441,48.648,54.348,48.865,54.115z"/>
		<path fill="#444444" d="M48.639,53.979c0,0-0.475,0.232-0.791,0.277C47.848,54.256,48.26,54.213,48.639,53.979z"/>
		<path fill="none" stroke="#E8E8E8" stroke-width="0.1" stroke-miterlimit="10" d="M48.031,54.215c0,0,0.327-0.006,0.497,0.131
			c0,0-0.081-0.145-0.228-0.203c0,0,0.274-0.041,0.431,0.074c0,0,0.009-0.086-0.112-0.227c0,0,0.208-0.006,0.273,0.061v0.096
			c0,0-0.239-0.125-0.431-0.088c0,0,0.104,0.084,0.178,0.24c0,0-0.099-0.139-0.458-0.131c0,0,0.143,0.07,0.217,0.25"/>
	</g>
	<g>
		<g>
			<path fill="#A8A8A8" d="M52.911,52.818c0,0-0.099,0.424-0.136,0.469c0,0-0.19,0.129-0.154,0.297c0,0-0.037,0.229,0.551,0.154
				c0,0,0.346-0.115,0.477-0.35c0,0,0.08-0.326,0.051-0.686C53.697,52.705,53.152,52.664,52.911,52.818z"/>
			<path fill="#1B1B1C" d="M52.934,52.75c0,0-0.113,0.391-0.149,0.434c0,0-0.197,0.178-0.161,0.344c0,0-0.037,0.229,0.551,0.154
				c0,0,0.318-0.107,0.449-0.346c0,0,0.082-0.268,0.051-0.625C53.672,52.711,53.173,52.596,52.934,52.75z"/>
			<path fill="#444444" d="M52.986,52.791c0,0-0.078,0.379-0.113,0.396c0,0,0.115-0.348,0.104-0.416L52.986,52.791z"/>
			<path fill="#444444" d="M53.313,52.805c0,0-0.045,0.418-0.08,0.438c0,0,0.076-0.369,0.06-0.437L53.313,52.805z"/>
			<path fill="#444444" d="M52.771,53.195c0,0,0.485-0.074,0.765,0.248c0,0-0.226-0.326-0.753-0.26"/>
		</g>
		<path fill="none" stroke="#E8E8E8" stroke-width="0.1" stroke-miterlimit="10" d="M53.336,52.814l-0.38,0.088
			c0,0,0.198,0.02,0.356,0.121c0,0-0.405-0.014-0.428,0.049c0,0,0.346,0.047,0.371,0.102c0,0-0.346-0.064-0.385-0.039
			c0,0,0.29-0.078,0.398-0.039c0,0-0.158-0.127-0.354-0.102c0,0,0.271-0.117,0.395-0.08c0,0-0.205-0.09-0.354-0.082"/>
	</g>
	<path fill="#EAB686" d="M49.149,47.444l0.064,0.768l-0.098,0.136L49.06,48.36l-0.026-0.034l0.013-0.033l0.007-0.072l0.015-0.041
		l-0.021-0.05l-0.068-0.066l-0.01,0.025l-0.021,0.045c0,0-0.008,0.006-0.005,0.053c0.002,0.047-0.004,0.088-0.004,0.088
		s-0.012-0.009,0.001,0.022c0.012,0.033,0.031,0.024,0.04,0.054c0.01,0.028,0.037,0.019,0.035,0.05
		c-0.001,0.032-0.001,0.032-0.001,0.032s-0.001,0.036-0.003,0.05c-0.003,0.014-0.003,0.014-0.003,0.014l-0.021,0.017l-0.172-0.162
		l-0.072-0.094c0,0-0.027-0.045-0.041-0.053c-0.014-0.007-0.064-0.082-0.064-0.082s0.002-0.021-0.027-0.063
		c-0.029-0.044-0.044-0.068-0.044-0.068l-0.025-0.076l0.003-0.045c0,0,0-0.06,0.008-0.089c0.007-0.029,0.033-0.093,0.044-0.106
		c0.01-0.015,0.214-0.428,0.214-0.428S49.158,47.256,49.149,47.444z"/>
	<path fill="#EAB686" d="M49.07,43.884c0,0,0.041,1.145,0.149,1.651c0,0-0.215,0.729-0.418,1.748c0,0,0.065,0.397,0.412,0.261
		l0.411-1.459l-0.189-2.041C49.435,44.044,49.293,43.643,49.07,43.884z"/>
	<path fill="#DDA97F" d="M49.388,45.009c0,0,0.056,0.562-0.037,0.572l0.054,0.188c0,0,0.117,0.357-0.101,1.109
		c0,0-0.293,0.79-0.313,1.001l0.068,0.075l0.69-0.757c0,0-0.143-1.373-0.155-1.429c-0.012-0.056-0.159-0.358-0.159-0.358
		l0.046-0.318L49.388,45.009z"/>
	<path fill="#4C4C4D" d="M49.324,47.074c0,0-0.906,1.959-0.999,3.409c0,0-0.199,0.943,0.168,1.853c0,0,0.063,1.02,0.015,1.316v0.111
		l0.082,0.186l0.275,0.166h0.43l0.224-0.074v-0.24l-0.086-0.131c0,0,0.52-1.137,0.229-2.256l0.67-1.935l0.434,0.18
		c0,0,0.418,1.847,0.787,2.015c0,0,1.113,0.678,1.133,0.846l0.11,0.063v0.131l0.271,0.115l0.262-0.024l0.371-0.099v-0.131
		c0,0-0.057,0,0-0.093c0.056-0.094-0.037-0.181-0.037-0.181l0.023-0.057v-0.147l-0.137-0.056l-0.253-0.353
		c0,0-0.198-0.649-0.538-1.037c0,0,0.2-2.531-0.097-2.932C52.661,47.722,50.879,46.388,49.324,47.074z"/>
	<path fill="#282828" d="M50.568,47.959c0,0-0.216,1.04-0.155,1.448l-0.011,0.085l0.167,0.051v-0.111c0,0-0.078-0.366,0.138-1.429
		l-0.149-0.049"/>
	<path fill="#AEADAE" d="M49.221,44.1l-0.162-0.121v-0.361l0.032-0.32c0,0,0.027-0.663,0.436-0.774c0,0,2.189,0.167,2.997,1.771
		c0,0,0.371,0.361,0.277,1.623c0,0-0.445,0.278-1.113,0c0,0,1.104,1.41,1.127,2.3c0,0-0.53,0.724-2.273,0.278
		c0,0-1.142-0.306-1.374-1.075c0,0,0.282-0.639,0.356-1.121C49.522,46.299,49.351,44.322,49.221,44.1z"/>
	<path fill="#EAB686" d="M51.688,45.917l0.225,1.178c0,0-0.547,2.272-0.596,2.949c0,0,0.049,0.297,0.476,0.27
		c0,0,0.965-2.374,0.976-2.848l0.035-1.549C52.801,45.917,51.893,46.037,51.688,45.917z"/>
	<path fill="#303030" d="M51.336,43.153c0,0,0.76-1.206,0.428-1.836c0,0-0.315-1.132-1.782-0.501l-0.409,0.297l-0.185,0.157v0.084
		v0.093v0.167l0.075,0.166l0.109,0.108l0.168,0.263C49.741,42.151,50.594,42.374,51.336,43.153z"/>
	<path fill="#DDA97F" d="M51.336,43.153l0.064,0.288c0,0-0.371,0.565-0.695,0.658c0,0-0.76,0.223-0.593-0.482
		c0,0,0.576-0.825,1.001-0.668L51.336,43.153z"/>
	<path fill="#898989" d="M50.127,43.978l-0.164,0.155c0,0-0.176-0.033,0.241-0.729C50.205,43.403,50.066,43.718,50.127,43.978z"/>
	<path fill="#EAB686" d="M49.574,41.818c0,0-0.019,1.187,0.223,1.632l0.315,0.167c0,0,0.648-0.13,1.001-0.668
		c0,0,0.537-0.204,0.352-0.445c0,0-0.203-0.019-0.352,0.214h-0.148l0.018-0.437l-0.166-0.074l-0.057-0.222l-0.685,0.092
		l-0.186-0.036l-0.223-0.223l-0.094-0.112L49.574,41.818z"/>
	<path fill="#898989" d="M51.359,43.258c0,0-0.135,0.51-0.979,0.875l0.074,0.235c0,0,0.288,0.176,0.946-0.927L51.359,43.258z"/>
	<path fill="#898989" d="M49.927,45.984c0,0,0.692,0.014,0.89,0.149C50.816,46.134,50.224,46.297,49.927,45.984z"/>
	<path fill="#898989" d="M51.669,45.769c0,0-0.12-0.327-0.165-0.216L51.669,45.769z"/>
	<path fill="#EAB686" d="M51.316,50.044l-0.839,0.776l-0.063,0.297l0.031,0.092h0.056l0.022-0.055l0.067-0.094l0.031-0.068
		l0.067-0.025l0.123,0.025l-0.021,0.043l-0.03,0.082c0,0,0.002,0.018-0.05,0.066c-0.049,0.051-0.086,0.104-0.086,0.104
		s0.019,0.006-0.024,0.023c-0.043,0.019-0.049-0.02-0.086,0c-0.038,0.02-0.05-0.031-0.082,0.006
		c-0.031,0.037-0.031,0.037-0.031,0.037s-0.036,0.043-0.049,0.063c-0.013,0.019-0.013,0.019-0.013,0.019v0.049l0.302,0.068h0.156
		c0,0,0.066-0.013,0.086,0c0.018,0.014,0.137,0,0.137,0s0.02-0.023,0.086-0.029c0.068-0.008,0.105-0.015,0.105-0.015l0.098-0.049
		l0.045-0.058c0,0,0.063-0.067,0.086-0.11c0.024-0.043,0.067-0.153,0.074-0.187c0.006-0.028,0.271-0.795,0.271-0.795
		S51.502,49.818,51.316,50.044z"/>
	<path fill="#282828" d="M50.331,49.479l-0.203-0.02c0,0,0.36-0.12,0.776,0.257L50.331,49.479z"/>
	<path fill="#141414" d="M50.039,48.748c0,0,0.437,0.162,0.954,0.495"/>
	<path fill="#141414" d="M49.911,49.085c0,0,0.459,0.082,1.026,0.317"/>
	<path fill="#141414" d="M48.713,53.307c0,0,0.284,0.52,0.606,0.531C49.32,53.838,48.85,53.615,48.713,53.307z"/>
	<path fill="#141414" d="M48.713,53.781c0,0,0.148,0.148,0.531,0.197"/>
	<polygon fill="#141414" points="49.653,51.418 49.499,51.82 49.668,51.486 	"/>
	<polygon fill="#141414" points="52.745,50.652 52.734,50.697 52.711,50.811 52.672,50.984 52.773,50.686 	"/>
	<path fill="#141414" d="M53.535,52.201c0,0,0.012,0.098-0.262,0.197C53.003,52.498,53.535,52.201,53.535,52.201z"/>
	<path fill="#141414" d="M53.621,52.549c-0.073,0-0.531,0.16-0.661,0.088"/>
	<path fill="#DDA97F" d="M52.059,47.132c0,0,0.213,0.037,0.25,0c0,0-0.093,0.115-0.203,0.113L52.059,47.132z"/>
</g>
</svg>
