<?xml version="1.0" encoding="utf-8"?>
<!-- Generator: Adobe Illustrator 16.0.0, SVG Export Plug-In . SVG Version: 6.00 Build 0)  -->
<!DOCTYPE svg PUBLIC "-//W3C//DTD SVG 1.1//EN" "http://www.w3.org/Graphics/SVG/1.1/DTD/svg11.dtd">
<svg version="1.1" id="Layer_1" xmlns="http://www.w3.org/2000/svg" xmlns:xlink="http://www.w3.org/1999/xlink" x="0px" y="0px"
	 width="32.719px" height="26.209px" viewBox="34.225 37.641 32.719 26.209" enable-background="new 34.225 37.641 32.719 26.209"
	 xml:space="preserve">
<image display="none" overflow="visible" enable-background="new    " width="225" height="196" xlink:href="../../../../../References/s-l225.jpg"  transform="matrix(0.16 0 0 0.16 32.8003 35.3999)">
</image>
<g id="Tire">
	<path fill="#141318" d="M48.444,59.521c-0.209,1.422-1.314,2.906-2.474,3.309c-1.15,0.409-1.918-0.422-1.71-1.844
		c0.209-1.422,1.314-2.906,2.475-3.31C47.896,57.273,48.655,58.105,48.444,59.521z"/>
	<path fill="#121332" d="M48.703,59.675c-0.202,1.413-1.294,2.888-2.437,3.288c-1.144,0.401-1.901-0.425-1.702-1.845
		c0.202-1.412,1.294-2.888,2.437-3.288C48.143,57.432,48.904,58.255,48.703,59.675z"/>
	<path fill="#141318" d="M49.095,59.788c-0.209,1.422-1.313,2.905-2.473,3.31c-1.151,0.408-1.918-0.423-1.71-1.845
		c0.21-1.422,1.313-2.905,2.474-3.31C48.541,57.541,49.305,58.374,49.095,59.788z"/>
	<path fill="#121332" d="M49.35,59.943c-0.202,1.412-1.294,2.887-2.437,3.289c-1.143,0.399-1.901-0.426-1.702-1.847
		c0.202-1.413,1.294-2.887,2.437-3.288C48.794,57.697,49.553,58.529,49.35,59.943z"/>
	<path fill="#141318" d="M49.65,60.025c-0.209,1.423-1.313,2.908-2.474,3.31c-1.15,0.409-1.917-0.422-1.71-1.843
		c0.208-1.424,1.314-2.907,2.474-3.311C49.099,57.781,49.859,58.604,49.65,60.025z"/>
	<path fill="#121332" d="M49.907,60.184c-0.202,1.41-1.294,2.885-2.437,3.287c-1.143,0.399-1.901-0.426-1.701-1.847
		c0.202-1.412,1.294-2.888,2.437-3.287S50.111,58.771,49.907,60.184z"/>
	<path fill="#141318" d="M49.994,60.271c-0.188,1.403-1.24,2.85-2.345,3.235c-1.104,0.386-1.847-0.432-1.66-1.834
		c0.188-1.403,1.24-2.849,2.346-3.235C49.446,58.05,50.19,58.869,49.994,60.271z"/>
	<path fill="#121332" d="M49.733,60.451c-0.159,1.185-1.043,2.404-1.977,2.729c-0.931,0.331-1.562-0.367-1.398-1.545
		c0.158-1.185,1.042-2.406,1.977-2.729C49.268,58.586,49.893,59.275,49.733,60.451z"/>
	<path fill="#CDCCCC" d="M49.356,60.488c-0.129,0.947-0.842,1.922-1.589,2.188c-0.756,0.266-1.257-0.291-1.13-1.242
		c0.129-0.949,0.841-1.922,1.588-2.188C48.976,58.993,49.485,59.548,49.356,60.488z"/>
	<path fill="#989898" d="M48.998,60.549c-0.104,0.771-0.678,1.563-1.284,1.773c-0.609,0.213-1.02-0.23-0.915-1
		c0.104-0.771,0.677-1.563,1.284-1.773C48.688,59.335,49.095,59.788,48.998,60.549z"/>
	<path fill="#CDCCCC" d="M48.7,60.706c-0.076,0.565-0.501,1.144-0.944,1.302c-0.445,0.148-0.745-0.176-0.668-0.744
		c0.077-0.565,0.501-1.143,0.944-1.302C48.486,59.809,48.785,60.143,48.7,60.706z"/>
	<g id="Tire_Hole">
		<path fill="#010101" d="M48.183,60.84c-0.026,0.182-0.154,0.357-0.294,0.409c-0.144,0.044-0.238-0.054-0.215-0.231
			c0.026-0.182,0.155-0.357,0.294-0.408C48.109,60.557,48.196,60.661,48.183,60.84z"/>
		<path fill="#010101" d="M47.951,60.314c-0.019,0.101-0.086,0.195-0.165,0.224c-0.078,0.024-0.125-0.029-0.115-0.128
			c0.018-0.102,0.085-0.197,0.163-0.223C47.915,60.161,47.963,60.217,47.951,60.314z"/>
		<path fill="#010101" d="M48.511,60.273c-0.02,0.103-0.087,0.197-0.165,0.225c-0.078,0.027-0.126-0.027-0.116-0.127
			c0.019-0.102,0.086-0.197,0.164-0.223C48.471,60.122,48.521,60.18,48.511,60.273z"/>
		<path fill="#010101" d="M48.59,60.861c-0.018,0.101-0.085,0.197-0.163,0.224c-0.079,0.024-0.126-0.028-0.116-0.127
			c0.018-0.103,0.085-0.197,0.164-0.224C48.552,60.708,48.603,60.764,48.59,60.861z"/>
		<path fill="#010101" d="M48.146,61.464c-0.018,0.101-0.085,0.196-0.163,0.224c-0.078,0.024-0.126-0.029-0.116-0.129
			c0.019-0.1,0.086-0.197,0.165-0.223C48.107,61.311,48.158,61.368,48.146,61.464z"/>
		<path fill="#010101" d="M47.56,61.547c-0.018,0.102-0.085,0.197-0.163,0.225c-0.079,0.024-0.126-0.029-0.116-0.129
			c0.018-0.101,0.086-0.197,0.164-0.224C47.523,61.395,47.57,61.449,47.56,61.547z"/>
		<path fill="#010101" d="M47.479,60.971c-0.019,0.1-0.086,0.195-0.164,0.223c-0.078,0.025-0.126-0.028-0.115-0.127
			c0.018-0.102,0.085-0.197,0.164-0.224C47.442,60.814,47.49,60.873,47.479,60.971z"/>
	</g>
</g>
<g id="Tire_1_">
	<path fill="#141318" d="M63.206,48.046c-0.089,1.282-0.972,2.681-1.979,3.118c-0.996,0.443-1.738-0.244-1.649-1.524
		c0.089-1.281,0.971-2.681,1.979-3.119C62.563,46.082,63.297,46.772,63.206,48.046z"/>
	<path fill="#121332" d="M63.445,48.166c-0.082,1.273-0.953,2.663-1.944,3.096c-0.992,0.438-1.724-0.246-1.644-1.525
		c0.084-1.272,0.955-2.661,1.944-3.097C62.794,46.205,63.529,46.887,63.445,48.166z"/>
	<path fill="#141318" d="M63.805,48.24c-0.09,1.281-0.971,2.68-1.978,3.117c-0.997,0.443-1.738-0.243-1.65-1.524
		c0.089-1.281,0.972-2.68,1.978-3.118C63.157,46.275,63.895,46.965,63.805,48.24z"/>
	<path fill="#121332" d="M64.042,48.362c-0.084,1.272-0.956,2.66-1.944,3.095c-0.992,0.438-1.725-0.248-1.645-1.526
		c0.083-1.273,0.955-2.661,1.945-3.098C63.393,46.397,64.127,47.087,64.042,48.362z"/>
	<path fill="#141318" d="M64.314,48.414c-0.088,1.282-0.971,2.68-1.978,3.119c-0.997,0.443-1.737-0.244-1.651-1.525
		c0.09-1.282,0.973-2.681,1.979-3.119C63.67,46.452,64.404,47.133,64.314,48.414z"/>
	<path fill="#121332" d="M64.555,48.536c-0.082,1.271-0.955,2.659-1.945,3.097c-0.99,0.434-1.723-0.248-1.645-1.528
		c0.084-1.273,0.956-2.662,1.947-3.097C63.904,46.574,64.641,47.263,64.555,48.536z"/>
	<path fill="#141318" d="M64.639,48.61c-0.07,1.264-0.908,2.623-1.867,3.042c-0.957,0.42-1.676-0.258-1.604-1.519
		c0.069-1.264,0.909-2.624,1.868-3.045C63.997,46.667,64.717,47.346,64.639,48.61z"/>
	<path fill="#121332" d="M64.418,48.787c-0.061,1.066-0.764,2.215-1.572,2.566c-0.808,0.358-1.416-0.222-1.354-1.28
		c0.061-1.066,0.764-2.216,1.574-2.567C63.876,47.157,64.48,47.729,64.418,48.787z"/>
	<path fill="#CDCCCC" d="M64.085,48.846c-0.05,0.854-0.618,1.769-1.265,2.06c-0.656,0.287-1.143-0.174-1.094-1.03
		c0.051-0.855,0.617-1.771,1.267-2.059C63.645,47.54,64.137,47.999,64.085,48.846z"/>
	<path fill="#989898" d="M63.77,48.924c-0.039,0.694-0.496,1.438-1.021,1.669c-0.527,0.23-0.925-0.136-0.885-0.829
		c0.039-0.693,0.496-1.438,1.023-1.668C63.411,47.864,63.805,48.24,63.77,48.924z"/>
	<path fill="#CDCCCC" d="M63.516,49.085c-0.029,0.51-0.367,1.053-0.752,1.226c-0.387,0.162-0.677-0.106-0.646-0.618
		c0.028-0.51,0.368-1.053,0.752-1.225C63.264,48.299,63.553,48.576,63.516,49.085z"/>
	<g id="Tire_Hole_1_">
		<path fill="#010101" d="M63.063,49.24c-0.011,0.164-0.111,0.329-0.232,0.385c-0.125,0.049-0.217-0.031-0.207-0.192
			c0.011-0.163,0.111-0.329,0.234-0.384C62.979,48.992,63.063,49.08,63.063,49.24z"/>
		<path fill="#010101" d="M62.82,48.788c-0.01,0.091-0.063,0.181-0.131,0.211c-0.067,0.028-0.114-0.018-0.111-0.106
			c0.01-0.091,0.063-0.182,0.13-0.21C62.777,48.654,62.825,48.7,62.82,48.788z"/>
		<path fill="#010101" d="M63.316,48.713c-0.01,0.092-0.063,0.182-0.131,0.211c-0.067,0.029-0.115-0.017-0.111-0.105
			c0.01-0.092,0.063-0.182,0.131-0.21C63.271,48.58,63.318,48.628,63.316,48.713z"/>
		<path fill="#010101" d="M63.43,49.231c-0.01,0.091-0.063,0.182-0.132,0.21c-0.067,0.028-0.114-0.017-0.112-0.105
			c0.01-0.091,0.063-0.181,0.131-0.21S63.434,49.142,63.43,49.231z"/>
		<path fill="#010101" d="M63.073,49.799c-0.009,0.09-0.063,0.181-0.13,0.209c-0.067,0.027-0.114-0.018-0.113-0.106
			c0.011-0.09,0.064-0.182,0.132-0.21C63.027,49.665,63.077,49.712,63.073,49.799z"/>
		<path fill="#010101" d="M62.557,49.913c-0.009,0.091-0.063,0.182-0.13,0.21c-0.069,0.029-0.114-0.017-0.112-0.105
			c0.01-0.091,0.063-0.182,0.131-0.21C62.516,49.779,62.561,49.825,62.557,49.913z"/>
		<path fill="#010101" d="M62.445,49.404c-0.01,0.091-0.063,0.181-0.131,0.211c-0.068,0.028-0.114-0.018-0.111-0.106
			c0.009-0.091,0.063-0.182,0.131-0.21C62.402,49.269,62.448,49.317,62.445,49.404z"/>
	</g>
</g>
<g id="Layer_2">
	<path fill="#8E8E8E" d="M34.667,54.27l0.208-0.457l2.458-2.084c0,0,1-1.375,2.542-2.375c0,0,2.458-3.292,4.083-4.583l5.583-3.877
		c0,0,0.084-0.333,1.667,0.375l5.333-3.628h0.875l8,3.208l0.666,1.208l0.25,0.875v2.292L64.5,47.139c0,0-0.249-2.041-2.208-0.083
		c0,0-1.208,1.333-1.875,3.875L59.875,51.1L50.5,58.723l-0.208,0.959c0,0-0.042-2.959-2.042-1.459c0,0-1.958,0.668-3.083,5
		l-0.833,0.375c0,0-1.209,0.375-3.542-0.291c0,0-4.999-2.375-6.125-3.75c0,0-0.667-0.625-0.208-1.75c0,0,0-1.541,0.292-2.25
		C34.75,55.557,34.555,54.518,34.667,54.27z"/>
</g>
<path fill="#AAAAAA" d="M35.521,57.396c0,0-0.292-1.666,0-1.959c0,0,0-0.146,0.479,0l5.271,2.896c0,0,0.745,0.245,0.907,0.932
	c0,0,0.51,1.439-0.178,1.549c0,0,0,0.334-1.813-0.459C40.188,60.354,36.354,58.458,35.521,57.396z"/>
<path fill="#636363" d="M35.581,57.382c0,0-0.263-1.551,0.02-1.819c0,0,0.001-0.135,0.46,0.006l5.033,2.744
	c0,0,0.779,0.347,0.907,0.795c0,0,0.567,1.523-0.094,1.617c0,0-0.141,0.209-1.874-0.545C40.032,60.18,36.371,58.378,35.581,57.382z"
	/>
<image display="none" overflow="visible" enable-background="new    " width="91" height="90" xlink:href="../../../../../References/ambulansya.jpg"  transform="matrix(0.4888 0 0 0.4888 29.5938 34.5625)">
</image>
<animateTransform  type="translate" fill="remove" additive="replace" attributeName="transform" calcMode="linear" begin="0s" accumulate="none" attributeType="XML" restart="always" values="0,0;0.1,0.1;0,0" repeatCount="indefinite" dur="1">
	</animateTransform>
<animateTransform  type="translate" fill="remove" additive="replace" attributeName="transform" calcMode="linear" begin="0s" accumulate="none" attributeType="XML" restart="always" values="0,0;0.1,0.1;0,0" repeatCount="indefinite" dur="1">
	</animateTransform>
<path d="M40.385,49.151l2.947-3.464h0.256c0,0,2.531,1.935,7.079,3.308l-1.73,4.087c0,0-0.064,0.281-0.48,0.313
	c0,0-4.484-1.029-8.072-3.854C40.385,49.542,40.215,49.352,40.385,49.151z"/>
<path fill="#2A344C" d="M40.531,49.188l2.875-3.469h0.25c0,0,2.469,1.938,6.906,3.313l-1.688,4.094c0,0-0.063,0.281-0.469,0.313
	c0,0-4.375-1.031-7.875-3.859C40.531,49.578,40.365,49.388,40.531,49.188z"/>
<path d="M51.75,49.261c0,0,1.594-1.5,1.844-1.563h0.25c0,0,0.844,2.49,0.719,2.933c0,0-3.469,2.817-4.438,2.975
	C50.125,53.604,51.344,49.917,51.75,49.261z"/>
<path fill="#2A344C" d="M51.625,49.281c0,0,1.594-1.5,1.844-1.563h0.25c0,0,0.844,2.49,0.719,2.933c0,0-3.469,2.817-4.438,2.975
	C50,53.625,51.219,49.938,51.625,49.281z"/>
<path fill="#DBDBDB" d="M34.401,57.914c0,0-0.396,0.904,0,1.546c0,0,0.287,1.146,7,4.228c0,0,3.224,0.59,3.802-0.473
	c0,0,0.605-1.354,0.542-1.792c0,0-1.261,0.722-1.449,0.784c0,0-2.021,0.354-3.208,0.042C41.088,62.249,34.859,59.871,34.401,57.914z
	"/>
<path fill="#DBDBDB" d="M44.125,59.253c1.771,0.375,1.208,0.979,1.208,0.979c-0.604,0.563-3.021,0.291-3.021,0.291
	c0.108-0.198-0.101-1.119-0.158-1.358c-0.009-0.037-0.014-0.058-0.014-0.058"/>
<path fill="#DBDBDB" d="M35.391,55.373c0,0-0.204-1.08-0.745-0.955s0,0.063,0,0.063s-0.406,0.627,0.745,1.959V55.373z"/>
<polygon fill="#494949" points="51.833,41.375 56.583,37.875 57.25,37.875 65.208,40.917 65.208,41.375 59.167,46.208 
	58.521,45.917 57.583,44 57.333,43.792 "/>
<polygon fill="#2B2B2B" points="56.771,40.688 56.583,37.875 57.25,37.875 65.208,40.917 65.208,41.375 59.167,46.208 
	58.521,45.917 57.583,44 54.45,42.525 "/>
<path fill="#E0E0E0" d="M35.472,56.076c0,0,4.79,2.861,6.651,3.432l0.018,0.148c0,0-3.547-1.406-6.671-3.469L35.472,56.076z"/>
<path fill="#E0E0E0" d="M42.219,60.313c0,0-4.386-1.594-6.716-3.53l0.017,0.155c0,0,1.887,1.609,6.7,3.531v-0.156H42.219z"/>
<path fill="#606060" d="M48.406,53.438c0,0-0.5,2.248-3.688,4.43c0,0-1.897,1.009-2.949,0.759c0,0,3.038,0.281,5.306-2.405
	C47.076,56.219,48.719,54.25,48.406,53.438z"/>
<path fill="#606060" d="M40.391,49.61c0,0-2.229,0.58-4.293,3.845c0,0-0.939,1.934-0.652,2.975c0,0-0.391-3.025,2.213-5.39
	C37.659,51.04,39.567,49.327,40.391,49.61z"/>
<polygon fill="#606060" points="54.709,47.404 57.332,45.404 57.875,47.208 55.25,49.284 "/>
<polygon fill="#A5A4A4" points="46.352,43.583 49.718,41.234 50.315,41.375 46.883,43.821 "/>
<polygon fill="#A5A4A4" points="47.456,44.063 50.822,41.713 51.419,41.854 47.987,44.3 "/>
<polygon fill="#A5A4A4" points="48.79,44.563 52.156,42.213 52.752,42.354 49.32,44.8 "/>
<polygon fill="#A5A4A4" points="50.144,45.167 53.512,42.817 54.105,42.958 50.675,45.404 "/>
<polygon fill="#A5A4A4" points="51.418,45.729 54.785,43.38 55.381,43.521 51.949,45.966 "/>
<polygon fill="#A5A4A4" points="52.729,46.345 56.096,43.996 56.689,44.136 53.259,46.582 "/>
<path fill="#606060" d="M54.563,50.672c0,0,0.23,3.326,0.146,4.607l0.178-0.144c0,0-0.125-3.928-0.178-4.485L54.563,50.672z"/>
<polygon fill="#606060" points="55.381,50.358 65.469,41.906 65.594,42.042 55.381,50.65 "/>
<path fill="#B2B2B2" d="M66.332,44.25v0.953l-0.738,0.772c0,0-0.093,0.579,0.096,0.781l1.25-1.381c0,0,0.1-1.438-0.606-1.583
	L66.332,44.25L66.332,44.25z"/>
<polygon fill="#DBDBDB" points="54.354,51.775 53.542,52.458 53.542,52.729 54.354,52.021 "/>
<path fill="#415170" d="M50.144,49.284c0,0-5.873-1.379-9.373,0.148l-0.125,0.147c0,0,3.708,2.901,7.896,3.651
	C48.542,53.229,50.292,49.316,50.144,49.284z"/>
<path fill="#415170" d="M53.542,47.979c0,0-1.333,4.091-2.771,5.024l-0.209,0.226c0,0,2.104-1.104,3.791-2.625
	C54.354,50.604,53.831,48.108,53.542,47.979z"/>
<path fill="#7D838C" d="M49.708,49.579c0,0-2.021,3.088-2.979,3.151l1.583,0.273C48.313,53.004,49.726,49.969,49.708,49.579z"/>
<path fill="#7D838C" d="M53.667,48.625c0,0,0.381,1.584,0.44,1.979l-0.315,0.367C53.792,50.971,54.021,50.458,53.667,48.625z"/>
</svg>
