<?xml version="1.0" encoding="utf-8"?>
<!-- Generator: Adobe Illustrator 16.0.0, SVG Export Plug-In . SVG Version: 6.00 Build 0)  -->
<!DOCTYPE svg PUBLIC "-//W3C//DTD SVG 1.1//EN" "http://www.w3.org/Graphics/SVG/1.1/DTD/svg11.dtd">
<svg version="1.1" id="Layer_1" xmlns="http://www.w3.org/2000/svg" xmlns:xlink="http://www.w3.org/1999/xlink" x="0px" y="0px"
	 width="26.734px" height="19.34px" viewBox="36.949 43.578 26.734 19.34" enable-background="new 36.949 43.578 26.734 19.34"
	 xml:space="preserve">
<g id="Tire_2_1_">
	<path d="M46.938,62.91c0,0-1.259-0.237-1.893-1.563c0,0-0.292-2.275,1.566-3.029c0,0,1.465,0.084,2.103,1.098
		C49.375,60.643,46.938,62.91,46.938,62.91z"/>
	<path fill="#333333" d="M48.622,61.588c-0.446,1.033-1.324,1.521-1.915,1.262c-0.59-0.266-0.711-1.346-0.188-2.354
		c0.445-1.03,1.324-1.521,1.914-1.264C49.023,59.5,49.117,60.677,48.622,61.588z"/>
	<path fill="#999999" d="M48.274,59.816c-0.436-0.227-1.03,0.141-1.397,0.881c-0.366,0.736-0.242,1.506,0.193,1.728
		c0.436,0.224,1.031-0.139,1.397-0.881C48.756,60.788,48.71,60.041,48.274,59.816z M48.158,61.462
		c-0.184,0.37-0.467,0.503-0.621,0.461c-0.231-0.063-0.202-0.476-0.046-0.745c0.157-0.271,0.466-0.503,0.622-0.461
		C48.267,60.757,48.341,61.094,48.158,61.462z"/>
	<path fill="#FFFFFF" d="M47.474,60.021c0,0,0.205,0.162,0.279,0.494L47.65,60.59c0,0-0.126-0.449-0.28-0.492L47.474,60.021z"/>
	
		<animateTransform  type="translate" fill="remove" additive="replace" attributeName="transform" calcMode="linear" begin="0s" accumulate="none" attributeType="XML" restart="always" values="0,0;0.1,0.1;0,0" repeatCount="indefinite" dur="1">
		</animateTransform>
</g>
<g id="Tire_2_3_">
	<path d="M59.652,55.501c0,0-1.258-0.237-1.896-1.562c0,0-0.293-2.276,1.566-3.028c0,0,1.467,0.084,2.104,1.096
		C62.091,53.232,59.652,55.501,59.652,55.501z"/>
	<path fill="#333333" d="M61.337,54.18c-0.446,1.032-1.323,1.524-1.914,1.26c-0.592-0.263-0.711-1.344-0.188-2.354
		c0.445-1.027,1.324-1.521,1.914-1.26C61.738,52.089,61.831,53.266,61.337,54.18z"/>
	<path fill="#999999" d="M60.988,52.409c-0.438-0.224-1.03,0.139-1.396,0.879c-0.363,0.737-0.242,1.506,0.193,1.728
		c0.438,0.226,1.029-0.14,1.396-0.877C61.473,53.378,61.427,52.63,60.988,52.409z M60.874,54.053
		c-0.185,0.37-0.467,0.502-0.621,0.461c-0.229-0.063-0.203-0.476-0.047-0.746c0.157-0.271,0.469-0.502,0.623-0.459
		C60.98,53.35,61.059,53.688,60.874,54.053z"/>
	<path fill="#FFFFFF" d="M60.189,52.611c0,0,0.205,0.16,0.276,0.492l-0.104,0.078c0,0-0.125-0.451-0.279-0.492L60.189,52.611z"/>
	
		<animateTransform  type="translate" fill="remove" additive="replace" attributeName="transform" calcMode="linear" begin="0s" accumulate="none" attributeType="XML" restart="always" values="0,0;0.1,0.1;0,0" repeatCount="indefinite" dur="1">
		</animateTransform>
</g>
<image display="none" overflow="visible" enable-background="new    " width="91" height="90" xlink:href="../../../../../References/ambulansya.jpg"  transform="matrix(0.4888 0 0 0.4888 29.5938 34.5625)">
</image>
<path fill="#EAEAEA" d="M43.139,62.443"/>
<image display="none" overflow="visible" enable-background="new    " width="90" height="90" xlink:href="../../../../../References/polisya.jpg"  transform="matrix(0.3986 -0.0083 0.0083 0.3986 33.3184 36.9277)">
</image>
<path fill="#151515" d="M36.958,59c0,0-0.083-1.833,0.25-1.833l0.5-1.125l5.083-4.817c0,0-0.667-1.058-0.292-1.225h0.292
	l0.452,0.727l2.463-2.31c0,0,6.042-4.5,9.126-4.083c0,0,2.125-0.833,2.667-0.75c0,0,4.625,1.5,5.5,3.333
	c0,0,0.868,1.416,0.601,3.333c0,0-0.037,0.574-1.726,1.625c0,0-0.802-1.584-2.233-0.25c0,0-1.059,1.357-1.142,2.866l-9.25,5.745
	c0,0-0.75-2.569-2.417-1.152c0,0-1.378,1.111-1.126,3.139c0,0-2.957,0.818-5.749-0.285C39.958,61.938,37.917,60.791,36.958,59z"/>
<path fill="#515151" d="M37.758,57.078c0,0,1.742,2.563,4.758,2.797l-0.094,0.743c0,0-3.781-0.19-4.875-2.774L37.758,57.078z"/>
<path fill="#151515" d="M37.758,57.354c0,0,1.155,2.227,4.394,2.681l0.067,0.063c0,0-3.031-0.187-4.563-2.738h0.102V57.354z"/>
<path fill="#151515" d="M37.623,57.688c0,0,1.155,2.227,4.394,2.681l0.067,0.063c0,0-3.031-0.188-4.563-2.74h0.102V57.688
	L37.623,57.688z"/>
<path fill="#C9C9C9" d="M37.719,58h-0.344c0,0-0.328-0.922-0.016-1.484c0,0,0.229-0.682,0.349-0.474
	C37.708,56.042,37.813,57.531,37.719,58z"/>
<path fill="#C9C9C9" d="M41.766,60.5c0,0,0.281-0.578,0.75-0.625c0,0,2.063-0.172,2.406,0c0,0,0.383,0.719-0.301,0.781
	C44.621,60.656,42.453,60.781,41.766,60.5z"/>
<polygon fill="#D3D3D3" points="37.758,59.578 37.727,60.241 39.875,61.938 39.953,61.172 "/>
<path fill="#4C5A72" d="M45.583,48.979c0,0-2.896,2.479-3.365,3.313c0,0,2.344,3.048,6.427,3.659l2.208-3.883
	C50.854,52.068,47.083,49.563,45.583,48.979z"/>
<path fill="#4C5A72" d="M53.834,50c0,0-2.168,1.543-2.646,2.657L50,54.709l0.375-0.218l0.688,0.362l3.043-1.979
	C54.104,52.875,54.084,50.646,53.834,50z"/>
<path fill="#4C5A72" d="M54.354,49.688c0,0,0.271,1.242,0.334,2.777l4.063-2.782l-1.007-1.141
	C57.74,48.542,56.616,47.907,54.354,49.688z"/>
<polyline fill="#26344F" points="58.063,48.432 59,49.458 59.641,49.167 59.641,48.432 58,48.432 "/>
<path fill="#EAEAEA" d="M49.167,55.951l1.021-0.659c0,0,0.708,0.042,1.063,0v-0.271l-0.083-0.168l8.475-5.688l0.297,0.125
	c0,0,0.34,0.959,0.434,1.864c0,0-1.268,0.201-1.868,3.335l-9.25,5.743C49.25,60.236,49.625,57.32,49.167,55.951z"/>
<path fill="#4C5A72" d="M52.979,44.688c0,0,3.451,1.411,4.5,2.833h3.416c0,0-2.582-2.542-5.396-3.063
	C55.5,44.458,53.271,44.521,52.979,44.688z"/>
<polygon fill="#FF0000" points="48.636,46.344 48.558,46.901 50.46,47.927 51.191,47.448 51.191,47.012 49.308,45.99 "/>
<polygon fill="#CCCCCC" points="50,47.141 50,47.689 51.745,48.591 52.559,48.245 52.219,47.521 50.75,46.719 "/>
<polyline fill="#0062FF" points="51.594,48.504 51.594,47.884 52.25,47.562 53.938,48.462 54.229,48.945 53.301,49.446 
	51.594,48.504 "/>
<g>
	<path fill="#ED2626" d="M49.951,56.874c0.084-0.08,0.192-0.175,0.335-0.267c0.175-0.113,0.31-0.125,0.399-0.051
		c0.082,0.062,0.14,0.207,0.153,0.404c0.019,0.211-0.01,0.398-0.065,0.566c-0.078,0.229-0.228,0.416-0.397,0.525
		c-0.053,0.032-0.104,0.063-0.144,0.069l0.072,0.938l-0.175,0.106L49.951,56.874z M50.213,57.88
		c0.041-0.002,0.091-0.026,0.147-0.063c0.214-0.141,0.33-0.399,0.307-0.726c-0.024-0.304-0.164-0.372-0.358-0.25
		c-0.078,0.054-0.136,0.103-0.165,0.136L50.213,57.88z"/>
	<path fill="#ED2626" d="M52.291,56.525c0.061,0.808-0.195,1.414-0.545,1.646c-0.359,0.231-0.65-0.075-0.703-0.786
		c-0.059-0.744,0.175-1.402,0.538-1.637C51.957,55.505,52.236,55.837,52.291,56.525z M51.23,57.257
		c0.039,0.499,0.229,0.841,0.508,0.662c0.279-0.185,0.404-0.728,0.361-1.255c-0.031-0.462-0.215-0.854-0.51-0.667
		C51.302,56.188,51.189,56.74,51.23,57.257z"/>
	<path fill="#ED2626" d="M52.432,55.232l0.178-0.112l0.164,2.083l0.584-0.381l0.02,0.255l-0.762,0.495L52.432,55.232z"/>
	<path fill="#ED2626" d="M53.57,54.499l0.179,2.337l-0.174,0.112l-0.181-2.339L53.57,54.499z"/>
	<path fill="#ED2626" d="M55.01,55.939c-0.06,0.092-0.187,0.23-0.351,0.346c-0.388,0.248-0.709,0.018-0.771-0.747
		c-0.059-0.729,0.194-1.42,0.625-1.69c0.166-0.111,0.275-0.115,0.326-0.104l-0.021,0.271c-0.07-0.016-0.168,0.012-0.28,0.082
		c-0.325,0.215-0.507,0.694-0.462,1.313c0.045,0.572,0.27,0.813,0.599,0.604c0.106-0.074,0.216-0.183,0.28-0.289L55.01,55.939z"/>
	<path fill="#ED2626" d="M55.866,54.311l-0.534,0.353l0.063,0.838l0.601-0.383l0.017,0.255l-0.768,0.496l-0.186-2.334l0.738-0.479
		l0.021,0.252l-0.564,0.362l0.057,0.743l0.535-0.354L55.866,54.311z"/>
</g>
<path d="M54.122,52.871c0,0-0.056,1.027-0.019,4.457"/>
<polygon fill="#3F3F3F" points="53.141,55.061 53.938,54.499 53.938,54.984 53.141,55.501 "/>
<polygon fill="#3F3F3F" points="58.105,52.023 58.902,51.464 58.902,51.949 58.105,52.466 "/>
<path fill="#697FA3" d="M42.516,52.428c0,0,5.172-1.99,8-0.303l-1.969,3.6C48.547,55.725,45.563,55.605,42.516,52.428z"/>
<path fill="#697FA3" d="M53.749,50.266c0,0-2.718,2.498-3.077,4.233l0.362,0.202l2.903-1.889
	C53.938,52.813,53.998,50.547,53.749,50.266z"/>
<path fill="#697FA3" d="M54.531,49.828c0,0,0.379,2.078,0.236,2.453l3.592-2.563C58.359,49.719,55.375,50.891,54.531,49.828z"/>
<path fill="#5C749B" d="M58.504,48.591l0.398,0.643c0,0-0.176-0.599,0-0.643S58.504,48.591,58.504,48.591z"/>
<path fill="#A3B7D3" d="M50.125,52.203c0,0-2.959,2.88-3.672,2.855l1.836,0.359C48.289,55.422,50.266,52.734,50.125,52.203z"/>
<path fill="#A3B7D3" d="M53.572,50.734l0.177,1.953c0,0-0.968,0.672-1.062,0.719C52.593,53.453,53.3,50.936,53.572,50.734z"/>
<path fill="#A3B7D3" d="M54.844,50.344c0,0,0.191,1.164,0.166,1.621l0.787-0.684C55.797,51.281,55.719,50.922,54.844,50.344z"/>
<ellipse id="lightblue" opacity="0.3" fill="#0062FF" enable-background="new    " cx="53.214" cy="48.591" rx="3.349" ry="2.092">
<animate  fill="remove" from="0.3" to="0" additive="replace" attributeName="opacity" calcMode="linear" begin="0.1s;light2.end" accumulate="none" restart="always" repeatCount="indefinite" dur="0.5" id="light1">
	</animate>
</ellipse>
<ellipse id="lightred" opacity="0.3" fill="#FF0000" enable-background="new    " cx="48.398" cy="46.001" rx="3.348" ry="2.092">
<animate  fill="remove" from="0.5" to="0" additive="replace" attributeName="opacity" calcMode="linear" begin="0.2s;light2.end" accumulate="none" restart="always" repeatCount="indefinite" dur="0.5" id="light1">
	</animate>
</ellipse>
<path fill="#697FA3" d="M56.125,46.001c0,0,1.453,0.874,1.617,1.312h2.63c0,0-2.403-1.813-3.278-2.094
	C57.094,45.219,58,46.252,56.125,46.001z"/>
<path fill="#D32424" d="M63.633,49.076c0,0-0.32,0.408-0.578,0.549l0.104,0.938c0,0,0.243-0.125,0.465-0.506
	C63.623,50.053,63.75,49.234,63.633,49.076z"/>
</svg>
