<?xml version="1.0" encoding="utf-8"?>
<!-- Generator: Adobe Illustrator 16.0.0, SVG Export Plug-In . SVG Version: 6.00 Build 0)  -->
<!DOCTYPE svg PUBLIC "-//W3C//DTD SVG 1.1//EN" "http://www.w3.org/Graphics/SVG/1.1/DTD/svg11.dtd">
<svg version="1.1" id="Layer_1" xmlns="http://www.w3.org/2000/svg" xmlns:xlink="http://www.w3.org/1999/xlink" x="0px" y="0px"
	 width="296.304px" height="177.096px" viewBox="152.001 316.78 296.304 177.096"
	 enable-background="new 152.001 316.78 296.304 177.096" xml:space="preserve">
<g id="Tire_2_4_">
	<path d="M244.593,492.355c0,0-11.116-6.612-13.396-19.106c0,0,2.755-19.782,21.741-18.757c0,0,12.94,5.521,16.274,16.85
		C272.575,482.667,244.593,492.355,244.593,492.355z"/>
	<path fill="#333333" d="M263.458,488.014c-6.685,6.334-15.789,7.752-20.347,3.188c-4.553-4.576-2.835-13.419,3.84-19.75
		c6.685-6.333,15.789-7.751,20.347-3.187C271.854,472.835,270.138,481.677,263.458,488.014z"/>
	<path fill="#999999" d="M264.463,471.706c-3.343-3.356-10.021-2.313-14.924,2.34c-4.899,4.646-6.161,11.142-2.825,14.493
		c3.344,3.354,10.021,2.313,14.925-2.34C266.549,481.552,267.813,475.065,264.463,471.706z M259.446,484.591
		c-2.217,2.104-5.248,2.58-6.763,1.06c-1.516-1.521-0.938-4.46,1.28-6.564c2.218-2.104,5.248-2.581,6.763-1.056
		C262.247,479.543,261.67,482.49,259.446,484.591z"/>
	<path fill="#FFFFFF" d="M256.904,471.136c0,0,1.627,2.398,1.357,5.124l-1.519,0.154c0,0-0.063-4.305-1.223-5.248L256.904,471.136z"
		/>
	
		<animateTransform  type="translate" fill="remove" additive="replace" attributeName="transform" calcMode="linear" begin="0s" accumulate="none" attributeType="XML" restart="always" values="0,0;-1,1;0,0" repeatCount="indefinite" dur="1.5">
		</animateTransform>
</g>
<g id="Tire_2_3_">
	<path d="M399.684,431.411c0,0-12.378-3.75-17.593-15.331c0,0-2.076-19.864,16.604-23.429c0,0,13.887,2.25,19.844,12.446
		C424.521,415.285,399.684,431.411,399.684,431.411z"/>
	<path fill="#333333" d="M416.955,422.664c-4.968,7.756-13.465,11.316-18.986,7.979c-5.52-3.349-5.975-12.346-1.016-20.094
		c4.968-7.753,13.464-11.313,18.986-7.977C421.461,405.914,421.917,414.909,416.955,422.664z"/>
	<path fill="#999999" d="M414.015,406.593c-4.052-2.455-10.279,0.162-13.926,5.856c-3.642,5.686-3.305,12.295,0.738,14.746
		c4.051,2.454,10.283-0.162,13.926-5.855C418.403,415.648,418.072,409.052,414.015,406.593z M412.237,420.306
		c-1.646,2.575-4.479,3.769-6.313,2.649c-1.837-1.114-1.979-4.105-0.333-6.681c1.646-2.574,4.479-3.77,6.313-2.649
		C413.744,414.733,413.893,417.732,412.237,420.306z"/>
	<path fill="#FFFFFF" d="M406.54,407.854c0,0,2.155,1.938,2.548,4.649l-1.437,0.513c0,0-1.101-4.162-2.448-4.801L406.54,407.854z"/>
	
		<animateTransform  type="translate" fill="remove" additive="replace" attributeName="transform" calcMode="linear" begin="0s" accumulate="none" attributeType="XML" restart="always" values="0,0;-1,1;0,0" repeatCount="indefinite" dur="1">
		</animateTransform>
</g>
<polygon fill="#282828" points="448.297,371.084 441.361,374.224 441.361,382.752 448.297,380.085 "/>
<g>
	<path fill="#FFE600" d="M227.534,374.789c0,0-77.533,31.829-75.493,44.888l1.225,19.587l53.049,49.376
		c0,0,11.834,4.896,31.013,1.228c0,0-5.305-18.771,13.466-27.747c0,0,20.811-6.53,21.627,15.097L388.72,427.84
		c0,0-5.304-19.587,12.651-29.381c0,0,21.627-8.979,22.034,14.282c0,0,25.301-20.403,24.892-23.261v-24.075
		c0,0,0.409-6.529-4.487-10.609l-48.148-28.973c0,0-4.08,0-36.729,5.305c0,0-10.197-3.673-32.233-5.713
		c0,0-47.337,11.834-64.884,22.852L227.534,374.789z"/>
	<path fill="#2B2B2B" d="M264.26,349.081l45.704,28.973l-0.408,5.305c0,0-17.955,33.053-25.301,34.277
		c0,0-51.824-30.604-53.457-43.255l29.38-23.668L264.26,349.081z"/>
	<path fill="#475160" d="M263.852,349.896l44.479,28.565v4.08c0,0-17.546,32.238-24.892,33.054c0,0-50.192-28.973-51.824-41.215
		l28.563-23.668L263.852,349.896z"/>
	<path fill="#2B2B2B" d="M338.12,370.301l-22.036,9.385c0,0-23.668,35.501-23.668,37.542l2.856,0.814l44.072-19.995
		C338.936,398.457,340.159,372.749,338.12,370.301z"/>
	<path fill="#475160" d="M336.896,371.116l-22.037,8.569c0,0-22.443,35.502-22.443,37.542l2.04,0.815l43.664-19.587
		C337.712,398.457,339.345,373.156,336.896,371.116z"/>
	<path fill="#2B2B2B" d="M346.28,368.668c0,0,0.409-1.225-0.815,27.341l37.951-17.14l1.631-2.039l-16.729-17.548l-2.04,0.816
		L346.28,368.668z"/>
	<path fill="#475160" d="M345.057,368.668c0,0,1.637-1.632,0.408,26.932l36.729-16.73l1.632-2.039L367.5,359.69l-1.632,0.816
		L345.057,368.668z"/>
	<path fill="#2B2B2B" d="M329.55,325.821l45.297,24.484l3.267,1.633l30.194,7.753l-51.009-28.564
		C356.891,331.126,346.689,327.861,329.55,325.821z"/>
	<path fill="#475160" d="M328.326,325.821l45.296,24.484l3.264,1.633l29.381,7.345l-50.601-28.156
		C355.666,331.126,345.465,327.861,328.326,325.821z"/>
	<polygon fill="#2B2B2B" points="371.581,358.059 376.071,356.018 405.859,363.771 407.084,366.22 389.129,375.197 	"/>
	<polygon fill="#475160" points="371.172,358.467 375.254,356.018 404.227,363.771 405.859,366.22 388.72,374.789 	"/>
	<polygon opacity="0.3" fill="#EFEFEF" enable-background="new    " points="295.681,369.484 258.955,401.313 266.3,406.209 
		301.803,373.156 	"/>
	<polygon opacity="0.3" fill="#EFEFEF" enable-background="new    " points="293.232,367.852 254.874,398.864 256.506,399.681 
		294.049,368.668 	"/>
	<polygon opacity="0.3" fill="#EFEFEF" enable-background="new    " points="291.601,366.628 252.018,396.825 253.65,398.049 	"/>
	<path opacity="0.3" fill="#C6C6C5" enable-background="new    " d="M335.264,376.013c0,0-7.753,8.162-7.753,18.363
		c0,0-1.634,8.978-9.386,10.202c0,0-4.489,2.448-8.161,5.306l26.937-12.243C336.896,398.049,339.345,371.933,335.264,376.013z"/>
	<path opacity="0.3" fill="#C6C6C5" enable-background="new    " d="M365.461,363.771c0,0-8.57,4.896-6.122,15.098
		c0,0,3.265,2.448-1.225,8.162c-4.487,5.713-2.039,2.447-2.039,2.447l23.668-11.017l0.813-1.632
		C380.559,376.83,369.948,360.915,365.461,363.771z"/>
	<polygon fill="#6B6B6B" points="156.938,428.653 195.705,461.707 195.705,469.052 156.938,435.591 	"/>
	<polygon fill="#A3A2A2" points="158.163,431.918 192.848,461.3 192.439,467.828 158.163,438.039 	"/>
	<polygon fill="#6B6B6B" points="157.754,433.551 192.032,462.523 192.032,469.052 157.346,439.264 	"/>
	<path fill="#3F403F" d="M153.266,439.673l51.824,49.375c0,0,16.323,4.896,32.238,1.228c0,0-1.632-9.39,0.408-14.282l-2.448,0.409
		c0,0-19.587,2.444-28.973,0.403l-53.457-46.52L153.266,439.673z"/>
	<path fill="#3D3D3D" d="M194.072,460.892l11.426,4.488c0,0,6.121,2.448,15.915,0c0,0,2.449-0.408,2.449,1.224v9.799
		c0,0,0,1.225-1.633,1.632c0,0-13.874,1.632-18.363-2.041l-12.242-9.386C192.032,466.196,192.032,461.3,194.072,460.892z"/>
	<path fill="#A3A2A2" d="M194.072,458.851l11.426,4.489c0,0,6.121,2.448,15.915,0c0,0,2.449-0.409,2.449,1.229v9.793
		c0,0,0,1.225-1.633,1.632c0,0-13.874,1.634-18.363-2.039l-12.242-9.386C192.032,464.564,192.032,459.259,194.072,458.851z"/>
	<circle opacity="0.5" fill="#757576" enable-background="new    " cx="218.148" cy="471.501" r="2.449"/>
	<path stroke="#000000" stroke-width="0.1" stroke-miterlimit="10" d="M385.047,420.084l-115.482,48.968"/>
	<path fill="none" stroke="#000000" stroke-width="0.1" stroke-miterlimit="10" d="M408.308,359.282l22.443-8.161
		c4.897-1.225,10.61,2.04,10.61,2.04"/>
	<path fill="none" stroke="#000000" stroke-width="0.1" stroke-miterlimit="10" d="M345.465,396.009l-2.04,41.622"/>
	<path fill="none" stroke="#000000" stroke-width="0.1" stroke-miterlimit="10" d="M338.936,398.457l-2.854,42.439"/>
	<path fill="none" stroke="#000000" stroke-width="0.1" stroke-miterlimit="10" d="M280.582,464.564v-32.238l11.834-15.102"/>
	<path fill="none" stroke="#000000" stroke-width="0.1" stroke-miterlimit="10" d="M389.129,374.789v26.933
		c0,0-2.854,3.268-4.082,18.362"/>
	<path fill="none" stroke="#000000" stroke-width="0.1" stroke-miterlimit="10" d="M204.682,463.34
		c3.672-8.57,75.084-47.744,75.084-47.744"/>
	<path fill="none" stroke="#000000" stroke-width="0.1" stroke-miterlimit="10" d="M155.714,424.98
		c-2.448-16.322,76.309-45.707,76.309-45.707"/>
	<polygon fill="#F05123" points="264.668,458.035 270.788,454.77 270.788,458.035 264.668,460.892 	"/>
	<polygon fill="#F05123" points="417.338,386.011 423.458,382.746 423.458,386.011 417.338,388.867 	"/>
	<path fill="#333333" d="M325.877,414.78l9.795-4.082c0,0,0.407,0,0.815,0.813l-0.408,3.672L335.264,416l-9.387,3.264h-0.407v-4.076
		L325.877,414.78z"/>
	<path fill="#787878" d="M326.694,415.596l8.161-3.265c0,0,0.404,0,0.813,0.408v2.444l-0.408,0.408l-7.753,2.857H327.1L326.696,416
		L326.694,415.596L326.694,415.596z"/>
	<path fill="#333333" d="M376.886,397.233l9.795-4.083c0,0,0.407,0,0.815,0.815l-0.815,3.673l-0.813,0.816l-8.979,3.265h-0.813
		v-4.081L376.886,397.233z"/>
	<path fill="#787878" d="M377.702,397.641l8.162-3.265c0,0,0.407,0,0.813,0.408v2.449l-1.225,0.403l-7.754,2.857h-0.408
		l-0.408-2.449L377.702,397.641z"/>
	<path opacity="0.3" fill="#FFFFFF" enable-background="new    " d="M380.151,411.107c0,0-7.35,5.712-8.57,10.604
		c0,0,0,2.45-13.467,6.122l-6.528,4.08l30.196-11.834c0,0,0.409-11.02,2.854-11.833L380.151,411.107z"/>
	<path opacity="0.3" fill="#FFFFFF" enable-background="new    " d="M289.968,447.425c0,0,8.979-0.813,13.874,2.041
		c0,0,1.633,1.632,13.874-4.896l7.754-1.637l-30.604,11.834c0,0-7.754-7.752-10.202-6.937L289.968,447.425z"/>
	<path opacity="0.2" fill="#F7F7F7" enable-background="new    " d="M209.986,467.42c0,0-5.304,2.448-5.304,5.305
		c0,0,2.448,1.637,5.304,0C209.986,472.725,205.498,473.133,209.986,467.42z"/>
	<polygon fill="#A3A2A2" points="209.986,478.438 209.986,490.271 212.436,490.681 212.436,478.438 	"/>
	<path fill="#3F403F" d="M419.732,400.905l28.563-15.099v2.856c0,0,0,1.633-2.039,4.081l-22.853,19.995
		C423.405,413.146,422.181,400.905,419.732,400.905z"/>
	<g>
		<path fill="#3A3A3A" d="M286.499,350.847l9.688-20.996c0,0,1.876-4.542,4.463-4.832l30.329-8.134c0,0,2.956-1.053,4.727,3.52
			l9.763,25.814l-43.781,16.436L286.499,350.847z"/>
		<path fill="#191919" d="M283.69,351.748l12.914-22.776c0,0,2.266-3.535,3.414-3.795c0,0,3.791-0.979,2.678,7.652l-1.013,29.827
			L283.69,351.748z"/>
	</g>
	
		<text transform="matrix(0.8011 -0.2205 0.1982 0.9802 310.8965 345.9038)" fill="#FFE600" font-family="'Calibri'" font-size="17.1982">TAXI</text>
	
		<animateTransform  type="translate" fill="remove" additive="replace" attributeName="transform" calcMode="linear" begin="0s" accumulate="none" attributeType="XML" restart="always" values="0,0;-1,-1;0,0" repeatCount="indefinite" dur="1">
		</animateTransform>
	<g>
		<polygon fill="none" points="334.502,425.493 334.502,425.493 334.504,425.505 343.214,422.305 334.489,425.412 		"/>
		<polygon fill="none" points="372.079,423.797 380.768,420.355 372.066,423.705 		"/>
		<polygon fill="none" points="336.234,437.021 344.922,433.579 336.222,436.93 		"/>
		<polygon fill="none" points="370.349,412.27 370.349,412.27 370.351,412.279 379.063,409.082 370.336,412.188 		"/>
		<polygon fill="none" points="298.664,438.765 298.663,438.765 298.664,438.771 307.376,435.573 298.651,438.68 		"/>
		<polygon fill="none" points="300.396,450.29 309.081,446.846 300.383,450.197 		"/>
		<polygon fill="#E2E2E2" points="300.098,449.533 299.536,445.819 299.374,444.752 290.649,447.857 290.593,447.486 
			290.514,447.516 290.723,448.902 291.396,453.346 291.475,453.315 291.417,452.934 		"/>
		<polygon fill="#161616" points="300.223,450.358 300.396,450.29 300.383,450.197 309.081,446.846 308.223,441.168 
			308.223,441.168 299.326,444.435 299.362,444.671 299.362,444.671 298.689,440.226 298.479,438.84 298.664,438.771 
			298.663,438.765 289.79,442.182 289.976,443.414 290.593,447.486 290.649,447.857 299.374,444.752 299.536,445.819 
			300.098,449.533 291.417,452.934 291.475,453.315 291.625,454.319 292.299,459.412 301.313,455.625 300.186,451.66 		"/>
		<polygon fill="#E2E2E2" points="298.664,438.765 298.651,438.68 298.465,438.746 297.792,434.302 297.619,433.153 
			289.375,435.781 289.572,437.831 289.789,442.182 289.79,442.182 298.663,438.765 		"/>
		<polygon fill="#E2E2E2" points="290.846,447.895 290.858,447.977 290.859,447.977 290,442.298 280.764,445.412 280.582,446.887 
			280.582,451.477 280.582,451.477 281.95,451.159 		"/>
		<polygon fill="#161616" points="290.521,447.833 281.625,451.099 280.582,451.477 280.779,453.346 280.779,456.931 
			291.381,453.512 290.534,447.916 		"/>
		<polygon fill="#161616" points="280.582,438.746 280.582,441.192 280.582,445.75 290,442.298 289.375,435.781 		"/>
		<polygon fill="#E2E2E2" points="280.779,456.931 280.779,458.762 280.582,464.564 292.014,459.533 291.381,453.512 		"/>
		<polygon fill="#E2E2E2" points="317.902,442.829 317.181,438.048 308.35,441.192 308.294,440.823 308.214,440.854 
			308.424,442.237 309.098,446.682 309.176,446.651 309.118,446.268 		"/>
		<polygon fill="#161616" points="317.181,438.048 317.262,438.02 316.367,432.097 316.367,432.097 316.367,432.099 
			307.491,435.518 307.468,435.364 307.468,435.364 307.677,436.749 308.294,440.823 308.35,441.192 		"/>
		<polygon fill="#161616" points="317.902,442.829 309.118,446.268 309.176,446.651 309.327,447.653 310,452.098 318.76,448.484 
			317.984,442.797 		"/>
		<polygon fill="#E2E2E2" points="316.367,432.099 316.367,432.097 315.507,426.42 306.608,429.688 306.818,431.071 
			307.468,435.364 307.491,435.518 		"/>
		<polygon fill="#E2E2E2" points="298.479,438.84 298.689,440.226 299.362,444.671 299.362,444.671 299.326,444.435 
			308.223,441.168 307.376,435.573 298.664,438.771 		"/>
		<polygon fill="#161616" points="298.465,438.746 298.651,438.68 307.376,435.573 306.479,429.649 297.583,432.918 
			297.619,433.153 297.792,434.302 		"/>
		<polygon fill="#E2E2E2" points="300.396,450.29 300.223,450.358 300.186,451.66 300.734,455.283 300.859,456.105 310,452.098 
			309.081,446.846 		"/>
		<polygon fill="#E2E2E2" points="335.936,436.266 335.373,432.552 335.21,431.484 326.484,434.59 326.429,434.223 326.351,434.251 
			326.563,435.634 327.234,440.078 327.311,440.049 327.253,439.665 		"/>
		<polygon fill="#161616" points="336.059,437.092 336.234,437.021 336.222,436.93 344.922,433.579 344.063,427.899 
			344.063,427.899 335.163,431.166 334.525,426.957 334.317,425.573 334.504,425.505 334.502,425.493 334.502,425.493 
			334.502,425.494 325.628,428.913 325.604,428.76 325.604,428.761 325.814,430.145 326.429,434.223 326.484,434.59 335.21,431.484 
			335.373,432.552 335.936,436.266 327.253,439.665 327.311,440.049 327.462,441.049 328.138,444.752 336.573,442.015 
			336.023,438.395 		"/>
		<polygon fill="#E2E2E2" points="334.502,425.494 334.502,425.493 334.489,425.412 334.303,425.479 333.63,421.033 
			333.456,419.884 324.745,423.083 324.953,424.467 325.604,428.76 325.628,428.913 		"/>
		<polygon fill="#E2E2E2" points="326.371,434.65 326.373,434.649 325.514,428.971 316.618,432.238 316.826,433.622 
			317.464,437.831 326.358,434.564 		"/>
		<polygon fill="#161616" points="326.358,434.564 317.464,437.831 317.462,437.832 317.673,439.217 318.346,443.662 
			327.22,440.244 326.371,434.65 		"/>
		<polygon fill="#161616" points="315.721,426.314 315.932,427.7 316.604,432.145 325.514,428.971 324.616,423.049 		"/>
		<polygon fill="#E2E2E2" points="318.36,443.755 318.324,445.059 318.76,448.484 328.138,444.752 327.22,440.244 		"/>
		<polygon fill="#E2E2E2" points="353.741,429.561 353.018,424.781 344.188,427.925 344.131,427.554 344.052,427.583 
			344.262,428.969 344.935,433.413 345.013,433.383 344.955,432.999 		"/>
		<polygon fill="#161616" points="353.018,424.781 353.099,424.752 352.202,418.831 352.202,418.831 352.202,418.832 
			343.329,422.248 343.516,423.48 344.131,427.554 344.188,427.925 		"/>
		<polygon fill="#161616" points="353.741,429.561 344.955,432.999 345.013,433.383 345.164,434.384 345.838,438.829 
			354.598,435.216 353.821,429.529 		"/>
		<polygon fill="#E2E2E2" points="352.202,418.831 351.342,413.152 342.445,416.418 342.657,417.803 343.328,422.248 
			343.329,422.248 352.202,418.832 		"/>
		<polygon fill="#E2E2E2" points="334.317,425.573 334.525,426.957 335.163,431.166 344.063,427.899 343.214,422.305 
			334.504,425.505 		"/>
		<polygon fill="#161616" points="334.303,425.479 334.489,425.412 343.214,422.305 342.319,416.382 333.421,419.65 
			333.456,419.884 333.63,421.033 		"/>
		<polygon fill="#E2E2E2" points="336.234,437.021 336.059,437.092 336.023,438.395 336.573,442.015 336.573,442.015 
			345.838,438.829 344.922,433.579 		"/>
		<polygon fill="#E2E2E2" points="371.782,423.043 371.219,419.328 371.058,418.259 362.333,421.365 362.277,420.995 
			362.198,421.024 362.406,422.409 363.081,426.855 363.158,426.826 363.1,426.44 		"/>
		<polygon fill="#161616" points="371.906,423.865 372.079,423.797 372.066,423.705 380.768,420.355 379.907,414.676 
			379.907,414.676 371.011,417.941 370.373,413.733 370.164,412.348 370.351,412.279 370.349,412.27 370.349,412.27 
			370.349,412.271 361.473,415.688 361.449,415.535 361.449,415.535 361.658,416.921 362.277,420.995 362.333,421.365 
			371.058,418.259 371.219,419.328 371.782,423.043 363.1,426.44 363.158,426.826 363.31,427.824 363.98,431.896 372.419,428.791 
			371.872,425.171 		"/>
		<polygon fill="#E2E2E2" points="370.349,412.271 370.349,412.27 370.336,412.188 370.149,412.254 369.479,407.809 369.301,406.66 
			360.591,409.86 360.8,411.243 361.449,415.535 361.473,415.688 		"/>
		<polygon fill="#E2E2E2" points="362.205,421.341 361.359,415.747 352.464,419.013 352.674,420.398 353.346,424.843 
			353.346,424.843 353.311,424.607 		"/>
		<polygon fill="#161616" points="362.205,421.341 353.311,424.607 353.346,424.843 353.518,425.992 354.19,430.438 
			363.063,427.021 362.206,421.341 		"/>
		<polygon fill="#161616" points="351.567,413.09 351.779,414.474 352.45,418.919 361.359,415.747 360.463,409.824 		"/>
		<polygon fill="#E2E2E2" points="354.208,430.531 354.17,431.836 354.598,435.216 363.98,431.896 363.063,427.021 		"/>
		<polygon fill="#E2E2E2" points="388.162,416.895 389.488,412.031 380.033,414.701 379.979,414.331 379.896,414.36 
			380.107,415.746 380.78,420.189 380.858,420.159 380.8,419.776 		"/>
		<polygon fill="#161616" points="389.488,412.031 389.488,411.174 388.049,405.604 388.049,405.604 388.049,405.607 
			379.174,409.025 379.362,410.257 379.979,414.331 380.033,414.701 		"/>
		<polygon fill="#161616" points="388.162,416.895 388.162,416.895 380.8,419.776 380.858,420.159 381.011,421.16 381.683,424.843 
			388.049,422.557 		"/>
		<polygon fill="#E2E2E2" points="388.049,405.604 387.191,399.927 378.292,403.194 378.5,404.578 379.173,409.025 379.174,409.025 
			388.049,405.607 		"/>
		<polygon fill="#E2E2E2" points="370.164,412.348 370.373,413.733 371.011,417.941 379.907,414.676 379.063,409.082 
			370.351,412.279 		"/>
		<polygon fill="#161616" points="370.149,412.254 370.336,412.188 379.063,409.082 378.165,403.159 369.265,406.426 
			369.301,406.66 369.479,407.809 		"/>
		<polygon fill="#E2E2E2" points="372.079,423.797 371.906,423.865 371.872,425.171 372.419,428.791 372.419,428.791 
			381.683,424.843 380.768,420.355 		"/>
	</g>
</g>
<polygon fill="#51586B" points="448.297,371.724 442.061,374.789 442.061,383.392 448.297,380.725 "/>
<polygon fill="#919191" points="448.297,376.918 439.762,381.311 439.469,390.535 448.297,385.92 "/>
<polygon fill="#C1C1C1" points="448.297,380.085 440.563,384.066 440.337,390.149 448.297,385.807 "/>
<image display="none" overflow="visible" enable-background="new    " width="143" height="108" xlink:href="../../../../../References/white-commercial-delivery-truck-isolated-on-a-white-background_156402191.jpg"  transform="matrix(-2.582 0 0 2.582 478.3672 256.5781)">
</image>
</svg>
