<?xml version="1.0" encoding="utf-8"?>
<!-- Generator: Adobe Illustrator 16.0.0, SVG Export Plug-In . SVG Version: 6.00 Build 0)  -->
<!DOCTYPE svg PUBLIC "-//W3C//DTD SVG 1.1//EN" "http://www.w3.org/Graphics/SVG/1.1/DTD/svg11.dtd">
<svg version="1.1" id="Layer_1" xmlns="http://www.w3.org/2000/svg" xmlns:xlink="http://www.w3.org/1999/xlink" x="0px" y="0px"
	 width="74.876px" height="60.065px" viewBox="12.791 20.763 74.876 60.065" enable-background="new 12.791 20.763 74.876 60.065"
	 xml:space="preserve">
<image display="none" overflow="visible" enable-background="new    " width="929" height="636" id="_x33_DTruck_x5F_smoke_x5F_W_x5F_crop_xA0_Image" xlink:href="../Car/D7489592.png"  transform="matrix(0.1002 0 0 0.0945 5.459 26.3477)">
</image>
<image display="none" overflow="visible" enable-background="new    " width="1300" height="866" xlink:href="../../../../../References/6054809-A-Big-Yellow-and-White-Semi-Trailer-Truck-Stock-Photo-trailer.jpg"  transform="matrix(0.0459 0 0 0.0459 21.2998 28.1152)">
</image>
<g>
	<g>
		<g id="Tire_Mid_Back_2">
			<path fill="#141318" d="M72.391,51.316c-0.431,1.35-1.74,2.617-2.933,2.824c-1.185,0.213-1.798-0.717-1.369-2.065
				c0.431-1.349,1.74-2.617,2.933-2.823C72.205,49.044,72.82,49.967,72.391,51.316z"/>
			<path fill="#121332" d="M72.617,51.507c-0.422,1.341-1.719,2.601-2.893,2.808c-1.176,0.209-1.781-0.715-1.361-2.064
				c0.422-1.341,1.719-2.6,2.894-2.808C72.43,49.238,73.04,50.157,72.617,51.507z"/>
			<path fill="#141318" d="M72.98,51.68c-0.43,1.348-1.739,2.616-2.932,2.822c-1.184,0.214-1.798-0.716-1.369-2.064
				c0.43-1.35,1.74-2.618,2.932-2.823C72.791,49.408,73.41,50.33,72.98,51.68z"/>
			<path fill="#121332" d="M73.203,51.869c-0.421,1.341-1.719,2.6-2.893,2.808c-1.176,0.208-1.781-0.716-1.36-2.065
				c0.421-1.34,1.718-2.599,2.893-2.807C73.02,49.598,73.626,50.527,73.203,51.869z"/>
			<path fill="#141318" d="M73.482,52.001c-0.431,1.349-1.748,2.61-2.933,2.823c-1.184,0.214-1.798-0.717-1.368-2.065
				c0.428-1.349,1.739-2.617,2.932-2.823C73.295,49.728,73.911,50.652,73.482,52.001z"/>
			<path fill="#121332" d="M73.706,52.193c-0.421,1.341-1.718,2.6-2.894,2.808c-1.174,0.208-1.78-0.716-1.359-2.065
				c0.421-1.34,1.718-2.6,2.893-2.808C73.521,49.92,74.129,50.842,73.706,52.193z"/>
			<path fill="#141318" d="M73.775,52.292c-0.405,1.334-1.658,2.572-2.795,2.772c-1.133,0.199-1.726-0.715-1.32-2.049
				c0.406-1.334,1.658-2.572,2.795-2.771C73.589,50.047,74.184,50.958,73.775,52.292z"/>
			<path fill="#121332" d="M73.494,52.427c-0.344,1.126-1.396,2.173-2.355,2.339c-0.959,0.172-1.459-0.607-1.113-1.726
				c0.343-1.126,1.396-2.173,2.355-2.338C73.339,50.529,73.838,51.309,73.494,52.427z"/>
			<path fill="#CDCCCC" d="M73.122,52.402c-0.276,0.902-1.124,1.736-1.894,1.875c-0.769,0.139-1.176-0.483-0.9-1.387
				c0.277-0.902,1.124-1.736,1.893-1.875C72.991,50.886,73.389,51.501,73.122,52.402z"/>
			<path fill="#989898" d="M72.755,52.402c-0.223,0.731-0.907,1.408-1.53,1.519c-0.627,0.11-0.955-0.386-0.73-1.118
				c0.224-0.732,0.906-1.41,1.531-1.519C72.648,51.172,72.98,51.68,72.755,52.402z"/>
			<path fill="#CDCCCC" d="M72.451,52.507c-0.165,0.539-0.67,1.032-1.126,1.115c-0.456,0.073-0.697-0.296-0.531-0.829
				c0.165-0.539,0.67-1.032,1.126-1.115C72.376,51.594,72.613,51.964,72.451,52.507z"/>
			<g id="Tire_Mid_Back_2_Holes">
				<path fill="#010101" d="M71.925,52.547c-0.054,0.172-0.207,0.323-0.351,0.352c-0.146,0.02-0.223-0.09-0.172-0.26
					c0.055-0.173,0.207-0.324,0.352-0.352C71.889,52.266,71.975,52.378,71.925,52.547z"/>
				<path fill="#010101" d="M71.784,52.001c-0.034,0.095-0.115,0.179-0.195,0.19c-0.08,0.014-0.118-0.047-0.092-0.142
					c0.034-0.095,0.114-0.178,0.194-0.19C71.77,51.846,71.813,51.908,71.784,52.001z"/>
				<path fill="#010101" d="M72.334,52.052c-0.034,0.095-0.115,0.179-0.195,0.191s-0.125-0.048-0.092-0.142
					c0.034-0.096,0.115-0.179,0.195-0.191C72.32,51.898,72.359,51.959,72.334,52.052z"/>
				<path fill="#010101" d="M72.318,52.639c-0.033,0.096-0.114,0.178-0.194,0.191c-0.08,0.013-0.126-0.048-0.092-0.143
					s0.114-0.178,0.194-0.19C72.305,52.484,72.354,52.548,72.318,52.639z"/>
				<path fill="#010101" d="M71.791,53.158c-0.034,0.095-0.115,0.178-0.195,0.191c-0.08,0.012-0.125-0.049-0.092-0.143
					c0.034-0.096,0.115-0.178,0.195-0.191C71.777,53.001,71.823,53.064,71.791,53.158z"/>
				<path fill="#010101" d="M71.208,53.146c-0.034,0.095-0.115,0.178-0.194,0.19c-0.08,0.013-0.127-0.048-0.093-0.142
					c0.034-0.096,0.115-0.178,0.195-0.191C71.188,52.989,71.234,53.05,71.208,53.146z"/>
				<path fill="#010101" d="M71.221,52.568c-0.033,0.096-0.115,0.179-0.195,0.191c-0.08,0.014-0.125-0.048-0.092-0.142
					c0.034-0.095,0.115-0.179,0.195-0.191C71.201,52.415,71.247,52.477,71.221,52.568z"/>
			</g>
			
				<animateTransform  type="translate" fill="remove" additive="replace" attributeName="transform" calcMode="linear" begin="0s" accumulate="none" attributeType="XML" restart="always" values="0,0;0.1,0.1;0,0" repeatCount="indefinite" dur="1">
				</animateTransform>
		</g>
		<g id="Tire_Back">
			<path fill="#141318" d="M77.461,48.39c-0.43,1.349-1.74,2.617-2.932,2.823c-1.184,0.214-1.799-0.716-1.369-2.065
				c0.429-1.349,1.74-2.617,2.932-2.823C77.282,46.113,77.898,47.041,77.461,48.39z"/>
			<path fill="#121332" d="M77.686,48.576c-0.422,1.341-1.719,2.6-2.894,2.808s-1.78-0.716-1.36-2.065
				c0.422-1.341,1.719-2.6,2.894-2.808C77.5,46.303,78.107,47.233,77.686,48.576z"/>
			<path fill="#141318" d="M78.049,48.752c-0.43,1.349-1.74,2.617-2.932,2.823c-1.184,0.214-1.799-0.716-1.369-2.065
				c0.43-1.349,1.74-2.617,2.932-2.823C77.873,46.481,78.479,47.405,78.049,48.752z"/>
			<path fill="#121332" d="M78.282,48.936c-0.421,1.341-1.718,2.6-2.894,2.808c-1.175,0.208-1.781-0.717-1.359-2.065
				c0.421-1.341,1.718-2.6,2.893-2.808C78.091,46.665,78.697,47.595,78.282,48.936z"/>
			<path fill="#141318" d="M78.55,49.077c-0.43,1.349-1.739,2.616-2.932,2.823c-1.185,0.214-1.798-0.717-1.369-2.065
				c0.431-1.349,1.739-2.617,2.933-2.823C78.374,46.804,78.988,47.725,78.55,49.077z"/>
			<path fill="#121332" d="M78.786,49.26c-0.421,1.342-1.718,2.6-2.894,2.809c-1.175,0.207-1.781-0.717-1.359-2.065
				c0.421-1.341,1.718-2.6,2.893-2.808C78.592,46.987,79.2,47.917,78.786,49.26z"/>
			<path fill="#141318" d="M78.854,49.361c-0.406,1.334-1.66,2.573-2.795,2.772s-1.727-0.714-1.322-2.048
				c0.406-1.334,1.66-2.572,2.796-2.772C78.669,47.112,79.259,48.033,78.854,49.361z"/>
			<path fill="#121332" d="M78.574,49.494c-0.344,1.126-1.396,2.173-2.356,2.338c-0.958,0.173-1.459-0.607-1.112-1.725
				c0.343-1.126,1.396-2.173,2.355-2.338C78.418,47.604,78.917,48.367,78.574,49.494z"/>
			<path fill="#CDCCCC" d="M78.193,49.478c-0.277,0.902-1.125,1.735-1.894,1.874c-0.769,0.14-1.176-0.482-0.901-1.387
				c0.277-0.902,1.125-1.735,1.894-1.874C78.068,47.953,78.468,48.577,78.193,49.478z"/>
			<path fill="#989898" d="M77.832,49.469c-0.223,0.732-0.907,1.41-1.531,1.52c-0.626,0.109-0.953-0.387-0.73-1.118
				c0.225-0.732,0.908-1.41,1.531-1.519C77.725,48.249,78.057,48.737,77.832,49.469z"/>
			<path fill="#CDCCCC" d="M77.527,49.583c-0.164,0.539-0.67,1.032-1.125,1.115c-0.457,0.073-0.697-0.296-0.531-0.829
				c0.165-0.539,0.67-1.032,1.126-1.115C77.453,48.67,77.691,49.04,77.527,49.583z"/>
			<g id="Tire_Back_Holes">
				<path fill="#010101" d="M76.994,49.623c-0.055,0.172-0.207,0.323-0.352,0.351c-0.146,0.02-0.222-0.09-0.17-0.26
					c0.053-0.172,0.207-0.323,0.351-0.351C76.969,49.333,77.045,49.451,76.994,49.623z"/>
				<path fill="#010101" d="M76.855,49.077c-0.035,0.095-0.115,0.178-0.195,0.191s-0.118-0.048-0.092-0.142
					c0.033-0.095,0.115-0.178,0.195-0.191C76.843,48.92,76.881,48.981,76.855,49.077z"/>
				<path fill="#010101" d="M77.402,49.128c-0.033,0.095-0.114,0.178-0.194,0.191c-0.08,0.013-0.126-0.048-0.092-0.142
					c0.034-0.095,0.114-0.178,0.194-0.191C77.391,48.973,77.432,49.034,77.402,49.128z"/>
				<path fill="#010101" d="M77.391,49.708c-0.035,0.095-0.115,0.178-0.195,0.191s-0.127-0.046-0.092-0.142
					c0.033-0.095,0.114-0.178,0.194-0.191C77.378,49.551,77.415,49.615,77.391,49.708z"/>
				<path fill="#010101" d="M76.859,50.232c-0.034,0.095-0.115,0.178-0.195,0.191c-0.08,0.013-0.126-0.048-0.092-0.142
					c0.033-0.095,0.115-0.178,0.195-0.191C76.846,50.077,76.887,50.138,76.859,50.232z"/>
				<path fill="#010101" d="M76.277,50.219c-0.034,0.095-0.115,0.178-0.195,0.191c-0.08,0.013-0.126-0.048-0.092-0.142
					c0.033-0.095,0.115-0.178,0.195-0.191C76.266,50.064,76.305,50.126,76.277,50.219z"/>
				<path fill="#010101" d="M76.292,49.638c-0.034,0.095-0.115,0.178-0.194,0.191c-0.08,0.013-0.127-0.046-0.093-0.142
					c0.034-0.095,0.115-0.178,0.195-0.191C76.279,49.49,76.318,49.545,76.292,49.638z"/>
			</g>
			
				<animateTransform  type="translate" fill="remove" additive="replace" attributeName="transform" calcMode="linear" begin="0s" accumulate="none" attributeType="XML" restart="always" values="0,0;0.1,0.1;0,0" repeatCount="indefinite" dur="1">
				</animateTransform>
		</g>
		<g id="Tire_Mid_Back">
			<path fill="#141318" d="M66.918,54.387c-0.43,1.35-1.748,2.611-2.932,2.823c-1.185,0.214-1.799-0.716-1.369-2.065
				c0.43-1.349,1.74-2.617,2.932-2.822C66.742,52.116,67.355,53.038,66.918,54.387z"/>
			<path fill="#121332" d="M67.145,54.57c-0.42,1.341-1.718,2.6-2.893,2.808s-1.781-0.724-1.359-2.065
				c0.42-1.34,1.717-2.6,2.893-2.808C66.96,52.297,67.564,53.23,67.145,54.57z"/>
			<path fill="#141318" d="M67.508,54.749c-0.43,1.349-1.74,2.617-2.932,2.823c-1.184,0.214-1.799-0.717-1.369-2.065
				s1.74-2.616,2.932-2.823C67.328,52.479,67.945,53.402,67.508,54.749z"/>
			<path fill="#121332" d="M67.738,54.934c-0.42,1.34-1.717,2.6-2.893,2.808c-1.175,0.208-1.781-0.724-1.359-2.065
				c0.421-1.341,1.718-2.6,2.893-2.808C67.548,52.662,68.154,53.59,67.738,54.934z"/>
			<path fill="#141318" d="M68.009,55.07c-0.43,1.35-1.747,2.611-2.932,2.824s-1.798-0.717-1.369-2.065
				c0.431-1.349,1.74-2.617,2.933-2.823C67.831,52.801,68.439,53.723,68.009,55.07z"/>
			<path fill="#121332" d="M68.243,55.257c-0.421,1.341-1.718,2.601-2.894,2.808c-1.175,0.209-1.781-0.724-1.359-2.064
				c0.421-1.341,1.718-2.6,2.893-2.809C68.049,52.984,68.664,53.914,68.243,55.257z"/>
			<path fill="#141318" d="M68.313,55.355c-0.405,1.334-1.658,2.572-2.795,2.772c-1.134,0.199-1.726-0.714-1.32-2.048
				c0.406-1.334,1.658-2.572,2.795-2.771C68.126,53.109,68.718,54.029,68.313,55.355z"/>
			<path fill="#121332" d="M68.027,55.489c-0.342,1.126-1.396,2.173-2.355,2.338c-0.958,0.173-1.459-0.606-1.113-1.726
				c0.344-1.125,1.396-2.172,2.356-2.338C67.876,53.602,68.376,54.364,68.027,55.489z"/>
			<path fill="#CDCCCC" d="M67.65,55.473c-0.277,0.902-1.125,1.735-1.894,1.875c-0.769,0.139-1.176-0.483-0.901-1.388
				c0.277-0.901,1.125-1.735,1.894-1.874C67.525,53.95,67.925,54.574,67.65,55.473z"/>
			<path fill="#989898" d="M67.291,55.466c-0.223,0.732-0.908,1.408-1.531,1.519c-0.626,0.111-0.953-0.385-0.73-1.117
				c0.224-0.732,0.908-1.41,1.531-1.52C67.186,54.244,67.506,54.741,67.291,55.466z"/>
			<path fill="#CDCCCC" d="M66.988,55.575c-0.165,0.539-0.67,1.041-1.127,1.114c-0.455,0.074-0.696-0.289-0.53-0.828
				c0.165-0.539,0.67-1.032,1.126-1.115C66.912,54.664,67.15,55.037,66.988,55.575z"/>
			<g>
				<path fill="#010101" d="M66.453,55.618c-0.055,0.172-0.207,0.323-0.352,0.351c-0.146,0.021-0.222-0.09-0.17-0.26
					c0.053-0.172,0.207-0.323,0.351-0.352C66.426,55.33,66.505,55.448,66.453,55.618z"/>
				<path fill="#010101" d="M66.313,55.072c-0.035,0.095-0.115,0.178-0.195,0.191c-0.08,0.012-0.118-0.049-0.092-0.143
					c0.033-0.096,0.115-0.178,0.195-0.191C66.298,54.917,66.34,54.979,66.313,55.072z"/>
				<path fill="#010101" d="M66.859,55.122c-0.033,0.095-0.114,0.178-0.194,0.19c-0.08,0.014-0.118-0.047-0.092-0.142
					c0.034-0.095,0.114-0.178,0.194-0.19C66.848,54.966,66.885,55.031,66.859,55.122z"/>
				<path fill="#010101" d="M66.846,55.703c-0.035,0.095-0.115,0.178-0.195,0.191c-0.08,0.013-0.118-0.049-0.092-0.143
					c0.033-0.095,0.114-0.178,0.194-0.191C66.833,55.548,66.873,55.611,66.846,55.703z"/>
				<path fill="#010101" d="M66.318,56.229c-0.034,0.095-0.115,0.178-0.195,0.19s-0.118-0.048-0.092-0.142
					c0.033-0.096,0.115-0.178,0.195-0.191C66.305,56.074,66.344,56.135,66.318,56.229z"/>
				<path fill="#010101" d="M65.736,56.216c-0.034,0.095-0.115,0.179-0.195,0.191s-0.118-0.048-0.092-0.142
					c0.033-0.096,0.115-0.179,0.195-0.191C65.725,56.061,65.77,56.122,65.736,56.216z"/>
				<path fill="#010101" d="M65.749,55.643c-0.034,0.094-0.115,0.178-0.194,0.19c-0.08,0.013-0.119-0.048-0.093-0.142
					c0.034-0.096,0.115-0.178,0.195-0.191C65.736,55.486,65.775,55.54,65.749,55.643z"/>
			</g>
			
				<animateTransform  type="translate" fill="remove" additive="replace" attributeName="transform" calcMode="linear" begin="0s" accumulate="none" attributeType="XML" restart="always" values="0,0;0.1,0.1;0,0" repeatCount="indefinite" dur="1">
				</animateTransform>
		</g>
		<path fill="#333333" d="M47.769,67.021l-4.725-2.16l4.519-2.174l1.156,0.554l-0.134,1.356l-0.633,0.483
			C47.953,65.08,48.311,66.736,47.769,67.021z"/>
		<g id="Tire_Mid">
			<path fill="#141318" d="M46.014,66.264c-0.43,1.348-1.74,2.616-2.932,2.822c-1.184,0.214-1.798-0.716-1.369-2.064
				c0.429-1.35,1.74-2.617,2.932-2.823C45.836,63.995,46.443,64.914,46.014,66.264z"/>
			<path fill="#121332" d="M46.239,66.449c-0.421,1.341-1.718,2.6-2.893,2.808c-1.175,0.208-1.781-0.724-1.36-2.065
				c0.421-1.34,1.718-2.6,2.893-2.808C46.054,64.178,46.664,65.105,46.239,66.449z"/>
			<path fill="#141318" d="M46.602,66.628c-0.43,1.349-1.74,2.617-2.932,2.823c-1.184,0.214-1.798-0.717-1.369-2.065
				c0.43-1.349,1.74-2.616,2.932-2.823C46.424,64.357,47.038,65.277,46.602,66.628z"/>
			<path fill="#121332" d="M46.829,66.813c-0.421,1.342-1.718,2.601-2.893,2.809s-1.781-0.717-1.36-2.064
				c0.421-1.342,1.718-2.601,2.893-2.809C46.644,64.54,47.25,65.471,46.829,66.813z"/>
			<path fill="#141318" d="M47.103,66.95c-0.43,1.349-1.74,2.616-2.932,2.823c-1.184,0.213-1.798-0.717-1.369-2.065
				c0.43-1.349,1.74-2.617,2.932-2.823C46.927,64.677,47.542,65.6,47.103,66.95z"/>
			<path fill="#121332" d="M47.33,67.133c-0.421,1.342-1.718,2.6-2.893,2.809c-1.175,0.207-1.781-0.717-1.36-2.065
				c0.421-1.341,1.718-2.601,2.893-2.808C47.148,64.861,47.753,65.791,47.33,67.133z"/>
			<path fill="#141318" d="M47.407,67.234c-0.406,1.334-1.659,2.572-2.795,2.772c-1.134,0.199-1.726-0.714-1.321-2.048
				c0.406-1.334,1.659-2.572,2.795-2.771C47.222,64.986,47.815,65.909,47.407,67.234z"/>
			<path fill="#121332" d="M47.127,67.376c-0.343,1.118-1.396,2.165-2.356,2.338c-0.958,0.173-1.459-0.606-1.113-1.725
				c0.343-1.126,1.396-2.173,2.356-2.339C46.972,65.479,47.47,66.249,47.127,67.376z"/>
			<path fill="#CDCCCC" d="M46.746,67.352c-0.277,0.902-1.124,1.735-1.893,1.875c-0.778,0.139-1.176-0.485-0.901-1.388
				c0.277-0.901,1.124-1.735,1.893-1.874C46.621,65.829,47.021,66.45,46.746,67.352z"/>
			<path fill="#989898" d="M46.385,67.352c-0.223,0.731-0.907,1.409-1.531,1.519c-0.626,0.11-0.954-0.386-0.73-1.118
				c0.223-0.732,0.907-1.41,1.531-1.52C46.281,66.125,46.602,66.619,46.385,67.352z"/>
			<path fill="#CDCCCC" d="M46.082,67.456c-0.165,0.539-0.67,1.032-1.126,1.114c-0.456,0.074-0.697-0.289-0.531-0.828
				c0.165-0.539,0.67-1.032,1.126-1.115C46.006,66.543,46.245,66.913,46.082,67.456z"/>
			<g id="Tire_Mid_Hole">
				<path fill="#010101" d="M45.549,67.496c-0.054,0.172-0.207,0.322-0.351,0.352c-0.146,0.02-0.222-0.091-0.171-0.261
					c0.054-0.172,0.207-0.323,0.351-0.351C45.522,67.208,45.59,67.327,45.549,67.496z"/>
				<path fill="#010101" d="M45.408,66.95c-0.034,0.095-0.115,0.178-0.195,0.19c-0.08,0.014-0.117-0.048-0.092-0.141
					c0.034-0.096,0.115-0.178,0.195-0.191C45.396,66.793,45.434,66.857,45.408,66.95z"/>
				<path fill="#010101" d="M45.956,67.001c-0.034,0.095-0.115,0.179-0.195,0.19c-0.08,0.014-0.118-0.047-0.092-0.142
					c0.034-0.095,0.115-0.178,0.195-0.19C45.942,66.846,45.984,66.908,45.956,67.001z"/>
				<path fill="#010101" d="M45.943,67.584c-0.034,0.096-0.115,0.178-0.195,0.191c-0.08,0.013-0.118-0.049-0.092-0.143
					c0.034-0.095,0.115-0.178,0.195-0.191C45.929,67.427,45.969,67.49,45.943,67.584z"/>
				<path fill="#010101" d="M45.41,68.105c-0.034,0.095-0.115,0.178-0.195,0.19s-0.118-0.048-0.092-0.142
					c0.034-0.096,0.115-0.178,0.195-0.191C45.399,67.95,45.438,68.014,45.41,68.105z"/>
				<path fill="#010101" d="M44.83,68.092c-0.034,0.096-0.115,0.178-0.195,0.191c-0.08,0.013-0.118-0.049-0.092-0.143
					c0.034-0.095,0.115-0.178,0.195-0.19C44.821,67.938,44.858,67.999,44.83,68.092z"/>
				<path fill="#010101" d="M44.845,67.518c-0.034,0.096-0.115,0.178-0.195,0.191s-0.118-0.048-0.092-0.143
					c0.034-0.094,0.115-0.178,0.195-0.19S44.871,67.421,44.845,67.518z"/>
			</g>
			
				<animateTransform  type="translate" fill="remove" additive="replace" attributeName="transform" calcMode="linear" begin="0s" accumulate="none" attributeType="XML" restart="always" values="0,0;0.1,0.1;0,0" repeatCount="indefinite" dur="1">
				</animateTransform>
		</g>
		<polygon fill="#333333" points="31.322,75.721 26.651,72.907 33.11,66.072 37.601,67.165 34.381,69.857 32.805,70.87 
			32.034,73.863 		"/>
		<path fill="#333333" d="M47.683,64.503c0,0-0.635-0.737-2.034-0.922l-4.728,2.635l-0.077,3.21l0.957,0.611
			C41.801,70.037,43.401,63.294,47.683,64.503z"/>
		<path fill="#676867" d="M42.313,69.878c0,0,0.01-3.146,2.703-4.869c0,0,2.234-1.237,2.789,0.56c0,0,0.162,0.941-0.034,1.457
			l0.425-0.153c0,0,0.505-3.163-1.991-2.677c0,0-4.519,1.166-4.405,5.842L42.313,69.878z"/>
		<path fill="#BBB9BA" d="M31.62,69.703l9.564-3.414l1.288,0.79c0,0-0.804,0.626-0.67,3.122l-9.593,5.02
			C32.209,75.218,30.961,74.104,31.62,69.703z"/>
		<polygon fill="#989898" points="32.424,71.202 41.572,66.523 39.646,65.395 31.759,69.675 31.235,70.632 		"/>
		<polygon opacity="0.5" fill="#FFFFFF" enable-background="new    " points="32.775,72.156 42.474,67.078 42.287,66.96 
			32.603,72.098 		"/>
		<path fill="none" stroke="#676867" stroke-width="0.1" stroke-miterlimit="10" d="M33.145,72.348l4.273-2.258
			c0,0,0.28-0.056,0.298,0.162l-0.039,1.645c0,0,0.012,0.203-0.197,0.258l-4.378,2.255c0,0-0.205-0.06-0.175-0.315l0.032-1.318
			C32.96,72.775,32.887,72.463,33.145,72.348z"/>
		<path fill="none" stroke="#676867" stroke-width="0.1" stroke-miterlimit="10" d="M38.111,69.784l3.152-1.644
			c0,0,0.28-0.057,0.298,0.161l-0.07,1.581c0,0,0.012,0.203-0.197,0.26l-3.226,1.711c0,0-0.205-0.059-0.175-0.314l0.032-1.318
			C37.926,70.221,37.862,69.918,38.111,69.784z"/>
		<polygon fill="#CDCCCC" points="33.093,73.886 37.301,71.721 37.489,71.842 33.168,74.139 		"/>
		<polygon fill="#CDCCCC" points="38.024,71.443 41.183,69.85 41.372,69.973 38.097,71.695 		"/>
		<polygon fill="#CDCCCC" points="60.764,56.036 60.719,57.873 61.021,57.88 61.427,57.609 61.426,55.686 		"/>
		<path opacity="0.3" fill="#CDCCCC" enable-background="new    " d="M50.906,47.524c0,0,0.509,3.35-0.949,6.46L50.906,47.524z"/>
		<g>
			<polygon fill="#333333" points="80.99,45.251 80.898,49.123 80.611,49.357 76.732,47.471 			"/>
			<polygon fill="#333333" points="82.6,44.474 85.948,42.607 85.857,46.485 85.491,46.795 82.348,45.049 82.357,44.631 			"/>
			<polygon fill="#333333" points="61.598,57.009 64.014,58.297 64.109,54.326 61.664,54.27 			"/>
			<g>
				<g>
					<g id="Container">
						<polygon fill="#E5E5E5" points="34.381,69.857 86.305,42.654 86.669,27.214 75.833,20.763 23.871,48.253 23.557,61.962 						
							"/>
						<polygon opacity="0.7" fill="#BBB9BA" enable-background="new    " points="23.854,48.912 34.572,55.064 34.284,67.23 
							23.588,60.604 						"/>
						<polygon opacity="0.7" fill="#BBB9BA" enable-background="new    " points="86.452,27.675 86.166,39.855 34.438,67.141 
							34.693,54.938 						"/>
						<path opacity="0.3" fill="#989898" enable-background="new    " d="M27.412,55.497c0,0,0.773-1.823,0.707-3.323L27.412,55.497
							z"/>
						<path opacity="0.3" fill="#CDCCCC" enable-background="new    " d="M27.348,55.463c0,0,0.004-1.783,0.7-3.314L27.348,55.463z"
							/>
						<path opacity="0.5" fill="#989898" enable-background="new    " d="M32.503,57.471c0,0,0.134-1.975-0.878-3.371L32.503,57.471
							z"/>
						<path opacity="0.5" fill="#CDCCCC" enable-background="new    " d="M32.486,57.41c0,0-0.823-1.594-0.91-3.266L32.486,57.41z"
							/>
						<path opacity="0.3" fill="#989898" enable-background="new    " d="M24.367,51.158c0,0,1.218,0.082,2.083-0.495L24.367,51.158
							z"/>
						<path opacity="0.3" fill="#CDCCCC" enable-background="new    " d="M24.367,51.091c0,0,1.043-0.614,2.076-0.506L24.367,51.091
							z"/>
						<path opacity="0.3" fill="#989898" enable-background="new    " d="M25.047,53.387c0,0,1.807-0.904,2.75-2.089L25.047,53.387z
							"/>
						<path opacity="0.3" fill="#CDCCCC" enable-background="new    " d="M25.025,53.326c0,0,1.188-1.365,2.733-2.092L25.025,53.326
							z"/>
						<path opacity="0.3" fill="#989898" enable-background="new    " d="M39.352,54.961c0,0-1.583,3.691-0.973,6.477L39.352,54.961
							z"/>
						<path opacity="0.3" fill="#CDCCCC" enable-background="new    " d="M39.537,54.997c0,0,0.509,3.351-0.949,6.46L39.537,54.997z
							"/>
						<path opacity="0.3" fill="#989898" enable-background="new    " d="M42.55,58.089c0,0-0.737,2.198-0.404,3.966L42.55,58.089z"
							/>
						<path opacity="0.3" fill="#CDCCCC" enable-background="new    " d="M42.644,58.114c0,0,0.293,2.12-0.387,3.96L42.644,58.114z"
							/>
						<path opacity="0.3" fill="#989898" enable-background="new    " d="M41.847,54.527c0,0-1.535,3.283-1.624,5.662L41.847,54.527
							z"/>
						<path opacity="0.3" fill="#CDCCCC" enable-background="new    " d="M41.95,54.547c0,0-0.226,2.876-1.598,5.646L41.95,54.547z"
							/>
						<path opacity="0.3" fill="#989898" enable-background="new    " d="M37.057,55.742c0,0-1.076,2.777-0.944,4.886L37.057,55.742
							z"/>
						<path opacity="0.3" fill="#CDCCCC" enable-background="new    " d="M37.146,55.768c0,0,0.042,2.531-0.929,4.877L37.146,55.768
							z"/>
						<path opacity="0.3" fill="#989898" enable-background="new    " d="M50.715,47.497c0,0-1.583,3.69-0.973,6.478L50.715,47.497z
							"/>
						<path opacity="0.3" fill="#989898" enable-background="new    " d="M55.342,50.666c0,0-0.736,2.198-0.404,3.966L55.342,50.666
							z"/>
						<path opacity="0.3" fill="#CDCCCC" enable-background="new    " d="M55.425,50.698c0,0,0.293,2.12-0.387,3.96L55.425,50.698z"
							/>
						<path opacity="0.3" fill="#989898" enable-background="new    " d="M54.637,47.105c0,0-1.535,3.282-1.623,5.663L54.637,47.105
							z"/>
						<path opacity="0.3" fill="#CDCCCC" enable-background="new    " d="M54.73,47.121c0,0-0.227,2.876-1.599,5.646L54.73,47.121z"
							/>
						<path opacity="0.3" fill="#989898" enable-background="new    " d="M62.909,40.68c0,0-1.583,3.691-0.974,6.477L62.909,40.68z"
							/>
						<path opacity="0.3" fill="#CDCCCC" enable-background="new    " d="M63.092,40.718c0,0,0.51,3.35-0.949,6.46L63.092,40.718z"
							/>
						<path opacity="0.3" fill="#989898" enable-background="new    " d="M67.525,43.851c0,0-0.737,2.198-0.404,3.966L67.525,43.851
							z"/>
						<path opacity="0.3" fill="#CDCCCC" enable-background="new    " d="M67.609,43.883c0,0,0.293,2.12-0.387,3.96L67.609,43.883z"
							/>
						<path opacity="0.3" fill="#989898" enable-background="new    " d="M66.82,40.288c0,0-1.535,3.282-1.625,5.662L66.82,40.288z"
							/>
						<path opacity="0.3" fill="#CDCCCC" enable-background="new    " d="M66.922,40.307c0,0-0.227,2.876-1.598,5.647L66.922,40.307
							z"/>
						<path opacity="0.3" fill="#989898" enable-background="new    " d="M76.536,34.137c0,0-1.583,3.691-0.974,6.477L76.536,34.137
							z"/>
						<path opacity="0.3" fill="#CDCCCC" enable-background="new    " d="M76.719,34.173c0,0,0.51,3.35-0.949,6.46L76.719,34.173z"
							/>
						<path opacity="0.3" fill="#989898" enable-background="new    " d="M81.152,37.307c0,0-0.737,2.198-0.404,3.966L81.152,37.307
							z"/>
						<path opacity="0.3" fill="#CDCCCC" enable-background="new    " d="M81.238,37.338c0,0,0.294,2.12-0.387,3.96L81.238,37.338z"
							/>
						<path opacity="0.3" fill="#989898" enable-background="new    " d="M80.45,33.743c0,0-1.535,3.282-1.624,5.662L80.45,33.743z"
							/>
						<path opacity="0.3" fill="#CDCCCC" enable-background="new    " d="M80.552,33.76c0,0-0.226,2.876-1.598,5.647L80.552,33.76z"
							/>
					</g>
					<polygon fill="#676867" points="35.243,67.159 44.217,62.42 44.213,62.624 35.239,67.328 					"/>
					<polygon fill="#676867" points="35.23,67.764 44.202,63.025 44.198,63.221 35.226,67.934 					"/>
					<polygon fill="#676867" points="35.215,68.369 44.189,63.624 44.183,63.825 35.211,68.532 					"/>
					<polygon fill="#676867" points="45.69,61.756 54.673,57.011 54.667,57.212 45.686,61.919 					"/>
					<polygon fill="#676867" points="45.675,62.354 54.658,57.617 54.652,57.818 45.671,62.525 					"/>
					<polygon fill="#676867" points="45.662,62.959 54.643,58.214 54.639,58.416 45.656,63.122 					"/>
					<polygon fill="#676867" points="55.936,56.417 64.912,51.68 64.908,51.873 55.932,56.588 					"/>
					<polygon fill="#676867" points="55.923,57.023 64.896,52.284 64.893,52.479 55.917,57.191 					"/>
					<polygon fill="#676867" points="55.908,57.62 64.884,52.882 64.878,53.083 55.904,57.79 					"/>
					<polygon fill="#676867" points="66.352,50.967 75.329,46.228 75.325,46.423 66.35,51.137 					"/>
					<polygon fill="#676867" points="66.34,51.573 75.314,46.835 75.311,47.025 66.334,51.743 					"/>
					<polygon fill="#676867" points="66.325,52.171 75.301,47.43 75.295,47.631 66.32,52.34 					"/>
					<polygon fill="#676867" points="76.777,45.545 85.752,40.8 85.746,41.003 76.773,45.708 					"/>
					<polygon fill="#676867" points="76.764,46.151 85.736,41.406 85.734,41.609 76.759,46.314 					"/>
					<polygon fill="#676867" points="76.75,46.748 85.725,42.004 85.719,42.207 76.746,46.912 					"/>
					<g>
						<polygon fill="#676867" points="38.551,64.986 38.291,65.13 38.287,65.309 38.548,65.165 						"/>
						<polygon fill="#676867" points="38.068,65.252 37.768,65.404 37.762,65.583 38.064,65.421 						"/>
						<polygon fill="#676867" points="39.751,64.355 39.454,64.521 39.45,64.697 39.747,64.542 						"/>
						<polygon fill="#676867" points="39.228,64.639 38.777,64.876 38.771,65.057 39.222,64.816 						"/>
						<polygon fill="#676867" points="37.543,65.525 37.13,65.74 37.127,65.921 37.539,65.695 						"/>
						<polygon fill="#676867" points="36.913,65.859 36.647,66.001 36.643,66.172 36.91,66.029 						"/>
						<polygon fill="#676867" points="36.118,66.441 36.424,66.283 36.43,66.114 36.124,66.277 						"/>
						<polygon fill="#676867" points="40.235,64.102 39.979,64.244 39.973,64.422 40.231,64.288 						"/>
						<polygon fill="#676867" points="43,62.643 42.694,62.805 42.691,63 42.997,62.836 						"/>
						<polygon fill="#676867" points="43.484,62.389 43.219,62.532 43.214,62.725 43.481,62.584 						"/>
						<polygon fill="#676867" points="35.905,66.389 35.38,66.673 35.376,66.836 35.901,66.559 						"/>
						<polygon fill="#676867" points="40.866,63.773 40.46,63.984 40.457,64.17 40.86,63.961 						"/>
						<polygon fill="#676867" points="43.703,62.27 43.697,62.471 44.35,62.127 44.354,61.926 						"/>
						<polygon fill="#676867" points="41.389,63.499 41.081,63.654 41.077,63.839 41.385,63.686 						"/>
						<polygon fill="#676867" points="42.478,62.919 42.091,63.126 42.088,63.314 42.472,63.111 						"/>
						<polygon fill="#676867" points="41.872,63.239 41.608,63.38 41.602,63.566 41.867,63.432 						"/>
					</g>
					<g>
						<polygon fill="#676867" points="48.877,59.622 48.61,59.757 48.607,59.936 48.873,59.8 						"/>
						<polygon fill="#676867" points="48.393,59.874 48.088,60.039 48.084,60.208 48.39,60.052 						"/>
						<polygon fill="#676867" points="50.079,58.988 49.773,59.145 49.769,59.331 50.075,59.169 						"/>
						<polygon fill="#676867" points="49.556,59.264 49.096,59.503 49.09,59.68 49.55,59.441 						"/>
						<polygon fill="#676867" points="47.871,60.152 47.458,60.372 47.455,60.543 47.867,60.33 						"/>
						<polygon fill="#676867" points="47.233,60.486 46.975,60.628 46.971,60.799 47.229,60.665 						"/>
						<polygon fill="#676867" points="46.446,61.073 46.743,60.917 46.749,60.747 46.452,60.902 						"/>
						<polygon fill="#676867" points="50.563,58.734 50.298,58.869 50.292,59.055 50.559,58.912 						"/>
						<polygon fill="#676867" points="53.32,57.273 53.023,57.432 53.02,57.625 53.316,57.469 						"/>
						<polygon fill="#676867" points="53.803,57.014 53.547,57.154 53.542,57.35 53.8,57.215 						"/>
						<polygon fill="#676867" points="46.224,61.02 45.699,61.298 45.695,61.461 46.22,61.191 						"/>
						<polygon fill="#676867" points="51.186,58.398 50.779,58.615 50.775,58.801 51.18,58.586 						"/>
						<polygon fill="#676867" points="54.029,56.902 54.023,57.096 54.678,56.754 54.682,56.561 						"/>
						<polygon fill="#676867" points="51.708,58.124 51.409,58.288 51.404,58.475 51.704,58.309 						"/>
						<polygon fill="#676867" points="52.797,57.552 52.417,57.75 52.414,57.945 52.791,57.745 						"/>
						<polygon fill="#676867" points="52.189,57.87 51.934,58.004 51.928,58.197 52.186,58.057 						"/>
					</g>
					<g>
						<polygon fill="#676867" points="59.12,54.205 58.859,54.346 58.854,54.525 59.113,54.383 						"/>
						<polygon fill="#676867" points="58.634,54.465 58.337,54.623 58.333,54.801 58.631,54.637 						"/>
						<polygon fill="#676867" points="60.32,53.573 60.023,53.734 60.018,53.913 60.314,53.758 						"/>
						<polygon fill="#676867" points="59.795,53.846 59.344,54.086 59.34,54.271 59.791,54.033 						"/>
						<polygon fill="#676867" points="58.111,54.743 57.699,54.958 57.695,55.13 58.105,54.912 						"/>
						<polygon fill="#676867" points="57.48,55.076 57.216,55.21 57.21,55.382 57.477,55.248 						"/>
						<polygon fill="#676867" points="56.688,55.654 56.993,55.499 56.997,55.33 56.691,55.486 						"/>
						<polygon fill="#676867" points="60.805,53.318 60.545,53.454 60.542,53.641 60.8,53.506 						"/>
						<polygon fill="#676867" points="63.568,51.859 63.264,52.023 63.258,52.21 63.564,52.055 						"/>
						<polygon fill="#676867" points="64.053,51.607 63.786,51.74 63.783,51.934 64.047,51.802 						"/>
						<polygon fill="#676867" points="56.477,55.605 55.949,55.881 55.945,56.05 56.471,55.777 						"/>
						<polygon fill="#676867" points="61.434,52.99 61.029,53.2 61.025,53.389 61.43,53.177 						"/>
						<polygon fill="#676867" points="64.27,51.486 64.266,51.682 64.919,51.346 64.925,51.145 						"/>
						<polygon fill="#676867" points="61.958,52.709 61.652,52.871 61.646,53.057 61.952,52.902 						"/>
						<polygon fill="#676867" points="63.044,52.135 62.658,52.335 62.652,52.527 63.041,52.327 						"/>
						<polygon fill="#676867" points="62.441,52.455 62.175,52.598 62.171,52.784 62.438,52.65 						"/>
					</g>
					<g>
						<polygon fill="#676867" points="69.542,48.817 69.277,48.958 69.273,49.136 69.538,48.995 						"/>
						<polygon fill="#676867" points="69.057,49.079 68.75,49.233 68.746,49.413 69.052,49.249 						"/>
						<polygon fill="#676867" points="70.743,48.183 70.438,48.349 70.434,48.527 70.74,48.369 						"/>
						<polygon fill="#676867" points="70.218,48.467 69.759,48.704 69.755,48.884 70.215,48.647 						"/>
						<polygon fill="#676867" points="68.533,49.352 68.121,49.568 68.117,49.74 68.529,49.524 						"/>
						<polygon fill="#676867" points="67.896,49.69 67.639,49.828 67.637,50 67.893,49.859 						"/>
						<polygon fill="#676867" points="67.111,50.269 67.41,50.113 67.414,49.942 67.113,50.106 						"/>
						<polygon fill="#676867" points="71.227,47.931 70.96,48.072 70.957,48.25 71.225,48.115 						"/>
						<polygon fill="#676867" points="73.984,46.471 73.688,46.633 73.682,46.828 73.979,46.664 						"/>
						<polygon fill="#676867" points="74.468,46.217 74.21,46.36 74.206,46.553 74.464,46.41 						"/>
						<polygon fill="#676867" points="66.889,50.217 66.363,50.501 66.359,50.664 66.885,50.389 						"/>
						<polygon fill="#676867" points="71.848,47.602 71.445,47.811 71.439,47.998 71.844,47.789 						"/>
						<polygon fill="#676867" points="74.693,46.097 74.688,46.301 75.336,45.957 75.34,45.756 						"/>
						<polygon fill="#676867" points="72.373,47.327 72.073,47.485 72.066,47.671 72.369,47.513 						"/>
						<polygon fill="#676867" points="73.459,46.746 73.082,46.955 73.076,47.14 73.456,46.941 						"/>
						<polygon fill="#676867" points="72.855,47.066 72.596,47.207 72.592,47.394 72.854,47.259 						"/>
					</g>
					<g>
						<polygon fill="#676867" points="79.96,43.274 79.702,43.415 79.699,43.586 79.957,43.452 						"/>
						<polygon fill="#676867" points="79.479,43.526 79.18,43.692 79.174,43.862 79.473,43.704 						"/>
						<polygon fill="#676867" points="81.162,42.64 80.865,42.796 80.861,42.982 81.158,42.818 						"/>
						<polygon fill="#676867" points="80.639,42.915 80.186,43.154 80.182,43.332 80.633,43.093 						"/>
						<polygon fill="#676867" points="78.954,43.801 78.542,44.025 78.538,44.197 78.95,43.981 						"/>
						<polygon fill="#676867" points="78.325,44.145 78.059,44.279 78.055,44.451 78.32,44.316 						"/>
						<polygon fill="#676867" points="77.529,44.726 77.835,44.568 77.839,44.396 77.533,44.554 						"/>
						<polygon fill="#676867" points="81.646,42.388 81.389,42.52 81.382,42.709 81.643,42.566 						"/>
						<polygon fill="#676867" points="84.412,40.928 84.105,41.084 84.102,41.277 84.408,41.121 						"/>
						<polygon fill="#676867" points="84.895,40.674 84.631,40.806 84.625,41.001 84.893,40.869 						"/>
						<polygon fill="#676867" points="77.316,44.674 76.791,44.947 76.787,45.119 77.313,44.846 						"/>
						<polygon fill="#676867" points="82.275,42.053 81.871,42.268 81.866,42.455 82.27,42.239 						"/>
						<polygon fill="#676867" points="85.113,40.554 85.109,40.747 85.762,40.406 85.766,40.211 						"/>
						<polygon fill="#676867" points="82.798,41.775 82.492,41.94 82.488,42.126 82.794,41.962 						"/>
						<polygon fill="#676867" points="83.887,41.201 83.5,41.404 83.495,41.599 83.883,41.396 						"/>
						<polygon fill="#676867" points="83.281,41.523 83.018,41.658 83.012,41.851 83.277,41.71 						"/>
					</g>
				</g>
				<polygon fill="#1E2C32" points="31.554,68.279 34.381,69.857 86.305,42.654 86.443,40.227 86.014,40.528 85.971,42.335 
					76.076,47.666 76.18,45.532 75.643,45.761 75.59,47.95 65.758,52.986 65.807,50.891 65.218,51.135 65.273,53.311 55.493,58.332 
					55.542,56.253 54.826,56.604 54.775,58.718 45.17,63.841 45.219,61.82 44.574,62.118 44.573,64.182 35.007,69.102 
					35.037,66.789 34.284,67.23 31.46,65.404 				"/>
			</g>
			<polygon fill="#333333" points="50.373,61.359 50.337,62.898 50.773,63.079 50.758,63.669 50.313,63.898 50.309,64.063 
				50.874,64.486 51.662,64.163 51.669,63.837 51.41,63.684 51.423,63.094 51.689,62.945 51.744,60.671 			"/>
			<polygon fill="#989898" points="61.116,55.936 61.021,57.88 60.719,57.873 60.764,56.036 			"/>
			<polygon fill="#CDCCCC" points="53.333,61.404 53.3,62.826 53.732,63.176 62.4,58.57 62.314,57.025 62.043,56.8 			"/>
			<polygon fill="#989898" points="53.333,61.404 53.768,61.607 53.732,63.176 53.296,62.996 			"/>
			<polygon fill="#FFFFFF" points="53.768,61.607 62.314,57.025 53.764,61.841 			"/>
			<polygon fill="#989898" points="53.813,59.709 54.176,59.498 54.125,61.617 53.768,61.607 			"/>
			
				<animateTransform  type="translate" fill="remove" additive="replace" attributeName="transform" calcMode="linear" begin="0s" accumulate="none" attributeType="XML" restart="always" values="0,0;-0.1,-0.2;0,0" repeatCount="indefinite" dur="1">
				</animateTransform>
		</g>
		<g id="Tire">
			<path fill="#141318" d="M29.832,75.041c-0.43,1.35-1.74,2.617-2.932,2.823c-1.184,0.214-1.798-0.716-1.369-2.065
				c0.43-1.349,1.74-2.617,2.932-2.822C29.656,72.77,30.262,73.7,29.832,75.041z"/>
			<path fill="#121332" d="M30.059,75.232c-0.421,1.342-1.718,2.601-2.893,2.809s-1.781-0.716-1.36-2.064
				c0.421-1.342,1.718-2.601,2.893-2.809C29.872,72.962,30.482,73.884,30.059,75.232z"/>
			<path fill="#141318" d="M30.423,75.404c-0.43,1.35-1.74,2.617-2.932,2.824c-1.184,0.213-1.798-0.717-1.369-2.065
				c0.43-1.349,1.74-2.617,2.932-2.823C30.242,73.132,30.852,74.064,30.423,75.404z"/>
			<path fill="#121332" d="M30.645,75.598c-0.421,1.34-1.718,2.6-2.893,2.807c-1.175,0.209-1.781-0.715-1.36-2.064
				c0.421-1.341,1.718-2.6,2.893-2.808C30.463,73.324,31.068,74.254,30.645,75.598z"/>
			<path fill="#141318" d="M30.924,75.725c-0.43,1.35-1.74,2.617-2.932,2.823c-1.184,0.214-1.798-0.716-1.369-2.065
				c0.429-1.349,1.74-2.616,2.932-2.822C30.746,73.455,31.354,74.376,30.924,75.725z"/>
			<path fill="#121332" d="M31.149,75.917c-0.421,1.341-1.718,2.601-2.893,2.808c-1.175,0.209-1.781-0.716-1.36-2.064
				c0.421-1.342,1.718-2.6,2.893-2.809C30.964,73.646,31.572,74.577,31.149,75.917z"/>
			<path fill="#141318" d="M31.219,76.02c-0.406,1.334-1.659,2.571-2.795,2.771c-1.134,0.199-1.726-0.714-1.321-2.048
				c0.406-1.334,1.659-2.572,2.795-2.772C31.04,73.771,31.633,74.686,31.219,76.02z"/>
			<path fill="#121332" d="M30.937,76.15c-0.343,1.127-1.396,2.174-2.356,2.339c-0.958,0.173-1.459-0.607-1.113-1.726
				c0.343-1.125,1.396-2.173,2.356-2.338C30.781,74.264,31.28,75.033,30.937,76.15z"/>
			<path fill="#CDCCCC" d="M30.565,76.127c-0.277,0.902-1.124,1.734-1.893,1.874c-0.778,0.14-1.176-0.483-0.901-1.387
				c0.277-0.902,1.124-1.735,1.893-1.874C30.433,74.613,30.84,75.234,30.565,76.127z"/>
			<path fill="#989898" d="M30.206,76.129c-0.223,0.732-0.907,1.41-1.531,1.52c-0.626,0.109-0.954-0.387-0.73-1.119
				c0.224-0.731,0.907-1.409,1.531-1.519C30.099,74.9,30.423,75.404,30.206,76.129z"/>
			<path fill="#CDCCCC" d="M29.893,76.234c-0.165,0.539-0.67,1.031-1.126,1.115c-0.456,0.073-0.697-0.291-0.531-0.83
				c0.165-0.539,0.67-1.031,1.126-1.115C29.827,75.327,30.065,75.699,29.893,76.234z"/>
			<g id="Tire_Hole">
				<path fill="#010101" d="M29.368,76.282c-0.054,0.172-0.207,0.323-0.351,0.351c-0.146,0.02-0.222-0.09-0.171-0.26
					c0.054-0.172,0.207-0.323,0.351-0.352C29.341,75.994,29.41,76.109,29.368,76.282z"/>
				<path fill="#010101" d="M29.226,75.734c-0.034,0.095-0.115,0.178-0.195,0.19c-0.08,0.013-0.118-0.048-0.092-0.142
					c0.034-0.096,0.115-0.178,0.195-0.191C29.215,75.579,29.254,75.641,29.226,75.734z"/>
				<path fill="#010101" d="M29.777,75.785c-0.034,0.095-0.115,0.178-0.195,0.191c-0.08,0.013-0.118-0.049-0.092-0.143
					c0.034-0.095,0.115-0.178,0.195-0.191C29.763,75.63,29.802,75.693,29.777,75.785z"/>
				<path fill="#010101" d="M29.761,76.368c-0.034,0.095-0.115,0.178-0.195,0.19c-0.08,0.014-0.118-0.048-0.092-0.142
					c0.034-0.095,0.115-0.178,0.195-0.19C29.748,76.213,29.789,76.273,29.761,76.368z"/>
				<path fill="#010101" d="M29.233,76.882c-0.034,0.095-0.115,0.179-0.195,0.191s-0.118-0.048-0.092-0.142
					c0.034-0.096,0.115-0.179,0.195-0.191C29.219,76.729,29.259,76.791,29.233,76.882z"/>
				<path fill="#010101" d="M28.65,76.87c-0.034,0.095-0.115,0.178-0.195,0.19c-0.08,0.014-0.118-0.047-0.092-0.142
					c0.034-0.095,0.115-0.178,0.195-0.19C28.639,76.715,28.676,76.777,28.65,76.87z"/>
				<path fill="#010101" d="M28.663,76.296c-0.034,0.095-0.115,0.179-0.195,0.19c-0.08,0.014-0.118-0.047-0.092-0.141
					c0.034-0.096,0.115-0.179,0.195-0.191C28.652,76.141,28.689,76.204,28.663,76.296z"/>
			</g>
		</g>
		<g id="Body">
			<path fill="#CDCCCC" d="M12.791,74.511l0.051-2.118c0,0-0.073-0.391,0.59-0.431l0.006-0.233l-0.288-0.239l0.112-4.755
				l0.922-3.938l-0.011-0.131l0.722-2.196l0.065-0.115c0,0,0.893-1.731,1.373-1.776l4.575-2.461l2.473-2.484l0.786,0.406
				l0.708-0.604l5.316,3.146l-0.024,1.009l1.728,1.046l-0.056,2.405c0,0,0.425,0.187,0.35,1.017l-0.322,7.887l0.414,0.295
				c0,0,0.207,0.051,0.171,0.494l-0.105,4.398l-1.024,0.574l0.016-1.581c0,0-0.269-1.063-0.762-1.438c0,0-0.442-0.164-0.821,0.061
				l-2.313,1.191c0,0-0.787,0.603-1.142,2.125c0,0-0.48,1.109-0.374,2.297l-3.472,1.607c0,0-0.178,0.121-0.753-0.148L12.791,74.511z
				"/>
			<path fill="#394A54" d="M13.341,70.051l0.043-1.808c0,0,0.06-0.216,0.36-0.109l7.586,4.493c0,0,0.357,0.124,0.381,0.73
				l-0.034,1.451c0,0,0.01,0.264-0.384,0.09l-0.651-0.401c0,0-0.157-0.133-0.282,0.135l-0.237,0.522c0,0-0.028,0.176-0.461-0.012
				l-4.658-2.766l-0.155-0.182L14.61,71.18c0,0,0.045-0.231-0.271-0.355l-0.808-0.444C13.532,70.379,13.333,70.297,13.341,70.051z"
				/>
			<path fill="#394A54" d="M14.254,75.096l0.034-1.421c0,0,0.069-0.248,0.304-0.071l5.758,3.295c0,0,0.283,0.162,0.211,0.547
				l-0.019,1.219c0,0-0.14,0.246-0.437-0.01l-5.795-3.428L14.254,75.096z"/>
			<path fill="#010101" d="M14.185,62.809l9.053,5.455c0,0,0.533,0.101,0.962-0.226l-0.661,3.416c0,0-0.304,0.692-1.154,0.596
				l-9.111-5.302L14.185,62.809z"/>
			<path fill="#1B555D" d="M14.187,62.811l8.976,5.275c0,0,0.527,0.348,0.956,0.021l-0.655,3.168c0,0-0.184,0.756-1.034,0.66
				l-9.152-5.312L14.187,62.811z"/>
			<path fill="#010101" d="M13.637,69.514l0.006-0.232c0,0,0.028-0.129,0.224,0.005l7.346,4.301c0,0,0.183,0.065,0.153,0.274
				l-0.004,0.132l-0.002,0.1l-7.651-4.463L13.637,69.514z"/>
			<path fill="#010101" d="M13.697,69.838l7.66,4.418l0.061,0.102l-0.006,0.232l-0.12-0.002l-7.486-4.406l-0.118-0.095
				C13.689,70.088,13.547,69.971,13.697,69.838z"/>
			<path fill="#010101" d="M14.891,71.287l0.08,0.002l0.096,0.002l4.888,2.77l0.131,0.176l-0.002,0.117l-0.002,0.092l-0.135-0.004
				l-0.183-0.004l-4.671-2.813C15.095,71.625,14.81,71.495,14.891,71.287z"/>
			<polygon fill="#010101" points="15.353,72.166 15.355,72.064 15.442,72.066 15.536,72.115 19.538,74.549 19.634,74.645 
				19.632,74.745 19.513,74.742 15.43,72.268 			"/>
			<polygon fill="#010101" points="14.691,73.889 20.196,77.148 20.251,77.227 20.19,77.381 20.11,77.38 14.594,74.184 
				14.535,74.072 14.537,73.947 			"/>
			<polygon fill="#010101" points="14.68,74.402 20.183,77.661 20.237,77.739 20.177,77.895 20.097,77.893 14.583,74.695 
				14.522,74.585 14.525,74.46 			"/>
			<polygon fill="#010101" points="14.682,74.915 20.189,78.172 20.242,78.252 20.183,78.404 20.103,78.402 14.587,75.199 
				14.528,75.098 14.53,74.964 			"/>
			<polygon fill="#FFFFFF" points="17.101,70.969 16.778,70.783 16.792,70.264 17.114,70.443 			"/>
			<polygon fill="#FFFFFF" points="17.508,71.219 17.186,71.043 17.199,70.521 17.521,70.698 			"/>
			<polygon fill="#FFFFFF" points="17.909,71.447 17.578,71.268 17.591,70.74 17.922,70.925 			"/>
			<polygon fill="#FFFFFF" points="18.34,71.691 18.012,71.512 18.025,70.991 18.354,71.169 			"/>
		</g>
		<polygon fill="#010101" points="24.797,67.432 24.143,70.816 28.276,68.805 28.351,65.646 		"/>
		<polygon fill="#193E45" points="24.788,67.391 24.143,70.777 28.18,68.764 28.253,65.698 		"/>
		<path fill="#171E1E" d="M14.17,62.826c0,0-0.165-0.029-0.121-0.26l0.282-0.812l0.12,0.002l8.993,5.322
			c0,0,0.394,0.164,1.018,0.062l-0.006,0.233l-0.104,0.744l-0.76,0.161c0,0-0.122,0.044-1.008-0.495L14.17,62.826z"/>
		<path fill="#303D44" d="M24.83,65.841l-0.2-0.003c0,0-0.403,0.225-0.896-0.197l-8.699-4.984c0,0-0.131-0.19-0.073-0.282
			c0,0-0.538,0.843-0.503,1.386l8.993,5.322c0,0,0.634,0.434,1.217,0.027L24.83,65.841z"/>
		<polygon fill="#303D44" points="24.58,66.844 31.536,63.193 31.527,63.6 24.466,67.26 		"/>
		<path opacity="0.5" fill="#669A9A" enable-background="new    " d="M13.326,66.561l0.072-0.408l4.547,2.686
			c0,0,0.583,0.229,1.547,0.273l0.488,0.244c0,0,2.066,1.343,2.67,1.316l0.183,0.004l-0.272,1.09c0,0-0.108,0.217-0.768-0.193
			L13.326,66.561z"/>
		<path opacity="0.5" fill="#188598" enable-background="new    " d="M14.13,63.105l3.353,1.998c0,0,0.036,0.896-0.285,1.664
			c0,0-0.353,0.862,0.03,2.145l-3.874-2.454l0.053-0.237L14.13,63.105z"/>
		<path opacity="0.5" fill="#188598" enable-background="new    " d="M20.493,70.697l1.58-2.846c0,0,0.08-0.076,0.278,0.006
			l0.604,0.408l-0.956,3.411L20.493,70.697z"/>
		<path opacity="0.5" fill="#188598" enable-background="new    " d="M23.106,68.494c0,0,0.088-0.401,0.293,0.007l-0.816,3.272
			c0,0-0.123,0.153-0.446-0.008L23.106,68.494z"/>
		<path fill="#010101" d="M24.366,71.131l0.002-0.1l0.207,0.006c0,0,0.493,0.384,0.716,0.352l0.04-0.336l0.222,0.105
			c0,0,0.03,0.422-0.29,0.451C25.263,71.611,24.835,71.555,24.366,71.131z"/>
		<path opacity="0.3" fill="#669A9A" enable-background="new    " d="M25.754,67.041c0,0,0.04,0.266-0.435,0.55l-0.182,0.229
			l-0.023,0.326l0.717,1.662l0.536-0.16l0.056-2.381c0,0-0.565,0.024-0.536-0.224L25.754,67.041L25.754,67.041z"/>
		<path fill="#3C4759" d="M24.961,68.334c0,0,0.054-0.139,0.158-0.198c0,0,0.875,0.408,1.029,0.683l-0.062,2.601l-0.111,0.036
			l-0.974-0.581L24.961,68.334z"/>
		<path fill="#25343E" d="M24.955,68.427c0,0,0.004-0.147,0.108-0.208c0,0,0.827,0.368,0.981,0.643l-0.062,2.6L25.88,71.46
			l-0.982-0.549L24.955,68.427z"/>
		<path fill="#010101" d="M24.665,67.581l0.004-0.172c0,0,0.364-0.209,0.969,0.495l-0.011,0.476l-0.141-0.05l-0.015-0.434
			C25.471,67.896,25.082,67.469,24.665,67.581z"/>
		<polygon fill="#FFFFFF" points="22.13,72.051 21.946,79.928 22.296,79.996 22.479,72.225 		"/>
		<path fill="#A2A1A2" d="M13.382,72.119l0.066-0.371l8.57,5.01c0,0,0.44,0.28,1.002,0.021l1.935-0.979c0,0,0.818-3.186,3.519-3.979
			c0,0-2.356,0.623-3.338,4.117l-2.617,1.238c0,0-0.26,0.196-0.927-0.23L13.382,72.119z"/>
		<path fill="#FFFFFF" d="M21.026,56.066l-1.901,1.899l5.654-4.353l-6.631,5.31l-0.155-0.135l-0.006,0.256l6.778,4.008
			c0,0,5.924-2.042,7.063-1.993c0,0,0.318,0.129,0.25,0.57c0,0-0.033-0.566-0.735-0.193l-5.624,3.104c0,0-0.728,0.535-0.891,1.292
			l-0.328,0.04l-0.343-0.007l-0.235-0.124c0,0,0.235,0.082,0.59-0.431c0,0,0.358-0.66,0.897-0.856l-0.67-0.015l-8.956-5.121
			c0,0-0.683,1.05-0.586,1.285c0,0-0.59,0.272,0.57-1.617l0.299-0.25L21.026,56.066z"/>
		<polygon fill="#FFFFFF" points="25.27,62.544 31.253,58.406 31.959,58.811 		"/>
		<polygon fill="#C2BFBF" points="25.183,62.542 30.181,56.598 30.153,57.76 		"/>
		<path fill="#989898" d="M17.994,59.036L18,58.779l6.776,4.088l2.09-0.83c0,0,3.728-1.756,4.079-1.398c0,0-0.261-0.078-6.173,2.407
			L17.994,59.036z"/>
		<polygon opacity="0.5" fill="#676867" enable-background="new    " points="24.014,72.925 31.396,69.105 31.382,69.791 
			23.997,73.661 		"/>
		<polygon opacity="0.5" fill="#FFFFFF" enable-background="new    " points="23.997,73.661 31.382,69.791 31.378,69.898 
			23.996,73.771 		"/>
		<polygon fill="#333333" points="27.381,71.309 27.374,71.658 28.218,71.216 28.227,70.869 		"/>
		<path fill="#676867" d="M31.411,65.111l-0.239-0.004l-1.596,0.888l-0.163,0.119l-0.086,3.63l0.224,0.005l1.854-1.031
			L31.411,65.111z M29.663,69.445l-0.191-0.004l0.075-3.164l0.137-0.104l1.397-0.777l0.207,0.006l-0.003,3.152L29.663,69.445z"/>
		<path fill="#676867" d="M31.075,65.868l-0.161-0.004l-1.074,0.597l-0.104,0.083l-0.058,2.445l0.152,0.004l1.252-0.693
			L31.075,65.868z M29.897,68.796l-0.126-0.004l0.05-2.134l0.098-0.077l0.937-0.522L31,66.063l-0.003,2.127L29.897,68.796z"/>
		<path fill="#FFFFFF" d="M22.348,77.795l3.224-1.621c0,0,0.669-2.398,1.625-3.091l5.185-2.711l0.061,0.118l-5.024,2.683
			c0,0-0.903,0.446-1.681,3.068l-3.393,1.702L22.348,77.795L22.348,77.795z"/>
		<polygon fill="#989898" points="32.436,72.033 32.775,72.156 32.71,74.934 32.389,75.09 		"/>
		
			<animateTransform  type="translate" fill="remove" additive="replace" attributeName="transform" calcMode="linear" begin="0s" accumulate="none" attributeType="XML" restart="always" values="0,0;1,-0.3;0,0" repeatCount="indefinite" dur="2">
			</animateTransform>
	</g>
</g>
</svg>
