<?xml version="1.0" encoding="utf-8"?>
<!-- Generator: Adobe Illustrator 16.0.0, SVG Export Plug-In . SVG Version: 6.00 Build 0)  -->
<!DOCTYPE svg PUBLIC "-//W3C//DTD SVG 1.1//EN" "http://www.w3.org/Graphics/SVG/1.1/DTD/svg11.dtd">
<svg version="1.1" id="Layer_1" xmlns="http://www.w3.org/2000/svg" xmlns:xlink="http://www.w3.org/1999/xlink" x="0px" y="0px"
	 width="36.685px" height="29.001px" viewBox="31.526 35.5 36.685 29.001" enable-background="new 31.526 35.5 36.685 29.001"
	 xml:space="preserve">
<polygon fill="#666666" points="64.407,52.266 64.407,54.559 61.134,53.77 "/>
<polygon points="64.407,52.457 64.407,54.505 64.629,54.559 64.629,52.266 "/>
<g id="Tire_2_2_">
	<path d="M61.984,57.052c0,0-1.643,0.103-2.785-0.95c0,0-1.143-2.094,0.92-3.261c0,0,1.755-0.33,2.924,0.541
		C64.215,54.252,61.984,57.052,61.984,57.052z"/>
	<path fill="#333333" d="M63.646,55.376c-0.242,1.058-1.092,1.801-1.9,1.664c-0.809-0.138-1.268-1.106-1.027-2.162
		c0.242-1.058,1.094-1.801,1.901-1.664C63.428,53.352,63.889,54.318,63.646,55.376z"/>
	<path fill="#999999" d="M62.572,53.734c-0.594-0.101-1.217,0.445-1.395,1.222c-0.177,0.774,0.161,1.485,0.754,1.587
		c0.592,0.102,1.217-0.445,1.394-1.221C63.503,54.546,63.166,53.836,62.572,53.734z M62.979,55.313
		c-0.08,0.352-0.362,0.6-0.631,0.554c-0.27-0.046-0.422-0.368-0.342-0.72c0.08-0.351,0.363-0.599,0.633-0.553
		C62.907,54.639,63.061,54.962,62.979,55.313z"/>
	<path fill="#FFFFFF" d="M61.738,54.184c0,0,0.345,0.123,0.514,0.404l-0.148,0.116c0,0-0.317-0.411-0.508-0.425L61.738,54.184z"/>
	
		<animateTransform  type="translate" fill="remove" additive="replace" attributeName="transform" calcMode="linear" begin="0s" accumulate="none" attributeType="XML" restart="always" values="0,0;0.1,0.1;0,0" repeatCount="indefinite" dur="1">
		</animateTransform>
</g>
<g id="container">
	<polygon fill="#333333" points="45.717,58.885 53.648,55.533 53.648,55.875 53.273,56.093 53.313,57.611 45.366,61.184 
		45.316,59.125 	"/>
	<polygon fill="#666666" points="47.092,59.631 55.025,56.279 55.025,56.62 54.65,56.839 54.688,58.357 46.742,61.928 46.692,59.87 
			"/>
	<path fill="#999999" d="M37.119,49.935v-6.027c0,0-0.116-1.037,0.467-1.455L56.07,35.5l0.594,0.176l10.889,4.211
		c0,0,0.955,0.049,0.563,1.068l-0.787,10.35l-19.226,8.202L37.119,49.935z"/>
	<polygon points="37.4,43.527 47.499,48.121 47.735,58.357 38.109,51.538 37.4,50.736 	"/>
	<polygon fill="#666666" points="37.708,43.909 47.328,48.335 47.538,57.934 37.974,51.245 37.283,50.495 	"/>
	<polygon fill="#333333" points="47.983,47.924 48.197,58.505 66.467,50.956 67.479,40.857 	"/>
	<polygon fill="#CCCCCC" points="48.149,48.092 48.356,58.357 66.32,50.934 67.316,41.004 	"/>
	
		<animateTransform  type="translate" fill="remove" additive="replace" attributeName="transform" calcMode="linear" begin="0s" accumulate="none" attributeType="XML" restart="always" values="0,0;-0.1,-0.2;0,0" repeatCount="indefinite" dur="1">
		</animateTransform>
</g>
<g>
	<path d="M46.626,62.143l-3.761-1.133c0,0,1.108-1.707,2.871-1.572C45.735,59.438,46.725,59.721,46.626,62.143z"/>
	<polygon points="47.46,59.882 54.075,57.061 47.46,60.064 	"/>
	<polygon points="54.075,57.13 54.075,58.251 47.895,60.965 54.01,58.188 	"/>
	<polygon fill="#999999" points="53.107,57.684 52.646,58.705 52.152,59.031 52.746,57.854 	"/>
	
		<animateTransform  type="translate" fill="remove" additive="replace" attributeName="transform" calcMode="linear" begin="0s" accumulate="none" attributeType="XML" restart="always" values="0,0;-0.1,-0.2;0,0" repeatCount="indefinite" dur="1">
		</animateTransform>
</g>
<g id="Tire_2_1_">
	<path d="M44.485,64.497c0,0-1.643,0.103-2.786-0.951c0,0-1.143-2.093,0.92-3.26c0,0,1.755-0.33,2.924,0.541
		C46.715,61.695,44.485,64.497,44.485,64.497z"/>
	<path fill="#333333" d="M46.147,62.82c-0.242,1.057-1.093,1.801-1.901,1.664c-0.808-0.139-1.268-1.106-1.027-2.162
		c0.242-1.057,1.093-1.801,1.901-1.664S46.388,61.764,46.147,62.82z"/>
	<path fill="#999999" d="M45.072,61.18c-0.593-0.102-1.217,0.444-1.394,1.221c-0.177,0.774,0.161,1.485,0.753,1.586
		c0.593,0.102,1.217-0.444,1.394-1.221C46.003,61.99,45.666,61.279,45.072,61.18z M45.479,62.757
		c-0.08,0.351-0.363,0.599-0.632,0.554c-0.269-0.047-0.421-0.369-0.341-0.72s0.363-0.599,0.632-0.553
		C45.407,62.083,45.56,62.406,45.479,62.757z"/>
	<path fill="#FFFFFF" d="M44.239,61.628c0,0,0.344,0.123,0.513,0.404l-0.148,0.116c0,0-0.318-0.412-0.508-0.426L44.239,61.628z"/>
	
		<animateTransform  type="translate" fill="remove" additive="replace" attributeName="transform" calcMode="linear" begin="0s" accumulate="none" attributeType="XML" restart="always" values="0,0;0.1,0.1;0,0" repeatCount="indefinite" dur="1">
		</animateTransform>
</g>
<image display="none" overflow="visible" enable-background="new    " width="143" height="108" xlink:href="../../../../../References/white-commercial-delivery-truck-isolated-on-a-white-background_156402191.jpg"  transform="matrix(-0.4219 0 0 0.4219 78.1631 27.2188)">
</image>
<g id="Body">
	<g>
		<path fill="#CCCCCC" d="M31.643,56.314v1.965c0,0,0.808,3.012,7.176,4.758c0,0,0.253,0.218,3.79-1.309
			c0,0,0.101-1.877,3.386-2.357l0.253-0.262c0,0,0.707-5.15-0.354-6.328l-0.859-0.524c0,0,0.354-1.877-0.707-2.226
			c0,0-0.606-2.924-1.213-3.055l-3.577-1.516l-2.69,3.699c0,0-0.808,0.262-1.971,1.353c0,0-1.768,0.35-2.021,1.223
			C32.856,51.732,32.097,52.518,31.643,56.314z"/>
		<path d="M31.643,56.314c0,0,0.072-2.825,1.365-4.932h0.354l6.418,3.623v0.262l-0.719,4.541c0,0-0.192,0.654-2.112,0
			C36.949,59.807,32.907,57.406,31.643,56.314z"/>
		<path fill="#333333" d="M31.725,56.212c0,0,0.055-2.763,1.308-4.676h0.303l6.28,3.487v0.236l-0.697,4.123c0,0-0.185,0.596-2.048,0
			C36.871,59.383,32.95,57.203,31.725,56.212z"/>
		<path d="M40.335,56.009l-0.556,3.099c0,0-0.253,0.961,0.556,0.524l3.942-3.055c0,0,0.405-0.218,0-2.009h-0.303
			C43.973,54.568,41.345,55.18,40.335,56.009z"/>
		<path opacity="0.5" fill="#666666" enable-background="new    " d="M40.563,55.956l-0.501,2.91c0,0-0.228,0.739,0.5,0.329
			l3.553-2.706c0,0,0.365-0.087,0-1.769l-0.319,0.022C43.797,54.743,41.474,55.177,40.563,55.956z"/>
		<path d="M32.435,58.061c0,0-0.049,0.336-0.015,0.698c0,0,1.498,1.746,4.277,2.837c0,0,0.388-0.291,0-0.785
			C36.696,60.811,34.439,60.023,32.435,58.061z"/>
		<path fill="#333333" d="M32.505,58.2c0,0-0.019,0.243,0.014,0.581c0,0,1.429,1.691,4.136,2.705c0,0,0.283-0.215-0.094-0.676
			C36.561,60.811,34.457,60.025,32.505,58.2z"/>
		<path fill="#333333" d="M32.349,58.878c0,0-0.047,0.326-0.014,0.681c0,0,1.457,1.7,4.16,2.765c0,0,0.377-0.284,0-0.767
			C36.496,61.557,34.3,60.792,32.349,58.878z"/>
		<path d="M41.472,55.398c0,0,0.84,0.274,1.011,1.637c0,0-0.508-0.219-0.469,0.283l-1.527-0.741v0.262l1.491,0.765l0.025,1.275
			l0.097,0.1h0.788l0.152-0.1v-1.516v-0.176l-0.354-0.152c0,0-0.126-1.295-1.036-1.702L41.472,55.398z"/>
		<path d="M32.056,53.857c0,0-0.682-1.603-0.245-2.476c0,0,0.295-0.058,0.366,0.349c0,0-0.212,0.821,0.098,1.299L32.056,53.857z"/>
		<path d="M31.703,58.247c0,0-0.075-0.078-0.177,0.349l0.025,1.118c0,0,4.599,3.888,6.586,4.323c0,0,1.81,0.466,4.021-0.729
			l0.224-0.145c0,0,0.539-2.778,3.369-3.368v-0.407c0,0-2.19,0.109-3.369,2.379l-3.504,1.236L38.511,62.9
			c0,0-3.081-0.408-6.175-3.555l-0.472-0.703L31.703,58.247z"/>
		<path opacity="0.75" fill="#999999" enable-background="new    " d="M36.868,62.421c0,0-0.341-0.437,1.209-1.179
			c0,0,1.263-0.131,1.768,0c0,0,0.236,0.117,0.219,0.451l-0.163,0.959c0,0-0.605,0.258-1.022,0.353
			C38.88,63.005,38.012,62.938,36.868,62.421z"/>
		<path fill="#FFFFFF" d="M39.594,61.824c0,0-0.055,0.887-0.533,0.945c0,0,0.913,0.131,0.681-0.814L39.594,61.824z"/>
		<path opacity="0.75" fill="#999999" enable-background="new    " d="M31.643,57.035c0,0,0.752,0.488,0.618,1.754l-0.043,0.297
			h-0.12c0,0-0.487-0.604-0.454-0.809C31.643,58.279,31.526,57.732,31.643,57.035z"/>
		<path fill="#FFFFFF" d="M31.933,57.727c0,0,0.27,0.732,0.066,0.947c0,0,0.408-0.191-0.01-0.787L31.933,57.727z"/>
		<path opacity="0.5" fill="#666666" enable-background="new    " d="M38.743,55.591c0,0-2.937,0.813-4.902,0
			c0,0,0.48-1.062,1.491-0.987c0,0-1.507-0.192-2.476,0.858c0,0,0.334-2.962,1.187-3.012l0.253-0.218l-1.087-0.502
			c0,0-1.162,1.724-1.276,4.451c0,0,4.223,2.838,4.935,3.012c0,0,1.799,0.568,1.875-0.108l0.531-3.346L38.743,55.591z"/>
		<path opacity="0.58" fill="#FFFFFF" enable-background="new    " d="M38.516,54.449c0,0-1.804,2.281-2.047,4.225v0.303
			c0,0,0.48,0.401,1.087,0.342c0,0,0.66-4.073,1.505-4.598L38.516,54.449z"/>
		<path opacity="0.58" fill="#FFFFFF" enable-background="new    " d="M38.402,54.449c0,0-1.857,2.158-2.072,4.429l0.048,0.099
			L36.054,58.8c0,0,0.73-2.67,2.234-4.35C38.289,54.449,38.402,54.449,38.402,54.449z"/>
		<path opacity="0.58" fill="#FFFFFF" enable-background="new    " d="M38.042,54.253c0,0-1.857,2.158-2.072,4.429l0.048,0.1
			l-0.324-0.178c0,0,0.73-2.67,2.234-4.35C37.929,54.253,38.042,54.253,38.042,54.253z"/>
		<path d="M39.538,45.458l3.577,1.516c0,0,0.32,0.087,0.388,0.48l0.489,2.459l-5.121,2.75l5.289-2.502c0,0,0.722-0.005,0.857,0.723
			l0.019,1.372c0,0,0.734,0.479,0.859,0.523c0,0,0.042,0.162,0.067,0.771l0.287,5.559l0.29-0.404l-0.177-5.63
			c0,0-0.051-0.524-1.029-0.892l0.015-1.16c0,0-0.145-1.037-0.97-1.081l-0.623-2.633c0,0-0.034-0.51-0.791-0.684
			C42.963,46.625,40.481,45.574,39.538,45.458z"/>
		<polygon points="37.076,48.851 35.711,50.729 36.672,49.229 		"/>
		<path d="M45.035,52.255l-4.548,1.603C40.486,53.857,45.01,52.539,45.035,52.255z"/>
		<path d="M39.616,53.412l-4.36-2.379C35.256,51.033,38.298,53.098,39.616,53.412z"/>
		<path d="M39.4,53.857l0.379-0.228c0,0,0.531,0.022,0.48,0.371l-0.428,0.251L39.4,53.857z"/>
		<path d="M33.867,51.033l0.506,0.218l0.354-0.218l-0.429-0.219C34.296,50.814,33.891,50.793,33.867,51.033z"/>
		<path opacity="0.7" fill="#FFFFFF" enable-background="new    " d="M44.456,51.251c0,0-3.077,1.235-3.617,1.586
			C40.841,52.837,43.96,51.828,44.456,51.251z"/>
		<path opacity="0.7" fill="#FFFFFF" enable-background="new    " d="M42.39,47.716c0,0-3.189,3.259-3.329,4.017
			C39.061,51.732,42.356,47.978,42.39,47.716z"/>
		<polygon opacity="0.7" fill="#FFFFFF" enable-background="new    " points="39.274,60.402 39.274,61.043 39.616,61.043 		"/>
		<polygon opacity="0.7" fill="#FFFFFF" enable-background="new    " points="38.869,63.371 38.869,64.123 39.4,64.116 
			39.445,63.047 38.869,63.225 		"/>
		<path opacity="0.65" fill="#666666" enable-background="new    " d="M42.305,55.441l0.623,1.076c0,0,0.741-0.145,0.506,0.307
			c0,0,0.758-0.32,0.69-0.975l-0.185-0.931C43.94,54.918,42.556,55.268,42.305,55.441z"/>
		<path d="M45.752,59.796c0,0,0.723,0.228,0.786,2.388l0.29-0.218c0,0-0.082-1.881-1.076-2.577V59.796z"/>
	</g>
	<polygon points="44.277,58.977 44.456,58.2 45.22,58.061 45.22,58.337 44.456,58.674 	"/>
</g>
</svg>
