<?xml version="1.0" encoding="utf-8"?>
<!-- Generator: Adobe Illustrator 16.0.0, SVG Export Plug-In . SVG Version: 6.00 Build 0)  -->
<!DOCTYPE svg PUBLIC "-//W3C//DTD SVG 1.1//EN" "http://www.w3.org/Graphics/SVG/1.1/DTD/svg11.dtd">
<svg version="1.1" id="Layer_1" xmlns="http://www.w3.org/2000/svg" xmlns:xlink="http://www.w3.org/1999/xlink" x="0px" y="0px"
	 width="100px" height="100px" viewBox="0 0 100 100" enable-background="new 0 0 100 100" xml:space="preserve">

	 <style type="text/css">
	  .arrow{fill:{{statusColor}};display:{{arrowDisplay}}}
	  .hourglass{fill:{{hourglassColor}};display:{{hourglassDisplay}}}
    .parking{display:{{parkingDisplay}};fill:{{parkingColor}}}
	 </style>
	}

<g transform="translate({{translateX}},0) scale({{scaleX}},1)">
	<path fill="#B2B2B2" d="M37.849,50.32l0.008,0.216l-0.008,0.004v0.065l2.593-1.529l-0.037-0.751l-2.557,1.507L37.849,50.32
		L37.849,50.32z M40.34,48.438l0.022,0.637l-0.195,0.114l-0.022-0.637L40.34,48.438z M40.058,48.598l0.022,0.638l-0.193,0.114
		l-0.024-0.637L40.058,48.598z M39.793,48.757l0.024,0.636l-0.196,0.114l-0.024-0.636L39.793,48.757z M39.512,48.916l0.023,0.637
		l-0.194,0.115l-0.023-0.637L39.512,48.916z M39.226,49.097l0.023,0.638l-0.193,0.114l-0.024-0.637L39.226,49.097z M38.944,49.258
		l0.024,0.637l-0.195,0.115l-0.023-0.637L38.944,49.258z M38.66,49.42l0.023,0.637l-0.193,0.114l-0.024-0.636L38.66,49.42z
		 M38.379,49.581l0.024,0.636l-0.194,0.115l-0.024-0.636L38.379,49.581z M38.114,49.739l0.023,0.636l-0.193,0.116l-0.025-0.638
		L38.114,49.739z"/>
	<path fill="#B2B2B2" d="M39.533,49.331l0.008,0.216l-0.008,0.004v0.067l2.593-1.532l-0.036-0.75l-2.558,1.508L39.533,49.331
		L39.533,49.331z M42.022,47.448l0.023,0.637l-0.196,0.114l-0.021-0.636L42.022,47.448z M41.742,47.609l0.022,0.637l-0.194,0.115
		l-0.024-0.637L41.742,47.609z M41.477,47.769l0.024,0.636l-0.196,0.114l-0.023-0.636L41.477,47.769z M41.195,47.928l0.024,0.637
		l-0.194,0.115l-0.024-0.636L41.195,47.928z M40.909,48.107l0.024,0.638l-0.194,0.115l-0.024-0.638L40.909,48.107z M40.628,48.269
		l0.024,0.637l-0.195,0.116l-0.023-0.639L40.628,48.269z M40.344,48.432l0.023,0.637l-0.193,0.113l-0.024-0.636L40.344,48.432z
		 M40.063,48.592l0.024,0.636l-0.194,0.115l-0.024-0.636L40.063,48.592z M39.798,48.751l0.023,0.635l-0.192,0.116l-0.025-0.638
		L39.798,48.751z"/>
	<path fill="#B2B2B2" d="M40.911,48.532l-0.003-0.139c-1.605-0.316-1.88,0.583-1.88,0.583v0.826
		c0.179-1.032,1.894-0.584,1.894-0.584l-0.007-0.445l-0.009,0.292l-0.376-0.063v-0.559C40.529,48.444,40.808,48.459,40.911,48.532z
		 M39.363,49.126c-0.119,0.097-0.268,0.243-0.268,0.243v-0.427c0-0.146,0.266-0.315,0.266-0.315L39.363,49.126z M39.856,49.036
		l-0.371,0.029l-0.021-0.439c0,0,0.296-0.222,0.392-0.144V49.036z M40.432,48.998h-0.457v-0.554c0,0,0.361-0.078,0.457,0V48.998z"/>
	<path fill="#727272" d="M31.127,57.133c0,0-0.389-3.367,14.771-11.208l19.827-10.95l8.471,4.859l-4.301,2.673l-1.645-1.312
		l1.548-0.899l0.011-1.19L49.186,50.977l-0.111,1.612c0,0-6.738,5.19-17.493,5.71C31.581,58.299,30.755,58.152,31.127,57.133z"/>
	<path fill="#B2B2B2" d="M65.854,34.328l-4.373,2.297l-0.01,0.761l4.381-2.303L65.854,34.328z M61.566,37.285l0.008-0.638
		l0.195-0.104l-0.004,0.637L61.566,37.285z M61.854,37.137l0.008-0.635l0.199-0.106l-0.009,0.637L61.854,37.137z M62.146,36.973
		l0.01-0.638l0.199-0.107l-0.008,0.638L62.146,36.973z M62.436,36.825l0.01-0.637l0.199-0.104l-0.008,0.638L62.436,36.825z
		 M62.709,36.681l0.007-0.638l0.2-0.106l-0.009,0.639L62.709,36.681z M62.998,36.534l0.008-0.638l0.199-0.105l-0.008,0.638
		L62.998,36.534z M63.279,36.382l0.008-0.637l0.199-0.109l-0.008,0.638L63.279,36.382z M63.568,36.235l0.008-0.637l0.199-0.105
		l-0.006,0.636L63.568,36.235z M63.863,36.068l0.007-0.638l0.2-0.104l-0.008,0.637L63.863,36.068z M64.15,35.923l0.008-0.638
		l0.199-0.106l-0.006,0.637L64.15,35.923z M64.424,35.778l0.008-0.637l0.2-0.106l-0.009,0.637L64.424,35.778z M64.711,35.63
		l0.008-0.637l0.201-0.105l-0.008,0.638L64.711,35.63z M65.001,35.48l0.008-0.637l0.197-0.106l-0.004,0.638L65.001,35.48z
		 M65.289,35.335l0.009-0.639l0.2-0.105l-0.01,0.638L65.289,35.335z M65.592,34.532l0.199-0.104l-0.006,0.636l-0.202,0.107
		L65.592,34.532z"/>
	<polygon fill="#AAAAAA" points="53.333,40.061 62.879,34.972 69.891,39.186 49.267,51.059 41.973,46.718 49.446,42.49 	"/>
	<path fill="#898989" d="M51.869,40.323l-9.901,5.513l-0.017,0.93l9.91-5.527L51.869,40.323z M42.288,46.513L42.06,46.64
		l0.014-0.777l0.227-0.129L42.288,46.513z M42.618,46.335l-0.228,0.128l0.013-0.777l0.228-0.127L42.618,46.335z M42.954,46.135
		l-0.229,0.128l0.013-0.778l0.229-0.127L42.954,46.135z M43.283,45.957l-0.229,0.127l0.014-0.777l0.228-0.127L43.283,45.957z
		 M43.594,45.782l-0.229,0.128l0.014-0.778l0.228-0.128L43.594,45.782z M43.923,45.604l-0.228,0.129l0.013-0.778l0.228-0.128
		L43.923,45.604z M44.245,45.42l-0.227,0.128l0.013-0.778l0.228-0.128L44.245,45.42z M44.574,45.243l-0.228,0.128l0.014-0.778
		l0.228-0.129L44.574,45.243z M44.911,45.042l-0.228,0.128l0.013-0.778l0.228-0.127L44.911,45.042z M45.24,44.865l-0.228,0.127
		l0.013-0.777l0.228-0.128L45.24,44.865z M45.551,44.69l-0.228,0.128l0.013-0.778l0.228-0.129L45.551,44.69z M45.881,44.512
		l-0.229,0.128l0.014-0.776l0.229-0.129L45.881,44.512z M46.209,44.332l-0.229,0.127l0.014-0.777l0.229-0.127L46.209,44.332z
		 M46.538,44.154l-0.228,0.128l0.014-0.778l0.228-0.128L46.538,44.154z M46.874,43.954l-0.227,0.127l0.013-0.777l0.228-0.127
		L46.874,43.954z M47.204,43.777l-0.228,0.127l0.013-0.777l0.229-0.128L47.204,43.777z M47.515,43.602l-0.228,0.128l0.014-0.778
		l0.229-0.128L47.515,43.602z M47.844,43.424l-0.228,0.128l0.013-0.778l0.228-0.127L47.844,43.424z M48.169,43.228l-0.228,0.128
		l0.013-0.778l0.228-0.127L48.169,43.228z M48.498,43.051l-0.228,0.127l0.013-0.777l0.229-0.128L48.498,43.051z M48.834,42.85
		l-0.228,0.127L48.62,42.2l0.228-0.129L48.834,42.85z M49.163,42.672L48.935,42.8l0.014-0.778l0.228-0.128L49.163,42.672z
		 M49.475,42.496l-0.228,0.129l0.013-0.779l0.229-0.127L49.475,42.496z M49.804,42.32l-0.229,0.127l0.014-0.777l0.228-0.128
		L49.804,42.32z M50.137,42.139l-0.228,0.129l0.012-0.779l0.229-0.127L50.137,42.139z M50.467,41.963l-0.229,0.128l0.014-0.778
		l0.229-0.127L50.467,41.963z M50.803,41.763l-0.228,0.127l0.013-0.777l0.229-0.128L50.803,41.763z M51.132,41.585l-0.229,0.127
		l0.015-0.777l0.229-0.128L51.132,41.585z M51.441,41.41l-0.228,0.128l0.013-0.778l0.229-0.127L51.441,41.41z M51.771,41.231
		l-0.229,0.129l0.014-0.778l0.229-0.127L51.771,41.231z"/>
	<path fill="#898989" d="M63.021,34.134l-10.037,5.258l-0.041,0.93l10.049-5.273L63.021,34.134z M53.288,40.077L53.057,40.2
		l0.032-0.777l0.229-0.123L53.288,40.077z M53.621,39.909l-0.23,0.122l0.032-0.777l0.229-0.121L53.621,39.909z M53.962,39.717
		l-0.231,0.122l0.035-0.778l0.229-0.121L53.962,39.717z M54.295,39.548l-0.23,0.121l0.033-0.776l0.23-0.123L54.295,39.548z
		 M54.609,39.381l-0.229,0.12l0.033-0.776l0.229-0.122L54.609,39.381z M54.943,39.212l-0.229,0.123l0.031-0.777l0.231-0.122
		L54.943,39.212z M55.271,39.036l-0.231,0.121l0.033-0.777l0.231-0.123L55.271,39.036z M55.605,38.866l-0.231,0.123l0.032-0.777
		l0.232-0.123L55.605,38.866z M55.945,38.674l-0.231,0.123l0.034-0.778l0.232-0.122L55.945,38.674z M56.279,38.506l-0.23,0.123
		l0.033-0.777l0.232-0.123L56.279,38.506z M56.596,38.338l-0.23,0.123l0.031-0.777l0.23-0.123L56.596,38.338z M56.93,38.17
		l-0.231,0.121l0.032-0.777l0.231-0.123L56.93,38.17z M57.264,37.998l-0.231,0.123l0.032-0.776l0.232-0.123L57.264,37.998z
		 M57.596,37.829l-0.229,0.123l0.032-0.778l0.23-0.122L57.596,37.829z M57.938,37.637l-0.23,0.122l0.033-0.778l0.23-0.121
		L57.938,37.637z M58.271,37.469l-0.23,0.121l0.031-0.777l0.232-0.122L58.271,37.469z M58.586,37.302l-0.23,0.121l0.033-0.777
		l0.23-0.122L58.586,37.302z M58.92,37.132l-0.232,0.123l0.035-0.777l0.23-0.123L58.92,37.132z M59.249,36.944l-0.229,0.122
		l0.031-0.777l0.232-0.122L59.249,36.944z M59.583,36.775l-0.229,0.121l0.033-0.777l0.229-0.123L59.583,36.775z M59.925,36.583
		l-0.229,0.123l0.031-0.777l0.232-0.123L59.925,36.583z M60.259,36.415l-0.231,0.122l0.033-0.777l0.23-0.122L60.259,36.415z
		 M60.573,36.247l-0.23,0.122l0.033-0.777l0.229-0.121L60.573,36.247z M60.907,36.078L60.675,36.2l0.034-0.777l0.23-0.122
		L60.907,36.078z M61.245,35.907l-0.231,0.122l0.033-0.777l0.23-0.121L61.245,35.907z M61.579,35.738l-0.231,0.122l0.032-0.777
		l0.231-0.123L61.579,35.738z M61.92,35.546l-0.23,0.122l0.033-0.777l0.23-0.123L61.92,35.546z M62.254,35.377L62.021,35.5
		l0.033-0.778l0.23-0.121L62.254,35.377z M62.568,35.21l-0.231,0.122l0.034-0.777l0.23-0.121L62.568,35.21z M62.902,35.041
		l-0.231,0.123l0.033-0.778l0.231-0.122L62.902,35.041z"/>
	<polygon fill="#777777" points="58.078,42.806 66.623,37.473 63.902,35.857 54.354,40.735 	"/>
	<polygon fill="#43484F" points="58.605,42.223 66.623,37.473 66.623,38.906 58.078,43.996 58.078,43.583 58.715,43.194 	"/>
	<path fill="#B2B2B2" d="M63.938,35.14l-8.744,4.422l-0.021,0.761l8.753-4.432L63.938,35.14z M55.469,40.12l-0.199,0.103
		l0.016-0.638l0.201-0.101L55.469,40.12z M55.762,39.979l-0.201,0.1l0.016-0.634l0.201-0.104L55.762,39.979z M56.057,39.815
		l-0.199,0.104l0.018-0.637l0.2-0.104L56.057,39.815z M56.348,39.676l-0.201,0.101l0.019-0.638l0.2-0.1L56.348,39.676z
		 M56.621,39.534l-0.201,0.102L56.438,39l0.201-0.103L56.621,39.534z M56.914,39.392l-0.202,0.103l0.019-0.639l0.199-0.102
		L56.914,39.392z M57.198,39.243l-0.201,0.104l0.017-0.637l0.201-0.105L57.198,39.243z M57.491,39.102l-0.203,0.102l0.017-0.637
		l0.201-0.102L57.491,39.102z M57.787,38.94l-0.202,0.101l0.017-0.637l0.203-0.102L57.787,38.94z M58.078,38.797l-0.203,0.104
		l0.018-0.638l0.203-0.104L58.078,38.797z M58.352,38.657l-0.201,0.104l0.018-0.637l0.2-0.103L58.352,38.657z M58.643,38.515
		l-0.203,0.101l0.018-0.637l0.202-0.103L58.643,38.515z M58.934,38.369l-0.201,0.103l0.016-0.636l0.201-0.104L58.934,38.369z
		 M59.225,38.229l-0.203,0.103l0.018-0.639l0.202-0.102L59.225,38.229z M59.521,38.066l-0.205,0.104l0.02-0.638l0.202-0.101
		L59.521,38.066z M59.813,37.925l-0.203,0.101l0.018-0.636l0.202-0.103L59.813,37.925z M60.086,37.784l-0.203,0.102L59.9,37.25
		l0.201-0.103L60.086,37.784z M60.378,37.642l-0.204,0.103l0.018-0.637l0.201-0.102L60.378,37.642z M60.664,37.483l-0.202,0.104
		l0.019-0.638l0.201-0.102L60.664,37.483z M60.955,37.341l-0.201,0.103l0.018-0.637l0.199-0.103L60.955,37.341z M61.252,37.18
		l-0.201,0.104l0.018-0.638l0.201-0.103L61.252,37.18z M61.542,37.037l-0.2,0.104l0.018-0.638l0.201-0.102L61.542,37.037z
		 M61.816,36.897L61.615,37l0.017-0.636l0.202-0.104L61.816,36.897z M62.107,36.756l-0.201,0.102l0.018-0.636l0.201-0.103
		L62.107,36.756z M62.402,36.612L62.2,36.714l0.017-0.637l0.201-0.102L62.402,36.612z M62.693,36.47l-0.202,0.103l0.017-0.638
		l0.202-0.102L62.693,36.47z M62.99,36.309l-0.201,0.102l0.018-0.635l0.199-0.104L62.99,36.309z M63.281,36.167l-0.203,0.103
		l0.016-0.637l0.204-0.103L63.281,36.167z M63.555,36.026l-0.201,0.103l0.017-0.637l0.203-0.103L63.555,36.026z M63.846,35.883
		l-0.203,0.102l0.02-0.636l0.201-0.102L63.846,35.883z"/>
	<polyline fill="#8E8E8E" points="41.938,44.773 42.838,45.284 42.838,47.232 41.973,46.718 41.878,48.257 47.494,50.212 
		47.575,51.686 49.154,52.67 49.267,51.059 47.891,50.24 47.843,48.321 49.033,48.953 58.824,43.194 58.824,42.344 44.66,43.826 
		41.938,43.875 41.938,44.701 	"/>
	<g>
		<polyline fill="#919191" points="62.152,39.125 60.124,40.267 58.891,37.412 59.65,36.926 60.999,37.764 62.152,39.089 		"/>
		<polygon fill="#727272" points="58.824,39.38 58.891,37.412 60.124,38.226 60.124,40.267 		"/>
	</g>
	<g>
		<g>
			<g>
				<path fill="#8795A0" d="M59.549,40.951l-0.604-8.821l-0.004-0.044l-0.153-0.119l0.052,1.41l0.012,0.277l0.012,0.348
					l-0.109-0.201l-0.09-0.167l-0.696-1.272l-0.032-0.771l-0.013-0.284l-0.116-0.089l-0.029,8.574l0.033,0.024l0.235,0.162
					l-0.032-0.905l0.367,0.548l0.084,0.126l0.318,0.477l0.017,0.022l0.063,0.097l0.142,0.21l0.103,0.152l0.304,0.208l0.095,0.067
					l0.051,0.033L59.549,40.951z M59.137,39.274l-0.117-0.177l-0.088-0.135l-0.17-0.257l-0.091-0.141l-0.319-0.488l-0.156-0.235
					l-0.219-0.337l0.354,0.164l0.243,0.112l0.501,0.231l0.021,0.408l0.008,0.155l0.008,0.174l0.014,0.23L59.137,39.274z
					 M57.949,35.936l0.136,0.229l0.121,0.208l0.179,0.3l0.135,0.225l0.178,0.301l0.137,0.232l0.216,0.367l-0.375-0.153l-0.245-0.1
					l-0.438-0.18l-0.005-0.21l-0.01-0.307l-0.006-0.164l-0.007-0.343L57.949,35.936z M57.945,34.264l0.132,0.217l0.108,0.183
					l0.162,0.272l0.11,0.183l0.166,0.277l0.146,0.24l0.158,0.267l-0.261-0.135l-0.222-0.116l-0.457-0.24V35.4l-0.01-0.244
					l-0.006-0.169l-0.014-0.337L57.945,34.264z M58.986,36.415l0.017,0.249l0.011,0.127l0.025,0.363l0.02,0.249l-0.093-0.15
					l-0.137-0.225l-0.134-0.216l-0.133-0.216l-0.234-0.383l-0.128-0.21l-0.22-0.36l0.334,0.199l0.203,0.124l0.455,0.271
					L58.986,36.415z M58.859,34.634l0.018,0.235l0.014,0.148l0.034,0.411l0.017,0.207l-0.073-0.132l-0.142-0.254l-0.119-0.219
					l-0.104-0.187l-0.198-0.359L58.199,34.3l-0.244-0.444l0.363,0.274l0.146,0.109l0.386,0.291L58.859,34.634z M58.568,33.768
					l0.092,0.174l0.18,0.346l-0.273-0.204l-0.144-0.106l-0.452-0.338l-0.021-1.058L58.568,33.768z M59.105,40.431l-0.139-0.218
					l-0.027-0.043l-0.006-0.01l-0.352-0.551L58.5,39.478l-0.262-0.413l-0.174-0.092l-0.021-0.012l-0.006-0.178l-0.004-0.054
					l-0.001-0.003l0.002,0.002l-0.009-0.221l-0.018-0.427L58,37.763l0.116,0.178l0.157,0.234l0.285,0.426l0.099,0.143l0.202,0.303
					l0.089,0.133l0.27,0.404l-0.423-0.225l-0.137-0.072l-0.42-0.224l0.386,0.265l0.123,0.086l0.463,0.317l0.022,0.296l0.02,0.231
					l0.038,0.463L59.105,40.431z"/>
				<polygon fill="none" points="55.801,38.568 55.779,38.8 55.943,39.052 56.23,38.778 				"/>
				<polygon fill="none" points="56.891,39.103 56.37,38.847 56.023,39.171 56.168,39.39 56.889,39.168 				"/>
				<polygon fill="none" points="57.164,33.76 57.209,33.047 56.501,33.902 56.568,34.027 				"/>
				<polygon fill="none" points="56.889,39.191 56.218,39.466 56.424,39.782 56.881,39.331 				"/>
				<polygon fill="none" points="56.829,40.4 56.863,39.684 56.551,39.976 				"/>
				<polygon fill="none" points="55.84,39.15 55.757,39.027 55.736,39.25 				"/>
				<polygon fill="none" points="56.029,39.432 55.919,39.268 55.605,39.562 				"/>
				<polygon fill="none" points="56.328,39.877 56.089,39.519 55.611,39.713 55.573,39.995 55.703,40.065 55.98,40.22 				"/>
				<polygon fill="none" points="56.895,34.638 57.123,34.38 57.146,34.004 56.67,34.219 				"/>
				<polygon fill="none" points="55.708,40.488 55.539,40.234 55.471,40.725 				"/>
				<polygon fill="none" points="57.977,37.503 58.193,37.84 58.329,37.667 				"/>
				<polygon fill="none" points="57.314,39.037 57.342,37.938 57.275,38 57.248,39.057 				"/>
				<polygon fill="none" points="59.102,38.573 58.762,38.703 58.932,38.961 59.109,38.747 				"/>
				<polygon fill="none" points="57.949,35.936 57.961,36.342 58.085,36.165 				"/>
				<polygon fill="none" points="57.348,37.711 57.352,37.569 57.285,37.585 57.281,37.775 				"/>
				<polygon fill="none" points="59.049,37.798 58.832,37.432 58.672,37.646 				"/>
				<polygon fill="none" points="59.072,38.011 58.57,37.78 58.35,38.075 58.67,38.563 59.093,38.419 				"/>
				<polygon fill="none" points="57.389,33.66 57.451,33.631 57.467,33.023 57.672,32.9 57.693,32.464 57.289,32.952 57.404,33.041 
									"/>
				<polygon fill="none" points="56.941,38.481 56.945,38.308 56.877,38.372 				"/>
				<polygon fill="none" points="57.082,34.987 57.096,34.79 57.02,34.87 				"/>
				<polygon fill="none" points="59.137,39.274 59.122,38.978 59.02,39.097 				"/>
				<polygon fill="none" points="56.997,36.662 56.998,36.575 56.967,36.608 				"/>
				<polygon fill="none" points="56.402,36.016 56.052,36.139 56.014,36.424 56.516,36.697 56.697,36.512 				"/>
				<polygon fill="none" points="56.837,36.368 57.002,36.2 57.005,35.806 56.607,35.946 				"/>
				<polygon fill="none" points="56.568,37.033 56.262,37.36 56.422,37.625 56.963,37.503 56.968,37.276 				"/>
				<polygon fill="none" points="57.986,37.366 58.426,37.546 58.695,37.199 58.518,36.897 57.98,37.156 				"/>
				<polygon fill="none" points="56.184,37.679 56.1,37.534 55.904,37.741 				"/>
				<polygon fill="none" points="56.885,38.884 56.689,38.548 56.509,38.717 				"/>
				<polygon fill="none" points="56.111,35.526 56.111,35.525 56.111,35.527 				"/>
				<polygon fill="none" points="56.896,40.727 56.454,40.066 56.175,40.328 				"/>
				<polygon fill="none" points="56.279,37.847 55.861,37.956 55.816,38.409 56.361,38.652 56.611,38.415 				"/>
				<polygon fill="none" points="56.254,35.766 56.221,35.708 56.129,35.803 				"/>
				<polygon fill="none" points="56.945,36.934 56.836,36.747 56.759,36.831 				"/>
				<polygon fill="none" points="56.796,38.238 56.952,38.09 56.96,37.67 56.521,37.785 				"/>
				<polygon fill="none" points="56.288,33.832 56.27,33.797 56.266,33.856 				"/>
				<polygon fill="none" points="56.861,41.897 56.873,40.878 56.135,40.366 55.982,40.508 				"/>
				<polygon fill="none" points="56.422,34.094 56.391,34.033 56.294,34.151 				"/>
				<polygon fill="none" points="55.957,40.243 55.703,40.065 55.871,40.33 				"/>
				<polygon fill="none" points="56.198,34.914 56.168,35.138 56.275,35.339 56.471,35.119 				"/>
				<polygon fill="none" points="56.652,35.255 56.384,35.536 56.475,35.7 57.007,35.539 57.007,35.522 				"/>
				<polygon fill="none" points="55.98,36.675 55.958,36.859 56.111,37.113 56.331,36.887 				"/>
				<polygon fill="none" points="56.232,34.684 56.607,34.964 56.771,34.779 56.521,34.288 56.273,34.398 				"/>
				<polygon fill="none" points="57.021,35.274 56.887,35.008 56.795,35.104 				"/>
				<polygon fill="none" points="55.949,37.279 55.91,37.215 55.896,37.333 				"/>
				<polygon fill="none" points="58.863,34.003 58.852,33.654 58.753,33.802 				"/>
				<polygon fill="none" points="58.939,40.168 58.968,40.211 59.055,40.107 				"/>
				<polygon fill="none" points="57.955,33.856 58.201,34.299 58.318,34.13 				"/>
				<polygon fill="none" points="58.305,34.483 58.502,34.844 58.859,34.634 58.85,34.529 58.464,34.239 				"/>
				<polygon fill="none" points="59.105,40.431 59.291,40.722 59.253,40.259 				"/>
				<polygon fill="none" points="58.841,34.286 58.662,33.94 58.566,34.083 				"/>
				<polygon fill="none" points="57.355,37.415 57.389,36.159 57.32,36.229 57.29,37.429 				"/>
				<polygon fill="none" points="58.727,35.249 58.891,35.017 58.878,34.869 58.607,35.03 				"/>
				<polygon fill="none" points="59.234,40.027 59.21,39.731 58.748,39.414 58.583,39.607 58.934,40.158 59.055,40.107 				"/>
				<polygon fill="none" points="58.859,39.047 58.657,38.744 58.064,38.971 58.238,39.063 58.66,39.286 				"/>
				<polygon fill="none" points="58.941,35.636 58.925,35.428 58.868,35.503 				"/>
				<polygon fill="none" points="59.218,39.584 58.948,39.18 58.795,39.359 				"/>
				<polygon fill="none" points="58.273,38.176 58.027,38.505 58.035,38.726 58.033,38.724 58.034,38.728 58.038,38.782 
					58.561,38.602 				"/>
				<polygon fill="none" points="58.238,39.063 58.501,39.476 58.624,39.328 				"/>
				<polygon fill="none" points="57.973,33.638 58.425,33.976 58.568,33.768 57.949,32.58 				"/>
				<polygon fill="none" points="58,37.763 58.01,38.077 58.116,37.94 				"/>
				<polygon fill="none" points="58.328,36.211 58.564,36.595 58.986,36.415 58.973,36.234 58.52,35.963 				"/>
				<polygon fill="none" points="57.986,35.411 58.445,35.65 58.624,35.396 58.458,35.12 57.986,35.399 				"/>
				<polygon fill="none" points="57.406,35.417 57.432,34.438 57.366,34.506 57.342,35.438 				"/>
				<polygon fill="none" points="57.979,35.155 58.348,34.936 58.186,34.664 57.973,34.985 				"/>
				<polygon fill="none" points="57.441,34.019 57.445,33.87 57.381,33.897 57.376,34.091 				"/>
				<polygon fill="none" points="57.973,36.85 58.384,36.673 58.206,36.373 57.969,36.685 				"/>
				<polygon fill="none" points="57.396,35.794 57.398,35.667 57.336,35.69 57.331,35.861 				"/>
				<polygon fill="none" points="59.059,37.403 59.039,37.153 58.966,37.253 				"/>
				<polygon fill="none" points="57.945,34.264 57.959,34.649 58.077,34.48 				"/>
				<polygon fill="none" points="58.928,35.903 58.768,35.636 58.666,35.768 				"/>
				<polygon fill="none" points="57.725,39.916 57.725,40.4 58.379,39.621 58.012,39.073 58.045,39.978 57.809,39.817 
					57.809,39.882 				"/>
				<polygon fill="none" points="57.98,35.64 58.2,36 58.313,35.839 				"/>
				<polygon fill="none" points="58.829,37.028 59.014,36.79 59.003,36.663 58.695,36.812 				"/>
				<polygon fill="none" points="57.605,41.897 58.861,40.343 58.797,40.247 57.648,40.875 				"/>
				<polygon fill="none" points="58.782,40.224 58.464,39.747 57.628,40.727 				"/>
				<polygon fill="#617990" points="58.795,39.359 58.948,39.18 58.859,39.047 58.66,39.286 				"/>
				<polygon fill="#617990" points="58.852,33.654 58.84,33.377 58.662,33.634 58.753,33.802 				"/>
				<polygon fill="#617990" points="58.206,36.373 58.085,36.165 57.961,36.342 57.969,36.685 				"/>
				<polygon fill="#617990" points="59.409,41.029 59.503,40.979 59.407,40.912 				"/>
				<polygon fill="#617990" points="58.624,39.328 58.501,39.476 58.583,39.607 58.748,39.414 				"/>
				<polygon fill="#617990" points="59.093,38.419 58.67,38.563 58.762,38.703 59.102,38.573 				"/>
				<polygon fill="#617990" points="58.695,36.812 59.003,36.663 58.986,36.415 58.564,36.595 				"/>
				<polygon fill="#617990" points="58.329,37.667 58.193,37.84 58.35,38.075 58.57,37.78 				"/>
				<polygon fill="#617990" points="58.561,38.602 58.038,38.782 58.044,38.959 58.064,38.971 58.657,38.744 				"/>
				<polygon fill="#617990" points="58.672,37.646 58.832,37.432 58.695,37.199 58.426,37.546 				"/>
				<polygon fill="#617990" points="58.318,34.13 58.201,34.299 58.305,34.483 58.464,34.239 				"/>
				<polygon fill="#617990" points="58.932,38.961 59.02,39.097 59.122,38.978 59.109,38.747 				"/>
				<polygon fill="#617990" points="59.801,40.813 59.102,32.038 58.945,32.13 59.549,40.951 				"/>
				<polygon fill="#617990" points="57.98,37.156 58.518,36.897 58.384,36.673 57.973,36.85 				"/>
				<polygon fill="#617990" points="58.566,34.083 58.662,33.94 58.568,33.768 58.425,33.976 				"/>
				<polygon fill="#617990" points="58.934,40.158 58.939,40.168 59.055,40.107 				"/>
				<polygon fill="#617990" points="58.966,37.253 59.039,37.153 59.014,36.79 58.829,37.028 				"/>
				<polygon fill="#617990" points="58.607,35.03 58.878,34.869 58.859,34.634 58.502,34.844 				"/>
				<polygon fill="#617990" points="58.868,35.503 58.925,35.428 58.891,35.017 58.727,35.249 				"/>
				<polygon fill="#617990" points="57.986,35.399 58.458,35.12 58.348,34.936 57.979,35.155 				"/>
				<polygon fill="#617990" points="59.234,40.027 59.055,40.107 58.968,40.211 59.105,40.431 59.253,40.259 				"/>
				<polygon fill="#617990" points="57.605,41.897 57.648,40.875 58.797,40.247 58.782,40.224 57.628,40.727 58.464,39.747 
					58.379,39.621 57.725,40.4 57.725,39.916 57.809,39.882 57.809,39.817 57.775,39.792 57.807,31.219 57.922,31.308 
					57.936,31.592 57.943,31.076 57.762,31.16 57.672,32.239 56.395,33.707 56.501,33.902 57.209,33.047 57.219,32.9 57.289,32.952 
					57.693,32.464 57.672,32.9 57.467,33.023 57.451,33.631 57.389,33.66 57.381,33.897 57.445,33.87 57.441,34.019 57.376,34.091 
					57.366,34.506 57.432,34.438 57.406,35.417 57.342,35.438 57.336,35.69 57.398,35.667 57.396,35.794 57.331,35.861 
					57.32,36.229 57.389,36.159 57.355,37.415 57.29,37.429 57.285,37.585 57.352,37.569 57.348,37.711 57.281,37.775 57.275,38 
					57.342,37.938 57.314,39.037 57.248,39.057 57.24,39.331 57.309,39.268 57.234,42.218 57.884,41.861 59.003,40.552 
					58.861,40.343 				"/>
				<polygon fill="#617990" points="58.313,35.839 58.2,36 58.328,36.211 58.52,35.963 				"/>
				<polygon fill="#617990" points="58.666,35.768 58.768,35.636 58.624,35.396 58.445,35.65 				"/>
				<polygon fill="#617990" points="58.116,37.94 58.01,38.077 58.027,38.505 58.273,38.176 				"/>
				<polygon fill="#617990" points="58.186,34.664 58.077,34.48 57.959,34.649 57.973,34.985 				"/>
				<polygon fill="#617990" points="56.23,38.778 55.943,39.052 56.023,39.171 56.37,38.847 				"/>
				<polygon fill="#617990" points="56.175,40.328 56.454,40.066 56.328,39.877 55.98,40.22 				"/>
				<polygon fill="#617990" points="56.089,39.519 56.029,39.432 55.605,39.562 55.919,39.268 55.84,39.15 55.736,39.25 
					55.757,39.027 55.546,38.709 55.482,39.695 55.479,39.694 55.482,39.697 55.466,39.935 55.573,39.995 55.611,39.713 				"/>
				<polygon fill="#617990" points="55.543,38.441 55.779,38.8 55.801,38.568 				"/>
				<polygon fill="#617990" points="56.795,35.104 56.887,35.008 56.771,34.779 56.607,34.964 				"/>
				<polygon fill="#617990" points="55.982,34.498 56.232,34.684 56.273,34.398 56.521,34.288 56.422,34.094 56.294,34.151 
					56.391,34.033 56.288,33.832 56.266,33.856 56.27,33.797 56.076,33.415 				"/>
				<polygon fill="#617990" points="55.982,40.508 56.135,40.366 55.957,40.243 55.871,40.33 				"/>
				<polygon fill="#617990" points="56.424,39.782 56.551,39.976 56.863,39.684 56.881,39.331 				"/>
				<polygon fill="#617990" points="56.889,39.168 56.168,39.39 56.218,39.466 56.889,39.191 				"/>
				<polygon fill="#617990" points="56.521,37.785 56.96,37.67 56.963,37.503 56.422,37.625 				"/>
				<polygon fill="#617990" points="56.877,38.372 56.945,38.308 56.952,38.09 56.796,38.238 				"/>
				<polygon fill="#617990" points="57.02,34.87 57.096,34.79 57.123,34.38 56.895,34.638 				"/>
				<polygon fill="#617990" points="56.967,36.608 56.998,36.575 57.002,36.2 56.837,36.368 				"/>
				<polygon fill="#617990" points="56.402,36.016 56.254,35.766 56.129,35.803 56.221,35.708 56.111,35.526 56.111,35.527 
					56.111,35.525 55.878,35.134 55.802,36.307 56.014,36.424 56.052,36.139 				"/>
				<polygon fill="#617990" points="56.516,36.697 56.759,36.831 56.836,36.747 56.697,36.512 				"/>
				<polygon fill="#617990" points="56.279,37.847 56.184,37.679 55.904,37.741 56.1,37.534 55.949,37.279 55.896,37.333 
					55.91,37.215 55.691,36.837 55.574,38.302 55.816,38.409 55.861,37.956 				"/>
				<polygon fill="#617990" points="56.361,38.652 56.509,38.717 56.689,38.548 56.611,38.415 				"/>
				<polygon fill="#617990" points="55.061,41.003 55.27,40.917 55.086,40.792 				"/>
				<polygon fill="#617990" points="55.764,36.542 55.958,36.859 55.98,36.675 				"/>
				<polygon fill="#617990" points="56.331,36.887 56.111,37.113 56.262,37.36 56.568,37.033 				"/>
				<polygon fill="#617990" points="56.471,35.119 56.275,35.339 56.384,35.536 56.652,35.255 				"/>
				<polygon fill="#617990" points="55.938,34.716 56.168,35.138 56.198,34.914 				"/>
				<polygon fill="#617990" points="55.471,40.725 55.539,40.234 55.413,40.047 55.359,40.881 55.755,40.72 55.822,40.657 
					55.708,40.488 				"/>
				<polygon fill="#617990" points="56.123,33.196 56.293,33.512 56.427,31.772 56.186,31.883 56.161,32.093 56.188,32.113 				"/>
				<polygon fill="#617990" points="56.607,35.946 57.005,35.806 57.007,35.539 56.475,35.7 				"/>
				<polygon fill="#617990" points="56.67,34.219 57.146,34.004 57.164,33.76 56.568,34.027 				"/>
				<path fill="#8795A0" d="M57.275,38l0.006-0.226l0.004-0.19l0.005-0.156l0.03-1.2l0.011-0.368l0.005-0.171l0.007-0.252
					l0.025-0.932l0.009-0.415l0.005-0.194l0.007-0.238l0.019-0.618l-0.116-0.089l-0.068-0.052l-0.012,0.147l-0.046,0.713
					l-0.017,0.244l-0.024,0.375l-0.026,0.409l-0.014,0.197l-0.063-0.117l-0.125-0.232l-0.226-0.419l-0.103-0.191l-0.066-0.126
					l-0.105-0.194l-0.104-0.194l-0.17-0.316l0.064-1.083l-0.026-0.021l-0.113-0.085l-1.022,8.741l0.063,0.042l0.184,0.125
					l0.082,0.059l0.008-0.094l0.054-0.834l0.126,0.188l0.169,0.254l0.114,0.169l0.8,1.195l0.544,0.375l0.074-2.898l0.008-0.273
					L57.275,38z M56.96,37.67l-0.008,0.42l-0.007,0.218l-0.004,0.174l-0.064-0.109l-0.081-0.134l-0.274-0.453l-0.1-0.161
					l-0.16-0.265l-0.148-0.247L55.96,36.86l-0.194-0.318l0.219,0.133l0.349,0.213l0.239,0.146l0.398,0.243l-0.006,0.228L56.96,37.67
					z M56.885,38.884l-0.376-0.167l-0.146-0.065l-0.545-0.243l-0.243-0.107l0.118-1.464l0.218,0.378l0.039,0.064l0.147,0.254
					l0.084,0.146l0.1,0.168l0.33,0.568l0.078,0.133L56.885,38.884z M56.945,36.934l-0.188-0.103l-0.242-0.132l-0.502-0.274
					L55.8,36.308l0.077-1.173l0.232,0.391v0.001l0.109,0.181l0.033,0.057l0.148,0.25l0.295,0.496l0.139,0.235L56.945,36.934z
					 M57.005,35.806L57.002,36.2l-0.004,0.375l-0.001,0.087l-0.03-0.054l-0.13-0.24l-0.229-0.423l-0.133-0.246l-0.091-0.164
					l-0.106-0.196l-0.108-0.202l-0.229-0.421l0.261,0.198l0.272,0.205l0.18,0.136l0.355,0.267v0.017L57.005,35.806z M56.27,33.797
					l0.019,0.034l0.103,0.202l0.03,0.061l0.101,0.194l0.25,0.491l0.115,0.229l0.137,0.266l-0.228-0.169l-0.188-0.141l-0.375-0.28
					l-0.248-0.187l0.093-1.082L56.27,33.797z M55.957,40.243l0.178,0.123l0.738,0.512l-0.012,1.019l-0.879-1.389l-0.113-0.178
					l-0.167-0.265l-0.13-0.071l-0.107-0.06l0.016-0.238l-0.002-0.002h0.002l0.063-0.986l0.212,0.318l0.083,0.124l0.08,0.117
					l0.108,0.164l0.061,0.087l0.238,0.357l0.128,0.189l0.442,0.661l-0.723-0.399l-0.195-0.108l-0.276-0.154L55.957,40.243z
					 M56.829,40.4l-0.278-0.424l-0.127-0.194l-0.206-0.315l-0.05-0.077l-0.145-0.219l-0.08-0.12L55.779,38.8l-0.236-0.358
					l0.257,0.126l0.429,0.21l0.143,0.069l0.521,0.255l-0.002,0.066l-0.002,0.023l-0.007,0.139l-0.019,0.354L56.829,40.4z"/>
			</g>
			<polygon fill="#898989" points="59.288,32.18 57.4,33.121 55.934,31.929 57.943,31.076 			"/>
		</g>
		<g>
			<polygon fill="#232323" points="54.916,30.042 55.41,29.938 57.43,31.375 57.666,31.543 59.193,30.908 59.646,31.137 
				58.438,31.874 60.76,33.442 60.305,33.624 57.609,32.216 56.332,32.773 55.695,32.462 56.921,31.833 56.08,31.158 			"/>
			<polygon fill="#4B5E6D" points="54.936,29.958 55.432,29.857 57.456,31.264 57.693,31.427 59.225,30.812 59.678,31.037 
				58.471,31.751 60.8,33.284 60.346,33.46 57.643,32.083 56.329,32.703 55.698,32.404 56.947,31.708 56.104,31.049 			"/>
			
				<rect x="55.466" y="28.999" transform="matrix(0.9962 0.0871 -0.0871 0.9962 2.7909 -4.7287)" fill="#232323" width="0.219" height="1.229"/>
			
				<rect x="59.237" y="29.876" transform="matrix(0.9964 0.0851 -0.0851 0.9964 2.8079 -4.9409)" fill="#232323" width="0.235" height="1.173"/>
			
				<rect x="56.026" y="31.169" transform="matrix(0.9966 0.0827 -0.0827 0.9966 2.8249 -4.5376)" fill="#232323" width="0.266" height="1.289"/>
			
				<rect x="60.437" y="32.122" transform="matrix(0.9965 0.083 -0.083 0.9965 2.9276 -4.916)" fill="#232323" width="0.241" height="1.226"/>
		</g>
		<polygon fill="#494949" points="57.936,31.592 57.55,31.603 57.475,27.792 57.857,27.782 		"/>
		<polygon fill="#494949" points="58.127,27.774 57.287,27.798 57.271,26.959 58.111,26.938 		"/>
	</g>
	<path fill="#53596B" d="M31.269,58.145c0,0,2.336,1.256,3.77,3.055c0,0,2.429,1.068,7.556-1.361c0,0,3.51-1.579,10.44-5.831
		l17.281-10.204l3.183-1.895l0.776-1.993l-4.299,2.673l-1.646-1.312l1.547-0.899l0.011-1.19L49.267,51.059l-0.112,1.611
		c0,0-4.154,2.77-9.086,4.284C40.068,56.954,34.577,58.574,31.269,58.145z"/>
	<polygon fill="#CCCCCC" points="41.938,43.875 48.984,48.054 58.824,42.344 51.773,38.414 	"/>
	<g>
		<ellipse fill="#344E5F" cx="50.285" cy="41.943" rx="1.434" ry="0.62"/>
		<ellipse fill="#344E5F" cx="50.285" cy="43.014" rx="1.434" ry="0.62"/>
		<rect x="48.851" y="41.943" fill="#344E5F" width="2.868" height="1.07"/>
	</g>
	<polygon fill="#59637A" points="47.891,50.24 47.811,48.256 48.928,48.888 58.078,43.583 58.078,44.499 	"/>
	<path fill="#00408C" d="M43.245,47.539l-0.168,0.238l-1.073-0.656l0.168-0.233l-0.017-0.011l-0.096-0.063l-1.679,2.429l0.111,0.069
		l0.172-0.237l1.073,0.649l-0.101,0.143l0,0l-0.076,0.11l0.115,0.071l1.696-2.434L43.245,47.539z M41.8,49.601l-1.073-0.656
		l0.173-0.24l1.073,0.649L41.8,49.601z M42.06,49.232l-1.073-0.658l0.173-0.239l1.073,0.649L42.06,49.232z M42.309,48.862
		l-1.072-0.656l0.172-0.24l1.074,0.649L42.309,48.862z M42.571,48.494l-1.073-0.657l0.173-0.241l1.073,0.651L42.571,48.494z
		 M42.83,48.127l-1.073-0.658l0.173-0.241l1.072,0.65L42.83,48.127z"/>
	<path fill="#8C8C8C" d="M39.028,49.925c0,0-0.018,0.802,1.793,0.583l1.833,1.117c0,0-0.488,0.898,1.228,0.911
		c0,0,0.954-0.052,1.034-0.692l-0.025,1.579c0,0-0.645,1.324-2.272,0.073c0,0-0.022-0.422-0.019-0.566l-1.768-1.072
		c0,0-1.215,0.254-1.804-0.438V49.925L39.028,49.925z"/>
	<path fill="#CCCCCC" d="M47.381,50.01l-0.061,0.23l-2.479,1.373c0.438,0.851-1.021,0.984-1.021,0.984
		c-1.64-0.074-1.167-0.974-1.167-0.974l-1.833-1.117c-1.847,0.22-1.835-0.557-1.835-0.557s-0.218,1.188,0-0.026
		c0.219-1.215,1.701-0.656,1.701-0.656l2.685-1.615L47.381,50.01z"/>
	<path fill="#B2B2B2" d="M40.829,48.918l0.008,0.216l-0.008,0.004v0.066l2.593-1.531l-0.036-0.75l-2.558,1.507L40.829,48.918
		L40.829,48.918z M43.319,47.035l0.023,0.636l-0.196,0.115l-0.022-0.636L43.319,47.035z M43.039,47.195l0.022,0.637l-0.194,0.115
		l-0.024-0.636L43.039,47.195z M42.773,47.354l0.024,0.637l-0.196,0.114l-0.023-0.636L42.773,47.354z M42.492,47.514l0.024,0.637
		l-0.194,0.115l-0.024-0.637L42.492,47.514z M42.206,47.694l0.024,0.638l-0.193,0.115l-0.025-0.638L42.206,47.694z M41.925,47.854
		l0.024,0.638l-0.195,0.116l-0.023-0.638L41.925,47.854z M41.641,48.018l0.023,0.637l-0.193,0.115l-0.024-0.637L41.641,48.018z
		 M41.359,48.179l0.024,0.636l-0.194,0.115l-0.024-0.636L41.359,48.179z M41.095,48.337l0.023,0.636l-0.192,0.115L40.9,48.451
		L41.095,48.337z"/>
	<polygon fill="#999999" points="44.992,43.234 47.891,44.95 50.207,43.583 47.291,41.923 	"/>
	<polygon fill="#6D6D6D" points="44.992,44.596 47.972,46.346 50.207,45.082 50.207,43.583 47.891,44.95 44.992,43.234 	"/>
	<polygon fill="#325384" points="46.021,43.292 47.381,42.49 49.094,43.498 47.811,44.252 	"/>
	<path fill="#AFAFAF" d="M39.485,49.802l-0.121-0.061c0,0-0.085-1.288,0.972-1.118c0,0,0.729,0.268,0.535,1.081
		c0,0-0.219,0.669-1.228,0.244c0,0-0.073-0.985,0.632-1.154l-0.142-0.084C40.132,48.708,39.594,48.672,39.485,49.802z"/>
	<path fill="#B2B2B2" d="M40.529,50.423v-0.559l0.376-0.063l0.009,0.29l0.007-0.444c0,0-1.714,0.449-1.893-0.583v0.826
		c0,0,0.273,0.898,1.88,0.583l0.002-0.14C40.808,50.407,40.529,50.423,40.529,50.423z M39.361,50.24c0,0-0.266-0.17-0.266-0.315
		v-0.427c0,0,0.148,0.146,0.268,0.243L39.361,50.24z M39.856,50.385c-0.096,0.079-0.392-0.145-0.392-0.145l0.021-0.438l0.371,0.028
		V50.385z M40.432,50.423c-0.096,0.079-0.457,0-0.457,0v-0.555h0.457V50.423z"/>
	<path fill="#898989" d="M69.796,38.322l-6.884-4.155l-0.04,0.863l6.892,4.166L69.796,38.322z M63.182,35.16l-0.219-0.131
		l0.025-0.733l0.219,0.132L63.182,35.16z M63.496,35.344l-0.219-0.13l0.024-0.734l0.218,0.134L63.496,35.344z M63.793,35.526
		l-0.218-0.132l0.022-0.734l0.219,0.131L63.793,35.526z M64.107,35.71l-0.219-0.132l0.022-0.733l0.219,0.134L64.107,35.71z
		 M64.426,35.915l-0.216-0.13l0.024-0.734l0.217,0.133L64.426,35.915z M64.742,36.101l-0.219-0.133l0.026-0.733l0.216,0.133
		L64.742,36.101z M65.059,36.286l-0.217-0.131l0.026-0.734l0.217,0.135L65.059,36.286z M65.373,36.472l-0.217-0.132l0.025-0.735
		l0.215,0.132L65.373,36.472z M65.672,36.652l-0.218-0.133l0.022-0.731l0.219,0.131L65.672,36.652z M65.984,36.837l-0.219-0.133
		l0.026-0.732l0.22,0.131L65.984,36.837z M66.307,37.043L66.09,36.91l0.023-0.733l0.218,0.134L66.307,37.043z M66.621,37.227
		l-0.219-0.134l0.022-0.731l0.22,0.131L66.621,37.227z M66.932,37.43l-0.218-0.134l0.022-0.733l0.218,0.134L66.932,37.43z
		 M67.246,37.615l-0.219-0.134l0.023-0.732l0.219,0.132L67.246,37.615z M67.542,37.793l-0.218-0.131l0.023-0.732l0.217,0.131
		L67.542,37.793z M67.855,37.979l-0.217-0.131l0.025-0.732l0.214,0.13L67.855,37.979z M68.176,38.184l-0.217-0.134l0.023-0.731
		l0.219,0.133L68.176,38.184z M68.491,38.369l-0.218-0.134l0.022-0.731l0.22,0.13L68.491,38.369z M68.805,38.553l-0.217-0.13
		l0.023-0.733l0.218,0.132L68.805,38.553z M69.121,38.74l-0.219-0.132l0.023-0.734l0.219,0.134L69.121,38.74z M69.417,38.921
		l-0.219-0.133l0.024-0.734l0.217,0.132L69.417,38.921z M69.516,38.971l0.023-0.729l0.216,0.13l-0.026,0.732L69.516,38.971z"/>
	<path fill="#B2B2B2" d="M42.676,51.548l-0.009-0.006l0.09-0.696l0.005,0.004l0.01-0.074l-1.85-1.126l-0.017,0.854l1.763,1.103
		L42.676,51.548z M41.238,50.652l-0.233-0.146l0.034-0.705l0.225,0.122L41.238,50.652z M41.574,50.857l-0.232-0.146l0.085-0.699
		l0.232,0.147L41.574,50.857z M41.888,51.057l-0.229-0.146l0.084-0.696l0.234,0.146L41.888,51.057z M42.225,51.259l-0.23-0.146
		l0.084-0.696l0.231,0.146L42.225,51.259z M42.564,51.482l-0.23-0.146l0.084-0.694l0.232,0.146L42.564,51.482z"/>
	<path fill="#939393" d="M37.966,48.608l1.89,0.468c0,0-0.087,0.082-0.136,0.272l-1.851-0.433
		C37.869,48.915,37.784,48.69,37.966,48.608z"/>
	<path fill="#AFAFAF" d="M43.032,51.512l-0.122-0.061c0,0-0.084-1.288,0.972-1.118c0,0,0.729,0.269,0.535,1.081
		c0,0-0.218,0.668-1.227,0.243c0,0-0.073-0.984,0.632-1.153l-0.143-0.085C43.68,50.418,43.142,50.382,43.032,51.512z"/>
	<path fill="#939393" d="M41.514,50.318l1.89,0.467c0,0-0.087,0.082-0.136,0.273l-1.852-0.435
		C41.416,50.625,41.331,50.4,41.514,50.318z"/>
	<path fill="#00408C" d="M49.163,51.055l-0.168,0.237l-1.073-0.656l0.168-0.232l-0.017-0.011l-0.096-0.064l-1.678,2.43l0.11,0.07
		l0.172-0.238l1.073,0.649l-0.1,0.144l0,0l-0.076,0.11l0.114,0.07l1.696-2.435L49.163,51.055z M47.718,53.115l-1.073-0.656
		l0.174-0.24l1.072,0.65L47.718,53.115z M47.976,52.747l-1.071-0.656l0.173-0.241l1.073,0.65L47.976,52.747z M48.227,52.378
		l-1.073-0.657l0.173-0.24L48.4,52.13L48.227,52.378z M48.489,52.01l-1.073-0.656l0.173-0.24l1.073,0.65L48.489,52.01z
		 M48.747,51.643l-1.071-0.658l0.173-0.241l1.072,0.649L48.747,51.643z"/>
	<path fill="#898989" d="M59.146,44.4l-9.807,5.682v0.93l9.814-5.695L59.146,44.4z M49.672,50.752l-0.226,0.131v-0.777l0.226-0.133
		V50.752z M49.999,50.568l-0.227,0.133v-0.778l0.227-0.131V50.568z M50.331,50.362l-0.226,0.132v-0.777l0.226-0.133V50.362z
		 M50.658,50.181l-0.227,0.131v-0.777l0.227-0.132V50.181z M50.965,50l-0.227,0.131v-0.777l0.227-0.132V50z M51.291,49.816
		l-0.227,0.133v-0.778l0.227-0.133V49.816z M51.609,49.626l-0.226,0.132V48.98l0.226-0.132V49.626z M51.938,49.443l-0.227,0.131
		v-0.777l0.227-0.132V49.443z M52.27,49.236l-0.227,0.133v-0.778l0.227-0.132V49.236z M52.596,49.055l-0.227,0.131v-0.777
		l0.227-0.132V49.055z M52.902,48.874l-0.226,0.13v-0.777l0.226-0.132V48.874z M53.229,48.69l-0.227,0.132v-0.777l0.227-0.133V48.69
		z M53.557,48.505l-0.228,0.131v-0.777l0.228-0.132V48.505z M53.882,48.321l-0.226,0.132v-0.777l0.226-0.132V48.321z M54.214,48.115
		l-0.226,0.132v-0.778l0.226-0.131V48.115z M54.54,47.933l-0.226,0.132v-0.777l0.226-0.132V47.933z M54.848,47.752l-0.226,0.132
		v-0.777l0.226-0.132V47.752z M55.174,47.569l-0.226,0.132v-0.777l0.226-0.133V47.569z M55.496,47.367l-0.227,0.132v-0.778
		l0.227-0.132V47.367z M55.822,47.186l-0.227,0.13v-0.777l0.227-0.132V47.186z M56.154,46.978l-0.227,0.133v-0.778l0.227-0.133
		V46.978z M56.48,46.795l-0.226,0.132V46.15l0.226-0.132V46.795z M56.788,46.614l-0.226,0.132v-0.778l0.226-0.131V46.614z
		 M57.115,46.432l-0.227,0.132v-0.777l0.227-0.132V46.432z M57.445,46.247l-0.228,0.132V45.6l0.228-0.13V46.247z M57.771,46.063
		l-0.227,0.132v-0.778l0.227-0.132V46.063z M58.104,45.858l-0.227,0.13v-0.777l0.227-0.132V45.858z M58.432,45.674l-0.227,0.133
		v-0.778l0.227-0.132V45.674z M58.736,45.494l-0.225,0.132v-0.778l0.225-0.132V45.494z M59.064,45.31l-0.228,0.133v-0.778
		l0.228-0.132V45.31z"/>
	<path fill="#898989" d="M68.836,38.773l-9.807,5.681v0.931l9.816-5.695L68.836,38.773z M59.361,45.125l-0.225,0.132V44.48
		l0.225-0.132V45.125z M59.689,44.942l-0.227,0.132v-0.778l0.227-0.131V44.942z M60.021,44.736l-0.227,0.132V44.09l0.227-0.132
		V44.736z M60.348,44.554l-0.227,0.132v-0.778l0.227-0.132V44.554z M60.654,44.373l-0.225,0.131v-0.777l0.225-0.133V44.373z
		 M60.98,44.189l-0.226,0.133v-0.778l0.226-0.132V44.189z M61.301,43.999l-0.226,0.132v-0.778l0.226-0.132V43.999z M61.627,43.817
		l-0.227,0.13V43.17l0.227-0.132V43.817z M61.96,43.61l-0.228,0.132v-0.778l0.228-0.131V43.61z M62.286,43.429l-0.226,0.13v-0.777
		l0.226-0.132V43.429z M62.593,43.247l-0.226,0.131v-0.777l0.226-0.132V43.247z M62.92,43.064l-0.227,0.131v-0.777l0.227-0.132
		V43.064z M63.246,42.879L63.02,43.01v-0.778l0.228-0.132L63.246,42.879L63.246,42.879z M63.57,42.695l-0.225,0.132v-0.778
		l0.225-0.132V42.695z M63.904,42.488l-0.227,0.132v-0.777l0.227-0.132V42.488z M64.23,42.306l-0.227,0.131V41.66l0.227-0.132
		V42.306z M64.538,42.125l-0.226,0.132V41.48l0.226-0.133V42.125z M64.863,41.942l-0.225,0.132v-0.778l0.225-0.132V41.942z
		 M65.188,41.74l-0.228,0.132v-0.777l0.228-0.132V41.74z M65.514,41.558l-0.227,0.131v-0.777l0.227-0.132V41.558z M65.846,41.351
		l-0.227,0.132v-0.778l0.227-0.132V41.351z M66.172,41.167L65.945,41.3v-0.778l0.227-0.132V41.167z M66.479,40.987l-0.225,0.132
		v-0.778l0.225-0.131V40.987z M66.807,40.806l-0.228,0.131V40.16l0.228-0.132V40.806z M67.137,40.619l-0.228,0.132v-0.778
		l0.228-0.131V40.619z M67.462,40.437l-0.226,0.131V39.79l0.226-0.131V40.437z M67.795,40.23l-0.227,0.131v-0.777l0.227-0.132V40.23
		z M68.12,40.047l-0.226,0.132v-0.778l0.226-0.131V40.047z M68.428,39.866l-0.226,0.132V39.22l0.226-0.131V39.866z M68.754,39.684
		l-0.227,0.132v-0.778l0.227-0.131V39.684z"/>
	<path fill="#898989" d="M58.838,41.48l-7.096-3.958l-0.023,0.854l7.104,3.968L58.838,41.48z M52.036,38.497l-0.226-0.125
		l0.012-0.724l0.225,0.127L52.036,38.497z M52.359,38.672l-0.225-0.125l0.01-0.726l0.226,0.127L52.359,38.672z M52.665,38.846
		l-0.224-0.126l0.011-0.725l0.224,0.125L52.665,38.846z M52.99,39.021l-0.227-0.126l0.012-0.723l0.224,0.127L52.99,39.021z
		 M53.318,39.217l-0.225-0.125l0.012-0.726l0.225,0.127L53.318,39.217z M53.643,39.393l-0.225-0.127l0.014-0.725l0.225,0.127
		L53.643,39.393z M53.971,39.569l-0.224-0.125l0.012-0.726l0.226,0.128L53.971,39.569z M54.296,39.746L54.07,39.62l0.012-0.726
		l0.223,0.127L54.296,39.746z M54.602,39.918l-0.224-0.127l0.009-0.722l0.227,0.125L54.602,39.918z M54.926,40.094l-0.225-0.128
		l0.011-0.723l0.226,0.126L54.926,40.094z M55.256,40.29l-0.224-0.127l0.012-0.724l0.224,0.127L55.256,40.29z M55.582,40.465
		l-0.227-0.127l0.012-0.722l0.225,0.125L55.582,40.465z M55.9,40.659l-0.226-0.127l0.011-0.724l0.227,0.126L55.9,40.659z
		 M56.227,40.834L56,40.707l0.012-0.724l0.225,0.126L56.227,40.834z M56.531,41.005l-0.227-0.125l0.01-0.724l0.227,0.125
		L56.531,41.005z M56.854,41.181l-0.222-0.125l0.011-0.724l0.223,0.124L56.854,41.181z M57.186,41.378l-0.225-0.128l0.012-0.722
		l0.223,0.127L57.186,41.378z M57.509,41.553l-0.223-0.127l0.009-0.723l0.225,0.124L57.509,41.553z M57.833,41.728l-0.226-0.124
		l0.01-0.724l0.226,0.126L57.833,41.728z M58.158,41.907l-0.227-0.126l0.01-0.727l0.227,0.127L58.158,41.907z M58.464,42.079
		l-0.226-0.127l0.011-0.725l0.226,0.126L58.464,42.079z M58.563,42.125l0.013-0.72l0.225,0.124l-0.013,0.723L58.563,42.125z"/>
	<path fill="#898989" d="M69.803,38.21l-9.805,5.681v0.931l9.814-5.696L69.803,38.21z M60.329,44.563l-0.226,0.133v-0.778
		l0.226-0.132V44.563z M60.654,44.381l-0.225,0.132v-0.779l0.225-0.13V44.381z M60.988,44.174l-0.227,0.133v-0.779l0.227-0.131
		V44.174z M61.314,43.992l-0.228,0.13v-0.777l0.228-0.132V43.992z M61.621,43.812l-0.227,0.13v-0.777l0.227-0.132V43.812z
		 M61.947,43.627l-0.225,0.133v-0.778l0.225-0.132V43.627z M62.268,43.438l-0.226,0.131v-0.778l0.226-0.132V43.438z M62.594,43.254
		l-0.227,0.132v-0.777l0.227-0.132V43.254z M62.927,43.047L62.7,43.18v-0.778l0.227-0.132V43.047z M63.253,42.865l-0.228,0.132
		V42.22l0.228-0.132V42.865z M63.559,42.685l-0.225,0.132V42.04l0.225-0.132V42.685z M63.887,42.502l-0.227,0.131v-0.777
		l0.227-0.132V42.502z M64.213,42.315l-0.227,0.132V41.67l0.227-0.132V42.315z M64.538,42.133l-0.226,0.132v-0.779l0.226-0.132
		V42.133z M64.871,41.927l-0.227,0.132V41.28l0.227-0.13V41.927z M65.197,41.745l-0.227,0.13v-0.777l0.227-0.132V41.745z
		 M65.504,41.563l-0.227,0.131v-0.777l0.227-0.131V41.563z M65.83,41.38l-0.225,0.132v-0.777l0.225-0.132V41.38z M66.152,41.178
		l-0.227,0.132v-0.778l0.227-0.131V41.178z M66.479,40.996l-0.225,0.13V40.35l0.225-0.132V40.996z M66.813,40.789l-0.227,0.132
		v-0.778l0.227-0.132V40.789z M67.139,40.606l-0.227,0.132V39.96l0.227-0.131V40.606z M67.443,40.426l-0.225,0.132V39.78
		l0.225-0.131V40.426z M67.771,40.243l-0.228,0.131v-0.777l0.228-0.132V40.243z M68.104,40.057l-0.228,0.132v-0.778l0.228-0.132
		V40.057z M68.43,39.875l-0.228,0.131v-0.778l0.228-0.132V39.875z M68.762,39.668L68.535,39.8v-0.778l0.227-0.132V39.668z
		 M69.088,39.486l-0.227,0.132V38.84l0.227-0.132V39.486z M69.395,39.304l-0.226,0.132v-0.778l0.226-0.131V39.304z M69.721,39.122
		l-0.227,0.132v-0.778l0.227-0.131V39.122z"/>
	<path fill="#898989" d="M51.814,37.512l-9.855,5.489l-0.019,0.93l9.867-5.502L51.814,37.512z M42.276,43.679l-0.228,0.127
		l0.016-0.777l0.227-0.127L42.276,43.679z M42.604,43.502l-0.227,0.127l0.015-0.777l0.228-0.127L42.604,43.502z M42.938,43.301
		L42.71,43.43l0.016-0.779l0.227-0.127L42.938,43.301z M43.266,43.126l-0.227,0.127l0.015-0.777l0.227-0.127L43.266,43.126z
		 M43.575,42.952l-0.227,0.126l0.015-0.778l0.228-0.127L43.575,42.952z M43.902,42.775l-0.227,0.128l0.016-0.778l0.227-0.128
		L43.902,42.775z M44.224,42.59l-0.226,0.127l0.014-0.779l0.228-0.126L44.224,42.59z M44.553,42.414l-0.228,0.127l0.016-0.777
		l0.228-0.128L44.553,42.414z M44.887,42.214l-0.227,0.128l0.015-0.778l0.227-0.127L44.887,42.214z M45.214,42.038l-0.227,0.127
		l0.016-0.777l0.227-0.128L45.214,42.038z M45.523,41.864l-0.227,0.126l0.014-0.777l0.229-0.127L45.523,41.864z M45.851,41.687
		l-0.227,0.128l0.015-0.777l0.229-0.128L45.851,41.687z M46.179,41.508l-0.227,0.126l0.015-0.777l0.229-0.128L46.179,41.508z
		 M46.508,41.33l-0.228,0.129l0.016-0.779l0.227-0.127L46.508,41.33z M46.842,41.131l-0.228,0.128l0.016-0.779l0.227-0.127
		L46.842,41.131z M47.168,40.955l-0.227,0.126l0.015-0.777l0.228-0.128L47.168,40.955z M47.478,40.781l-0.228,0.126l0.016-0.777
		l0.229-0.127L47.478,40.781z M47.806,40.604L47.58,40.73l0.014-0.778l0.228-0.127L47.806,40.604z M48.131,40.407l-0.228,0.128
		l0.016-0.778l0.228-0.127L48.131,40.407z M48.457,40.232l-0.226,0.127l0.015-0.777l0.228-0.127L48.457,40.232z M48.792,40.032
		l-0.227,0.127l0.015-0.778l0.229-0.127L48.792,40.032z M49.12,39.854l-0.227,0.128l0.017-0.778l0.226-0.127L49.12,39.854z
		 M49.43,39.681l-0.227,0.128l0.015-0.779l0.228-0.126L49.43,39.681z M49.757,39.505l-0.226,0.126l0.015-0.777l0.228-0.127
		L49.757,39.505z M50.089,39.325l-0.227,0.128l0.015-0.777l0.229-0.128L50.089,39.325z M50.418,39.15l-0.229,0.126l0.016-0.777
		l0.228-0.127L50.418,39.15z M50.752,38.949l-0.227,0.127l0.015-0.777l0.228-0.127L50.752,38.949z M51.08,38.773l-0.229,0.128
		l0.017-0.778l0.228-0.126L51.08,38.773z M51.389,38.599l-0.228,0.127l0.016-0.777l0.228-0.127L51.389,38.599z M51.716,38.422
		l-0.228,0.128l0.016-0.778l0.229-0.127L51.716,38.422z"/>
	<path fill="#898989" d="M49.032,47.192l-7.071-4.194l-0.048,0.86l7.079,4.204L49.032,47.192z M42.23,43.99l-0.225-0.134
		l0.031-0.729l0.224,0.135L42.23,43.99z M42.553,44.177l-0.224-0.134l0.03-0.729l0.225,0.135L42.553,44.177z M42.856,44.36
		l-0.223-0.133l0.031-0.73l0.223,0.134L42.856,44.36z M43.181,44.545l-0.224-0.133l0.031-0.73l0.224,0.136L43.181,44.545z
		 M43.51,44.754l-0.225-0.132l0.032-0.732l0.223,0.135L43.51,44.754z M43.832,44.94l-0.224-0.135l0.032-0.73l0.224,0.136
		L43.832,44.94z M44.161,45.128l-0.226-0.133l0.031-0.731l0.225,0.137L44.161,45.128z M44.483,45.314l-0.224-0.134l0.031-0.73
		l0.223,0.134L44.483,45.314z M44.787,45.497l-0.222-0.135l0.03-0.729l0.225,0.133L44.787,45.497z M45.11,45.684l-0.224-0.135
		l0.032-0.729l0.223,0.134L45.11,45.684z M45.44,45.892l-0.224-0.134l0.03-0.731l0.225,0.136L45.44,45.892z M45.764,46.077
		l-0.225-0.135l0.033-0.729l0.224,0.134L45.764,46.077z M46.082,46.28l-0.225-0.134l0.032-0.729l0.224,0.135L46.082,46.28z
		 M46.405,46.467l-0.224-0.134l0.03-0.73l0.224,0.135L46.405,46.467z M46.71,46.647l-0.226-0.133l0.031-0.729l0.225,0.134
		L46.71,46.647z M47.033,46.834l-0.224-0.133l0.03-0.729l0.225,0.132L47.033,46.834z M47.361,47.043l-0.224-0.135l0.032-0.729
		l0.223,0.135L47.361,47.043z M47.685,47.229l-0.224-0.135l0.03-0.729l0.226,0.132L47.685,47.229z M48.008,47.416l-0.225-0.134
		l0.032-0.729l0.225,0.134L48.008,47.416z M48.331,47.603l-0.225-0.133l0.032-0.731l0.223,0.137L48.331,47.603z M48.635,47.786
		l-0.224-0.133l0.032-0.73l0.224,0.132L48.635,47.786z M48.735,47.837l0.03-0.729l0.225,0.133l-0.032,0.73L48.735,47.837z"/>
	<path fill="#B2B2B2" d="M74.207,39.101l-8.32-4.855l-0.109,0.886l8.326,4.867L74.207,39.101z M66.152,35.289l-0.264-0.152
		l0.082-0.752l0.266,0.154L66.152,35.289z M66.533,35.506l-0.264-0.153l0.082-0.754l0.266,0.157L66.533,35.506z M66.891,35.719
		l-0.263-0.155l0.084-0.753l0.263,0.154L66.891,35.719z M67.273,35.934l-0.267-0.155l0.083-0.752l0.266,0.156L67.273,35.934z
		 M67.656,36.173l-0.264-0.152l0.086-0.754l0.262,0.156L67.656,36.173z M68.038,36.39l-0.263-0.156l0.084-0.753l0.263,0.156
		L68.038,36.39z M68.423,36.606l-0.265-0.152l0.087-0.754l0.261,0.156L68.423,36.606z M68.802,36.824l-0.261-0.154l0.084-0.755
		l0.26,0.154L68.802,36.824z M69.162,37.035l-0.266-0.154l0.082-0.751l0.266,0.155L69.162,37.035z M69.542,37.252l-0.267-0.155
		l0.086-0.751l0.265,0.153L69.542,37.252z M69.926,37.491l-0.261-0.156l0.084-0.753l0.263,0.157L69.926,37.491z M70.311,37.706
		l-0.265-0.155l0.082-0.751l0.265,0.152L70.311,37.706z M70.682,37.941l-0.263-0.156l0.082-0.752l0.263,0.156L70.682,37.941z
		 M71.063,38.159L70.8,38.002l0.083-0.752l0.264,0.154L71.063,38.159z M71.423,38.368l-0.264-0.155l0.081-0.752l0.264,0.155
		L71.423,38.368z M71.802,38.584l-0.261-0.153l0.081-0.752l0.261,0.151L71.802,38.584z M72.188,38.823l-0.261-0.156l0.081-0.75
		l0.264,0.155L72.188,38.823z M72.568,39.039l-0.262-0.155l0.08-0.752l0.266,0.153L72.568,39.039z M72.949,39.254l-0.264-0.152
		l0.08-0.754l0.268,0.153L72.949,39.254z M73.332,39.474l-0.266-0.155l0.082-0.754l0.266,0.156L73.332,39.474z M73.689,39.686
		l-0.267-0.156l0.085-0.753l0.264,0.154L73.689,39.686z M73.807,39.745l0.082-0.749l0.262,0.151L74.066,39.9L73.807,39.745z"/>
	<g>
		<path fill="#B2B2B2" d="M66.545,37.47l-0.072-0.043l0.049-0.664l0.045-0.042l-2.596-1.533l-0.072,0.783l2.647,1.567L66.545,37.47z
			 M64.207,36.101l-0.217-0.129l0.053-0.666l0.219,0.129L64.207,36.101z M64.521,36.281l-0.217-0.127l0.051-0.667l0.218,0.13
			L64.521,36.281z M64.816,36.458l-0.217-0.13l0.051-0.665l0.218,0.128L64.816,36.458z M65.131,36.637l-0.216-0.129l0.049-0.664
			l0.218,0.13L65.131,36.637z M65.448,36.837l-0.216-0.128l0.051-0.666l0.216,0.13L65.448,36.837z M65.762,37.018l-0.219-0.13
			l0.055-0.665l0.217,0.129L65.762,37.018z M66.079,37.2l-0.216-0.129l0.053-0.666l0.215,0.131L66.079,37.2z M66.393,37.38
			l-0.216-0.129l0.052-0.667l0.215,0.129L66.393,37.38z"/>
	</g>
	<path fill="#B2B2B2" d="M44.781,51.343l0.008,0.216l-0.008,0.006v0.063l2.593-1.53l-0.036-0.75l-2.558,1.505L44.781,51.343
		L44.781,51.343z M47.271,49.46l0.022,0.636l-0.195,0.115l-0.022-0.637L47.271,49.46z M46.99,49.621l0.022,0.636l-0.194,0.116
		l-0.024-0.638L46.99,49.621z M46.725,49.779l0.024,0.636l-0.196,0.114l-0.023-0.636L46.725,49.779z M46.443,49.939l0.024,0.637
		l-0.194,0.115l-0.023-0.637L46.443,49.939z M46.157,50.119l0.024,0.638l-0.194,0.114l-0.024-0.637L46.157,50.119z M45.877,50.28
		l0.023,0.636l-0.194,0.116l-0.023-0.637L45.877,50.28z M45.592,50.442l0.023,0.636l-0.192,0.115l-0.024-0.637L45.592,50.442z
		 M45.311,50.604l0.024,0.637l-0.194,0.115l-0.023-0.637L45.311,50.604z M45.046,50.762l0.023,0.637l-0.192,0.115l-0.025-0.637
		L45.046,50.762z"/>
	<path fill="#B2B2B2" d="M42.615,51.652c0,0.473,0.499,0.856,1.114,0.856c0.617,0,1.116-0.384,1.116-0.856c0-0.004,0-0.008,0-0.01
		c-0.018,0.098-0.05,0.153-0.05,0.153l0.014-0.741l0.036-0.047c0-0.016,0-0.033,0-0.05c-0.199,0.235-0.724,0.621-1.116,0.621
		s-0.94-0.336-1.112-0.621c-0.002,0.031-0.003,0.056-0.005,0.085l0.05,0.063l0.012,0.74 M42.675,51.85l-0.013-0.74l0.092,0.097
		l0.012,0.783C42.766,51.986,42.689,51.928,42.675,51.85z M42.871,52.127c0,0-0.02,0-0.072-0.079v-0.806l0.072,0.063V52.127z
		 M43.039,52.285c0,0-0.089-0.074-0.168-0.158v-0.822l0.168,0.1V52.285z M43.232,52.389c0,0-0.038,0-0.135-0.084v-0.853l0.135,0.067
		V52.389z M43.441,52.439c0,0-0.131,0.004-0.209-0.053V51.52l0.209,0.084V52.439z M43.685,52.479c0,0-0.122,0.021-0.184-0.031
		v-0.815l0.18,0.029L43.685,52.479z M43.936,52.439c-0.061,0.055-0.25,0.037-0.25,0.037l-0.004-0.816l0.255-0.033L43.936,52.439
		L43.936,52.439z M44.212,52.389c-0.077,0.055-0.201,0.053-0.201,0.053v-0.838l0.201-0.084V52.389z M44.347,52.305
		c-0.097,0.084-0.135,0.084-0.135,0.084V51.52l0.135-0.066V52.305z M44.581,52.145c-0.097,0.084-0.185,0.133-0.185,0.133V51.41
		l0.185-0.139V52.145z M44.669,52.063c-0.063,0.082-0.088,0.082-0.088,0.082v-0.873l0.088-0.067V52.063z M44.798,51.797
		c-0.036,0.143-0.098,0.225-0.098,0.225l0.013-0.852l0.097-0.113L44.798,51.797z"/>
	<path fill="#B2B2B2" d="M74.211,39.178l-4.22,2.571l0.038,0.76l4.227-2.576L74.211,39.178z M70.119,42.401l-0.033-0.638
		l0.189-0.116l0.035,0.636L70.119,42.401z M70.396,42.235l-0.031-0.634l0.189-0.119l0.034,0.637L70.396,42.235z M70.682,42.053
		l-0.033-0.638l0.193-0.119l0.031,0.636L70.682,42.053z M70.958,41.887l-0.031-0.637l0.192-0.116l0.033,0.638L70.958,41.887z
		 M71.221,41.726l-0.031-0.636l0.191-0.118l0.032,0.638L71.221,41.726z M71.501,41.562l-0.033-0.638l0.19-0.117l0.035,0.636
		L71.501,41.562z M71.773,41.391l-0.033-0.636l0.191-0.121l0.033,0.638L71.773,41.391z M72.051,41.227L72.02,40.59l0.191-0.118
		l0.035,0.637L72.051,41.227z M72.336,41.042l-0.035-0.637l0.193-0.117l0.033,0.637L72.336,41.042z M72.613,40.878l-0.034-0.636
		l0.192-0.119l0.035,0.637L72.613,40.878z M72.876,40.716l-0.033-0.636l0.192-0.119l0.033,0.636L72.876,40.716z M73.152,40.55
		l-0.032-0.636l0.192-0.118l0.033,0.637L73.152,40.55z M73.434,40.383L73.4,39.748l0.19-0.119l0.035,0.636L73.434,40.383z
		 M73.712,40.22l-0.034-0.638l0.194-0.118l0.03,0.637L73.712,40.22z M73.962,39.397l0.192-0.116l0.035,0.635l-0.195,0.119
		L73.962,39.397z"/>
	<polygon fill="#333D54" points="41.514,52.195 41.514,51.141 42.126,51.504 42.126,52.598 	"/>
	<g>
		<ellipse fill="#344E5F" cx="53.708" cy="40.076" rx="1.729" ry="0.746"/>
		<ellipse fill="#344E5F" cx="53.708" cy="41.368" rx="1.729" ry="0.746"/>
		<rect x="51.979" y="40.076" fill="#344E5F" width="3.457" height="1.292"/>
	</g>
	<g>
		<polygon fill="#333D54" points="44.992,48.653 44.992,47.597 45.686,47.961 45.686,49.055 		"/>
		<polygon fill="#333D54" points="43.797,45.916 43.797,46.475 44.246,46.766 44.246,46.195 		"/>
		<polygon fill="#333D54" points="44.312,46.22 44.312,46.778 44.763,47.07 44.763,46.499 		"/>
		<polygon fill="#333D54" points="44.917,46.56 44.917,47.118 45.366,47.41 45.366,46.839 		"/>
		<polygon fill="#333D54" points="45.548,46.912 45.548,47.471 45.997,47.762 45.997,47.191 		"/>
		<polygon fill="#333D54" points="46.168,47.337 46.168,47.896 46.617,48.188 46.617,47.616 		"/>
		<polygon fill="#333D54" points="46.788,47.762 46.788,48.321 47.237,48.612 47.237,48.042 		"/>
	</g>
	<path fill="#AFAFAF" d="M31.111,57.456l0.155,0.733c9.257,0.297,17.929-5.621,17.929-5.621l0.041-0.59
		C38.664,58.393,31.111,57.456,31.111,57.456z M31.34,58.119l-0.085-0.527l0.001-0.037c0,0,0.214,0.026,0.384,0.027l0.04,0.552
		L31.34,58.119z M31.781,58.134l-0.038-0.542c0,0,0.189,0.01,0.358,0.006l0.056,0.551L31.781,58.134z M32.24,58.134l-0.038-0.542
		c0,0,0.188-0.017,0.357-0.02l0.038,0.563L32.24,58.134L32.24,58.134z M32.69,58.134L32.652,57.6v-0.026c0,0,0.195,0.004,0.366,0
		l0.037,0.544L32.69,58.134z M33.144,58.115l-0.039-0.534v-0.026c0,0,0.195,0.004,0.366,0l0.038,0.545L33.144,58.115z
		 M33.605,58.082l-0.038-0.536v-0.024c0,0,0.195,0.004,0.365,0l0.038,0.543L33.605,58.082z M34.072,58.053l-0.05-0.543
		c0.169-0.023,0.361-0.058,0.361-0.058l0.005,0.024l0.048,0.535L34.072,58.053z M34.534,58.012l-0.05-0.543
		c0.169-0.021,0.361-0.058,0.361-0.058l0.004,0.026l0.048,0.533L34.534,58.012z M34.985,57.957l-0.05-0.543
		c0.169-0.023,0.361-0.059,0.361-0.059l0.004,0.025l0.048,0.535L34.985,57.957z M35.44,57.902l-0.053-0.562
		c0.168-0.022,0.356-0.038,0.356-0.038l0.049,0.541L35.44,57.902z M35.876,57.846l-0.033-0.552c0.169-0.022,0.354-0.063,0.354-0.063
		l0.092,0.53L35.876,57.846z M36.396,57.74l-0.1-0.535c0.166-0.039,0.354-0.092,0.354-0.092l0.007,0.023l0.098,0.528L36.396,57.74z
		 M36.853,57.656l-0.1-0.535c0.166-0.039,0.354-0.092,0.354-0.092l0.007,0.023l0.097,0.528L36.853,57.656z M37.296,57.561
		l-0.1-0.537c0.166-0.039,0.354-0.09,0.354-0.09l0.006,0.023l0.098,0.527L37.296,57.561z M37.744,57.461l-0.105-0.553
		c0.167-0.039,0.352-0.071,0.352-0.071l0.1,0.535L37.744,57.461z M38.173,57.363l-0.086-0.547c0.166-0.037,0.347-0.094,0.347-0.094
		l0.1,0.532L38.173,57.363z M38.639,57.207l-0.105-0.553c0.166-0.039,0.351-0.071,0.351-0.071l0.101,0.534L38.639,57.207z
		 M39.066,57.109l-0.084-0.547c0.165-0.039,0.346-0.096,0.346-0.096l0.1,0.534L39.066,57.109z M39.552,56.971l-0.132-0.549
		c0.164-0.047,0.347-0.087,0.347-0.087l0.126,0.528L39.552,56.971z M39.975,56.852l-0.112-0.543
		c0.164-0.045,0.342-0.111,0.342-0.111l0.126,0.529L39.975,56.852z M40.409,56.701l-0.124-0.533
		c0.163-0.049,0.346-0.091,0.346-0.091l0.118,0.515L40.409,56.701z M40.813,56.575l-0.091-0.531c0.162-0.05,0.338-0.117,0.338-0.117
		l0.125,0.511L40.813,56.575z M41.232,56.432l-0.111-0.541c0.163-0.049,0.341-0.113,0.341-0.113l0.126,0.529L41.232,56.432z
		 M41.667,56.281l-0.123-0.533c0.162-0.05,0.336-0.125,0.336-0.125l0.127,0.549L41.667,56.281z M42.066,56.118l-0.13-0.502
		c0.161-0.05,0.372-0.151,0.372-0.151l0.145,0.506L42.066,56.118z M42.534,55.943l-0.154-0.531c0.159-0.059,0.331-0.139,0.331-0.139
		l0.168,0.517L42.534,55.943z M42.956,55.76l-0.166-0.521c0.158-0.063,0.337-0.117,0.337-0.117l0.16,0.502L42.956,55.76z
		 M43.372,55.613l-0.156-0.533c0.16-0.061,0.332-0.141,0.332-0.141l0.169,0.52L43.372,55.613z M43.746,55.426l-0.153-0.531
		c0.159-0.061,0.33-0.141,0.33-0.141l0.168,0.518L43.746,55.426z M44.132,55.266l-0.149-0.498c0.157-0.063,0.334-0.123,0.334-0.123
		l0.144,0.48L44.132,55.266z M44.511,55.07l-0.124-0.485c0.157-0.063,0.326-0.146,0.326-0.146l0.138,0.472L44.511,55.07z
		 M44.922,54.893L44.793,54.4c0.156-0.063,0.327-0.145,0.327-0.145l0.144,0.479L44.922,54.893z M45.355,54.678l-0.142-0.484
		c0.157-0.063,0.334-0.123,0.334-0.123l0.135,0.469L45.355,54.678z M45.756,54.479l-0.13-0.492c0.158-0.063,0.328-0.145,0.328-0.145
		l0.142,0.479L45.756,54.479z M46.155,54.289l-0.129-0.492c0.158-0.063,0.328-0.146,0.328-0.146l0.142,0.479L46.155,54.289z
		 M46.55,54.068l-0.129-0.491c0.158-0.063,0.329-0.146,0.329-0.146l0.141,0.479L46.55,54.068z M46.935,53.859l-0.132-0.471
		c0.154-0.068,0.321-0.156,0.321-0.156l0.146,0.459L46.935,53.859z M47.326,53.658l-0.131-0.475
		c0.155-0.065,0.323-0.154,0.323-0.154l0.144,0.461L47.326,53.658z M47.715,53.427l-0.131-0.473
		c0.155-0.068,0.322-0.155,0.322-0.155l0.145,0.46L47.715,53.427z M48.098,53.167l-0.111-0.442c0.153-0.07,0.32-0.158,0.32-0.158
		l0.123,0.43L48.098,53.167z M48.488,52.96l-0.111-0.442c0.154-0.069,0.32-0.158,0.32-0.158l0.123,0.429L48.488,52.96z
		 M49.107,52.564l-0.24,0.15l-0.104-0.433c0.154-0.072,0.377-0.16,0.377-0.16L49.107,52.564z"/>
	<g>
		<path fill="#AFAFAF" d="M42.264,49.25c0.047,0,0.071,0.001,0.071,0.001l-0.013-0.047C42.302,49.219,42.283,49.233,42.264,49.25z"
			/>
		<path fill="#AFAFAF" d="M37.849,49.833c-0.968,0.545-2.441,1.499-3.844,2.829l0.006,0.02l0.017-0.018l0.191,0.578l0.026,0.068
			c1.325-1.223,2.531-2.18,3.614-2.774L37.849,49.833z M34.285,53.215l-0.198-0.57l0.209-0.192l0.206,0.591
			C34.399,53.13,34.285,53.215,34.285,53.215z M34.549,52.992l-0.207-0.585l0.218-0.212l0.199,0.601
			C34.656,52.884,34.549,52.992,34.549,52.992z M34.799,52.729l-0.186-0.576l0.246-0.215l0.177,0.574
			C34.932,52.59,34.799,52.729,34.799,52.729z M35.077,52.502l-0.185-0.631l0.221-0.162l0.178,0.607
			C35.184,52.393,35.077,52.502,35.077,52.502z M35.343,52.275l-0.178-0.604l0.229-0.182l0.17,0.62
			C35.457,52.184,35.343,52.275,35.343,52.275z M35.599,52.063l-0.174-0.584l0.238-0.201l0.155,0.611
			C35.711,51.965,35.599,52.063,35.599,52.063z M35.875,51.841l-0.171-0.59l0.222-0.162l0.178,0.61
			C35.998,51.773,35.875,51.841,35.875,51.841z M36.156,51.66l-0.179-0.609l0.229-0.181l0.171,0.622
			C36.269,51.563,36.156,51.66,36.156,51.66z M36.439,51.452l-0.178-0.604l0.221-0.16l0.186,0.627
			C36.563,51.387,36.439,51.452,36.439,51.452z M36.726,51.25l-0.162-0.611l0.235-0.165l0.154,0.631
			C36.843,51.167,36.726,51.25,36.726,51.25z M37.018,51.07l-0.161-0.614l0.228-0.141l0.166,0.636
			C37.142,51.014,37.018,51.07,37.018,51.07z M37.312,50.861l-0.161-0.612l0.235-0.165l0.153,0.632
			C37.428,50.775,37.312,50.861,37.312,50.861z M37.443,50.067l0.245-0.143l0.083,0.674c-0.11,0.063-0.168,0.084-0.168,0.084
			L37.443,50.067z"/>
	</g>
	<g>
		<path fill="#AFAFAF" d="M34.046,52.641c-1.149,0.953-2.131,2.086-2.935,3.185l0.009,0.017l0.012-0.018L31.4,56.33l0.034,0.059
			c1.013-1.346,1.999-2.337,2.89-3.063L34.046,52.641z M31.456,56.293l-0.273-0.499l0.159-0.213l0.285,0.515
			C31.548,56.193,31.456,56.293,31.456,56.293z M31.663,56.043l-0.283-0.51l0.165-0.231l0.278,0.525
			C31.742,55.925,31.663,56.043,31.663,56.043z M31.849,55.759l-0.263-0.504l0.19-0.237l0.255,0.502
			C31.946,55.607,31.849,55.759,31.849,55.759z M32.065,55.504l-0.271-0.555l0.176-0.186l0.262,0.534
			C32.146,55.385,32.065,55.504,32.065,55.504z M32.271,55.252l-0.26-0.531l0.179-0.207l0.256,0.551
			C32.361,55.146,32.271,55.252,32.271,55.252z M32.471,55.014l-0.254-0.516l0.185-0.225l0.24,0.543
			C32.559,54.904,32.471,55.014,32.471,55.014z M32.688,54.764l-0.252-0.519l0.176-0.188l0.261,0.539
			C32.788,54.682,32.688,54.764,32.688,54.764z M32.915,54.552l-0.263-0.536l0.179-0.205l0.258,0.549
			C33.002,54.441,32.915,54.552,32.915,54.552z M33.141,54.313l-0.26-0.531l0.176-0.186l0.271,0.551
			C33.242,54.232,33.141,54.313,33.141,54.313z M33.369,54.08l-0.247-0.541l0.189-0.189l0.241,0.56
			C33.463,53.982,33.369,54.08,33.369,54.08z M33.606,53.866l-0.246-0.544l0.186-0.166l0.255,0.563
			C33.712,53.795,33.606,53.866,33.606,53.866z M33.84,53.626l-0.246-0.541l0.188-0.19l0.243,0.562
			C33.933,53.527,33.84,53.626,33.84,53.626z M33.832,52.868l0.185-0.166l0.256,0.563c-0.09,0.074-0.195,0.146-0.195,0.146
			L33.832,52.868z"/>
	</g>
	<g>
		<path fill="#323B49" d="M50.746,51.282c0,0.129-0.088,0.233-0.197,0.233l0,0c-0.109,0-0.198-0.104-0.198-0.233V51.13
			c0-0.129,0.089-0.233,0.198-0.233l0,0c0.109,0,0.197,0.104,0.197,0.233V51.282z"/>
		<path fill="#323B49" d="M53.916,49.424c0,0.129-0.088,0.234-0.197,0.234l0,0c-0.109,0-0.197-0.105-0.197-0.234v-0.151
			c0-0.129,0.088-0.234,0.197-0.234l0,0c0.109,0,0.197,0.105,0.197,0.234V49.424z"/>
		<path fill="#323B49" d="M52.689,51.592c0,0.129-0.088,0.234-0.197,0.234l0,0c-0.109,0-0.197-0.105-0.197-0.234v-0.152
			c0-0.129,0.088-0.233,0.197-0.233l0,0c0.109,0,0.197,0.104,0.197,0.233V51.592z"/>
		<path fill="#323B49" d="M56.236,50c0,0.13-0.088,0.234-0.197,0.234l0,0c-0.109,0-0.197-0.104-0.197-0.234v-0.151
			c0-0.129,0.088-0.233,0.197-0.233l0,0c0.109,0,0.197,0.104,0.197,0.233V50z"/>
		<path fill="#323B49" d="M56.93,47.668c0,0.129-0.089,0.234-0.197,0.234l0,0c-0.109,0-0.197-0.105-0.197-0.234v-0.151
			c0-0.13,0.088-0.234,0.197-0.234l0,0c0.108,0,0.197,0.104,0.197,0.234V47.668z"/>
		<path fill="#323B49" d="M59.197,47.978c0,0.13-0.088,0.234-0.197,0.234l0,0c-0.109,0-0.197-0.104-0.197-0.234v-0.151
			c0-0.129,0.088-0.234,0.197-0.234l0,0c0.109,0,0.197,0.105,0.197,0.234V47.978z"/>
		<path fill="#323B49" d="M59.996,45.917c0,0.13-0.087,0.234-0.197,0.234l0,0c-0.109,0-0.197-0.104-0.197-0.234v-0.151
			c0-0.129,0.088-0.234,0.197-0.234l0,0c0.11,0,0.197,0.105,0.197,0.234V45.917z"/>
		<path fill="#323B49" d="M61.979,46.537c0,0.129-0.088,0.233-0.197,0.233l0,0c-0.11,0-0.198-0.104-0.198-0.233v-0.151
			c0-0.129,0.088-0.234,0.198-0.234l0,0c0.109,0,0.197,0.105,0.197,0.234V46.537z"/>
		<path fill="#323B49" d="M62.973,44.072c0,0.129-0.086,0.234-0.197,0.234l0,0c-0.108,0-0.196-0.105-0.196-0.234V43.92
			c0-0.129,0.088-0.233,0.196-0.233l0,0c0.111,0,0.197,0.104,0.197,0.233V44.072z"/>
		<path fill="#323B49" d="M64.904,44.834c0,0.129-0.088,0.233-0.197,0.233l0,0c-0.107,0-0.197-0.104-0.197-0.233v-0.152
			c0-0.129,0.09-0.233,0.197-0.233l0,0c0.109,0,0.197,0.104,0.197,0.233V44.834z"/>
		<path fill="#323B49" d="M66.082,42.21c0,0.129-0.087,0.234-0.197,0.234l0,0c-0.109,0-0.197-0.105-0.197-0.234v-0.152
			c0-0.129,0.088-0.234,0.197-0.234l0,0c0.11,0,0.197,0.104,0.197,0.234V42.21z"/>
		<path fill="#323B49" d="M68.003,43.191c0,0.129-0.088,0.234-0.196,0.234l0,0c-0.111,0-0.199-0.105-0.199-0.234V43.04
			c0-0.129,0.088-0.234,0.199-0.234l0,0c0.108,0,0.196,0.105,0.196,0.234V43.191z"/>
		<path fill="#323B49" d="M69.165,40.399c0,0.129-0.088,0.234-0.197,0.234l0,0c-0.11,0-0.196-0.104-0.196-0.234v-0.152
			c0-0.128,0.086-0.234,0.196-0.234l0,0c0.109,0,0.197,0.105,0.197,0.234V40.399z"/>
	</g>
	<g>
		<rect x="35.099" y="53.156" fill="#4C5B70" width="0.583" height="0.877"/>
		<ellipse fill="#323B49" cx="35.391" cy="54.176" rx="0.432" ry="0.207"/>
		<ellipse fill="#323B49" cx="35.391" cy="53.156" rx="0.432" ry="0.207"/>
	</g>
	<g>
		<rect x="37.997" y="54.579" fill="#4C5B70" width="0.583" height="0.878"/>
		<ellipse fill="#323B49" cx="38.289" cy="55.602" rx="0.432" ry="0.207"/>
		<ellipse fill="#323B49" cx="38.289" cy="54.579" rx="0.432" ry="0.207"/>
	</g>
	<ellipse fill="#4C5B70" cx="35.391" cy="54.067" rx="0.292" ry="0.109"/>
	<ellipse fill="#DDDDDD" cx="40.382" cy="49.205" rx="0.201" ry="0.201"/>
	<ellipse fill="#DDDDDD" cx="44.014" cy="50.827" rx="0.201" ry="0.201"/>
	<path fill="#515151" d="M32.503,51.496c0,0-1.085,3.677-1.053,5.328h0.13v-0.34l1.587,0.826l-0.062,0.269h0.175
		C33.281,57.581,33.362,52.889,32.503,51.496z M32.512,51.799c0.085,0.137,0.207,0.543,0.207,0.543l-0.331-0.061
		C32.388,52.038,32.512,51.799,32.512,51.799z M32.391,52.391l0.328,0.062c0.109,0.438,0.158,0.84,0.158,0.84l-0.687-0.135
		C32.231,52.841,32.391,52.391,32.391,52.391z M32.159,53.291l0.753,0.169c0.074,0.353,0.134,1.274,0.134,1.274l-1.085-0.439
		C32.026,53.633,32.159,53.291,32.159,53.291z M33.155,57.165L31.618,56.4l0.069-0.909l-0.069-0.033h0.072l-0.002,0.033l1.468,0.716
		L33.155,57.165L33.155,57.165z M33.155,56.061l-1.409-0.703c0.041-0.498,0.194-0.975,0.194-0.975l1.13,0.463
		C33.18,55.27,33.155,56.061,33.155,56.061z"/>
	<polygon fill="#515251" points="31.649,50.607 31.649,51.16 33.459,52.096 33.544,51.998 33.568,51.477 33.386,51.488 
		33.35,51.872 31.843,51.087 31.832,50.54 	"/>
	<polygon fill="#515251" points="33.205,50.607 33.205,51.16 31.819,52.096 31.754,51.998 31.735,51.477 31.875,51.488 
		31.902,51.872 33.056,51.087 33.066,50.54 	"/>
	<g>
		<g>
			<g>
				<path fill="#8795A0" d="M64.891,38.087l-0.432-6.285l-0.001-0.033l-0.112-0.084l0.038,1.004l0.009,0.197l0.01,0.248
					l-0.079-0.143l-0.064-0.119l-0.495-0.907l-0.023-0.549l-0.008-0.202L63.65,31.15l-0.022,6.109l0.024,0.017l0.168,0.115
					l-0.023-0.645l0.262,0.391l0.062,0.089l0.228,0.34l0.01,0.017l0.047,0.068l0.102,0.149l0.072,0.108l0.216,0.147l0.067,0.047
					l0.037,0.024L64.891,38.087z M64.596,36.893l-0.082-0.126L64.45,36.67l-0.12-0.184l-0.064-0.1l-0.229-0.348l-0.109-0.167
					l-0.157-0.24l0.254,0.117l0.172,0.08l0.356,0.164l0.015,0.291l0.007,0.111l0.007,0.123l0.009,0.164L64.596,36.893z
					 M63.75,34.513l0.096,0.164l0.088,0.148l0.127,0.214l0.094,0.16l0.128,0.215l0.097,0.165l0.154,0.262l-0.268-0.109l-0.177-0.072
					l-0.313-0.128l-0.004-0.149l-0.006-0.218l-0.004-0.117l-0.006-0.245L63.75,34.513z M63.749,33.322l0.092,0.155l0.078,0.13
					l0.116,0.194l0.078,0.13l0.117,0.197l0.104,0.171l0.113,0.19l-0.185-0.097l-0.158-0.083l-0.326-0.17v-0.008l-0.008-0.175
					l-0.004-0.12l-0.01-0.241L63.749,33.322z M64.488,34.855l0.014,0.177l0.008,0.09l0.018,0.259l0.015,0.178l-0.065-0.107
					l-0.098-0.16l-0.094-0.154l-0.096-0.153l-0.168-0.274l-0.092-0.15l-0.154-0.256l0.236,0.142l0.146,0.088l0.322,0.193
					L64.488,34.855z M64.398,33.586l0.014,0.168l0.009,0.105l0.024,0.293l0.013,0.147l-0.052-0.095l-0.102-0.181l-0.086-0.155
					l-0.074-0.133l-0.142-0.256l-0.073-0.131l-0.176-0.316l0.258,0.195l0.104,0.078l0.274,0.207L64.398,33.586z M64.191,32.969
					l0.065,0.124l0.128,0.247l-0.195-0.146l-0.101-0.075l-0.323-0.241l-0.017-0.754L64.191,32.969z M64.574,37.717l-0.1-0.156
					l-0.02-0.031l-0.005-0.007l-0.248-0.393l-0.06-0.094l-0.188-0.294l-0.123-0.065l-0.016-0.008l-0.004-0.127l-0.004-0.039v-0.002
					l0.002,0.001l-0.006-0.157L63.79,36.04l-0.008-0.224l0.084,0.126l0.112,0.167l0.203,0.304l0.069,0.101l0.144,0.216l0.063,0.095
					l0.192,0.288l-0.301-0.16l-0.098-0.051l-0.3-0.159l0.274,0.189l0.088,0.062l0.33,0.226l0.017,0.211l0.014,0.165l0.026,0.33
					L64.574,37.717z"/>
				<polygon fill="none" points="62.221,36.389 62.204,36.555 62.322,36.734 62.525,36.539 				"/>
				<polygon fill="none" points="62.997,36.77 62.625,36.589 62.378,36.819 62.48,36.975 62.995,36.817 				"/>
				<polygon fill="none" points="63.191,32.964 63.225,32.456 62.718,33.064 62.768,33.155 				"/>
				<polygon fill="none" points="62.994,36.834 62.518,37.029 62.663,37.254 62.988,36.933 				"/>
				<polygon fill="none" points="62.952,37.695 62.977,37.184 62.754,37.393 				"/>
				<polygon fill="none" points="62.248,36.805 62.189,36.716 62.174,36.875 				"/>
				<polygon fill="none" points="62.382,37.005 62.305,36.888 62.08,37.097 				"/>
				<polygon fill="none" points="62.596,37.323 62.425,37.067 62.085,37.206 62.057,37.406 62.148,37.456 62.348,37.566 				"/>
				<polygon fill="none" points="63,33.589 63.162,33.406 63.18,33.138 62.839,33.291 				"/>
				<polygon fill="none" points="62.154,37.758 62.033,37.577 61.982,37.926 				"/>
				<polygon fill="none" points="63.77,35.631 63.926,35.871 64.021,35.748 				"/>
				<polygon fill="none" points="63.298,36.724 63.316,35.94 63.271,35.984 63.251,36.739 				"/>
				<polygon fill="none" points="64.57,36.394 64.33,36.486 64.45,36.67 64.577,36.517 				"/>
				<polygon fill="none" points="63.75,34.513 63.759,34.803 63.846,34.677 				"/>
				<polygon fill="none" points="63.322,35.779 63.325,35.677 63.277,35.689 63.273,35.825 				"/>
				<polygon fill="none" points="64.532,35.841 64.379,35.579 64.268,35.733 				"/>
				<polygon fill="none" points="64.551,35.992 64.193,35.828 64.035,36.038 64.266,36.386 64.564,36.283 				"/>
				<polygon fill="none" points="63.352,32.892 63.395,32.872 63.407,32.438 63.553,32.351 63.568,32.041 63.279,32.388 
					63.361,32.451 				"/>
				<polygon fill="none" points="63.033,36.327 63.035,36.204 62.986,36.25 				"/>
				<polygon fill="none" points="63.132,33.838 63.143,33.697 63.088,33.754 				"/>
				<polygon fill="none" points="64.596,36.893 64.587,36.681 64.514,36.766 				"/>
				<polygon fill="none" points="63.07,35.031 63.073,34.969 63.05,34.992 				"/>
				<polygon fill="none" points="62.648,34.571 62.398,34.659 62.371,34.862 62.729,35.056 62.857,34.924 				"/>
				<polygon fill="none" points="62.958,34.822 63.074,34.702 63.076,34.421 62.794,34.521 				"/>
				<polygon fill="none" points="62.768,35.296 62.548,35.528 62.662,35.717 63.048,35.631 63.051,35.469 				"/>
				<polygon fill="none" points="63.777,35.533 64.09,35.661 64.281,35.414 64.154,35.199 63.773,35.383 				"/>
				<polygon fill="none" points="62.491,35.756 62.432,35.652 62.292,35.8 				"/>
				<polygon fill="none" points="62.992,36.614 62.854,36.375 62.725,36.496 				"/>
				<path fill="none" d="M62.439,34.223v-0.002V34.223z"/>
				<polygon fill="none" points="63.002,37.927 62.686,37.457 62.484,37.643 				"/>
				<polygon fill="none" points="62.563,35.876 62.262,35.954 62.23,36.277 62.62,36.449 62.797,36.28 				"/>
				<polygon fill="none" points="62.543,34.392 62.52,34.352 62.452,34.419 				"/>
				<polygon fill="none" points="63.035,35.225 62.957,35.092 62.902,35.151 				"/>
				<polygon fill="none" points="62.93,36.155 63.039,36.049 63.046,35.75 62.732,35.832 				"/>
				<polygon fill="none" points="62.566,33.015 62.555,32.99 62.551,33.032 				"/>
				<polygon fill="none" points="62.975,38.762 62.982,38.036 62.456,37.67 62.35,37.772 				"/>
				<polygon fill="none" points="62.661,33.201 62.641,33.159 62.57,33.242 				"/>
				<polygon fill="none" points="62.331,37.582 62.148,37.456 62.27,37.646 				"/>
				<polygon fill="none" points="62.503,33.786 62.482,33.945 62.559,34.089 62.695,33.932 				"/>
				<polygon fill="none" points="62.826,34.029 62.635,34.229 62.698,34.346 63.078,34.231 63.078,34.219 				"/>
				<polygon fill="none" points="62.35,35.04 62.331,35.172 62.439,35.352 62.598,35.192 				"/>
				<polygon fill="none" points="62.527,33.622 62.795,33.822 62.91,33.689 62.732,33.34 62.557,33.419 				"/>
				<polygon fill="none" points="63.09,34.042 62.993,33.854 62.928,33.922 				"/>
				<polygon fill="none" points="62.326,35.472 62.297,35.426 62.288,35.51 				"/>
				<polygon fill="none" points="64.4,33.136 64.393,32.888 64.322,32.993 				"/>
				<polygon fill="none" points="64.456,37.529 64.477,37.561 64.537,37.485 				"/>
				<polygon fill="none" points="63.755,33.032 63.93,33.347 64.014,33.227 				"/>
				<polygon fill="none" points="64.004,33.479 64.145,33.735 64.398,33.586 64.393,33.512 64.117,33.305 				"/>
				<polygon fill="none" points="64.574,37.717 64.706,37.923 64.68,37.595 				"/>
				<polygon fill="none" points="64.387,33.339 64.258,33.092 64.189,33.193 				"/>
				<polygon fill="none" points="63.328,35.568 63.35,34.673 63.303,34.724 63.279,35.578 				"/>
				<polygon fill="none" points="64.305,34.023 64.421,33.859 64.412,33.754 64.219,33.869 				"/>
				<polygon fill="none" points="64.666,37.429 64.648,37.219 64.318,36.992 64.201,37.13 64.451,37.522 64.537,37.485 				"/>
				<polygon fill="none" points="64.398,36.731 64.255,36.515 63.833,36.677 63.957,36.742 64.257,36.902 				"/>
				<polygon fill="none" points="64.458,34.3 64.445,34.152 64.404,34.205 				"/>
				<polygon fill="none" points="64.654,37.113 64.462,36.826 64.354,36.953 				"/>
				<polygon fill="none" points="63.982,36.11 63.807,36.345 63.813,36.501 63.811,36.5 63.811,36.503 63.814,36.542 64.186,36.414 
									"/>
				<polygon fill="none" points="63.957,36.742 64.145,37.036 64.23,36.931 				"/>
				<polygon fill="none" points="63.766,32.877 64.09,33.118 64.191,32.969 63.75,32.123 				"/>
				<polygon fill="none" points="63.785,35.816 63.793,36.04 63.87,35.942 				"/>
				<polygon fill="none" points="64.021,34.71 64.188,34.984 64.488,34.855 64.479,34.727 64.154,34.533 				"/>
				<polygon fill="none" points="63.779,34.14 64.104,34.311 64.23,34.129 64.113,33.932 63.777,34.132 				"/>
				<polygon fill="none" points="63.363,34.145 63.381,33.447 63.336,33.495 63.316,34.159 				"/>
				<polygon fill="none" points="63.771,33.957 64.035,33.802 63.918,33.607 63.768,33.837 				"/>
				<polygon fill="none" points="63.389,33.146 63.393,33.042 63.346,33.062 63.343,33.199 				"/>
				<polygon fill="none" points="63.768,35.165 64.061,35.039 63.934,34.825 63.764,35.048 				"/>
				<polygon fill="none" points="63.355,34.412 63.359,34.322 63.313,34.339 63.311,34.46 				"/>
				<polygon fill="none" points="64.541,35.559 64.525,35.381 64.477,35.452 				"/>
				<polygon fill="none" points="63.749,33.322 63.758,33.597 63.841,33.477 				"/>
				<polygon fill="none" points="64.447,34.49 64.333,34.3 64.262,34.394 				"/>
				<polygon fill="none" points="63.589,37.35 63.591,37.696 64.057,37.14 63.795,36.75 63.818,37.394 63.65,37.279 63.65,37.326 
									"/>
				<polygon fill="none" points="63.773,34.304 63.93,34.56 64.01,34.445 				"/>
				<polygon fill="none" points="64.377,35.292 64.509,35.122 64.501,35.032 64.283,35.138 				"/>
				<polygon fill="none" points="63.506,38.762 64.4,37.654 64.354,37.585 63.536,38.034 				"/>
				<polygon fill="none" points="64.344,37.569 64.117,37.229 63.521,37.927 				"/>
				<polygon fill="#617990" points="64.354,36.953 64.462,36.826 64.398,36.731 64.257,36.902 				"/>
				<polygon fill="#617990" points="64.393,32.888 64.385,32.69 64.258,32.874 64.322,32.993 				"/>
				<polygon fill="#617990" points="63.934,34.825 63.846,34.677 63.759,34.803 63.764,35.048 				"/>
				<polygon fill="#617990" points="64.79,38.143 64.857,38.107 64.789,38.06 				"/>
				<polygon fill="#617990" points="64.23,36.931 64.145,37.036 64.201,37.13 64.318,36.992 				"/>
				<polygon fill="#617990" points="64.564,36.283 64.266,36.386 64.33,36.486 64.57,36.394 				"/>
				<polygon fill="#617990" points="64.283,35.138 64.501,35.032 64.488,34.855 64.188,34.984 				"/>
				<polygon fill="#617990" points="64.021,35.748 63.926,35.871 64.035,36.038 64.193,35.828 				"/>
				<polygon fill="#617990" points="64.186,36.414 63.814,36.542 63.816,36.669 63.833,36.677 64.255,36.515 				"/>
				<polygon fill="#617990" points="64.268,35.733 64.379,35.579 64.281,35.414 64.09,35.661 				"/>
				<polygon fill="#617990" points="64.014,33.227 63.93,33.347 64.004,33.479 64.117,33.305 				"/>
				<polygon fill="#617990" points="64.45,36.67 64.514,36.766 64.587,36.681 64.577,36.517 				"/>
				<polygon fill="#617990" points="65.068,37.989 64.57,31.736 64.461,31.803 64.891,38.087 				"/>
				<polygon fill="#617990" points="63.773,35.383 64.154,35.199 64.061,35.039 63.768,35.165 				"/>
				<polygon fill="#617990" points="64.189,33.193 64.258,33.092 64.191,32.969 64.09,33.118 				"/>
				<polygon fill="#617990" points="64.451,37.522 64.456,37.529 64.537,37.485 				"/>
				<polygon fill="#617990" points="64.477,35.452 64.525,35.381 64.509,35.122 64.377,35.292 				"/>
				<polygon fill="#617990" points="64.219,33.869 64.412,33.754 64.398,33.586 64.145,33.735 				"/>
				<polygon fill="#617990" points="64.404,34.205 64.445,34.152 64.421,33.859 64.305,34.023 				"/>
				<polygon fill="#617990" points="63.777,34.132 64.113,33.932 64.035,33.802 63.771,33.957 				"/>
				<polygon fill="#617990" points="64.666,37.429 64.537,37.485 64.477,37.561 64.574,37.717 64.68,37.595 				"/>
				<polygon fill="#617990" points="63.506,38.762 63.536,38.034 64.354,37.585 64.344,37.569 63.521,37.927 64.117,37.229 
					64.057,37.14 63.591,37.696 63.589,37.35 63.65,37.326 63.65,37.279 63.626,37.262 63.648,31.152 63.73,31.216 63.738,31.419 
					63.747,31.052 63.616,31.11 63.553,31.879 62.645,32.925 62.718,33.064 63.225,32.456 63.229,32.351 63.279,32.388 
					63.568,32.041 63.553,32.351 63.407,32.438 63.395,32.872 63.352,32.892 63.346,33.062 63.393,33.042 63.389,33.146 
					63.343,33.199 63.336,33.495 63.381,33.447 63.363,34.145 63.316,34.159 63.313,34.339 63.359,34.322 63.355,34.412 
					63.311,34.46 63.303,34.724 63.35,34.673 63.328,35.568 63.279,35.578 63.277,35.689 63.325,35.677 63.322,35.779 
					63.273,35.825 63.271,35.984 63.316,35.94 63.298,36.724 63.251,36.739 63.245,36.933 63.295,36.888 63.24,38.99 63.703,38.736 
					64.501,37.804 64.4,37.654 				"/>
				<polygon fill="#617990" points="64.01,34.445 63.93,34.56 64.021,34.71 64.154,34.533 				"/>
				<polygon fill="#617990" points="64.262,34.394 64.333,34.3 64.23,34.129 64.104,34.311 				"/>
				<polygon fill="#617990" points="63.87,35.942 63.793,36.04 63.807,36.345 63.982,36.11 				"/>
				<polygon fill="#617990" points="63.918,33.607 63.841,33.477 63.758,33.597 63.768,33.837 				"/>
				<polygon fill="#617990" points="62.525,36.539 62.322,36.734 62.378,36.819 62.625,36.589 				"/>
				<polygon fill="#617990" points="62.484,37.643 62.686,37.457 62.596,37.323 62.348,37.566 				"/>
				<polygon fill="#617990" points="62.425,37.067 62.382,37.005 62.08,37.097 62.305,36.888 62.248,36.805 62.174,36.875 
					62.189,36.716 62.037,36.49 61.992,37.193 61.991,37.192 61.992,37.193 61.98,37.363 62.057,37.406 62.085,37.206 				"/>
				<polygon fill="#617990" points="62.036,36.299 62.204,36.555 62.221,36.389 				"/>
				<polygon fill="#617990" points="62.928,33.922 62.993,33.854 62.91,33.689 62.795,33.822 				"/>
				<polygon fill="#617990" points="62.35,33.489 62.527,33.622 62.557,33.419 62.732,33.34 62.661,33.201 62.57,33.242 
					62.641,33.159 62.566,33.015 62.551,33.032 62.555,32.99 62.415,32.718 				"/>
				<polygon fill="#617990" points="62.35,37.772 62.456,37.67 62.331,37.582 62.27,37.646 				"/>
				<polygon fill="#617990" points="62.663,37.254 62.754,37.393 62.977,37.184 62.988,36.933 				"/>
				<polygon fill="#617990" points="62.995,36.817 62.48,36.975 62.518,37.029 62.994,36.834 				"/>
				<polygon fill="#617990" points="62.732,35.832 63.046,35.75 63.048,35.631 62.662,35.717 				"/>
				<polygon fill="#617990" points="62.986,36.25 63.035,36.204 63.039,36.049 62.93,36.155 				"/>
				<polygon fill="#617990" points="63.088,33.754 63.143,33.697 63.162,33.406 63,33.589 				"/>
				<polygon fill="#617990" points="63.05,34.992 63.073,34.969 63.074,34.702 62.958,34.822 				"/>
				<polygon fill="#617990" points="62.648,34.571 62.543,34.392 62.452,34.419 62.52,34.352 62.439,34.223 62.439,34.223 
					62.439,34.221 62.275,33.942 62.221,34.779 62.371,34.862 62.398,34.659 				"/>
				<polygon fill="#617990" points="62.729,35.056 62.902,35.151 62.957,35.092 62.857,34.924 				"/>
				<polygon fill="#617990" points="62.563,35.876 62.491,35.756 62.292,35.8 62.432,35.652 62.326,35.472 62.288,35.51 
					62.297,35.426 62.143,35.156 62.059,36.2 62.23,36.277 62.262,35.954 				"/>
				<polygon fill="#617990" points="62.62,36.449 62.725,36.496 62.854,36.375 62.797,36.28 				"/>
				<polygon fill="#617990" points="61.691,38.125 61.84,38.063 61.709,37.973 				"/>
				<polygon fill="#617990" points="62.193,34.945 62.331,35.172 62.35,35.04 				"/>
				<polygon fill="#617990" points="62.598,35.192 62.439,35.352 62.548,35.528 62.768,35.296 				"/>
				<polygon fill="#617990" points="62.695,33.932 62.559,34.089 62.635,34.229 62.826,34.029 				"/>
				<polygon fill="#617990" points="62.316,33.645 62.482,33.945 62.503,33.786 				"/>
				<polygon fill="#617990" points="61.982,37.926 62.033,37.577 61.943,37.443 61.902,38.037 62.188,37.923 62.234,37.877 
					62.154,37.758 				"/>
				<polygon fill="#617990" points="62.45,32.562 62.568,32.788 62.664,31.547 62.493,31.625 62.477,31.775 62.495,31.79 				"/>
				<polygon fill="#617990" points="62.794,34.521 63.076,34.421 63.078,34.231 62.698,34.346 				"/>
				<polygon fill="#617990" points="62.839,33.291 63.18,33.138 63.191,32.964 62.768,33.155 				"/>
				<path fill="#8795A0" d="M63.271,35.984l0.004-0.16l0.002-0.136l0.004-0.111l0.021-0.854l0.008-0.263l0.004-0.122l0.004-0.18
					l0.019-0.664l0.007-0.294l0.004-0.139l0.004-0.169l0.014-0.441l-0.082-0.064l-0.051-0.037l-0.006,0.105l-0.033,0.508
					l-0.012,0.174l-0.019,0.268l-0.019,0.292l-0.011,0.141l-0.045-0.084L63,33.589l-0.159-0.299l-0.073-0.136l-0.049-0.09
					l-0.074-0.14l-0.074-0.138l-0.119-0.227l0.046-0.771l-0.021-0.015l-0.08-0.061l-0.729,6.229l0.043,0.03l0.131,0.09l0.059,0.042
					l0.006-0.067l0.039-0.594l0.09,0.133l0.119,0.181l0.082,0.12l0.57,0.852l0.387,0.268l0.053-2.064l0.006-0.194L63.271,35.984z
					 M63.046,35.75l-0.007,0.299l-0.004,0.155l-0.002,0.123l-0.049-0.077l-0.058-0.096L62.73,35.83l-0.069-0.114l-0.113-0.188
					l-0.108-0.177l-0.108-0.18l-0.138-0.227l0.154,0.095l0.248,0.151l0.17,0.104l0.283,0.174l-0.001,0.162L63.046,35.75z
					 M62.992,36.614l-0.27-0.118l-0.104-0.047l-0.389-0.172L62.057,36.2l0.086-1.044l0.154,0.27l0.027,0.046l0.105,0.181
					l0.061,0.104l0.07,0.12l0.234,0.404l0.057,0.095L62.992,36.614z M63.035,35.225L62.9,35.152l-0.172-0.095l-0.357-0.194
					l-0.15-0.083l0.055-0.836l0.166,0.279v0.001l0.078,0.129l0.023,0.041l0.105,0.179l0.209,0.353l0.101,0.168L63.035,35.225z
					 M63.076,34.421l-0.002,0.281l-0.001,0.268l-0.003,0.062l-0.021-0.038l-0.092-0.171l-0.164-0.302l-0.096-0.175l-0.063-0.117
					l-0.076-0.14l-0.078-0.144l-0.164-0.3l0.187,0.141l0.192,0.146l0.131,0.097l0.252,0.19v0.012L63.076,34.421z M62.555,32.99
					l0.012,0.025l0.074,0.144l0.021,0.042l0.07,0.139l0.179,0.35l0.082,0.163l0.097,0.189l-0.162-0.121l-0.133-0.099l-0.268-0.2
					l-0.178-0.133l0.065-0.771L62.555,32.99z M62.331,37.582l0.125,0.087l0.526,0.366l-0.008,0.726l-0.627-0.989l-0.08-0.127
					l-0.119-0.188l-0.092-0.05l-0.076-0.043l0.011-0.169l-0.001-0.001h0.001l0.046-0.703l0.15,0.227l0.06,0.088l0.056,0.083
					l0.079,0.117l0.043,0.063l0.171,0.255l0.09,0.134L63,37.927l-0.516-0.285l-0.139-0.077l-0.197-0.11L62.331,37.582z
					 M62.952,37.695l-0.198-0.302l-0.091-0.139l-0.146-0.225l-0.037-0.055l-0.104-0.155l-0.057-0.085l-0.116-0.179l-0.169-0.256
					l0.184,0.089l0.307,0.15l0.1,0.049l0.372,0.181l-0.002,0.047l-0.001,0.017l-0.006,0.099l-0.014,0.251L62.952,37.695z"/>
			</g>
			<polygon fill="#898989" points="64.704,31.838 63.359,32.509 62.313,31.659 63.747,31.052 			"/>
		</g>
		<g>
			<polygon fill="#232323" points="61.59,30.314 61.941,30.24 63.379,31.265 63.55,31.384 64.637,30.931 64.96,31.095 64.1,31.62 
				65.753,32.737 65.43,32.867 63.509,31.864 62.6,32.261 62.145,32.039 63.018,31.59 62.418,31.109 			"/>
			<polygon fill="#4B5E6D" points="61.604,30.255 61.955,30.183 63.396,31.185 63.568,31.301 64.658,30.862 64.98,31.022 
				64.121,31.532 65.782,32.625 65.459,32.75 63.531,31.769 62.596,32.21 62.146,31.998 63.036,31.502 62.436,31.031 			"/>
			
				<rect x="61.983" y="29.567" transform="matrix(0.9962 0.0872 -0.0872 0.9962 2.8516 -5.2955)" fill="#232323" width="0.157" height="0.875"/>
			
				<rect x="64.673" y="30.197" transform="matrix(0.9962 0.0874 -0.0874 0.9962 2.9229 -5.5415)" fill="#232323" width="0.168" height="0.835"/>
			
				<rect x="62.382" y="31.113" transform="matrix(0.9964 0.0852 -0.0852 0.9964 2.9165 -5.2071)" fill="#232323" width="0.189" height="0.919"/>
			
				<rect x="65.521" y="31.794" transform="matrix(0.9968 0.0797 -0.0797 0.9968 2.7791 -5.1292)" fill="#232323" width="0.171" height="0.873"/>
		</g>
		<polygon fill="#494949" points="63.738,31.419 63.466,31.426 63.411,28.711 63.686,28.704 		"/>
		<polygon fill="#494949" points="63.878,28.699 63.277,28.715 63.266,28.118 63.865,28.103 		"/>
	</g>
	<polygon fill="#515251" points="32.171,49.648 32.171,49.948 32.415,49.948 32.471,51.584 32.576,51.584 32.576,49.948 
		32.719,49.948 32.719,49.648 	"/>
	<polygon fill="#494949" points="47.237,42.264 47.237,42.901 46.492,43.545 46.563,43.583 47.237,43.089 47.212,43.931 
		47.381,43.931 47.381,43.098 47.922,43.436 47.941,43.355 47.381,42.999 47.381,42.198 	"/>
	<circle fill="#BFBFBF" cx="47.381" cy="41.492" r="0.995"/>
	<ellipse fill="#617990" cx="53.708" cy="38.239" rx="2.411" ry="2.306"/>
	<ellipse fill="#E5E5E5" cx="54.416" cy="37.053" rx="0.521" ry="0.459"/>
	<ellipse fill="#E5E5E5" cx="50.756" cy="39.856" rx="0.411" ry="0.411"/>
	<ellipse fill="#617990" cx="50.207" cy="40.621" rx="1.88" ry="1.798"/>
	<ellipse fill="#E5E5E5" cx="50.756" cy="39.933" rx="0.521" ry="0.46"/>
	<path fill="#B2B2B2" d="M66.54,36.682l-8.418,5.017l0.032,0.761l8.427-5.027L66.54,36.682z M58.438,42.236l-0.192,0.115
		l-0.027-0.637L58.41,41.6L58.438,42.236z M58.718,42.075l-0.192,0.113l-0.026-0.634l0.192-0.119L58.718,42.075z M59.002,41.892
		l-0.193,0.117l-0.025-0.636l0.193-0.117L59.002,41.892z M59.281,41.732l-0.193,0.114l-0.025-0.637l0.193-0.113L59.281,41.732z
		 M59.545,41.573l-0.193,0.116l-0.025-0.637l0.193-0.116L59.545,41.573z M59.828,41.409l-0.194,0.119l-0.026-0.639l0.193-0.115
		L59.828,41.409z M60.102,41.242l-0.193,0.117l-0.027-0.637l0.193-0.119L60.102,41.242z M60.382,41.08l-0.194,0.116l-0.026-0.637
		l0.192-0.116L60.382,41.08z M60.666,40.9l-0.191,0.114l-0.027-0.637l0.191-0.115L60.666,40.9z M60.947,40.736l-0.194,0.118
		l-0.028-0.637L60.92,40.1L60.947,40.736z M61.21,40.577l-0.192,0.117l-0.025-0.636l0.191-0.117L61.21,40.577z M61.491,40.416
		l-0.195,0.115l-0.026-0.637l0.193-0.116L61.491,40.416z M61.771,40.25l-0.194,0.117l-0.027-0.636l0.194-0.117L61.771,40.25z
		 M62.052,40.09l-0.192,0.116l-0.027-0.639l0.193-0.115L62.052,40.09z M62.338,39.907l-0.195,0.117l-0.025-0.638l0.193-0.115
		L62.338,39.907z M62.617,39.747l-0.195,0.115l-0.025-0.636l0.193-0.116L62.617,39.747z M62.88,39.587l-0.194,0.115l-0.025-0.636
		l0.193-0.117L62.88,39.587z M63.161,39.425l-0.194,0.116l-0.027-0.636l0.194-0.116L63.161,39.425z M63.438,39.247l-0.194,0.118
		l-0.025-0.639l0.193-0.115L63.438,39.247z M63.717,39.085l-0.193,0.117l-0.026-0.636l0.19-0.117L63.717,39.085z M64.002,38.903
		l-0.191,0.117l-0.027-0.637l0.193-0.116L64.002,38.903z M64.282,38.742L64.09,38.86l-0.027-0.638l0.193-0.116L64.282,38.742z
		 M64.547,38.583l-0.193,0.116l-0.026-0.636l0.192-0.116L64.547,38.583z M64.827,38.421l-0.193,0.115l-0.026-0.635l0.192-0.117
		L64.827,38.421z M65.109,38.258l-0.193,0.117l-0.025-0.637l0.192-0.116L65.109,38.258z M65.391,38.096l-0.192,0.116l-0.027-0.637
		l0.194-0.116L65.391,38.096z M65.676,37.914l-0.193,0.115l-0.026-0.635l0.192-0.118L65.676,37.914z M65.957,37.751l-0.195,0.116
		l-0.027-0.635l0.195-0.117L65.957,37.751z M66.221,37.593l-0.195,0.116l-0.026-0.636l0.196-0.117L66.221,37.593z M66.5,37.431
		l-0.193,0.115l-0.027-0.636l0.195-0.116L66.5,37.431z"/>
	<path fill="#898989" d="M58.792,41.453l-9.805,5.682v0.93l9.815-5.695L58.792,41.453z M49.32,47.805l-0.226,0.131v-0.777
		l0.226-0.133V47.805z M49.646,47.622l-0.227,0.132v-0.778l0.227-0.131V47.622z M49.979,47.414l-0.226,0.133V46.77l0.226-0.133
		V47.414z M50.306,47.233l-0.227,0.131v-0.777l0.227-0.132V47.233z M50.611,47.053l-0.225,0.131v-0.777l0.225-0.132V47.053z
		 M50.938,46.869l-0.227,0.133v-0.778l0.227-0.133V46.869z M51.258,46.679l-0.225,0.132v-0.778l0.225-0.132V46.679z M51.585,46.496
		l-0.228,0.131V45.85l0.228-0.132V46.496z M51.918,46.289l-0.227,0.133v-0.778l0.227-0.132V46.289z M52.243,46.107l-0.228,0.131
		v-0.777l0.228-0.132V46.107z M52.551,45.927l-0.226,0.13V45.28l0.226-0.132V45.927z M52.877,45.743l-0.227,0.132v-0.777
		l0.227-0.133V45.743z M53.203,45.558l-0.227,0.131v-0.777l0.227-0.132V45.558z M53.529,45.374l-0.227,0.132v-0.777l0.227-0.133
		V45.374z M53.861,45.168L53.637,45.3v-0.778l0.225-0.131V45.168L53.861,45.168z M54.188,44.985l-0.227,0.132V44.34l0.227-0.133
		V44.985z M54.496,44.805l-0.227,0.132V44.16l0.227-0.133V44.805z M54.82,44.622l-0.225,0.132v-0.777l0.225-0.132V44.622z
		 M55.145,44.419l-0.227,0.133v-0.778l0.227-0.132V44.419z M55.471,44.238l-0.227,0.13v-0.777l0.227-0.132V44.238z M55.803,44.03
		l-0.226,0.133v-0.778l0.226-0.133V44.03z M56.129,43.848l-0.225,0.132v-0.777l0.225-0.132V43.848z M56.438,43.667l-0.227,0.132
		v-0.778l0.227-0.131V43.667z M56.764,43.484l-0.228,0.132v-0.778l0.228-0.132V43.484z M57.093,43.3l-0.226,0.132v-0.779l0.226-0.13
		V43.3z M57.42,43.116l-0.227,0.132V42.47l0.227-0.132V43.116z M57.752,42.911l-0.227,0.13v-0.777l0.227-0.132V42.911z
		 M58.078,42.727l-0.227,0.132v-0.778l0.227-0.132V42.727z M58.387,42.546l-0.227,0.132v-0.777l0.227-0.132V42.546z M58.712,42.362
		l-0.228,0.132v-0.777l0.228-0.132V42.362z"/>
	<path fill="none" stroke="#515151" stroke-width="0.2" stroke-miterlimit="10" d="M32.415,49.948c0,0,12.968-5.843,25.285-22.581
		c0,0,2.667,3.725,5.872,1.042"/>
	<path fill="#3A3A3A" d="M41.148,57.699l0.365-0.596l0.438,0.461l-0.305,0.135l0.037,1.688c0,0,0.352-0.158,0.559-0.789h-0.243
		l0.413-0.56l0.134,0.535l-0.17,0.012c0,0-0.401,1.104-0.827,1.265c0,0-0.546,0.121-0.851-0.341l-0.206,0.109l0.23-0.669
		l0.401,0.341l-0.17,0.146c0,0,0.17,0.195,0.425,0.123l0.036-1.8L41.1,57.797L41.148,57.699z"/>
	<g display="none">
		<path id="smoke_2" display="inline" fill="#666766" d="M66.838,48.515c0.199,0.299-0.301,0.599-0.301,0.599c0.5,0.602,0,1,0,1
			c-0.199,0.301-0.898,0-0.898,0c-0.199,0.602-0.801,0.5-0.801,0.5c-0.699,0-0.602-0.6-0.602-0.6c-0.604-0.101-0.5-0.5-0.5-0.5
			c0-0.3,0.602-0.3,0.602-0.3c-0.699-0.301-0.5-0.801-0.5-0.801c0.199-0.6,1-0.199,1-0.199c0.699-0.601,1.199,0.199,1.199,0.199
			C66.338,47.914,66.838,48.515,66.838,48.515z		">
<animateTransform  type="translate" fill="remove" attributeName="transform" dur="1" calcMode="linear" restart="always" values="0,0;2,-2" begin="0s" additive="replace" repeatCount="indefinite" accumulate="none" attributeType="XML">
				</animateTransform>
			
				<animate  fill="remove" to="0" attributeName="opacity" dur="1" calcMode="linear" restart="always" begin="0.5s" additive="replace" repeatCount="indefinite" accumulate="none" from="1">
				</animate>
		</path>
		<path id="smoke_1" display="inline" fill="#999999" d="M65.539,49.414c0.102,0.199-0.199,0.4-0.199,0.4c0.301,0.399,0,0.6,0,0.6
			c-0.102,0.199-0.5,0-0.5,0c-0.102,0.4-0.5,0.301-0.5,0.301c-0.4,0-0.4-0.4-0.4-0.4c-0.396-0.1-0.299-0.301-0.299-0.301
			c0-0.199,0.299-0.199,0.299-0.199c-0.5-0.2-0.299-0.5-0.299-0.5c0.104-0.399,0.604-0.1,0.604-0.1c0.396-0.301,0.694,0.1,0.694,0.1
			C65.238,49.113,65.539,49.414,65.539,49.414z		">
<animateTransform  type="translate" fill="remove" attributeName="transform" dur="0.5" calcMode="linear" restart="always" values="0,0;1,-1" begin="0s" additive="replace" repeatCount="indefinite" accumulate="none" attributeType="XML">
				</animateTransform>
			
				<animate  fill="remove" to="0" attributeName="opacity" dur="1" calcMode="linear" restart="always" begin="0.5s" additive="replace" repeatCount="indefinite" accumulate="none" from="1">
				</animate>
		</path>
	</g>
	
		<animateTransform  type="translate" fill="remove" attributeName="transform" dur="1" calcMode="linear" restart="always" values="0,0;0.1,0.1;0,0" begin="0s" additive="replace" repeatCount="indefinite" accumulate="none" attributeType="XML">
		</animateTransform>
	
		<animateTransform  type="translate" fill="remove" attributeName="transform" dur="1" calcMode="linear" restart="always" values="0,0;0.1,0.1;0,0" begin="0s" additive="replace" repeatCount="indefinite" accumulate="none" attributeType="XML">
		</animateTransform>
	<path id="parking" class="parking" d="M53.154,17.552l-9.925,0.146l-4.863,8.393l5.061,8.247l9.925-0.146l4.863-8.393L53.154,17.552z
		 M49.126,30.557c-0.078,0.056-0.208,0.083-0.39,0.083h-0.21H45.77h-0.16c-0.148,0-0.263-0.031-0.344-0.093
		c-0.08-0.062-0.12-0.15-0.12-0.265c0-0.188,0.082-0.313,0.247-0.372c0.136-0.05,0.216-0.081,0.238-0.093
		c0.022-0.011,0.046-0.037,0.071-0.079c0.049-0.073,0.074-0.189,0.074-0.351v-6.885c0-0.16-0.025-0.277-0.074-0.351
		c-0.025-0.041-0.049-0.067-0.071-0.079c-0.022-0.012-0.103-0.042-0.238-0.093c-0.165-0.06-0.247-0.184-0.247-0.371
		c0-0.115,0.04-0.203,0.12-0.266c0.081-0.062,0.195-0.093,0.344-0.093h0.16h2.751v8.082c0,0.179,0.03,0.307,0.092,0.385
		c0.033,0.046,0.064,0.075,0.093,0.086c0.029,0.012,0.124,0.04,0.285,0.086c0.197,0.051,0.296,0.177,0.296,0.379
		C49.286,30.388,49.232,30.483,49.126,30.557z M52.02,25.805c-0.279,0.444-0.672,0.772-1.176,0.983
		c-0.416,0.17-1.016,0.255-1.799,0.255v-0.736c0.178-0.046,0.303-0.094,0.374-0.145c0.072-0.051,0.136-0.128,0.188-0.233
		c0.087-0.18,0.13-0.42,0.13-0.723v-2.201c0-0.215-0.014-0.376-0.043-0.481c-0.029-0.105-0.087-0.201-0.173-0.289
		c-0.12-0.128-0.28-0.208-0.482-0.24v-0.743c0.849,0,1.477,0.09,1.879,0.269c0.466,0.206,0.834,0.522,1.105,0.949
		c0.275,0.437,0.414,0.97,0.414,1.604C52.438,24.777,52.299,25.355,52.02,25.805z"/>
</g>
<path id="Idle" class="hourglass" d="M53.133,17.539l-9.926,0.173l-4.841,8.392l5.084,8.247l9.901-0.146l4.863-8.433L53.133,17.539z M49.528,30.516
	l-2.625,0.005c0,0-0.5,0.019-0.516-0.293c0,0-0.031-0.281,0.375-0.391c0,0,0.234,0.016,0.25-0.453l-0.031-5.906
	c0,0,0.047-0.266-0.359-0.344c0,0-0.268-0.109-0.235-0.391c0,0,0.11-0.172,0.329-0.25h3.125c0,0,0.328,0.031,0.344,0.281
	c0,0,0.031,0.313-0.313,0.359c0,0-0.359,0.109-0.266,0.656l-0.031,5.641c0,0,0.031,0.422,0.328,0.438c0,0,0.361,0.063,0.282,0.484
	C50.186,30.353,50.091,30.555,49.528,30.516z"/>
<g id="Direction">
	<g transform="rotate({{angle}} 50 50)">
		<polygon id="arrow" class="arrow" opacity="0.7" enable-background="new    " points="59.7,31.4 50.8,24 41.9,31.3 41.9,35.4 42,35.4 50.8,28.1 
			59.3,35.4 59.7,35.4 		">
		
			<animate  fill="remove" attributeName="opacity" dur="0.5s" calcMode="linear" restart="always" values="0.5; 0" begin="0s;anim_arrow3.end" additive="replace" accumulate="none" id="anim_arrow1">
			</animate>
		</polygon>
		<polygon id="arrow2" class="arrow" opacity="0.7" enable-background="new    " points="59.8,26.4 50.9,19 42,26.4 42,30.4 42.1,30.4 50.9,23.2 
			59.4,30.4 59.8,30.4 		">
		
			<animate  fill="remove" attributeName="opacity" dur="0.5s" calcMode="linear" restart="always" values="0.5; 0" begin="anim_arrow1.end" additive="replace" accumulate="none" id="anim_arrow2">
			</animate>
		</polygon>
		<polygon id="arrow3" class="arrow" opacity="0.7" enable-background="new    " points="59.9,21.4 51,14.1 42.1,21.4 42.1,25.5 42.2,25.5 
			51,18.2 59.5,25.5 59.9,25.5 		">
		
			<animate  fill="remove" attributeName="opacity" dur="0.5s" calcMode="linear" restart="always" values="0.5; 0" begin="anim_arrow2.end" additive="replace" accumulate="none" id="anim_arrow3">
			</animate>
		</polygon>
	</g>
</g>
</svg>
