<?xml version="1.0" encoding="utf-8"?>
<!-- Generator: Adobe Illustrator 16.0.0, SVG Export Plug-In . SVG Version: 6.00 Build 0)  -->
<!DOCTYPE svg PUBLIC "-//W3C//DTD SVG 1.1//EN" "http://www.w3.org/Graphics/SVG/1.1/DTD/svg11.dtd">
<svg version="1.1" id="Layer_1" xmlns="http://www.w3.org/2000/svg" xmlns:xlink="http://www.w3.org/1999/xlink" x="0px" y="0px"
	 width="66.75px" height="53.375px" viewBox="0 0 66.75 53.375" enable-background="new 0 0 66.75 53.375" xml:space="preserve">
<g>
	<path fill="none" d="M43.808,42.208c-0.278,0.66-0.433,1.385-0.433,2.146c0,3.049,2.472,5.521,5.521,5.521
		c3.05,0,5.521-2.472,5.521-5.521c0-0.762-0.154-1.486-0.433-2.146H43.808z"/>
	<path fill="none" d="M10.516,42.208c-0.278,0.66-0.433,1.385-0.433,2.146c0,3.049,2.472,5.521,5.521,5.521
		c3.05,0,5.521-2.472,5.521-5.521c0-0.762-0.154-1.486-0.433-2.146H10.516z"/>
	<polygon fill="none" points="41.833,13.958 41.833,26.958 58.75,26.958 58.75,25.125 47.875,13.958 	"/>
	<path d="M63.167,37.542V24.75L49.292,10.375h-7.626V2.45L37.417,0L3.583,0.083L0,2.601v37.531l2.197,2.077h4.654
		c-0.168,0.689-0.268,1.405-0.268,2.146c0,4.981,4.039,9.021,9.021,9.021s9.021-4.039,9.021-9.021c0-0.741-0.1-1.457-0.268-2.146
		h4.476h11.31c-0.168,0.689-0.268,1.405-0.268,2.146c0,4.981,4.039,9.021,9.021,9.021c4.981,0,9.021-4.039,9.021-9.021
		c0-0.741-0.1-1.457-0.268-2.146h2.517h3h3.584v-4.667H63.167z M15.604,49.875c-3.049,0-5.521-2.472-5.521-5.521
		c0-0.762,0.154-1.486,0.433-2.146h10.177c0.278,0.66,0.433,1.385,0.433,2.146C21.125,47.404,18.654,49.875,15.604,49.875z
		 M48.896,49.875c-3.049,0-5.521-2.472-5.521-5.521c0-0.762,0.154-1.486,0.433-2.146h10.177c0.278,0.66,0.433,1.385,0.433,2.146
		C54.417,47.404,51.946,49.875,48.896,49.875z M58.75,26.958H41.833v-13h6.041L58.75,25.125V26.958z"/>
</g>
</svg>
