<?xml version="1.0" encoding="utf-8"?>
<!-- Generator: Adobe Illustrator 16.0.0, SVG Export Plug-In . SVG Version: 6.00 Build 0)  -->
<!DOCTYPE svg PUBLIC "-//W3C//DTD SVG 1.1//EN" "http://www.w3.org/Graphics/SVG/1.1/DTD/svg11.dtd">
<svg version="1.1" id="Layer_1" xmlns="http://www.w3.org/2000/svg" xmlns:xlink="http://www.w3.org/1999/xlink" x="0px" y="0px"
	 width="96.582px" height="53.375px" viewBox="0 0 96.582 53.375" enable-background="new 0 0 96.582 53.375" xml:space="preserve">
<g>
	<path d="M92.998,37.542V24.75L79.124,10.375h-7.626V2.45L67.248,0L33.415,0.083l-3.583,2.518v37.531l2.197,2.077h4.654
		c-0.168,0.689-0.268,1.405-0.268,2.146c0,4.981,4.039,9.021,9.021,9.021s9.021-4.039,9.021-9.021c0-0.741-0.1-1.457-0.268-2.146
		h4.476h11.31c-0.168,0.689-0.268,1.405-0.268,2.146c0,4.981,4.039,9.021,9.021,9.021c4.981,0,9.021-4.039,9.021-9.021
		c0-0.741-0.1-1.457-0.268-2.146h2.517h3h3.584v-4.667H92.998z M45.436,49.875c-3.049,0-5.521-2.472-5.521-5.521
		c0-0.762,0.154-1.486,0.433-2.146h10.177c0.278,0.66,0.433,1.385,0.433,2.146C50.957,47.404,48.485,49.875,45.436,49.875z
		 M78.728,49.875c-3.049,0-5.521-2.472-5.521-5.521c0-0.762,0.154-1.486,0.433-2.146h10.177c0.278,0.66,0.433,1.385,0.433,2.146
		C84.249,47.404,81.777,49.875,78.728,49.875z M88.581,26.958H71.665v-13h6.041l10.875,11.167V26.958z"/>
	<polygon points="27.623,10.417 27.623,4.667 15.332,7.167 	"/>
	<polygon points="27.123,23.25 27.123,17.5 7.998,20 	"/>
	<polygon points="27.123,35.75 27.123,30 0,32.5 	"/>
</g>
</svg>
