<?xml version="1.0" encoding="utf-8"?>
<!-- Generator: Adobe Illustrator 16.0.0, SVG Export Plug-In . SVG Version: 6.00 Build 0)  -->
<!DOCTYPE svg PUBLIC "-//W3C//DTD SVG 1.1//EN" "http://www.w3.org/Graphics/SVG/1.1/DTD/svg11.dtd">
<svg version="1.1" id="Layer_1" xmlns="http://www.w3.org/2000/svg" xmlns:xlink="http://www.w3.org/1999/xlink" x="0px" y="0px"
	 width="100px" height="100px" viewBox="0 0 100 100" enable-background="new 0 0 100 100" xml:space="preserve">
	 	 <style type="text/css">
	  .arrow{fill:{{statusColor}};display:{{arrowDisplay}}}
	  .hourglass{fill:{{hourglassColor}};display:{{hourglassDisplay}}}
    .parking{display:{{parkingDisplay}};fill:{{parkingColor}}}
	 </style>
	}

<!--M - Change Image's Horizontal Direction L/R-->
<g  transform="translate({{translateX}},0) scale({{scaleX}},1)">

<g id="Tire">
	<path fill="#141318" d="M47.214,56.687c-0.233,1.588-1.468,3.246-2.764,3.695c-1.285,0.458-2.143-0.471-1.911-2.06
		c0.233-1.588,1.468-3.246,2.765-3.697C46.602,54.175,47.449,55.104,47.214,56.687z"/>
	<path fill="#121332" d="M47.503,56.857c-0.226,1.579-1.445,3.226-2.723,3.673c-1.278,0.449-2.124-0.475-1.901-2.061
		c0.226-1.577,1.445-3.226,2.723-3.673C46.878,54.352,47.728,55.271,47.503,56.857z"/>
	<path fill="#141318" d="M47.941,56.984c-0.234,1.588-1.467,3.245-2.763,3.697c-1.286,0.456-2.143-0.473-1.91-2.062
		c0.234-1.588,1.467-3.245,2.763-3.697C47.322,54.474,48.176,55.404,47.941,56.984z"/>
	<path fill="#121332" d="M48.226,57.157c-0.226,1.578-1.445,3.225-2.722,3.675c-1.277,0.446-2.124-0.476-1.902-2.063
		c0.226-1.578,1.446-3.225,2.723-3.673C47.605,54.648,48.453,55.578,48.226,57.157z"/>
	<path fill="#141318" d="M48.561,57.249c-0.233,1.59-1.467,3.249-2.764,3.697c-1.285,0.457-2.142-0.471-1.911-2.059
		c0.232-1.591,1.468-3.248,2.764-3.698C47.946,54.742,48.794,55.66,48.561,57.249z"/>
	<path fill="#121332" d="M48.849,57.426c-0.226,1.575-1.446,3.223-2.723,3.671c-1.277,0.447-2.124-0.475-1.9-2.062
		c0.226-1.578,1.445-3.227,2.723-3.673C48.225,54.917,49.076,55.849,48.849,57.426z"/>
	<path fill="#141318" d="M48.946,57.524c-0.21,1.567-1.386,3.183-2.62,3.614c-1.233,0.431-2.063-0.482-1.854-2.049
		c0.209-1.568,1.385-3.183,2.621-3.614C48.333,55.042,49.165,55.957,48.946,57.524z"/>
	<path fill="#121332" d="M48.654,57.725c-0.177,1.323-1.165,2.687-2.208,3.048c-1.04,0.37-1.745-0.41-1.562-1.726
		c0.177-1.323,1.164-2.688,2.209-3.048C48.135,55.641,48.833,56.411,48.654,57.725z"/>
	<path fill="#CDCCCC" d="M48.233,57.767c-0.144,1.058-0.94,2.146-1.775,2.443c-0.845,0.297-1.405-0.325-1.263-1.388
		c0.144-1.061,0.939-2.147,1.774-2.443C47.809,56.096,48.377,56.716,48.233,57.767z"/>
	<path fill="#989898" d="M47.833,57.834c-0.116,0.861-0.758,1.745-1.435,1.981c-0.68,0.237-1.14-0.258-1.022-1.117
		c0.116-0.862,0.757-1.746,1.435-1.981C47.486,56.478,47.941,56.984,47.833,57.834z"/>
	<path fill="#CDCCCC" d="M47.5,58.01c-0.085,0.632-0.56,1.277-1.055,1.454c-0.497,0.166-0.833-0.196-0.746-0.831
		c0.086-0.632,0.56-1.276,1.055-1.455C47.261,57.007,47.595,57.38,47.5,58.01z"/>
	<g id="Tire_Hole">
		<path fill="#010101" d="M46.922,58.159c-0.029,0.203-0.172,0.399-0.328,0.457c-0.161,0.049-0.266-0.061-0.241-0.259
			c0.029-0.203,0.173-0.399,0.329-0.456C46.84,57.843,46.937,57.959,46.922,58.159z"/>
		<path fill="#010101" d="M46.664,57.572c-0.021,0.112-0.096,0.218-0.185,0.25c-0.087,0.026-0.14-0.033-0.129-0.144
			c0.021-0.113,0.095-0.221,0.182-0.248C46.623,57.4,46.677,57.463,46.664,57.572z"/>
		<path fill="#010101" d="M47.289,57.526c-0.022,0.114-0.097,0.22-0.184,0.251c-0.087,0.03-0.141-0.032-0.13-0.142
			c0.021-0.114,0.096-0.221,0.184-0.249C47.244,57.357,47.3,57.422,47.289,57.526z"/>
		<path fill="#010101" d="M47.377,58.183c-0.02,0.112-0.095,0.221-0.182,0.25c-0.088,0.027-0.141-0.031-0.129-0.142
			c0.02-0.114,0.095-0.221,0.183-0.25C47.334,58.012,47.392,58.074,47.377,58.183z"/>
		<path fill="#010101" d="M46.881,58.856c-0.02,0.112-0.095,0.219-0.182,0.249c-0.087,0.027-0.141-0.032-0.129-0.144
			c0.021-0.111,0.096-0.221,0.185-0.249C46.837,58.685,46.895,58.749,46.881,58.856z"/>
		<path fill="#010101" d="M46.227,58.949c-0.021,0.113-0.095,0.22-0.182,0.251c-0.088,0.026-0.141-0.033-0.129-0.145
			c0.02-0.112,0.096-0.221,0.183-0.25C46.185,58.778,46.237,58.84,46.227,58.949z"/>
		<path fill="#010101" d="M46.136,58.304c-0.021,0.112-0.096,0.22-0.183,0.25c-0.087,0.028-0.141-0.031-0.128-0.142
			c0.02-0.113,0.095-0.221,0.184-0.25C46.095,58.131,46.148,58.196,46.136,58.304z"/>
	</g>
</g>
<g id="Tire_1_">
	<path fill="#141318" d="M63.706,43.866c-0.1,1.432-1.086,2.995-2.212,3.483c-1.112,0.495-1.94-0.273-1.843-1.703
		c0.1-1.431,1.085-2.995,2.212-3.484C62.986,41.672,63.807,42.443,63.706,43.866z"/>
	<path fill="#121332" d="M63.973,44c-0.092,1.422-1.064,2.975-2.172,3.458c-1.108,0.49-1.926-0.275-1.836-1.703
		c0.094-1.422,1.066-2.973,2.172-3.461C63.245,41.81,64.066,42.572,63.973,44z"/>
	<path fill="#141318" d="M64.374,44.083c-0.1,1.43-1.084,2.994-2.209,3.482c-1.113,0.496-1.941-0.271-1.844-1.703
		c0.1-1.431,1.086-2.994,2.209-3.483C63.651,41.887,64.475,42.658,64.374,44.083z"/>
	<path fill="#121332" d="M64.64,44.22c-0.094,1.42-1.068,2.971-2.172,3.457c-1.109,0.489-1.927-0.277-1.838-1.705
		c0.093-1.422,1.067-2.972,2.174-3.46C63.914,42.024,64.734,42.795,64.64,44.22z"/>
	<path fill="#141318" d="M64.944,44.277c-0.099,1.433-1.085,2.994-2.21,3.484c-1.113,0.496-1.94-0.272-1.845-1.704
		c0.101-1.432,1.087-2.995,2.212-3.483C64.224,42.085,65.044,42.846,64.944,44.277z"/>
	<path fill="#121332" d="M65.212,44.414c-0.092,1.42-1.066,2.971-2.173,3.459c-1.106,0.484-1.926-0.277-1.837-1.707
		c0.094-1.422,1.067-2.974,2.175-3.46C64.485,42.222,65.309,42.991,65.212,44.414z"/>
	<path fill="#141318" d="M65.306,44.497c-0.078,1.412-1.015,2.929-2.086,3.398c-1.068,0.469-1.872-0.288-1.792-1.696
		c0.077-1.412,1.016-2.932,2.087-3.402C64.589,42.326,65.394,43.085,65.306,44.497z"/>
	<path fill="#121332" d="M65.06,44.694c-0.067,1.19-0.854,2.474-1.757,2.867c-0.902,0.4-1.582-0.248-1.512-1.43
		c0.067-1.191,0.853-2.477,1.759-2.868C64.454,42.873,65.129,43.513,65.06,44.694z"/>
	<path fill="#CDCCCC" d="M64.688,44.761c-0.056,0.953-0.69,1.976-1.413,2.301c-0.732,0.321-1.276-0.194-1.222-1.151
		c0.057-0.956,0.689-1.979,1.415-2.3C64.195,43.301,64.744,43.813,64.688,44.761z"/>
	<path fill="#989898" d="M64.335,44.847c-0.044,0.776-0.554,1.607-1.141,1.865c-0.59,0.257-1.033-0.152-0.987-0.925
		c0.042-0.774,0.553-1.607,1.141-1.863C63.935,43.663,64.374,44.083,64.335,44.847z"/>
	<path fill="#CDCCCC" d="M64.052,45.027c-0.033,0.569-0.41,1.176-0.841,1.37c-0.432,0.181-0.756-0.119-0.721-0.691
		c0.031-0.57,0.411-1.176,0.84-1.368C63.77,44.148,64.093,44.458,64.052,45.027z"/>
	<g id="Tire_Hole_1_">
		<path fill="#010101" d="M63.545,45.2c-0.012,0.182-0.124,0.368-0.26,0.43c-0.14,0.055-0.241-0.035-0.23-0.215
			c0.012-0.181,0.124-0.366,0.262-0.429C63.451,44.923,63.545,45.021,63.545,45.2z"/>
		<path fill="#010101" d="M63.274,44.695c-0.011,0.102-0.07,0.202-0.146,0.235c-0.076,0.031-0.128-0.02-0.125-0.118
			c0.011-0.103,0.07-0.204,0.146-0.236C63.227,44.544,63.28,44.597,63.274,44.695z"/>
		<path fill="#010101" d="M63.829,44.611c-0.011,0.104-0.07,0.204-0.146,0.235c-0.075,0.033-0.129-0.019-0.124-0.117
			c0.011-0.103,0.069-0.203,0.146-0.235C63.778,44.463,63.831,44.516,63.829,44.611z"/>
		<path fill="#010101" d="M63.955,45.19c-0.011,0.102-0.07,0.203-0.146,0.233c-0.076,0.032-0.128-0.019-0.126-0.117
			c0.011-0.102,0.071-0.202,0.146-0.234S63.96,45.09,63.955,45.19z"/>
		<path fill="#010101" d="M63.558,45.824c-0.01,0.102-0.071,0.202-0.146,0.233c-0.075,0.031-0.128-0.02-0.127-0.119
			c0.013-0.101,0.072-0.203,0.147-0.233C63.506,45.675,63.562,45.727,63.558,45.824z"/>
		<path fill="#010101" d="M62.98,45.952c-0.01,0.101-0.07,0.203-0.146,0.234c-0.077,0.032-0.128-0.019-0.125-0.117
			c0.011-0.103,0.07-0.204,0.146-0.236C62.935,45.801,62.984,45.854,62.98,45.952z"/>
		<path fill="#010101" d="M62.855,45.382c-0.011,0.103-0.07,0.203-0.146,0.237c-0.077,0.032-0.128-0.021-0.125-0.119
			c0.01-0.102,0.07-0.203,0.146-0.235C62.808,45.232,62.859,45.287,62.855,45.382z"/>
	</g>
</g>
<g id="Layer_2">
	<path fill="#8E8E8E" d="M31.823,50.819l0.232-0.511l2.746-2.329c0,0,1.117-1.535,2.84-2.652c0,0,2.746-3.679,4.561-5.121
		l6.237-4.332c0,0,0.094-0.372,1.862,0.419l5.958-4.053h0.978l8.938,3.584l0.744,1.35l0.279,0.978v2.561l-2.047,2.14
		c0,0-0.278-2.281-2.467-0.094c0,0-1.35,1.49-2.095,4.33l-0.605,0.188l-10.474,8.517l-0.232,1.071c0,0-0.047-3.306-2.281-1.63
		c0,0-2.188,0.746-3.444,5.586l-0.931,0.419c0,0-1.351,0.419-3.957-0.325c0,0-5.585-2.653-6.843-4.189c0,0-0.745-0.698-0.232-1.955
		c0,0,0-1.722,0.326-2.514C31.916,52.257,31.698,51.096,31.823,50.819z"/>
</g>
<path fill="#AAAAAA" d="M32.777,54.313c0,0-0.326-1.861,0-2.188c0,0,0-0.163,0.535,0l5.889,3.235c0,0,0.833,0.274,1.013,1.041
	c0,0,0.57,1.608-0.199,1.73c0,0,0,0.373-2.025-0.513C37.991,57.615,33.708,55.498,32.777,54.313z"/>
<path fill="#636363" d="M32.844,54.296c0,0-0.294-1.732,0.022-2.032c0,0,0.001-0.151,0.514,0.006l5.622,3.065
	c0,0,0.871,0.388,1.014,0.889c0,0,0.633,1.702-0.105,1.807c0,0-0.157,0.233-2.093-0.608C37.816,57.422,33.727,55.408,32.844,54.296z
	"/>
<path d="M38.21,45.101l3.292-3.871h0.286c0,0,2.828,2.162,7.908,3.696l-1.933,4.566c0,0-0.071,0.314-0.536,0.349
	c0,0-5.009-1.149-9.018-4.305C38.21,45.538,38.021,45.326,38.21,45.101z"/>
<path fill="#2A344C" d="M38.374,45.143l3.212-3.876h0.279c0,0,2.758,2.166,7.715,3.702l-1.886,4.573c0,0-0.07,0.314-0.524,0.351
	c0,0-4.887-1.152-8.797-4.312C38.374,45.578,38.188,45.365,38.374,45.143z"/>
<path d="M50.907,45.223c0,0,1.78-1.676,2.06-1.746h0.279c0,0,0.942,2.782,0.804,3.276c0,0-3.875,3.147-4.958,3.323
	C49.092,50.075,50.454,45.956,50.907,45.223z"/>
<path fill="#2A344C" d="M50.768,45.246c0,0,1.78-1.676,2.06-1.747h0.279c0,0,0.943,2.782,0.803,3.276c0,0-3.875,3.147-4.957,3.323
	C48.952,50.099,50.314,45.98,50.768,45.246z"/>
<path fill="#DBDBDB" d="M31.525,54.891c0,0-0.442,1.01,0,1.727c0,0,0.321,1.28,7.82,4.723c0,0,3.602,0.659,4.248-0.527
	c0,0,0.676-1.513,0.605-2.002c0,0-1.409,0.806-1.619,0.876c0,0-2.258,0.395-3.584,0.047C38.996,59.733,32.037,57.077,31.525,54.891z
	"/>
<path fill="#DBDBDB" d="M42.389,56.386c1.978,0.419,1.349,1.095,1.349,1.095c-0.675,0.628-3.375,0.325-3.375,0.325
	c0.121-0.222-0.113-1.249-0.176-1.518c-0.01-0.042-0.016-0.064-0.016-0.064"/>
<polygon fill="#494949" points="51,36.414 56.307,32.503 57.052,32.503 65.942,35.902 65.942,36.414 59.193,41.813 58.472,41.488 
	57.424,39.346 57.145,39.114 "/>
<polygon fill="#2B2B2B" points="56.518,35.646 56.307,32.503 57.052,32.503 65.942,35.902 65.942,36.414 59.193,41.813 
	58.472,41.488 57.424,39.346 53.924,37.698 "/>
<path fill="#E0E0E0" d="M32.722,52.837c0,0,5.352,3.197,7.43,3.834l0.021,0.166c0,0-3.963-1.571-7.453-3.875L32.722,52.837z"/>
<path fill="#E0E0E0" d="M40.259,57.569c0,0-4.899-1.78-7.502-3.943l0.019,0.174c0,0,2.108,1.798,7.485,3.944v-0.175H40.259z"/>
<path fill="#606060" d="M47.172,49.89c0,0-0.559,2.511-4.121,4.948c0,0-2.119,1.127-3.294,0.848c0,0,3.394,0.314,5.928-2.688
	C45.686,52.996,47.521,50.797,47.172,49.89z"/>
<path fill="#606060" d="M38.218,45.614c0,0-2.49,0.648-4.796,4.295c0,0-1.049,2.16-0.729,3.323c0,0-0.437-3.38,2.473-6.021
	C35.166,47.211,37.297,45.297,38.218,45.614z"/>
<polygon fill="#606060" points="54.213,43.148 57.144,40.915 57.75,42.93 54.817,45.25 "/>
<polygon fill="#A5A4A4" points="44.877,38.88 48.637,36.256 49.305,36.414 45.47,39.146 "/>
<polygon fill="#A5A4A4" points="46.11,39.417 49.871,36.791 50.537,36.949 46.703,39.681 "/>
<polygon fill="#A5A4A4" points="47.601,39.975 51.361,37.35 52.026,37.507 48.192,40.24 "/>
<polygon fill="#A5A4A4" points="49.113,40.65 52.874,38.024 53.539,38.182 49.706,40.915 "/>
<polygon fill="#A5A4A4" points="50.536,41.278 54.298,38.653 54.964,38.811 51.13,41.542 "/>
<polygon fill="#A5A4A4" points="52.001,41.965 55.762,39.342 56.426,39.498 52.593,42.23 "/>
<path fill="#606060" d="M54.05,46.8c0,0,0.257,3.716,0.163,5.148l0.198-0.162c0,0-0.14-4.388-0.198-5.011L54.05,46.8z"/>
<polygon fill="#606060" points="54.964,46.449 66.233,37.007 66.373,37.159 54.964,46.775 "/>
<path fill="#B2B2B2" d="M67.198,39.625v1.065l-0.825,0.863c0,0-0.104,0.646,0.106,0.872l1.396-1.542c0,0,0.111-1.606-0.677-1.769
	L67.198,39.625L67.198,39.625z"/>
<polygon fill="#DBDBDB" points="53.815,48.032 52.909,48.795 52.909,49.098 53.815,48.308 "/>
<path fill="#415170" d="M49.113,45.25c0,0-6.561-1.541-10.471,0.166l-0.14,0.164c0,0,4.142,3.241,8.821,4.079
	C47.323,49.656,49.278,45.284,49.113,45.25z"/>
<path fill="#415170" d="M52.909,43.792c0,0-1.489,4.57-3.095,5.611l-0.233,0.253c0,0,2.35-1.233,4.235-2.933
	C53.815,46.723,53.232,43.936,52.909,43.792z"/>
<path fill="#7D838C" d="M48.626,45.579c0,0-2.258,3.449-3.328,3.521l1.769,0.306C47.067,49.405,48.646,46.014,48.626,45.579z"/>
<path fill="#7D838C" d="M53.049,44.513c0,0,0.426,1.77,0.492,2.21l-0.353,0.409C53.188,47.133,53.445,46.561,53.049,44.513z"/>
<g display="none">
	<path id="smoke_2" display="inline" fill="#666766" d="M66.838,48.515c0.199,0.299-0.301,0.599-0.301,0.599c0.5,0.602,0,1,0,1
		c-0.199,0.301-0.898,0-0.898,0c-0.199,0.602-0.801,0.5-0.801,0.5c-0.699,0-0.602-0.6-0.602-0.6c-0.604-0.101-0.5-0.5-0.5-0.5
		c0-0.3,0.602-0.3,0.602-0.3c-0.699-0.301-0.5-0.801-0.5-0.801c0.199-0.6,1-0.199,1-0.199c0.699-0.601,1.199,0.199,1.199,0.199
		C66.338,47.914,66.838,48.515,66.838,48.515z	">
<animateTransform  type="translate" fill="remove" dur="1" repeatCount="indefinite" values="0,0;2,-2" restart="always" attributeType="XML" accumulate="none" begin="0s" calcMode="linear" attributeName="transform" additive="replace">
			</animateTransform>
		
			<animate  fill="remove" to="0" from="1" dur="1" repeatCount="indefinite" restart="always" accumulate="none" begin="0.5s" calcMode="linear" attributeName="opacity" additive="replace">
			</animate>
	</path>
	<path id="smoke_1" display="inline" fill="#999999" d="M65.539,49.414c0.102,0.199-0.199,0.4-0.199,0.4c0.301,0.399,0,0.6,0,0.6
		c-0.102,0.199-0.5,0-0.5,0c-0.102,0.4-0.5,0.301-0.5,0.301c-0.4,0-0.4-0.4-0.4-0.4c-0.396-0.1-0.299-0.301-0.299-0.301
		c0-0.199,0.299-0.199,0.299-0.199c-0.5-0.2-0.299-0.5-0.299-0.5c0.104-0.399,0.604-0.1,0.604-0.1c0.396-0.301,0.694,0.1,0.694,0.1
		C65.238,49.113,65.539,49.414,65.539,49.414z	">
<animateTransform  type="translate" fill="remove" dur="0.5" repeatCount="indefinite" values="0,0;1,-1" restart="always" attributeType="XML" accumulate="none" begin="0s" calcMode="linear" attributeName="transform" additive="replace">
			</animateTransform>
		
			<animate  fill="remove" to="0" from="1" dur="1" repeatCount="indefinite" restart="always" accumulate="none" begin="0.5s" calcMode="linear" attributeName="opacity" additive="replace">
			</animate>
	</path>
</g>
<image display="none" overflow="visible" enable-background="new    " width="91" height="90" xlink:href="../../../../../References/ambulansya.jpg"  transform="matrix(0.4888 0 0 0.4888 29.5938 34.5625)">
</image>
<animateTransform  type="translate" fill="remove" dur="1" repeatCount="indefinite" values="0,0;0.1,0.1;0,0" restart="always" attributeType="XML" accumulate="none" begin="0s" calcMode="linear" attributeName="transform" additive="replace">
	</animateTransform>
<animateTransform  type="translate" fill="remove" dur="1" repeatCount="indefinite" values="0,0;0.1,0.1;0,0" restart="always" attributeType="XML" accumulate="none" begin="0s" calcMode="linear" attributeName="transform" additive="replace">
	</animateTransform>

<path fill="#DBDBDB" d="M32.632,51.948c0,0-0.171-1.028-0.712-0.903v0.063c0,0-0.578,0.423,0.573,1.755L32.632,51.948z"/>



<g id="hourglass">
	<rect x="44.855" y="15.998" class="hourglass" width="10.292" height="0.895"/>
	<path class="hourglass" d="M45.292,16.736c0,4.294,1.872,7.818,4.26,8.198v-0.425c-1.963-0.421-3.489-3.56-3.489-7.114h7.875
		c0,3.464-1.451,6.529-3.342,7.072v0.427c2.297-0.53,4.072-3.976,4.072-8.157L45.292,16.736L45.292,16.736z"/>
	<g>
		<rect x="44.854" y="32.762" class="hourglass" width="10.292" height="0.895"/>
		<path class="hourglass" d="M50.596,24.544v0.516c1.871,0.575,3.301,3.7,3.301,7.139h-7.875c0-3.579,1.547-6.741,3.531-7.126v-0.447
			c-2.394,0.371-4.271,3.897-4.271,8.199h9.375C54.656,28.65,52.887,25.083,50.596,24.544z"/>
	</g>
	<path class="hourglass" d="M46.636,20.258c0,0,0.917,3.958,3.442,4.157c0,0,1.766,0.01,2.996-3.157
		C53.074,21.258,51.678,21.966,46.636,20.258z"/>
	<path class="hourglass" d="M49.699,29.008c0,0-2.313,1.438-3.438,2.865h7.438c0,0-1.689-1.313-2.5-2.427
		C51.199,29.445,50.23,28.539,49.699,29.008z"/>
	<g id="sand_grains">
		<circle class="hourglass" cx="49.855" cy="25.904" r="0.25">
		
			<animateTransform  type="translate" fill="remove" additive="replace" attributeName="transform" calcMode="linear" begin="0s" accumulate="none" attributeType="XML" restart="always" values="0,0;0,2" repeatCount="indefinite" dur="0.5">
			</animateTransform>
		</circle>
		<circle class="hourglass" cx="50.219" cy="26.758" r="0.25">
		
			<animateTransform  type="translate" fill="remove" additive="replace" attributeName="transform" calcMode="linear" begin="0.5s" accumulate="none" attributeType="XML" restart="always" values="0,0;0,2" repeatCount="indefinite" dur="0.5">
			</animateTransform>
		</circle>
		<circle class="hourglass" cx="50.219" cy="25.184" r="0.25">
		
			<animateTransform  type="translate" fill="remove" additive="replace" attributeName="transform" calcMode="linear" begin="0.3s" accumulate="none" attributeType="XML" restart="always" values="0,0;0,2" repeatCount="indefinite" dur="0.5">
			</animateTransform>
		</circle>
	</g>
</g>
<path id="parking" class="parking" d="M53.154,17.552l-9.925,0.146l-4.863,8.393l5.061,8.247l9.925-0.146
	l4.863-8.393L53.154,17.552z M49.126,30.557c-0.078,0.056-0.208,0.083-0.39,0.083h-0.21H45.77h-0.16
	c-0.148,0-0.263-0.031-0.344-0.093c-0.08-0.062-0.12-0.15-0.12-0.265c0-0.188,0.082-0.313,0.247-0.372
	c0.136-0.05,0.216-0.081,0.238-0.093c0.022-0.011,0.046-0.037,0.071-0.079c0.049-0.073,0.074-0.189,0.074-0.351v-6.885
	c0-0.16-0.025-0.277-0.074-0.351c-0.025-0.041-0.049-0.067-0.071-0.079c-0.022-0.012-0.103-0.042-0.238-0.093
	c-0.165-0.06-0.247-0.184-0.247-0.371c0-0.115,0.04-0.203,0.12-0.266c0.081-0.062,0.195-0.093,0.344-0.093h0.16h2.751v8.082
	c0,0.179,0.03,0.307,0.092,0.385c0.033,0.046,0.064,0.075,0.093,0.086c0.029,0.012,0.124,0.04,0.285,0.086
	c0.197,0.051,0.296,0.177,0.296,0.379C49.286,30.388,49.232,30.483,49.126,30.557z M52.02,25.805
	c-0.28,0.444-0.672,0.772-1.176,0.983c-0.416,0.17-1.016,0.255-1.799,0.255v-0.736c0.178-0.046,0.303-0.094,0.374-0.145
	c0.072-0.051,0.136-0.128,0.188-0.233c0.087-0.18,0.13-0.42,0.13-0.723v-2.201c0-0.215-0.014-0.376-0.043-0.481
	c-0.029-0.105-0.087-0.201-0.173-0.289c-0.12-0.128-0.28-0.208-0.482-0.24v-0.743c0.849,0,1.477,0.09,1.879,0.269
	c0.466,0.206,0.834,0.522,1.105,0.949c0.276,0.437,0.414,0.97,0.414,1.604C52.438,24.777,52.299,25.355,52.02,25.805z"/>
  </g>
<g id="Direction">
  <!--M - Change Arrow's Angle-->
	<g transform="rotate({{angle}} 50 50)">
		<polygon id="arrow" opacity="0.7" class="arrow" enable-background="new    " points="59.7,31.4 50.8,24 41.9,31.3 41.9,35.4 
			42,35.4 50.8,28.1 59.3,35.4 59.7,35.4 		">
		
			<animate  fill="remove" additive="replace" attributeName="opacity" calcMode="linear" begin="0s;anim_arrow3.end" accumulate="none" restart="always" values="0.5; 0" dur="0.5s" id="anim_arrow1">
			</animate>
		</polygon>
    
		<polygon id="arrow2" opacity="0.7" class="arrow" enable-background="new    " points="59.8,26.4 50.9,19 42,26.4 42,30.4 
			42.1,30.4 50.9,23.2 59.4,30.4 59.8,30.4 		">
		
			<animate  fill="remove" additive="replace" attributeName="opacity" calcMode="linear" begin="anim_arrow1.end" accumulate="none" restart="always" values="0.5; 0" dur="0.5s" id="anim_arrow2">
			</animate>
		</polygon>
		<polygon id="arrow3" opacity="0.7" class="arrow" enable-background="new    " points="59.9,21.4 51,14.1 42.1,21.4 42.1,25.5 
			42.2,25.5 51,18.2 59.5,25.5 59.9,25.5 		">
		
			<animate  fill="remove" additive="replace" attributeName="opacity" calcMode="linear" begin="anim_arrow2.end" accumulate="none" restart="always" values="0.5; 0" dur="0.5s" id="anim_arrow3">
			</animate>
		</polygon>
	</g>
</g>
</svg>
