<?xml version="1.0" encoding="utf-8"?>
<!-- Generator: Adobe Illustrator 16.0.0, SVG Export Plug-In . SVG Version: 6.00 Build 0)  -->
<!DOCTYPE svg PUBLIC "-//W3C//DTD SVG 1.1//EN" "http://www.w3.org/Graphics/SVG/1.1/DTD/svg11.dtd">
<svg version="1.1" id="Layer_1" xmlns="http://www.w3.org/2000/svg" xmlns:xlink="http://www.w3.org/1999/xlink" x="0px" y="0px"
	 width="200px" height="200px" viewBox="0 0 200 200" enable-background="new 0 0 200 200" xml:space="preserve">
<g id="Direction">
	<g transform="rotate({{angle}} 50 50)">
		<polygon id="arrow" opacity="0.7" fill="#ff0000" enable-background="new    " points="121.878,154.609 122.63,153.855 
			152.307,151.604 155.122,121.366 155.311,121.18 163.01,128.88 160.005,159.302 129.391,162.122 		">
		

		</polygon>
		<polygon id="arrow2" opacity="0.7" fill="#ff0000" enable-background="new    " points="131.082,164.188 131.832,163.438 
			161.316,160.995 164.325,130.945 164.512,130.759 172.023,138.27 169.206,168.884 138.594,171.7 		">
		
	
		</polygon>
		<polygon id="arrow3" opacity="0.7" fill="#ff0000" enable-background="new    " points="140.093,173.579 140.848,172.827 
			170.521,170.573 173.338,140.334 173.525,140.146 181.227,147.848 178.223,178.273 147.796,181.279 		">
		

		</polygon>
	</g>
</g>
<g id="Tire_Mid">
	<path fill="#16151A" d="M113.584,115.609c1.872,0.264,3.881,2.402,4.684,4.684c0.802,2.273-0.27,3.879-2.143,3.479
		c-1.871-0.266-4.012-2.408-4.681-4.684C110.775,116.949,111.844,115.344,113.584,115.609z"/>
	<path fill="#131433" d="M113.319,116.009c1.872,0.267,4.013,2.409,4.681,4.685c0.67,2.275-0.267,3.881-2.14,3.479
		c-1.874-0.264-4.015-2.406-4.683-4.678C110.508,117.215,111.444,115.613,113.319,116.009z"/>
	<path fill="#16151A" d="M112.647,116.275c1.873,0.27,4.014,2.412,4.683,4.688c0.803,2.276-0.267,3.879-2.141,3.479
		c-1.872-0.27-4.012-2.408-4.682-4.684C109.84,117.486,110.908,116.01,112.647,116.275z"/>
	<path fill="#131433" d="M112.383,116.549c1.871,0.268,4.012,2.403,4.681,4.678c0.67,2.279-0.269,3.885-2.142,3.484
		c-1.873-0.27-4.014-2.413-4.683-4.688C109.57,117.885,110.508,116.279,112.383,116.549z"/>
	<path fill="#16151A" d="M111.846,116.816c1.873,0.266,4.015,2.404,4.682,4.68c0.802,2.275-0.268,3.881-2.141,3.479
		c-1.873-0.264-4.015-2.408-4.684-4.682C109.033,118.018,109.973,116.549,111.846,116.816z"/>
	<path fill="#131433" d="M111.575,117.082c1.872,0.264,4.015,2.413,4.683,4.684c0.67,2.276-0.267,3.879-2.141,3.479
		c-1.871-0.271-4.014-2.409-4.681-4.685C108.766,118.418,109.703,116.816,111.575,117.082z"/>
	<path fill="#16151A" d="M111.444,117.346c1.87,0.407,3.878,2.411,4.547,4.688c0.669,2.274-0.267,3.748-2.14,3.479
		c-1.872-0.402-3.879-2.412-4.549-4.688S109.57,116.949,111.444,117.346z"/>
	<path fill="#131433" d="M111.444,118.018c1.472,0.272,3.211,2.006,3.745,3.879c0.535,1.875-0.268,3.215-1.74,2.945
		c-1.473-0.268-3.21-2.006-3.746-3.879C109.17,119.088,109.973,117.885,111.444,118.018z"/>
	<path fill="#CECCCC" d="M111.844,118.688c1.34,0.272,2.677,1.746,3.078,3.213c0.402,1.475-0.267,2.545-1.473,2.275
		c-1.336-0.264-2.675-1.74-3.077-3.213C109.84,119.494,110.506,118.418,111.844,118.688z"/>
	<path fill="#989798" d="M112.114,119.088c0.935,0.133,2.006,1.336,2.406,2.545c0.269,1.203-0.134,2.008-1.203,1.873
		c-0.937-0.131-2.009-1.34-2.409-2.543C110.508,119.758,111.041,118.955,112.114,119.088z"/>
	<path fill="#CECCCC" d="M112.247,119.758c0.806,0.133,1.608,0.936,1.873,1.875c0.267,0.803-0.134,1.469-0.803,1.332
		c-0.804-0.129-1.606-0.932-1.873-1.871C111.178,120.293,111.577,119.621,112.247,119.758z"/>
	<g id="Tire_Mid_Hole">
		<path fill="#020202" d="M112.514,120.831c0.269,0,0.402,0.269,0.535,0.537c0.133,0.265,0.004,0.397-0.267,0.397
			c-0.269,0-0.403-0.269-0.536-0.539C112.246,120.963,112.246,120.693,112.514,120.831z"/>
		<path fill="#020202" d="M112.646,120.164c0.134,0,0.267,0.129,0.267,0.26c0,0.137,0,0.137-0.133,0.137s-0.267-0.137-0.267-0.268
			C112.381,120.164,112.514,120.023,112.646,120.164z"/>
		<path fill="#020202" d="M111.711,120.164c0.133,0,0.266,0.129,0.266,0.26c0,0.137,0,0.27-0.133,0.27s-0.267-0.133-0.267-0.27
			C111.577,120.293,111.577,120.164,111.711,120.164z"/>
		<path fill="#020202" d="M111.711,121.093c0.133,0,0.266,0.134,0.266,0.271c0,0.133,0,0.27-0.133,0.27s-0.267-0.133-0.267-0.27
			S111.577,121.094,111.711,121.093z"/>
		<path fill="#020202" d="M112.646,122.033c0.134,0,0.267,0.129,0.267,0.266c0,0.135,0,0.268-0.133,0.268s-0.267-0.135-0.267-0.268
			C112.381,122.033,112.514,122.033,112.646,122.033z"/>
		<path fill="#020202" d="M113.586,121.896c0.133,0,0.266,0.137,0.266,0.27s0,0.27-0.133,0.27s-0.27-0.137-0.27-0.27
			C113.317,122.033,113.449,121.896,113.586,121.896z"/>
		<path fill="#020202" d="M113.449,120.963c0.137,0,0.27,0.131,0.27,0.264c0,0.137,0,0.271-0.133,0.271
			c-0.137,0-0.269-0.133-0.269-0.271C113.317,121.094,113.317,120.963,113.449,120.963z"/>
	</g>
	
		<animateTransform  type="translate" fill="remove" attributeType="XML" accumulate="none" repeatCount="indefinite" additive="replace" begin="0s" values="0,0;0.1,0.1;0,0" restart="always" calcMode="linear" dur="1" attributeName="transform">
		</animateTransform>
</g>
<g id="Tire_Mid_1_">
	<path fill="#16151A" d="M70.771,90.728c1.877,0.267,4.021,2.406,4.688,4.681c0.797,2.277-0.271,3.878-2.146,3.478
		c-1.874-0.267-4.015-2.407-4.683-4.681C67.963,91.93,68.898,90.458,70.771,90.728z"/>
	<path fill="#131433" d="M70.372,90.994c1.869,0.267,4.017,2.406,4.681,4.681c0.67,2.272-0.267,3.878-2.141,3.479
		c-1.871-0.268-4.018-2.408-4.686-4.682C67.557,92.331,68.493,90.728,70.372,90.994z"/>
	<path fill="#16151A" d="M69.832,91.397c1.874,0.266,4.02,2.406,4.686,4.681c0.804,2.276-0.268,3.878-2.141,3.479
		c-1.877-0.268-4.016-2.408-4.682-4.682C66.889,92.599,67.963,90.994,69.832,91.397z"/>
	<path fill="#131433" d="M69.434,91.663c1.875,0.267,4.019,2.407,4.683,4.681c0.671,2.276-0.269,3.878-2.14,3.478
		c-1.875-0.265-4.014-2.406-4.682-4.68C66.625,92.864,67.557,91.263,69.434,91.663z"/>
	<path fill="#16151A" d="M69.033,91.93c1.871,0.266,4.016,2.409,4.686,4.683c0.797,2.273-0.271,3.878-2.146,3.48
		c-1.872-0.271-4.021-2.408-4.685-4.685C66.09,93.133,67.153,91.53,69.033,91.93z"/>
	<path fill="#131433" d="M68.631,92.199c1.869,0.267,4.017,2.409,4.683,4.683c0.669,2.274-0.269,3.878-2.142,3.479
		c-1.873-0.268-4.019-2.413-4.685-4.684C65.821,93.4,66.758,91.932,68.631,92.199z"/>
	<path fill="#16151A" d="M68.493,92.33c1.87,0.403,3.884,2.409,4.552,4.683c0.666,2.274-0.27,3.745-2.146,3.479
		c-1.87-0.398-3.877-2.406-4.545-4.681C65.687,93.668,66.625,92.063,68.493,92.33z"/>
	<path fill="#131433" d="M68.493,93.132c1.474,0.267,3.22,2.008,3.748,3.88c0.538,1.873-0.265,3.211-1.737,2.944
		c-1.475-0.265-3.209-2.007-3.746-3.878C66.217,94.206,67.027,92.864,68.493,93.132z"/>
	<path fill="#CECCCC" d="M68.896,93.803c1.341,0.268,2.679,1.742,3.077,3.209c0.404,1.472-0.271,2.545-1.473,2.277
		c-1.336-0.265-2.679-1.742-3.078-3.211C67.027,94.472,67.557,93.535,68.896,93.803z"/>
	<path fill="#989798" d="M69.164,94.203c0.936,0.134,2.008,1.339,2.409,2.544c0.267,1.202-0.135,2.007-1.206,1.873
		c-0.938-0.134-2.006-1.339-2.404-2.542C67.695,94.875,68.227,93.936,69.164,94.203z"/>
	<path fill="#CECCCC" d="M69.299,94.873c0.803,0.133,1.604,0.938,1.873,1.874c0.267,0.8-0.134,1.473-0.805,1.339
		c-0.803-0.139-1.604-0.939-1.874-1.875C68.227,95.275,68.631,94.739,69.299,94.873z"/>
	<g id="Tire_Mid_Hole_1_">
		<path fill="#020202" d="M69.565,95.944c0.267,0,0.401,0.269,0.536,0.536c0.134,0.267,0,0.4-0.27,0.4
			c-0.267,0-0.398-0.269-0.533-0.536C69.299,95.944,69.432,95.811,69.565,95.944z"/>
		<path fill="#020202" d="M69.701,95.141c0.131,0,0.266,0.134,0.266,0.267c0,0.133,0,0.267-0.135,0.267
			c-0.131,0-0.268-0.134-0.268-0.267C69.564,95.275,69.564,95.142,69.701,95.141z"/>
		<path fill="#020202" d="M68.768,95.141c0.132,0,0.267,0.134,0.267,0.267c0,0.133,0,0.267-0.135,0.267
			c-0.134,0-0.269-0.134-0.269-0.267C68.631,95.275,68.762,95.142,68.768,95.141z"/>
		<path fill="#020202" d="M68.895,96.212c0.135,0,0.27,0.134,0.27,0.267c0,0.134,0,0.267-0.135,0.267s-0.268-0.133-0.268-0.267
			C68.631,96.344,68.762,96.211,68.895,96.212z"/>
		<path fill="#020202" d="M69.701,97.016c0.131,0,0.266,0.133,0.266,0.265c0,0.135,0,0.266-0.135,0.266
			c-0.131,0-0.268-0.129-0.268-0.266C69.564,97.149,69.564,97.013,69.701,97.016z"/>
		<path fill="#020202" d="M70.635,97.016c0.135,0,0.268,0.133,0.268,0.265c0,0.135,0,0.266-0.133,0.266
			c-0.137,0-0.27-0.129-0.27-0.266C70.5,97.149,70.5,97.013,70.635,97.016z"/>
		<path fill="#020202" d="M70.635,96.077c0.135,0,0.268,0.133,0.268,0.267c0,0.134,0,0.267-0.133,0.267
			c-0.137,0-0.27-0.134-0.27-0.267C70.367,96.211,70.5,96.078,70.635,96.077z"/>
	</g>
	
		<animateTransform  type="translate" fill="remove" attributeType="XML" accumulate="none" repeatCount="indefinite" additive="replace" begin="0s" values="0,0;0.1,0.1;0,0" restart="always" calcMode="linear" dur="1" attributeName="transform">
		</animateTransform>
</g>
<g id="Body">
	<g>
		<g>
			<g>
				<g id="Bus_Body">
					<g>
						<g>
							<path fill="#0D0D0D" d="M144.891,104.236c0.535,0.134,0.803,0.269,0.803,0.269c0.268,0.134,0.134,0.668,0.134,0.668h0.399
								c0.268-0.132,0.268,0.269,0.268,0.269v3.608l-0.134,0.134l-0.134,0.135l-0.533-0.267c0,0.671-0.803,0.535-0.803,0.535h-0.399
								l-0.133-0.133l0.133-0.134l0.267,0.134c0.537,0.271,0.537-0.399,0.537-0.399l-0.135-0.134v-3.342v-0.134l0.4-0.139v-0.266
								c0-0.262-0.268-0.4-0.268-0.4l-0.535-0.133C144.625,104.375,144.758,104.375,144.891,104.236z"/>
							<path fill="#D3D3D3" d="M60.203,93.259l5.758,3.213v-4.149c0.934-1.737,2.41-0.934,2.41-0.934l3.211,1.872
								c1.737,1.204,2.54,4.149,2.54,4.149v3.742l34.515,19.802v-3.615c0.67-1.596,2.275-1.465,2.275-1.465l3.881,2.14
								c1.071,1.204,2.141,4.018,2.141,4.018v3.75l9.23,5.482c2.008,0.937,3.21,0.397,3.21,0.397l15.655-8.963
								c0.802-0.402,1.338-1.337,1.338-1.337v-2.409l-0.669-0.537l0.669-0.799v-2.273l-0.536-0.399c0.4-4.549-0.803-8.83-0.803-8.83
								c1.339-0.137,1.474-0.934,1.474-0.934v-3.216L71.846,58.882L56.993,69.587l-0.538,0.669l0.399,17.661L60.203,93.259z"/>
							<path fill="#515251" d="M72.104,61.292c0.807-0.135,0.807-0.669,0.807-0.669v-0.937c-0.804-0.669-1.608,0-1.608,0v0.937
								C71.438,61.159,72.107,61.159,72.104,61.292z"/>
							<g display="none">
								<path display="inline" fill="#B0AFB0" d="M55.518,68.249h0.271l4.947-2.81v-0.267l-6.021-3.88c-0.4-0.269-0.937,0-0.937,0
									l-4.416,2.675v0.402L55.518,68.249z"/>
								<path display="inline" fill="#848383" d="M55.516,67.443h0.138l4.278-2.406V64.77l-5.217-3.211
									c-0.404-0.267-0.804,0-0.804,0l-3.881,2.274V64.1L55.516,67.443z"/>
								<path display="inline" fill="#B0AFB0" d="M55.516,66.908h0.137l4.013-2.273v-0.267l-4.95-2.943
									c-0.404-0.267-0.804,0-0.804,0l-3.612,2.141v0.267L55.516,66.908z"/>
							</g>
							<g>
								<path fill="#B0AFB0" d="M76.123,74.274h0.27l4.947-2.811v-0.267l-6.021-3.749c-0.4-0.267-0.938,0-0.938,0l-4.414,2.678v0.4
									L76.123,74.274z"/>
								<path fill="#848383" d="M76.127,73.601h0.129l4.28-2.407v-0.269l-5.215-3.211c-0.403-0.269-0.806,0-0.806,0l-3.879,2.275
									v0.267L76.127,73.601z"/>
								<path fill="#B0AFB0" d="M76.125,73.202h0.131l4.016-2.275V70.66l-4.95-3.078c-0.403-0.267-0.806,0-0.806,0l-3.612,2.14
									v0.267L76.125,73.202z"/>
							</g>
							<g>
								<path fill="#B0AFB0" d="M95.119,85.242h0.269l4.948-2.81v-0.267l-6.019-3.747c-0.399-0.267-0.937,0-0.937,0l-4.416,2.676
									v0.4L95.119,85.242z"/>
								<path fill="#848383" d="M95.258,84.57h0.133l4.28-2.408v-0.267l-5.214-3.209c-0.406-0.267-0.807,0-0.807,0l-3.883,2.272
									v0.269L95.258,84.57z"/>
								<path fill="#B0AFB0" d="M95.256,84.035h0.135l4.013-2.274v-0.133l-4.947-3.076c-0.406-0.269-0.807,0-0.807,0l-3.613,2.141
									v0.265L95.256,84.035z"/>
							</g>
							<g>
								<path fill="#B0AFB0" d="M116.526,97.817h0.267l4.95-2.81V94.74l-6.021-3.745c-0.4-0.267-0.937,0-0.937,0l-4.414,2.674v0.401
									L116.526,97.817z"/>
								<path fill="#848383" d="M116.662,97.013h0.133l4.281-2.408v-0.267l-5.216-3.211c-0.403-0.267-0.804,0-0.804,0l-3.879,2.408
									v0.267L116.662,97.013z"/>
								<path fill="#B0AFB0" d="M116.661,96.748h0.134l4.014-2.274v-0.267l-4.95-3.078c-0.402-0.267-0.802,0-0.802,0l-3.612,2.139
									v0.267L116.661,96.748z"/>
							</g>
							<ellipse fill="#727373" cx="72.107" cy="59.82" rx="0.534" ry="0.267"/>
							<path fill="#353535" d="M134.721,103.57c0.806,0,2.41,1.604,2.41,1.604l-0.401,0.133c-1.738-0.129-3.212-1.334-3.212-1.334
								C133.518,103.438,134.723,103.572,134.721,103.57z"/>
							<polygon display="none" fill="#282828" points="63.413,94.739 63.413,77.481 54.18,72.128 54.18,89.388 							"/>
							<polygon fill="#282828" points="95.656,113.201 95.656,96.078 86.291,90.592 86.291,107.85 							"/>
							<polygon fill="#282828" points="126.563,130.729 126.563,113.738 117.196,108.518 117.196,125.514 							"/>
							<path fill="#5E5F5F" d="M72.776,82.162v-1.873l-8.56-4.95c-1.203-0.803-0.67,1.338-0.67,1.338L72.776,82.162z"/>
							<path fill="#5E5F5F" d="M115.725,107.05v-1.87l-8.562-4.955c-1.202-0.803-0.669,1.337-0.669,1.337L115.725,107.05z"/>
							<polygon fill="#151515" points="72.912,82.164 72.912,80.289 64.217,75.206 64.217,76.944 							"/>
							<polygon fill="#151515" points="115.725,106.643 115.725,105.041 107.43,100.358 107.43,101.963 							"/>
							<polyline fill="#020202" points="57.258,73.333 57.121,72.797 62.879,76.142 62.743,76.544 							"/>
							<polygon fill="#020202" points="86.158,89.521 95.792,95.142 95.521,95.408 85.889,89.656 							"/>
							<polygon fill="#020202" points="117.6,107.85 127.232,113.471 126.963,113.871 117.329,108.121 							"/>
							<path fill="#787878" d="M130.174,113.471v-1.605l14.316-8.295c1.203-0.67,0.669,1.205,0.669,1.205L130.174,113.471z"/>
							<polygon fill="#020202" points="144.49,103.572 144.49,105.178 130.176,113.604 130.176,111.998 							"/>
							<polygon fill="#F6851F" points="129.238,114.141 129.506,114.141 129.907,113.871 129.907,112.938 129.639,112.668 
								129.238,112.938 							"/>
							<polygon fill="#F6851F" points="145.961,103.572 146.229,103.705 146.229,104.24 145.961,104.775 145.693,104.775 
								145.693,103.705 							"/>
							<polygon fill="#434343" points="59.799,83.633 62.342,85.105 62.342,77.748 59.799,76.142 							"/>
							<path stroke="#000000" stroke-width="0.1" stroke-miterlimit="10" d="M129.238,111.596l-71.98-41.741L129.238,111.596z"/>
							<path stroke="#000000" stroke-width="0.1" stroke-miterlimit="10" d="M128.7,115.076L57.258,74.003L128.7,115.076z"/>
							<path d="M129.238,111.596c-1.07,0.27-0.536,4.018-0.536,4.018C128.301,111.463,129.238,111.596,129.238,111.596z"/>
							<g>
								<polygon fill="#D1D2D1" points="126.295,114.404 126.295,129.926 122.549,127.652 122.549,112.531 								"/>
								<polygon fill="#D1D2D1" points="121.881,111.998 121.747,126.984 117.998,124.842 117.998,109.855 								"/>
							</g>
							<g>
								<polygon fill="#D1D2D1" points="95.256,96.479 95.119,111.596 91.375,109.322 91.375,94.339 								"/>
								<polygon fill="#D1D2D1" points="90.705,94.07 90.57,109.053 86.824,106.916 86.824,91.93 								"/>
							</g>
							<g id="Glass_Doors">
								<polygon fill="#191919" points="90.436,94.472 90.436,106.111 87.094,104.24 87.094,92.733 								"/>
								<polygon fill="#191919" points="94.988,97.013 94.988,108.385 91.641,106.512 91.641,95.275 								"/>
								<polygon fill="#191919" points="121.747,112.398 121.747,124.041 118.402,122.166 118.402,110.662 								"/>
								<polygon fill="#191919" points="126.028,114.807 126.028,126.314 122.684,124.441 122.684,113.201 								"/>
								<polygon fill="#6D7D85" points="90.303,94.605 90.303,105.576 87.361,103.973 87.361,93.133 								"/>
								<polygon fill="#6D7D85" points="94.719,97.149 94.719,107.982 91.775,106.379 91.775,95.677 								"/>
								<polygon fill="#6D7D85" points="121.344,112.668 121.344,123.506 118.668,121.896 118.668,111.195 								"/>
								<polygon fill="#6D7D85" points="125.758,115.076 125.758,125.645 123.086,124.172 123.086,113.738 								"/>
								<path stroke="#000000" stroke-width="0.1" stroke-miterlimit="10" d="M146.096,101.965l-16.725,9.363L146.096,101.965z"/>
								<polygon fill="#282828" points="145.561,120.424 145.561,122.299 130.711,130.865 130.711,128.992 								"/>
							</g>
							<path fill="#0D0D0D" d="M126.291,114.813c-0.537,0.131-0.804,0.266-0.804,0.266c-0.267,0.133-0.133,0.668-0.133,0.668h-0.4
								c-0.267-0.132-0.267,0.264-0.267,0.264v3.609l0.133,0.137l0.133,0.135l0.536-0.271c0,0.674,0.804,0.541,0.804,0.541h0.4
								l0.133-0.14l-0.133-0.139l-0.268,0.135c-0.535,0.269-0.535-0.401-0.535-0.401l0.136-0.127v-3.349v-0.135l-0.401-0.133v-0.264
								c0-0.266,0.268-0.398,0.268-0.398l0.535-0.135C126.563,114.943,126.428,114.807,126.291,114.813z"/>
							<path fill="#1E1E1E" d="M128.836,115.346l15.655-8.701c1.069,1.478,1.336,8.832,1.336,8.832
								c0.267,0.533-0.134,1.072-0.134,1.072l-14.314,7.76c-2.41,1.875-4.549,0-4.549,0l0.268-10.168L128.836,115.346z"/>
							<path fill="#6D7D85" d="M128.834,115.477l15.922-9.098c1.068,1.34,1.068,8.697,1.068,8.697c0.27,0.4-0.268,1.07-0.268,1.07
								l-14.047,7.895c-2.541,1.873-4.414,0-4.414,0l0.268-9.367L128.834,115.477z"/>
							<path fill="none" stroke="#000000" stroke-width="0.1" stroke-miterlimit="10" d="M145.961,117.889l-14.717,8.559
								c-2.675,1.34-4.414-0.404-4.414-0.404"/>
							<path fill="none" stroke="#000000" stroke-width="0.1" stroke-miterlimit="10" d="M146.364,119.891l-15.385,8.969
								c-2.009,1.066-3.747-0.406-3.747-0.406"/>
							<path fill="#B44326" d="M129.508,127.246l0.133,0.402h0.267l0.401-0.533h0.267v1.074c-0.937,0.803-2.14,0.133-2.14,0.133
								v-1.205C128.836,127.383,129.371,127.246,129.508,127.246z"/>
							<path fill="#F26322" d="M129.374,127.521l0.134,0.271h0.267l0.401-0.405h0.267v0.936c-0.804,0.666-1.74,0.131-1.74,0.131
								v-1.07C128.969,127.652,129.371,127.52,129.374,127.521z"/>
							<polygon fill="#F4F4F4" points="140.61,123.506 140.61,124.842 136.73,126.984 136.73,125.645 							"/>
							<polygon fill="#848484" points="95.925,111.328 108.23,118.418 108.23,114.141 95.925,107.049 							"/>
							<polygon fill="#E5E5E5" points="96.19,111.195 107.965,118.152 108.098,114.273 96.19,107.314 							"/>
							<polygon fill="#848484" points="74.786,99.289 85.623,105.576 85.623,101.83 74.786,95.408 							"/>
							<polygon fill="#E5E5E5" points="74.918,99.156 85.488,105.307 85.488,101.963 74.918,95.811 							"/>
							<polygon fill="#F26322" points="107.161,118.289 107.161,119.088 105.825,118.289 105.825,117.486 							"/>
							<polygon fill="#F26322" points="97.53,112.801 97.53,113.471 96.326,112.801 96.326,111.998 							"/>
							<polygon fill="#F26322" points="85.086,105.844 85.086,106.643 83.883,105.975 83.883,105.178 							"/>
							<polygon fill="#F26322" points="75.723,100.358 75.723,101.158 74.381,100.358 74.381,99.556 							"/>
							<polygon fill="#F26322" points="60.336,89.388 60.336,90.191 59.131,89.521 59.131,88.719 							"/>
						</g>
						<g>
							<polygon fill="#919191" points="88.032,105.713 88.032,106.643 87.225,106.246 87.225,105.307 							"/>
							<polygon fill="#919191" points="94.586,109.723 94.586,110.662 94.051,110.256 94.051,109.322 							"/>
							<polygon fill="#919191" points="119.336,123.908 119.336,124.975 118.668,124.574 118.668,123.639 							"/>
							<polygon fill="#919191" points="125.893,127.916 125.893,128.859 125.357,128.453 125.357,127.652 							"/>
						</g>
					</g>
					<polygon fill="#282828" points="95.925,105.975 116.795,118.018 116.795,108.652 95.925,96.747 					"/>
					<path fill="#282828" d="M85.889,90.86v9.5l-5.617-3.345c-5.485-4.683-10.84-8.43-10.84-8.43l-5.75-3.745v-6.957L85.889,90.86z"
						/>
					<polygon fill="#6D7D85" points="105.691,102.768 105.691,111.328 96.326,105.975 96.326,97.416 					"/>
					<polygon fill="#6D7D85" points="116.125,108.922 116.125,110.127 106.361,104.508 106.361,103.303 					"/>
					<polygon fill="#6D7D85" points="116.125,110.793 116.125,117.346 106.494,111.729 106.361,105.041 					"/>
					<polygon fill="#6D7D85" points="69.564,81.762 69.564,88.183 63.947,84.572 63.947,78.552 					"/>
					<polygon fill="#6D7D85" points="79.733,89.521 79.733,96.211 70.637,88.583 70.637,84.169 					"/>
					<polygon fill="#6D7D85" points="70.367,83.369 79.733,89.119 79.733,87.514 70.367,82.164 					"/>
					<polygon fill="#6D7D85" points="85.488,90.994 85.488,99.556 80.67,96.613 80.67,88.183 					"/>
				</g>
				<polygon fill="#59595A" points="144.891,118.688 144.891,119.891 143.821,120.424 143.821,119.357 				"/>
				<polygon fill="#7DBDD1" points="144.625,118.824 144.625,120.164 143.555,120.693 143.555,119.494 				"/>
				<polygon fill="#59595A" points="132.449,125.781 132.449,127.117 130.844,128.053 130.844,126.713 				"/>
				<polygon fill="#7DBDD1" points="132.582,125.781 132.582,127.117 130.977,127.916 130.977,126.584 				"/>
				<polygon fill="#ABABAB" points="143.555,119.494 143.555,121.363 132.717,127.652 132.717,125.781 				"/>
			</g>
		</g>
		<path opacity="0.2" fill="#FFFFFF" enable-background="new    " d="M145.559,115.477l-15.385,8.432h-0.67
			c0.534-2.545-1.338-8.029-1.338-8.029C131.646,119.758,145.561,115.613,145.559,115.477z"/>
		<polygon opacity="0.3" fill="#FFFFFF" enable-background="new    " points="125.758,124.041 123.086,118.418 123.086,115.746 
			125.625,121.496 		"/>
		<polygon opacity="0.3" fill="#FFFFFF" enable-background="new    " points="121.344,119.494 118.668,115.746 118.668,113.738 
			121.344,117.752 		"/>
		<polygon opacity="0.3" fill="#FFFFFF" enable-background="new    " points="112.647,108.652 113.852,116.01 115.055,116.816 
			113.986,109.588 		"/>
		<polygon opacity="0.3" fill="#FFFFFF" enable-background="new    " points="111.577,108.121 112.647,115.344 113.049,115.613 
			111.844,108.385 		"/>
		<polygon opacity="0.3" fill="#FFFFFF" enable-background="new    " points="102.879,101.158 103.28,109.988 104.352,110.662 
			103.682,101.697 		"/>
		<polygon opacity="0.3" fill="#FFFFFF" enable-background="new    " points="98.734,98.886 99.801,107.982 100.604,108.518 
			99.801,99.421 		"/>
		<polygon opacity="0.3" fill="#FFFFFF" enable-background="new    " points="101.678,109.053 101.278,108.791 100.471,99.824 		"/>
		<polygon opacity="0.3" fill="#FFFFFF" enable-background="new    " points="91.775,98.353 94.719,104.508 94.719,103.035 
			91.775,96.613 		"/>
		<polygon opacity="0.3" fill="#FFFFFF" enable-background="new    " points="87.361,97.416 90.303,101.83 90.303,99.824 
			87.361,95.275 		"/>
	</g>
	<polygon opacity="0.3" fill="#FFFFFF" enable-background="new    " points="80.67,92.464 85.488,97.818 85.488,95.408 
		80.67,89.388 	"/>
	<polygon opacity="0.3" fill="#FFFFFF" enable-background="new    " points="75.188,86.847 76.252,93.266 78.395,95.142 
		76.793,87.781 	"/>
	<polygon opacity="0.3" fill="#FFFFFF" enable-background="new    " points="74.786,84.705 75.053,86.311 76.252,86.98 
		75.723,85.241 	"/>
	<polygon opacity="0.3" fill="#FFFFFF" enable-background="new    " points="65.821,79.62 66.889,86.445 68.227,87.249 
		66.758,80.155 	"/>
	
		<animateTransform  type="translate" fill="remove" attributeType="XML" accumulate="none" repeatCount="indefinite" additive="replace" begin="0s" values="0,0;-0.1,-0.1;0,0" restart="always" calcMode="linear" dur="1" attributeName="transform">
		</animateTransform>
</g>
</svg>
