<?xml version="1.0" encoding="utf-8"?>
<!-- Generator: Adobe Illustrator 16.0.0, SVG Export Plug-In . SVG Version: 6.00 Build 0)  -->
<!DOCTYPE svg PUBLIC "-//W3C//DTD SVG 1.1//EN" "http://www.w3.org/Graphics/SVG/1.1/DTD/svg11.dtd">
<svg version="1.1" id="Layer_1" xmlns="http://www.w3.org/2000/svg" xmlns:xlink="http://www.w3.org/1999/xlink" x="0px" y="0px"
	 width="200px" height="200px" viewBox="0 0 200 200" enable-background="new 0 0 200 200" xml:space="preserve">
<g id="Direction">
	<g transform="rotate({{angle}} 50 50)">
		<polygon id="arrow" opacity="0.7" fill="#80C342" enable-background="new    " points="142.359,80.81 141.605,80.058 
			139.352,50.382 109.116,47.565 108.93,47.378 116.629,39.677 147.052,42.681 149.871,73.298 		">
		
			<animate  fill="remove" accumulate="none" additive="replace" begin="0s;anim_arrow3.end" values="0.5; 0" restart="always" calcMode="linear" dur="0.5s" attributeName="opacity" id="anim_arrow1">
			</animate>
		</polygon>
		<polygon id="arrow2" opacity="0.7" fill="#80C342" enable-background="new    " points="151.938,71.604 151.188,70.854 
			148.744,41.37 118.695,38.362 118.509,38.175 126.018,30.663 156.633,33.481 159.449,64.093 		">
		
			<animate  fill="remove" accumulate="none" additive="replace" begin="anim_arrow1.end" values="0.5; 0" restart="always" calcMode="linear" dur="0.5s" attributeName="opacity" id="anim_arrow2">
			</animate>
		</polygon>
		<polygon id="arrow3" opacity="0.7" fill="#80C342" enable-background="new    " points="161.33,62.593 160.576,61.839 
			158.322,32.165 128.084,29.349 127.896,29.161 135.598,21.46 166.023,24.464 169.031,54.892 		">
		
			<animate  fill="remove" accumulate="none" additive="replace" begin="anim_arrow2.end" values="0.5; 0" restart="always" calcMode="linear" dur="0.5s" attributeName="opacity" id="anim_arrow3">
			</animate>
		</polygon>
	</g>
</g>
<g>
	<polygon fill="#141414" points="126.201,93.824 127.75,93.248 128.068,94.491 127.625,94.654 128.59,97.846 129.059,97.761 
		129.5,98.94 128.254,100.019 128.42,100.313 129.84,99.164 129.364,97.556 129.84,97.47 128.963,94.393 128.383,94.474 
		127.883,92.905 126.047,93.373 	"/>
	<g id="Tire_2_2_">
		<path d="M62.658,103.04c1.69-2.813,5.889-3.58,5.889-3.58c5.445,1.218,4.932,7.136,4.932,7.136
			c-1.629,3.611-5.211,4.689-5.211,4.689S60.949,106.415,62.658,103.04z"/>
		<path fill="#333333" d="M63.453,102.473c1.655-0.898,4.246,0.033,5.674,2.495c1.642,2.372,1.449,5.175-0.207,6.07
			c-1.653,0.894-4.248-0.036-5.672-2.497C61.688,106.411,61.795,103.377,63.453,102.473z"/>
		<path fill="#999999" d="M63.688,108.381c1.146,1.739,2.911,2.438,4.135,1.709c1.215-0.734,1.456-2.73,0.303-4.472
			c-1.149-1.749-2.914-2.445-4.129-1.706C62.771,104.641,62.744,106.557,63.688,108.381z M64.584,106.133
			c0.432-0.173,1.357,0.295,1.847,0.938c0.489,0.632,0.624,1.672-0.024,1.912c-0.436,0.168-1.273-0.063-1.852-0.928
			C63.98,107.182,64.139,106.298,64.584,106.133z"/>
		<path fill="#FFFFFF" d="M66.621,104.279c-0.436,0.175-0.733,1.361-0.733,1.361l-0.302-0.154c0.164-0.877,0.728-1.365,0.728-1.365
			L66.621,104.279z"/>
		
			<animateTransform  type="translate" fill="remove" attributeType="XML" accumulate="none" repeatCount="indefinite" additive="replace" begin="0s" values="0,0;0.1,0.1;0,0" restart="always" calcMode="linear" dur="1" attributeName="transform">
			</animateTransform>
	</g>
	<g id="BAck">
		<g id="container">
			<polygon fill="#333333" points="99.789,113.085 99.854,117.32 84.871,110.962 84.687,107.943 84.109,107.577 84.061,106.771 
				99.024,112.73 			"/>
			<polygon fill="#666666" points="97.301,114.854 97.549,118.875 82.388,112.736 82.188,109.511 81.613,109.141 81.576,108.541 
				96.533,114.291 			"/>
			<path fill="#D1D1D1" d="M94.5,114.21L58.123,99.863L56.5,78.697c-0.875-2.17,0.967-2.283,0.967-2.283l18.449-9.344l1.082-0.472
				l34.932,12.019c1.166,0.937,1.103,2.962,1.103,2.962l0.732,12.078L94.5,114.21z"/>
			<polygon fill="#AFAFAF" points="113.311,95.3 112.117,96.986 95.279,111.951 94.39,91.198 112.434,80.81 			"/>
			<polygon fill="#AAAAAA" points="113.474,94.884 112.271,96.375 95.587,110.915 94.78,91.579 111.926,81.651 			"/>
			<polygon fill="#0F0F0F" points="76.455,85.901 92.118,91.283 92.507,103.145 76.895,97.046 			"/>
			<polygon fill="#3D3D3D" points="76.715,86.214 91.958,91.426 92.374,102.824 77.176,96.923 			"/>
			<polygon fill="#191919" points="59.092,79.571 73.905,85.192 74.299,96.144 59.934,90.556 			"/>
			<polygon fill="#3D3D3D" points="59.338,79.786 73.653,85.222 74.028,95.818 60.151,90.414 			"/>
		</g>
		<polygon opacity="0.8" fill="#F9F4F4" enable-background="new    " points="85.014,89.053 86.65,100.598 89.226,101.598 
			86.65,89.615 		"/>
		<polygon opacity="0.8" fill="#F9F4F4" enable-background="new    " points="67.563,82.911 66.201,82.391 67.949,93.446 
			69.752,94.15 		"/>
	</g>
	<g>
		<path fill="#141414" d="M100.857,114.896l-7.535,4.054c-1.359-5.009,2.335-7.276,2.335-7.276
			C99.002,110.516,100.857,114.9,100.857,114.896z"/>
		<path fill="#4C4C4C" d="M101.57,115.648l-7.879,3.112c-1.493-4.521,1.976-6.819,1.976-6.819
			C99.015,110.782,101.563,115.648,101.57,115.648z"/>
	</g>
	<g id="Tire_2_1_">
		<path d="M95.929,115.521c1.687-2.811,5.886-3.586,5.886-3.586c5.445,1.223,4.932,7.137,4.932,7.137
			c-1.634,3.609-5.216,4.691-5.216,4.691S94.213,118.896,95.929,115.521z"/>
		<path fill="#333333" d="M96.72,114.951c1.654-0.896,4.247,0.031,5.674,2.494c1.642,2.378,1.446,5.174-0.207,6.065
			c-1.657,0.899-4.251-0.03-5.675-2.487C94.955,118.885,95.062,115.854,96.72,114.951z"/>
		<path fill="#999999" d="M96.944,120.855c1.156,1.75,2.915,2.441,4.136,1.713c1.217-0.728,1.461-2.729,0.308-4.473
			s-2.915-2.439-4.127-1.707C96.034,117.116,96.009,119.029,96.944,120.855z M97.848,118.611c0.431-0.168,1.36,0.308,1.849,0.936
			c0.488,0.637,0.631,1.667-0.026,1.913c-0.433,0.174-1.272-0.051-1.851-0.935C97.244,119.654,97.406,118.777,97.848,118.611z"/>
		<path fill="#FFFFFF" d="M99.892,116.755c-0.439,0.175-0.736,1.366-0.736,1.366l-0.309-0.156c0.17-0.88,0.732-1.365,0.732-1.365
			L99.892,116.755z"/>
	</g>
	<g id="Body">
		<path fill="#474747" d="M112.476,122.99c-5.142,0.599-7.13-0.596-7.13-0.596c-0.586-7.863-9.939-10.721-9.939-10.721V98.1
			l1.165-2.978l15.667-10.003h2.69c12.862,3.453,13.739,17.15,13.739,17.15l0.514,10.42
			C129.182,112.689,117.617,122.395,112.476,122.99z"/>
		<path fill="#D1D1D1" d="M113.045,122.99c-5.24,0.599-7.266-0.596-7.266-0.596c-0.597-7.863-10.124-10.721-10.124-10.721V98.1
			l1.19-2.978l15.955-10.003h2.74c13.098,3.453,13.992,17.15,13.992,17.15l0.525,10.42
			C130.059,112.689,118.289,122.395,113.045,122.99z"/>
		<path fill="#1E1E1E" d="M108.061,121.004l-0.053-3.374c1.679,0,6.709,0.363,6.709,0.363l0.057,2.077
			C111.389,121.532,108.061,121.004,108.061,121.004z"/>
		<path opacity="0.9" fill="#D1C269" enable-background="new    " d="M108.289,121.009l-0.05-3.149c1.62,0,6.487,0.34,6.487,0.34
			l0.052,1.939C111.504,121.506,108.291,121.009,108.289,121.009z"/>
		<path fill="#3D3D3D" d="M109.832,113.941l-2.263-12.268l17.027-10.123c4.299,4.874,4.585,11.779,4.585,11.779
			C120.904,111.674,109.828,113.941,109.832,113.941z"/>
		<polygon fill="#3D3D3D" points="98.814,98.447 97.919,99.342 97.919,104.141 107.567,113.459 108.281,113.459 106.256,101.781 		
			"/>
		<path opacity="0.8" fill="#E0E0E0" enable-background="new    " d="M121.733,93.586c1.55,3.456,2.248,13.799,2.248,13.799
			c0.595-0.355,1.565-1.381,1.565-1.381c0-7.591-2.547-13.264-2.547-13.264L121.733,93.586z"/>
		<polygon fill="#1E1E1E" points="129.84,110.541 126.369,113.105 126.293,110.967 129.678,106.977 		"/>
		<polygon opacity="0.9" fill="#D1C269" enable-background="new    " points="129.84,110.809 126.369,113.373 126.293,111.232 
			129.678,107.24 		"/>
		<path fill="#3D3D3D" d="M130.063,112.686c-2.752,2.647-9.682,6.996-9.682,6.996c-2.832,1.861-5.909,2.979-5.909,2.979
			c-4.05,1.432-8.931,0-8.931,0l-0.119-0.415l-0.26-2.206l0,0c3.793,2.175,9.668,0.03,9.668,0.03
			c4.107-1.276,15.01-9.764,15.01-9.764C130.209,110.307,130.059,112.689,130.063,112.686z"/>
		<path fill="#3D3D3D" d="M131.381,117.48"/>
		<path fill="#7A7A7A" d="M126.293,111.232l0.002,1.733c-7.379,5.755-11.463,7.104-11.463,7.104l-0.054-1.846
			C115.967,118.311,126.293,111.232,126.293,111.232L126.293,111.232z"/>
		<path fill="#4C4C4C" d="M89.226,116.102"/>
	</g>
	<polygon fill="#141414" points="106.578,103.617 104.938,103.854 104.938,105.146 105.475,104.971 105.379,108.229 
		104.938,108.541 104.938,110.02 107.746,110.038 107.746,110.377 104.58,110.377 104.67,108.541 104.127,108.9 104.127,105.555 
		104.655,105.371 104.655,103.617 106.492,103.145 	"/>
</g>
</svg>
