<?xml version="1.0" encoding="utf-8"?>
<!-- Generator: Adobe Illustrator 16.0.0, SVG Export Plug-In . SVG Version: 6.00 Build 0)  -->
<!DOCTYPE svg PUBLIC "-//W3C//DTD SVG 1.1//EN" "http://www.w3.org/Graphics/SVG/1.1/DTD/svg11.dtd">
<svg version="1.1" id="Layer_1" xmlns="http://www.w3.org/2000/svg" xmlns:xlink="http://www.w3.org/1999/xlink" x="0px" y="0px"
	 width="200px" height="200px" viewBox="0 0 200 200" enable-background="new 0 0 200 200" xml:space="preserve">
<g id="Tire_2_1_">
	<path fill="#010101" d="M82.411,137.373c0,0-3.344-0.63-5.027-4.147c0,0-0.775-6.046,4.159-8.046c0,0,3.891,0.223,5.585,2.913
		C88.884,131.348,82.411,137.373,82.411,137.373z"/>
	<path fill="#333333" d="M86.882,133.861c-1.186,2.744-3.517,4.045-5.086,3.349c-1.568-0.703-1.889-3.571-0.499-6.25
		c1.182-2.737,3.516-4.048,5.083-3.352C87.95,128.315,88.199,131.441,86.882,133.861z"/>
	<path fill="#989898" d="M85.96,129.159c-1.158-0.61-2.737,0.37-3.711,2.337c-0.972,1.958-0.643,3.999,0.512,4.589
		c1.159,0.591,2.74-0.369,3.711-2.34C87.24,131.737,87.118,129.754,85.96,129.159z M85.651,133.526
		c-0.488,0.983-1.24,1.336-1.65,1.226c-0.614-0.167-0.535-1.265-0.122-1.977c0.417-0.72,1.238-1.339,1.652-1.228
		C85.939,131.654,86.138,132.549,85.651,133.526z"/>
	<path fill="#FFFFFF" d="M83.836,129.699c0,0,0.543,0.43,0.74,1.313l-0.273,0.198c0,0-0.334-1.195-0.744-1.309L83.836,129.699z"/>
	
		<animateTransform  type="translate" fill="remove" attributeType="XML" accumulate="none" repeatCount="indefinite" additive="replace" begin="0s" values="0,0;0.1,0.1;0,0" restart="always" calcMode="linear" dur="1" attributeName="transform">
		</animateTransform>
</g>
<g id="Tire_2_3_">
	<path fill="#010101" d="M123.994,113.436c0,0-3.341-0.63-5.037-4.153c0,0-0.779-6.042,4.155-8.038c0,0,3.899,0.224,5.586,2.911
		C130.467,107.409,123.994,113.436,123.994,113.436z"/>
	<path fill="#333333" d="M128.465,109.924c-1.188,2.743-3.517,4.051-5.084,3.345c-1.571-0.694-1.889-3.569-0.502-6.251
		c1.182-2.733,3.516-4.044,5.082-3.345C129.534,104.372,129.777,107.498,128.465,109.924z"/>
	<path fill="#989898" d="M127.542,105.224c-1.166-0.595-2.74,0.368-3.709,2.333c-0.971,1.959-0.649,4,0.513,4.595
		c1.157,0.588,2.739-0.377,3.71-2.331C128.823,107.796,128.703,105.811,127.542,105.224z M127.235,109.589
		c-0.487,0.982-1.24,1.333-1.649,1.222c-0.611-0.166-0.54-1.262-0.125-1.979c0.421-0.719,1.245-1.333,1.654-1.222
		C127.521,107.72,127.723,108.615,127.235,109.589z"/>
	<path fill="#FFFFFF" d="M125.421,105.763c0,0,0.544,0.423,0.74,1.308l-0.275,0.204c0,0-0.332-1.195-0.746-1.307L125.421,105.763z"
		/>
	
		<animateTransform  type="translate" fill="remove" attributeType="XML" accumulate="none" repeatCount="indefinite" additive="replace" begin="0s" values="0,0;0.1,0.1;0,0" restart="always" calcMode="linear" dur="1" attributeName="transform">
		</animateTransform>
</g>
<path fill="#CDCCCC" d="M60.748,105.685c0,0-1.702-2.667-2.345-2.602c0,0-0.945,0.573-0.319,1.616l1.082,1.477l-0.572,0.669
	l0.311,1.938L60.748,105.685z"/>
<path fill="#EAEAEA" d="M71.524,84.564v2.545L69.2,90.873l-10.072,16.602l-6.529,9.183v7.194l22.356,13.171l3.984-1.55
	c0,0,0.552-6.417,4.98-9.52c0,0,3.652-2.102,5.092,3.984l30.214-17.482c0,0,0.995-7.859,5.53-9.744c0,0,4.425-1.658,5.203,4.095
	l7.745-5.753l-1.105-27.891l-24.46-11.632L79.051,78.907L71.524,84.564z"/>
<path fill="#243245" d="M68.316,94.302l-8.301,13.06c0,0,9.74,6.753,21.36,11.951l8.521-13.83L68.316,94.302z"/>
<polygon fill="#243245" points="91.224,105.259 82.537,119.76 97.089,109.908 97.089,101.716 "/>
<polygon fill="#ED2224" points="92.22,97.901 136.62,73.823 136.62,77.234 91.556,102.137 69.405,90.552 71.524,87.109 "/>
<polygon fill="#ED2224" points="53.856,114.893 76.074,126.744 92.884,114.584 137.183,87.94 137.377,92.918 77.402,127.989 
	76.863,131.353 74.167,132.593 52.599,120.396 52.599,116.657 "/>
<path fill="#EAEAEA" stroke="#010101" stroke-miterlimit="10" d="M52.599,118.072"/>
<path fill="#161616" d="M80.909,129.352l-5.664,2.334l-0.299-0.166l-7.621-4.114l1.53-1.741l-11.663-6.557l0.289,2.906l-4.882-2.701
	v4.539l22.356,13.171l3.984-1.55C78.94,135.473,79.147,132.593,80.909,129.352z"/>
<path fill="#EAEAEA" d="M80.138,131.042"/>
<polygon fill="#CFCFCE" points="75.245,131.686 75.713,128.987 68.854,125.664 67.322,127.405 "/>
<polygon fill="#CFCFCE" points="52.599,116.657 57.192,119.107 57.481,122.014 52.599,119.313 "/>
<polygon fill="#F99D1C" points="77.402,127.989 75.713,128.987 75.245,131.686 76.913,131.042 "/>
<path fill="#ED2224" d="M57.481,122.014"/>
<polygon fill="#161616" points="57.192,119.107 68.854,125.664 67.322,127.405 57.481,122.014 "/>
<polygon fill="#EAEAEA" points="57.192,120.064 68.366,126.22 68.171,126.438 57.338,120.558 "/>
<polygon fill="#EAEAEA" points="57.481,121.681 67.555,127.141 67.322,127.405 57.481,122.014 "/>
<polygon fill="#EAEAEA" points="58.383,125.18 58.383,127.538 65.418,131.686 65.418,128.958 "/>
<polygon fill="#3E5AA9" points="80.909,82.047 80.909,80.137 84.417,78.477 99.771,87.028 99.771,89.188 96.482,91.076 "/>
<polygon fill="#FFFFFF" points="93.962,83.791 90.56,85.699 90.34,87.517 86.18,85.102 86.18,83.126 89.303,81.2 "/>
<path fill="#FFFFFF" d="M98.361,87.221l-1.604,0.72l-1.604-0.72C95.153,87.221,96.093,88.273,98.361,87.221z"/>
<path fill="#CDCCCC" d="M84.394,116.657c0,0,3.155,0.233,3.399,0.829c0,0-0.056,1.105-1.272,1.054l-1.812-0.25l-0.318,0.82
	l-1.856,0.649L84.394,116.657z"/>
<polygon fill="#EAEAEA" points="75.453,90.098 87.958,96.849 87.017,98.62 74.568,91.924 "/>
<polygon fill="#ED2224" points="118.035,92.376 123.833,89.084 124.117,91.204 118.333,94.601 "/>
<polygon fill="#ED2224" points="120.527,96.286 119.656,88.408 121.772,87.394 122.497,94.958 "/>
<path fill="#426183" d="M86.852,105.537c0,0-11.625-4.595-24.072,1.938c0,0-0.066,0.301-1.769,0c0,0,11.565,7.69,19.368,10.593
	C80.376,118.072,88.789,106.643,86.852,105.537z"/>
<path fill="#426183" d="M96.411,102.965c0,0-5.023,1.866-10.418,13.116l0.665,0.58l9.753-6.929V102.965z"/>
<path fill="#729DC4" d="M85.993,106.201c0,0-7.165,9.516-9.489,9.848l3.652,1.494C80.156,117.543,87.516,106.81,85.993,106.201z"/>
<path fill="#729DC4" d="M95.816,103.968v5.844l-1.107,0.929C94.709,110.74,96.387,104.307,95.816,103.968z"/>
<polygon fill="#161616" points="137.553,97.282 136.62,97.992 136.62,101.859 137.704,101.053 "/>
<ellipse id="light2" opacity="0.6" fill="#597DBE" enable-background="new    " cx="84.467" cy="81.202" rx="8.937" ry="5.24">
<animate  fill="remove" from="0.2" to="0" accumulate="none" repeatCount="indefinite" additive="replace" begin="0.1s;light2.end" restart="always" calcMode="linear" dur="1" attributeName="opacity" id="light1">
	</animate>
</ellipse>
<ellipse id="light1" opacity="0.6" fill="#597DBE" enable-background="new    " cx="95.323" cy="87.394" rx="9.232" ry="5.416">
<animate  fill="remove" from="0.2" to="0" accumulate="none" repeatCount="indefinite" additive="replace" begin="0.2s;light1.end" restart="always" calcMode="linear" dur="1" attributeName="opacity" id="light2">
	</animate>
</ellipse>
<path id="parking" fill="#4478BC" d="M113.716,6.713l-28.454,0.42L71.321,31.191l14.506,23.641l28.453-0.417l13.941-24.061
	L113.716,6.713z M102.165,43.996c-0.224,0.157-0.593,0.235-1.116,0.235h-0.603h-7.9h-0.459c-0.426,0-0.753-0.089-0.985-0.266
	c-0.229-0.176-0.344-0.428-0.344-0.759c0-0.54,0.235-0.898,0.708-1.066c0.389-0.143,0.619-0.232,0.683-0.266
	c0.062-0.034,0.129-0.106,0.202-0.229c0.14-0.207,0.212-0.541,0.212-1.002V20.903c0-0.459-0.073-0.794-0.212-1.007
	c-0.073-0.117-0.14-0.191-0.202-0.227c-0.064-0.034-0.297-0.12-0.683-0.266c-0.473-0.172-0.708-0.527-0.708-1.063
	c0-0.329,0.115-0.583,0.344-0.763c0.232-0.178,0.56-0.266,0.985-0.266h0.459h7.886v23.168c0,0.512,0.087,0.879,0.263,1.103
	c0.095,0.134,0.182,0.215,0.266,0.246c0.083,0.034,0.359,0.115,0.818,0.247c0.564,0.146,0.851,0.509,0.851,1.086
	C102.625,43.508,102.471,43.783,102.165,43.996z M110.463,30.374c-0.801,1.271-1.927,2.211-3.37,2.816
	c-1.193,0.487-2.912,0.73-5.157,0.73v-2.108c0.51-0.134,0.867-0.271,1.069-0.417c0.208-0.148,0.392-0.367,0.54-0.669
	c0.249-0.515,0.372-1.204,0.372-2.071v-6.31c0-0.616-0.039-1.078-0.123-1.378c-0.084-0.301-0.249-0.576-0.495-0.829
	c-0.344-0.367-0.803-0.597-1.38-0.688v-2.13c2.433,0,4.232,0.258,5.387,0.771c1.332,0.59,2.391,1.496,3.168,2.721
	c0.783,1.253,1.188,2.78,1.188,4.598C111.661,27.423,111.263,29.08,110.463,30.374z"/>
</svg>
