<?xml version="1.0" encoding="utf-8"?>
<!-- Generator: Adobe Illustrator 16.0.0, SVG Export Plug-In . SVG Version: 6.00 Build 0)  -->
<!DOCTYPE svg PUBLIC "-//W3C//DTD SVG 1.1//EN" "http://www.w3.org/Graphics/SVG/1.1/DTD/svg11.dtd">
<svg version="1.1" id="Layer_1" xmlns="http://www.w3.org/2000/svg" xmlns:xlink="http://www.w3.org/1999/xlink" x="0px" y="0px"
	 width="200px" height="200px" viewBox="0 0 200 200" enable-background="new 0 0 200 200" xml:space="preserve">
<g id="Tire_2_1_">
	<path fill="#010101" d="M103.175,128.093c1.694-2.69,5.585-2.913,5.585-2.913c4.934,2,4.159,8.047,4.159,8.047
		c-1.683,3.517-5.027,4.146-5.027,4.146S101.419,131.348,103.175,128.093z"/>
	<path fill="#333333" d="M103.923,127.607c1.567-0.695,3.901,0.615,5.083,3.353c1.39,2.679,1.068,5.547-0.499,6.25
		c-1.569,0.696-3.899-0.604-5.086-3.349C102.104,131.441,102.353,128.314,103.923,127.607z"/>
	<path fill="#989898" d="M103.83,133.745c0.972,1.971,2.553,2.931,3.711,2.34c1.156-0.59,1.484-2.631,0.513-4.589
		c-0.974-1.967-2.553-2.947-3.711-2.337C103.185,129.754,103.063,131.736,103.83,133.745z M104.771,131.547
		c0.414-0.111,1.235,0.508,1.652,1.229c0.413,0.711,0.492,1.81-0.122,1.977c-0.41,0.109-1.162-0.243-1.649-1.227
		C104.164,132.549,104.363,131.654,104.771,131.547z"/>
	<path fill="#FFFFFF" d="M106.744,129.9c-0.41,0.115-0.744,1.31-0.744,1.31l-0.273-0.198c0.197-0.883,0.74-1.313,0.74-1.313
		L106.744,129.9z"/>
	
		<animateTransform  type="translate" fill="remove" attributeType="XML" accumulate="none" repeatCount="indefinite" additive="replace" begin="0s" values="0,0;0.1,0.1;0,0" restart="always" calcMode="linear" dur="1" attributeName="transform">
		</animateTransform>
</g>
<g id="Tire_2_3_">
	<path fill="#010101" d="M61.604,104.156c1.687-2.688,5.587-2.911,5.587-2.911c4.934,1.996,4.154,8.038,4.154,8.038
		c-1.695,3.523-5.037,4.152-5.037,4.152S59.836,107.409,61.604,104.156z"/>
	<path fill="#333333" d="M62.342,103.673c1.566-0.698,3.9,0.612,5.082,3.345c1.387,2.683,1.068,5.558-0.502,6.252
		c-1.567,0.705-3.896-0.603-5.084-3.346C60.525,107.498,60.769,104.372,62.342,103.673z"/>
	<path fill="#989898" d="M62.246,109.82c0.972,1.955,2.554,2.92,3.711,2.332c1.162-0.596,1.484-2.637,0.513-4.596
		c-0.969-1.965-2.543-2.928-3.709-2.332C61.6,105.811,61.479,107.796,62.246,109.82z M63.188,107.609
		c0.409-0.11,1.233,0.504,1.654,1.223c0.415,0.717,0.486,1.813-0.125,1.979c-0.409,0.111-1.162-0.24-1.648-1.222
		C62.58,108.615,62.781,107.721,63.188,107.609z"/>
	<path fill="#FFFFFF" d="M65.162,105.968c-0.414,0.112-0.746,1.308-0.746,1.308l-0.274-0.205c0.196-0.885,0.74-1.307,0.74-1.307
		L65.162,105.968z"/>
	
		<animateTransform  type="translate" fill="remove" attributeType="XML" accumulate="none" repeatCount="indefinite" additive="replace" begin="0s" values="0,0;0.1,0.1;0,0" restart="always" calcMode="linear" dur="1" attributeName="transform">
		</animateTransform>
</g>
<path fill="#CDCCCC" d="M131.398,108.783l0.311-1.938l-0.572-0.67l1.082-1.477c0.626-1.043-0.318-1.616-0.318-1.616
	c-0.644-0.065-2.346,2.603-2.346,2.603L131.398,108.783z"/>
<path fill="#EAEAEA" d="M111.252,78.907L78.164,61.53L53.705,73.162L52.6,101.053l7.745,5.754c0.778-5.754,5.203-4.096,5.203-4.096
	c4.534,1.885,5.53,9.744,5.53,9.744l30.213,17.482c1.441-6.086,5.093-3.984,5.093-3.984c4.428,3.104,4.979,9.52,4.979,9.52
	l3.984,1.551l22.355-13.172v-7.193l-6.528-9.184l-10.072-16.602l-2.323-3.764v-2.545L111.252,78.907z"/>
<path fill="#243245" d="M100.407,105.482l8.521,13.83c11.62-5.197,21.359-11.951,21.359-11.951l-8.301-13.06L100.407,105.482z"/>
<polygon fill="#243245" points="93.214,101.716 93.214,109.908 107.766,119.76 99.079,105.259 "/>
<polygon fill="#ED2224" points="118.779,87.109 120.898,90.552 98.747,102.137 53.683,77.234 53.683,73.823 98.083,97.901 "/>
<polygon fill="#ED2224" points="137.703,116.657 137.703,120.396 116.136,132.593 113.439,131.354 112.9,127.989 52.926,92.918 
	53.119,87.94 97.419,114.584 114.229,126.744 136.447,114.893 "/>
<path fill="#EAEAEA" stroke="#010101" stroke-miterlimit="10" d="M137.703,118.072"/>
<path fill="#161616" d="M111.363,135.473l3.984,1.551l22.355-13.172v-4.539l-4.881,2.701l0.289-2.906l-11.664,6.558l1.53,1.741
	l-7.62,4.113l-0.3,0.166l-5.664-2.334C111.156,132.593,111.363,135.473,111.363,135.473z"/>
<path fill="#EAEAEA" d="M110.164,131.042"/>
<polygon fill="#CFCFCE" points="122.98,127.404 121.449,125.664 114.59,128.986 115.058,131.686 "/>
<polygon fill="#CFCFCE" points="137.703,119.313 132.822,122.014 133.111,119.107 137.703,116.657 "/>
<polygon fill="#F99D1C" points="113.39,131.042 115.058,131.686 114.59,128.986 112.9,127.989 "/>
<path fill="#ED2224" d="M132.822,122.014"/>
<polygon fill="#161616" points="132.822,122.014 122.98,127.404 121.449,125.664 133.111,119.107 "/>
<polygon fill="#EAEAEA" points="132.965,120.559 122.132,126.438 121.937,126.221 133.111,120.064 "/>
<polygon fill="#EAEAEA" points="132.822,122.014 122.98,127.404 122.748,127.141 132.822,121.682 "/>
<polygon fill="#EAEAEA" points="124.885,128.958 124.885,131.686 131.92,127.538 131.92,125.18 "/>
<polygon fill="#3E5AA9" points="93.821,91.076 90.532,89.188 90.532,87.028 105.886,78.477 109.394,80.137 109.394,82.047 "/>
<polygon fill="#FFFFFF" points="101,81.2 104.123,83.126 104.123,85.102 99.963,87.517 99.743,85.699 96.341,83.791 "/>
<path fill="#FFFFFF" d="M95.15,87.221l-1.604,0.72l-1.604-0.72C94.21,88.273,95.15,87.221,95.15,87.221z"/>
<path fill="#CDCCCC" d="M107.768,119.759l-1.855-0.649l-0.318-0.819l-1.813,0.25c-1.215,0.051-1.271-1.054-1.271-1.054
	c0.244-0.596,3.398-0.829,3.398-0.829L107.768,119.759z"/>
<polygon fill="#EAEAEA" points="115.734,91.924 103.285,98.62 102.345,96.849 114.85,90.098 "/>
<polygon fill="#ED2224" points="71.97,94.601 66.186,91.204 66.47,89.084 72.268,92.376 "/>
<polygon fill="#ED2224" points="67.806,94.958 68.531,87.394 70.646,88.408 69.775,96.286 "/>
<path fill="#426183" d="M109.924,118.068c7.803-2.903,19.367-10.594,19.367-10.594c-1.702,0.301-1.768,0-1.768,0
	c-12.447-6.533-24.072-1.938-24.072-1.938C101.514,106.643,109.927,118.072,109.924,118.068z"/>
<path fill="#426183" d="M93.892,109.732l9.753,6.929l0.665-0.58c-5.395-11.25-10.418-13.116-10.418-13.116V109.732z"/>
<path fill="#729DC4" d="M110.146,117.543l3.652-1.494c-2.324-0.332-9.489-9.848-9.489-9.848
	C102.787,106.811,110.146,117.543,110.146,117.543z"/>
<path fill="#729DC4" d="M95.594,110.741l-1.107-0.929v-5.845C93.916,104.307,95.594,110.74,95.594,110.741z"/>
<polygon fill="#161616" points="52.599,101.053 53.683,101.859 53.683,97.992 52.75,97.282 "/>
<ellipse id="light2" opacity="0.6" fill="#597DBE" enable-background="new    " cx="105.836" cy="81.202" rx="8.937" ry="5.24">
<animate  fill="remove" from="0.2" to="0" accumulate="none" repeatCount="indefinite" additive="replace" begin="0.1s;light2.end" restart="always" calcMode="linear" dur="1" attributeName="opacity" id="light1">
	</animate>
</ellipse>
<ellipse id="light1" opacity="0.6" fill="#597DBE" enable-background="new    " cx="94.98" cy="87.394" rx="9.232" ry="5.416">
<animate  fill="remove" from="0.2" to="0" accumulate="none" repeatCount="indefinite" additive="replace" begin="0.2s;light1.end" restart="always" calcMode="linear" dur="1" attributeName="opacity" id="light2">
	</animate>
</ellipse>
<g id="Direction">
	<g transform="rotate({{angle}} 50 50)">
		<polygon id="arrow" opacity="0.7" fill="#ff0000" enable-background="new    " points="132.441,141.305 131.377,141.305 
			108.801,160.693 85.428,141.305 85.162,141.305 85.162,152.195 108.801,171.584 132.441,151.93 		">
		
			<animate  fill="remove" accumulate="none" additive="replace" begin="0s;anim_arrow3.end" values="0.5; 0" restart="always" calcMode="linear" dur="0.5s" attributeName="opacity" id="anim_arrow1">
			</animate>
		</polygon>
		<polygon id="arrow2" opacity="0.7" fill="#ff0000" enable-background="new    " points="132.705,154.585 131.645,154.585 
			109.066,173.707 85.694,154.585 85.428,154.585 85.428,165.209 109.066,184.863 132.705,165.209 		">
		
			<animate  fill="remove" accumulate="none" additive="replace" begin="anim_arrow1.end" values="0.5; 0" restart="always" calcMode="linear" dur="0.5s" attributeName="opacity" id="anim_arrow2">
			</animate>
		</polygon>
		<polygon id="arrow3" opacity="0.7" fill="#ff0000" enable-background="new    " points="132.973,167.6 131.908,167.6 
			109.331,186.988 85.959,167.6 85.694,167.6 85.694,178.49 109.331,197.879 132.973,178.49 		">
		
			<animate  fill="remove" accumulate="none" additive="replace" begin="anim_arrow2.end" values="0.5; 0" restart="always" calcMode="linear" dur="0.5s" attributeName="opacity" id="anim_arrow3">
			</animate>
		</polygon>
	</g>
</g>
</svg>
