<?xml version="1.0" encoding="utf-8"?>
<!-- Generator: Adobe Illustrator 16.0.0, SVG Export Plug-In . SVG Version: 6.00 Build 0)  -->
<!DOCTYPE svg PUBLIC "-//W3C//DTD SVG 1.1//EN" "http://www.w3.org/Graphics/SVG/1.1/DTD/svg11.dtd">
<svg version="1.1" id="Layer_1" xmlns="http://www.w3.org/2000/svg" xmlns:xlink="http://www.w3.org/1999/xlink" x="0px" y="0px"
	 width="200px" height="200px" viewBox="0 0 200 200" enable-background="new 0 0 200 200" xml:space="preserve">
<g>
	<g id="Tire_2_5_">
		<path d="M87.926,131.289c0,0-4.196-0.662-6.633-4.318c0,0-1.575-6.287,4.319-8.361c0,0,4.832,0.234,7.195,3.027
			C95.303,125.025,87.926,131.289,87.926,131.289z"/>
		<path fill="#333333" d="M93.09,127.637c-1.184,2.848-3.932,4.209-5.938,3.479c-2.011-0.729-2.695-3.716-1.257-6.509
			c1.181-2.844,3.93-4.209,5.939-3.476C93.837,121.867,94.467,125.119,93.09,127.637z"/>
		<path fill="#999999" d="M91.473,122.75c-1.492-0.617-3.343,0.381-4.347,2.42c-1,2.035-0.389,4.156,1.102,4.77
			c1.492,0.617,3.345-0.377,4.341-2.418C93.313,125.426,92.962,123.365,91.473,122.75z M91.54,127.289
			c-0.499,1.021-1.396,1.391-1.916,1.27c-0.774-0.174-0.792-1.313-0.351-2.063c0.44-0.748,1.396-1.389,1.912-1.27
			C91.703,125.346,92.039,126.273,91.54,127.289z"/>
		<path fill="#FFFFFF" d="M88.901,123.305c0,0,0.713,0.443,1.053,1.369l-0.32,0.209c0,0-0.535-1.248-1.051-1.363L88.901,123.305z"/>
	</g>
	<g id="Tire_2_4_">
		<path d="M114.279,118.824c0,0-4.193-0.66-6.631-4.316c0,0-1.576-6.289,4.316-8.363c0,0,4.836,0.237,7.195,3.029
			C121.66,112.563,114.279,118.824,114.279,118.824z"/>
		<path fill="#333333" d="M119.445,115.176c-1.184,2.848-3.932,4.205-5.939,3.473c-2.014-0.729-2.697-3.715-1.254-6.504
			c1.182-2.844,3.93-4.207,5.938-3.473C120.195,109.406,120.824,112.656,119.445,115.176z"/>
		<path fill="#999999" d="M117.826,110.285c-1.488-0.618-3.344,0.381-4.344,2.42c-1.004,2.037-0.395,4.156,1.1,4.771
			c1.492,0.619,3.344-0.381,4.345-2.418C119.67,112.965,119.318,110.904,117.826,110.285z M117.895,114.826
			c-0.5,1.023-1.396,1.389-1.914,1.271c-0.772-0.176-0.791-1.313-0.354-2.063c0.441-0.754,1.398-1.395,1.916-1.271
			C118.059,112.885,118.396,113.809,117.895,114.826z"/>
		<path fill="#FFFFFF" d="M115.258,110.84c0,0,0.715,0.447,1.051,1.369l-0.314,0.209c0,0-0.537-1.248-1.055-1.363L115.258,110.84z"
			/>
	</g>
	<g id="Tire_2_2_">
		<path d="M126.246,113.449c0,0-4.189-0.66-6.631-4.316c0,0-1.58-6.289,4.318-8.363c0,0,4.832,0.237,7.189,3.029
			C133.623,107.188,126.246,113.449,126.246,113.449z"/>
		<path fill="#333333" d="M131.409,109.801c-1.185,2.848-3.931,4.205-5.938,3.475s-2.695-3.715-1.256-6.504
			c1.182-2.846,3.93-4.209,5.938-3.475C132.158,104.031,132.788,107.277,131.409,109.801z"/>
		<path fill="#999999" d="M129.79,104.91c-1.489-0.618-3.345,0.381-4.345,2.42c-0.998,2.038-0.396,4.156,1.103,4.771
			c1.492,0.619,3.347-0.379,4.343-2.418C131.637,107.586,131.281,105.527,129.79,104.91z M129.855,109.449
			c-0.498,1.021-1.396,1.387-1.912,1.268c-0.771-0.168-0.791-1.311-0.353-2.06c0.441-0.749,1.396-1.388,1.913-1.269
			C130.025,107.508,130.359,108.434,129.855,109.449z"/>
		<path fill="#FFFFFF" d="M127.221,105.465c0,0,0.715,0.447,1.055,1.369l-0.318,0.213c0,0-0.533-1.252-1.055-1.365L127.221,105.465z
			"/>
	</g>
	<path fill="#515151" d="M133.65,71.655l0.012,0.889c0,0-1.545,1.745-1.221,4.811l-0.338,5.33l-5.233,0.567
		c0,0-7.94-10.681-8.585-13.791l0.512-1.347l2.377-1.208l2.208-0.279l2.595,0.279l3.81,1.529l3.868,3.021"/>
	<path fill="#5B5B5B" d="M119.021,71.042l-0.742-1.58v-1.486c0,0,2.74-1.857,4.783-1.626c0,0,2.09-0.139,3.808,0.651
		c0,0,6.46,2.88,6.78,4.458c0,0,0.467,1.069-4.039,2.555l-0.789-0.327c0,0,4.365-1.529,3.623-2.645c0,0-6.359-5.109-10.26-4.088
		l-3.021,1.3l-0.188,1.346l0.869,1.177L119.021,71.042z"/>
	<path fill="#666666" d="M134.486,85.899c0,0,0.229,2.755-3.297,1.099l-5.944-4.861l0.536-0.951c0,0,1.41,1.972,3.313,0.858
		l1.889-0.858l1.111,1.499L134.486,85.899z"/>
	<g>
		<polygon fill="#6B6B6B" points="131.793,97.459 131.793,99.627 100.001,114.549 98.42,110.059 129.936,96.161 		"/>
		<path fill="#515151" d="M119.396,70.729l-6.826,2.972l-0.324,8.807l1.143-0.495l-0.26,9.333l0.26,0.325h0.575V90.68l3.345-1.517
			v0.465l0.51,0.14l0.279-0.186l0.385-9.789l0.916-0.311l0.371-8.521L119.396,70.729z M117.354,88.762l-3.436,1.47V86.61
			l3.752-1.627L117.354,88.762z M117.68,84.66l-3.762,1.717l0.232-4.272l3.761-1.615L117.68,84.66z M118.979,79.088l-5.99,2.739
			l0.404-7.709l5.865-2.646L118.979,79.088z"/>
		<g>
			<g>
				<polygon fill="#CECECE" points="91.906,114.119 133.65,95.169 118.915,86.997 75.939,104.391 				"/>
				<path fill="#B7B7B7" d="M100.167,85.098v-1.159c0,0,3.628-5.746,8.495-7.718l12.539-4.195c0,0,5.436,1.981,6.275,7.232
					l-7.996,9.131c0,0-3.902,3.94-10.818,4.864c0,0-2.137-0.119-3.232-1.003C105.43,92.25,100.364,87.681,100.167,85.098z"/>
				<path fill="#A0A0A0" d="M126.902,77.154c-4.646-6.191-8.295-4.434-8.295-4.434c0-0.719,0.99-1.633,0.99-1.633
					c4.643-0.557,8.391,4.03,8.391,4.03c2.754,3.337,2.754,9.22,2.754,9.22l-4.645,10.402l-5.017,2.786l-1.358-1.051v-1.609
					l-3.717-2.105l1.903-2.089l3.669,2.089l6.719-8.524C128.295,84.233,128.76,79.631,126.902,77.154z"/>
				<path fill="#EAEAEA" d="M127.148,76.844c-4.645-6.191-8.297-4.434-8.297-4.434c0-0.719,0.99-1.633,0.99-1.633
					c4.645-0.557,8.389,4.03,8.389,4.03c2.758,3.337,2.758,9.22,2.758,9.22l-4.646,10.402l-5.012,2.786l-1.364-1.052v-1.609
					l-3.715-2.105l1.903-2.089l3.669,2.089l6.719-8.524C128.542,83.921,129.006,79.321,127.148,76.844z"/>
				<path fill="#A8A8A8" d="M94.835,88.529v-1.371c0,0,4.292-6.799,10.047-9.132l14.084-5.482c0,0,6.91,2.039,7.903,8.252
					l-9.184,11.627c0,0-4.61,4.663-12.806,5.754c0,0-2.53-0.14-3.821-1.187C101.061,96.99,95.065,91.587,94.835,88.529z"/>
				<path fill="#898989" d="M85.828,92.355v-1.708c0,0-0.162-9.159,16.385-14.546l14.656-3.037c0,0,7.676,1.895,8.916,9.647
					L114.33,97.213c0,0-5.758,5.816-15.974,7.178c0,0-3.158-0.177-4.766-1.479C93.59,102.91,86.115,96.169,85.828,92.355z"/>
				<path fill="#EAEAEA" d="M78.036,92.12c0,0,0.943-2.275,3.482-1.656l13.931,7.306c0,0,1.06,2.479,0.837,4.398l-0.837,0.742
					l-1.55-0.371l-0.743,0.371l-1.486,0.309L78.035,93.125L78.036,92.12L78.036,92.12z"/>
				<polygon fill="#303030" points="79.809,91.425 90.804,97.459 93.158,96.277 82.074,90.357 				"/>
			</g>
			<polygon fill="#A0A0A0" points="90.929,111.33 99.743,107.119 91.451,102.91 			"/>
		</g>
		<path fill="#7A7A7A" d="M121.391,109.771l1.207-0.238l1.023,0.119c0,0,0.371-6.016,4.787-7.084c0,0,3.758-1.531,4.271,3.123
			l0.971-0.164c0,0,1.162-6.022-5.153-6.395c0,0-4.552-0.465-7.571,3.901l-4.082,1.76L121.391,109.771z"/>
		<path fill="#6B6B6B" d="M106.902,116.586l1.486,0.713h0.741l0.716-0.5c0,0,1.764-6.652,6.528-8.447c0,0,3.218-1.236,3.935,1.608
			l0.836-0.341v-0.28c0,0-0.4-3.499-4.303-4.552c0,0-5.695-1.331-9.939,5.818C106.902,110.609,105.82,113.213,106.902,116.586z"/>
		<polygon fill="#727272" points="91.672,115.881 133.65,96.786 133.65,95.169 90.929,114.549 		"/>
		<path fill="#636363" d="M92.606,115.457c0,0,2.2,2.627,6.185,0.838l7.305-3.229c0,0,1.24-0.941,1.24-1.246v4.475
			c0,0-4.395,2.777-9.845,4.572c0,0-3.404,0.807-6.562-2.602l-0.186-3.104L92.606,115.457z"/>
		<path fill="#6B6B6B" d="M80.296,128.201l1.778,0.742c0,0,0.706,0.467,1.623,0c0,0,1.196-6.826,7.232-8.822
			c0,0,3.668-1.068,3.158,3.992l0.882-0.213c0,0,0.938-7.311-3.127-7.588C91.839,116.313,82.339,115.385,80.296,128.201z"/>
		<path fill="#A0A0A0" d="M92.606,115.457c0,0,2.473,2.791,6.185,0.838l7.305-3.229c0,0,3.5-1.492-0.988-3.301L92.606,115.457z"/>
		<polygon fill="#BCBCBC" points="95.744,114.029 98.791,116.299 98.791,120.416 100.001,119.955 100.001,115.764 96.71,113.59 		
			"/>
		<polygon fill="#BCBCBC" points="104.275,113.875 101.203,111.547 102.223,111.084 105.395,113.381 105.395,117.459 
			104.119,118.084 		"/>
		<path fill="#515151" d="M131.793,75.218l-6.826,2.972l-0.326,8.807l1.146-0.495l-0.264,9.333l0.264,0.325h0.572v-0.991
			l3.346-1.517v0.465l0.51,0.14l0.281-0.186l0.385-9.788l0.915-0.313l0.372-8.52L131.793,75.218z M129.749,93.251l-3.437,1.47
			v-3.623l3.752-1.627L129.749,93.251z M130.074,89.149l-3.762,1.717l0.23-4.272l3.764-1.615L130.074,89.149z M131.375,83.577
			l-5.99,2.74l0.402-7.709l5.865-2.646L131.375,83.577z"/>
	</g>
	<g id="Body">
		<path fill="#C4C4C4" d="M71.627,89.348l-11.764,5.324l-1.857,2.477c0,0-2.183,1.517-1.734,3.343l1.238,0.99l-1.455,4.457
			c0,0-0.898,3.344-0.774,5.076l-0.012,9.166v1.855l15.109,8.063l4.217,0.67c0,0,5.203-1.547,7.432-3.283
			c0,0,0.864-9.162,9.78-10.277l0.496-16.223l-0.496-1.485l-18.021-9.658L71.627,89.348z"/>
		<path fill="#FFFFFF" d="M55.131,111.33l-0.236,3.219l1.92,2.91c0,0,1.486,1.176,2.167,2.105l7.678,4.336h5.758l4.396-3.225
			l-1.609-0.928l-5.695,1.053l-3.158-3.188l-6.067-3.064l-3.531-0.557L55.131,111.33z"/>
		<polygon fill="#4C4C4C" points="57.372,114.549 57.372,117.924 58.981,119.564 66.659,123.9 68.763,123.9 68.763,120.928 
			65.854,118.018 60.158,115.17 		"/>
		<path fill="#161616" d="M57.372,100.957l-1.221,5.572c0,0-0.125,1.975,0.485,4.328l13.118,6.756l6.176-2.346
			c0,0-0.171-2.748,0.882-2.994l1.833-4.6C78.646,107.676,61.953,105.168,57.372,100.957z"/>
		<path fill="#424656" d="M57.372,100.803l-1.221,5.573c0,0,0,1.981,0.61,4.335l12.993,6.748l6.067-2.354
			c0,0-0.248-2.727,0.806-2.973l1.857-4.459C78.484,107.676,61.953,105.016,57.372,100.803z"/>
		<polygon fill="#161616" points="78.88,113.188 80.303,106.563 90.865,101.732 91.51,101.982 91.139,107.861 78.88,114.711 		"/>
		<path fill="#4C4C4C" d="M58.608,96.161c0,0-3.923,3.158-2.165,4.582l1.3,1.176l13.559,7.185l2.347,0.558h2.729l2.105-2.726
			l-3.034-0.123l-0.929-0.125l-16.097-8.915C58.424,97.77,58.05,97.459,58.608,96.161z"/>
		<polygon fill="#424656" points="79.042,113.188 80.464,106.563 90.865,101.732 91.672,101.982 91.301,107.861 79.042,114.549 		
			"/>
		<polyline fill="#686868" points="82.074,114.055 82.074,115.17 85.665,113.127 85.665,111.826 82.074,113.869 		"/>
		<polygon fill="#AAAAAA" points="55.143,111.016 56.876,113.805 56.657,117.221 55.131,114.906 		"/>
		<polygon fill="#AAAAAA" points="69.506,120.803 69.506,123.9 72.292,123.9 72.292,120.287 		"/>
		<ellipse fill="#EDEDED" cx="71.043" cy="122.373" rx="1.102" ry="0.998"/>
		<polygon fill="#353535" points="57.403,114.766 68.709,121.096 68.763,121.699 57.372,115.17 		"/>
		<polygon fill="#353535" points="57.403,115.881 68.763,122.117 68.763,122.766 57.372,116.287 		"/>
		<polygon fill="#353535" points="57.356,117.23 68.763,123.371 68.763,123.9 57.372,117.775 		"/>
		<path fill="#EDEDED" d="M62.465,120.631c-0.764-0.203-1.106-1.012-0.903-1.77c0.202-0.764,0.9-0.99,1.664-0.783
			c0.764,0.205,1.219,0.982,1.017,1.746C64.039,120.58,63.227,120.832,62.465,120.631z"/>
		<path fill="#EDEDED" d="M55.367,113.254c0,0-0.353,1.73,0.731,1.916c0,0,0.642-0.129,0.287-1.139
			C56.385,114.035,56.032,112.604,55.367,113.254z"/>
		<polygon fill="#353535" points="55.134,117.057 57.929,119.842 56.493,119.842 55.131,118.797 		"/>
		<path fill="#353535" d="M68.052,125.322l1.083,1.082l3.158,1.115l1.357-0.498c0,0-2.874-1.766-5.752-1.699"/>
		<path fill="#707070" d="M55.131,119.842l1.281,1.332c0,0,2.538,0.279,3.437,0.525c0,0,5.727,2.943,6.78,3.625l2.415,2.508
			c0,0,2.538,1.238,4.366,0.807c0,0,2.198-0.682,2.477-0.928c0,0,4.464-2.688,6.974-3.398c0,0-0.771,2.279-0.829,3.182
			c0,0-4.363,3.271-8.379,3.281c0,0-2.595,0.164-7.27-2.561c0,0-10.228-5.059-11.25-6.172L55.131,119.842L55.131,119.842z"/>
		<polygon opacity="0.6" fill="#FFFFFF" enable-background="new    " points="74.91,123.9 74.677,127.52 75.792,127.133 
			76.116,123.371 		"/>
		<polygon opacity="0.6" fill="#FFFFFF" enable-background="new    " points="74.677,116.268 74.677,119.35 75.396,119.225 
			75.396,115.881 		"/>
		<polygon fill="#FFFFFF" points="59.167,123.109 65.111,126.021 65.111,127.508 59.167,124.445 		"/>
		<path fill="#C9C9C9" d="M75.667,128.076c0,0-0.156,2.063-0.272,2.293c0,0,0.519-0.033,0.72-0.094c0,0,0.511-2.412,0.325-2.756
			C76.441,127.52,75.853,128.047,75.667,128.076z"/>
	</g>
	<polygon fill="#777777" points="79.97,91.332 90.804,97.213 92.972,96.161 82.074,90.357 	"/>
	<path opacity="0.6" fill="#E5E5E5" enable-background="new    " d="M60.198,103.219c0,0-1.784,6.764-1.291,8.607l1.291,0.67
		c0,0-1.106-2.486,0.232-9.152L60.198,103.219z"/>
	<polygon opacity="0.5" fill="#E5E5E5" enable-background="new    " points="83.871,104.98 82.657,112.578 83.871,111.826 
		84.736,104.58 	"/>
</g>
<g>
	<ellipse fill="#FFFFFF" cx="95.969" cy="36.741" rx="18.667" ry="18.25"/>
	<path fill="#ADADAD" d="M96.317,11.5c-13.94,0-25.241,11.301-25.241,25.241c0,13.94,11.301,25.241,25.241,25.241
		c13.941,0,25.242-11.3,25.242-25.241C121.559,22.8,110.258,11.5,96.317,11.5z M104.15,22.779l-7.834,7.834l-7.834-7.834
		c2.317-1.303,4.986-2.055,7.834-2.055S101.832,21.476,104.15,22.779z M82.353,28.906l7.834,7.834l-7.835,7.835
		c-1.303-2.317-2.054-4.986-2.054-7.834C80.298,33.894,81.049,31.224,82.353,28.906z M96.315,52.759
		c-2.848,0-5.517-0.751-7.834-2.055l7.835-7.835l7.834,7.835C101.834,52.007,99.164,52.759,96.315,52.759z M110.279,44.576
		l-7.836-7.835l7.836-7.835c1.303,2.317,2.055,4.987,2.055,7.835C112.332,39.59,111.582,42.259,110.279,44.576z"/>
</g>
</svg>
