<?xml version="1.0" encoding="utf-8"?>
<!-- Generator: Adobe Illustrator 16.0.0, SVG Export Plug-In . SVG Version: 6.00 Build 0)  -->
<!DOCTYPE svg PUBLIC "-//W3C//DTD SVG 1.1//EN" "http://www.w3.org/Graphics/SVG/1.1/DTD/svg11.dtd">
<svg version="1.1" id="Layer_1" xmlns="http://www.w3.org/2000/svg" xmlns:xlink="http://www.w3.org/1999/xlink" x="0px" y="0px"
	 width="200px" height="200px" viewBox="0 0 200 200" enable-background="new 0 0 200 200" xml:space="preserve">
<g id="Direction">
	<g transform="rotate({{angle}} 50 50)">
		<polygon id="arrow" opacity="0.7" fill="#80C342" enable-background="new    " points="161.988,113.829 159.168,144.445 
			128.746,147.451 121.045,139.75 121.232,139.563 151.469,136.746 153.723,107.07 154.477,106.316 		">
		
	
		</polygon>
		<polygon id="arrow2" opacity="0.7" fill="#80C342" enable-background="new    " points="171.566,123.034 168.75,153.646 
			138.135,156.464 130.625,148.952 130.813,148.766 160.861,145.758 163.305,116.271 164.055,115.523 		">
		
	
		</polygon>
		<polygon id="arrow3" opacity="0.7" fill="#80C342" enable-background="new    " points="181.146,132.236 178.139,162.664 
			147.713,165.668 140.012,157.967 140.199,157.779 170.439,154.963 172.693,125.289 173.445,124.535 		">
		
		
		</polygon>
	</g>
</g>
<g id="Tire_2_1_">
	<path d="M103.859,111.079c1.922-3.06,6.34-3.313,6.34-3.313c5.604,2.274,4.724,9.137,4.724,9.137c-1.911,4-5.708,4.713-5.708,4.713
		S101.865,114.775,103.859,111.079z"/>
	<path fill="#333333" d="M104.707,110.518c1.777-0.771,4.428,0.709,5.771,3.816c1.578,3.04,1.213,6.298-0.566,7.1
		c-1.782,0.779-4.434-0.689-5.776-3.805C102.642,114.883,102.925,111.331,104.707,110.518z"/>
	<path fill="#999999" d="M104.602,117.498c1.107,2.238,2.898,3.332,4.215,2.66c1.312-0.676,1.686-2.996,0.582-5.217
		c-1.107-2.233-2.9-3.342-4.215-2.657C103.869,112.961,103.729,115.218,104.602,117.498z M105.67,114.999
		c0.471-0.123,1.402,0.579,1.876,1.392c0.471,0.809,0.56,2.057-0.14,2.25c-0.465,0.125-1.315-0.277-1.873-1.39
		C104.984,116.139,105.207,115.123,105.67,114.999z"/>
	<path fill="#FFFFFF" d="M107.91,113.133c-0.465,0.131-0.846,1.484-0.846,1.484l-0.309-0.225c0.225-1.002,0.843-1.488,0.843-1.488
		L107.91,113.133z"/>
	
		<animateTransform  type="translate" fill="remove" attributeType="XML" accumulate="none" repeatCount="indefinite" additive="replace" begin="0s" values="0,0;0.1,0.1;0,0" restart="always" calcMode="linear" dur="1" attributeName="transform">
		</animateTransform>
</g>
<g id="Tire_2_3_">
	<path d="M65.518,88.731c1.922-3.052,6.346-3.305,6.346-3.305c5.602,2.268,4.717,9.133,4.717,9.133
		c-1.92,3.996-5.715,4.71-5.715,4.71S63.509,92.425,65.518,88.731z"/>
	<path fill="#333333" d="M66.348,88.186c1.779-0.788,4.43,0.702,5.773,3.799c1.58,3.045,1.22,6.309-0.565,7.101
		c-1.784,0.797-4.429-0.688-5.772-3.8C64.294,92.528,64.574,88.978,66.348,88.186z"/>
	<path fill="#999999" d="M66.255,95.161c1.112,2.222,2.894,3.327,4.213,2.645c1.306-0.67,1.673-2.989,0.576-5.212
		c-1.103-2.232-2.888-3.327-4.208-2.651C65.513,90.609,65.378,92.866,66.255,95.161z M67.316,92.658
		c0.465-0.13,1.404,0.567,1.879,1.384c0.471,0.814,0.547,2.061-0.143,2.25c-0.465,0.124-1.313-0.275-1.872-1.39
		C66.626,93.798,66.863,92.782,67.316,92.658z"/>
	<path fill="#FFFFFF" d="M69.568,90.788c-0.467,0.124-0.842,1.485-0.842,1.485l-0.316-0.236c0.22-1.002,0.838-1.485,0.838-1.485
		L69.568,90.788z"/>
	
		<animateTransform  type="translate" fill="remove" attributeType="XML" accumulate="none" repeatCount="indefinite" additive="replace" begin="0s" values="0,0;0.1,0.1;0,0" restart="always" calcMode="linear" dur="1" attributeName="transform">
		</animateTransform>
</g>
<path fill="#151515" d="M130.271,118.682c-8.422,3.33-17.341,0.861-17.341,0.861c0.762-6.119-3.396-9.47-3.396-9.47
	c-5.026-4.271-7.289,3.475-7.289,3.475l-27.9-17.327c-0.251-4.553-3.445-8.645-3.445-8.645c-4.314-4.024-6.734,0.754-6.734,0.754
	c-5.096-3.17-5.207-4.902-5.207-4.902c-0.805-5.782,1.813-10.053,1.813-10.053c2.64-5.529,16.591-10.053,16.591-10.053
	c1.633-0.251,8.043,2.262,8.043,2.262c9.301-1.258,27.525,12.315,27.525,12.315l7.43,6.968l1.363-2.193h0.881
	c1.131,0.504-0.881,3.695-0.881,3.695l15.332,14.529l1.508,3.393c1.006,0,0.756,5.529,0.756,5.529
	C136.425,115.225,130.269,118.682,130.271,118.682z"/>
<path fill="#515151" d="M137.539,106.334c-3.299,7.794-14.704,8.372-14.704,8.372l-0.283-2.245
	c9.099-0.707,14.351-8.436,14.351-8.436L137.539,106.334z"/>
<path fill="#151515" d="M136.904,104.855v0.02h0.308c-4.621,7.697-13.765,8.26-13.765,8.26l0.203-0.191
	c9.77-1.373,13.252-8.088,13.252-8.088H136.904z"/>
<path fill="#151515" d="M137.311,105.863v0.014h0.309c-4.621,7.698-13.764,8.266-13.764,8.266l0.202-0.19
	C133.826,112.579,137.311,105.863,137.311,105.863L137.311,105.863z"/>
<path fill="#C9C9C9" d="M137.054,100.898c0.36-0.628,1.052,1.43,1.052,1.43c0.941,1.699-0.047,4.475-0.047,4.475h-1.039
	C136.738,105.395,137.055,100.9,137.054,100.898z"/>
<path fill="#C9C9C9" d="M116.203,114.813c-2.063-0.184-0.908-2.352-0.908-2.352c1.035-0.52,7.257,0,7.257,0
	c1.414,0.143,2.263,1.887,2.263,1.887C122.742,115.193,116.203,114.816,116.203,114.813z"/>
<polygon fill="#D3D3D3" points="130.283,116.373 130.519,118.682 136.996,113.568 136.902,111.564 "/>
<path fill="#4C5A72" d="M97.408,88.915l6.656,11.712c12.317-1.844,19.387-11.037,19.387-11.037
	c-1.414-2.515-10.149-9.993-10.149-9.993C108.777,81.359,97.408,88.915,97.408,88.915z"/>
<path fill="#4C5A72" d="M87.591,91.345l9.18,5.97l2.076-1.092l1.131,0.657l-3.584-6.188c-1.44-3.361-7.979-8.015-7.979-8.015
	C87.66,84.625,87.604,91.349,87.591,91.345z"/>
<path fill="#4C5A72" d="M76.627,78.278l-3.038,3.442l12.255,8.391c0.189-4.629,1.008-8.376,1.008-8.376
	C80.023,76.365,76.632,78.279,76.627,78.278z"/>
<polyline fill="#26344F" points="75.85,77.948 70.904,77.948 70.904,80.165 72.832,81.042 75.662,77.948 "/>
<path fill="#EAEAEA" d="M102.215,113.539l-27.9-17.322c-1.807-9.452-5.63-10.059-5.63-10.059c0.284-2.73,1.308-5.622,1.308-5.622
	l0.898-0.377l25.564,17.157l-0.25,0.506v0.817c1.072,0.127,3.205,0,3.205,0l3.083,1.988
	C101.109,104.756,102.24,113.552,102.215,113.539z"/>
<path fill="#4C5A72" d="M83.396,65.961C74.908,67.533,67.121,75.2,67.121,75.2h10.303c3.164-4.289,13.574-8.545,13.574-8.545
	C90.115,66.151,83.389,65.961,83.396,65.961z"/>
<polygon fill="#FF0000" points="102.068,70.583 96.385,73.665 96.385,74.98 98.592,76.425 104.33,73.329 104.094,71.65 "/>
<polygon fill="#CCCCCC" points="97.717,72.781 93.283,75.2 92.264,77.384 94.715,78.426 99.979,75.706 99.979,74.054 "/>
<polyline fill="#0062FF" points="95.168,78.164 90.02,81.005 87.227,79.495 88.105,78.038 93.191,75.323 95.168,76.295 
	95.168,78.164 "/>
<g>
	<path fill="#ED2626" d="M99.586,110.324l-0.524-0.322l0.215-2.83c-0.121-0.018-0.274-0.111-0.433-0.211
		c-0.512-0.329-0.964-0.891-1.199-1.585c-0.165-0.506-0.253-1.069-0.195-1.706c0.041-0.593,0.216-1.029,0.464-1.218
		c0.264-0.224,0.671-0.188,1.201,0.153c0.43,0.278,0.757,0.563,1.011,0.807L99.586,110.324z M99.545,103.721
		c-0.088-0.099-0.264-0.248-0.5-0.41c-0.583-0.367-1.007-0.162-1.078,0.754c-0.071,0.986,0.28,1.761,0.925,2.187
		c0.171,0.112,0.318,0.188,0.442,0.192L99.545,103.721z"/>
	<path fill="#ED2626" d="M95.21,100.015c1.098,0.706,1.801,2.691,1.622,4.936c-0.16,2.143-1.038,3.064-2.119,2.372
		c-1.059-0.7-1.83-2.528-1.645-4.966C93.234,100.283,94.074,99.281,95.21,100.015z M95.186,100.766
		c-0.889-0.565-1.445,0.618-1.537,2.012c-0.129,1.59,0.248,3.224,1.088,3.785c0.846,0.537,1.416-0.494,1.534-1.996
		C96.395,103.008,96.052,101.339,95.186,100.766z"/>
	<path fill="#ED2626" d="M92.09,105.516l-2.297-1.492l0.059-0.77l1.762,1.148l0.496-6.282l0.539,0.338L92.09,105.516z"/>
	<path fill="#ED2626" d="M89.744,96.578l-0.549,7.057l-0.524-0.339l0.539-7.048L89.744,96.578z"/>
	<path fill="#ED2626" d="M85.033,99.945c0.193,0.319,0.524,0.648,0.846,0.872c0.99,0.631,1.671-0.096,1.806-1.82
		c0.136-1.868-0.416-3.313-1.394-3.961c-0.34-0.211-0.635-0.296-0.846-0.247l-0.063-0.818c0.154-0.034,0.484-0.022,0.984,0.314
		c1.299,0.814,2.063,2.899,1.886,5.097c-0.188,2.309-1.155,3.002-2.327,2.254c-0.495-0.351-0.879-0.766-1.061-1.045L85.033,99.945z"
		/>
	<path fill="#ED2626" d="M82.343,94.924l1.612,1.067l0.171-2.241l-1.699-1.091l0.063-0.76l2.226,1.445l-0.56,7.04l-2.314-1.497
		l0.051-0.769l1.813,1.154l0.191-2.527l-1.611-1.065L82.343,94.924z"/>
</g>
<path d="M87.604,104.781c0.108-10.347-0.06-13.444-0.06-13.444"/>
<polygon fill="#3F3F3F" points="90.508,99.269 88.105,97.709 88.105,96.248 90.508,97.943 "/>
<polygon fill="#3F3F3F" points="75.533,90.115 73.127,88.556 73.127,87.093 75.533,88.779 "/>
<path fill="#697FA3" d="M104.359,99.945l-5.938-10.858c8.53-5.089,24.131,0.914,24.131,0.914
	C113.363,99.583,104.359,99.945,104.359,99.945z"/>
<path fill="#697FA3" d="M88.105,91.159l8.754,5.699l1.09-0.61c-1.083-5.233-9.279-12.768-9.279-12.768
	C87.92,84.326,88.105,91.159,88.105,91.159z"/>
<path fill="#697FA3" d="M74.766,81.827l10.835,7.731c-0.433-1.131,0.71-7.399,0.71-7.399C83.767,85.365,74.766,81.83,74.766,81.827z
	"/>
<path fill="#5C749B" d="M73.127,78.426c0.531,0.134,0,1.94,0,1.94l1.197-1.94C74.324,78.426,72.598,78.294,73.127,78.426z"/>
<path fill="#A3B7D3" d="M105.139,99.016l5.538-1.083c-2.149,0.076-11.075-8.611-11.075-8.611
	C99.175,90.923,105.139,99.03,105.139,99.016z"/>
<path fill="#A3B7D3" d="M91.876,92.951c-0.286-0.143-3.205-2.169-3.205-2.169l0.532-5.892C90.025,85.5,92.158,93.093,91.876,92.951z
	"/>
<path fill="#A3B7D3" d="M82.49,86.541l2.375,2.062c-0.074-1.378,0.5-4.888,0.5-4.888C82.727,85.458,82.49,86.542,82.49,86.541z"/>
<ellipse id="lightblue" opacity="0.3" fill="#0062FF" enable-background="new    " cx="90.285" cy="78.428" rx="10.103" ry="6.31">
<animate  fill="remove" from="0.3" to="0" accumulate="none" repeatCount="indefinite" additive="replace" begin="0.1s;light2.end" restart="always" calcMode="linear" dur="0.5" attributeName="opacity" id="light1">
	</animate>
</ellipse>
<ellipse id="lightred" opacity="0.3" fill="#FF0000" enable-background="new    " cx="104.809" cy="70.616" rx="10.097" ry="6.31">
<animate  fill="remove" from="0.5" to="0" accumulate="none" repeatCount="indefinite" additive="replace" begin="0.2s;light2.end" restart="always" calcMode="linear" dur="0.5" attributeName="opacity" id="light1">
	</animate>
</ellipse>
<path fill="#697FA3" d="M78.578,68.258c-2.639,0.847-9.885,6.315-9.885,6.315h7.934c0.492-1.321,4.877-3.958,4.877-3.958
	C75.85,71.372,78.578,68.257,78.578,68.258z"/>
<path fill="#D32424" d="M58.883,82.849c0.669,1.149,1.4,1.526,1.4,1.526l0.316-2.829c-0.777-0.426-1.744-1.655-1.744-1.655
	C58.505,80.366,58.888,82.838,58.883,82.849z"/>
</svg>
