<?xml version="1.0" encoding="utf-8"?>
<!-- Generator: Adobe Illustrator 16.0.0, SVG Export Plug-In . SVG Version: 6.00 Build 0)  -->
<!DOCTYPE svg PUBLIC "-//W3C//DTD SVG 1.1//EN" "http://www.w3.org/Graphics/SVG/1.1/DTD/svg11.dtd">
<svg version="1.1" id="Layer_1" xmlns="http://www.w3.org/2000/svg" xmlns:xlink="http://www.w3.org/1999/xlink" x="0px" y="0px"
	 width="200px" height="200px" viewBox="0 0 200 200" enable-background="new 0 0 200 200" xml:space="preserve">
<g id="Direction">
	<g transform="rotate({{angle}} 50 50)">
		<polygon id="arrow" opacity="0.7" fill="#80C342" enable-background="new    " points="80.893,48.188 104.536,28.534 
			128.173,47.921 128.173,58.812 127.907,58.812 104.536,39.423 81.958,58.813 80.893,58.812 		">
		
	
		</polygon>
		<polygon id="arrow2" opacity="0.7" fill="#80C342" enable-background="new    " points="80.629,34.907 104.266,15.252 
			127.907,34.909 127.905,45.53 127.642,45.53 104.266,26.409 81.689,45.53 80.629,45.53 		">
	
		</polygon>
		<polygon id="arrow3" opacity="0.7" fill="#80C342" enable-background="new    " points="80.361,21.625 104.003,2.237 
			127.642,21.627 127.642,32.518 127.376,32.518 104.003,13.127 81.426,32.516 80.361,32.516 		">
		
		</polygon>
	</g>
</g>
<g id="Tire_2_1_">
	<path d="M88.838,121.615c0,0-3.797-0.712-5.708-4.713c0,0-0.88-6.862,4.723-9.136c0,0,4.418,0.253,6.341,3.313
		C96.188,114.776,88.838,121.615,88.838,121.615z"/>
	<path fill="#333333" d="M93.917,117.629c-1.343,3.115-3.994,4.584-5.776,3.805c-1.779-0.802-2.145-4.06-0.567-7.1
		c1.344-3.108,3.994-4.588,5.772-3.816C95.128,111.331,95.411,114.883,93.917,117.629z"/>
	<path fill="#999999" d="M92.869,112.284c-1.314-0.684-3.108,0.424-4.215,2.657c-1.103,2.221-0.729,4.542,0.583,5.217
		c1.316,0.672,3.107-0.421,4.214-2.66C94.324,115.218,94.183,112.961,92.869,112.284z M92.519,117.251
		c-0.557,1.112-1.408,1.514-1.873,1.39c-0.699-0.194-0.61-1.442-0.139-2.25c0.474-0.813,1.405-1.515,1.876-1.392
		C92.846,115.123,93.069,116.138,92.519,117.251z"/>
	<path fill="#FFFFFF" d="M90.454,112.904c0,0,0.618,0.487,0.843,1.489l-0.309,0.224c0,0-0.38-1.354-0.846-1.484L90.454,112.904z"/>
	
		<animateTransform  type="translate" fill="remove" attributeType="XML" accumulate="none" repeatCount="indefinite" additive="replace" begin="0s" values="0,0;0.1,0.1;0,0" restart="always" calcMode="linear" dur="1" attributeName="transform">
		</animateTransform>
</g>
<g id="Tire_2_3_">
	<path d="M127.188,99.269c0,0-3.796-0.714-5.716-4.71c0,0-0.884-6.865,4.718-9.133c0,0,4.424,0.253,6.345,3.305
		C134.544,92.425,127.188,99.269,127.188,99.269z"/>
	<path fill="#333333" d="M132.269,95.286c-1.343,3.112-3.988,4.597-5.772,3.8c-1.785-0.792-2.145-4.056-0.565-7.101
		c1.343-3.097,3.994-4.587,5.773-3.799C133.479,88.978,133.759,92.528,132.269,95.286z"/>
	<path fill="#999999" d="M131.217,89.943c-1.321-0.676-3.106,0.419-4.208,2.651c-1.097,2.223-0.73,4.542,0.576,5.212
		c1.32,0.682,3.1-0.423,4.213-2.645C132.675,92.866,132.54,90.609,131.217,89.943z M130.872,94.902
		c-0.56,1.115-1.407,1.514-1.872,1.39c-0.689-0.189-0.613-1.436-0.142-2.25c0.474-0.817,1.413-1.514,1.879-1.384
		C131.19,92.782,131.427,93.798,130.872,94.902z"/>
	<path fill="#FFFFFF" d="M128.805,90.552c0,0,0.618,0.483,0.837,1.485l-0.316,0.236c0,0-0.375-1.361-0.842-1.485L128.805,90.552z"/>
	
		<animateTransform  type="translate" fill="remove" attributeType="XML" accumulate="none" repeatCount="indefinite" additive="replace" begin="0s" values="0,0;0.1,0.1;0,0" restart="always" calcMode="linear" dur="1" attributeName="transform">
		</animateTransform>
</g>
<path fill="#151515" d="M58.735,109.82c0,0-0.25-5.529,0.755-5.529l1.508-3.393L76.33,86.369c0,0-2.012-3.191-0.881-3.695h0.881
	l1.364,2.193l7.429-6.968c0,0,18.225-13.573,27.525-12.315c0,0,6.41-2.513,8.044-2.262c0,0,13.951,4.524,16.59,10.053
	c0,0,2.619,4.271,1.814,10.053c0,0-0.112,1.732-5.208,4.902c0,0-2.419-4.778-6.733-0.754c0,0-3.195,4.092-3.446,8.645l-27.9,17.327
	c0,0-2.263-7.745-7.29-3.475c0,0-4.157,3.351-3.396,9.47c0,0-8.919,2.468-17.341-0.861C67.784,118.682,61.628,115.224,58.735,109.82
	z"/>
<path fill="#515151" d="M61.15,104.026c0,0,5.253,7.728,14.351,8.435l-0.283,2.245c0,0-11.405-0.578-14.704-8.372L61.15,104.026z"/>
<path fill="#151515" d="M61.15,104.855c0,0,3.483,6.716,13.253,8.089l0.202,0.191c0,0-9.143-0.563-13.764-8.26h0.308V104.855z"/>
<path fill="#151515" d="M60.742,105.863c0,0,3.484,6.716,13.253,8.089l0.202,0.19c0,0-9.142-0.567-13.763-8.265h0.308V105.863
	L60.742,105.863z"/>
<path fill="#C9C9C9" d="M61.033,106.803h-1.039c0,0-0.988-2.776-0.047-4.475c0,0,0.691-2.058,1.052-1.43
	C60.998,100.901,61.315,105.394,61.033,106.803z"/>
<path fill="#C9C9C9" d="M73.239,114.347c0,0,0.848-1.744,2.262-1.886c0,0,6.222-0.519,7.257,0c0,0,1.155,2.168-0.908,2.351
	C81.85,114.817,75.311,115.194,73.239,114.347z"/>
<polygon fill="#D3D3D3" points="61.15,111.565 61.056,113.568 67.534,118.682 67.77,116.373 "/>
<path fill="#4C5A72" d="M84.751,79.597c0,0-8.735,7.478-10.149,9.993c0,0,7.069,9.193,19.387,11.037l6.655-11.712
	C100.645,88.915,89.276,81.359,84.751,79.597z"/>
<path fill="#4C5A72" d="M109.639,82.677c0,0-6.539,4.654-7.98,8.015l-3.584,6.188l1.131-0.657l2.076,1.092l9.18-5.97
	C110.448,91.349,110.393,84.625,109.639,82.677z"/>
<path fill="#4C5A72" d="M111.201,81.735c0,0,0.818,3.747,1.008,8.376l12.255-8.391l-3.038-3.442
	C121.421,78.279,118.03,76.365,111.201,81.735z"/>
<polyline fill="#26344F" points="122.39,77.948 125.221,81.042 127.149,80.165 127.149,77.948 122.203,77.948 "/>
<path fill="#EAEAEA" d="M95.561,100.627l3.082-1.988c0,0,2.133,0.127,3.205,0v-0.817l-0.251-0.506l25.565-17.157l0.898,0.377
	c0,0,1.024,2.892,1.308,5.622c0,0-3.823,0.607-5.63,10.059l-27.9,17.322C95.812,113.552,96.943,104.756,95.561,100.627z"/>
<path fill="#4C5A72" d="M107.055,66.655c0,0,10.41,4.256,13.574,8.545h10.303c0,0-7.788-7.667-16.276-9.239
	C114.664,65.961,107.938,66.151,107.055,66.655z"/>
<polygon fill="#FF0000" points="93.959,71.65 93.723,73.329 99.461,76.425 101.668,74.98 101.668,73.665 95.985,70.583 "/>
<polygon fill="#CCCCCC" points="98.074,74.054 98.074,75.706 103.338,78.426 105.789,77.384 104.77,75.2 100.336,72.781 "/>
<polyline fill="#0062FF" points="102.885,78.164 102.885,76.295 104.861,75.323 109.947,78.038 110.826,79.495 108.033,81.005 
	102.885,78.164 "/>
<g>
	<path fill="#ED2626" d="M97.927,103.412c0.254-0.243,0.581-0.528,1.011-0.807c0.53-0.342,0.937-0.377,1.201-0.153
		c0.248,0.188,0.424,0.625,0.465,1.218c0.057,0.637-0.031,1.2-0.196,1.706c-0.235,0.694-0.687,1.256-1.199,1.585
		c-0.159,0.099-0.312,0.193-0.433,0.211l0.215,2.83l-0.524,0.322L97.927,103.412z M98.719,106.444
		c0.124-0.005,0.271-0.081,0.442-0.193c0.645-0.426,0.996-1.2,0.925-2.187c-0.071-0.916-0.495-1.12-1.078-0.754
		c-0.236,0.162-0.412,0.312-0.5,0.411L98.719,106.444z"/>
	<path fill="#ED2626" d="M104.984,102.357c0.186,2.438-0.586,4.266-1.644,4.966c-1.081,0.693-1.959-0.229-2.12-2.372
		c-0.178-2.245,0.525-4.23,1.623-4.936C103.978,99.281,104.819,100.283,104.984,102.357z M101.782,104.566
		c0.118,1.502,0.689,2.534,1.534,1.996c0.84-0.561,1.217-2.195,1.088-3.785c-0.092-1.393-0.648-2.577-1.537-2.011
		C102.001,101.339,101.658,103.008,101.782,104.566z"/>
	<path fill="#ED2626" d="M105.405,98.458l0.539-0.338l0.495,6.283l1.762-1.149l0.059,0.77l-2.297,1.492L105.405,98.458z"/>
	<path fill="#ED2626" d="M108.843,96.248l0.539,7.048l-0.524,0.339l-0.549-7.057L108.843,96.248z"/>
	<path fill="#ED2626" d="M113.188,100.59c-0.182,0.279-0.566,0.694-1.061,1.045c-1.172,0.748-2.139,0.055-2.327-2.254
		c-0.177-2.198,0.587-4.283,1.885-5.097c0.501-0.336,0.831-0.348,0.985-0.314l-0.063,0.818c-0.211-0.049-0.506,0.036-0.845,0.247
		c-0.978,0.648-1.53,2.093-1.394,3.961c0.135,1.725,0.815,2.451,1.806,1.82c0.321-0.223,0.652-0.552,0.845-0.871L113.188,100.59z"/>
	<path fill="#ED2626" d="M115.768,95.68l-1.612,1.065l0.192,2.527l1.812-1.154l0.051,0.769l-2.315,1.497l-0.559-7.04l2.226-1.445
		l0.063,0.76l-1.699,1.091l0.17,2.241l1.613-1.067L115.768,95.68z"/>
</g>
<path d="M110.508,91.337c0,0-0.168,3.097-0.06,13.444"/>
<polygon fill="#3F3F3F" points="107.545,97.943 109.947,96.248 109.947,97.709 107.545,99.269 "/>
<polygon fill="#3F3F3F" points="122.52,88.779 124.926,87.093 124.926,88.556 122.52,90.115 "/>
<path fill="#697FA3" d="M75.501,90.001c0,0,15.601-6.003,24.131-0.914l-5.939,10.858C93.693,99.945,84.69,99.583,75.501,90.001z"/>
<path fill="#697FA3" d="M109.382,83.48c0,0-8.197,7.535-9.279,12.768l1.09,0.61l8.754-5.699
	C109.947,91.159,110.133,84.326,109.382,83.48z"/>
<path fill="#697FA3" d="M111.742,82.159c0,0,1.143,6.268,0.71,7.399l10.835-7.731C123.287,81.83,114.286,85.365,111.742,82.159z"/>
<path fill="#5C749B" d="M123.728,78.426l1.198,1.94c0,0-0.532-1.806,0-1.94C125.455,78.294,123.728,78.426,123.728,78.426z"/>
<path fill="#A3B7D3" d="M98.451,89.322c0,0-8.925,8.687-11.075,8.611l5.538,1.083C92.914,99.03,98.878,90.923,98.451,89.322z"/>
<path fill="#A3B7D3" d="M108.85,84.89l0.532,5.892c0,0-2.919,2.026-3.205,2.169C105.895,93.093,108.027,85.5,108.85,84.89z"/>
<path fill="#A3B7D3" d="M112.688,83.715c0,0,0.574,3.51,0.5,4.888l2.374-2.062C115.562,86.542,115.326,85.458,112.688,83.715z"/>
<ellipse id="lightblue" opacity="0.3" fill="#0062FF" enable-background="new    " cx="107.768" cy="78.428" rx="10.103" ry="6.31">
<animate  fill="remove" from="0.3" to="0" accumulate="none" repeatCount="indefinite" additive="replace" begin="0.1s;light2.end" restart="always" calcMode="linear" dur="0.5" attributeName="opacity" id="light1">
	</animate>
</ellipse>
<ellipse id="lightred" opacity="0.3" fill="#FF0000" enable-background="new    " cx="93.244" cy="70.616" rx="10.097" ry="6.31">
<animate  fill="remove" from="0.5" to="0" accumulate="none" repeatCount="indefinite" additive="replace" begin="0.2s;light2.end" restart="always" calcMode="linear" dur="0.5" attributeName="opacity" id="light1">
	</animate>
</ellipse>
<path fill="#697FA3" d="M116.549,70.615c0,0,4.384,2.637,4.877,3.958h7.933c0,0-7.246-5.468-9.885-6.315
	C119.474,68.257,122.203,71.372,116.549,70.615z"/>
<path fill="#D32424" d="M139.197,79.891c0,0-0.967,1.229-1.744,1.655l0.316,2.829c0,0,0.732-0.377,1.401-1.526
	C139.165,82.838,139.548,80.366,139.197,79.891z"/>
</svg>
