<?xml version="1.0" encoding="utf-8"?>
<!-- Generator: Adobe Illustrator 16.0.0, SVG Export Plug-In . SVG Version: 6.00 Build 0)  -->
<!DOCTYPE svg PUBLIC "-//W3C//DTD SVG 1.1//EN" "http://www.w3.org/Graphics/SVG/1.1/DTD/svg11.dtd">
<svg version="1.1" id="Layer_1" xmlns="http://www.w3.org/2000/svg" xmlns:xlink="http://www.w3.org/1999/xlink" x="0px" y="0px"
	 width="100px" height="100px" viewBox="0 0 100 100" enable-background="new 0 0 100 100" xml:space="preserve">

	 <style type="text/css">
	  .arrow{fill:{{statusColor}};display:{{arrowDisplay}}}
	  .hourglass{fill:{{hourglassColor}};display:{{hourglassDisplay}}}
    .parking{display:{{parkingDisplay}};fill:{{parkingColor}}}
	 </style>
	}

<g transform="translate({{translateX}},0) scale({{scaleX}},1)">
	<polygon fill="#FFFFFF" points="42.232,39.679 42.232,40.276 42.878,40.6 42.979,40.1 	"/>
	<g id="Tire_2_1_">
		<path d="M46.995,53.073c0,0-1.512-0.107-2.425-1.212c0,0-0.786-2.047,1.241-2.858c0,0,1.643-0.086,2.601,0.854
			C49.375,50.792,46.995,53.073,46.995,53.073z"/>
		<path fill="#333333" d="M48.719,51.747c-0.351,0.938-1.219,1.51-1.94,1.285c-0.72-0.226-1.021-1.164-0.67-2.101
			c0.352-0.934,1.219-1.507,1.94-1.283C48.769,49.875,49.069,50.813,48.719,51.747z"/>
		<path fill="#999999" d="M47.939,50.118c-0.528-0.164-1.166,0.258-1.422,0.94c-0.259,0.687-0.036,1.377,0.491,1.543
			c0.529,0.164,1.166-0.256,1.423-0.942C48.689,50.973,48.471,50.284,47.939,50.118z M48.119,51.607
			c-0.116,0.312-0.406,0.502-0.646,0.427c-0.24-0.074-0.339-0.388-0.223-0.697c0.115-0.31,0.404-0.5,0.645-0.426
			C48.134,50.982,48.234,51.298,48.119,51.607z"/>
		<path fill="#FFFFFF" d="M47.124,50.425c0,0,0.299,0.154,0.419,0.433l-0.149,0.088c0,0-0.239-0.414-0.412-0.449L47.124,50.425z"/>
		
			<animateTransform  type="translate" fill="remove" attributeName="transform" dur="1" calcMode="linear" restart="always" values="0,0;0.1,0.1;0,0" begin="0s" additive="replace" repeatCount="indefinite" accumulate="none" attributeType="XML">
			</animateTransform>
	</g>
	<g id="Tire_2_2_">
		<path d="M61.27,44.82c0,0-1.513-0.108-2.426-1.211c0,0-0.785-2.05,1.241-2.861c0,0,1.642-0.084,2.603,0.854
			C63.648,42.539,61.27,44.82,61.27,44.82z"/>
		<path fill="#333333" d="M62.992,43.495c-0.352,0.935-1.219,1.509-1.939,1.284c-0.721-0.227-1.021-1.164-0.671-2.098
			c0.353-0.937,1.22-1.51,1.94-1.285C63.044,41.62,63.343,42.56,62.992,43.495z"/>
		<path fill="#999999" d="M62.215,41.866c-0.529-0.166-1.167,0.255-1.424,0.942c-0.256,0.684-0.035,1.374,0.493,1.54
			c0.528,0.165,1.165-0.257,1.422-0.941C62.964,42.719,62.743,42.031,62.215,41.866z M62.391,43.355
			c-0.115,0.31-0.404,0.5-0.645,0.425c-0.24-0.074-0.338-0.386-0.223-0.696c0.115-0.309,0.403-0.501,0.645-0.426
			C62.409,42.731,62.509,43.044,62.391,43.355z"/>
		<path fill="#FFFFFF" d="M61.398,42.172c0,0,0.297,0.154,0.418,0.432l-0.148,0.088c0,0-0.24-0.415-0.411-0.45L61.398,42.172z"/>
		
			<animateTransform  type="translate" fill="remove" attributeName="transform" dur="1" calcMode="linear" restart="always" values="0,0;0.1,0.1;0,0" begin="0s" additive="replace" repeatCount="indefinite" accumulate="none" attributeType="XML">
			</animateTransform>
	</g>
	<g id="Car">
		<path fill="#CCCCCC" d="M36.059,49.788c0,0-0.806-2.607,0.921-4.373l4.412-3.492l0.958-1.149l-0.422-0.461
			c0,0-1.226-0.384-0.882-1.228h0.383l1.15,0.729c0,0,0,0.346,0.271,0.346l2.377-2.265c0,0,3.568-2.532,8.25-4.564
			c0,0,2.187-0.191,3.146,0l1.075-0.5c0,0,0.422-0.422,3.184,0.691c0,0,3.492,1.842,3.723,2.608c0,0,0.576,1.765,0.385,2.417
			c0,0,0.767,0.231,0.46,1.919l-2.032,1.766c0,0-0.229-1.766-1.535-1.381c0,0-2.07,1.381-2.146,4.065l-0.691,0.154l-9.668,5.485
			H48.95c0,0,0.077-1.38-1.075-1.036c0,0-2.147,0.459-2.378,3.299l-0.422,0.422c0,0-4.067,0.574-6.867-1.305
			C38.207,51.938,36.078,50.503,36.059,49.788z"/>
		<path d="M51.214,41.452l-2.338,4.949c0,0-6.431-1.17-7.484-4.287l4.053-4.053C45.444,38.06,49.459,40.904,51.214,41.452z"/>
		<path fill="#253336" d="M51.139,41.463l-2.305,4.873c0,0-6.33-1.152-7.366-4.221l3.989-3.989
			C45.458,38.126,49.411,40.925,51.139,41.463z"/>
		<path fill="#253336" d="M49.717,45.798l2.379-4.298c0,0,2.687-2.762,5.639-3.223l2.84-0.152l0.537,0.499v0.203
			c0,0-4.682,3.596-10.896,6.972l-0.498,0.23V45.798L49.717,45.798z"/>
		<path fill="#253336" d="M52.939,33.943c0,0,0.845-0.806,3.684-0.614c0,0,3.875,1.151,5.484,3.684l-0.229,0.23h-3.377
			C58.504,37.243,55.548,34.098,52.939,33.943z"/>
		<path fill="#333333" d="M36.941,47.639c0,0-0.271,1.458,0,1.996c0,0,1.118,1.649,2.976,1.534c0,0,0.898-0.537,1.283-0.881
			C41.2,50.286,37.401,48.446,36.941,47.639z"/>
		<path fill="#333333" d="M36.373,46.541c0,0,0.418,0.289,0.322,1.44l-0.076,1.036c0,0-0.691-0.06-0.691-1.018
			C35.928,48,36.03,46.83,36.373,46.541z"/>
		<path fill="#333333" d="M40.778,51.175c0,0,0.959-0.813,1.61-0.773c0,0,1.19,0.23,2.418,0.155c0,0,0.306-0.15,0.152,0.229
			c0,0-0.882,1.228-2.455,0.92C42.505,51.706,41.13,51.499,40.778,51.175z"/>
		<path fill="#FFFFFF" d="M40.778,51.277c0,0,0.959-0.813,1.61-0.774c0,0,1.19,0.229,2.418,0.154c0,0,0.306-0.148,0.152,0.231
			c0,0-0.882,1.225-2.455,0.918C42.505,51.809,41.13,51.602,40.778,51.277z"/>
		<path fill="#FFFFFF" d="M36.3,46.548c0,0,0.418,0.287,0.321,1.439l-0.077,1.035c0,0-0.689-0.059-0.689-1.018
			C35.854,48.005,35.958,46.835,36.3,46.548z"/>
		<polygon fill="#FF9933" points="48.509,47.936 49.113,47.625 49.2,47.78 49.126,47.936 48.608,48.171 48.509,48.171 		"/>
		<path d="M54.32,39.738c0,0,0.548-0.492,0.871-0.547c0,0,0.713,2.768,0.635,3.285c0,0-0.521,0.407-0.889,0.563
			C54.938,43.038,54.704,40.12,54.32,39.738z"/>
		<path d="M58.182,38.278c0,0,0.979,0.191,1.018,0.519c0,0,0.018,1.128-0.213,1.569l2.127-1.539v-0.203l-0.553-0.499l0,0
			L58.182,38.278z"/>
		<path fill="#CCCCCC" d="M50.854,45.448l0.619-0.513h0.293l1.435,0.513v0.321l-0.347,0.259H52.48c0,0-0.52,0.086-0.662,0
			c-0.145-0.086-0.518-0.345-0.518-0.345l-0.287,0.029l-0.16,0.114l-0.215,0.201h-0.315l-0.107-0.229L50.854,45.448z"/>
		<path d="M50.177,44.968l1.276-0.149l0.303-0.022l1.489,0.549v0.377l-0.376,0.251L52.45,45.98c0,0-0.507,0.087-0.65,0
			c-0.146-0.086-0.499-0.328-0.499-0.328l-0.294,0.018l-0.114,0.072l-0.211,0.238l-0.965,0.05v-0.231L50.177,44.968z"/>
		<path fill="#CCCCCC" d="M50.854,45.361l0.619-0.514h0.293l1.435,0.514v0.322l-0.347,0.259H52.48c0,0-0.52,0.086-0.662,0
			c-0.146-0.086-0.521-0.345-0.521-0.345l-0.288,0.028l-0.158,0.115l-0.215,0.201h-0.316l-0.105-0.229L50.854,45.361z"/>
		<path fill="#FFFFFF" d="M45.003,52.146c0,0,0.052,0.791-0.39,0.979C44.613,53.126,45.276,53.277,45.003,52.146z"/>
		<path fill="#FFFFFF" d="M51.706,41.655l-1.204,2.263C50.503,43.917,51.338,41.962,51.706,41.655z"/>
		<path fill="#FFFFFF" d="M56.488,38.126c0,0-3.541,1.716-3.895,2.474C52.596,40.6,53.555,39.103,56.488,38.126z"/>
		<path fill="#FFFFFF" d="M52.939,45.5c0,0,0.096,0.298-0.711,0.298C52.229,45.798,53.093,46.067,52.939,45.5z"/>
		<path d="M36.742,45.682c0,0-0.193,0.883,0.079,1.63l0.12,0.327c0,0,0.455,0.786,4.259,2.647c0,0,1.533,0.191,3.413-0.25
			l4.24-3.222l-4.24,3.126c0,0-1.516,0.441-3.299,0.27l-0.231-0.076c0,0-3.844-1.823-4.123-2.705
			C36.96,47.429,36.7,47.214,36.742,45.682z"/>
		<path fill="#FFFFFF" d="M36.821,50.329c0,0,0.594,0.836,2.608,1.426C39.43,51.755,37.509,50.958,36.821,50.329z"/>
		<path opacity="0.3" fill="#669999" enable-background="new    " d="M50.867,41.5c0,0-1.477-0.575-2.015-0.9
			c0,0-2.092,0.043-3.012,2.438c0,0-0.825,1.243-2.84-0.539c0,0-0.806-0.641-0.383-1.385l-0.997,0.962c0,0,0.844,2.206,3.778,3.185
			c0,0,3.088,1.021,3.357,0.957L50.867,41.5z"/>
		<polygon points="58.93,45.033 49.549,50.216 49.458,50.114 		"/>
		<path d="M54.32,44.304l0.096,0.493h0.125l0.782-0.516c0,0,0.049-0.458-0.132-0.516L54.32,44.304z"/>
		<path d="M59.001,41.424l0.115,0.422c0,0,0.806-0.409,0.978-0.731l-0.172-0.361h-0.115C59.807,40.753,59.712,41.079,59.001,41.424z
			"/>
		<path opacity="0.3" fill="#669999" enable-background="new    " d="M54.167,40.178c0,0,0.365,0.345,0.558,2.781l-2.763,1.726
			c0,0-0.389-0.134-0.856,0c0,0,1.621-0.69,1.682-1.476C52.786,43.209,52.402,41.694,54.167,40.178z"/>
		<path opacity="0.3" fill="#669999" enable-background="new    " d="M55.33,39.246c0,0,0.756,2.198,0.584,2.984l2.781-1.864
			c0,0-0.536,0.272-1.17-0.092C57.523,40.274,57.374,38.274,55.33,39.246z"/>
		<path d="M64.779,38.677c0,0-1.081,1.398-1.711,1.771c0,0,2.172-1.18,2.158-1.397C65.227,39.05,65.141,38.633,64.779,38.677z"/>
		<path d="M55.645,42.787c0,0,0.271,2.681,0,3.613C55.645,46.4,55.973,44.666,55.645,42.787z"/>
		<path fill="#FFFFFF" d="M61.246,38.979c0,0,0.5,1.141,0,1.774C61.246,40.753,61.63,40.083,61.246,38.979z"/>
		<path fill="#FFFFFF" d="M59.251,37.511c0,0,2.015-0.076,2.358,0C61.609,37.511,60.189,37.339,59.251,37.511z"/>
		<path fill="#FFFFFF" d="M64.064,35.746c0,0,0.422,0.71-0.689,1.016c0,0,0.881,0,1.096-0.595L64.064,35.746z"/>
		<path opacity="0.7" fill="#FFFFFF" enable-background="new    " d="M49.891,41.3c0,0-1.784,3.875-2.993,4.201l1.035,0.361
			C47.933,45.862,50.695,42.441,49.891,41.3z"/>
		<path opacity="0.7" fill="#FFFFFF" enable-background="new    " d="M53.729,40.6c0,0,0.533,1.961,0,2.638l0.813-0.346
			C54.541,42.892,54.316,40.782,53.729,40.6z"/>
		<path opacity="0.7" fill="#FFFFFF" enable-background="new    " d="M55.832,39.56l0.244,2.095c0,0,0.488-2.052,0.229-2.293
			L55.832,39.56z"/>
	</g>
	
		<animateTransform  type="translate" fill="remove" attributeName="transform" dur="1" calcMode="linear" restart="always" values="0,0;0.1,0.1;0,0" begin="0s" additive="replace" repeatCount="indefinite" accumulate="none" attributeType="XML">
		</animateTransform>
	
		<animateTransform  type="translate" fill="remove" attributeName="transform" dur="1" calcMode="linear" restart="always" values="0,0;0.1,0.1;0,0" begin="0s" additive="replace" repeatCount="indefinite" accumulate="none" attributeType="XML">
		</animateTransform>
	<path id="parking" class="parking" d="M53.154,17.552l-9.925,0.146l-4.863,8.393l5.061,8.247l9.925-0.146l4.863-8.393L53.154,17.552z
		 M49.126,30.557c-0.078,0.056-0.208,0.083-0.39,0.083h-0.21H45.77h-0.16c-0.148,0-0.263-0.031-0.344-0.093
		c-0.08-0.062-0.12-0.15-0.12-0.265c0-0.188,0.082-0.313,0.247-0.372c0.136-0.05,0.216-0.081,0.238-0.093
		c0.022-0.011,0.046-0.037,0.071-0.079c0.049-0.073,0.074-0.189,0.074-0.351v-6.885c0-0.16-0.025-0.277-0.074-0.351
		c-0.025-0.041-0.049-0.067-0.071-0.079c-0.022-0.012-0.103-0.042-0.238-0.093c-0.165-0.06-0.247-0.184-0.247-0.371
		c0-0.115,0.04-0.203,0.12-0.266c0.081-0.062,0.195-0.093,0.344-0.093h0.16h2.751v8.082c0,0.179,0.03,0.307,0.092,0.385
		c0.033,0.046,0.064,0.075,0.093,0.086c0.029,0.012,0.124,0.04,0.285,0.086c0.197,0.051,0.296,0.177,0.296,0.379
		C49.286,30.388,49.232,30.483,49.126,30.557z M52.02,25.805c-0.279,0.444-0.672,0.772-1.176,0.983
		c-0.416,0.17-1.016,0.255-1.799,0.255v-0.736c0.178-0.046,0.303-0.094,0.374-0.145c0.072-0.051,0.136-0.128,0.188-0.233
		c0.087-0.18,0.13-0.42,0.13-0.723v-2.201c0-0.215-0.014-0.376-0.043-0.481c-0.029-0.105-0.087-0.201-0.173-0.289
		c-0.12-0.128-0.28-0.208-0.482-0.24v-0.743c0.849,0,1.477,0.09,1.879,0.269c0.466,0.206,0.834,0.522,1.105,0.949
		c0.275,0.437,0.414,0.97,0.414,1.604C52.438,24.777,52.299,25.355,52.02,25.805z"/>
</g>
<g id="Direction">
	<g transform="rotate({{angle}} 50 50)">
		<polygon id="arrow" class="arrow" opacity="0.7" enable-background="new    " points="59.7,31.4 50.8,24 41.9,31.3 41.9,35.4 42,35.4 50.8,28.1 
			59.3,35.4 59.7,35.4 		">
		
			<animate  fill="remove" attributeName="opacity" dur="0.5s" calcMode="linear" restart="always" values="0.5; 0" begin="0s;anim_arrow3.end" additive="replace" accumulate="none" id="anim_arrow1">
			</animate>
		</polygon>
		<polygon id="arrow2" class="arrow" opacity="0.7" enable-background="new    " points="59.8,26.4 50.9,19 42,26.4 42,30.4 42.1,30.4 50.9,23.2 
			59.4,30.4 59.8,30.4 		">
		
			<animate  fill="remove" attributeName="opacity" dur="0.5s" calcMode="linear" restart="always" values="0.5; 0" begin="anim_arrow1.end" additive="replace" accumulate="none" id="anim_arrow2">
			</animate>
		</polygon>
		<polygon id="arrow3" class="arrow" opacity="0.7" enable-background="new    " points="59.9,21.4 51,14.1 42.1,21.4 42.1,25.5 42.2,25.5 
			51,18.2 59.5,25.5 59.9,25.5 		">
		
			<animate  fill="remove" attributeName="opacity" dur="0.5s" calcMode="linear" restart="always" values="0.5; 0" begin="anim_arrow2.end" additive="replace" accumulate="none" id="anim_arrow3">
			</animate>
		</polygon>
	</g>
</g>
<path id="Idle" class="hourglass" d="M53.311,17.539l-9.926,0.173l-4.841,8.392l5.084,8.247l9.901-0.146l4.863-8.433L53.311,17.539z M49.706,30.516
	l-2.625,0.005c0,0-0.5,0.019-0.516-0.293c0,0-0.031-0.281,0.375-0.391c0,0,0.234,0.016,0.25-0.453l-0.031-5.906
	c0,0,0.047-0.266-0.359-0.344c0,0-0.268-0.109-0.235-0.391c0,0,0.11-0.172,0.329-0.25h3.125c0,0,0.328,0.031,0.344,0.281
	c0,0,0.031,0.313-0.313,0.359c0,0-0.359,0.109-0.266,0.656l-0.031,5.641c0,0,0.031,0.422,0.328,0.438c0,0,0.361,0.063,0.282,0.484
	C50.363,30.352,50.269,30.554,49.706,30.516z"/>
</svg>
