<?xml version="1.0" encoding="utf-8"?>
<!-- Generator: Adobe Illustrator 19.2.1, SVG Export Plug-In . SVG Version: 6.00 Build 0)  -->
<svg version="1.1" id="Layer_2" xmlns="http://www.w3.org/2000/svg" xmlns:xlink="http://www.w3.org/1999/xlink" x="0px" y="0px"  
	 width="100px" height="100px" viewBox="0 0 100 100"  style="enable-background:new 0 0 100 100;" xml:space="preserve">
<style type="text/css">
	.st0{opacity:0.5;fill:{{circle_color}};enable-background:new    ;}
	.st1{fill:none;}
	.st2{fill:#666766;}
	.st3{fill:#5E5E5F;}
	.st4{fill:#444A54;}
	.st5{fill:#7D7D7D;}
	.st6{fill:#212121;}
	.st7{fill:#383838;}
	.st8{fill:#5A616D;}
	.st9{fill:#79818E;}
	.st10{fill:#C2C7CE;}
	.st11{fill:#914142;}
	.st12{fill:#E05F5F;}
</style>
  <g transform="rotate({{angle}} 50 50)">
<circle class="st0" cx="19.464" cy="25.738" r="18.741">
<animate  accumulate="none" additive="replace" attributeName="opacity" begin="0.5s" calcMode="linear" dur="1" fill="remove" from="1" repeatCount="indefinite" restart="always" values="0.5; 0">
	</animate>
</circle>
<title>Truck - Idle</title>
<path class="st1" d="M14.467-22.667c-0.8,0.8-1.5,1.6-2.2,2.4C12.867-21.167,13.567-21.967,14.467-22.667z"/>
<g>
	<path class="st2" d="M29.545,17.458V6.8c-0.432-1.152-1.08-2.16-1.872-3.096c-1.008-1.512-4.536-2.232-4.536-2.232L22.633,1.04
		h-6.265L16.08,1.832L14.928,2.84c0,0-6.049,1.8-3.528,22.538l0.144,11.809l-0.792,10.369c0,0,0.648,2.736,2.952,2.88l1.656,1.008
		h8.209c1.368,0.072,3.96-1.368,3.96-1.368c1.152-0.936,2.16-6.841,2.16-6.841c0.36-4.897,0.072-23.618,0.072-23.618l2.52,1.08
		C33.074,19.402,29.545,17.458,29.545,17.458z M27.601,49.285c-0.432,0.144-0.864,0.288-1.296,0.432
		c-0.576,0.216-1.224,0.504-1.512,0.648c0,0,0.288-0.144,0.648-0.36c-4.464,1.152-9.217,0.936-13.537-0.648
		c4.464,1.44,9.217,1.584,13.681,0.576c0.864-0.648,2.232-1.872,2.448-3.744c0,0-0.36,2.88-0.864,3.24c0,0-0.216,0.072-0.432,0.216
		C26.953,49.429,27.313,49.357,27.601,49.285z M26.521,37.116c-0.072-0.504-0.144-1.224-0.144-2.016
		c-0.216-3.384-0.504-10.009,0.432-11.881c0,0-0.504,7.633-0.432,11.881C26.449,36.252,26.521,37.116,26.521,37.116z M28.177,12.993
		l-0.072-1.728c-0.144-2.52-0.792-7.057-3.6-7.777c1.584,0.288,2.88,1.296,3.456,2.808l0.144,4.969
		C28.177,12.273,28.177,12.993,28.177,12.993z M32.066,20.554l-2.376-1.152l-0.144-0.36C32.138,19.762,32.066,20.554,32.066,20.554z
		"/>
	<path class="st3" d="M10.751,47.557l0.792-10.369l-0.144-11.881C8.879,4.64,14.928,2.768,14.928,2.768L16.08,1.76l0.288-0.72
		h-0.792L15,1.616C13.632,1.688,11.544,3.2,11.544,3.2c-1.44,1.008-2.52,4.392-2.52,4.392v10.441
		c-0.144,0.072-0.36,0.072-0.504,0.144c-0.36,0.144-0.648,0.288-0.936,0.504c-0.072,0.144-0.216,0.216-0.36,0.36
		c-0.576,0.36-0.864,1.08-0.576,1.728l2.304-1.008L8.735,40.284c0,3.24,0.792,6.409,2.232,9.289c1.368,1.512,4.32,1.872,4.32,1.872
		l-1.584-1.008C11.399,50.221,10.751,47.557,10.751,47.557z M9.023,19.402l-2.16,1.152c0,0-0.072-0.792,2.304-1.584L9.023,19.402z"
		/>
	<path class="st4" d="M6.863,20.482l2.16-1.152l0.144-0.432C6.791,19.69,6.863,20.482,6.863,20.482z"/>
	<path class="st4" d="M29.545,19.042l0.144,0.432l2.376,1.152C32.066,20.554,32.138,19.762,29.545,19.042z"/>
	<path class="st5" d="M24.505,3.488c2.808,0.72,3.456,5.257,3.6,7.777l-0.144-4.969C27.385,4.856,26.089,3.776,24.505,3.488z"/>
	<path class="st5" d="M28.177,12.993c0,0,0-0.72-0.072-1.728L28.177,12.993z"/>
	<path class="st5" d="M26.809,23.218c-0.864,1.872-0.576,8.425-0.432,11.881C26.305,30.779,26.809,23.218,26.809,23.218z"/>
	<path class="st5" d="M26.377,35.027c0,0.864,0.072,1.584,0.144,2.016C26.521,37.116,26.449,36.252,26.377,35.027z"/>
	<path class="st5" d="M28.033,46.117c-0.216,1.872-1.584,3.096-2.448,3.744c0.36-0.072,0.72-0.216,1.08-0.288
		c0.288-0.144,0.432-0.216,0.432-0.216C27.673,48.997,28.033,46.117,28.033,46.117z"/>
	<path class="st5" d="M24.793,50.293c0.288-0.072,0.936-0.36,1.512-0.648c-0.288,0.072-0.576,0.144-0.864,0.216
		C25.081,50.149,24.793,50.293,24.793,50.293z"/>
	<path class="st6" d="M11.904,49.285c4.392,1.584,9.073,1.8,13.537,0.648c0.288-0.072,0.576-0.144,0.864-0.216
		c0.432-0.144,0.864-0.288,1.296-0.432c-0.288,0.072-0.576,0.144-0.936,0.216c-0.36,0.072-0.72,0.216-1.08,0.288
		C21.049,50.869,16.296,50.653,11.904,49.285z"/>
</g>
<path class="st4" d="M28.393,14.217l-0.936,6.193c0,0.432-0.36,0.792-0.792,0.792c-0.072,0-0.144,0-0.144,0
	c-6.481-2.376-13.969,0-13.969,0c-1.008-0.072-0.864-0.72-0.864-0.72l-1.152-6.265C19.824,8.169,28.393,14.217,28.393,14.217z"/>
<line class="st1" x1="35.234" y1="22.57" x2="33.362" y2="19.474"/>
<g>
	<path class="st4" d="M9.743,29.123c0,5.185,0.072,10.297,0.072,10.297c0.072,1.584,0.36,3.096,0.792,4.608l0.36-6.625
		c0.144-3.24,0.144-6.121,0.144-8.425C10.679,29.195,10.175,29.267,9.743,29.123z"/>
	<path class="st4" d="M11.111,27.899c-0.072-2.952-0.144-4.825-0.144-4.825c-0.144-2.736-1.08-7.849-1.08-7.849l-0.216,1.224v1.44
		l0.36,0.288c-0.288,0.144-0.288,4.68-0.288,9.505C10.175,27.827,10.607,27.899,11.111,27.899z"/>
	<path class="st7" d="M12.048,38.484l-0.504,7.129c0,0,7.705,3.024,15.41,0l-0.432-6.841C26.593,38.772,18.312,40.716,12.048,38.484
		z M11.904,45.396l0.504-6.481c6.049,2.016,14.041,0.216,14.041,0.216l0.432,6.265C19.32,48.133,11.904,45.396,11.904,45.396z"/>
	<path class="st4" d="M12.336,38.916l-0.504,6.481c0,0,7.417,2.736,14.906,0l-0.432-6.265
		C26.377,39.132,18.384,40.932,12.336,38.916z M14.568,45.685l0.216-5.689c5.113,1.8,11.449-0.504,11.449-0.504l0.36,5.617
		C22.705,46.549,18.528,46.765,14.568,45.685z"/>
	<path class="st8" d="M14.712,39.996l-0.144,5.689c3.96,1.152,8.209,0.864,11.953-0.648l-0.36-5.617
		C26.161,39.42,19.896,41.796,14.712,39.996z M23.281,45.54c1.296-0.504,1.584-4.752,1.584-4.752
		c0.576,0.792,0.576,4.176,0.576,4.176C24.793,45.252,24.073,45.468,23.281,45.54z"/>
	<path class="st7" d="M23.785,31.931c0.432-0.072,0.792-0.288,0.936-0.72V23.65c-0.072-0.432-0.432-0.72-0.864-0.72h-8.785
		c-0.504,0-0.864,0.288-1.08,0.72v7.561c0.144,0.36,0.36,0.576,0.72,0.72H23.785z M14.352,31.067v-7.201
		c0.144-0.432,0.576-0.648,1.008-0.648h8.281c0.432,0,0.72,0.288,0.792,0.648v7.201c-0.144,0.36-0.504,0.648-0.864,0.648h-8.497
		C14.712,31.643,14.496,31.355,14.352,31.067z"/>
	<path class="st4" d="M23.497,31.715c0.432-0.072,0.72-0.288,0.864-0.648v-7.201c-0.072-0.432-0.36-0.72-0.792-0.648H15.36
		c-0.432,0-0.864,0.288-1.008,0.648v7.201c0.072,0.288,0.36,0.576,0.648,0.648H23.497z M17.232,25.81c0,0,1.44-1.152,2.088-1.152
		l4.248-0.864c0.36,0,0.648,0.216,0.648,0.576v6.193c-0.144,0.36-0.432,0.576-0.792,0.576l-6.769-0.216
		c-0.216-0.288-0.432-0.576-0.576-0.864L17.232,25.81z"/>
	<path class="st8" d="M23.425,31.139c0.36-0.072,0.648-0.288,0.792-0.576V24.37c0-0.36-0.36-0.576-0.648-0.576l-4.248,0.864
		c-0.648,0-2.088,1.152-2.088,1.152l-1.152,4.32c0.144,0.36,0.288,0.648,0.576,0.864L23.425,31.139z M22.777,25.738
		c1.008,1.008,0.792,4.176,0.792,4.176c-0.144,1.152-2.664,0.504-2.664,0.504C22.921,29.843,22.777,25.738,22.777,25.738z"/>
	<path class="st7" d="M10.319,14.217l1.152,6.265c0,0-0.072,0.648,0.792,0.648c0,0,7.489-2.376,13.969,0c0.072,0,0.144,0,0.144,0
		c0.432,0,0.792-0.36,0.792-0.792l0.936-6.193C28.249,14.217,19.608,8.169,10.319,14.217z M27.097,20.194
		c-0.216,1.008-0.864,0.648-0.864,0.648c-3.528-1.296-7.273-1.152-10.009-0.72c-1.368,0.216-2.592,0.504-3.312,0.72
		c-0.288,0.072-0.504,0.144-0.504,0.144c-0.36,0.072-0.72-0.216-0.792-0.576c0-0.072,0-0.072,0-0.144l-1.08-5.977
		c5.257-3.528,12.169-3.528,17.426,0.144L27.097,20.194z"/>
	<path class="st4" d="M10.535,14.289l1.08,5.977c0,0.072,0,0.072,0,0.144c0.072,0.36,0.432,0.648,0.792,0.576
		c0,0,0.144-0.072,0.504-0.144l0,0c-0.432-1.008-0.648-2.016-0.648-3.024c0-2.448,1.008-3.6,3.312-5.329
		c4.176-0.72,8.425,0,12.169,2.016l-0.72,5.545c0,0.072,0,0.216-0.072,0.288c-0.144,0.36-0.576,0.504-0.936,0.288
		c-3.384-1.224-7.057-1.008-9.721-0.576c2.736-0.432,6.481-0.576,10.009,0.72c0,0,0.648,0.36,0.864-0.648l0.864-5.761
		C22.777,10.761,15.864,10.689,10.535,14.289z"/>
	<path class="st8" d="M26.017,20.626c0.36,0.144,0.792,0,0.936-0.288c0.072-0.072,0.072-0.216,0.072-0.288l0.72-5.545
		c-3.744-2.016-7.993-2.664-12.169-2.016c-2.376,1.728-3.312,2.88-3.312,5.329c0,1.008,0.216,2.016,0.648,3.024l0,0
		c0.72-0.216,1.872-0.504,3.312-0.72C18.96,19.618,22.633,19.402,26.017,20.626z M18.312,19.474c0,0-2.88-3.096,2.736-6.193
		c0.144-0.072,0.792-0.144,0.936-0.216c0,0,3.96,0.144,5.329,1.584l-0.432,5.113c0,0-0.072,1.224-1.44,0.576
		C25.369,20.338,21.121,18.898,18.312,19.474z"/>
	<path class="st9" d="M26.809,19.69l0.432-5.113c-1.296-1.44-5.329-1.584-5.329-1.584c-0.144,0.072-0.792,0.144-0.936,0.216
		c-5.617,3.096-2.736,6.193-2.736,6.193c2.808-0.576,7.057,0.864,7.057,0.864C26.737,20.914,26.809,19.69,26.809,19.69z
		 M27.097,14.937l-0.648,4.104c-0.216,0.432-0.648,0.576-1.08,0.432c-0.576-0.216-1.152-0.36-1.728-0.504
		C23.641,18.97,26.161,19.618,27.097,14.937z"/>
	<path class="st10" d="M26.449,19.042l0.648-4.104c-0.936,4.608-3.456,4.032-3.456,4.032c0.576,0.144,1.152,0.288,1.728,0.504
		C25.801,19.618,26.305,19.402,26.449,19.042z"/>
	<path class="st7" d="M11.327,27.899L11.327,27.899c-0.072-1.584-0.072-3.24-0.216-4.825c-0.216-2.808-1.296-8.353-1.296-8.353
		l-0.432,1.656v1.728l0.36,0.216c-0.576,0.288-0.144,21.17-0.144,21.17c-0.072,1.872,1.008,5.329,1.008,5.329l0.504-7.417
		c0.216-2.952,0.216-5.905,0.216-8.857C11.327,28.547,11.327,27.899,11.327,27.899z M9.599,17.89v-1.44l0.216-1.224
		c0,0,0.936,5.113,1.08,7.849c0,0,0.144,1.8,0.144,4.825c-0.504,0-0.936-0.072-1.368-0.216c0-4.825,0.072-9.289,0.216-9.433
		L9.599,17.89z M10.967,37.332l-0.36,6.625c-0.504-1.512-0.72-3.024-0.792-4.608c0,0-0.072-5.113-0.072-10.297
		c0.432,0.144,0.936,0.144,1.368-0.144C11.111,31.283,11.111,34.163,10.967,37.332z"/>
	<path class="st7" d="M29.113,16.593l-0.36-1.656c0,0-1.008,5.545-1.224,8.353c-0.072,1.584-0.144,3.24-0.144,4.825l0,0v0.72
		c-0.072,2.952,0,5.833,0.144,8.785l0.432,7.345c0,0,1.008-3.456,0.936-5.329c0,0,0.36-20.882-0.144-21.17l0.288-0.216v-1.656
		C29.041,16.593,29.113,16.593,29.113,16.593z M28.033,44.172l-0.288-6.625c-0.144-3.168-0.144-5.977-0.144-8.353
		c0.36,0.216,0.792,0.288,1.224,0.072c0,5.185-0.072,10.297-0.072,10.297C28.681,41.148,28.465,42.66,28.033,44.172z M28.897,18.106
		l-0.288,0.288c0.144,0.144,0.216,4.608,0.216,9.433c-0.36,0.144-0.792,0.216-1.224,0.216c0-2.952,0.144-4.825,0.144-4.825
		c0.144-2.736,0.936-7.849,0.936-7.849l0.216,1.224C28.897,16.593,28.897,18.106,28.897,18.106z"/>
	<path class="st4" d="M27.745,23.362c0,0-0.072,1.8-0.144,4.825c0.432,0,0.792-0.072,1.224-0.216c0-4.825-0.072-9.289-0.216-9.433
		l0.288-0.288v-1.44l-0.216-1.224C28.681,15.513,27.889,20.554,27.745,23.362z M27.961,27.611c0,0-0.36-4.825,0.432-6.481
		C28.105,23.29,27.961,25.45,27.961,27.611z"/>
	<path class="st4" d="M27.601,29.195c0,2.304,0,5.185,0.144,8.353l0.288,6.625c0.432-1.512,0.648-3.024,0.72-4.608
		c0,0,0.072-5.113,0.072-10.297C28.393,29.483,27.961,29.411,27.601,29.195z M27.961,29.987c0,0,0,6.841,0.216,10.081
		c0.072,0.864,0.144,1.44,0.144,1.512c-0.072-0.288-0.072-0.792-0.144-1.512C27.889,37.26,27.457,31.283,27.961,29.987z"/>
	<path class="st10" d="M23.641,29.987c0,0,0.144-3.168-0.792-4.176c0,0,0.144,4.032-1.872,4.68
		C20.977,30.419,23.497,31.139,23.641,29.987z"/>
	<path class="st10" d="M23.281,45.54c0.72-0.072,1.44-0.288,2.16-0.576c0,0,0-3.384-0.576-4.176
		C24.865,40.788,24.649,45.036,23.281,45.54z"/>
	<path class="st10" d="M27.961,27.611c0-2.16,0.144-4.32,0.432-6.481C27.601,22.858,27.961,27.611,27.961,27.611z"/>
	<path class="st10" d="M28.177,40.068c-0.216-3.312-0.216-10.081-0.216-10.081C27.457,31.283,27.889,37.26,28.177,40.068z"/>
	<path class="st10" d="M28.177,40.068c0.072,0.648,0.072,1.152,0.144,1.512C28.321,41.58,28.249,41.004,28.177,40.068z"/>
</g>
<path class="st11" d="M11.039,50.077c0,0,0.792,1.08,4.32,1.368c0,0,0.288-0.288-1.512-1.008c-1.008-0.216-1.944-0.576-2.736-1.152
	C11.111,49.285,10.607,49.285,11.039,50.077z"/>
<path class="st12" d="M11.544,50.221c0,0,0.648,0.936,3.672,1.152c0,0,0.288-0.288-1.224-0.864c-0.936-0.144-1.728-0.504-2.52-1.008
	C11.472,49.501,11.255,49.501,11.544,50.221z"/>
<path class="st11" d="M27.889,50.077c0,0-0.72,1.08-3.96,1.368c0,0-0.288-0.288,1.368-1.008c0.936-0.216,1.728-0.576,2.52-1.152
	C27.817,49.285,28.249,49.285,27.889,50.077z"/>
<path class="st12" d="M27.817,50.005c0,0-0.504,1.08-3.24,1.296c0,0-0.504-0.144,0.864-0.72c0.864-0.288,1.728-0.648,2.448-1.224
	C27.889,49.357,28.105,49.285,27.817,50.005z"/>
    </g>
  
</svg>
