<?xml version="1.0" encoding="utf-8"?>
<!-- Generator: Adobe Illustrator 16.0.0, SVG Export Plug-In . SVG Version: 6.00 Build 0)  -->
<!DOCTYPE svg PUBLIC "-//W3C//DTD SVG 1.1//EN" "http://www.w3.org/Graphics/SVG/1.1/DTD/svg11.dtd">
<svg version="1.1" id="Layer_1" xmlns="http://www.w3.org/2000/svg" xmlns:xlink="http://www.w3.org/1999/xlink" x="0px" y="0px"
	 width="100px" height="100px" viewBox="0 0 100 100" enable-background="new 0 0 100 100" xml:space="preserve">
<g display="none">
	<path display="inline" opacity="0.8" enable-background="new    " d="M95.389,51.314c0-14.965-5.914-28.543-15.521-38.552
		l-6.493,6.327C81.389,27.464,86.32,38.81,86.32,51.316c0,0.363-0.02,0.726-0.032,1.088h-0.007c0.002,0.046,0.003,0.093,0.003,0.141
		c0,0.046-0.001,0.092-0.003,0.141h0.007c0.014,0.361,0.032,0.722,0.032,1.086c0,12.506-4.934,23.854-12.945,32.227l6.493,6.329
		c9.606-10.011,15.521-23.589,15.521-38.554c0-0.412-0.02-0.82-0.031-1.229C95.369,52.135,95.389,51.729,95.389,51.314z"/>
	<path display="inline" d="M63.948,52.545c0.026-0.408,0-0.814,0-1.229c0-6.433-2.521-12.263-6.604-16.604l-5.178,5.045
		c2.814,3.038,4.549,7.091,4.549,11.56c0,0.367,0.031,0.729,0.004,1.091h-0.014c0.004,0.046,0.003,0.093,0.007,0.141
		c-0.004,0.045-0.003,0.095-0.007,0.14h0.014c0.027,0.36-0.004,0.72-0.004,1.088c0,4.468-1.734,8.521-4.549,11.559l5.178,5.048
		c4.084-4.344,6.604-10.175,6.604-16.606C63.948,53.357,63.977,52.953,63.948,52.545z"/>
	<path display="inline" d="M79.031,52.544c0.017-0.408,0.043-0.815,0.043-1.229c0-10.538-4.147-20.102-10.889-27.169l-5.888,5.738
		c5.3,5.59,8.57,13.122,8.57,21.432c0,0.369,0.047,0.729,0.021,1.09h-0.015c0.003,0.047,0.004,0.094,0.007,0.142
		c-0.003,0.046-0.004,0.095-0.007,0.14h0.015c0.025,0.36-0.021,0.719-0.021,1.088c0,8.311-3.271,15.843-8.57,21.433l5.888,5.737
		c6.74-7.069,10.889-16.633,10.889-27.17C79.074,53.357,79.048,52.952,79.031,52.544z"/>
</g>
<g>
	<path fill="#22B573" d="M50,34.81c-14.922,0-27.019,9.891-27.019,22.09V84.1H77.02V56.9C77.02,44.701,64.924,34.81,50,34.81z"/>
	<path fill="#22B573" d="M76.662,86.975H23.339c-2.217,0-4.014,1.797-4.014,4.014s1.797,4.014,4.014,4.014h53.323
		c2.217,0,4.014-1.797,4.014-4.014S78.879,86.975,76.662,86.975z"/>
	<path fill="#22B573" d="M50,26.044c1.813,0,3.282-1.469,3.282-3.282v-11.85c0-1.813-1.47-3.282-3.282-3.282
		c-1.813,0-3.282,1.469-3.282,3.282v11.85C46.719,24.575,48.188,26.044,50,26.044z"/>
	<path fill="#22B573" d="M17.022,52.27L5.173,52.195c-1.812-0.012-3.292,1.447-3.303,3.26c-0.011,1.813,1.449,3.291,3.262,3.303
		l11.85,0.076c1.811,0.012,3.289-1.449,3.301-3.262C20.295,53.759,18.835,52.281,17.022,52.27z"/>
	<path fill="#22B573" d="M94.824,52.154l-11.85,0.086c-1.812,0.014-3.271,1.494-3.257,3.307c0.013,1.813,1.493,3.271,3.306,3.256
		l11.85-0.084c1.813-0.016,3.271-1.492,3.258-3.305C98.118,53.6,96.639,52.143,94.824,52.154z"/>
	<path fill="#22B573" d="M24.02,35.15c1.301,1.262,3.38,1.229,4.641-0.072c1.263-1.301,1.229-3.379-0.071-4.64l-8.509-8.248
		c-1.301-1.262-3.379-1.23-4.641,0.072c-1.263,1.302-1.229,3.379,0.073,4.641L24.02,35.15z"/>
	<path fill="#22B573" d="M75.169,34.167l8.185-8.567c1.252-1.312,1.207-3.387-0.104-4.64c-1.313-1.253-3.389-1.205-4.641,0.106
		l-8.188,8.568c-1.25,1.309-1.202,3.388,0.108,4.64C71.84,35.527,73.918,35.479,75.169,34.167z"/>
</g>
</svg>
