<?xml version="1.0" encoding="utf-8"?>
<!-- Generator: Adobe Illustrator 16.0.0, SVG Export Plug-In . SVG Version: 6.00 Build 0)  -->
<!DOCTYPE svg PUBLIC "-//W3C//DTD SVG 1.1//EN" "http://www.w3.org/Graphics/SVG/1.1/DTD/svg11.dtd">
<svg version="1.1" id="Layer_1" xmlns="http://www.w3.org/2000/svg" xmlns:xlink="http://www.w3.org/1999/xlink" x="0px" y="0px"
	 width="100px" height="100px" viewBox="0 0 100 100" enable-background="new 0 0 100 100" xml:space="preserve">
<g display="none">
	<path display="inline" opacity="0.8" d="M95.388,51.315c0-14.966-5.913-28.544-15.52-38.553l-6.493,6.327
		c8.013,8.375,12.945,19.721,12.945,32.227c0,0.364-0.019,0.726-0.032,1.088h-0.007c0.002,0.046,0.003,0.093,0.003,0.141
		c0,0.046-0.001,0.092-0.003,0.14h0.007c0.014,0.362,0.032,0.722,0.032,1.086c0,12.506-4.933,23.854-12.945,32.227l6.493,6.329
		c9.606-10.01,15.52-23.589,15.52-38.554c0-0.411-0.019-0.82-0.031-1.229C95.369,52.135,95.388,51.728,95.388,51.315z"/>
	<path display="inline" d="M63.948,52.545c0.027-0.408,0-0.814,0-1.229c0-6.432-2.521-12.263-6.604-16.604l-5.178,5.045
		c2.814,3.038,4.549,7.091,4.549,11.56c0,0.367,0.031,0.729,0.004,1.09h-0.014c0.004,0.046,0.003,0.093,0.007,0.141
		c-0.004,0.045-0.003,0.094-0.007,0.14h0.014c0.027,0.36-0.004,0.719-0.004,1.087c0,4.468-1.734,8.521-4.549,11.559l5.178,5.048
		c4.084-4.344,6.604-10.175,6.604-16.606C63.948,53.357,63.976,52.953,63.948,52.545z"/>
	<path display="inline" d="M79.031,52.544c0.017-0.408,0.043-0.816,0.043-1.229c0-10.538-4.147-20.102-10.888-27.17l-5.888,5.738
		c5.299,5.59,8.57,13.122,8.57,21.432c0,0.368,0.047,0.729,0.021,1.09h-0.015c0.003,0.046,0.004,0.093,0.007,0.141
		c-0.003,0.046-0.004,0.094-0.007,0.14h0.015c0.025,0.36-0.021,0.719-0.021,1.087c0,8.311-3.271,15.843-8.57,21.433l5.888,5.738
		c6.74-7.07,10.888-16.634,10.888-27.171C79.074,53.358,79.048,52.952,79.031,52.544z"/>
</g>
<path fill="#21B573" d="M50,34.81c-14.922,0-27.019,9.891-27.019,22.09V84.1H77.02V56.9C77.02,44.701,64.924,34.81,50,34.81z
	 M73.299,80.705H26.703V57.251c0-10.519,10.431-19.047,23.297-19.047c12.868,0,23.299,8.528,23.299,19.047V80.705z"/>
<path fill="#21B573" d="M80.676,90.988c0,2.217-1.797,4.014-4.014,4.014H23.339c-2.217,0-4.014-1.797-4.014-4.014l0,0
	c0-2.217,1.797-4.014,4.014-4.014h53.323C78.879,86.975,80.676,88.771,80.676,90.988L80.676,90.988z"/>
<g opacity="0.5">
	<path fill="#828282" d="M50,26.044c1.812,0,3.282-1.469,3.282-3.282v-11.85c0-1.813-1.47-3.282-3.282-3.282
		c-1.813,0-3.282,1.469-3.282,3.282v11.85C46.719,24.575,48.188,26.044,50,26.044z"/>
	<path fill="#828282" d="M20.283,55.572c0.012-1.813-1.448-3.291-3.261-3.303L5.173,52.195c-1.812-0.012-3.292,1.447-3.303,3.26
		c-0.011,1.813,1.449,3.291,3.262,3.303l11.85,0.076C18.793,58.846,20.271,57.385,20.283,55.572z"/>
	<path fill="#828282" d="M94.824,52.154l-11.85,0.086c-1.811,0.014-3.271,1.494-3.256,3.307c0.012,1.813,1.493,3.271,3.305,3.256
		l11.85-0.084c1.812-0.016,3.271-1.492,3.258-3.305C98.118,53.6,96.638,52.143,94.824,52.154z"/>
	<path fill="#828282" d="M24.02,35.15c1.301,1.262,3.38,1.229,4.641-0.072c1.263-1.301,1.229-3.379-0.071-4.64l-8.509-8.248
		c-1.301-1.262-3.379-1.23-4.641,0.072c-1.263,1.302-1.229,3.379,0.073,4.641L24.02,35.15z"/>
	<path fill="#828282" d="M75.169,34.167l8.185-8.567c1.251-1.312,1.206-3.387-0.104-4.64c-1.312-1.253-3.389-1.205-4.641,0.106
		l-8.188,8.568c-1.25,1.309-1.202,3.388,0.109,4.64C71.84,35.527,73.918,35.479,75.169,34.167z"/>
</g>
</svg>
