<?xml version="1.0" encoding="utf-8"?>
<!-- Generator: Adobe Illustrator 16.0.0, SVG Export Plug-In . SVG Version: 6.00 Build 0)  -->
<!DOCTYPE svg PUBLIC "-//W3C//DTD SVG 1.1//EN" "http://www.w3.org/Graphics/SVG/1.1/DTD/svg11.dtd">
<svg version="1.1" id="Layer_1" xmlns="http://www.w3.org/2000/svg" xmlns:xlink="http://www.w3.org/1999/xlink" x="0px" y="0px"
	 width="100px" height="100px" viewBox="0 0 100 100" enable-background="new 0 0 100 100" xml:space="preserve">
<g>
	<path fill="#21B573" d="M85.82,76.158h0.09v-0.03c-5.241-0.633-9.415-11.756-9.415-25.389c0-0.181,0.004-0.358,0.006-0.538h-0.006
		V39.038c0-12.001-7.981-22.133-18.924-25.392c0.056-0.361,0.095-0.728,0.095-1.104c0-4.085-3.433-7.397-7.666-7.397
		c-4.234,0-7.666,3.312-7.666,7.397c0,0.376,0.038,0.743,0.094,1.104c-10.942,3.258-18.923,13.391-18.923,25.392v11.163H23.5
		c0.001,0.18,0.005,0.358,0.005,0.538c0,13.633-4.174,24.756-9.415,25.389v0.03h0.089c-1.337,0.433-2.308,1.656-2.308,3.116
		c0,1.82,1.499,3.295,3.348,3.295H84.78c1.85,0,3.349-1.475,3.349-3.295C88.129,77.814,87.157,76.591,85.82,76.158z"/>
	<path fill="#21B573" d="M50,97.229c6.389,0,11.566-5.178,11.566-11.566H38.434C38.434,92.052,43.612,97.229,50,97.229z"/>
</g>
</svg>
