<?xml version="1.0" encoding="utf-8"?>
<!-- Generator: Adobe Illustrator 16.0.0, SVG Export Plug-In . SVG Version: 6.00 Build 0)  -->
<!DOCTYPE svg PUBLIC "-//W3C//DTD SVG 1.1//EN" "http://www.w3.org/Graphics/SVG/1.1/DTD/svg11.dtd">
<svg version="1.1" id="Layer_1" xmlns="http://www.w3.org/2000/svg" xmlns:xlink="http://www.w3.org/1999/xlink" x="0px" y="0px"
	 width="100px" height="100px" viewBox="0 0 100 100" enable-background="new 0 0 100 100" xml:space="preserve">

	 <style type="text/css">
	  .arrow{fill:{{statusColor}};display:{{arrowDisplay}}}
	  .hourglass{fill:{{hourglassColor}};display:{{hourglassDisplay}}}
    .parking{display:{{parkingDisplay}};fill:{{parkingColor}}}
	 </style>
	}

<g transform="translate({{translateX}},0) scale({{scaleX}},1)">
	<path fill="#494949" d="M41.462,57.889c0,0,5.398-2.539,8.741-5.854l-2.324-3.542l-7.301,3.284l-0.658,3.736
		C39.92,55.514,40.462,57.557,41.462,57.889z"/>
	<path fill="#727272" d="M48.451,51.283l-4.531,0.271c0,0,0.313-1.229,0.375-1.25s2.438-0.916,2.438-0.916l1.146-0.084l0.573,0.792
		L48.451,51.283L48.451,51.283z"/>
	<path fill="#8E8E8E" d="M40.67,55.473l0.667,0.457l3.115-1.457v-0.75l0.781,0.166l1.563-0.666h1.499l3.083,1.957l1.808-1.5
		l-4.607-2.541h-1.951l-1.393,0.166l-1.896,0.293c0,0-2.083,1.666-2.208,1.666S40.337,54.389,40.67,55.473z"/>
	<path fill="#565656" d="M41.462,57.889c0,0-2.458-1.25,0.167-4.5l6.25-4.167l-1.253-3.555l-7.789,5.388
		c0,0-2.776,2.654-0.221,5.619L41.462,57.889z"/>
	<path fill="#494949" d="M51.379,63.055l17.625-10.332c0,0,1.322-1.127,0.416-3.458c0,0-0.447-1.239-2.021-0.817L51.576,57.43
		l-1.635,1.875l-0.584,1.469v0.906l0.438,1.063l0.407,0.313C50.202,63.055,51.063,63.24,51.379,63.055z"/>
	<path fill="#8E8E8E" d="M53.186,59.68l11.922-6.813h1.125c0,0,2.615-2.344,1.854-3.25l-1.104-0.813L51.607,57.18v0.688l0.138,1.225
		C51.744,59.09,52.805,59.898,53.186,59.68z"/>
	<path fill="#565656" d="M52.587,57.348c0,0-2.833,1.709-2.958,4.625c0,0,0.25,1.332,1.75,1.082l-0.6,0.217l-0.577-0.133
		l-2.907-1.459c0,0-2.039-2.559,1-5.375l1.667-1.082l14.875-8.761l2.452,0.615c0,0,2.131,0.963,2.464,1.979
		c0,0,0.668,2.792-0.749,3.667c0,0,1.213-1.184,0.416-3.458c0,0-0.375-1.166-2.375-0.041c0,0-7.219,3.5-9.547,5.041
		S52.587,57.348,52.587,57.348z"/>
	<polygon fill="#191919" points="53.08,53.264 56.541,54.938 57.061,54.639 53.505,53.01 	"/>
	<polygon fill="#191919" points="54.552,52.115 58.094,53.887 58.693,53.533 54.979,51.863 	"/>
	<polygon fill="#191919" points="55.994,51.232 59.63,53.01 60.128,52.74 56.419,50.98 	"/>
	<polygon fill="#191919" points="57.559,50.549 61.119,52.223 61.615,51.951 57.982,50.296 	"/>
	<polygon fill="#191919" points="59.166,49.704 62.729,51.379 63.146,51.08 59.592,49.452 	"/>
	<polygon fill="#191919" points="60.678,48.995 64.121,50.67 64.656,50.37 61.104,48.743 	"/>
	<polygon fill="#191919" points="62.117,48.183 65.68,49.858 66.191,49.639 62.542,47.93 	"/>
	<polygon fill="#191919" points="63.633,47.438 67.193,49.114 67.708,48.894 64.059,47.185 	"/>
	<polygon fill="#191919" points="65.383,47.13 68.811,48.743 69.273,48.743 65.809,46.877 	"/>
	<polygon fill="#191919" points="43.354,47.93 47.138,49.571 47.656,49.271 43.771,47.642 	"/>
	<polygon fill="#191919" points="45.253,46.747 48.795,48.519 49.396,48.167 45.679,46.494 	"/>
	<polygon fill="#191919" points="46.695,45.865 50.331,47.642 50.829,47.371 47.12,45.612 	"/>
	<polygon fill="#191919" points="48.259,45.181 51.82,46.855 52.316,46.582 48.685,44.928 	"/>
	<polygon fill="#191919" points="49.867,44.336 53.43,46.01 53.848,45.712 50.293,44.083 	"/>
	<polygon fill="#191919" points="51.379,43.626 54.822,45.301 55.357,45.002 51.805,43.373 	"/>
	<polygon fill="#191919" points="52.818,42.815 56.38,44.49 56.895,44.271 53.243,42.562 	"/>
	<polygon fill="#191919" points="54.334,42.07 57.896,43.744 58.409,43.526 54.759,41.817 	"/>
	<polygon fill="#191919" points="37.348,54.594 40.401,55.98 40.345,56.408 37.421,55.033 	"/>
	<polygon fill="#191919" points="37.535,53.555 40.746,54.76 41.085,54.129 37.724,52.902 	"/>
	<polygon fill="#191919" points="38.069,52.094 41.726,53.344 42.197,53.01 38.279,51.707 	"/>
	<polygon fill="#191919" points="39.31,50.746 43.091,52.432 43.644,52.064 39.725,50.477 	"/>
	<polygon fill="#191919" points="40.578,49.892 44.585,51.453 45.146,51.078 41.057,49.56 	"/>
	<polygon fill="#191919" points="42.264,48.712 46.224,50.382 46.639,50.066 42.65,48.446 	"/>
	<path fill="#848484" d="M44.795,46.099l0.438-1.19l2.271-1.229l2.699-3.594l1.718-0.864l-0.458-0.323l0.291-0.344h0.584l0.25,0.344
		l6.521-4.01c0,0,5.188,1,9.688,4.792l0.958,1.719v0.781v3.487l-15.833,9.055l-7.083-5.5l0.255-1.542L44.795,46.099z"/>
	<path opacity="0.4" fill="#4C4C4C" enable-background="new    " d="M50.202,40.086c0,0,1.28,0.073,2.749,1.068l2.438-1.224
		l4.573,6.531l2.271-1.656l0.375,0.313l1.031-0.719l-2.469-1.344l4.313-2.438l-1.313-1.5l-3.469,2.094l-3.625-2.094l-1.698,0.563
		c0,0-1.146-0.313-1.458-0.781l0.625-1.188l-2.625,1.438l-0.458-0.25l0.108,0.499L50.202,40.086z"/>
	<path fill="#A0A0A0" d="M46.014,41.575v0.73l2.563,5.625l-0.531,2.063l-1-0.875v-0.875l-2.042-5.28l-0.708-0.907l0.156-0.656
		C44.451,41.399,45.514,41.188,46.014,41.575z"/>
	<polygon fill="#142344" points="54.253,40.215 53.92,40.086 52.378,40.888 52.951,41.263 54.497,40.215 	"/>
	<polygon fill="#4C4C4C" points="30.076,39.461 34.358,38.899 34.701,39.68 30.076,40.215 	"/>
	<path fill="#B5B5B6" d="M29.087,40.222l0.75-1.167l0.927,0.583l0.813,1.698l0.438-0.438l0.25-0.031l0.375,0.313l11.906-4.844h1.531
		l2.594,1.438l3.25,4.906l-3.094,3.781l-1.594-4.156c0,0-1.156-0.906-2.5-0.906l-12.5,3.281l-2-0.875l-1.505-2.656L29.087,40.222z"
		/>
	<path fill="#B5B5B6" d="M29.087,40.222c0,0-1.083-0.166-1.083,1.167v3.458l-0.583,0.833l0.583,0.958l0.25,3.875l-0.333,0.209
		l0.042,0.832l0.292,0.584v1l-0.833,0.666l-0.208,0.668l0.667,0.416l0.667,0.916l-0.125,1.168L29.09,58.1l2.205,1.293l0.792,0.25
		l1.792,1.084c0,0,1.667,0.75,3.708-2.541c0,0,2.917-3.959,2.75-4.375c0,0-0.167-0.459-1.5,1.125l-0.875-0.5
		c0,0,1.25-1.334,0.917-1.584c0,0-0.333-0.375-1.583,1.25l-0.792-0.5c0,0,1.417-1.709,0.958-1.75c0,0-0.5-0.043-1.667,1.375
		l-0.75-0.416c0,0,1.083-1.209,0.833-1.709c0,0-0.583-0.125-1.583,1.5l-0.333,0.084c0,0-0.75,1.123-2.125,1.291l0.625-9.417
		l-1.125-0.25l0.75-1.292l-1.708-2.167C30.378,40.851,29.962,40.259,29.087,40.222z"/>
	<path fill="#A0A0A0" d="M31.889,54.289c0,0,1.469-0.344,2.297-1.344l0.151,0.248c0,0-1,1.791-2.083,2.396l-0.063,0.072
		l-1.478,1.678h0.25l1.536-1.565l0.047,0.563c0,0-1.083,1.183-0.5,3.201l1.542,0.928c0,0-1.076-2,0.191-3.25
		c0,0,3.309,0.396,4.976-1.834l0.458-0.125l0.938-1.104l0.194-0.188v0.188l-2.257,3.291c0,0-2.021,3.48-4,3.355l-2.167-1.252
		l-0.854-0.25l-0.021-1.854h-0.5l1.645-1.783L31.889,54.289z"/>
	<path fill="#4C4C4C" d="M28.389,54.24c0,0,0.282,0.105,0.677,0v-2.791l-0.677,0.104V54.24z"/>
	<polygon fill="#A0A0A0" points="29.253,45.618 27.378,45.618 28.003,46.555 28.67,46.638 28.712,50.805 28.316,50.658 
		27.941,50.658 27.92,51.43 28.212,51.867 29.399,51.764 	"/>
	<path fill="#A0A0A0" d="M30.257,40.716c0,0-1.004,0.006-0.858,2.131l1.313,9.85l0.188,2.75h-0.756l-2.723-1.643l-0.208,0.668
		c0,0,1.208,0.37,1.333,1.204l1.479,0.875l2.166-0.891l-0.301-1.373l0.573-9.73l-1.125-0.25l0.75-1.292L30.257,40.716z"/>
	<polygon fill="#A0A0A0" points="33.639,57.18 32.462,56.441 32.545,56.336 33.778,57.215 33.705,57.293 	"/>
	<polygon fill="#A0A0A0" points="32.576,55.758 32.253,55.59 32.19,55.662 	"/>
	<polygon fill="#3D3D3D" points="47.878,50.805 49.128,43.722 49.753,43.097 55.378,39.68 59.462,41.972 59.962,42.638 
		59.962,50.305 53.17,54.473 49.045,52.264 	"/>
	<polygon fill="#A0A0A0" points="33.778,39.557 34.076,38.555 34.889,38.368 35.201,38.618 43.826,36.18 44.451,36.899 
		44.451,37.555 34.514,40.086 	"/>
	<polygon fill="#171735" points="34.358,42.743 44.451,39.397 44.451,40.953 34.358,43.868 	"/>
	<polygon fill="#4C4C4C" points="46.139,40.215 47.503,43.68 48.045,43.363 46.831,40.215 	"/>
	<polygon fill="#A0A0A0" points="45.233,39.68 45.483,38.899 46.108,38.899 47.045,40.086 46.42,40.461 45.92,40.461 	"/>
	<polygon fill="#A0A0A0" points="47.045,43.243 47.358,42.743 48.108,42.743 49.045,44.649 48.536,47.076 	"/>
	<polygon points="49.576,44.102 48.451,50.742 51.764,52.445 53.107,45.723 	"/>
	<polygon fill="#142344" points="49.545,44.211 48.295,50.742 51.607,52.367 52.951,45.836 	"/>
	<polygon points="54.139,46.091 53.42,49.766 53.42,49.993 57.17,48.024 57.357,47.774 57.498,44.594 57.217,44.594 	"/>
	<polygon fill="#142344" points="54.139,46.099 53.42,49.774 53.42,49.899 57.076,47.999 57.232,47.774 57.357,44.679 
		57.107,44.679 	"/>
	<polygon points="53.498,50.525 53.186,51.639 53.186,51.93 53.717,52.445 53.842,52.445 56.217,51.059 56.404,50.768 
		57.154,49.381 57.154,49.124 57.154,48.446 	"/>
	<polygon fill="#142344" points="53.42,50.508 53.107,51.586 53.107,51.867 53.639,52.367 53.764,52.367 56.139,51.023 
		56.326,50.742 57.076,49.399 57.076,49.149 57.076,48.493 	"/>
	<polygon fill="#303038" points="58.014,44.211 59.107,43.68 59.107,49.743 58.014,50.446 	"/>
	<polygon fill="#8E8E8E" points="50.337,43.097 53.754,44.731 55.941,43.68 52.337,41.951 	"/>
	<polygon fill="#8E8E8E" points="53.139,41.597 56.557,43.231 58.743,42.18 55.139,40.451 	"/>
	<path opacity="0.4" fill="#4C4C4C" enable-background="new    " d="M57.709,35.74l1.295-0.851c0,0,3.707,0.75,7.291,3l-2.125,1.229
		L57.709,35.74z"/>
	<polygon fill="#262626" points="60.128,47.763 60.128,50.43 68.087,45.667 68.087,43.097 	"/>
	<polyline fill="#142344" points="59.67,36.336 60.128,36.18 61.712,37.003 61.17,37.263 59.503,36.336 	"/>
	<polyline fill="#142344" points="62.753,38.044 63.211,37.888 64.795,38.711 64.253,38.972 62.586,38.044 	"/>
	<polyline fill="#142344" points="65.357,39.701 65.816,39.544 67.398,40.368 66.857,40.628 65.191,39.701 	"/>
	<polygon fill="#727272" points="54.497,57.139 63.962,51.777 63.962,52.68 54.497,58.098 	"/>
	<path fill="#727272" d="M66.712,50.508L65.67,50.93v1.084h0.521C66.191,52.014,67.837,50.666,66.712,50.508z"/>
	<polygon fill="#727272" points="44.451,51.777 44.451,53.723 45.061,53.852 	"/>
	<polygon fill="#191919" points="46.692,58.922 50.066,60.189 50.402,59.555 46.881,58.27 	"/>
	<polygon fill="#191919" points="47.368,57.363 51.023,58.713 51.336,58.377 47.578,57.076 	"/>
	<polygon fill="#191919" points="48.295,56.305 51.92,57.838 52.326,57.523 48.71,56.035 	"/>
	<polygon fill="#191919" points="49.904,55.299 53.529,56.83 53.936,56.516 50.318,55.029 	"/>
	<polygon fill="#191919" points="51.404,54.398 54.896,55.93 55.436,55.615 51.818,54.129 	"/>
	<path fill="#44597F" d="M52.545,46.01c0,0-2.521,1.48-3.969,4.66l3.031,1.344L52.545,46.01z"/>
	<path fill="#44597F" d="M56.623,45.301c0,0-1.547,3.672-2.688,4.15l2.688-1.521C56.623,47.93,57.159,45.88,56.623,45.301z"/>
	<path fill="#44597F" d="M56.371,49.415c0,0-1.337,2.056-2.436,2.599l1.816-1.033C55.754,50.98,56.521,50.385,56.371,49.415z"/>
	<g display="none">
		<path id="smoke_2" display="inline" fill="#666766" d="M66.838,48.515c0.199,0.299-0.301,0.599-0.301,0.599c0.5,0.602,0,1,0,1
			c-0.199,0.301-0.898,0-0.898,0c-0.199,0.602-0.801,0.5-0.801,0.5c-0.699,0-0.602-0.6-0.602-0.6c-0.604-0.101-0.5-0.5-0.5-0.5
			c0-0.3,0.602-0.3,0.602-0.3c-0.699-0.301-0.5-0.801-0.5-0.801c0.199-0.6,1-0.199,1-0.199c0.699-0.601,1.199,0.199,1.199,0.199
			C66.338,47.914,66.838,48.515,66.838,48.515z		">
<animateTransform  type="translate" fill="remove" attributeName="transform" dur="1" calcMode="linear" restart="always" values="0,0;2,-2" begin="0s" additive="replace" repeatCount="indefinite" accumulate="none" attributeType="XML">
				</animateTransform>
			
				<animate  fill="remove" to="0" attributeName="opacity" dur="1" calcMode="linear" restart="always" begin="0.5s" additive="replace" repeatCount="indefinite" accumulate="none" from="1">
				</animate>
		</path>
		<path id="smoke_1" display="inline" fill="#999999" d="M65.539,49.414c0.102,0.199-0.199,0.4-0.199,0.4c0.301,0.399,0,0.6,0,0.6
			c-0.102,0.199-0.5,0-0.5,0c-0.102,0.4-0.5,0.301-0.5,0.301c-0.4,0-0.4-0.4-0.4-0.4c-0.396-0.1-0.299-0.301-0.299-0.301
			c0-0.199,0.299-0.199,0.299-0.199c-0.5-0.2-0.299-0.5-0.299-0.5c0.104-0.399,0.604-0.1,0.604-0.1c0.396-0.301,0.694,0.1,0.694,0.1
			C65.238,49.113,65.539,49.414,65.539,49.414z		">
<animateTransform  type="translate" fill="remove" attributeName="transform" dur="0.5" calcMode="linear" restart="always" values="0,0;1,-1" begin="0s" additive="replace" repeatCount="indefinite" accumulate="none" attributeType="XML">
				</animateTransform>
			
				<animate  fill="remove" to="0" attributeName="opacity" dur="1" calcMode="linear" restart="always" begin="0.5s" additive="replace" repeatCount="indefinite" accumulate="none" from="1">
				</animate>
		</path>
	</g>
	
		<animateTransform  type="translate" fill="remove" attributeName="transform" dur="1" calcMode="linear" restart="always" values="0,0;0.1,0.1;0,0" begin="0s" additive="replace" repeatCount="indefinite" accumulate="none" attributeType="XML">
		</animateTransform>
	
		<animateTransform  type="translate" fill="remove" attributeName="transform" dur="1" calcMode="linear" restart="always" values="0,0;0.1,0.1;0,0" begin="0s" additive="replace" repeatCount="indefinite" accumulate="none" attributeType="XML">
		</animateTransform>
	<path fill="#8E8E8E" d="M49.951,60.455l1.094,0.693l0.844-0.349l0.438-1.09l-0.47-0.563l-0.719-0.375
		C51.139,58.773,49.826,58.887,49.951,60.455z"/>
	<polygon fill="#191919" points="46.647,59.961 49.699,61.348 49.645,61.777 46.72,60.402 	"/>
	<path id="parking" class="parking" d="M53.154,17.552l-9.925,0.146l-4.863,8.393l5.061,8.247l9.925-0.146l4.863-8.393L53.154,17.552z
		 M49.126,30.557c-0.078,0.056-0.208,0.083-0.39,0.083h-0.21H45.77h-0.16c-0.148,0-0.263-0.031-0.344-0.093
		c-0.08-0.062-0.12-0.15-0.12-0.265c0-0.188,0.082-0.313,0.247-0.372c0.136-0.05,0.216-0.081,0.238-0.093
		c0.022-0.011,0.046-0.037,0.071-0.079c0.049-0.073,0.074-0.189,0.074-0.351v-6.885c0-0.16-0.025-0.277-0.074-0.351
		c-0.025-0.041-0.049-0.067-0.071-0.079c-0.022-0.012-0.103-0.042-0.238-0.093c-0.165-0.06-0.247-0.184-0.247-0.371
		c0-0.115,0.04-0.203,0.12-0.266c0.081-0.062,0.195-0.093,0.344-0.093h0.16h2.751v8.082c0,0.179,0.03,0.307,0.092,0.385
		c0.033,0.046,0.064,0.075,0.093,0.086c0.029,0.012,0.124,0.04,0.285,0.086c0.197,0.051,0.296,0.177,0.296,0.379
		C49.286,30.388,49.232,30.483,49.126,30.557z M52.02,25.805c-0.279,0.444-0.672,0.772-1.176,0.983
		c-0.416,0.17-1.016,0.255-1.799,0.255v-0.736c0.178-0.046,0.303-0.094,0.374-0.145c0.072-0.051,0.136-0.128,0.188-0.233
		c0.087-0.18,0.13-0.42,0.13-0.723v-2.201c0-0.215-0.014-0.376-0.043-0.481c-0.029-0.105-0.087-0.201-0.173-0.289
		c-0.12-0.128-0.28-0.208-0.482-0.24v-0.743c0.849,0,1.477,0.09,1.879,0.269c0.466,0.206,0.834,0.522,1.105,0.949
		c0.275,0.437,0.414,0.97,0.414,1.604C52.438,24.777,52.299,25.355,52.02,25.805z"/>
</g>
<g id="Direction">
	<g transform="rotate({{angle}} 50 50)">
		<polygon id="arrow" class="arrow" opacity="0.7" enable-background="new    " points="59.7,31.4 50.8,24 41.9,31.3 41.9,35.4 42,35.4 50.8,28.1 
			59.3,35.4 59.7,35.4 		">
		
			<animate  fill="remove" attributeName="opacity" dur="0.5s" calcMode="linear" restart="always" values="0.5; 0" begin="0s;anim_arrow3.end" additive="replace" accumulate="none" id="anim_arrow1">
			</animate>
		</polygon>
		<polygon id="arrow2" class="arrow" opacity="0.7" enable-background="new    " points="59.8,26.4 50.9,19 42,26.4 42,30.4 42.1,30.4 50.9,23.2 
			59.4,30.4 59.8,30.4 		">
		
			<animate  fill="remove" attributeName="opacity" dur="0.5s" calcMode="linear" restart="always" values="0.5; 0" begin="anim_arrow1.end" additive="replace" accumulate="none" id="anim_arrow2">
			</animate>
		</polygon>
		<polygon id="arrow3" class="arrow" opacity="0.7" enable-background="new    " points="59.9,21.4 51,14.1 42.1,21.4 42.1,25.5 42.2,25.5 
			51,18.2 59.5,25.5 59.9,25.5 		">
		
			<animate  fill="remove" attributeName="opacity" dur="0.5s" calcMode="linear" restart="always" values="0.5; 0" begin="anim_arrow2.end" additive="replace" accumulate="none" id="anim_arrow3">
			</animate>
		</polygon>
	</g>
</g>
<path id="Idle" class="hourglass" d="M53.133,17.539l-9.926,0.173l-4.841,8.392l5.084,8.247l9.901-0.146l4.863-8.433L53.133,17.539z M49.528,30.516
	l-2.625,0.005c0,0-0.5,0.019-0.516-0.293c0,0-0.031-0.281,0.375-0.391c0,0,0.234,0.016,0.25-0.453l-0.031-5.906
	c0,0,0.047-0.266-0.359-0.344c0,0-0.268-0.109-0.235-0.391c0,0,0.11-0.172,0.329-0.25h3.125c0,0,0.328,0.031,0.344,0.281
	c0,0,0.031,0.313-0.313,0.359c0,0-0.359,0.109-0.266,0.656l-0.031,5.641c0,0,0.031,0.422,0.328,0.438c0,0,0.361,0.063,0.282,0.484
	C50.186,30.353,50.091,30.555,49.528,30.516z"/>
</svg>
