<?xml version="1.0" encoding="utf-8"?>
<!-- Generator: Adobe Illustrator 16.0.0, SVG Export Plug-In . SVG Version: 6.00 Build 0)  -->
<!DOCTYPE svg PUBLIC "-//W3C//DTD SVG 1.1//EN" "http://www.w3.org/Graphics/SVG/1.1/DTD/svg11.dtd">
<svg version="1.1" id="Layer_1" xmlns="http://www.w3.org/2000/svg" xmlns:xlink="http://www.w3.org/1999/xlink" x="0px" y="0px"
	 width="100px" height="100px" viewBox="0 0 100 100" enable-background="new 0 0 100 100" xml:space="preserve">

	 <style type="text/css">
	  .arrow{fill:{{statusColor}};display:{{arrowDisplay}}}
	  .hourglass{fill:{{hourglassColor}};display:{{hourglassDisplay}}}
    .parking{display:{{parkingDisplay}};fill:{{parkingColor}}}
	 </style>
	}

<g transform="translate({{translateX}},0) scale({{scaleX}},1)">
	<g id="Tire_1_">
		<path fill="#141318" d="M62.378,52.41c-0.418,1.313-1.69,2.549-2.854,2.75c-1.151,0.209-1.75-0.697-1.332-2.012
			c0.418-1.315,1.691-2.549,2.854-2.75C62.206,50.199,62.796,51.107,62.378,52.41z"/>
		<path fill="#121332" d="M62.598,52.598c-0.408,1.307-1.673,2.531-2.814,2.734c-1.145,0.203-1.734-0.697-1.324-2.012
			c0.41-1.307,1.672-2.531,2.816-2.732C62.417,50.386,63.009,51.285,62.598,52.598z"/>
		<path fill="#141318" d="M62.954,52.766c-0.42,1.314-1.695,2.549-2.854,2.748c-1.151,0.209-1.75-0.695-1.334-2.01
			c0.42-1.313,1.693-2.549,2.854-2.75C62.777,50.553,63.37,51.459,62.954,52.766z"/>
		<path fill="#121332" d="M63.169,52.953c-0.41,1.305-1.672,2.531-2.813,2.73c-1.146,0.202-1.734-0.693-1.324-2.011
			c0.41-1.307,1.672-2.53,2.814-2.731C62.991,50.74,63.581,51.645,63.169,52.953z"/>
		<path fill="#141318" d="M63.439,53.078c-0.418,1.313-1.692,2.547-2.854,2.748c-1.149,0.207-1.752-0.697-1.332-2.01
			c0.416-1.316,1.692-2.551,2.854-2.75C63.268,50.867,63.859,51.764,63.439,53.078z"/>
		<path fill="#121332" d="M63.659,53.264c-0.408,1.307-1.673,2.531-2.816,2.734c-1.145,0.201-1.731-0.697-1.321-2.012
			c0.408-1.307,1.674-2.529,2.815-2.732C63.479,51.053,64.07,51.959,63.659,53.264z"/>
		<path fill="#141318" d="M63.729,53.363c-0.396,1.299-1.617,2.504-2.725,2.699c-1.104,0.19-1.682-0.695-1.285-1.994
			c0.396-1.301,1.615-2.504,2.723-2.699C63.555,51.176,64.13,52.066,63.729,53.363z"/>
		<path fill="#121332" d="M63.454,53.492c-0.334,1.096-1.358,2.115-2.295,2.273c-0.933,0.172-1.421-0.591-1.084-1.679
			c0.336-1.101,1.358-2.116,2.295-2.274C63.3,51.654,63.788,52.404,63.454,53.492z"/>
		<path fill="#CDCCCC" d="M63.091,53.469c-0.271,0.877-1.096,1.689-1.844,1.824c-0.759,0.135-1.146-0.469-0.879-1.35
			c0.271-0.879,1.096-1.689,1.846-1.826C62.964,51.994,63.357,52.598,63.091,53.469z"/>
		<path fill="#989898" d="M62.741,53.471c-0.218,0.713-0.884,1.373-1.49,1.479s-0.928-0.375-0.711-1.091
			c0.219-0.711,0.883-1.37,1.489-1.479C62.637,52.275,62.954,52.766,62.741,53.471z"/>
		<path fill="#CDCCCC" d="M62.438,53.572c-0.16,0.523-0.652,1.006-1.099,1.086c-0.44,0.072-0.678-0.283-0.519-0.809
			c0.162-0.523,0.65-1.007,1.099-1.086C62.372,52.691,62.604,53.053,62.438,53.572z"/>
		<g id="Tire_Hole_1_">
			<path fill="#010101" d="M61.925,53.619c-0.053,0.168-0.198,0.313-0.342,0.342c-0.144,0.021-0.217-0.088-0.166-0.252
				c0.054-0.168,0.201-0.316,0.342-0.344C61.898,53.34,61.966,53.451,61.925,53.619z"/>
			<path fill="#010101" d="M61.788,53.086c-0.033,0.092-0.111,0.172-0.188,0.188c-0.08,0.013-0.115-0.049-0.092-0.139
				c0.033-0.094,0.111-0.174,0.189-0.188C61.777,52.936,61.814,52.996,61.788,53.086z"/>
			<path fill="#010101" d="M62.323,53.137c-0.031,0.092-0.111,0.172-0.189,0.187c-0.075,0.014-0.112-0.048-0.088-0.14
				c0.033-0.094,0.111-0.174,0.188-0.188C62.311,52.984,62.348,53.047,62.323,53.137z"/>
			<path fill="#010101" d="M62.309,53.703c-0.033,0.092-0.111,0.174-0.189,0.186c-0.076,0.014-0.115-0.045-0.09-0.139
				c0.033-0.092,0.113-0.172,0.188-0.186C62.296,53.553,62.337,53.611,62.309,53.703z"/>
			<path fill="#010101" d="M61.794,54.203c-0.032,0.092-0.108,0.174-0.188,0.188c-0.078,0.012-0.114-0.049-0.09-0.139
				c0.031-0.094,0.111-0.174,0.188-0.188C61.779,54.053,61.818,54.115,61.794,54.203z"/>
			<path fill="#010101" d="M61.229,54.191c-0.033,0.094-0.113,0.174-0.189,0.188c-0.078,0.014-0.117-0.047-0.09-0.139
				c0.033-0.092,0.111-0.172,0.188-0.188C61.214,54.041,61.253,54.102,61.229,54.191z"/>
			<path fill="#010101" d="M61.238,53.633c-0.032,0.092-0.11,0.174-0.188,0.188c-0.077,0.015-0.112-0.047-0.09-0.139
				c0.033-0.094,0.11-0.174,0.188-0.188C61.229,53.482,61.264,53.543,61.238,53.633z"/>
		</g>
	</g>
	<g id="Tire_2_">
		<path fill="#141318" d="M67.995,48.75c-0.418,1.313-1.693,2.549-2.854,2.749c-1.151,0.209-1.75-0.697-1.332-2.01
			c0.418-1.313,1.691-2.548,2.854-2.75C67.823,46.539,68.413,47.446,67.995,48.75z"/>
		<path fill="#121332" d="M68.214,48.937c-0.409,1.307-1.672,2.532-2.813,2.733c-1.146,0.203-1.734-0.695-1.324-2.01
			c0.41-1.307,1.672-2.531,2.816-2.733C68.034,46.725,68.628,47.624,68.214,48.937z"/>
		<path fill="#141318" d="M68.57,49.105c-0.42,1.313-1.694,2.549-2.854,2.749c-1.149,0.209-1.75-0.696-1.334-2.011
			c0.42-1.313,1.695-2.548,2.854-2.749C68.396,46.891,68.986,47.798,68.57,49.105z"/>
		<path fill="#121332" d="M68.786,49.292c-0.41,1.304-1.672,2.531-2.815,2.733c-1.146,0.199-1.732-0.696-1.322-2.012
			c0.41-1.305,1.672-2.529,2.813-2.732C68.607,47.079,69.198,47.983,68.786,49.292z"/>
		<path fill="#141318" d="M69.057,49.417c-0.418,1.313-1.691,2.546-2.854,2.748c-1.152,0.209-1.752-0.697-1.334-2.01
			c0.418-1.314,1.694-2.548,2.854-2.749C68.884,47.206,69.479,48.102,69.057,49.417z"/>
		<path fill="#121332" d="M69.275,49.603c-0.407,1.305-1.672,2.532-2.815,2.735c-1.146,0.201-1.731-0.697-1.323-2.012
			c0.409-1.305,1.676-2.53,2.817-2.733C69.096,47.392,69.688,48.297,69.275,49.603z"/>
		<path fill="#141318" d="M69.346,49.701c-0.396,1.301-1.615,2.506-2.724,2.699c-1.104,0.191-1.683-0.692-1.285-1.992
			c0.396-1.301,1.615-2.505,2.724-2.699C69.171,47.514,69.749,48.404,69.346,49.701z"/>
		<path fill="#121332" d="M69.07,49.831c-0.334,1.095-1.358,2.114-2.295,2.276c-0.934,0.168-1.42-0.594-1.084-1.681
			c0.336-1.099,1.359-2.116,2.295-2.277C68.919,47.993,69.404,48.742,69.07,49.831z"/>
		<path fill="#CDCCCC" d="M68.708,49.807c-0.271,0.878-1.095,1.689-1.842,1.826c-0.759,0.135-1.146-0.471-0.88-1.352
			c0.271-0.879,1.097-1.688,1.845-1.824C68.581,48.333,68.977,48.937,68.708,49.807z"/>
		<path fill="#989898" d="M68.357,49.809c-0.217,0.714-0.883,1.373-1.489,1.48c-0.609,0.107-0.929-0.377-0.711-1.09
			c0.219-0.713,0.883-1.373,1.489-1.479C68.254,48.614,68.57,49.105,68.357,49.809z"/>
		<path fill="#CDCCCC" d="M68.052,49.912c-0.157,0.522-0.649,1.004-1.096,1.086c-0.442,0.07-0.679-0.283-0.519-0.809
			c0.162-0.524,0.65-1.006,1.099-1.084C67.988,49.029,68.221,49.391,68.052,49.912z"/>
		<g id="Tire_Hole_2_">
			<path fill="#010101" d="M67.542,49.958c-0.051,0.169-0.199,0.315-0.34,0.343c-0.144,0.02-0.218-0.088-0.168-0.253
				c0.053-0.168,0.202-0.315,0.342-0.343C67.518,49.678,67.585,49.791,67.542,49.958z"/>
			<path fill="#010101" d="M67.404,49.425c-0.032,0.092-0.11,0.172-0.188,0.186c-0.08,0.014-0.112-0.047-0.09-0.138
				c0.033-0.094,0.11-0.174,0.188-0.188C67.396,49.275,67.432,49.334,67.404,49.425z"/>
			<path fill="#010101" d="M67.939,49.475c-0.03,0.093-0.11,0.173-0.188,0.185c-0.078,0.015-0.114-0.045-0.088-0.137
				c0.032-0.094,0.11-0.174,0.188-0.188C67.927,49.322,67.964,49.386,67.939,49.475z"/>
			<path fill="#010101" d="M67.925,50.042c-0.032,0.093-0.11,0.174-0.188,0.186c-0.076,0.015-0.115-0.045-0.09-0.138
				c0.033-0.092,0.11-0.173,0.188-0.186C67.913,49.89,67.954,49.951,67.925,50.042z"/>
			<path fill="#010101" d="M67.411,50.543c-0.033,0.092-0.111,0.174-0.188,0.188c-0.076,0.013-0.113-0.049-0.091-0.141
				c0.033-0.092,0.113-0.173,0.188-0.186C67.396,50.392,67.438,50.455,67.411,50.543z"/>
			<path fill="#010101" d="M66.843,50.529c-0.03,0.094-0.11,0.174-0.188,0.188c-0.077,0.014-0.116-0.047-0.09-0.141
				c0.031-0.092,0.109-0.172,0.188-0.187C66.833,50.38,66.87,50.441,66.843,50.529z"/>
			<path fill="#010101" d="M66.855,49.972c-0.032,0.092-0.11,0.174-0.188,0.186c-0.078,0.015-0.115-0.047-0.09-0.137
				c0.032-0.095,0.11-0.175,0.188-0.188C66.846,49.82,66.88,49.882,66.855,49.972z"/>
		</g>
	</g>
	<g id="Tire">
		<path fill="#141318" d="M45.947,60.873c-0.418,1.314-1.693,2.549-2.855,2.75c-1.151,0.209-1.75-0.697-1.332-2.012
			c0.418-1.315,1.693-2.547,2.854-2.748C45.776,58.662,46.365,59.57,45.947,60.873z"/>
		<path fill="#121332" d="M46.167,61.061c-0.41,1.308-1.673,2.531-2.816,2.734c-1.145,0.203-1.734-0.697-1.324-2.012
			c0.41-1.307,1.672-2.531,2.816-2.732C45.985,58.85,46.58,59.748,46.167,61.061z"/>
		<path fill="#141318" d="M46.523,61.23c-0.418,1.313-1.694,2.547-2.855,2.746c-1.152,0.209-1.75-0.695-1.332-2.011
			c0.418-1.313,1.693-2.549,2.854-2.75C46.347,59.016,46.94,59.922,46.523,61.23z"/>
		<path fill="#121332" d="M46.738,61.416c-0.41,1.305-1.672,2.531-2.816,2.732s-1.733-0.695-1.324-2.013
			c0.41-1.305,1.673-2.528,2.816-2.731C46.561,59.203,47.151,60.107,46.738,61.416z"/>
		<path fill="#141318" d="M47.009,61.541c-0.418,1.313-1.693,2.547-2.854,2.748c-1.152,0.207-1.751-0.697-1.333-2.01
			c0.417-1.316,1.694-2.549,2.854-2.75C46.837,59.33,47.429,60.227,47.009,61.541z"/>
		<path fill="#121332" d="M47.229,61.727c-0.41,1.308-1.672,2.531-2.815,2.734c-1.146,0.201-1.734-0.697-1.326-2.012
			c0.41-1.307,1.674-2.529,2.817-2.732C47.048,59.516,47.641,60.422,47.229,61.727z"/>
		<path fill="#141318" d="M47.298,61.826c-0.396,1.299-1.616,2.504-2.723,2.699c-1.104,0.19-1.681-0.695-1.287-1.994
			c0.396-1.299,1.616-2.504,2.721-2.699C47.125,59.639,47.701,60.529,47.298,61.826z"/>
		<path fill="#121332" d="M47.023,61.955c-0.334,1.096-1.359,2.115-2.294,2.275c-0.933,0.17-1.42-0.592-1.083-1.681
			c0.334-1.1,1.359-2.116,2.294-2.274C46.871,60.117,47.357,60.865,47.023,61.955z"/>
		<path fill="#CDCCCC" d="M46.661,61.932c-0.27,0.877-1.094,1.689-1.843,1.824c-0.757,0.135-1.146-0.469-0.878-1.35
			c0.271-0.879,1.094-1.689,1.844-1.826C46.532,60.457,46.927,61.063,46.661,61.932z"/>
		<path fill="#989898" d="M46.311,61.934c-0.216,0.713-0.884,1.373-1.49,1.479c-0.608,0.104-0.929-0.375-0.71-1.09
			c0.218-0.712,0.883-1.371,1.49-1.48C46.207,60.736,46.523,61.23,46.311,61.934z"/>
		<path fill="#CDCCCC" d="M46.005,62.035c-0.16,0.523-0.651,1.006-1.096,1.086c-0.443,0.072-0.679-0.283-0.517-0.807
			c0.161-0.525,0.651-1.008,1.096-1.088C45.942,61.154,46.173,61.516,46.005,62.035z"/>
		<g id="Tire_Hole">
			<path fill="#010101" d="M45.495,62.082c-0.052,0.168-0.2,0.314-0.341,0.342c-0.143,0.021-0.216-0.088-0.167-0.252
				c0.054-0.168,0.202-0.314,0.342-0.344C45.468,61.803,45.536,61.914,45.495,62.082z"/>
			<path fill="#010101" d="M45.357,61.549c-0.033,0.092-0.112,0.172-0.189,0.188c-0.08,0.013-0.115-0.047-0.09-0.139
				c0.033-0.094,0.111-0.174,0.189-0.188C45.347,61.398,45.384,61.459,45.357,61.549z"/>
			<path fill="#010101" d="M45.893,61.6c-0.033,0.092-0.112,0.172-0.189,0.187c-0.077,0.014-0.114-0.047-0.089-0.14
				c0.033-0.094,0.112-0.174,0.189-0.188C45.88,61.447,45.917,61.51,45.893,61.6z"/>
			<path fill="#010101" d="M45.878,62.166c-0.033,0.092-0.112,0.174-0.189,0.186c-0.078,0.015-0.115-0.045-0.09-0.139
				c0.033-0.092,0.111-0.172,0.189-0.186C45.865,62.016,45.905,62.074,45.878,62.166z"/>
			<path fill="#010101" d="M45.364,62.666c-0.034,0.092-0.112,0.174-0.19,0.188c-0.078,0.013-0.114-0.049-0.088-0.139
				c0.032-0.094,0.111-0.174,0.188-0.188C45.35,62.516,45.388,62.578,45.364,62.666z"/>
			<path fill="#010101" d="M44.796,62.654c-0.033,0.094-0.112,0.174-0.189,0.188c-0.078,0.014-0.116-0.047-0.09-0.141
				c0.033-0.092,0.111-0.172,0.189-0.188C44.785,62.504,44.821,62.564,44.796,62.654z"/>
			<path fill="#010101" d="M44.809,62.096c-0.033,0.094-0.112,0.174-0.19,0.188c-0.078,0.014-0.115-0.048-0.089-0.14
				c0.033-0.094,0.112-0.174,0.19-0.188C44.798,61.945,44.833,62.006,44.809,62.096z"/>
		</g>
	</g>
	<polygon fill="#161616" points="62.915,50.227 64.536,51.352 64.896,51.352 65.333,51.066 65.632,49.916 66.458,49.081 
		68.552,47.78 68.999,47.946 69.438,48.24 69.762,48.167 69.979,47.946 70.018,47.063 69.762,46.77 68.71,46.272 	"/>
	<polygon fill="#2D2D2D" points="56.514,54.141 58.374,55.414 58.79,55.414 59.29,55.09 59.632,53.787 60.581,52.844 62.984,51.371 
		63.499,51.559 63.999,51.891 64.374,51.809 64.624,51.559 64.665,50.559 64.374,50.225 63.165,49.663 	"/>
	<polygon fill="#9A9A9B" points="54.083,56.059 72.516,44.266 72.79,42.87 71.352,42.643 53.04,52.828 	"/>
	<polygon fill="#191919" points="47.821,61.756 55.165,57.006 55.331,54.488 52.861,52.844 46.696,57.121 	"/>
	<polygon fill="#B5B5B5" points="46.477,46.375 62.229,37.12 72.79,42.87 54.001,54.461 54.001,51.121 	"/>
	<polygon fill="#999999" points="46.779,46.935 47.691,46.411 56.355,51.264 55.454,51.828 	"/>
	<polygon fill="#999999" points="49.319,45.38 50.231,44.857 58.896,49.708 57.995,50.273 	"/>
	<polygon fill="#999999" points="51.927,43.812 52.839,43.288 61.505,48.139 60.604,48.703 	"/>
	<polyline fill="#4C4C4C" points="43.225,45.85 44.643,45.308 45.457,45.85 54.622,50.846 54.622,54.746 47.373,59.287 
		43.225,46.12 	"/>
	<polygon fill="#2D2D2D" points="54.622,50.846 45.257,56.201 46.882,58.848 48.188,58.777 54.622,54.746 	"/>
	<path fill="#B5B5B5" d="M32.998,46.663l5.25-3.375h0.75l8.75,4.915l0.209,0.875v12.086l-0.418,0.414c0,0,0.209-3.916-2.416-2.125
		c0,0-2.523,1.375-2.263,4.668l-2.384,1.5c0,0-0.979,0.416-3.104-0.793l-6.625-4.125V52.17
		C30.748,52.168,30.998,48.914,32.998,46.663z"/>
	<path opacity="0.7" fill="#999999" enable-background="new    " d="M37.582,64.943v-1.361l1.432,0.613l0.578,0.582l0.709-1.215
		c0,0,0.176-2.379,0.051-4.824l0.271-4.275l0.416-1.521l6.709-4.733l0.207,0.875v12.083l-0.416,0.416c0,0,0.219-3.941-2.418-2.125
		c0,0-2.533,1.418-2.262,4.668l-2.384,1.5C40.477,65.621,39.657,65.979,37.582,64.943z"/>
	<path d="M23.778,53.965l0.138,3.469l0.844,0.5c0.063,0.719-0.281,1.219-0.281,1.219c-0.438,1.031-1.688,0.438-1.688,0.438v-1.094
		l0.5,0.03c0.155,0.688,0.594,0.404,0.594,0.404c0.406-0.563-0.375-1.313-0.375-1.313v-3.656h0.269L23.778,53.965L23.778,53.965z"/>
	<polygon fill="#4C4C4C" points="41.611,44.151 41.611,41 42.373,40.61 42.861,40.944 42.861,44.421 42.445,44.675 	"/>
	<path fill="#7F7F7F" d="M40.171,63.943c0,0,1.054-0.445,2.69-3.236c0,0,0.638-1.168,3.429-2.543l1.666-0.863l0.584,0.291
		l-0.168,4.281l-0.783-0.135c0,0,0.076-3.002-1.799-2.268c0,0-3.043,0.713-2.896,4.983c0,0-2.032,2.125-3.881,1.541l-8.264-4.781
		l-0.104-0.274v-2.025l0.104-0.291L40.171,63.943z"/>
	<path fill="#434F6B" d="M31.041,54.246l-0.059-2.182l0.4-2.708c0,0,7.035,4,8.324,5.13l0.92-0.026l-0.274,4.274
		c0,0,0.019,0.429-0.349,0.326L31.041,54.246z"/>
	<polygon fill="#2D2D2D" points="33.019,51.121 40.585,55.09 41.041,52.938 34.207,49.246 	"/>
	<path fill="#D8D8D8" d="M22.602,54.059c0,0,0-0.813,1.125-1.438l44.938-23.626l1.313,0.875v2.125L34.666,50.308
		C34.666,50.308,23.623,55.996,22.602,54.059z"/>
	<path fill="#B5B5B5" d="M22.352,56.277l0.438-0.5l1.977-0.844l0.148,1.344l-1.563,1.313C23.352,57.59,22.166,57.434,22.352,56.277z
		"/>
	<polygon points="25.166,54.246 25.791,52.809 27.477,52.215 26.894,53.746 	"/>
	<polygon points="28.071,53.23 28.602,51.715 29.696,51.121 29.1,52.875 	"/>
	<polygon points="32.019,51.6 32.457,50.131 33.394,49.57 32.809,51.221 	"/>
	<polygon fill="#BFBFBF" points="59.882,40.87 54.001,37.12 54.001,34.433 63.979,28.995 71.604,33.913 	"/>
	<polygon points="30.132,52.441 30.791,50.705 31.832,50.163 31.114,52.006 	"/>
	<polygon fill="#333333" points="34.332,50.584 69.979,32.245 70.249,29.786 68.814,28.777 32.998,47.411 35.166,48.328 	"/>
	<polygon fill="#606060" points="24.766,52.441 60.124,33.913 60.956,34.245 24.916,52.662 	"/>
	<ellipse fill="#5B5B5B" cx="62.663" cy="42.642" rx="6.151" ry="3.732"/>
	<path fill="#D8D8D8" d="M56.956,43.288c0,0,0.414-8.354,7.459-9.104c0,0,1.069-0.227,1.194,0.211l4.367-2.148l3.563,2.25
		l1.938,1.313v2.5l-12.875,9.188L56.956,43.288z"/>
	<polygon fill="#2D2D2D" points="31.232,55.684 39.352,60.205 39.269,61.756 37.582,61.871 32.248,58.889 31.232,57.531 	"/>
	<path d="M32.033,61.861l0.04-1.719l5.306,3.071l-0.061,1.677L32.033,61.861z"/>
	<path fill="#ADADAD" d="M75.479,38.308v-2.5l-5.097,2.688c0,0-0.896-2.618-4.219,0c0,0-3.125,2.781-3.563,9L75.479,38.308z"/>
	<polygon fill="#434F6B" points="41.332,54.461 41.196,57.006 41.332,57.412 44.623,55.225 44.623,52.441 	"/>
	<path fill="#434F6B" d="M60.956,35.338c0,0-3.781,1.971-3.949,7.302l4.99,3.627c0,0,0.293-5.25,3.512-7.938L60.956,35.338z"/>
	<path fill="#434F6B" d="M66.165,38.495c0,0-3.406,2.91-3.5,7.879l3.5-4.837V38.495z"/>
	<polygon fill="#F2F2F2" points="38.169,63.787 38.169,64.955 39.013,65.412 39.013,64.195 	"/>
	<polygon fill="#F2F2F2" points="30.925,59.471 31.55,59.814 31.55,60.939 30.916,60.615 	"/>
	<path fill="#050505" d="M67.62,37.591l0.146,6.219l1.133-0.809l-0.159-5.67C68.738,37.333,68.206,37.291,67.62,37.591z"/>
	<polygon fill="#232323" points="40.979,53.225 41.541,53.434 41.259,57.58 40.769,57.412 40.769,57.58 41.416,57.768 
		41.416,56.725 41.916,56.943 42.061,54.926 41.602,54.725 41.666,53.35 40.998,53.059 	"/>
	<polygon fill="#9A9A9B" points="31.365,56.07 39.218,60.508 39.218,60.791 31.365,56.363 	"/>
	<polygon fill="#9A9A9B" points="31.365,56.928 39.218,61.365 39.218,61.648 31.365,57.221 	"/>
	<polygon fill="#4C4C4C" points="44.416,45.85 44.416,42.698 45.175,42.309 45.666,42.643 45.666,46.12 45.25,46.375 	"/>
	<path fill="#7685A5" d="M40.446,55.09l-0.375,3.342l-0.155,0.346l-8.084-4.313C31.832,54.461,32.071,52.217,40.446,55.09z"/>
	<path fill="#7685A5" d="M43.977,53.23c0,0-1.041,0.768-1.208,2.643v0.391l1.677-1.172v-2.428L43.977,53.23z"/>
	<path fill="#7685A5" d="M65.04,38.203c0,0-0.028,0-0.086,0.001c-0.795,0.019-6.851,0.295-7.707,4.438l4.313,2.957
		C61.561,45.599,60.456,43.328,65.04,38.203z"/>
	<path fill="#7685A5" d="M65.747,39.852l-0.238,1.646l-1.094,1.792C64.415,43.288,65.122,40.542,65.747,39.852z"/>
	<polygon fill="#5B5B5B" points="49.798,57.768 50.206,57.975 50.206,60.213 50.706,59.891 50.706,57.684 50.253,57.484 	"/>
	<polygon fill="#5B5B5B" points="52.587,55.996 52.993,56.205 52.993,58.443 53.493,58.119 53.493,55.912 53.04,55.713 	"/>
	<g display="none">
		<path id="smoke_2" display="inline" fill="#666766" d="M66.838,48.515c0.199,0.299-0.301,0.599-0.301,0.599c0.5,0.602,0,1,0,1
			c-0.199,0.301-0.898,0-0.898,0c-0.199,0.602-0.801,0.5-0.801,0.5c-0.699,0-0.602-0.6-0.602-0.6c-0.604-0.101-0.5-0.5-0.5-0.5
			c0-0.3,0.602-0.3,0.602-0.3c-0.699-0.301-0.5-0.801-0.5-0.801c0.199-0.6,1-0.199,1-0.199c0.699-0.601,1.199,0.199,1.199,0.199
			C66.338,47.914,66.838,48.515,66.838,48.515z		">
<animateTransform  type="translate" fill="remove" attributeName="transform" dur="1" calcMode="linear" restart="always" values="0,0;2,-2" begin="0s" additive="replace" repeatCount="indefinite" accumulate="none" attributeType="XML">
				</animateTransform>
			
				<animate  fill="remove" to="0" attributeName="opacity" dur="1" calcMode="linear" restart="always" begin="0.5s" additive="replace" repeatCount="indefinite" accumulate="none" from="1">
				</animate>
		</path>
		<path id="smoke_1" display="inline" fill="#999999" d="M65.539,49.414c0.102,0.199-0.199,0.4-0.199,0.4c0.301,0.399,0,0.6,0,0.6
			c-0.102,0.199-0.5,0-0.5,0c-0.102,0.4-0.5,0.301-0.5,0.301c-0.4,0-0.4-0.4-0.4-0.4c-0.396-0.1-0.299-0.301-0.299-0.301
			c0-0.199,0.299-0.199,0.299-0.199c-0.5-0.2-0.299-0.5-0.299-0.5c0.104-0.399,0.604-0.1,0.604-0.1c0.396-0.301,0.694,0.1,0.694,0.1
			C65.238,49.113,65.539,49.414,65.539,49.414z		">
<animateTransform  type="translate" fill="remove" attributeName="transform" dur="0.5" calcMode="linear" restart="always" values="0,0;1,-1" begin="0s" additive="replace" repeatCount="indefinite" accumulate="none" attributeType="XML">
				</animateTransform>
			
				<animate  fill="remove" to="0" attributeName="opacity" dur="1" calcMode="linear" restart="always" begin="0.5s" additive="replace" repeatCount="indefinite" accumulate="none" from="1">
				</animate>
		</path>
	</g>
	
		<image display="none" overflow="visible" enable-background="new    " width="91" height="90" xlink:href="../../../../../References/ambulansya.jpg"  transform="matrix(0.4888 0 0 0.4888 29.5938 34.5625)">
	</image>
	
		<animateTransform  type="translate" fill="remove" attributeName="transform" dur="1" calcMode="linear" restart="always" values="0,0;0.1,0.1;0,0" begin="0s" additive="replace" repeatCount="indefinite" accumulate="none" attributeType="XML">
		</animateTransform>
	
		<animateTransform  type="translate" fill="remove" attributeName="transform" dur="1" calcMode="linear" restart="always" values="0,0;0.1,0.1;0,0" begin="0s" additive="replace" repeatCount="indefinite" accumulate="none" attributeType="XML">
		</animateTransform>
	<g id="Direction">
		<g transform="rotate({{angle}} 50 50)">
			<polygon id="arrow" class="arrow" opacity="0.7" enable-background="new    " points="59.7,31.4 50.8,24 41.9,31.3 41.9,35.4 42,35.4 
				50.8,28.1 59.3,35.4 59.7,35.4 			">
			
				<animate  fill="remove" attributeName="opacity" dur="0.5s" calcMode="linear" restart="always" values="0.5; 0" begin="0s;anim_arrow3.end" additive="replace" accumulate="none" id="anim_arrow1">
				</animate>
			</polygon>
			<polygon id="arrow2" class="arrow" opacity="0.7" enable-background="new    " points="59.8,26.4 50.9,19 42,26.4 42,30.4 42.1,30.4 50.9,23.2 
				59.4,30.4 59.8,30.4 			">
			
				<animate  fill="remove" attributeName="opacity" dur="0.5s" calcMode="linear" restart="always" values="0.5; 0" begin="anim_arrow1.end" additive="replace" accumulate="none" id="anim_arrow2">
				</animate>
			</polygon>
			<polygon id="arrow3" class="arrow" opacity="0.7" enable-background="new    " points="59.9,21.4 51,14.1 42.1,21.4 42.1,25.5 42.2,25.5 
				51,18.2 59.5,25.5 59.9,25.5 			">
			
				<animate  fill="remove" attributeName="opacity" dur="0.5s" calcMode="linear" restart="always" values="0.5; 0" begin="anim_arrow2.end" additive="replace" accumulate="none" id="anim_arrow3">
				</animate>
			</polygon>
		</g>
	</g>
	<path id="parking" class="parking" d="M53.154,17.552l-9.925,0.146l-4.863,8.393l5.061,8.247l9.925-0.146l4.863-8.393L53.154,17.552z
		 M49.126,30.557c-0.078,0.056-0.208,0.083-0.39,0.083h-0.21H45.77h-0.16c-0.148,0-0.263-0.031-0.344-0.093
		c-0.08-0.062-0.12-0.15-0.12-0.265c0-0.188,0.082-0.313,0.247-0.372c0.136-0.05,0.216-0.081,0.238-0.093
		c0.022-0.011,0.046-0.037,0.071-0.079c0.049-0.073,0.074-0.189,0.074-0.351v-6.885c0-0.16-0.025-0.277-0.074-0.351
		c-0.025-0.041-0.049-0.067-0.071-0.079c-0.022-0.012-0.103-0.042-0.238-0.093c-0.165-0.06-0.247-0.184-0.247-0.371
		c0-0.115,0.04-0.203,0.12-0.266c0.081-0.062,0.195-0.093,0.344-0.093h0.16h2.751v8.082c0,0.179,0.03,0.307,0.092,0.385
		c0.033,0.046,0.064,0.075,0.093,0.086c0.029,0.012,0.124,0.04,0.285,0.086c0.197,0.051,0.296,0.177,0.296,0.379
		C49.286,30.388,49.232,30.483,49.126,30.557z M52.02,25.805c-0.279,0.444-0.672,0.772-1.176,0.983
		c-0.416,0.17-1.016,0.255-1.799,0.255v-0.736c0.178-0.046,0.303-0.094,0.374-0.145c0.072-0.051,0.136-0.128,0.188-0.233
		c0.087-0.18,0.13-0.42,0.13-0.723v-2.201c0-0.215-0.014-0.376-0.043-0.481c-0.029-0.105-0.087-0.201-0.173-0.289
		c-0.12-0.128-0.28-0.208-0.482-0.24v-0.743c0.849,0,1.477,0.09,1.879,0.269c0.466,0.206,0.834,0.522,1.105,0.949
		c0.275,0.437,0.414,0.97,0.414,1.604C52.438,24.777,52.299,25.355,52.02,25.805z"/>
</g>
<path id="Idle" class="hourglass" d="M53.133,17.539l-9.926,0.173l-4.841,8.392l5.084,8.247l9.901-0.146l4.863-8.433L53.133,17.539z M49.528,30.516
	l-2.625,0.005c0,0-0.5,0.019-0.516-0.293c0,0-0.031-0.281,0.375-0.391c0,0,0.234,0.016,0.25-0.453l-0.031-5.906
	c0,0,0.047-0.266-0.359-0.344c0,0-0.268-0.109-0.235-0.391c0,0,0.11-0.172,0.329-0.25h3.125c0,0,0.328,0.031,0.344,0.281
	c0,0,0.031,0.313-0.313,0.359c0,0-0.359,0.109-0.266,0.656l-0.031,5.641c0,0,0.031,0.422,0.328,0.438c0,0,0.361,0.063,0.282,0.484
	C50.186,30.352,50.091,30.554,49.528,30.516z"/>
</svg>
