<?xml version="1.0" encoding="utf-8"?>
<!-- Generator: Adobe Illustrator 16.0.0, SVG Export Plug-In . SVG Version: 6.00 Build 0)  -->
<!DOCTYPE svg PUBLIC "-//W3C//DTD SVG 1.1//EN" "http://www.w3.org/Graphics/SVG/1.1/DTD/svg11.dtd">
<svg version="1.1" id="Layer_1" xmlns="http://www.w3.org/2000/svg" xmlns:xlink="http://www.w3.org/1999/xlink" x="0px" y="0px"
	 width="200px" height="200px" viewBox="0 0 200 200" enable-background="new 0 0 200 200" xml:space="preserve">
<g id="Direction">
	<g transform="rotate({{angle}} 50 50)">
		<polygon id="arrow" opacity="0.7" fill="#80C342" enable-background="new    " points="47.732,115.463 28.076,91.821 
			47.465,68.184 58.355,68.184 58.355,68.449 38.967,91.821 58.355,114.398 58.355,115.463 		">
		
			<animate  fill="remove" accumulate="none" additive="replace" begin="0s;anim_arrow3.end" values="0.5; 0" restart="always" calcMode="linear" dur="0.5s" attributeName="opacity" id="anim_arrow1">
			</animate>
		</polygon>
		<polygon id="arrow2" opacity="0.7" fill="#80C342" enable-background="new    " points="34.451,115.727 14.797,92.088 
			34.451,68.449 45.074,68.449 45.074,68.715 25.953,92.088 45.074,114.666 45.074,115.727 		">
		
			<animate  fill="remove" accumulate="none" additive="replace" begin="anim_arrow1.end" values="0.5; 0" restart="always" calcMode="linear" dur="0.5s" attributeName="opacity" id="anim_arrow2">
			</animate>
		</polygon>
		<polygon id="arrow3" opacity="0.7" fill="#80C342" enable-background="new    " points="21.17,115.994 1.781,92.354 21.17,68.715 
			32.061,68.715 32.061,68.981 12.672,92.354 32.061,114.93 32.061,115.994 		">
		
			<animate  fill="remove" accumulate="none" additive="replace" begin="anim_arrow2.end" values="0.5; 0" restart="always" calcMode="linear" dur="0.5s" attributeName="opacity" id="anim_arrow3">
			</animate>
		</polygon>
	</g>
</g>
<path fill="#494949" d="M80.425,112.806c0,0,10.914-5.134,17.673-11.835l-4.699-7.161l-14.76,6.64l-1.331,7.554
	C77.308,108.004,78.403,112.135,80.425,112.806z"/>
<path fill="#727272" d="M94.556,99.451L85.395,100c0,0,0.633-2.486,0.758-2.528c0.125-0.042,4.929-1.852,4.929-1.852l2.317-0.169
	l1.159,1.601L94.556,99.451L94.556,99.451z"/>
<path fill="#8E8E8E" d="M78.824,107.921l1.349,0.925l6.298-2.946v-1.517l1.578,0.336l3.16-1.347h3.031l6.233,3.956l3.654-3.032
	l-9.313-5.137H90.87l-2.816,0.336l-3.833,0.592c0,0-4.211,3.368-4.464,3.368C79.503,103.455,78.15,105.729,78.824,107.921z"/>
<path fill="#565656" d="M80.425,112.806c0,0-4.969-2.527,0.338-9.098l12.636-8.424l-2.533-7.188L75.118,98.989
	c0,0-5.612,5.366-0.446,11.36L80.425,112.806z"/>
<path fill="#494949" d="M100.475,123.25l35.634-20.889c0,0,2.673-2.278,0.841-6.99c0,0-0.904-2.505-4.087-1.652l-31.989,18.159
	l-3.306,3.79l-1.181,2.971v1.832l0.886,2.149l0.823,0.634C98.096,123.25,99.835,123.625,100.475,123.25z"/>
<path fill="#8E8E8E" d="M104.127,116.427l24.104-13.773h2.274c0,0,5.288-4.738,3.749-6.571l-2.232-1.644l-31.084,16.933v1.392
	l0.277,2.477C101.213,115.234,103.357,116.869,104.127,116.427z"/>
<path fill="#565656" d="M102.917,111.712c0,0-5.728,3.455-5.98,9.351c0,0,0.506,2.693,3.538,2.188l-1.212,0.438l-1.167-0.269
	l-5.878-2.949c0,0-4.122-5.174,2.022-10.867l3.37-2.188l30.074-17.712l4.958,1.244c0,0,4.308,1.947,4.981,4.001
	c0,0,1.35,5.644-1.515,7.413c0,0,2.452-2.393,0.841-6.99c0,0-0.758-2.357-4.801-0.083c0,0-14.596,7.077-19.303,10.192
	S102.917,111.712,102.917,111.712z"/>
<polygon fill="#191919" points="103.914,103.455 110.911,106.84 111.962,106.234 104.773,102.941 "/>
<polygon fill="#191919" points="106.89,101.133 114.051,104.715 115.263,104 107.752,100.624 "/>
<polygon fill="#191919" points="109.806,99.348 117.156,102.941 118.163,102.396 110.664,98.839 "/>
<polygon fill="#191919" points="112.969,97.966 120.168,101.351 121.17,100.801 113.826,97.455 "/>
<polygon fill="#191919" points="116.219,96.258 123.421,99.645 124.266,99.041 117.079,95.749 "/>
<polygon fill="#191919" points="119.275,94.825 126.236,98.211 127.318,97.605 120.136,94.315 "/>
<polygon fill="#191919" points="122.186,93.184 129.388,96.569 130.422,96.127 123.044,92.672 "/>
<polygon fill="#191919" points="125.25,91.677 132.447,95.066 133.488,94.621 126.11,91.166 "/>
<polygon fill="#191919" points="128.787,91.054 135.717,94.315 136.653,94.315 129.648,90.542 "/>
<polygon fill="#191919" points="84.25,92.672 91.901,95.989 92.948,95.383 85.093,92.089 "/>
<polygon fill="#191919" points="88.089,90.28 95.25,93.862 96.466,93.151 88.951,89.769 "/>
<polygon fill="#191919" points="91.005,88.497 98.356,92.089 99.363,91.542 91.865,87.985 "/>
<polygon fill="#191919" points="94.167,87.114 101.367,90.498 102.37,89.946 95.028,86.603 "/>
<polygon fill="#191919" points="97.418,85.405 104.621,88.79 105.466,88.187 98.279,84.894 "/>
<polygon fill="#191919" points="100.475,83.97 107.437,87.356 108.519,86.752 101.336,83.458 "/>
<polygon fill="#191919" points="103.385,82.33 110.586,85.717 111.626,85.274 104.244,81.819 "/>
<polygon fill="#191919" points="106.449,80.824 113.652,84.209 114.688,83.768 107.309,80.313 "/>
<polygon fill="#191919" points="72.108,106.145 78.28,108.947 78.167,109.813 72.255,107.033 "/>
<polygon fill="#191919" points="72.486,104.043 78.978,106.48 79.663,105.205 72.868,102.725 "/>
<polygon fill="#191919" points="73.565,101.09 80.959,103.617 81.911,102.941 73.99,100.308 "/>
<polygon fill="#191919" points="76.074,98.365 83.718,101.773 84.837,101.03 76.914,97.821 "/>
<polygon fill="#191919" points="78.638,96.639 86.739,99.794 87.874,99.037 79.606,95.967 "/>
<polygon fill="#191919" points="82.047,94.252 90.053,97.629 90.892,96.99 82.827,93.714 "/>
<path fill="#848484" d="M87.164,88.97l0.885-2.406l4.592-2.485l5.457-7.267l3.473-1.747l-0.926-0.653l0.588-0.695h1.182l0.505,0.695
	l13.185-8.107c0,0,10.488,2.022,19.586,9.688l1.938,3.475v1.58v7.049l-32.011,18.306l-14.32-11.118l0.515-3.118L87.164,88.97z"/>
<path opacity="0.4" fill="#4C4C4C" enable-background="new    " d="M98.096,76.813c0,0,2.588,0.148,5.558,2.159l4.929-2.474
	l9.246,13.204l4.59-3.348l0.758,0.633l2.086-1.454l-4.992-2.717l8.719-4.929l-2.653-3.033l-7.013,4.233l-7.329-4.233l-3.433,1.139
	c0,0-2.316-0.633-2.948-1.58l1.264-2.402l-5.308,2.907l-0.926-0.505l0.219,1.009L98.096,76.813z"/>
<path fill="#A0A0A0" d="M89.628,79.824V81.3l5.182,11.372l-1.074,4.171l-2.022-1.769v-1.769l-4.128-10.675l-1.431-1.833l0.316-1.327
	C86.469,79.467,88.618,79.041,89.628,79.824z"/>
<path fill="#B5B5B6" d="M55.406,77.088l1.516-2.359l1.875,1.179l1.644,3.432l0.885-0.885l0.506-0.063l0.758,0.633l24.071-9.793
	h3.096L95,72.139l6.57,9.919l-6.254,7.644L92.093,81.3c0,0-2.337-1.833-5.055-1.833l-25.272,6.634l-4.043-1.769l-3.042-5.37
	L55.406,77.088z"/>
<path fill="#B5B5B6" d="M55.406,77.088c0,0-2.189-0.336-2.189,2.359v6.991l-1.179,1.684l1.179,1.937l0.505,7.835l-0.673,0.423
	L53.133,100l0.59,1.181v2.021l-1.684,1.347l-0.421,1.351l1.349,0.841l1.349,1.852l-0.253,2.361l1.349,2.279l4.458,2.613l1.602,0.506
	l3.623,2.191c0,0,3.371,1.517,7.497-5.137c0,0,5.897-8.004,5.56-8.846c0,0-0.337-0.928-3.033,2.274l-1.769-1.011
	c0,0,2.527-2.697,1.854-3.202c0,0-0.673-0.759-3.2,2.526l-1.602-1.01c0,0,2.865-3.455,1.937-3.539c0,0-1.011-0.086-3.37,2.78
	l-1.517-0.841c0,0,2.19-2.444,1.685-3.455c0,0-1.179-0.253-3.201,3.032l-0.673,0.17c0,0-1.516,2.271-4.296,2.61l1.264-19.038
	l-2.274-0.505l1.517-2.612l-3.454-4.381C58.016,78.36,57.175,77.162,55.406,77.088z"/>
<path fill="#A0A0A0" d="M61.071,105.528c0,0,2.969-0.695,4.644-2.717l0.305,0.501c0,0-2.022,3.621-4.211,4.844l-0.127,0.146
	l-2.988,3.392h0.505l3.106-3.165l0.095,1.139c0,0-2.189,2.392-1.011,6.473l3.117,1.875c0,0-2.174-4.043,0.386-6.57
	c0,0,6.69,0.8,10.061-3.708l0.926-0.253l1.896-2.232l0.393-0.379v0.379l-4.564,6.653c0,0-4.086,7.036-8.087,6.784l-4.381-2.531
	l-1.727-0.506l-0.042-3.747h-1.011l3.326-3.604L61.071,105.528z"/>
<path fill="#4C4C4C" d="M53.995,105.43c0,0,0.569,0.213,1.368,0v-5.643l-1.368,0.209V105.43z"/>
<polygon fill="#A0A0A0" points="55.741,87.998 51.951,87.998 53.214,89.892 54.563,90.06 54.647,98.483 53.847,98.188 
	53.089,98.188 53.046,99.747 53.637,100.632 56.037,100.422 "/>
<path fill="#A0A0A0" d="M57.771,78.086c0,0-2.03,0.013-1.734,4.309l2.654,19.915l0.38,5.559h-1.528l-5.505-3.32l-0.421,1.351
	c0,0,2.442,0.746,2.695,2.433l2.99,1.769l4.379-1.8l-0.608-2.776l1.158-19.672l-2.274-0.505l1.517-2.612L57.771,78.086z"/>
<polygon fill="#A0A0A0" points="64.609,111.372 62.229,109.88 62.397,109.666 64.89,111.443 64.743,111.602 "/>
<polygon fill="#A0A0A0" points="62.46,108.498 61.807,108.158 61.679,108.305 "/>
<polygon fill="#3D3D3D" points="93.396,98.483 95.924,84.165 97.188,82.901 108.561,75.993 116.816,80.626 117.828,81.973 
	117.828,97.474 104.096,105.899 95.756,101.434 "/>
<polygon fill="#171735" points="66.063,82.185 86.469,75.42 86.469,78.566 66.063,84.459 "/>
<polygon fill="#4C4C4C" points="89.881,77.073 92.639,84.08 93.734,83.438 91.28,77.073 "/>
<polygon fill="#A0A0A0" points="91.712,83.196 92.345,82.185 93.862,82.185 95.756,86.038 94.728,90.945 "/>
<polygon points="96.83,84.933 94.556,98.357 101.253,101.801 103.969,88.21 "/>
<polygon fill="#142344" points="96.767,85.152 94.24,98.357 100.938,101.643 103.653,88.438 "/>
<polygon points="106.055,88.953 104.602,96.384 104.602,96.843 112.183,92.861 112.563,92.356 112.846,85.927 112.277,85.927 "/>
<polygon fill="#142344" points="106.055,88.97 104.602,96.399 104.602,96.652 111.993,92.811 112.309,92.356 112.563,86.099 
	112.057,86.099 "/>
<polygon points="104.76,97.919 104.127,100.17 104.127,100.758 105.201,101.801 105.454,101.801 110.256,98.997 110.635,98.409 
	112.151,95.605 112.151,95.085 112.151,93.714 "/>
<polygon fill="#142344" points="104.602,97.883 103.969,100.063 103.969,100.632 105.043,101.643 105.297,101.643 110.098,98.926 
	110.477,98.357 111.993,95.642 111.993,95.136 111.993,93.81 "/>
<polygon fill="#303038" points="113.889,85.152 116.1,84.08 116.1,96.337 113.889,97.758 "/>
<polygon fill="#8E8E8E" points="98.368,82.901 105.276,86.204 109.699,84.08 102.412,80.584 "/>
<polygon fill="#8E8E8E" points="104.033,79.868 110.943,83.171 115.363,81.047 108.076,77.551 "/>
<polygon fill="#262626" points="118.163,92.334 118.163,97.727 134.254,88.096 134.254,82.901 "/>
<polygon fill="#727272" points="106.779,111.289 125.914,100.45 125.914,102.274 106.779,113.229 "/>
<path fill="#727272" d="M131.475,97.883l-2.107,0.853v2.191h1.055C130.422,100.928,133.749,98.203,131.475,97.883z"/>
<polygon fill="#727272" points="86.469,100.45 86.469,104.383 87.702,104.644 "/>
<polygon fill="#191919" points="90.999,114.895 97.82,117.457 98.5,116.174 91.381,113.576 "/>
<polygon fill="#191919" points="92.366,111.744 99.756,114.473 100.388,113.793 92.791,111.163 "/>
<polygon fill="#191919" points="94.24,109.604 101.568,112.703 102.391,112.067 95.079,109.059 "/>
<polygon fill="#191919" points="97.493,107.57 104.822,110.666 105.644,110.029 98.33,107.025 "/>
<polygon fill="#191919" points="100.526,105.75 107.586,108.846 108.676,108.209 101.363,105.205 "/>
<path fill="#44597F" d="M102.832,88.79c0,0-5.097,2.993-8.023,9.421l6.129,2.717L102.832,88.79z"/>
<path fill="#44597F" d="M111.077,87.356c0,0-3.128,7.425-5.434,8.391l5.434-3.075C111.077,92.672,112.161,88.527,111.077,87.356z"/>
<path fill="#44597F" d="M110.568,95.674c0,0-2.703,4.156-4.925,5.254l3.671-2.089C109.32,98.839,110.872,97.635,110.568,95.674z"/>
<path fill="#8E8E8E" d="M97.588,117.994l2.211,1.402l1.706-0.707l0.887-2.203l-0.95-1.138l-1.453-0.759
	C99.989,114.595,97.335,114.824,97.588,117.994z"/>
<polygon fill="#191919" points="90.908,116.995 97.079,119.799 96.969,120.668 91.056,117.888 "/>
</svg>
