<?xml version="1.0" encoding="utf-8"?>
<!-- Generator: Adobe Illustrator 16.0.0, SVG Export Plug-In . SVG Version: 6.00 Build 0)  -->
<!DOCTYPE svg PUBLIC "-//W3C//DTD SVG 1.1//EN" "http://www.w3.org/Graphics/SVG/1.1/DTD/svg11.dtd">
<svg version="1.1" id="Layer_1" xmlns="http://www.w3.org/2000/svg" xmlns:xlink="http://www.w3.org/1999/xlink" x="0px" y="0px"
	 width="200px" height="200px" viewBox="0 0 200 200" enable-background="new 0 0 200 200" xml:space="preserve">
<g id="Direction">
	<g transform="rotate({{angle}} 50 50)">
		<polygon id="arrow" opacity="0.7" fill="#ff0000" enable-background="new    " points="133.629,118.105 133.629,117.041 
			153.018,94.464 133.629,71.092 133.629,70.826 144.52,70.826 163.908,94.464 144.252,118.105 		">
		
			<animate  fill="remove" accumulate="none" additive="replace" begin="0s;anim_arrow3.end" values="0.5; 0" restart="always" calcMode="linear" dur="0.5s" attributeName="opacity" id="anim_arrow1">
			</animate>
		</polygon>
		<polygon id="arrow2" opacity="0.7" fill="#ff0000" enable-background="new    " points="146.91,118.369 146.91,117.309 
			166.031,94.731 146.91,71.358 146.91,71.092 157.533,71.092 177.188,94.731 157.533,118.369 		">
		
			<animate  fill="remove" accumulate="none" additive="replace" begin="anim_arrow1.end" values="0.5; 0" restart="always" calcMode="linear" dur="0.5s" attributeName="opacity" id="anim_arrow2">
			</animate>
		</polygon>
		<polygon id="arrow3" opacity="0.7" fill="#ff0000" enable-background="new    " points="159.924,118.637 159.924,117.572 
			179.313,94.996 159.924,71.624 159.924,71.358 170.814,71.358 190.203,94.996 170.814,118.637 		">
		
			<animate  fill="remove" accumulate="none" additive="replace" begin="anim_arrow2.end" values="0.5; 0" restart="always" calcMode="linear" dur="0.5s" attributeName="opacity" id="anim_arrow3">
			</animate>
		</polygon>
	</g>
</g>
<path fill="#494949" d="M112.25,108.004l-1.332-7.554l-14.759-6.64l-4.699,7.161c6.759,6.701,17.673,11.836,17.673,11.836
	C111.154,112.135,112.25,108.004,112.25,108.004z"/>
<path fill="#727272" d="M95.001,99.451L95,97.052l1.159-1.601l2.317,0.169c0,0,4.804,1.81,4.929,1.852s0.758,2.528,0.758,2.528
	L95.001,99.451L95.001,99.451z"/>
<path fill="#8E8E8E" d="M109.801,103.455c-0.253,0-4.465-3.368-4.465-3.368l-3.832-0.592l-2.816-0.336h-3.944l-9.313,5.137
	l3.654,3.032l6.233-3.956h3.031l3.16,1.347l1.577-0.336v1.518l6.299,2.945l1.349-0.925
	C111.408,105.729,110.055,103.455,109.801,103.455z"/>
<path fill="#565656" d="M114.886,110.35c5.166-5.994-0.446-11.36-0.446-11.36L98.691,88.096l-2.533,7.188l12.636,8.424
	c5.307,6.571,0.338,9.099,0.338,9.099L114.886,110.35z"/>
<path fill="#494949" d="M91.461,123.254l0.823-0.634l0.886-2.149v-1.832l-1.181-2.971l-3.306-3.79L56.694,93.719
	c-3.183-0.853-4.087,1.652-4.087,1.652c-1.832,4.712,0.841,6.99,0.841,6.99l35.634,20.889
	C89.723,123.625,91.461,123.25,91.461,123.254z"/>
<path fill="#8E8E8E" d="M88.343,115.241l0.277-2.478v-1.392L57.536,94.439l-2.232,1.644c-1.539,1.833,3.749,6.571,3.749,6.571h2.274
	l24.104,13.772C86.2,116.869,88.345,115.234,88.343,115.241z"/>
<path fill="#565656" d="M76.712,105.48c-4.707-3.114-19.303-10.191-19.303-10.191c-4.043-2.274-4.801,0.083-4.801,0.083
	c-1.611,4.597,0.842,6.989,0.842,6.989c-2.865-1.769-1.516-7.412-1.516-7.412c0.673-2.054,4.98-4.001,4.98-4.001l4.959-1.244
	l30.074,17.712l3.37,2.188c6.144,5.693,2.022,10.867,2.022,10.867l-5.878,2.949l-1.167,0.27l-1.212-0.438
	c3.032,0.505,3.538-2.188,3.538-2.188c-0.252-5.896-5.98-9.351-5.98-9.351S81.419,108.596,76.712,105.48z"/>
<polygon fill="#191919" points="84.784,102.941 77.596,106.234 78.646,106.84 85.644,103.455 "/>
<polygon fill="#191919" points="81.806,100.624 74.294,104 75.507,104.715 82.667,101.133 "/>
<polygon fill="#191919" points="78.894,98.839 71.395,102.396 72.401,102.941 79.751,99.348 "/>
<polygon fill="#191919" points="75.731,97.455 68.388,100.801 69.39,101.352 76.589,97.966 "/>
<polygon fill="#191919" points="72.479,95.749 65.292,99.041 66.137,99.645 73.339,96.258 "/>
<polygon fill="#191919" points="69.421,94.315 62.239,97.605 63.321,98.211 70.282,94.825 "/>
<polygon fill="#191919" points="66.514,92.672 59.136,96.127 60.169,96.569 67.372,93.184 "/>
<polygon fill="#191919" points="63.448,91.166 56.069,94.621 57.11,95.066 64.308,91.677 "/>
<polygon fill="#191919" points="59.909,90.542 52.905,94.315 53.841,94.315 60.771,91.054 "/>
<polygon fill="#191919" points="104.465,92.089 96.609,95.383 97.657,95.989 105.308,92.672 "/>
<polygon fill="#191919" points="100.606,89.769 93.092,93.151 94.308,93.862 101.469,90.28 "/>
<polygon fill="#191919" points="97.692,87.985 90.195,91.542 91.202,92.089 98.553,88.497 "/>
<polygon fill="#191919" points="94.53,86.603 87.188,89.946 88.19,90.498 95.391,87.114 "/>
<polygon fill="#191919" points="91.279,84.894 84.092,88.187 84.937,88.79 92.14,85.405 "/>
<polygon fill="#191919" points="88.222,83.458 81.038,86.752 82.12,87.356 89.083,83.97 "/>
<polygon fill="#191919" points="85.313,81.819 77.932,85.274 78.972,85.717 86.173,82.33 "/>
<polygon fill="#191919" points="82.249,80.313 74.87,83.768 75.905,84.209 83.108,80.824 "/>
<polygon fill="#191919" points="117.303,107.033 111.391,109.813 111.277,108.947 117.449,106.145 "/>
<polygon fill="#191919" points="116.689,102.725 109.895,105.205 110.58,106.48 117.072,104.043 "/>
<polygon fill="#191919" points="115.567,100.308 107.646,102.941 108.599,103.617 115.992,101.09 "/>
<polygon fill="#191919" points="112.644,97.821 104.721,101.029 105.84,101.773 113.483,98.365 "/>
<polygon fill="#191919" points="109.951,95.967 101.684,99.037 102.818,99.794 110.92,96.639 "/>
<polygon fill="#191919" points="106.73,93.714 98.666,96.99 99.504,97.629 107.511,94.252 "/>
<path fill="#848484" d="M97.745,92.167l0.515,3.118l-14.32,11.117L51.929,88.097v-7.049v-1.58l1.938-3.475
	c9.099-7.666,19.586-9.688,19.586-9.688l13.186,8.107l0.505-0.695h1.183l0.588,0.695l-0.926,0.653l3.472,1.747l5.457,7.267
	l4.592,2.485l0.885,2.406L97.745,92.167z"/>
<path opacity="0.4" fill="#4C4C4C" enable-background="new    " d="M88.694,75.422l0.219-1.009l-0.926,0.505l-5.308-2.907
	l1.265,2.402c-0.633,0.947-2.949,1.58-2.949,1.58l-3.433-1.139l-7.329,4.233l-7.013-4.233l-2.653,3.033l8.719,4.929l-4.992,2.717
	l2.086,1.454l0.759-0.633l4.59,3.348l9.246-13.204l4.929,2.474c2.971-2.011,5.558-2.159,5.558-2.159L88.694,75.422z"/>
<path fill="#A0A0A0" d="M103.086,79.47l0.316,1.327l-1.431,1.833l-4.128,10.675v1.769l-2.022,1.769l-1.074-4.171L99.93,81.3v-1.476
	C100.939,79.041,103.088,79.467,103.086,79.47z"/>
<path fill="#B5B5B6" d="M134.877,78.962l-3.043,5.37l-4.043,1.769l-25.271-6.634c-2.718,0-5.055,1.833-5.055,1.833l-3.223,8.402
	l-6.254-7.644l6.57-9.919l5.243-2.907h3.096l24.071,9.793l0.758-0.633l0.506,0.063l0.886,0.885l1.644-3.432l1.875-1.179l1.516,2.359
	L134.877,78.962z"/>
<path fill="#B5B5B6" d="M131.537,78.358l-3.453,4.381l1.517,2.612l-2.274,0.505l1.265,19.039c-2.78-0.34-4.296-2.61-4.296-2.61
	l-0.674-0.171c-2.021-3.284-3.201-3.031-3.201-3.031c-0.504,1.011,1.686,3.455,1.686,3.455l-1.517,0.841
	c-2.359-2.866-3.37-2.78-3.37-2.78c-0.928,0.084,1.938,3.539,1.938,3.539l-1.603,1.01c-2.527-3.285-3.2-2.525-3.2-2.525
	c-0.673,0.505,1.854,3.202,1.854,3.202l-1.769,1.011c-2.696-3.202-3.032-2.273-3.032-2.273c-0.338,0.842,5.56,8.846,5.56,8.846
	c4.126,6.654,7.497,5.137,7.497,5.137l3.623-2.191l1.602-0.506l4.458-2.613l1.349-2.278l-0.252-2.361l1.349-1.852l1.349-0.841
	l-0.421-1.352l-1.685-1.347v-2.021l0.591-1.182l0.084-1.683l-0.673-0.423l0.505-7.835l1.179-1.937l-1.179-1.684v-6.991
	c0-2.695-2.189-2.359-2.189-2.359C132.383,77.162,131.541,78.36,131.537,78.358z"/>
<path fill="#A0A0A0" d="M127.875,108.302l3.326,3.604h-1.011l-0.042,3.746l-1.727,0.507l-4.381,2.53
	c-4.002,0.252-8.088-6.783-8.088-6.783l-4.563-6.653v-0.379l0.394,0.379l1.896,2.231l0.926,0.254
	c3.371,4.508,10.062,3.707,10.062,3.707c2.56,2.527,0.386,6.57,0.386,6.57l3.116-1.875c1.179-4.08-1.01-6.473-1.01-6.473
	l0.094-1.139l3.106,3.164h0.505L127.875,108.302l-0.127-0.146c-2.188-1.223-4.211-4.844-4.211-4.844l0.306-0.502
	c1.675,2.022,4.644,2.717,4.644,2.717L127.875,108.302z"/>
<path fill="#4C4C4C" d="M135.563,99.996l-1.367-0.209v5.643c0.799,0.213,1.367,0,1.367,0V99.996z"/>
<polygon fill="#A0A0A0" points="133.521,100.422 135.92,100.632 136.512,99.747 136.469,98.188 135.711,98.188 134.91,98.483 
	134.994,90.06 136.344,89.892 137.606,87.998 133.816,87.998 "/>
<path fill="#A0A0A0" d="M128.084,82.737l1.517,2.612l-2.274,0.505l1.158,19.671l-0.607,2.776l4.379,1.8l2.99-1.769
	c0.252-1.687,2.694-2.433,2.694-2.433l-0.421-1.352l-5.505,3.32h-1.528l0.381-5.559l2.653-19.916
	c0.296-4.296-1.733-4.309-1.733-4.309L128.084,82.737z"/>
<polygon fill="#A0A0A0" points="124.814,111.602 124.668,111.443 127.16,109.666 127.328,109.88 124.949,111.372 "/>
<polygon fill="#A0A0A0" points="127.879,108.305 127.75,108.158 127.098,108.498 "/>
<polygon fill="#3D3D3D" points="93.802,101.434 85.462,105.898 71.729,97.474 71.729,81.973 72.741,80.626 80.997,75.993 
	92.37,82.901 93.634,84.165 96.162,98.483 "/>
<polygon fill="#171735" points="123.494,84.459 103.088,78.566 103.088,75.42 123.494,82.185 "/>
<polygon fill="#4C4C4C" points="98.278,77.073 95.824,83.438 96.918,84.08 99.677,77.073 "/>
<polygon fill="#A0A0A0" points="94.83,90.945 93.802,86.038 95.696,82.185 97.212,82.185 97.846,83.196 "/>
<polygon points="85.589,88.21 88.305,101.801 95.001,98.357 92.728,84.933 "/>
<polygon fill="#142344" points="85.905,88.438 88.62,101.643 95.317,98.357 92.791,85.152 "/>
<polygon points="77.28,85.927 76.712,85.927 76.995,92.356 77.374,92.861 84.956,96.843 84.956,96.384 83.503,88.953 "/>
<polygon fill="#142344" points="77.501,86.099 76.995,86.099 77.249,92.356 77.564,92.811 84.956,96.652 84.956,96.399 
	83.503,88.97 "/>
<polygon points="77.407,93.714 77.407,95.085 77.407,95.605 78.923,98.409 79.302,98.997 84.104,101.801 84.356,101.801 
	85.431,100.758 85.431,100.17 84.798,97.919 "/>
<polygon fill="#142344" points="77.564,93.81 77.564,95.136 77.564,95.642 79.081,98.357 79.46,98.926 84.261,101.643 
	84.515,101.643 85.589,100.632 85.589,100.063 84.956,97.883 "/>
<polygon fill="#303038" points="75.669,97.758 73.458,96.337 73.458,84.08 75.669,85.152 "/>
<polygon fill="#8E8E8E" points="87.146,80.584 79.858,84.08 84.282,86.204 91.189,82.901 "/>
<polygon fill="#8E8E8E" points="81.481,77.551 74.194,81.047 78.614,83.171 85.524,79.868 "/>
<polygon fill="#262626" points="55.304,82.901 55.304,88.096 71.395,97.727 71.395,92.334 "/>
<polygon fill="#727272" points="82.778,113.229 63.644,102.273 63.644,100.45 82.778,111.289 "/>
<path fill="#727272" d="M59.135,100.927h1.055v-2.191l-2.106-0.853C55.809,98.203,59.136,100.928,59.135,100.927z"/>
<polygon fill="#727272" points="101.855,104.645 103.088,104.383 103.088,100.45 "/>
<polygon fill="#191919" points="98.177,113.576 91.058,116.174 91.738,117.457 98.559,114.895 "/>
<polygon fill="#191919" points="96.767,111.163 89.169,113.793 89.802,114.473 97.191,111.744 "/>
<polygon fill="#191919" points="94.479,109.059 87.167,112.066 87.989,112.703 95.317,109.604 "/>
<polygon fill="#191919" points="91.228,107.025 83.913,110.029 84.735,110.666 92.064,107.57 "/>
<polygon fill="#191919" points="88.194,105.205 80.882,108.209 81.972,108.846 89.032,105.75 "/>
<path fill="#44597F" d="M88.62,100.928l6.128-2.717c-2.926-6.428-8.023-9.421-8.023-9.421L88.62,100.928z"/>
<path fill="#44597F" d="M78.48,92.672l5.435,3.075c-2.307-0.966-5.435-8.391-5.435-8.391C77.396,88.527,78.48,92.672,78.48,92.672z"
	/>
<path fill="#44597F" d="M80.243,98.839l3.672,2.089c-2.223-1.098-4.926-5.254-4.926-5.254
	C78.686,97.635,80.237,98.839,80.243,98.839z"/>
<path fill="#8E8E8E" d="M89.569,114.589l-1.453,0.759l-0.951,1.139l0.888,2.203l1.706,0.707l2.211-1.402
	C92.223,114.824,89.569,114.596,89.569,114.589z"/>
<polygon fill="#191919" points="98.501,117.889 92.588,120.668 92.479,119.799 98.649,116.995 "/>
</svg>
