<?xml version="1.0" encoding="utf-8"?>
<!-- Generator: Adobe Illustrator 16.0.0, SVG Export Plug-In . SVG Version: 6.00 Build 0)  -->
<!DOCTYPE svg PUBLIC "-//W3C//DTD SVG 1.1//EN" "http://www.w3.org/Graphics/SVG/1.1/DTD/svg11.dtd">
<svg version="1.1" id="Layer_1" xmlns="http://www.w3.org/2000/svg" xmlns:xlink="http://www.w3.org/1999/xlink" x="0px" y="0px"
	 width="200px" height="200px" viewBox="0 0 200 200" enable-background="new 0 0 200 200" xml:space="preserve">
<g id="Direction">
	<g transform="rotate({{angle}} 50 50)">
		<polygon id="arrow" opacity="0.7" fill="#80C342" enable-background="new    " points="45.952,119.396 26.297,95.754 
			45.684,72.116 56.574,72.116 56.574,72.382 37.186,95.754 56.576,118.33 56.575,119.396 		">
		
		</polygon>
		<polygon id="arrow2" opacity="0.7" fill="#80C342" enable-background="new    " points="32.671,119.66 13.016,96.021 
			32.672,72.384 43.294,72.384 43.293,72.647 24.172,96.021 43.294,118.6 43.293,119.658 		">
		
	
		</polygon>
		<polygon id="arrow3" opacity="0.7" fill="#80C342" enable-background="new    " points="19.389,119.928 0,96.285 19.391,72.647 
			30.281,72.647 30.281,72.911 10.891,96.285 30.279,118.861 30.28,119.928 		">
		
	
		</polygon>
	</g>
</g>
<g>
	<g>
		<g id="Tire_Mid_Back_2">
			<path fill="#141318" d="M127.582,89.392c-0.52,1.626-2.092,3.149-3.527,3.398c-1.424,0.255-2.164-0.865-1.648-2.486
				c0.518-1.622,2.09-3.147,3.525-3.395C127.359,86.658,128.1,87.766,127.582,89.392z"/>
			<path fill="#121332" d="M127.855,89.621c-0.506,1.614-2.068,3.132-3.482,3.378c-1.412,0.251-2.143-0.861-1.633-2.482
				c0.506-1.614,2.064-3.127,3.479-3.378C127.631,86.891,128.363,87.999,127.855,89.621z"/>
			<path fill="#141318" d="M128.293,89.827c-0.516,1.625-2.094,3.148-3.529,3.399c-1.422,0.255-2.164-0.861-1.648-2.487
				c0.52-1.623,2.094-3.148,3.529-3.395C128.064,87.096,128.809,88.205,128.293,89.827z"/>
			<path fill="#121332" d="M128.561,90.057c-0.506,1.613-2.068,3.127-3.479,3.378c-1.414,0.248-2.145-0.865-1.639-2.487
				c0.506-1.614,2.066-3.127,3.48-3.378C128.342,87.325,129.068,88.443,128.561,90.057z"/>
			<path fill="#141318" d="M128.896,90.218c-0.518,1.622-2.104,3.14-3.527,3.395c-1.422,0.259-2.166-0.861-1.648-2.484
				c0.516-1.625,2.092-3.151,3.525-3.398C128.672,87.481,129.414,88.593,128.896,90.218z"/>
			<path fill="#121332" d="M129.166,90.449c-0.508,1.613-2.066,3.127-3.482,3.378c-1.414,0.247-2.143-0.865-1.635-2.487
				c0.506-1.614,2.066-3.127,3.48-3.378C128.943,87.711,129.676,88.819,129.166,90.449z"/>
			<path fill="#141318" d="M129.25,90.567c-0.488,1.602-1.996,3.093-3.363,3.336c-1.361,0.237-2.076-0.862-1.586-2.466
				c0.488-1.606,1.996-3.094,3.359-3.336C129.027,87.866,129.74,88.961,129.25,90.567z"/>
			<path fill="#121332" d="M128.91,90.728c-0.412,1.355-1.68,2.618-2.836,2.813c-1.15,0.208-1.752-0.729-1.338-2.077
				c0.414-1.354,1.682-2.613,2.838-2.809C128.725,88.443,129.324,89.383,128.91,90.728z"/>
			<path fill="#CDCCCC" d="M128.463,90.7c-0.332,1.087-1.352,2.086-2.277,2.254c-0.926,0.167-1.414-0.582-1.082-1.669
				c0.332-1.083,1.35-2.087,2.275-2.254C128.307,88.874,128.781,89.617,128.463,90.7z"/>
			<path fill="#989898" d="M128.02,90.7c-0.268,0.881-1.09,1.693-1.842,1.826c-0.752,0.13-1.146-0.463-0.877-1.342
				c0.27-0.881,1.094-1.697,1.842-1.828C127.891,89.216,128.293,89.827,128.02,90.7z"/>
			<path fill="#CDCCCC" d="M127.656,90.822c-0.199,0.649-0.807,1.243-1.354,1.343c-0.551,0.087-0.838-0.356-0.639-0.997
				c0.199-0.648,0.809-1.242,1.355-1.342C127.564,89.726,127.852,90.173,127.656,90.822z"/>
			<g id="Tire_Mid_Back_2_Holes">
				<path fill="#010101" d="M127.023,90.875c-0.066,0.208-0.25,0.386-0.422,0.423c-0.176,0.024-0.268-0.111-0.207-0.314
					c0.061-0.208,0.25-0.39,0.422-0.422C126.98,90.536,127.082,90.671,127.023,90.875z"/>
				<path fill="#010101" d="M126.854,90.218c-0.041,0.113-0.137,0.214-0.234,0.226c-0.096,0.017-0.141-0.055-0.111-0.167
					c0.041-0.115,0.137-0.214,0.232-0.229C126.836,90.031,126.889,90.102,126.854,90.218z"/>
				<path fill="#010101" d="M127.514,90.277c-0.045,0.117-0.139,0.214-0.232,0.231c-0.098,0.016-0.152-0.06-0.115-0.171
					c0.043-0.116,0.137-0.214,0.236-0.231C127.498,90.094,127.545,90.166,127.514,90.277z"/>
				<path fill="#010101" d="M127.498,90.983c-0.043,0.116-0.137,0.214-0.23,0.23c-0.102,0.017-0.152-0.059-0.117-0.171
					c0.045-0.116,0.139-0.214,0.236-0.227C127.482,90.8,127.539,90.875,127.498,90.983z"/>
				<path fill="#010101" d="M126.861,91.608c-0.041,0.115-0.137,0.214-0.232,0.23c-0.098,0.016-0.15-0.06-0.113-0.172
					c0.041-0.117,0.137-0.214,0.232-0.229C126.844,91.419,126.898,91.495,126.861,91.608z"/>
				<path fill="#010101" d="M126.16,91.591c-0.041,0.117-0.139,0.214-0.234,0.231c-0.098,0.016-0.152-0.06-0.109-0.171
					c0.039-0.112,0.135-0.214,0.23-0.231C126.135,91.406,126.191,91.478,126.16,91.591z"/>
				<path fill="#010101" d="M126.178,90.9c-0.043,0.117-0.139,0.214-0.236,0.229c-0.098,0.018-0.148-0.059-0.109-0.171
					c0.039-0.115,0.135-0.214,0.23-0.23C126.15,90.716,126.207,90.787,126.178,90.9z"/>
			</g>
		</g>
		<g id="Tire_Back">
			<path fill="#141318" d="M133.686,85.872c-0.52,1.625-2.092,3.147-3.527,3.398c-1.424,0.255-2.164-0.862-1.648-2.487
				c0.518-1.622,2.094-3.148,3.527-3.395C133.467,83.133,134.211,84.25,133.686,85.872z"/>
			<path fill="#121332" d="M133.951,86.097c-0.504,1.61-2.064,3.128-3.479,3.374c-1.41,0.251-2.143-0.861-1.637-2.482
				c0.506-1.613,2.068-3.128,3.48-3.379C133.729,83.36,134.461,84.479,133.951,86.097z"/>
			<path fill="#141318" d="M134.391,86.306c-0.518,1.625-2.094,3.152-3.527,3.399c-1.422,0.259-2.162-0.861-1.648-2.488
				c0.52-1.622,2.096-3.147,3.527-3.394C134.178,83.576,134.908,84.688,134.391,86.306z"/>
			<path fill="#121332" d="M134.672,86.528c-0.506,1.613-2.07,3.128-3.48,3.378c-1.416,0.25-2.145-0.861-1.639-2.487
				c0.508-1.614,2.068-3.128,3.482-3.374C134.441,83.794,135.172,84.914,134.672,86.528z"/>
			<path fill="#141318" d="M134.992,86.699c-0.518,1.622-2.092,3.148-3.527,3.395c-1.422,0.259-2.166-0.861-1.648-2.482
				c0.518-1.627,2.092-3.147,3.525-3.399C134.779,83.961,135.521,85.069,134.992,86.699z"/>
			<path fill="#121332" d="M135.277,86.917c-0.506,1.614-2.066,3.128-3.48,3.379c-1.414,0.251-2.141-0.86-1.637-2.487
				c0.508-1.613,2.066-3.127,3.482-3.378C135.045,84.184,135.775,85.299,135.277,86.917z"/>
			<path fill="#141318" d="M135.359,87.042c-0.49,1.602-1.996,3.093-3.363,3.336c-1.363,0.238-2.078-0.862-1.59-2.467
				c0.49-1.605,1.998-3.097,3.363-3.336C135.137,84.333,135.844,85.445,135.359,87.042z"/>
			<path fill="#121332" d="M135.021,87.201c-0.412,1.354-1.68,2.613-2.834,2.813c-1.152,0.208-1.754-0.732-1.338-2.076
				c0.412-1.355,1.68-2.613,2.836-2.813C134.836,84.926,135.438,85.842,135.021,87.201z"/>
			<path fill="#CDCCCC" d="M134.563,87.18c-0.332,1.084-1.352,2.088-2.275,2.255c-0.928,0.167-1.416-0.582-1.084-1.67
				c0.332-1.086,1.352-2.086,2.277-2.254C134.414,85.344,134.896,86.097,134.563,87.18z"/>
			<path fill="#989898" d="M134.127,87.168c-0.266,0.882-1.092,1.697-1.836,1.828c-0.756,0.13-1.148-0.467-0.881-1.346
				c0.266-0.881,1.088-1.697,1.838-1.829C134,85.704,134.398,86.29,134.127,87.168z"/>
			<path fill="#CDCCCC" d="M133.764,87.31c-0.197,0.644-0.807,1.238-1.354,1.337c-0.549,0.092-0.84-0.354-0.637-0.995
				c0.199-0.649,0.809-1.243,1.354-1.342C133.672,86.21,133.959,86.65,133.764,87.31z"/>
			<g id="Tire_Back_Holes">
				<path fill="#010101" d="M133.119,87.356c-0.063,0.208-0.246,0.386-0.422,0.417c-0.176,0.029-0.268-0.107-0.209-0.31
					c0.066-0.208,0.25-0.386,0.424-0.423C133.092,87.005,133.184,87.15,133.119,87.356z"/>
				<path fill="#010101" d="M132.951,86.699c-0.041,0.113-0.135,0.214-0.23,0.231c-0.098,0.012-0.145-0.06-0.111-0.176
					c0.041-0.112,0.133-0.211,0.234-0.226C132.939,86.508,132.986,86.583,132.951,86.699z"/>
				<path fill="#010101" d="M133.613,86.759c-0.039,0.116-0.133,0.214-0.229,0.23c-0.102,0.016-0.154-0.059-0.113-0.171
					c0.041-0.117,0.135-0.214,0.232-0.231C133.602,86.57,133.648,86.648,133.613,86.759z"/>
				<path fill="#010101" d="M133.598,87.456c-0.039,0.117-0.135,0.214-0.232,0.23c-0.098,0.017-0.15-0.055-0.113-0.171
					c0.043-0.115,0.139-0.214,0.236-0.23C133.584,87.269,133.629,87.344,133.598,87.456z"/>
				<path fill="#010101" d="M132.957,88.087c-0.043,0.116-0.137,0.214-0.232,0.229c-0.098,0.017-0.15-0.059-0.111-0.171
					c0.039-0.112,0.139-0.212,0.234-0.227C132.945,87.905,132.992,87.974,132.957,88.087z"/>
				<path fill="#010101" d="M132.26,88.075c-0.045,0.111-0.139,0.211-0.236,0.226c-0.096,0.016-0.152-0.055-0.111-0.167
					c0.041-0.117,0.135-0.214,0.23-0.229C132.246,87.886,132.293,87.958,132.26,88.075z"/>
				<path fill="#010101" d="M132.275,87.373c-0.043,0.116-0.137,0.214-0.234,0.23c-0.096,0.017-0.15-0.055-0.109-0.171
					c0.041-0.116,0.135-0.214,0.236-0.23C132.262,87.193,132.309,87.26,132.275,87.373z"/>
			</g>
		</g>
		<g id="Tire_Mid_Back">
			<path fill="#141318" d="M120.998,93.086c-0.518,1.623-2.104,3.144-3.525,3.399c-1.426,0.255-2.168-0.864-1.652-2.486
				c0.52-1.622,2.094-3.147,3.529-3.395C120.783,90.353,121.525,91.464,120.998,93.086z"/>
			<path fill="#121332" d="M121.273,93.305c-0.506,1.614-2.068,3.131-3.482,3.378c-1.416,0.251-2.143-0.869-1.639-2.482
				c0.51-1.614,2.068-3.128,3.484-3.379C121.047,90.571,121.777,91.696,121.273,93.305z"/>
			<path fill="#141318" d="M121.709,93.521c-0.516,1.626-2.088,3.152-3.527,3.399c-1.426,0.259-2.164-0.861-1.65-2.483
				c0.52-1.625,2.092-3.152,3.527-3.399C121.492,90.792,122.234,91.904,121.709,93.521z"/>
			<path fill="#121332" d="M121.986,93.744c-0.506,1.614-2.068,3.127-3.482,3.378c-1.412,0.251-2.143-0.873-1.633-2.486
				c0.506-1.614,2.066-3.128,3.479-3.379C121.758,91.01,122.484,92.126,121.986,93.744z"/>
			<path fill="#141318" d="M122.313,93.911c-0.518,1.622-2.104,3.14-3.527,3.395c-1.426,0.259-2.166-0.862-1.648-2.484
				c0.52-1.625,2.09-3.152,3.527-3.398C122.096,91.177,122.828,92.286,122.313,93.911z"/>
			<path fill="#121332" d="M122.592,94.133c-0.506,1.614-2.068,3.128-3.48,3.379c-1.412,0.25-2.143-0.874-1.635-2.488
				c0.506-1.613,2.068-3.127,3.479-3.377C122.359,91.398,123.098,92.515,122.592,94.133z"/>
			<path fill="#141318" d="M122.676,94.254c-0.488,1.605-1.996,3.093-3.361,3.334c-1.363,0.24-2.078-0.86-1.586-2.466
				c0.488-1.604,1.998-3.091,3.359-3.335C122.453,91.548,123.162,92.656,122.676,94.254z"/>
			<path fill="#121332" d="M122.332,94.413c-0.412,1.354-1.678,2.613-2.836,2.813c-1.15,0.208-1.752-0.732-1.34-2.077
				c0.416-1.354,1.682-2.614,2.838-2.813C122.15,92.142,122.752,93.059,122.332,94.413z"/>
			<path fill="#CDCCCC" d="M121.879,94.393c-0.33,1.087-1.35,2.086-2.275,2.253c-0.922,0.168-1.414-0.581-1.082-1.668
				c0.332-1.084,1.352-2.087,2.273-2.254C121.729,92.56,122.211,93.313,121.879,94.393z"/>
			<path fill="#989898" d="M121.449,94.384c-0.271,0.881-1.092,1.693-1.842,1.828c-0.754,0.13-1.146-0.467-0.881-1.346
				c0.268-0.881,1.092-1.698,1.842-1.829C121.318,92.915,121.709,93.514,121.449,94.384z"/>
			<path fill="#CDCCCC" d="M121.082,94.517c-0.199,0.648-0.805,1.25-1.355,1.343c-0.549,0.088-0.838-0.352-0.637-1
				c0.197-0.648,0.805-1.238,1.355-1.342C120.99,93.421,121.281,93.868,121.082,94.517z"/>
			<g>
				<path fill="#010101" d="M120.439,94.567c-0.066,0.208-0.25,0.391-0.42,0.422c-0.176,0.025-0.268-0.107-0.209-0.314
					c0.066-0.208,0.25-0.385,0.424-0.422C120.406,94.221,120.502,94.367,120.439,94.567z"/>
				<path fill="#010101" d="M120.27,93.911c-0.041,0.117-0.133,0.214-0.236,0.229c-0.096,0.018-0.137-0.059-0.105-0.171
					c0.041-0.115,0.135-0.214,0.23-0.23C120.254,93.723,120.303,93.799,120.27,93.911z"/>
				<path fill="#010101" d="M120.928,93.97c-0.041,0.117-0.137,0.214-0.232,0.231c-0.096,0.016-0.139-0.061-0.111-0.172
					c0.041-0.116,0.137-0.214,0.232-0.23C120.914,93.784,120.959,93.86,120.928,93.97z"/>
				<path fill="#010101" d="M120.912,94.668c-0.045,0.115-0.137,0.214-0.232,0.23c-0.1,0.016-0.143-0.055-0.113-0.171
					c0.041-0.117,0.137-0.212,0.232-0.226C120.895,94.486,120.947,94.56,120.912,94.668z"/>
				<path fill="#010101" d="M120.277,95.302c-0.043,0.116-0.139,0.214-0.236,0.23c-0.094,0.016-0.141-0.059-0.111-0.171
					c0.043-0.117,0.137-0.214,0.232-0.23C120.262,95.114,120.309,95.19,120.277,95.302z"/>
				<path fill="#010101" d="M119.576,95.286c-0.039,0.117-0.139,0.214-0.234,0.231c-0.096,0.016-0.139-0.056-0.109-0.171
					c0.045-0.113,0.137-0.214,0.234-0.231C119.563,95.103,119.617,95.174,119.576,95.286z"/>
				<path fill="#010101" d="M119.592,94.596c-0.039,0.117-0.135,0.214-0.23,0.23c-0.1,0.017-0.143-0.059-0.115-0.171
					c0.043-0.116,0.139-0.214,0.234-0.23C119.58,94.409,119.623,94.472,119.592,94.596z"/>
			</g>
		</g>
		<path fill="#333333" d="M97.96,108.287l-5.686-2.598l5.437-2.613l1.393,0.661l-0.164,1.634l-0.761,0.583
			C98.179,105.954,98.609,107.945,97.96,108.287z"/>
		<g id="Tire_Mid">
			<path fill="#141318" d="M95.849,107.376c-0.519,1.621-2.092,3.147-3.526,3.395c-1.425,0.26-2.166-0.861-1.65-2.483
				c0.518-1.625,2.094-3.151,3.528-3.397C95.633,104.646,96.364,105.749,95.849,107.376z"/>
			<path fill="#121332" d="M96.119,107.599c-0.506,1.614-2.068,3.128-3.479,3.379c-1.415,0.251-2.146-0.873-1.64-2.485
				c0.506-1.615,2.066-3.129,3.48-3.379C95.896,104.865,96.629,105.981,96.119,107.599z"/>
			<path fill="#141318" d="M96.554,107.814c-0.514,1.621-2.09,3.146-3.526,3.395c-1.425,0.26-2.164-0.861-1.65-2.482
				c0.518-1.627,2.094-3.147,3.528-3.398C96.34,105.081,97.08,106.188,96.554,107.814z"/>
			<path fill="#121332" d="M96.828,108.037c-0.506,1.613-2.068,3.128-3.48,3.374c-1.414,0.255-2.145-0.863-1.639-2.485
				c0.51-1.614,2.07-3.124,3.482-3.375C96.605,105.299,97.334,106.42,96.828,108.037z"/>
			<path fill="#141318" d="M97.159,108.2c-0.518,1.621-2.093,3.147-3.53,3.395c-1.422,0.26-2.163-0.86-1.645-2.485
				c0.518-1.621,2.092-3.148,3.526-3.391C96.946,105.467,97.685,106.574,97.159,108.2z"/>
			<path fill="#121332" d="M97.432,108.42c-0.508,1.613-2.07,3.132-3.482,3.378c-1.413,0.252-2.142-0.859-1.636-2.481
				c0.506-1.614,2.068-3.128,3.478-3.379C97.211,105.687,97.94,106.806,97.432,108.42z"/>
			<path fill="#141318" d="M97.523,108.542c-0.49,1.607-1.998,3.097-3.361,3.336s-2.078-0.857-1.589-2.463
				c0.486-1.605,1.996-3.096,3.361-3.335C97.302,105.838,98.016,106.949,97.523,108.542z"/>
			<path fill="#121332" d="M97.187,108.715c-0.412,1.343-1.68,2.603-2.837,2.813c-1.149,0.207-1.753-0.73-1.336-2.081
				c0.413-1.351,1.679-2.609,2.835-2.813C97,106.432,97.599,107.354,97.187,108.715z"/>
			<path fill="#CDCCCC" d="M96.729,108.688c-0.335,1.084-1.355,2.088-2.279,2.253c-0.937,0.165-1.415-0.582-1.083-1.67
				c0.334-1.082,1.352-2.082,2.277-2.253C96.577,106.854,97.06,107.599,96.729,108.688z"/>
			<path fill="#989898" d="M96.294,108.683c-0.267,0.881-1.092,1.697-1.839,1.828c-0.755,0.129-1.15-0.468-0.883-1.346
				c0.267-0.881,1.092-1.693,1.843-1.825C96.169,107.208,96.554,107.803,96.294,108.683z"/>
			<path fill="#CDCCCC" d="M95.93,108.81c-0.199,0.649-0.807,1.244-1.355,1.343c-0.548,0.088-0.838-0.35-0.639-0.999
				c0.201-0.65,0.809-1.24,1.355-1.339C95.838,107.711,96.127,108.156,95.93,108.81z"/>
			<g id="Tire_Mid_Hole">
				<path fill="#010101" d="M95.286,108.857c-0.063,0.208-0.247,0.388-0.422,0.422c-0.176,0.025-0.267-0.106-0.206-0.31
					c0.064-0.207,0.249-0.386,0.423-0.428C95.256,108.512,95.338,108.655,95.286,108.857z"/>
				<path fill="#010101" d="M95.119,108.2c-0.042,0.116-0.14,0.211-0.235,0.228c-0.095,0.021-0.141-0.056-0.111-0.171
					c0.042-0.111,0.137-0.212,0.235-0.225C95.107,108.013,95.151,108.089,95.119,108.2z"/>
				<path fill="#010101" d="M95.781,108.265c-0.044,0.111-0.14,0.214-0.235,0.228c-0.095,0.014-0.142-0.057-0.111-0.173
					c0.042-0.111,0.137-0.211,0.233-0.228C95.761,108.076,95.813,108.148,95.781,108.265z"/>
				<path fill="#010101" d="M95.762,108.965c-0.042,0.116-0.137,0.212-0.233,0.223c-0.095,0.021-0.141-0.05-0.111-0.166
					c0.04-0.116,0.135-0.212,0.233-0.228C95.745,108.774,95.792,108.851,95.762,108.965z"/>
				<path fill="#010101" d="M95.119,109.591c-0.042,0.116-0.135,0.215-0.233,0.23c-0.098,0.017-0.142-0.06-0.11-0.171
					c0.04-0.119,0.136-0.215,0.231-0.23C95.107,109.403,95.155,109.484,95.119,109.591z"/>
				<path fill="#010101" d="M94.426,109.576c-0.044,0.114-0.14,0.21-0.235,0.229c-0.096,0.016-0.144-0.06-0.112-0.17
					c0.042-0.12,0.137-0.216,0.233-0.232C94.414,109.388,94.458,109.464,94.426,109.576z"/>
				<path fill="#010101" d="M94.441,108.886c-0.043,0.111-0.139,0.211-0.235,0.224c-0.096,0.016-0.142-0.053-0.112-0.172
					c0.042-0.111,0.138-0.211,0.235-0.223C94.43,108.698,94.472,108.767,94.441,108.886z"/>
			</g>
		</g>
		<polygon fill="#333333" points="78.171,118.75 72.55,115.369 80.32,107.145 85.726,108.46 81.851,111.698 79.954,112.918 
			79.029,116.52 		"/>
		<path fill="#333333" d="M97.856,105.256c0,0-0.765-0.885-2.448-1.107l-5.688,3.167l-0.091,3.866l1.147,0.732
			C90.776,111.914,92.705,103.802,97.856,105.256z"/>
		<path fill="#676867" d="M91.396,111.724c0,0,0.01-3.782,3.251-5.858c0,0,2.688-1.489,3.357,0.674c0,0,0.195,1.132-0.041,1.753
			l0.511-0.184c0,0,0.606-3.805-2.396-3.223c0,0-5.437,1.402-5.301,7.023L91.396,111.724z"/>
		<path fill="#BBB9BA" d="M78.532,111.513l11.507-4.104l1.55,0.948c0,0-0.968,0.753-0.809,3.758l-11.539,6.034
			C79.238,118.148,77.736,116.807,78.532,111.513z"/>
		<polygon fill="#989898" points="79.496,113.316 90.505,107.686 88.186,106.328 78.699,111.48 78.065,112.631 		"/>
		<polygon opacity="0.5" fill="#FFFFFF" enable-background="new    " points="79.92,114.464 91.589,108.356 91.366,108.212 
			79.715,114.397 		"/>
		<path fill="none" stroke="#676867" stroke-width="0.1" stroke-miterlimit="10" d="M80.364,114.696l5.14-2.718
			c0,0,0.339-0.069,0.358,0.195l-0.044,1.979c0,0,0.016,0.244-0.235,0.311l-5.268,2.713c0,0-0.247-0.071-0.213-0.383l0.042-1.585
			C80.145,115.209,80.054,114.835,80.364,114.696z"/>
		<path fill="none" stroke="#676867" stroke-width="0.1" stroke-miterlimit="10" d="M86.341,111.611l3.792-1.98
			c0,0,0.336-0.064,0.356,0.195l-0.084,1.904c0,0,0.016,0.243-0.235,0.312l-3.881,2.059c0,0-0.247-0.071-0.213-0.378l0.038-1.586
			C86.114,112.137,86.039,111.771,86.341,111.611z"/>
		<polygon fill="#CDCCCC" points="80.301,116.547 85.365,113.942 85.592,114.085 80.392,116.851 		"/>
		<polygon fill="#CDCCCC" points="86.234,113.607 90.035,111.691 90.266,111.839 86.321,113.91 		"/>
		<polygon fill="#CDCCCC" points="113.596,95.069 113.539,97.281 113.902,97.289 114.393,96.967 114.393,94.647 		"/>
		<path opacity="0.3" fill="#CDCCCC" enable-background="new    " d="M101.732,84.83c0,0,0.613,4.03-1.141,7.771L101.732,84.83z"/>
		<g>
			<polygon fill="#333333" points="137.93,82.097 137.818,86.754 137.475,87.034 132.809,84.768 			"/>
			<polygon fill="#333333" points="139.865,81.161 143.896,78.914 143.785,83.58 143.344,83.954 139.563,81.854 139.574,81.348 			
				"/>
			<polygon fill="#333333" points="114.596,96.243 117.504,97.791 117.619,93.015 114.676,92.946 			"/>
			<g>
				<g>
					<g id="Container">
						<polygon fill="#E5E5E5" points="81.851,111.698 144.324,78.969 144.762,60.393 131.725,52.632 69.205,85.708 68.83,102.203 
													"/>
						<polygon opacity="0.7" fill="#BBB9BA" enable-background="new    " points="69.185,86.499 82.082,93.903 81.735,108.539 
							68.864,100.566 						"/>
						<polygon opacity="0.7" fill="#BBB9BA" enable-background="new    " points="144.5,60.947 144.156,75.602 81.922,108.433 
							82.227,93.748 						"/>
						<path opacity="0.3" fill="#989898" enable-background="new    " d="M73.467,94.421c0,0,0.929-2.191,0.851-3.997L73.467,94.421
							z"/>
						<path opacity="0.3" fill="#CDCCCC" enable-background="new    " d="M73.389,94.382c0,0,0.004-2.148,0.843-3.988L73.389,94.382
							z"/>
						<path opacity="0.5" fill="#989898" enable-background="new    " d="M79.592,96.8c0,0,0.161-2.379-1.056-4.061L79.592,96.8z"/>
						<path opacity="0.5" fill="#CDCCCC" enable-background="new    " d="M79.571,96.724c0,0-0.99-1.916-1.095-3.929L79.571,96.724z
							"/>
						<path opacity="0.3" fill="#989898" enable-background="new    " d="M69.803,89.2c0,0,1.464,0.1,2.507-0.594L69.803,89.2z"/>
						<path opacity="0.3" fill="#CDCCCC" enable-background="new    " d="M69.803,89.12c0,0,1.252-0.736,2.499-0.609L69.803,89.12z"
							/>
						<path opacity="0.3" fill="#989898" enable-background="new    " d="M70.621,91.883c0,0,2.173-1.087,3.308-2.513L70.621,91.883
							z"/>
						<path opacity="0.3" fill="#CDCCCC" enable-background="new    " d="M70.594,91.811c0,0,1.431-1.642,3.29-2.517L70.594,91.811z
							"/>
						<path opacity="0.3" fill="#989898" enable-background="new    " d="M87.831,93.777c0,0-1.904,4.443-1.169,7.793L87.831,93.777
							z"/>
						<path opacity="0.3" fill="#CDCCCC" enable-background="new    " d="M88.055,93.819c0,0,0.614,4.033-1.142,7.774L88.055,93.819
							z"/>
						<path opacity="0.3" fill="#989898" enable-background="new    " d="M91.68,97.54c0,0-0.888,2.646-0.486,4.776L91.68,97.54z"/>
						<path opacity="0.3" fill="#CDCCCC" enable-background="new    " d="M91.792,97.569c0,0,0.354,2.555-0.466,4.766L91.792,97.569
							z"/>
						<path opacity="0.3" fill="#989898" enable-background="new    " d="M90.834,93.258c0,0-1.847,3.949-1.955,6.81L90.834,93.258z
							"/>
						<path opacity="0.3" fill="#CDCCCC" enable-background="new    " d="M90.959,93.281c0,0-0.274,3.458-1.924,6.795L90.959,93.281
							z"/>
						<path opacity="0.3" fill="#989898" enable-background="new    " d="M85.07,94.717c0,0-1.295,3.343-1.136,5.881L85.07,94.717z"
							/>
						<path opacity="0.3" fill="#CDCCCC" enable-background="new    " d="M85.178,94.747c0,0,0.047,3.044-1.12,5.865L85.178,94.747z
							"/>
						<path opacity="0.3" fill="#989898" enable-background="new    " d="M101.502,84.797c0,0-1.904,4.439-1.169,7.793
							L101.502,84.797z"/>
						<path opacity="0.3" fill="#989898" enable-background="new    " d="M107.071,88.606c0,0-0.887,2.646-0.485,4.773
							L107.071,88.606z"/>
						<path opacity="0.3" fill="#CDCCCC" enable-background="new    " d="M107.172,88.647c0,0,0.352,2.554-0.466,4.766
							L107.172,88.647z"/>
						<path opacity="0.3" fill="#989898" enable-background="new    " d="M106.224,84.324c0,0-1.845,3.95-1.954,6.814
							L106.224,84.324z"/>
						<path opacity="0.3" fill="#CDCCCC" enable-background="new    " d="M106.336,84.345c0,0-0.275,3.461-1.922,6.793
							L106.336,84.345z"/>
						<path opacity="0.3" fill="#989898" enable-background="new    " d="M116.178,76.594c0,0-1.906,4.444-1.172,7.794
							L116.178,76.594z"/>
						<path opacity="0.3" fill="#CDCCCC" enable-background="new    " d="M116.396,76.641c0,0,0.611,4.029-1.145,7.771
							L116.396,76.641z"/>
						<path opacity="0.3" fill="#989898" enable-background="new    " d="M121.729,80.412c0,0-0.891,2.642-0.486,4.77
							L121.729,80.412z"/>
						<path opacity="0.3" fill="#CDCCCC" enable-background="new    " d="M121.832,80.446c0,0,0.352,2.55-0.467,4.765
							L121.832,80.446z"/>
						<path opacity="0.3" fill="#989898" enable-background="new    " d="M120.879,76.124c0,0-1.844,3.949-1.953,6.81
							L120.879,76.124z"/>
						<path opacity="0.3" fill="#CDCCCC" enable-background="new    " d="M121.004,76.148c0,0-0.271,3.458-1.922,6.794
							L121.004,76.148z"/>
						<path opacity="0.3" fill="#989898" enable-background="new    " d="M132.568,68.72c0,0-1.9,4.444-1.166,7.794L132.568,68.72z"
							/>
						<path opacity="0.3" fill="#CDCCCC" enable-background="new    " d="M132.791,68.765c0,0,0.613,4.033-1.143,7.775
							L132.791,68.765z"/>
						<path opacity="0.3" fill="#989898" enable-background="new    " d="M138.125,72.539c0,0-0.893,2.642-0.486,4.77
							L138.125,72.539z"/>
						<path opacity="0.3" fill="#CDCCCC" enable-background="new    " d="M138.227,72.574c0,0,0.355,2.55-0.467,4.765
							L138.227,72.574z"/>
						<path opacity="0.3" fill="#989898" enable-background="new    " d="M137.279,68.247c0,0-1.846,3.95-1.957,6.814
							L137.279,68.247z"/>
						<path opacity="0.3" fill="#CDCCCC" enable-background="new    " d="M137.402,68.271c0,0-0.27,3.458-1.92,6.793L137.402,68.271
							z"/>
					</g>
					<polygon fill="#676867" points="82.887,108.452 93.685,102.754 93.681,102.996 82.882,108.655 					"/>
					<polygon fill="#676867" points="82.871,109.181 93.665,103.479 93.665,103.714 82.871,109.383 					"/>
					<polygon fill="#676867" points="82.855,109.909 93.653,104.2 93.645,104.442 82.851,110.104 					"/>
					<polygon fill="#676867" points="95.458,101.953 106.264,96.247 106.256,96.485 95.45,102.148 					"/>
					<polygon fill="#676867" points="95.442,102.67 106.248,96.975 106.24,97.214 95.438,102.877 					"/>
					<polygon fill="#676867" points="95.423,103.399 106.231,97.693 106.224,97.937 95.418,103.595 					"/>
					<polygon fill="#676867" points="107.785,95.529 118.584,89.831 118.58,90.061 107.781,95.737 					"/>
					<polygon fill="#676867" points="107.77,96.257 118.568,90.557 118.564,90.792 107.762,96.461 					"/>
					<polygon fill="#676867" points="107.752,96.975 118.551,91.277 118.545,91.516 107.746,97.179 					"/>
					<polygon fill="#676867" points="120.318,88.97 131.119,83.267 131.115,83.504 120.313,89.178 					"/>
					<polygon fill="#676867" points="120.303,89.7 131.102,84.002 131.096,84.229 120.295,89.906 					"/>
					<polygon fill="#676867" points="120.285,90.42 131.082,84.714 131.074,84.957 120.277,90.625 					"/>
					<polygon fill="#676867" points="132.861,82.447 143.658,76.742 143.65,76.985 132.855,82.644 					"/>
					<polygon fill="#676867" points="132.844,83.176 143.643,77.47 143.639,77.715 132.84,83.372 					"/>
					<polygon fill="#676867" points="132.828,83.894 143.627,78.188 143.619,78.431 132.824,84.094 					"/>
					<g>
						<polygon fill="#676867" points="86.867,105.838 86.556,106.014 86.55,106.225 86.867,106.053 						"/>
						<polygon fill="#676867" points="86.285,106.16 85.927,106.345 85.919,106.556 86.281,106.36 						"/>
						<polygon fill="#676867" points="88.31,105.081 87.955,105.279 87.951,105.491 88.31,105.304 						"/>
						<polygon fill="#676867" points="87.684,105.419 87.138,105.706 87.13,105.922 87.676,105.635 						"/>
						<polygon fill="#676867" points="85.656,106.486 85.162,106.746 85.158,106.962 85.652,106.691 						"/>
						<polygon fill="#676867" points="84.898,106.89 84.576,107.061 84.572,107.265 84.895,107.093 						"/>
						<polygon fill="#676867" points="83.94,107.592 84.309,107.399 84.317,107.196 83.948,107.392 						"/>
						<polygon fill="#676867" points="88.895,104.773 88.584,104.945 88.577,105.16 88.891,104.997 						"/>
						<polygon fill="#676867" points="92.222,103.021 91.854,103.216 91.85,103.446 92.218,103.252 						"/>
						<polygon fill="#676867" points="92.804,102.714 92.485,102.89 92.477,103.119 92.8,102.949 						"/>
						<polygon fill="#676867" points="83.685,107.527 83.054,107.869 83.05,108.064 83.68,107.73 						"/>
						<polygon fill="#676867" points="89.656,104.379 89.162,104.634 89.162,104.858 89.646,104.606 						"/>
						<polygon fill="#676867" points="93.067,102.575 93.059,102.814 93.844,102.398 93.848,102.159 						"/>
						<polygon fill="#676867" points="90.282,104.049 89.911,104.235 89.908,104.459 90.278,104.276 						"/>
						<polygon fill="#676867" points="91.595,103.352 91.126,103.599 91.123,103.826 91.586,103.582 						"/>
						<polygon fill="#676867" points="90.864,103.737 90.547,103.905 90.537,104.128 90.86,103.97 						"/>
					</g>
					<g>
						<polygon fill="#676867" points="99.291,99.387 98.972,99.545 98.968,99.761 99.287,99.602 						"/>
						<polygon fill="#676867" points="98.709,99.69 98.342,99.889 98.338,100.092 98.705,99.905 						"/>
						<polygon fill="#676867" points="100.737,98.622 100.371,98.807 100.367,99.035 100.734,98.84 						"/>
						<polygon fill="#676867" points="100.111,98.956 99.556,99.243 99.55,99.455 100.104,99.167 						"/>
						<polygon fill="#676867" points="98.083,100.024 97.585,100.287 97.582,100.494 98.08,100.239 						"/>
						<polygon fill="#676867" points="97.314,100.427 97.005,100.598 97,100.802 97.311,100.641 						"/>
						<polygon fill="#676867" points="96.366,101.133 96.725,100.944 96.733,100.742 96.374,100.928 						"/>
						<polygon fill="#676867" points="101.32,98.317 101.003,98.476 100.996,98.706 101.314,98.534 						"/>
						<polygon fill="#676867" points="104.639,96.561 104.283,96.753 104.275,96.983 104.635,96.796 						"/>
						<polygon fill="#676867" points="105.22,96.247 104.911,96.418 104.905,96.652 105.215,96.49 						"/>
						<polygon fill="#676867" points="96.101,101.068 95.465,101.404 95.461,101.599 96.095,101.275 						"/>
						<polygon fill="#676867" points="102.068,97.915 101.582,98.174 101.578,98.396 102.064,98.137 						"/>
						<polygon fill="#676867" points="105.49,96.114 105.482,96.345 106.271,95.934 106.276,95.7 						"/>
						<polygon fill="#676867" points="102.7,97.584 102.34,97.781 102.335,98.003 102.693,97.803 						"/>
						<polygon fill="#676867" points="104.008,96.896 103.553,97.134 103.548,97.369 104.002,97.125 						"/>
						<polygon fill="#676867" points="103.279,97.277 102.971,97.438 102.965,97.672 103.271,97.501 						"/>
					</g>
					<g>
						<polygon fill="#676867" points="111.615,92.866 111.305,93.037 111.297,93.253 111.607,93.082 						"/>
						<polygon fill="#676867" points="111.033,93.183 110.676,93.368 110.67,93.584 111.025,93.389 						"/>
						<polygon fill="#676867" points="113.057,92.105 112.703,92.301 112.695,92.515 113.053,92.33 						"/>
						<polygon fill="#676867" points="112.428,92.436 111.885,92.724 111.879,92.95 112.424,92.66 						"/>
						<polygon fill="#676867" points="110.404,93.518 109.906,93.773 109.9,93.978 110.396,93.715 						"/>
						<polygon fill="#676867" points="109.643,93.915 109.324,94.078 109.314,94.287 109.639,94.123 						"/>
						<polygon fill="#676867" points="108.688,94.612 109.057,94.425 109.061,94.221 108.695,94.409 						"/>
						<polygon fill="#676867" points="113.643,91.803 113.33,91.963 113.328,92.188 113.639,92.025 						"/>
						<polygon fill="#676867" points="116.969,90.047 116.604,90.245 116.596,90.469 116.961,90.281 						"/>
						<polygon fill="#676867" points="117.553,89.743 117.229,89.901 117.225,90.134 117.543,89.973 						"/>
						<polygon fill="#676867" points="108.436,94.554 107.801,94.884 107.797,95.085 108.428,94.76 						"/>
						<polygon fill="#676867" points="114.4,91.406 113.91,91.661 113.91,91.883 114.396,91.632 						"/>
						<polygon fill="#676867" points="117.811,89.596 117.807,89.831 118.594,89.428 118.6,89.187 						"/>
						<polygon fill="#676867" points="115.029,91.067 114.664,91.261 114.656,91.485 115.023,91.301 						"/>
						<polygon fill="#676867" points="116.336,90.378 115.875,90.616 115.865,90.851 116.334,90.607 						"/>
						<polygon fill="#676867" points="115.611,90.763 115.293,90.935 115.287,91.157 115.607,90.998 						"/>
					</g>
					<g>
						<polygon fill="#676867" points="124.156,86.385 123.84,86.557 123.832,86.771 124.15,86.6 						"/>
						<polygon fill="#676867" points="123.572,86.699 123.203,86.887 123.197,87.102 123.568,86.905 						"/>
						<polygon fill="#676867" points="125.6,85.624 125.234,85.821 125.229,86.039 125.598,85.846 						"/>
						<polygon fill="#676867" points="124.969,85.967 124.418,86.249 124.412,86.465 124.963,86.181 						"/>
						<polygon fill="#676867" points="122.943,87.03 122.447,87.289 122.441,87.497 122.938,87.238 						"/>
						<polygon fill="#676867" points="122.178,87.435 121.867,87.603 121.861,87.807 122.17,87.64 						"/>
						<polygon fill="#676867" points="121.232,88.133 121.59,87.941 121.596,87.74 121.234,87.934 						"/>
						<polygon fill="#676867" points="126.182,85.32 125.863,85.488 125.857,85.704 126.178,85.541 						"/>
						<polygon fill="#676867" points="129.5,83.563 129.143,83.759 129.135,83.994 129.494,83.794 						"/>
						<polygon fill="#676867" points="130.082,83.255 129.773,83.427 129.768,83.664 130.076,83.488 						"/>
						<polygon fill="#676867" points="120.963,88.069 120.332,88.414 120.326,88.606 120.959,88.276 						"/>
						<polygon fill="#676867" points="126.93,84.921 126.447,85.173 126.439,85.4 126.926,85.149 						"/>
						<polygon fill="#676867" points="130.354,83.113 130.346,83.355 131.127,82.946 131.131,82.703 						"/>
						<polygon fill="#676867" points="127.561,84.592 127.199,84.782 127.195,85.005 127.557,84.814 						"/>
						<polygon fill="#676867" points="128.867,83.894 128.414,84.145 128.408,84.367 128.863,84.129 						"/>
						<polygon fill="#676867" points="128.143,84.28 127.832,84.447 127.828,84.676 128.139,84.513 						"/>
					</g>
					<g>
						<polygon fill="#676867" points="136.689,79.718 136.379,79.886 136.377,80.094 136.686,79.931 						"/>
						<polygon fill="#676867" points="136.111,80.018 135.75,80.22 135.746,80.424 136.104,80.232 						"/>
						<polygon fill="#676867" points="138.135,78.953 137.781,79.14 137.773,79.364 138.133,79.169 						"/>
						<polygon fill="#676867" points="137.506,79.284 136.963,79.571 136.957,79.785 137.5,79.5 						"/>
						<polygon fill="#676867" points="135.482,80.349 134.984,80.618 134.98,80.826 135.479,80.567 						"/>
						<polygon fill="#676867" points="134.721,80.763 134.402,80.926 134.395,81.132 134.717,80.968 						"/>
						<polygon fill="#676867" points="133.764,81.464 134.131,81.273 134.135,81.065 133.77,81.256 						"/>
						<polygon fill="#676867" points="138.719,78.651 138.408,78.811 138.4,79.037 138.713,78.865 						"/>
						<polygon fill="#676867" points="142.045,76.892 141.678,77.081 141.674,77.31 142.041,77.125 						"/>
						<polygon fill="#676867" points="142.627,76.586 142.311,76.746 142.303,76.979 142.627,76.822 						"/>
						<polygon fill="#676867" points="133.51,81.399 132.877,81.729 132.873,81.938 133.504,81.606 						"/>
						<polygon fill="#676867" points="139.479,78.247 138.988,78.506 138.984,78.731 139.471,78.472 						"/>
						<polygon fill="#676867" points="142.889,76.444 142.885,76.674 143.67,76.265 143.674,76.031 						"/>
						<polygon fill="#676867" points="140.104,77.912 139.738,78.112 139.734,78.334 140.102,78.137 						"/>
						<polygon fill="#676867" points="141.416,77.223 140.949,77.468 140.941,77.698 141.41,77.456 						"/>
						<polygon fill="#676867" points="140.686,77.61 140.367,77.77 140.361,78.004 140.682,77.833 						"/>
					</g>
				</g>
				<polygon fill="#1E2C32" points="78.452,109.799 81.851,111.698 144.324,78.969 144.49,76.048 143.973,76.411 143.922,78.585 
					132.016,85.001 132.143,82.432 131.494,82.706 131.432,85.34 119.6,91.402 119.664,88.877 118.951,89.173 119.018,91.791 
					107.252,97.832 107.313,95.333 106.449,95.751 106.389,98.297 94.832,104.463 94.89,102.033 94.115,102.391 94.115,104.874 
					82.604,110.791 82.641,108.005 81.735,108.539 78.336,106.34 				"/>
			</g>
			<polygon fill="#333333" points="101.092,101.479 101.049,103.327 101.574,103.542 101.559,104.257 101.02,104.531 
				101.014,104.727 101.695,105.236 102.645,104.849 102.652,104.455 102.34,104.272 102.355,103.563 102.678,103.384 
				102.742,100.65 			"/>
			<polygon fill="#989898" points="114.018,94.951 113.902,97.289 113.539,97.281 113.596,95.069 			"/>
			<polygon fill="#CDCCCC" points="104.654,101.529 104.613,103.24 105.137,103.661 115.563,98.12 115.461,96.261 115.133,95.992 
							"/>
			<polygon fill="#989898" points="104.654,101.529 105.176,101.777 105.137,103.661 104.609,103.443 			"/>
			<polygon fill="#FFFFFF" points="105.176,101.777 115.461,96.261 105.172,102.057 			"/>
			<polygon fill="#989898" points="105.229,99.49 105.666,99.24 105.605,101.785 105.176,101.777 			"/>
		</g>
		<g id="Tire">
			<path fill="#141318" d="M76.377,117.935c-0.516,1.624-2.093,3.151-3.528,3.397c-1.422,0.259-2.162-0.864-1.646-2.485
				c0.519-1.622,2.092-3.147,3.528-3.396C76.165,115.206,76.896,116.321,76.377,117.935z"/>
			<path fill="#121332" d="M76.651,118.164c-0.506,1.615-2.068,3.129-3.479,3.379c-1.415,0.253-2.144-0.859-1.638-2.481
				c0.506-1.614,2.068-3.128,3.48-3.378C76.423,115.437,77.161,116.543,76.651,118.164z"/>
			<path fill="#141318" d="M77.089,118.372c-0.518,1.623-2.092,3.147-3.526,3.398c-1.425,0.255-2.163-0.864-1.647-2.485
				c0.516-1.622,2.093-3.146,3.527-3.395C76.872,115.64,77.603,116.759,77.089,118.372z"/>
			<path fill="#121332" d="M77.356,118.603c-0.506,1.615-2.067,3.129-3.482,3.379c-1.413,0.251-2.143-0.861-1.637-2.485
				c0.509-1.61,2.067-3.124,3.481-3.379C77.137,115.871,77.866,116.989,77.356,118.603z"/>
			<path fill="#141318" d="M77.691,118.759c-0.518,1.622-2.092,3.147-3.526,3.396c-1.422,0.259-2.165-0.861-1.648-2.483
				c0.517-1.626,2.095-3.147,3.527-3.397C77.477,116.025,78.209,117.133,77.691,118.759z"/>
			<path fill="#121332" d="M77.964,118.988c-0.508,1.615-2.07,3.129-3.483,3.379c-1.412,0.253-2.143-0.863-1.635-2.485
				c0.506-1.613,2.066-3.128,3.479-3.378C77.739,116.258,78.472,117.376,77.964,118.988z"/>
			<path fill="#141318" d="M78.047,119.112c-0.488,1.604-1.998,3.092-3.363,3.331c-1.364,0.243-2.077-0.856-1.587-2.462
				c0.49-1.606,1.997-3.092,3.361-3.336C77.832,116.407,78.543,117.507,78.047,119.112z"/>
			<path fill="#121332" d="M77.707,119.269c-0.413,1.357-1.679,2.614-2.837,2.814c-1.149,0.209-1.751-0.73-1.335-2.074
				c0.411-1.354,1.678-2.616,2.833-2.816C77.519,117.002,78.121,117.925,77.707,119.269z"/>
			<path fill="#CDCCCC" d="M77.26,119.241c-0.331,1.084-1.351,2.088-2.275,2.256c-0.94,0.165-1.417-0.584-1.084-1.67
				c0.333-1.084,1.351-2.085,2.277-2.252C77.101,117.42,77.591,118.169,77.26,119.241z"/>
			<path fill="#989898" d="M76.83,119.245c-0.271,0.885-1.091,1.696-1.843,1.829c-0.751,0.131-1.149-0.466-0.878-1.344
				c0.267-0.876,1.089-1.697,1.84-1.828C76.699,117.767,77.089,118.372,76.83,119.245z"/>
			<path fill="#CDCCCC" d="M76.452,119.372c-0.199,0.646-0.805,1.238-1.355,1.339c-0.55,0.093-0.838-0.347-0.638-0.996
				c0.199-0.65,0.807-1.243,1.355-1.343C76.372,118.28,76.659,118.727,76.452,119.372z"/>
			<g id="Tire_Hole">
				<path fill="#010101" d="M75.818,119.428c-0.064,0.206-0.247,0.386-0.422,0.422c-0.175,0.023-0.267-0.107-0.205-0.31
					c0.063-0.211,0.249-0.391,0.422-0.423C75.786,119.081,75.872,119.221,75.818,119.428z"/>
				<path fill="#010101" d="M75.646,118.766c-0.04,0.116-0.135,0.216-0.23,0.232c-0.1,0.016-0.144-0.057-0.112-0.173
					c0.041-0.114,0.136-0.211,0.231-0.227C75.635,118.583,75.683,118.659,75.646,118.766z"/>
				<path fill="#010101" d="M76.312,118.83c-0.04,0.115-0.139,0.212-0.235,0.231c-0.095,0.016-0.139-0.061-0.111-0.172
					c0.043-0.119,0.14-0.216,0.235-0.23C76.296,118.643,76.34,118.719,76.312,118.83z"/>
				<path fill="#010101" d="M76.292,119.531c-0.04,0.116-0.135,0.216-0.235,0.231c-0.096,0.017-0.14-0.06-0.109-0.172
					c0.042-0.12,0.137-0.214,0.235-0.23C76.276,119.345,76.324,119.416,76.292,119.531z"/>
				<path fill="#010101" d="M75.655,120.148c-0.04,0.115-0.136,0.216-0.231,0.232c-0.1,0.016-0.143-0.06-0.111-0.173
					c0.04-0.114,0.135-0.213,0.235-0.229C75.643,119.965,75.688,120.041,75.655,120.148z"/>
				<path fill="#010101" d="M74.958,120.137c-0.042,0.113-0.138,0.212-0.235,0.228c-0.095,0.017-0.141-0.055-0.111-0.172
					c0.043-0.11,0.137-0.211,0.235-0.228C74.943,119.953,74.987,120.024,74.958,120.137z"/>
				<path fill="#010101" d="M74.969,119.443c-0.042,0.115-0.137,0.216-0.231,0.232c-0.1,0.016-0.144-0.06-0.111-0.173
					c0.042-0.119,0.135-0.215,0.235-0.23C74.958,119.256,75.003,119.336,74.969,119.443z"/>
			</g>
		</g>
		<g id="Body">
			<path fill="#CDCCCC" d="M55.875,117.296l0.061-2.55c0,0-0.09-0.467,0.71-0.513l0.006-0.286l-0.347-0.287l0.135-5.727l1.109-4.738
				l-0.014-0.15l0.871-2.643l0.078-0.139c0,0,1.073-2.085,1.652-2.14l5.504-2.96l2.975-2.988l0.946,0.49l0.851-0.729l6.397,3.784
				l-0.03,1.216l2.082,1.259l-0.068,2.894c0,0,0.51,0.223,0.422,1.227l-0.388,9.482l0.498,0.355c0,0,0.25,0.06,0.208,0.594
				l-0.127,5.294l-1.233,0.692l0.02-1.907c0,0-0.323-1.278-0.917-1.733c0,0-0.53-0.195-0.986,0.072l-2.783,1.438
				c0,0-0.947,0.726-1.373,2.559c0,0-0.577,1.334-0.45,2.766l-4.178,1.932c0,0-0.213,0.145-0.907-0.18L55.875,117.296z"/>
			<path fill="#394A54" d="M56.536,111.934l0.052-2.172c0,0,0.071-0.262,0.433-0.126l9.129,5.397c0,0,0.429,0.148,0.458,0.881
				l-0.043,1.745c0,0,0.014,0.314-0.462,0.107l-0.783-0.478c0,0-0.189-0.161-0.341,0.163l-0.284,0.629c0,0-0.034,0.212-0.555-0.016
				l-5.604-3.326l-0.186-0.219l-0.29-1.224c0,0,0.053-0.282-0.324-0.427l-0.973-0.538C56.769,112.324,56.526,112.229,56.536,111.934
				z"/>
			<path fill="#394A54" d="M57.634,118.001l0.042-1.708c0,0,0.082-0.3,0.366-0.088l6.928,3.964c0,0,0.34,0.195,0.253,0.657
				l-0.023,1.466c0,0-0.169,0.301-0.526-0.012l-6.973-4.123L57.634,118.001z"/>
			<path fill="#010101" d="M57.55,103.221l10.895,6.563c0,0,0.64,0.119,1.156-0.271l-0.796,4.108c0,0-0.367,0.832-1.39,0.72
				l-10.961-6.383L57.55,103.221z"/>
			<path fill="#1B555D" d="M57.554,103.224l10.8,6.343c0,0,0.634,0.419,1.148,0.028l-0.787,3.813c0,0-0.222,0.908-1.245,0.789
				l-11.01-6.388L57.554,103.224z"/>
			<path fill="#010101" d="M56.894,111.288l0.006-0.282c0,0,0.035-0.155,0.271,0.003l8.838,5.177c0,0,0.22,0.079,0.184,0.329
				l-0.005,0.156l-0.002,0.123l-9.206-5.37L56.894,111.288z"/>
			<path fill="#010101" d="M56.964,111.676l9.217,5.313l0.074,0.123l-0.008,0.28h-0.144l-9.006-5.304l-0.142-0.115
				C56.955,111.979,56.783,111.834,56.964,111.676z"/>
			<path fill="#010101" d="M58.401,113.421l0.097,0.002h0.115l5.882,3.331l0.158,0.211l-0.004,0.144l-0.002,0.108h-0.162
				l-0.22-0.008l-5.621-3.383C58.646,113.826,58.305,113.667,58.401,113.421z"/>
			<polygon fill="#010101" points="58.958,114.476 58.959,114.355 59.066,114.355 59.178,114.416 63.993,117.344 64.107,117.455 
				64.104,117.578 63.962,117.575 59.052,114.6 			"/>
			<polygon fill="#010101" points="58.16,116.552 64.784,120.468 64.85,120.564 64.776,120.75 64.68,120.75 58.044,116.9 
				57.973,116.77 57.974,116.618 			"/>
			<polygon fill="#010101" points="58.146,117.165 64.768,121.086 64.836,121.18 64.762,121.368 64.667,121.363 58.032,117.519 
				57.958,117.388 57.962,117.236 			"/>
			<polygon fill="#010101" points="58.149,117.783 64.776,121.704 64.841,121.798 64.768,121.981 64.674,121.977 58.036,118.125 
				57.964,118.006 57.966,117.843 			"/>
			<polygon fill="#FFFFFF" points="61.06,113.037 60.674,112.814 60.688,112.188 61.078,112.403 			"/>
			<polygon fill="#FFFFFF" points="61.548,113.336 61.163,113.125 61.18,112.495 61.565,112.711 			"/>
			<polygon fill="#FFFFFF" points="62.032,113.611 61.634,113.396 61.651,112.763 62.047,112.982 			"/>
			<polygon fill="#FFFFFF" points="62.553,113.905 62.157,113.69 62.173,113.062 62.566,113.276 			"/>
		</g>
		<polygon fill="#010101" points="70.319,108.782 69.532,112.854 74.507,110.432 74.597,106.635 		"/>
		<polygon fill="#193E45" points="70.309,108.73 69.532,112.807 74.387,110.385 74.479,106.694 		"/>
		<path fill="#171E1E" d="M57.536,103.24c0,0-0.2-0.032-0.145-0.312l0.337-0.976l0.144,0.004l10.822,6.399
			c0,0,0.473,0.198,1.225,0.076l-0.008,0.277l-0.124,0.896l-0.916,0.197c0,0-0.147,0.051-1.214-0.599L57.536,103.24z"/>
		<path fill="#303D44" d="M70.36,106.865h-0.241c0,0-0.483,0.267-1.075-0.238l-10.468-5.998c0,0-0.157-0.222-0.088-0.337
			c0,0-0.646,1.015-0.604,1.665l10.819,6.402c0,0,0.763,0.523,1.464,0.036L70.36,106.865z"/>
		<polygon fill="#303D44" points="70.061,108.074 78.428,103.683 78.418,104.168 69.923,108.574 		"/>
		<path opacity="0.5" fill="#669A9A" enable-background="new    " d="M56.52,107.734l0.086-0.494l5.474,3.231
			c0,0,0.701,0.275,1.858,0.331l0.587,0.294c0,0,2.485,1.614,3.212,1.578l0.217,0.004l-0.327,1.315c0,0-0.128,0.263-0.923-0.23
			L56.52,107.734z"/>
		<path opacity="0.5" fill="#188598" enable-background="new    " d="M57.485,103.574l4.036,2.407c0,0,0.042,1.075-0.343,2.001
			c0,0-0.424,1.039,0.036,2.581l-4.659-2.952l0.063-0.287L57.485,103.574z"/>
		<path opacity="0.5" fill="#188598" enable-background="new    " d="M65.141,112.711l1.902-3.432c0,0,0.098-0.092,0.333,0.013
			l0.728,0.491l-1.149,4.106L65.141,112.711z"/>
		<path opacity="0.5" fill="#188598" enable-background="new    " d="M68.285,110.058c0,0,0.105-0.481,0.353,0.013l-0.979,3.939
			c0,0-0.148,0.183-0.539-0.016L68.285,110.058z"/>
		<path fill="#010101" d="M69.802,113.232l0.001-0.127l0.248,0.013c0,0,0.594,0.461,0.864,0.422l0.047-0.402l0.267,0.127
			c0,0,0.038,0.506-0.349,0.542C70.882,113.812,70.366,113.742,69.802,113.232z"/>
		<path opacity="0.3" fill="#669A9A" enable-background="new    " d="M71.472,108.313c0,0,0.049,0.318-0.523,0.662l-0.218,0.272
			l-0.027,0.396l0.862,1.996l0.645-0.19l0.066-2.864c0,0-0.679,0.031-0.643-0.268L71.472,108.313L71.472,108.313z"/>
		<path fill="#3C4759" d="M70.517,109.865c0,0,0.066-0.166,0.192-0.238c0,0,1.053,0.493,1.236,0.82l-0.074,3.132l-0.132,0.041
			l-1.171-0.697L70.517,109.865z"/>
		<path fill="#25343E" d="M70.511,109.978c0,0,0.004-0.179,0.128-0.251c0,0,0.997,0.45,1.18,0.772l-0.074,3.129h-0.122l-1.181-0.662
			L70.511,109.978z"/>
		<path fill="#010101" d="M70.16,108.962l0.005-0.208c0,0,0.439-0.251,1.166,0.595l-0.013,0.573l-0.169-0.06l-0.02-0.522
			C71.131,109.34,70.664,108.826,70.16,108.962z"/>
		<polygon fill="#FFFFFF" points="67.112,114.34 66.89,123.814 67.312,123.899 67.532,114.548 		"/>
		<path fill="#A2A1A2" d="M56.587,114.42l0.079-0.445l10.312,6.027c0,0,0.531,0.335,1.206,0.022l2.33-1.178
			c0,0,0.983-3.829,4.233-4.785c0,0-2.836,0.749-4.017,4.952l-3.148,1.486c0,0-0.312,0.234-1.116-0.275L56.587,114.42z"/>
		<path fill="#FFFFFF" d="M65.784,95.106l-2.287,2.287l6.804-5.238l-7.979,6.391l-0.188-0.163l-0.005,0.306l8.154,4.821
			c0,0,7.129-2.453,8.5-2.393c0,0,0.38,0.154,0.297,0.684c0,0-0.042-0.681-0.883-0.234l-6.768,3.732c0,0-0.876,0.646-1.071,1.563
			l-0.395,0.043l-0.411-0.011l-0.284-0.147c0,0,0.284,0.099,0.71-0.518c0,0,0.431-0.794,1.079-1.032l-0.806-0.017l-10.775-6.161
			c0,0-0.823,1.264-0.707,1.547c0,0-0.712,0.33,0.686-1.947l0.36-0.298L65.784,95.106z"/>
		<polygon fill="#FFFFFF" points="70.888,102.901 78.087,97.923 78.938,98.406 		"/>
		<polygon fill="#C2BFBF" points="70.787,102.901 76.798,95.747 76.762,97.146 		"/>
		<path fill="#989898" d="M62.134,98.681l0.008-0.306l8.152,4.919l2.513-1.001c0,0,4.485-2.111,4.907-1.682
			c0,0-0.313-0.094-7.428,2.896L62.134,98.681z"/>
		<polygon opacity="0.5" fill="#676867" enable-background="new    " points="69.377,115.389 78.261,110.795 78.243,111.619 
			69.358,116.277 		"/>
		<polygon opacity="0.5" fill="#FFFFFF" enable-background="new    " points="69.358,116.277 78.243,111.619 78.239,111.751 
			69.356,116.407 		"/>
		<polygon fill="#333333" points="73.431,113.444 73.419,113.866 74.436,113.333 74.447,112.913 		"/>
		<path fill="#676867" d="M78.281,105.988l-0.289-0.002l-1.922,1.063l-0.195,0.139l-0.104,4.371l0.271,0.003l2.231-1.234
			L78.281,105.988z M76.173,111.204l-0.228-0.003l0.09-3.81l0.165-0.124l1.679-0.936l0.249,0.008l-0.004,3.79L76.173,111.204z"/>
		<path fill="#676867" d="M77.874,106.897l-0.195-0.004l-1.293,0.721l-0.125,0.101l-0.07,2.94l0.183,0.004l1.506-0.833
			L77.874,106.897z M76.458,110.424l-0.153-0.007l0.06-2.567l0.12-0.092l1.127-0.633l0.175,0.004l-0.008,2.562L76.458,110.424z"/>
		<path fill="#FFFFFF" d="M67.375,121.249l3.876-1.952c0,0,0.808-2.886,1.957-3.717l6.238-3.264l0.074,0.144l-6.045,3.229
			c0,0-1.086,0.537-2.024,3.69l-4.08,2.045L67.375,121.249L67.375,121.249z"/>
		<polygon fill="#989898" points="79.512,114.316 79.92,114.464 79.84,117.806 79.456,117.994 		"/>
	</g>
</g>
</svg>
