<?xml version="1.0" encoding="utf-8"?>
<!-- Generator: Adobe Illustrator 16.0.0, SVG Export Plug-In . SVG Version: 6.00 Build 0)  -->
<!DOCTYPE svg PUBLIC "-//W3C//DTD SVG 1.1//EN" "http://www.w3.org/Graphics/SVG/1.1/DTD/svg11.dtd">
<svg version="1.1" id="Layer_1" xmlns="http://www.w3.org/2000/svg" xmlns:xlink="http://www.w3.org/1999/xlink" x="0px" y="0px"
	 width="100px" height="100px" viewBox="0 0 100 100" enable-background="new 0 0 100 100" xml:space="preserve">

	 <style type="text/css">
	  .arrow{fill:{{statusColor}};display:{{arrowDisplay}}}
	  .hourglass{fill:{{hourglassColor}};display:{{hourglassDisplay}}}
    .parking{display:{{parkingDisplay}};fill:{{parkingColor}}}
	 </style>
	}

<g transform="translate({{translateX}},0) scale({{scaleX}},1)">
	<g id="Tire_2_4_">
		<path d="M44.243,53.907c0,0-1.194-0.712-1.439-2.056c0,0,0.296-2.126,2.338-2.017c0,0,1.391,0.594,1.75,1.813
			C47.253,52.866,44.243,53.907,44.243,53.907z"/>
		<path fill="#333333" d="M46.272,53.441c-0.719,0.681-1.698,0.832-2.188,0.343c-0.489-0.493-0.305-1.443,0.413-2.124
			c0.719-0.682,1.698-0.834,2.188-0.344C47.175,51.809,46.99,52.76,46.272,53.441z"/>
		<path fill="#999999" d="M46.381,51.688c-0.359-0.36-1.078-0.248-1.605,0.252c-0.526,0.5-0.662,1.197-0.304,1.56
			c0.359,0.36,1.078,0.248,1.604-0.253C46.605,52.746,46.74,52.049,46.381,51.688z M45.841,53.073
			c-0.238,0.226-0.564,0.276-0.728,0.112c-0.162-0.164-0.101-0.479,0.138-0.705c0.239-0.227,0.564-0.277,0.728-0.113
			C46.142,52.529,46.08,52.848,45.841,53.073z"/>
		<path fill="#FFFFFF" d="M45.567,51.626c0,0,0.175,0.258,0.146,0.551l-0.163,0.017c0,0-0.006-0.463-0.131-0.563L45.567,51.626z"/>
	</g>
	<g id="Tire_2_3_">
		<path d="M60.922,47.354c0,0-1.332-0.403-1.893-1.649c0,0-0.223-2.136,1.785-2.519c0,0,1.494,0.241,2.135,1.338
			C63.593,45.62,60.922,47.354,60.922,47.354z"/>
		<path fill="#333333" d="M62.777,46.413c-0.533,0.834-1.446,1.217-2.041,0.858c-0.594-0.36-0.643-1.327-0.108-2.161
			s1.448-1.217,2.042-0.857S63.313,45.58,62.777,46.413z"/>
		<path fill="#999999" d="M62.462,44.685c-0.435-0.264-1.104,0.019-1.497,0.63c-0.392,0.611-0.355,1.322,0.08,1.586
			c0.436,0.264,1.105-0.017,1.497-0.63C62.936,45.659,62.898,44.949,62.462,44.685z M62.271,46.16
			c-0.179,0.276-0.481,0.405-0.681,0.284c-0.196-0.119-0.212-0.441-0.034-0.718c0.176-0.277,0.48-0.406,0.678-0.285
			C62.434,45.561,62.449,45.883,62.271,46.16z"/>
		<path fill="#FFFFFF" d="M61.659,44.82c0,0,0.231,0.209,0.272,0.5l-0.154,0.056c0,0-0.117-0.447-0.262-0.517L61.659,44.82z"/>
	</g>
	<polygon fill="#282828" points="66.148,40.867 65.402,41.204 65.402,42.122 66.148,41.835 	"/>
	<g>
		<path fill="#FFE600" d="M42.409,41.265c0,0-8.338,3.424-8.118,4.828l0.132,2.105l5.704,5.31c0,0,1.273,0.527,3.336,0.133
			c0,0-0.571-2.019,1.447-2.983c0,0,2.238-0.702,2.326,1.622l12.506-5.309c0,0-0.57-2.106,1.359-3.159c0,0,2.326-0.966,2.371,1.536
			c0,0,2.721-2.194,2.676-2.502v-2.589c0,0,0.045-0.702-0.481-1.141L60.488,36c0,0-0.438,0-3.949,0.57c0,0-1.098-0.395-3.466-0.614
			c0,0-5.091,1.272-6.978,2.457L42.409,41.265z"/>
		<path fill="#2B2B2B" d="M46.358,38.501l4.916,3.115l-0.045,0.57c0,0-1.931,3.555-2.721,3.686c0,0-5.573-3.29-5.748-4.651
			l3.159-2.544L46.358,38.501z"/>
		<path fill="#475160" d="M46.314,38.588l4.784,3.072v0.438c0,0-1.888,3.467-2.678,3.555c0,0-5.397-3.116-5.573-4.433l3.071-2.545
			L46.314,38.588z"/>
		<path fill="#2B2B2B" d="M54.301,40.782l-2.369,1.01c0,0-2.544,3.817-2.544,4.037l0.307,0.087l4.74-2.149
			C54.389,43.811,54.521,41.046,54.301,40.782z"/>
		<path fill="#475160" d="M54.169,40.87L51.8,41.792c0,0-2.413,3.817-2.413,4.036l0.219,0.088l4.695-2.105
			C54.257,43.811,54.434,41.09,54.169,40.87z"/>
		<path fill="#2B2B2B" d="M55.18,40.607c0,0,0.043-0.132-0.089,2.939l4.081-1.843l0.176-0.219l-1.799-1.888l-0.22,0.088
			L55.18,40.607z"/>
		<path fill="#475160" d="M55.047,40.607c0,0,0.176-0.176,0.044,2.896l3.95-1.799l0.175-0.219l-1.755-1.844l-0.176,0.088
			L55.047,40.607z"/>
		<path fill="#2B2B2B" d="M53.379,35.999l4.872,2.633l0.351,0.176l3.248,0.834l-5.485-3.071
			C56.32,36.57,55.223,36.219,53.379,35.999z"/>
		<path fill="#475160" d="M53.248,35.999l4.871,2.633l0.352,0.176l3.158,0.79l-5.441-3.027
			C56.188,36.57,55.091,36.219,53.248,35.999z"/>
		<polygon fill="#2B2B2B" points="57.898,39.466 58.382,39.247 61.585,40.081 61.717,40.344 59.786,41.31 		"/>
		<polygon fill="#475160" points="57.855,39.51 58.294,39.247 61.41,40.081 61.585,40.344 59.742,41.265 		"/>
		<polygon opacity="0.3" fill="#EFEFEF" enable-background="new    " points="49.737,40.694 45.788,44.117 46.578,44.644 
			50.396,41.09 		"/>
		<polygon opacity="0.3" fill="#EFEFEF" enable-background="new    " points="49.475,40.52 45.35,43.854 45.524,43.941 
			49.562,40.607 		"/>
		<polygon opacity="0.3" fill="#EFEFEF" enable-background="new    " points="49.299,40.388 45.042,43.635 45.218,43.767 		"/>
		<path opacity="0.3" fill="#C6C6C5" enable-background="new    " d="M53.994,41.396c0,0-0.834,0.878-0.834,1.976
			c0,0-0.176,0.965-1.01,1.097c0,0-0.482,0.263-0.877,0.57l2.896-1.316C54.169,43.767,54.434,40.958,53.994,41.396z"/>
		<path opacity="0.3" fill="#C6C6C5" enable-background="new    " d="M57.241,40.081c0,0-0.921,0.525-0.658,1.623
			c0,0,0.353,0.264-0.132,0.878c-0.482,0.614-0.219,0.263-0.219,0.263l2.545-1.185l0.086-0.175
			C58.865,41.485,57.725,39.773,57.241,40.081z"/>
		<polygon fill="#6B6B6B" points="34.817,47.058 38.986,50.611 38.986,51.4 34.817,47.804 		"/>
		<polygon fill="#A3A2A2" points="34.949,47.409 38.68,50.568 38.636,51.27 34.949,48.066 		"/>
		<polygon fill="#6B6B6B" points="34.905,47.584 38.592,50.7 38.592,51.4 34.861,48.198 		"/>
		<path fill="#3F403F" d="M34.423,48.242l5.573,5.31c0,0,1.755,0.526,3.467,0.132c0,0-0.176-1.01,0.043-1.535l-0.263,0.045
			c0,0-2.106,0.263-3.116,0.043l-5.748-5.002L34.423,48.242z"/>
		<path fill="#3D3D3D" d="M38.811,50.523l1.229,0.482c0,0,0.659,0.264,1.712,0c0,0,0.264-0.044,0.264,0.133v1.053
			c0,0,0,0.132-0.176,0.177c0,0-1.492,0.175-1.975-0.22l-1.316-1.01C38.592,51.096,38.592,50.568,38.811,50.523z"/>
		<path fill="#A3A2A2" d="M38.811,50.305l1.229,0.482c0,0,0.659,0.264,1.712,0c0,0,0.264-0.044,0.264,0.132v1.054
			c0,0,0,0.133-0.176,0.176c0,0-1.492,0.176-1.975-0.219l-1.316-1.011C38.592,50.919,38.592,50.349,38.811,50.305z"/>
		<circle opacity="0.5" fill="#757576" enable-background="new    " cx="41.399" cy="51.665" r="0.265"/>
		<path stroke="#000000" stroke-width="0.1" stroke-miterlimit="10" d="M59.348,46.136l-12.418,5.267"/>
		<path fill="none" stroke="#000000" stroke-width="0.1" stroke-miterlimit="10" d="M61.85,39.598l2.414-0.878
			c0.525-0.132,1.141,0.22,1.141,0.22"/>
		<path fill="none" stroke="#000000" stroke-width="0.1" stroke-miterlimit="10" d="M55.091,43.547l-0.22,4.477"/>
		<path fill="none" stroke="#000000" stroke-width="0.1" stroke-miterlimit="10" d="M54.389,43.811l-0.307,4.563"/>
		<path fill="none" stroke="#000000" stroke-width="0.1" stroke-miterlimit="10" d="M48.114,50.919v-3.467l1.272-1.624"/>
		<path fill="none" stroke="#000000" stroke-width="0.1" stroke-miterlimit="10" d="M59.786,41.265v2.896
			c0,0-0.308,0.352-0.438,1.975"/>
		<path fill="none" stroke="#000000" stroke-width="0.1" stroke-miterlimit="10" d="M39.952,50.787
			c0.395-0.922,8.073-5.134,8.073-5.134"/>
		<path fill="none" stroke="#000000" stroke-width="0.1" stroke-miterlimit="10" d="M34.686,46.662
			c-0.263-1.755,8.206-4.915,8.206-4.915"/>
		<polygon fill="#F05123" points="46.402,50.218 47.061,49.865 47.061,50.218 46.402,50.523 		"/>
		<polygon fill="#F05123" points="62.82,42.472 63.479,42.121 63.479,42.472 62.82,42.779 		"/>
		<path fill="#333333" d="M52.984,45.565l1.054-0.438c0,0,0.044,0,0.088,0.087l-0.044,0.396l-0.088,0.088l-1.01,0.351h-0.045v-0.438
			L52.984,45.565z"/>
		<path fill="#787878" d="M53.072,45.653l0.878-0.351c0,0,0.044,0,0.087,0.043v0.264l-0.043,0.044L53.16,45.96h-0.044l-0.044-0.263
			V45.653L53.072,45.653z"/>
		<path fill="#333333" d="M58.471,43.679l1.053-0.439c0,0,0.045,0,0.088,0.088l-0.088,0.395l-0.088,0.088l-0.965,0.352h-0.088
			v-0.439L58.471,43.679z"/>
		<path fill="#787878" d="M58.559,43.723l0.877-0.351c0,0,0.043,0,0.088,0.043v0.264l-0.133,0.043l-0.834,0.308h-0.043l-0.045-0.263
			L58.559,43.723z"/>
		<path opacity="0.3" fill="#FFFFFF" enable-background="new    " d="M58.82,45.171c0,0-0.791,0.614-0.922,1.14
			c0,0,0,0.265-1.447,0.659l-0.702,0.438l3.247-1.272c0,0,0.045-1.185,0.309-1.271L58.82,45.171z"/>
		<path opacity="0.3" fill="#FFFFFF" enable-background="new    " d="M49.123,49.076c0,0,0.966-0.088,1.492,0.22
			c0,0,0.176,0.175,1.492-0.527l0.832-0.175l-3.291,1.271c0,0-0.833-0.833-1.097-0.745L49.123,49.076z"/>
		<path opacity="0.2" fill="#F7F7F7" enable-background="new    " d="M40.521,51.227c0,0-0.569,0.264-0.569,0.57
			c0,0,0.263,0.176,0.569,0C40.521,51.797,40.039,51.841,40.521,51.227z"/>
		<polygon fill="#A3A2A2" points="40.521,52.411 40.521,53.684 40.786,53.729 40.786,52.411 		"/>
		<path fill="#3F403F" d="M63.077,44.073l3.071-1.623v0.307c0,0,0,0.176-0.219,0.439l-2.459,2.149
			C63.473,45.39,63.341,44.073,63.077,44.073z"/>
		<g>
			<path fill="#3A3A3A" d="M48.75,38.69l1.042-2.258c0,0,0.202-0.488,0.479-0.52l3.262-0.875c0,0,0.318-0.112,0.508,0.379
				l1.05,2.775l-4.707,1.768L48.75,38.69z"/>
			<path fill="#191919" d="M48.448,38.788l1.388-2.449c0,0,0.244-0.381,0.368-0.408c0,0,0.407-0.105,0.288,0.822l-0.109,3.207
				L48.448,38.788z"/>
		</g>
		
			<text transform="matrix(0.8011 -0.2205 0.1982 0.9802 51.374 38.1582)" fill="#FFE600" font-family="'Calibri'" font-size="1.8495">TAXI</text>
		<g>
			<polygon fill="none" points="53.912,46.718 53.912,46.718 53.912,46.719 54.85,46.375 53.911,46.709 			"/>
			<polygon fill="none" points="57.953,46.535 58.889,46.165 57.951,46.525 			"/>
			<polygon fill="none" points="54.1,47.957 55.033,47.587 54.098,47.948 			"/>
			<polygon fill="none" points="57.768,45.296 57.768,45.296 57.768,45.297 58.704,44.953 57.766,45.287 			"/>
			<polygon fill="none" points="50.059,48.146 50.058,48.146 50.059,48.146 50.995,47.802 50.057,48.136 			"/>
			<polygon fill="none" points="50.244,49.385 51.178,49.014 50.243,49.374 			"/>
			<polygon fill="#E2E2E2" points="50.212,49.303 50.152,48.903 50.135,48.789 49.196,49.123 49.19,49.083 49.182,49.086 
				49.204,49.234 49.276,49.713 49.285,49.71 49.279,49.668 			"/>
			<polygon fill="#161616" points="50.226,49.392 50.244,49.385 50.243,49.374 51.178,49.014 51.086,48.403 51.086,48.403 
				50.13,48.755 50.133,48.78 50.133,48.78 50.061,48.302 50.038,48.152 50.059,48.146 50.058,48.146 49.104,48.512 49.124,48.645 
				49.19,49.083 49.196,49.123 50.135,48.789 50.152,48.903 50.212,49.303 49.279,49.668 49.285,49.71 49.302,49.817 49.374,50.365 
				50.343,49.958 50.222,49.531 			"/>
			<polygon fill="#E2E2E2" points="50.059,48.146 50.057,48.136 50.037,48.143 49.964,47.665 49.946,47.541 49.06,47.824 
				49.081,48.044 49.104,48.512 49.104,48.512 50.058,48.146 			"/>
			<polygon fill="#E2E2E2" points="49.217,49.126 49.219,49.136 49.219,49.136 49.127,48.525 48.134,48.859 48.114,49.019 
				48.114,49.512 48.114,49.512 48.261,49.478 			"/>
			<polygon fill="#161616" points="49.183,49.12 48.226,49.471 48.114,49.512 48.135,49.713 48.135,50.099 49.275,49.73 
				49.184,49.129 			"/>
			<polygon fill="#161616" points="48.114,48.143 48.114,48.406 48.114,48.896 49.127,48.525 49.06,47.824 			"/>
			<polygon fill="#E2E2E2" points="48.135,50.099 48.135,50.295 48.114,50.919 49.344,50.378 49.275,49.73 			"/>
			<polygon fill="#E2E2E2" points="52.127,48.582 52.05,48.067 51.1,48.406 51.094,48.366 51.085,48.369 51.107,48.519 
				51.18,48.996 51.188,48.993 51.184,48.951 			"/>
			<polygon fill="#161616" points="52.05,48.067 52.059,48.065 51.962,47.428 51.962,47.428 51.962,47.429 51.008,47.796 
				51.005,47.779 51.005,47.779 51.027,47.929 51.094,48.366 51.1,48.406 			"/>
			<polygon fill="#161616" points="52.127,48.582 51.184,48.951 51.188,48.993 51.205,49.101 51.277,49.579 52.219,49.19 
				52.137,48.579 			"/>
			<polygon fill="#E2E2E2" points="51.962,47.429 51.962,47.428 51.87,46.817 50.912,47.169 50.936,47.317 51.005,47.779 
				51.008,47.796 			"/>
			<polygon fill="#E2E2E2" points="50.038,48.152 50.061,48.302 50.133,48.78 50.133,48.78 50.13,48.755 51.086,48.403 
				50.995,47.802 50.059,48.146 			"/>
			<polygon fill="#161616" points="50.037,48.143 50.057,48.136 50.995,47.802 50.898,47.164 49.941,47.516 49.946,47.541 
				49.964,47.665 			"/>
			<polygon fill="#E2E2E2" points="50.244,49.385 50.226,49.392 50.222,49.531 50.281,49.921 50.294,50.01 51.277,49.579 
				51.178,49.014 			"/>
			<polygon fill="#E2E2E2" points="54.066,47.876 54.006,47.477 53.988,47.362 53.05,47.695 53.044,47.656 53.035,47.66 
				53.059,47.808 53.13,48.286 53.139,48.283 53.133,48.241 			"/>
			<polygon fill="#161616" points="54.08,47.965 54.1,47.957 54.098,47.948 55.033,47.587 54.939,46.977 54.939,46.977 
				53.982,47.327 53.915,46.875 53.893,46.726 53.912,46.719 53.912,46.718 53.912,46.718 53.912,46.718 52.958,47.085 
				52.955,47.069 52.955,47.069 52.979,47.218 53.044,47.656 53.05,47.695 53.988,47.362 54.006,47.477 54.066,47.876 
				53.133,48.241 53.139,48.283 53.154,48.391 53.229,48.789 54.135,48.494 54.076,48.104 			"/>
			<polygon fill="#E2E2E2" points="53.912,46.718 53.912,46.718 53.911,46.709 53.891,46.716 53.818,46.238 53.8,46.114 
				52.863,46.459 52.885,46.607 52.955,47.069 52.958,47.085 			"/>
			<polygon fill="#E2E2E2" points="53.038,47.703 53.038,47.702 52.945,47.092 51.988,47.443 52.012,47.592 52.08,48.044 
				53.037,47.693 			"/>
			<polygon fill="#161616" points="53.037,47.693 52.08,48.044 52.079,48.044 52.104,48.193 52.175,48.672 53.129,48.304 
				53.038,47.703 			"/>
			<polygon fill="#161616" points="51.893,46.807 51.915,46.955 51.986,47.433 52.945,47.092 52.85,46.454 			"/>
			<polygon fill="#E2E2E2" points="52.176,48.682 52.173,48.822 52.219,49.19 53.229,48.789 53.129,48.304 			"/>
			<polygon fill="#E2E2E2" points="55.98,47.155 55.902,46.642 54.954,46.979 54.947,46.939 54.939,46.942 54.962,47.091 
				55.034,47.569 55.042,47.566 55.036,47.524 			"/>
			<polygon fill="#161616" points="55.902,46.642 55.912,46.638 55.814,46.001 55.814,46.001 55.814,46.002 54.861,46.368 
				54.882,46.501 54.947,46.939 54.954,46.979 			"/>
			<polygon fill="#161616" points="55.98,47.155 55.036,47.524 55.042,47.566 55.059,47.674 55.131,48.151 56.073,47.764 
				55.988,47.152 			"/>
			<polygon fill="#E2E2E2" points="55.814,46.001 55.723,45.391 54.768,45.742 54.789,45.891 54.861,46.368 54.861,46.368 
				55.814,46.002 			"/>
			<polygon fill="#E2E2E2" points="53.893,46.726 53.915,46.875 53.982,47.327 54.939,46.977 54.85,46.375 53.912,46.719 			"/>
			<polygon fill="#161616" points="53.891,46.716 53.911,46.709 54.85,46.375 54.752,45.737 53.796,46.089 53.8,46.114 
				53.818,46.238 			"/>
			<polygon fill="#E2E2E2" points="54.1,47.957 54.08,47.965 54.076,48.104 54.135,48.494 54.135,48.494 55.131,48.151 
				55.033,47.587 			"/>
			<polygon fill="#E2E2E2" points="57.921,46.454 57.859,46.055 57.843,45.939 56.904,46.273 56.898,46.233 56.891,46.237 
				56.913,46.386 56.984,46.864 56.994,46.861 56.986,46.819 			"/>
			<polygon fill="#161616" points="57.936,46.542 57.953,46.535 57.951,46.525 58.889,46.165 58.795,45.555 58.795,45.555 
				57.838,45.905 57.77,45.453 57.747,45.304 57.768,45.297 57.768,45.296 57.768,45.296 57.768,45.296 56.813,45.663 
				56.811,45.647 56.811,45.647 56.832,45.796 56.898,46.233 56.904,46.273 57.843,45.939 57.859,46.055 57.921,46.454 
				56.986,46.819 56.994,46.861 57.01,46.968 57.082,47.406 57.99,47.072 57.932,46.683 			"/>
			<polygon fill="#E2E2E2" points="57.768,45.296 57.768,45.296 57.766,45.287 57.745,45.294 57.674,44.815 57.654,44.692 
				56.718,45.037 56.74,45.186 56.811,45.647 56.813,45.663 			"/>
			<polygon fill="#E2E2E2" points="56.893,46.271 56.8,45.669 55.844,46.021 55.866,46.17 55.938,46.647 55.938,46.647 
				55.936,46.622 			"/>
			<polygon fill="#161616" points="56.893,46.271 55.936,46.622 55.938,46.647 55.957,46.771 56.029,47.249 56.982,46.882 			"/>
			<polygon fill="#161616" points="55.747,45.384 55.771,45.532 55.842,46.011 56.8,45.669 56.704,45.032 			"/>
			<polygon fill="#E2E2E2" points="56.031,47.26 56.027,47.4 56.073,47.764 57.082,47.406 56.982,46.882 			"/>
			<polygon fill="#E2E2E2" points="59.684,45.793 59.825,45.271 58.809,45.558 58.803,45.518 58.794,45.521 58.816,45.669 
				58.889,46.147 58.896,46.145 58.891,46.103 			"/>
			<polygon fill="#161616" points="59.825,45.271 59.825,45.178 59.67,44.579 59.67,44.579 59.67,44.579 58.716,44.946 
				58.736,45.079 58.803,45.518 58.809,45.558 			"/>
			<polygon fill="#161616" points="59.684,45.793 59.684,45.793 58.891,46.103 58.896,46.145 58.913,46.252 58.986,46.647 
				59.67,46.402 			"/>
			<polygon fill="#E2E2E2" points="59.67,44.579 59.578,43.968 58.621,44.32 58.645,44.469 58.716,44.946 58.716,44.946 			"/>
			<polygon fill="#E2E2E2" points="57.747,45.304 57.77,45.453 57.838,45.905 58.795,45.555 58.704,44.953 57.768,45.297 			"/>
			<polygon fill="#161616" points="57.745,45.294 57.766,45.287 58.704,44.953 58.607,44.315 57.65,44.667 57.654,44.692 
				57.674,44.815 			"/>
			<polygon fill="#E2E2E2" points="57.953,46.535 57.936,46.542 57.932,46.683 57.99,47.072 57.99,47.072 58.986,46.647 
				58.889,46.165 			"/>
		</g>
	</g>
	<polygon fill="#51586B" points="66.148,40.936 65.479,41.265 65.479,42.19 66.148,41.903 	"/>
	<polygon fill="#919191" points="66.148,41.494 65.23,41.967 65.199,42.959 66.148,42.462 	"/>
	<polygon fill="#C1C1C1" points="66.148,41.835 65.316,42.263 65.293,42.917 66.148,42.45 	"/>
	<g display="none">
		<path id="smoke_2" display="inline" fill="#666766" d="M66.838,48.515c0.199,0.299-0.301,0.599-0.301,0.599c0.5,0.602,0,1,0,1
			c-0.199,0.301-0.898,0-0.898,0c-0.199,0.602-0.801,0.5-0.801,0.5c-0.699,0-0.602-0.6-0.602-0.6c-0.604-0.101-0.5-0.5-0.5-0.5
			c0-0.3,0.602-0.3,0.602-0.3c-0.699-0.301-0.5-0.801-0.5-0.801c0.199-0.6,1-0.199,1-0.199c0.699-0.601,1.199,0.199,1.199,0.199
			C66.338,47.914,66.838,48.515,66.838,48.515z		">
<animate  fill="remove" to="0" attributeName="opacity" dur="1" calcMode="linear" restart="always" begin="0.5s" additive="replace" repeatCount="indefinite" accumulate="none" from="1">
				</animate>
		</path>
		<path id="smoke_1" display="inline" fill="#999999" d="M65.539,49.414c0.102,0.199-0.199,0.4-0.199,0.4c0.301,0.399,0,0.6,0,0.6
			c-0.102,0.199-0.5,0-0.5,0c-0.102,0.4-0.5,0.301-0.5,0.301c-0.4,0-0.4-0.4-0.4-0.4c-0.396-0.1-0.299-0.301-0.299-0.301
			c0-0.199,0.299-0.199,0.299-0.199c-0.5-0.2-0.299-0.5-0.299-0.5c0.104-0.399,0.604-0.1,0.604-0.1c0.396-0.301,0.694,0.1,0.694,0.1
			C65.238,49.113,65.539,49.414,65.539,49.414z		">
<animateTransform  type="translate" fill="remove" attributeName="transform" dur="0.5" calcMode="linear" restart="always" values="0,0;1,-1" begin="0s" additive="replace" repeatCount="indefinite" accumulate="none" attributeType="XML">
				</animateTransform>
			
				<animate  fill="remove" to="0" attributeName="opacity" dur="1" calcMode="linear" restart="always" begin="0.5s" additive="replace" repeatCount="indefinite" accumulate="none" from="1">
				</animate>
		</path>
	</g>
	<path id="parking" class="parking" d="M53.154,17.552l-9.925,0.146l-4.863,8.393l5.061,8.247l9.925-0.146l4.863-8.393L53.154,17.552z
		 M49.126,30.557c-0.078,0.056-0.208,0.083-0.39,0.083h-0.21H45.77h-0.16c-0.148,0-0.263-0.031-0.344-0.093
		c-0.08-0.062-0.12-0.15-0.12-0.265c0-0.188,0.082-0.313,0.247-0.372c0.136-0.05,0.216-0.081,0.238-0.093
		c0.022-0.011,0.046-0.037,0.071-0.079c0.049-0.073,0.074-0.189,0.074-0.351v-6.885c0-0.16-0.025-0.277-0.074-0.351
		c-0.025-0.041-0.049-0.067-0.071-0.079c-0.022-0.012-0.103-0.042-0.238-0.093c-0.165-0.06-0.247-0.184-0.247-0.371
		c0-0.115,0.04-0.203,0.12-0.266c0.081-0.062,0.195-0.093,0.344-0.093h0.16h2.751v8.082c0,0.179,0.03,0.307,0.092,0.385
		c0.033,0.046,0.064,0.075,0.093,0.086c0.029,0.012,0.124,0.04,0.285,0.086c0.197,0.051,0.296,0.177,0.296,0.379
		C49.286,30.388,49.232,30.483,49.126,30.557z M52.02,25.805c-0.279,0.444-0.672,0.772-1.176,0.983
		c-0.416,0.17-1.016,0.255-1.799,0.255v-0.736c0.178-0.046,0.303-0.094,0.374-0.145c0.072-0.051,0.136-0.128,0.188-0.233
		c0.087-0.18,0.13-0.42,0.13-0.723v-2.201c0-0.215-0.014-0.376-0.043-0.481c-0.029-0.105-0.087-0.201-0.173-0.289
		c-0.12-0.128-0.28-0.208-0.482-0.24v-0.743c0.849,0,1.477,0.09,1.879,0.269c0.466,0.206,0.834,0.522,1.105,0.949
		c0.275,0.437,0.414,0.97,0.414,1.604C52.438,24.777,52.299,25.355,52.02,25.805z"/>
</g>
<path id="Idle" class="hourglass" d="M53.133,17.539l-9.925,0.173l-4.841,8.392l5.084,8.247l9.901-0.146l4.863-8.433L53.133,17.539z M49.529,30.516
	l-2.625,0.005c0,0-0.5,0.019-0.516-0.293c0,0-0.031-0.281,0.375-0.391c0,0,0.234,0.016,0.25-0.453l-0.031-5.906
	c0,0,0.047-0.266-0.359-0.344c0,0-0.268-0.109-0.235-0.391c0,0,0.11-0.172,0.329-0.25h3.125c0,0,0.328,0.031,0.344,0.281
	c0,0,0.031,0.313-0.313,0.359c0,0-0.359,0.109-0.266,0.656l-0.031,5.641c0,0,0.031,0.422,0.328,0.438c0,0,0.361,0.063,0.282,0.484
	C50.186,30.352,50.091,30.554,49.529,30.516z"/>
<g id="Direction">
	<g transform="rotate({{angle}} 50 50)">
		<polygon id="arrow" class="arrow" opacity="0.7" enable-background="new    " points="59.7,31.4 50.8,24 41.9,31.3 41.9,35.4 42,35.4 50.8,28.1 
			59.3,35.4 59.7,35.4 		">
		
			<animate  fill="remove" attributeName="opacity" dur="0.5s" calcMode="linear" restart="always" values="0.5; 0" begin="0s;anim_arrow3.end" additive="replace" accumulate="none" id="anim_arrow1">
			</animate>
		</polygon>
		<polygon id="arrow2" class="arrow" opacity="0.7" enable-background="new    " points="59.8,26.4 50.9,19 42,26.4 42,30.4 42.1,30.4 50.9,23.2 
			59.4,30.4 59.8,30.4 		">
		
			<animate  fill="remove" attributeName="opacity" dur="0.5s" calcMode="linear" restart="always" values="0.5; 0" begin="anim_arrow1.end" additive="replace" accumulate="none" id="anim_arrow2">
			</animate>
		</polygon>
		<polygon id="arrow3" class="arrow" opacity="0.7" enable-background="new    " points="59.9,21.4 51,14.1 42.1,21.4 42.1,25.5 42.2,25.5 
			51,18.2 59.5,25.5 59.9,25.5 		">
		
			<animate  fill="remove" attributeName="opacity" dur="0.5s" calcMode="linear" restart="always" values="0.5; 0" begin="anim_arrow2.end" additive="replace" accumulate="none" id="anim_arrow3">
			</animate>
		</polygon>
	</g>
</g>
</svg>
