<?xml version="1.0" encoding="utf-8"?>
<!-- Generator: Adobe Illustrator 16.0.0, SVG Export Plug-In . SVG Version: 6.00 Build 0)  -->
<!DOCTYPE svg PUBLIC "-//W3C//DTD SVG 1.1//EN" "http://www.w3.org/Graphics/SVG/1.1/DTD/svg11.dtd">
<svg version="1.1" id="Layer_1" xmlns="http://www.w3.org/2000/svg" xmlns:xlink="http://www.w3.org/1999/xlink" x="0px" y="0px"
	 width="200px" height="200px" viewBox="0 0 200 200" enable-background="new 0 0 200 200" xml:space="preserve">
<g id="Direction">
	<g transform="rotate({{angle}} 50 50)">
		<polygon id="arrow" opacity="0.7" fill="#ff0000" enable-background="new    " points="79.853,124.721 80.917,124.721 
			103.494,144.109 126.866,124.721 127.132,124.721 127.132,135.611 103.494,155 79.853,135.344 		">
		
	
		</polygon>
		<polygon id="arrow2" opacity="0.7" fill="#ff0000" enable-background="new    " points="79.589,138.002 80.649,138.002 
			103.227,157.123 126.6,138.002 126.866,138.002 126.866,148.625 103.227,168.279 79.589,148.625 		">
		
	
		</polygon>
		<polygon id="arrow3" opacity="0.7" fill="#ff0000" enable-background="new    " points="79.321,151.016 80.386,151.016 
			102.962,170.404 126.334,151.016 126.6,151.016 126.6,161.906 102.962,181.295 79.321,161.906 		">
		
	
		</polygon>
	</g>
</g>
<g>
	<path fill="#C6C6C6" d="M117.947,101.725l-4.016,11.754c-3.856,0.237-25.485-12.369-25.485-12.369L66.592,89.954l-11.853-6.496
		l5.313-11.303l55.27,19.459c2.115-0.626,4.066,1.889,4.066,1.889l7.625,13.12L117.947,101.725z"/>
	<path fill="#8E8E8E" d="M119.544,93.835c-0.409-1.39-3.065-2.451-3.065-2.451l-1.428-2.737c0.079-1.676-1.797-2.411-1.797-2.411
		l-9.518-4.981c-1.135-0.777-3.718-2.003-3.718-2.003l-12.542-6.779l-0.615-0.163l-0.04-0.45l0.693-0.408l0.042-0.49l-0.94-1.388
		l-1.021-1.103l-6.799-3.312c-2.203,1.457-10.406-0.86-10.406-0.86l-0.256,0.356L62.709,67.2l-0.654,0.942l-4.699,2.614L49.999,81.5
		v7.518c0.695,3.922,7.029,8.049,7.029,8.049l15.362,8.335l23.654,13.643l1.836,0.613c11.113,2.531,21.285,5.063,21.285,5.063
		l1.268-1.471c0.613-3.145,4.943-4.657,4.943-4.657c3.885-1.514,10.174-1.349,10.174-1.349l0.82-0.41v-1.471l-3.432-7.598
		c-1.35-2.943-3.065-3.727-3.065-3.727l-6.741-3.749L119.544,93.835z"/>
	<path fill="#B2B2B2" d="M118.76,102.291l-7.886,10.253c-2.901-0.364-22.428-11.435-22.428-11.435L66.587,89.954l-11.848-6.498
		l5.313-11.303l55.268,18.862c2.277,0.655,4.068,2.484,4.068,2.484l0.523,1.013L118.76,102.291z"/>
	<path fill="#CCCCCC" d="M100.824,93.501l2.247,5.389c14.829,0.697,13.891-6.331,13.891-6.331l-2.002-4.497
		C113.327,95.456,100.825,93.503,100.824,93.501z"/>
	<path fill="#F4F4F4" d="M114.924,89.161c-3.187,5.657-12.83,4.88-12.83,4.88l-1.308-0.326L57.559,70.671l0.405-0.49l4.402-2.494
		l25.139,3.76l-0.04,1.021l26.556,14.053C115.816,87.342,114.919,89.159,114.924,89.161z"/>
	<polygon fill="#639DAD" points="110.6,112.732 110.752,113.402 116.975,115.118 133.734,116.284 135.635,116.284 135.939,115.732 
		134.744,112.854 132.538,107.368 131.467,105.744 130.086,104.484 123.133,100.29 122.643,100.29 	"/>
	<path fill="#F4F4F4" d="M130.316,104.314c1.181,0.662,2.259,2.729,2.259,2.729l3.797,8.319v1.471l-0.819,0.41
		c-18.385-1.307-20.633-1.961-20.633-1.961c-3.922,0.081-26.964-13.398-26.964-13.398l0.49-0.775
		c19.812,11.746,26.556,13.113,26.556,13.113c4.33,0.858,20.592,1.717,20.592,1.717v-0.491l-3.146-7.765
		c-0.861-1.754-3.026-3.47-3.026-3.47l-6.288-3.924L130.316,104.314z"/>
	<path fill="#F4F4F4" d="M85.583,70.343l-7.147,4.29h-4.457l-10.905-5.841c-1.062-0.655-0.611-1.513-0.611-1.513l9.763-5.311
		l13.359,6.498C86.65,69.694,85.584,70.343,85.583,70.343z"/>
	<path fill="#CCCCCC" d="M85.818,70.133l-8.04,4.822l-3.566-0.113l-11.057-5.763l-0.326-0.328l-0.164-0.448l0.041-1.104
		l-1.599,2.093c0,0.421,0.449,0.561,0.449,0.561l11.933,6.699c2.252,1.023,4.539,0.33,4.539,0.33l9.479-5.433
		c0.613-0.367-1.773-2.787-1.773-2.787C86.06,69.405,85.818,70.128,85.818,70.133z"/>
	<polygon fill="#639DAD" points="87.783,103.551 66.182,92.12 66.139,91.465 66.016,90.444 65.563,89.994 64.618,88.874 
		88.446,101.107 	"/>
	<polygon fill="#FFFFFF" points="66.587,91.875 66.587,89.954 54.739,83.458 60.053,72.157 53.473,83.99 65.77,90.528 65.77,92.569 
		87.381,103.967 88.159,103.152 	"/>
	<path fill="#CCCCCC" d="M103.604,100.288l7.272,12.256c6.863,2.981,13.153-0.612,13.153-0.612c3.472-1.918,2.982-5.309,2.982-5.309
		l-7.623-13.12C117.428,102.371,103.602,100.29,103.604,100.288z"/>
	<path fill="#757575" d="M96.32,80.74l-3.372,2.145c-1.563,0.615-3.368,0.278-3.368,0.278l-6.988-3.616
		c-1.205-0.888-0.435-1.777-0.435-1.777l3.224-1.9c1.224-0.556,3.31-0.278,3.31-0.278l7.63,3.955
		C96.748,80.007,96.321,80.742,96.32,80.74z"/>
	<path fill="#D8D8D8" d="M95.888,80.664l-3.183,2.026c-1.476,0.579-3.176,0.261-3.176,0.261l-6.592-3.415
		c-1.131-0.837-0.405-1.678-0.405-1.678l3.034-1.796c1.156-0.517,3.125-0.256,3.125-0.256l7.198,3.732
		C96.293,79.972,95.889,80.667,95.888,80.664z"/>
	<path fill="#6AA7BF" d="M113.48,89.155l-4.781,2.859c-2.82,1.046-4.938,0.279-4.938,0.279l-8.272-4.232
		c-2.081-1.321-0.886-2.234-0.886-2.234l7.538-3.737l11.123,5.056C114.614,88.311,113.48,89.159,113.48,89.155z"/>
	<path fill="#6D6D6D" d="M112.678,88.879l-3.927,2.611c-2.612,0.978-4.397,0.127-4.397,0.127l-7.603-4.103
		c-1.93-1.237-1.058-1.991-1.058-1.991l6.592-3.103l10.111,4.649C113.648,88.157,112.678,88.874,112.678,88.879z"/>
	<path fill="#BBE0F2" d="M94.97,80.839l-2.811,1.76c-1.303,0.502-2.81,0.227-2.81,0.227l-5.818-2.971
		c-0.999-0.728-0.359-1.459-0.359-1.459l2.682-1.559c1.015-0.454,2.753-0.224,2.753-0.224l6.357,3.242
		C95.318,80.233,94.964,80.838,94.97,80.839z"/>
	<path fill="#D8D8D8" d="M112.161,88.875l-3.892,2.47c-1.65,0.613-3.489,0-3.489,0l-8.546-4.596
		c-1.35-0.797,0.281-1.961,0.281-1.961s3.887-2.421,4.006-2.513c0.119-0.093-0.431-3.616-0.431-3.616
		c-0.461-1.961,1.287-1.042,1.287-1.042c3.463,6.31,3.922,5.852,3.922,5.852l6.129,3.279
		C113.719,87.974,112.163,88.874,112.161,88.875z"/>
	<g>
		<polygon fill="#424242" points="123.581,117.307 123.57,118.012 125.678,118.201 125.694,117.525 		"/>
		<polygon fill="#424242" points="118.383,116.786 118.369,117.521 122.314,117.896 122.322,117.284 		"/>
		<polygon fill="#424242" points="87.94,108.611 87.121,108.118 87.14,107.073 87.955,107.641 		"/>
		<polygon fill="#424242" points="85.814,107.532 84.994,107.033 85.014,105.997 85.834,106.561 		"/>
		<polygon fill="#424242" points="83.781,106.454 82.961,105.956 82.98,104.917 83.797,105.482 		"/>
		<polygon fill="#424242" points="81.65,105.378 80.835,104.88 80.85,103.835 81.671,104.4 		"/>
		<polygon fill="#424242" points="79.773,104.055 78.958,103.559 78.975,102.518 79.794,103.084 		"/>
		<polygon fill="#424242" points="77.65,102.977 76.833,102.482 76.85,101.439 77.667,102.008 		"/>
		<polygon fill="#424242" points="75.762,101.988 74.944,101.49 74.96,100.452 75.778,101.02 		"/>
		<polygon fill="#424242" points="73.635,100.908 72.814,100.414 72.833,99.372 73.653,99.939 		"/>
		<polygon fill="#424242" points="71.6,99.832 70.78,99.334 70.801,98.294 71.616,98.859 		"/>
		<polygon fill="#424242" points="69.475,98.752 68.655,98.258 68.673,97.216 69.489,97.783 		"/>
		<polygon fill="#424242" points="67.598,97.429 66.778,96.935 66.798,95.895 67.612,96.461 		"/>
		<polygon fill="#424242" points="65.473,96.353 64.65,95.858 64.671,94.816 65.487,95.383 		"/>
		<polygon fill="#424242" points="63.438,95.274 62.618,94.78 62.639,93.738 63.454,94.303 		"/>
		<polygon fill="#424242" points="61.491,94.213 60.678,93.719 60.691,92.679 61.512,93.242 		"/>
	</g>
	<polygon fill="#424242" points="99.68,95.895 97.393,94.651 97.393,92.82 99.68,94.077 	"/>
	<polygon fill="#424242" points="96.836,94.358 94.549,93.113 94.549,91.283 96.836,92.539 	"/>
	<polygon fill="#424242" points="94.042,92.826 91.755,91.582 91.755,89.749 94.042,91.007 	"/>
	<polygon fill="#424242" points="91.198,91.289 88.909,90.046 88.909,88.211 91.198,89.47 	"/>
	<polygon fill="#424242" points="88.446,89.923 86.156,88.681 86.156,86.848 88.446,88.105 	"/>
	<polygon fill="#424242" points="85.604,88.388 83.314,87.141 83.314,85.312 85.604,86.566 	"/>
	<polygon fill="#424242" points="82.969,87.035 80.684,85.792 80.684,83.96 82.969,85.216 	"/>
	<polygon fill="#424242" points="80.126,85.497 77.839,84.255 77.839,82.42 80.126,83.678 	"/>
	<polygon fill="#424242" points="77.508,84.004 75.221,82.761 75.221,80.926 77.508,82.182 	"/>
	<polygon fill="#424242" points="74.669,82.466 72.378,81.223 72.378,79.39 74.669,80.646 	"/>
	<polygon fill="#424242" points="71.911,80.926 69.62,79.685 69.62,77.85 71.911,79.108 	"/>
	<polygon fill="#424242" points="69.069,79.39 66.778,78.147 66.778,76.314 69.069,77.571 	"/>
	<polygon fill="#424242" points="66.018,77.831 63.729,76.588 63.729,74.755 66.018,76.012 	"/>
	<polygon fill="#424242" points="63.178,76.295 60.889,75.05 60.889,73.218 63.178,74.474 	"/>
	<polygon fill="#424242" points="101.316,102.62 99.027,101.379 99.027,99.547 101.316,100.801 	"/>
	<polygon fill="#424242" points="98.475,101.084 96.186,99.84 96.186,98.007 98.475,99.265 	"/>
	<polygon fill="#424242" points="95.677,99.551 93.389,98.31 93.389,96.477 95.677,97.733 	"/>
	<polygon fill="#424242" points="92.835,98.013 90.549,96.77 90.549,94.937 92.835,96.195 	"/>
	<polygon fill="#424242" points="90.081,96.649 87.795,95.408 87.795,93.575 90.081,94.83 	"/>
	<polygon fill="#424242" points="87.239,95.113 84.953,93.868 84.953,92.035 87.239,93.294 	"/>
	<polygon fill="#424242" points="84.607,93.759 82.316,92.519 82.316,90.686 84.607,91.939 	"/>
	<polygon fill="#424242" points="81.768,92.222 79.475,90.979 79.475,89.147 81.768,90.404 	"/>
	<polygon fill="#424242" points="79.145,90.729 76.854,89.486 76.854,87.651 79.145,88.91 	"/>
	<polygon fill="#424242" points="76.305,89.191 74.018,87.948 74.018,86.116 76.305,87.37 	"/>
	<polygon fill="#424242" points="73.546,87.651 71.26,86.411 71.26,84.578 73.546,85.83 	"/>
	<polygon fill="#424242" points="70.704,86.116 68.417,84.871 68.417,83.04 70.704,84.297 	"/>
	<polygon fill="#424242" points="67.655,84.557 65.368,83.316 65.368,81.481 67.655,82.737 	"/>
	<polygon fill="#424242" points="64.813,83.02 62.525,81.776 62.525,79.943 64.813,81.202 	"/>
	<polygon fill="#424242" points="103.854,107.689 101.563,106.445 101.563,104.618 103.854,105.872 	"/>
	<polygon fill="#424242" points="101.012,106.152 98.723,104.913 98.723,103.08 101.012,104.332 	"/>
	<polygon fill="#424242" points="98.211,104.622 95.924,103.383 95.924,101.548 98.211,102.805 	"/>
	<polygon fill="#424242" points="95.371,103.084 93.082,101.843 93.082,100.01 95.371,101.27 	"/>
	<polygon fill="#424242" points="92.618,101.721 90.33,100.479 90.33,98.646 92.618,99.9 	"/>
	<polygon fill="#424242" points="89.779,100.185 87.488,98.939 87.488,97.106 89.779,98.365 	"/>
	<polygon fill="#424242" points="87.143,98.832 84.854,97.589 84.854,95.757 87.143,97.011 	"/>
	<polygon fill="#424242" points="84.303,97.293 82.016,96.052 82.016,94.219 84.303,95.472 	"/>
	<polygon fill="#424242" points="81.682,95.797 79.393,94.556 79.393,92.723 81.682,93.981 	"/>
	<polygon fill="#424242" points="78.839,94.263 76.555,93.016 76.555,91.188 78.839,92.441 	"/>
	<polygon fill="#424242" points="76.081,92.723 73.796,91.482 73.796,89.649 76.081,90.903 	"/>
	<polygon fill="#424242" points="73.239,91.188 70.952,89.942 70.952,88.109 73.239,89.368 	"/>
	<polygon fill="#424242" points="70.189,89.628 67.903,88.388 67.903,86.551 70.189,87.809 	"/>
	<polygon fill="#424242" points="67.35,88.093 65.061,86.848 65.061,85.015 67.35,86.272 	"/>
	<polygon fill="#424242" points="64.6,86.551 62.309,85.308 62.309,83.477 64.6,84.733 	"/>
	<polygon fill="#424242" points="61.816,85.011 59.53,83.768 59.53,81.937 61.816,83.195 	"/>
	<polygon fill="#424242" points="59.202,83.678 56.915,82.435 56.915,80.604 59.202,81.86 	"/>
	<polygon fill="#424242" points="62.26,81.481 59.969,80.236 59.969,78.406 62.26,79.664 	"/>
	<polygon fill="#424242" points="83.42,73.901 83.42,75.525 86.06,73.97 86.06,72.281 	"/>
	<polygon fill="#424242" points="80.505,75.74 80.505,77.36 83.145,75.805 83.145,74.116 	"/>
	<path fill="#424242" d="M79.62,76.557v1.277c-3.584,1.775-5.976,0.019-5.976,0.019v-1.298c3.246,1.448,5.976-0.241,5.976-0.241"/>
	<polygon fill="#424242" points="68.417,73.704 68.417,75.227 73.028,77.708 73.028,76.295 	"/>
	<polygon fill="#424242" points="64.253,71.366 64.208,72.99 68.069,75.104 68.069,73.542 	"/>
	<path fill="#434343" d="M111.333,94.511c-3.735,1.419-8.792,1.04-8.792,1.04l0.653,1.555c3.393,0.127,8.213-0.896,8.213-0.896
		c4.412-1.951,5.026-4.251,5.026-4.251l-0.819-1.555C114.592,93.11,111.334,94.512,111.333,94.511z"/>
	<path fill="#434343" d="M115.715,101.085c-3.943,1.772-9.773,1.688-9.773,1.688l1.271,1.789c3.232,0.476,8.666-1.119,8.666-1.119
		c4.656-2.441,5.304-5.311,5.304-5.311l-0.863-1.938C119.24,99.571,115.715,101.084,115.715,101.085z"/>
	<path fill="#434343" d="M117.805,104.434c-3.942,1.771-9.775,1.688-9.775,1.688l1.271,1.789c3.233,0.479,8.668-1.117,8.668-1.117
		c4.652-2.436,5.299-5.307,5.299-5.307l-0.86-1.939C121.328,102.923,117.805,104.434,117.805,104.434z"/>
	<path fill="#434343" d="M119.855,107.973c-3.942,1.77-9.772,1.686-9.772,1.686l1.272,1.793c3.229,0.477,8.664-1.119,8.664-1.119
		c4.654-2.439,5.302-5.309,5.302-5.309l-0.862-1.939C123.379,106.464,119.857,107.973,119.855,107.973z"/>
</g>
</svg>
