<?xml version="1.0" encoding="utf-8"?>
<!-- Generator: Adobe Illustrator 16.0.0, SVG Export Plug-In . SVG Version: 6.00 Build 0)  -->
<!DOCTYPE svg PUBLIC "-//W3C//DTD SVG 1.1//EN" "http://www.w3.org/Graphics/SVG/1.1/DTD/svg11.dtd">
<svg version="1.1" id="Layer_1" xmlns="http://www.w3.org/2000/svg" xmlns:xlink="http://www.w3.org/1999/xlink" x="0px" y="0px"
	 width="200px" height="200px" viewBox="0 0 200 200" enable-background="new 0 0 200 200" xml:space="preserve">
<g id="Direction">
	<g transform="rotate({{angle}} 50 50)">
		<polygon id="arrow" opacity="0.7" fill="#80C342" enable-background="new    " points="128.104,146.25 104.461,165.904 
			80.824,146.52 80.824,135.627 81.09,135.627 104.461,155.016 127.039,135.627 128.105,135.627 		">
		
			<animate  fill="remove" accumulate="none" additive="replace" begin="0s;anim_arrow3.end" values="0.5; 0" restart="always" calcMode="linear" dur="0.5s" attributeName="opacity" id="anim_arrow1">
			</animate>
		</polygon>
		<polygon id="arrow2" opacity="0.7" fill="#80C342" enable-background="new    " points="128.369,159.531 104.73,179.186 
			81.09,159.529 81.092,148.908 81.355,148.91 104.73,168.029 127.309,148.908 128.367,148.908 		">
		
			<animate  fill="remove" accumulate="none" additive="replace" begin="anim_arrow1.end" values="0.5; 0" restart="always" calcMode="linear" dur="0.5s" attributeName="opacity" id="anim_arrow2">
			</animate>
		</polygon>
		<polygon id="arrow3" opacity="0.7" fill="#80C342" enable-background="new    " points="128.635,172.813 104.992,192.201 
			81.355,172.811 81.354,161.92 81.619,161.92 104.994,181.313 127.57,161.924 128.635,161.922 		">
		
			<animate  fill="remove" accumulate="none" additive="replace" begin="anim_arrow2.end" values="0.5; 0" restart="always" calcMode="linear" dur="0.5s" attributeName="opacity" id="anim_arrow3">
			</animate>
		</polygon>
	</g>
</g>
<path fill="#B2B2B2" d="M123.556,104.961l0.002-0.921l-4.83-2.847l-0.069,1.418l4.897,2.89v-0.124l-0.015-0.007L123.556,104.961
	L123.556,104.961z M119.219,101.621l-0.042,1.204l-0.368-0.216l0.042-1.203L119.219,101.621z M119.75,101.926l-0.045,1.203
	l-0.364-0.215l0.042-1.205L119.75,101.926z M120.254,102.225l-0.045,1.201l-0.37-0.215l0.045-1.202L120.254,102.225z
	 M120.781,102.527l-0.043,1.203l-0.367-0.217l0.043-1.203L120.781,102.527z M121.32,102.869l-0.045,1.203l-0.363-0.217l0.043-1.203
	L121.32,102.869z M121.854,103.173l-0.043,1.202l-0.367-0.217l0.045-1.203L121.854,103.173z M122.391,103.479l-0.046,1.201
	l-0.364-0.215l0.043-1.203L122.391,103.479z M122.921,103.783l-0.046,1.201l-0.365-0.219l0.045-1.199L122.921,103.783z
	 M123.424,104.08l-0.047,1.205l-0.365-0.221l0.044-1.199L123.424,104.08z"/>
<path fill="#B2B2B2" d="M120.375,103.094l0.002-0.922l-4.832-2.848l-0.068,1.417l4.898,2.895v-0.127l-0.016-0.008L120.375,103.094
	L120.375,103.094z M116.039,99.754L116,100.956l-0.37-0.215l0.043-1.204L116.039,99.754z M116.572,100.058l-0.045,1.203
	l-0.367-0.217l0.041-1.204L116.572,100.058z M117.07,100.358l-0.043,1.203l-0.369-0.217l0.045-1.201L117.07,100.358z
	 M117.602,100.662l-0.045,1.201l-0.366-0.217l0.046-1.204L117.602,100.662z M118.143,100.999l-0.045,1.204l-0.367-0.217l0.045-1.205
	L118.143,100.999z M118.673,101.303l-0.043,1.207l-0.368-0.219l0.045-1.203L118.673,101.303z M119.209,101.611l-0.045,1.201
	l-0.364-0.215l0.044-1.201L119.209,101.611z M119.74,101.914l-0.045,1.201l-0.367-0.217l0.045-1.201L119.74,101.914z
	 M120.242,102.212l-0.047,1.204l-0.363-0.219l0.043-1.199L120.242,102.212z"/>
<path fill="#B2B2B2" d="M118.492,101.416v1.057l-0.711,0.118l-0.018-0.552l-0.014,0.84c0,0,3.24-0.845,3.578,1.104v-1.56
	c0,0-0.52-1.698-3.551-1.101l-0.006,0.262C117.967,101.445,118.494,101.418,118.492,101.416z M120.701,101.764
	c0,0,0.5,0.318,0.5,0.594v0.809c0,0-0.28-0.275-0.504-0.46L120.701,101.764z M119.765,101.49c0.183-0.148,0.741,0.271,0.741,0.271
	l-0.04,0.829l-0.701-0.054V101.49z M118.677,101.418c0.181-0.146,0.862,0,0.862,0v1.047h-0.862V101.418z"/>
<path fill="#727272" d="M135.394,120.034c-20.315-0.981-33.045-10.786-33.045-10.786l-0.209-3.046L63.182,83.778l0.021,2.248
	l2.924,1.698l-3.106,2.478l-8.123-5.049l16-9.179l37.454,20.685c28.638,14.812,27.903,21.172,27.903,21.172
	C136.957,119.757,135.396,120.034,135.394,120.034z"/>
<path fill="#B2B2B2" d="M70.661,76.178l8.274,4.35l-0.021-1.437l-8.26-4.339L70.661,76.178z M78.376,80.14l-0.006-1.204l0.367,0.196
	l0.016,1.206L78.376,80.14z M77.837,79.863l-0.018-1.204l0.377,0.2l0.014,1.2L77.837,79.863z M77.278,79.546l-0.016-1.205
	l0.377,0.202l0.018,1.206L77.278,79.546z M76.731,79.275l-0.015-1.206l0.376,0.197l0.02,1.204L76.731,79.275z M76.22,78.999
	l-0.016-1.207l0.377,0.2l0.014,1.206L76.22,78.999z M75.673,78.722l-0.016-1.206l0.377,0.198l0.015,1.206L75.673,78.722z
	 M75.142,78.428l-0.016-1.206l0.377,0.207l0.015,1.203L75.142,78.428z M74.591,78.154l-0.01-1.201l0.375,0.198l0.016,1.203
	L74.591,78.154z M74.038,77.841l-0.017-1.203l0.38,0.196l0.014,1.205L74.038,77.841z M73.491,77.563L73.48,76.36l0.375,0.2
	l0.017,1.205L73.491,77.563z M72.979,77.291l-0.018-1.203l0.379,0.2l0.014,1.203L72.979,77.291z M72.433,77.016l-0.014-1.205
	l0.379,0.198l0.016,1.203L72.433,77.016z M71.886,76.731l-0.008-1.206l0.373,0.2l0.014,1.204L71.886,76.731z M71.345,76.455
	l-0.018-1.206l0.377,0.198l0.018,1.208L71.345,76.455z M71.165,76.345l-0.381-0.202l-0.012-1.201l0.377,0.196L71.165,76.345z"/>
<polygon fill="#AAAAAA" points="101.65,90.171 115.765,98.157 101.986,106.357 63.028,83.929 76.274,75.969 94.306,85.582 "/>
<path fill="#898989" d="M97.086,87.808l18.72,10.44l-0.031-1.757L97.072,86.078L97.086,87.808z M115.146,96.299l0.428,0.244
	l0.027,1.468l-0.431-0.24L115.146,96.299z M114.522,95.969l0.431,0.24l0.024,1.467l-0.431-0.242L114.522,95.969z M113.888,95.589
	l0.433,0.24l0.024,1.47l-0.433-0.243L113.888,95.589z M113.267,95.252l0.431,0.24l0.026,1.468l-0.433-0.24L113.267,95.252z
	 M112.679,94.92l0.431,0.242l0.026,1.47l-0.433-0.242L112.679,94.92z M112.057,94.585l0.432,0.242l0.024,1.469l-0.431-0.243
	L112.057,94.585z M111.447,94.236l0.43,0.242l0.025,1.469l-0.429-0.242L111.447,94.236z M110.826,93.9l0.431,0.243l0.026,1.471
	l-0.432-0.242L110.826,93.9z M110.191,93.524l0.432,0.24l0.023,1.469l-0.431-0.242L110.191,93.524z M109.57,93.186l0.43,0.242
	l0.025,1.469l-0.432-0.24L109.57,93.186z M108.981,92.855l0.431,0.244l0.024,1.469l-0.43-0.242L108.981,92.855z M108.357,92.522
	l0.434,0.245l0.025,1.466l-0.433-0.242L108.357,92.522z M107.736,92.182l0.434,0.24l0.027,1.468l-0.434-0.24L107.736,92.182z
	 M107.115,91.844l0.431,0.242l0.026,1.47l-0.431-0.243L107.115,91.844z M106.48,91.468l0.432,0.241l0.024,1.468l-0.429-0.24
	L106.48,91.468z M105.857,91.133l0.434,0.242l0.023,1.467l-0.431-0.24L105.857,91.133z M105.269,90.801l0.433,0.242l0.026,1.469
	l-0.431-0.241L105.269,90.801z M104.65,90.468l0.432,0.24l0.023,1.469l-0.43-0.242L104.65,90.468z M104.037,90.097l0.431,0.24
	l0.024,1.47l-0.431-0.242L104.037,90.097z M103.414,89.761l0.432,0.242l0.025,1.468l-0.432-0.241L103.414,89.761z M102.779,89.379
	l0.43,0.244l0.027,1.468l-0.431-0.24L102.779,89.379z M102.156,89.045l0.43,0.242l0.027,1.469l-0.431-0.242L102.156,89.045z
	 M101.568,88.714L102,88.955l0.025,1.471l-0.432-0.244L101.568,88.714z M100.949,88.38l0.431,0.242l0.026,1.467l-0.434-0.24
	L100.949,88.38z M100.32,88.04l0.432,0.241l0.023,1.471l-0.432-0.244L100.32,88.04z M99.694,87.708l0.433,0.24l0.027,1.469
	l-0.433-0.242L99.694,87.708z M99.06,87.327l0.432,0.242l0.024,1.469l-0.43-0.24L99.06,87.327z M98.437,86.992l0.434,0.242
	l0.028,1.467l-0.434-0.24L98.437,86.992z M97.853,86.663l0.433,0.24l0.024,1.47l-0.43-0.242L97.853,86.663z M97.229,86.327
	l0.432,0.24l0.026,1.469l-0.432-0.244L97.229,86.327z"/>
<path fill="#898989" d="M76.06,76.115l18.983,9.96l-0.078-1.756l-18.96-9.933L76.06,76.115z M94.333,84.144l0.434,0.232l0.061,1.469
	l-0.437-0.232L94.333,84.144z M93.703,83.828l0.434,0.229l0.061,1.468l-0.435-0.23L93.703,83.828z M93.056,83.464l0.434,0.229
	l0.066,1.469l-0.438-0.23L93.056,83.464z M92.426,83.144l0.436,0.232l0.063,1.466l-0.435-0.229L92.426,83.144z M91.832,82.828
	l0.434,0.23l0.063,1.466l-0.434-0.227L91.832,82.828z M91.202,82.513l0.437,0.23l0.059,1.467l-0.434-0.232L91.202,82.513z
	 M90.581,82.174l0.438,0.232l0.063,1.469l-0.437-0.229L90.581,82.174z M89.95,81.857l0.439,0.232l0.061,1.468l-0.437-0.232
	L89.95,81.857z M89.307,81.494l0.438,0.23l0.063,1.47l-0.437-0.232L89.307,81.494z M88.676,81.177l0.438,0.232l0.063,1.468
	l-0.436-0.232L88.676,81.177z M88.083,80.86l0.436,0.232l0.061,1.467l-0.436-0.232L88.083,80.86z M87.45,80.539l0.438,0.232
	l0.063,1.468l-0.438-0.229L87.45,80.539z M86.819,80.22l0.438,0.232l0.063,1.465l-0.438-0.232L86.819,80.22z M86.19,79.897
	l0.436,0.231l0.062,1.47l-0.434-0.232L86.19,79.897z M85.546,79.534l0.436,0.229l0.063,1.47l-0.436-0.23L85.546,79.534z
	 M84.915,79.217l0.438,0.231l0.06,1.467l-0.436-0.229L84.915,79.217z M84.321,78.901l0.436,0.231l0.063,1.467l-0.436-0.229
	L84.321,78.901z M83.689,78.582l0.435,0.232l0.066,1.467l-0.438-0.232L83.689,78.582z M83.067,78.226l0.438,0.231l0.06,1.467
	l-0.434-0.23L83.067,78.226z M82.437,77.904l0.434,0.232l0.063,1.468l-0.435-0.229L82.437,77.904z M81.79,77.544l0.438,0.232
	l0.06,1.468l-0.434-0.232L81.79,77.544z M81.163,77.228l0.436,0.229l0.063,1.468l-0.438-0.23L81.163,77.228z M80.567,76.911
	l0.434,0.228l0.063,1.468l-0.435-0.23L80.567,76.911z M79.937,76.59l0.436,0.231l0.064,1.468l-0.438-0.23L79.937,76.59z
	 M79.301,76.268l0.435,0.229l0.063,1.468l-0.438-0.23L79.301,76.268z M78.669,75.947l0.437,0.232l0.062,1.467l-0.438-0.23
	L78.669,75.947z M78.021,75.583l0.437,0.232l0.063,1.468l-0.436-0.23L78.021,75.583z M77.394,75.268l0.436,0.229l0.063,1.469
	l-0.438-0.232L77.394,75.268z M76.799,74.952l0.437,0.229l0.063,1.467l-0.438-0.23L76.799,74.952z M76.167,74.632l0.438,0.229
	l0.063,1.47l-0.438-0.232L76.167,74.632z"/>
<polygon fill="#777777" points="92.379,86.855 74.341,77.641 69.2,80.694 85.343,90.768 "/>
<polygon fill="#43484F" points="84.14,91.5 85.343,92.235 85.343,93.016 69.2,83.401 69.2,80.694 84.347,89.667 "/>
<path fill="#B2B2B2" d="M74.299,77.705l16.535,8.373l-0.041-1.438l-16.518-8.353L74.299,77.705z M90.239,84.492l0.379,0.191
	l0.029,1.206l-0.375-0.195L90.239,84.492z M89.688,84.222l0.381,0.196l0.029,1.198l-0.381-0.189L89.688,84.222z M89.126,83.915
	l0.379,0.196l0.033,1.203l-0.377-0.197L89.126,83.915z M88.579,83.651l0.377,0.189l0.035,1.205l-0.379-0.191L88.579,83.651z
	 M88.062,83.383l0.381,0.195l0.033,1.201l-0.381-0.192L88.062,83.383z M87.513,83.112l0.375,0.193l0.035,1.208l-0.381-0.195
	L87.513,83.112z M86.974,82.832l0.38,0.198l0.031,1.204l-0.38-0.197L86.974,82.832z M86.425,82.567l0.38,0.193l0.03,1.204
	l-0.383-0.193L86.425,82.567z M85.86,82.258l0.383,0.193l0.031,1.204l-0.382-0.191L85.86,82.258z M85.31,81.989l0.385,0.196
	l0.032,1.205l-0.384-0.196L85.31,81.989z M84.796,81.728l0.378,0.195l0.032,1.203l-0.379-0.196L84.796,81.728z M84.245,81.454
	l0.383,0.195l0.033,1.204l-0.385-0.191L84.245,81.454z M83.698,81.183l0.379,0.196l0.029,1.202l-0.38-0.195L83.698,81.183z
	 M83.146,80.916l0.383,0.193l0.032,1.207l-0.384-0.194L83.146,80.916z M82.585,80.613l0.383,0.191l0.036,1.205l-0.388-0.196
	L82.585,80.613z M82.036,80.343l0.381,0.194l0.033,1.201l-0.383-0.191L82.036,80.343z M81.521,80.078l0.381,0.194l0.032,1.201
	l-0.384-0.192L81.521,80.078z M80.971,79.811l0.38,0.193l0.033,1.204l-0.387-0.195L80.971,79.811z M80.425,79.511l0.38,0.193
	l0.034,1.205l-0.381-0.197L80.425,79.511z M79.879,79.24l0.377,0.195l0.032,1.203l-0.379-0.194L79.879,79.24z M79.313,78.936
	l0.381,0.195l0.033,1.206l-0.381-0.197L79.313,78.936z M78.765,78.667l0.379,0.193l0.033,1.206L78.8,79.87L78.765,78.667z
	 M78.247,78.403l0.383,0.196l0.031,1.201l-0.381-0.195L78.247,78.403z M77.698,78.135l0.381,0.195l0.033,1.201l-0.381-0.192
	L77.698,78.135z M77.145,77.863l0.38,0.193l0.031,1.203l-0.381-0.193L77.145,77.863z M76.593,77.595l0.382,0.193l0.032,1.206
	l-0.383-0.195L76.593,77.595z M76.034,77.292l0.377,0.196l0.033,1.2l-0.381-0.193L76.034,77.292z M75.482,77.022l0.386,0.195
	l0.029,1.204l-0.384-0.195L75.482,77.022z M74.962,76.756l0.384,0.195l0.032,1.203l-0.381-0.194L74.962,76.756z M74.415,76.488
	l0.379,0.193l0.037,1.201l-0.383-0.193L74.415,76.488z"/>
<polyline fill="#8E8E8E" points="115.832,94.348 115.832,92.787 110.689,92.695 83.933,89.895 83.933,91.5 102.429,102.379 
	104.678,101.186 104.586,104.811 101.986,106.357 102.201,109.4 105.183,107.541 105.336,104.758 115.945,101.064 115.765,98.157 
	114.132,99.128 114.132,95.449 115.832,94.483 "/>
<g>
	<polyline fill="#919191" points="77.646,83.746 79.825,81.243 82.372,79.66 83.808,80.578 81.478,85.972 77.646,83.814 	"/>
	<polygon fill="#727272" points="81.478,85.972 81.478,82.116 83.808,80.578 83.933,84.295 	"/>
</g>
<g>
	<g>
		<g>
			<path fill="#8795A0" d="M82.552,87.383l0.096-0.063l0.18-0.126l0.574-0.393l0.192-0.287l0.269-0.398l0.119-0.183l0.031-0.042
				l0.602-0.901l0.158-0.238l0.693-1.035l-0.061,1.709l0.444-0.306l0.063-0.045l-0.057-16.197l-0.22,0.169l-0.022,0.536
				l-0.062,1.456l-1.315,2.403l-0.17,0.315l-0.207,0.38l0.022-0.658l0.021-0.523l0.098-2.664l-0.288,0.225L83.704,70.6l-1.14,16.664
				L82.552,87.383z M83.366,83.537l0.025-0.435l0.014-0.329l0.017-0.293l0.04-0.771l0.945-0.436l0.459-0.211l0.668-0.31
				l-0.412,0.636l-0.295,0.445l-0.604,0.921l-0.171,0.267l-0.321,0.485l-0.166,0.255l-0.222,0.334L83.366,83.537z M85.559,78.556
				l-0.013,0.648l-0.012,0.31l-0.019,0.579l-0.01,0.397l-0.828,0.339l-0.463,0.189l-0.709,0.289l0.407-0.693l0.259-0.438
				l0.336-0.569l0.254-0.425l0.338-0.566l0.229-0.393l0.256-0.433L85.559,78.556z M85.567,75.361l-0.025,0.637l-0.012,0.32
				l-0.018,0.46v0.023l-0.863,0.453l-0.419,0.22l-0.493,0.254l0.299-0.504l0.275-0.453l0.313-0.523l0.209-0.346l0.307-0.514
				l0.205-0.346l0.248-0.41L85.567,75.361z M83.653,78.358l0.858-0.512l0.383-0.234l0.632-0.375l-0.414,0.68l-0.242,0.396
				l-0.442,0.724l-0.251,0.408l-0.253,0.408l-0.259,0.425l-0.174,0.283l0.035-0.471l0.049-0.685l0.021-0.24l0.03-0.47L83.653,78.358
				z M83.888,75.133l0.729-0.549l0.274-0.207l0.687-0.517l-0.461,0.838l-0.199,0.348l-0.375,0.678l-0.196,0.354l-0.226,0.414
				l-0.268,0.479l-0.139,0.249l0.031-0.39l0.063-0.776l0.024-0.28l0.033-0.444L83.888,75.133z M85.585,71.455l-0.039,1.999
				l-0.854,0.638l-0.271,0.2l-0.518,0.385l0.34-0.654l0.174-0.328L85.585,71.455z M83.055,86.831l0.071-0.875l0.037-0.437
				l0.041-0.559l0.875-0.599l0.232-0.162l0.729-0.501l-0.793,0.423l-0.258,0.136l-0.799,0.425l0.508-0.763l0.168-0.252l0.383-0.572
				l0.187-0.271l0.539-0.805l0.297-0.442l0.22-0.335l-0.015,0.599l-0.032,0.806l-0.018,0.417l0.003-0.003l-0.002,0.005l-0.007,0.103
				l-0.012,0.335l-0.041,0.023L85.04,83.7l-0.493,0.78l-0.155,0.247l-0.664,1.042l-0.011,0.019l-0.052,0.081l-0.264,0.412
				L83.055,86.831z"/>
			<polygon fill="none" points="88.833,83.158 89.376,83.676 89.685,83.2 89.645,82.762 			"/>
			<polygon fill="none" points="87.589,83.895 88.952,84.315 89.224,83.901 88.569,83.289 87.585,83.772 			"/>
			<polygon fill="none" points="88.194,74.184 88.321,73.947 86.985,72.333 87.069,73.679 			"/>
			<polygon fill="none" points="87.604,84.203 88.468,85.056 88.856,84.458 87.589,83.938 			"/>
			<polygon fill="none" points="88.228,85.422 87.638,84.87 87.702,86.222 			"/>
			<polygon fill="none" points="89.767,84.05 89.728,83.628 89.571,83.861 			"/>
			<polygon fill="none" points="90.014,84.64 89.421,84.084 89.213,84.394 			"/>
			<polygon fill="none" points="89.306,85.883 89.829,85.59 90.075,85.458 90.003,84.925 89.101,84.559 88.648,85.234 			"/>
			<polygon fill="none" points="88.003,74.546 87.103,74.14 87.147,74.851 87.579,75.338 			"/>
			<polygon fill="none" points="90.269,86.836 90.14,85.909 89.819,86.388 			"/>
			<polygon fill="none" points="84.868,81.06 85.124,81.386 85.534,80.75 			"/>
			<polygon fill="none" points="86.911,83.686 86.858,81.689 86.733,81.572 86.784,83.648 			"/>
			<polygon fill="none" points="83.395,83.1 83.73,83.504 84.052,83.017 83.409,82.772 			"/>
			<polygon fill="none" points="85.329,78.223 85.563,78.557 85.585,77.79 			"/>
			<polygon fill="none" points="86.849,81.264 86.841,80.905 86.716,80.875 86.723,81.143 			"/>
			<polygon fill="none" points="84.222,81.02 83.919,80.616 83.509,81.307 			"/>
			<polygon fill="none" points="83.426,82.48 84.225,82.752 84.829,81.831 84.413,81.273 83.465,81.709 			"/>
			<polygon fill="none" points="86.616,72.321 86.833,72.153 86.069,71.231 86.11,72.055 86.497,72.287 86.526,73.436 
				86.646,73.491 			"/>
			<polygon fill="none" points="87.612,82.392 87.482,82.271 87.489,82.598 			"/>
			<polygon fill="none" points="87.343,75.776 87.198,75.625 87.224,75.997 			"/>
			<polygon fill="none" points="83.564,83.761 83.37,83.537 83.343,84.095 			"/>
			<polygon fill="none" points="87.442,79.059 87.383,78.998 87.385,79.162 			"/>
			<polygon fill="none" points="87.952,78.878 88.294,79.227 89.243,78.711 89.171,78.174 88.509,77.941 			"/>
			<polygon fill="none" points="88.12,77.809 87.37,77.544 87.376,78.289 87.688,78.606 			"/>
			<polygon fill="none" points="87.44,80.321 87.45,80.75 88.472,80.98 88.774,80.479 88.194,79.863 			"/>
			<polygon fill="none" points="85.526,80.095 84.513,79.605 84.177,80.176 84.687,80.831 85.517,80.492 			"/>
			<polygon fill="none" points="89.45,81.2 89.079,80.809 88.921,81.083 			"/>
			<polygon fill="none" points="88.308,83.043 87.966,82.724 87.597,83.358 			"/>
			<polygon fill="none" points="89.058,77.017 89.058,77.013 89.058,77.015 			"/>
			<polygon fill="none" points="88.938,86.087 88.411,85.591 87.575,86.84 			"/>
			<polygon fill="none" points="88.114,82.473 88.585,82.92 89.616,82.462 89.53,81.606 88.741,81.4 			"/>
			<polygon fill="none" points="89.024,77.539 88.852,77.359 88.788,77.469 			"/>
			<polygon fill="none" points="87.835,79.48 87.688,79.322 87.482,79.675 			"/>
			<polygon fill="none" points="88.284,81.283 87.454,81.065 87.47,81.858 87.765,82.138 			"/>
			<polygon fill="none" points="88.767,73.861 88.759,73.749 88.724,73.815 			"/>
			<polygon fill="none" points="89.302,86.426 89.014,86.159 87.618,87.125 87.642,89.05 			"/>
			<polygon fill="none" points="88.713,74.418 88.53,74.195 88.472,74.31 			"/>
			<polygon fill="none" points="89.512,86.09 89.829,85.59 89.35,85.926 			"/>
			<polygon fill="none" points="88.379,76.247 88.747,76.662 88.952,76.283 88.894,75.859 			"/>
			<polygon fill="none" points="87.366,77.008 87.366,77.04 88.372,77.345 88.544,77.035 88.036,76.503 			"/>
			<polygon fill="none" points="88.644,79.587 89.058,80.013 89.348,79.533 89.306,79.186 			"/>
			<polygon fill="none" points="88.751,74.885 88.284,74.677 87.812,75.604 88.12,75.954 88.829,75.425 			"/>
			<polygon fill="none" points="87.767,76.218 87.593,76.037 87.339,76.539 			"/>
			<polygon fill="none" points="89.464,80.429 89.438,80.206 89.364,80.327 			"/>
			<polygon fill="none" points="84.067,73.758 83.882,73.479 83.86,74.138 			"/>
			<polygon fill="none" points="83.497,85.669 83.661,85.865 83.716,85.784 			"/>
			<polygon fill="none" points="84.889,74.378 85.11,74.697 85.575,73.861 			"/>
			<polygon fill="none" points="84.614,74.585 83.886,75.132 83.866,75.33 84.542,75.727 84.915,75.045 			"/>
			<polygon fill="none" points="83.124,85.956 83.052,86.831 83.401,86.281 			"/>
			<polygon fill="none" points="84.421,74.29 84.239,74.02 83.901,74.673 			"/>
			<polygon fill="none" points="86.831,80.611 86.774,78.343 86.646,78.211 86.708,80.584 			"/>
			<polygon fill="none" points="84.343,76.078 83.831,75.774 83.808,76.054 84.118,76.492 			"/>
			<polygon fill="none" points="83.497,85.669 83.727,85.766 84.389,84.725 84.077,84.36 83.204,84.958 83.159,85.518 			"/>
			<polygon fill="none" points="84.243,84.118 85.04,83.697 85.368,83.523 84.249,83.095 83.866,83.667 			"/>
			<polygon fill="none" points="83.851,76.972 83.743,76.831 83.712,77.223 			"/>
			<polygon fill="none" points="83.989,84.256 83.698,83.918 83.19,84.681 			"/>
			<polygon fill="none" points="84.431,82.826 85.419,83.167 85.426,83.064 85.427,83.057 85.424,83.061 85.438,82.643 
				84.974,82.021 			"/>
			<polygon fill="none" points="84.312,84.198 84.544,84.477 85.04,83.697 			"/>
			<polygon fill="none" points="85.585,71.451 84.417,73.695 84.688,74.087 85.542,73.449 			"/>
			<polygon fill="none" points="85.271,81.575 85.472,81.834 85.491,81.242 			"/>
			<polygon fill="none" points="84.509,77.841 83.653,78.353 83.626,78.695 84.424,79.035 84.87,78.309 			"/>
			<polygon fill="none" points="85.517,76.775 84.624,76.249 84.312,76.77 84.649,77.25 85.517,76.798 			"/>
			<polygon fill="none" points="86.733,76.849 86.688,75.088 86.563,74.96 86.612,76.81 			"/>
			<polygon fill="none" points="85.542,75.993 85.14,75.387 84.833,75.901 85.53,76.314 			"/>
			<polygon fill="none" points="86.669,74.304 86.659,73.938 86.538,73.887 86.546,74.169 			"/>
			<polygon fill="none" points="85.55,79.205 85.101,78.616 84.765,79.182 85.542,79.517 			"/>
			<polygon fill="none" points="86.754,77.648 86.745,77.325 86.626,77.282 86.63,77.521 			"/>
			<polygon fill="none" points="83.665,80.278 83.528,80.088 83.491,80.561 			"/>
			<polygon fill="none" points="85.345,75.04 85.567,75.358 85.593,74.632 			"/>
			<polygon fill="none" points="84.231,77.473 84.04,77.223 83.737,77.727 			"/>
			<polygon fill="none" points="85.852,85.244 85.852,85.121 85.405,85.425 85.468,83.716 84.774,84.751 86.011,86.222 
				86.011,85.308 			"/>
			<polygon fill="none" points="84.899,77.606 85.112,77.911 85.526,77.231 			"/>
			<polygon fill="none" points="84.177,79.445 83.596,79.164 83.575,79.403 83.924,79.853 			"/>
			<polygon fill="none" points="86.155,87.12 83.985,85.934 83.864,86.114 86.235,89.05 			"/>
			<polygon fill="none" points="86.192,86.84 84.614,84.989 84.013,85.89 			"/>
			<polygon fill="#617990" points="84.243,84.118 83.866,83.667 83.698,83.918 83.989,84.256 			"/>
			<polygon fill="#617990" points="84.067,73.758 84.239,73.441 83.903,72.956 83.882,73.479 			"/>
			<polygon fill="#617990" points="85.55,79.205 85.563,78.557 85.329,78.223 85.101,78.616 			"/>
			<polygon fill="#617990" points="82.831,87.19 82.651,87.316 82.827,87.41 			"/>
			<polygon fill="#617990" points="84.077,84.36 84.389,84.725 84.544,84.477 84.312,84.198 			"/>
			<polygon fill="#617990" points="83.409,82.772 84.052,83.017 84.225,82.752 83.426,82.48 			"/>
			<polygon fill="#617990" points="84.424,79.035 83.626,78.695 83.596,79.164 84.177,79.445 			"/>
			<polygon fill="#617990" points="84.413,81.273 84.829,81.831 85.124,81.386 84.868,81.06 			"/>
			<polygon fill="#617990" points="84.249,83.095 85.368,83.523 85.407,83.5 85.419,83.167 84.431,82.826 			"/>
			<polygon fill="#617990" points="84.687,80.831 84.177,80.176 83.919,80.616 84.222,81.02 			"/>
			<polygon fill="#617990" points="84.614,74.585 84.915,75.045 85.11,74.697 84.889,74.378 			"/>
			<polygon fill="#617990" points="83.395,83.1 83.37,83.537 83.564,83.761 83.73,83.504 			"/>
			<polygon fill="#617990" points="82.564,87.264 83.704,70.6 83.409,70.427 82.089,87.002 			"/>
			<polygon fill="#617990" points="85.542,79.517 84.765,79.182 84.513,79.605 85.526,80.095 			"/>
			<polygon fill="#617990" points="84.688,74.087 84.417,73.695 84.239,74.02 84.421,74.29 			"/>
			<polygon fill="#617990" points="83.497,85.669 83.716,85.784 83.727,85.766 			"/>
			<polygon fill="#617990" points="83.924,79.853 83.575,79.403 83.528,80.088 83.665,80.278 			"/>
			<polygon fill="#617990" points="84.542,75.727 83.866,75.33 83.831,75.774 84.343,76.078 			"/>
			<polygon fill="#617990" points="84.118,76.492 83.808,76.054 83.743,76.831 83.851,76.972 			"/>
			<polygon fill="#617990" points="85.53,76.314 84.833,75.901 84.624,76.249 85.517,76.775 			"/>
			<polygon fill="#617990" points="83.124,85.956 83.401,86.281 83.661,85.865 83.497,85.669 83.159,85.518 			"/>
			<polygon fill="#617990" points="83.864,86.114 83.596,86.509 85.71,88.982 86.937,89.656 86.796,84.084 86.925,84.203 
				86.911,83.686 86.784,83.648 86.733,81.572 86.858,81.689 86.849,81.264 86.723,81.143 86.716,80.875 86.841,80.905 
				86.831,80.611 86.708,80.584 86.646,78.211 86.774,78.343 86.754,77.648 86.63,77.521 86.626,77.282 86.745,77.325 
				86.733,76.849 86.612,76.81 86.563,74.96 86.688,75.088 86.669,74.304 86.546,74.169 86.538,73.887 86.659,73.938 86.646,73.491 
				86.526,73.436 86.497,72.287 86.11,72.055 86.069,71.231 86.833,72.153 86.966,72.055 86.985,72.333 88.321,73.947 88.522,73.58 
				86.11,70.807 85.94,68.768 85.597,68.609 85.612,69.583 85.638,69.048 85.855,68.879 85.915,85.074 85.852,85.121 85.852,85.244 
				86.011,85.308 86.011,86.222 84.774,84.751 84.614,84.989 86.192,86.84 84.013,85.89 83.985,85.934 86.155,87.12 86.235,89.05 
							"/>
			<polygon fill="#617990" points="84.509,77.841 84.87,78.309 85.112,77.911 84.899,77.606 			"/>
			<polygon fill="#617990" points="84.649,77.25 84.312,76.77 84.04,77.223 84.231,77.473 			"/>
			<polygon fill="#617990" points="84.974,82.021 85.438,82.643 85.472,81.834 85.271,81.575 			"/>
			<polygon fill="#617990" points="85.542,75.993 85.567,75.358 85.345,75.04 85.14,75.387 			"/>
			<polygon fill="#617990" points="88.569,83.289 89.224,83.901 89.376,83.676 88.833,83.158 			"/>
			<polygon fill="#617990" points="89.306,85.883 88.648,85.234 88.411,85.591 88.938,86.087 			"/>
			<polygon fill="#617990" points="90.003,84.925 90.075,85.458 90.278,85.344 90.245,84.894 90.253,84.889 90.245,84.891 
				90.126,83.028 89.728,83.628 89.767,84.05 89.571,83.861 89.421,84.084 90.014,84.64 89.213,84.394 89.101,84.559 			"/>
			<polygon fill="#617990" points="89.645,82.762 89.685,83.2 90.132,82.522 			"/>
			<polygon fill="#617990" points="88.12,75.954 87.812,75.604 87.593,76.037 87.767,76.218 			"/>
			<polygon fill="#617990" points="89.124,73.028 88.759,73.749 88.767,73.861 88.724,73.815 88.53,74.195 88.713,74.418 
				88.472,74.31 88.284,74.677 88.751,74.885 88.829,75.425 89.302,75.074 			"/>
			<polygon fill="#617990" points="89.512,86.09 89.35,85.926 89.014,86.159 89.302,86.426 			"/>
			<polygon fill="#617990" points="87.604,84.203 87.638,84.87 88.228,85.422 88.468,85.056 			"/>
			<polygon fill="#617990" points="87.589,83.938 88.856,84.458 88.952,84.315 87.589,83.895 			"/>
			<polygon fill="#617990" points="88.472,80.98 87.45,80.75 87.454,81.065 88.284,81.283 			"/>
			<polygon fill="#617990" points="87.765,82.138 87.47,81.858 87.482,82.271 87.612,82.392 			"/>
			<polygon fill="#617990" points="87.579,75.338 87.147,74.851 87.198,75.625 87.343,75.776 			"/>
			<polygon fill="#617990" points="87.688,78.606 87.376,78.289 87.383,78.998 87.442,79.059 			"/>
			<polygon fill="#617990" points="89.171,78.174 89.243,78.711 89.643,78.491 89.499,76.274 89.058,77.013 89.058,77.017 
				89.058,77.015 88.852,77.359 89.024,77.539 88.788,77.469 88.509,77.941 			"/>
			<polygon fill="#617990" points="87.952,78.878 87.688,79.322 87.835,79.48 88.294,79.227 			"/>
			<polygon fill="#617990" points="89.53,81.606 89.616,82.462 90.073,82.259 89.851,79.492 89.438,80.206 89.464,80.429 
				89.364,80.327 89.079,80.809 89.45,81.2 88.921,81.083 88.741,81.4 			"/>
			<polygon fill="#617990" points="88.114,82.473 87.966,82.724 88.308,83.043 88.585,82.92 			"/>
			<polygon fill="#617990" points="90.995,86.963 90.647,87.199 91.042,87.361 			"/>
			<polygon fill="#617990" points="89.306,79.186 89.348,79.533 89.715,78.935 			"/>
			<polygon fill="#617990" points="88.194,79.863 88.774,80.479 89.058,80.013 88.644,79.587 			"/>
			<polygon fill="#617990" points="88.036,76.503 88.544,77.035 88.747,76.662 88.379,76.247 			"/>
			<polygon fill="#617990" points="88.894,75.859 88.952,76.283 89.386,75.485 			"/>
			<polygon fill="#617990" points="89.819,86.388 89.604,86.708 89.731,86.828 90.479,87.131 90.376,85.556 90.14,85.909 
				90.269,86.836 			"/>
			<polygon fill="#617990" points="88.913,70.568 88.964,70.53 88.917,70.133 88.462,69.924 88.715,73.211 89.036,72.614 			"/>
			<polygon fill="#617990" points="88.372,77.345 87.366,77.04 87.37,77.544 88.12,77.809 			"/>
			<polygon fill="#617990" points="88.194,74.184 87.069,73.679 87.103,74.14 88.003,74.546 			"/>
			<path fill="#8795A0" d="M86.903,83.681l0.014,0.516l0.141,5.474l1.027-0.708l1.512-2.257l0.215-0.32l0.32-0.48l0.236-0.355
				l0.103,1.575l0.015,0.178l0.155-0.112l0.347-0.236l0.118-0.08l-1.932-16.512l-0.214,0.161l-0.051,0.04l0.123,2.046l-0.322,0.597
				l-0.195,0.367l-0.199,0.366l-0.125,0.238l-0.193,0.361l-0.426,0.792l-0.236,0.439l-0.117,0.22l-0.026-0.372l-0.049-0.773
				l-0.047-0.708l-0.031-0.461l-0.086-1.347l-0.022-0.278l-0.129,0.099l-0.22,0.168l0.035,1.168l0.013,0.449l0.01,0.366l0.017,0.784
				l0.048,1.761l0.014,0.476l0.01,0.323l0.021,0.696l0.058,2.267l0.01,0.294l0.008,0.359l0.01,0.427L86.903,83.681z M87.446,80.752
				l-0.012-0.431l0.752-0.458l0.453-0.275l0.658-0.403l0.412-0.251l-0.366,0.601l-0.29,0.478l-0.279,0.467l-0.303,0.501
				l-0.188,0.304l-0.52,0.855l-0.152,0.253l-0.123,0.206l-0.007-0.328l-0.013-0.413l-0.016-0.793L87.446,80.752z M87.966,82.727
				l0.146-0.251l0.625-1.073l0.188-0.317l0.158-0.276l0.279-0.481l0.073-0.121l0.411-0.714l0.225,2.765l-0.461,0.203l-1.029,0.458
				l-0.273,0.123l-0.711,0.315L87.966,82.727z M87.69,79.32l0.262-0.445l0.559-0.936l0.279-0.472l0.063-0.108l0.207-0.342v-0.002
				l0.438-0.739l0.146,2.216l-0.402,0.221l-0.949,0.518l-0.457,0.249l-0.354,0.195L87.69,79.32z M87.364,77.038v-0.032l0.672-0.504
				l0.34-0.256l0.515-0.388l0.493-0.375l-0.434,0.796l-0.205,0.381l-0.201,0.371l-0.172,0.31l-0.252,0.464l-0.433,0.8l-0.245,0.453
				l-0.058,0.103l-0.002-0.164l-0.007-0.708l-0.006-0.745L87.364,77.038z M89.122,73.027l0.176,2.044l-0.469,0.353l-0.709,0.529
				l-0.355,0.267l-0.43,0.319l0.258-0.502l0.219-0.433l0.473-0.927l0.189-0.367l0.057-0.115l0.193-0.382l0.035-0.064L89.122,73.027z
				 M89.831,85.589L89.31,85.88l-0.369,0.205l-1.365,0.753l0.836-1.249l0.24-0.357l0.451-0.674l0.114-0.164l0.204-0.31l0.152-0.222
				l0.155-0.234l0.4-0.601l0.118,1.862h0.004l-0.004,0.003l0.031,0.45l-0.203,0.114l-0.246,0.134l-0.314,0.5l-0.214,0.336
				l-1.66,2.624l-0.022-1.925l1.396-0.967l0.336-0.232L89.831,85.589z M87.637,84.87l-0.035-0.669l-0.014-0.263l-0.003-0.043
				l-0.004-0.125l0.984-0.481l0.27-0.131l0.811-0.396l0.485-0.238L89.684,83.2l-0.31,0.474l-0.151,0.227l-0.272,0.414l-0.095,0.145
				l-0.389,0.596l-0.24,0.366l-0.524,0.8L87.637,84.87z"/>
		</g>
		<polygon fill="#898989" points="85.597,68.609 89.394,70.221 86.622,72.473 83.058,70.695 		"/>
	</g>
	<g>
		<polygon fill="#232323" points="89.118,68.765 87.528,70.039 89.844,71.228 88.642,71.815 86.228,70.762 81.137,73.422 
			80.276,73.079 84.663,70.117 82.38,68.725 83.235,68.292 86.12,69.491 86.567,69.174 90.382,66.459 91.315,66.656 		"/>
		<polygon fill="#4B5E6D" points="89.073,68.558 87.479,69.803 89.839,71.118 88.646,71.683 86.165,70.512 81.06,73.113 
			80.202,72.781 84.601,69.884 82.321,68.536 83.177,68.11 86.069,69.272 86.518,68.965 90.342,66.307 91.279,66.498 		"/>
		
			<rect x="89.857" y="64.684" transform="matrix(0.9962 -0.0875 0.0875 0.9962 -5.4188 8.1377)" fill="#232323" width="0.413" height="2.322"/>
		
			<rect x="82.711" y="66.34" transform="matrix(0.9964 -0.0845 0.0845 0.9964 -5.4026 7.249)" fill="#232323" width="0.445" height="2.216"/>
		
			<rect x="88.714" y="68.791" transform="matrix(0.9966 -0.0827 0.0827 0.9966 -5.4864 7.5994)" fill="#232323" width="0.502" height="2.435"/>
		
			<rect x="80.43" y="70.588" transform="matrix(0.9966 -0.0827 0.0827 0.9966 -5.6565 6.9153)" fill="#232323" width="0.455" height="2.316"/>
	</g>
	<polygon fill="#494949" points="85.76,62.387 86.483,62.406 86.341,69.605 85.612,69.583 	"/>
	<polygon fill="#494949" points="85.28,60.792 86.866,60.832 86.837,62.417 85.251,62.372 	"/>
</g>
<path fill="#53596B" d="M119.361,117.493c-9.316-2.861-17.164-8.093-17.164-8.093l-0.211-3.043L63.03,83.931l0.021,2.248
	l2.922,1.698l-3.106,2.479l-8.121-5.049l1.467,3.765l6.012,3.58l32.646,19.274c13.091,8.033,19.721,11.016,19.721,11.016
	c9.685,4.591,14.272,2.572,14.272,2.572c2.709-3.399,7.123-5.771,7.123-5.771C129.736,120.555,119.365,117.493,119.361,117.493z"/>
<polygon fill="#CCCCCC" points="97.252,82.471 83.933,89.895 102.521,100.682 115.832,92.787 "/>
<g>
	<ellipse fill="#344E5F" cx="100.063" cy="89.138" rx="2.708" ry="1.171"/>
	<ellipse fill="#344E5F" cx="100.063" cy="91.16" rx="2.708" ry="1.171"/>
	<rect x="97.355" y="89.137" fill="#344E5F" width="5.417" height="2.021"/>
</g>
<polygon fill="#59637A" points="85.343,93.966 85.343,92.235 102.627,102.257 104.738,101.063 104.586,104.811 "/>
<path fill="#00408C" d="M113.125,99.851l3.205,4.597l0.217-0.134l-0.143-0.207l0,0l-0.191-0.271l2.027-1.227l0.324,0.447l0.21-0.13
	l-3.172-4.589l-0.181,0.119l-0.032,0.021l0.317,0.44l-2.027,1.239l-0.316-0.449L113.125,99.851z M115.765,103.139l2.026-1.227
	l0.328,0.452l-2.026,1.239L115.765,103.139z M115.273,102.438l2.027-1.226l0.326,0.452l-2.026,1.242L115.273,102.438z
	 M114.802,101.742l2.028-1.227l0.326,0.453l-2.025,1.238L114.802,101.742z M114.31,101.045l2.027-1.229l0.325,0.455l-2.025,1.243
	L114.31,101.045z M113.822,100.348l2.024-1.228l0.327,0.455l-2.027,1.243L113.822,100.348z"/>
<path fill="#8C8C8C" d="M121.328,104.215v2.823c-1.112,1.308-3.407,0.828-3.407,0.828l-3.341,2.026
	c0.007,0.271-0.035,1.068-0.035,1.068c-3.074,2.363-4.293-0.138-4.293-0.138l-0.047-2.983c0.152,1.211,1.955,1.309,1.955,1.309
	c3.24-0.024,2.319-1.722,2.319-1.722l3.462-2.11C121.363,105.73,121.328,104.215,121.328,104.215L121.328,104.215z"/>
<path fill="#CCCCCC" d="M113.125,99.924l5.072,3.051c0,0,2.799-1.057,3.213,1.238c0.412,2.295,0,0.051,0,0.051
	s0.022,1.467-3.465,1.051l-3.463,2.11c0,0,0.893,1.699-2.205,1.839c0,0-2.756-0.252-1.929-1.859l-4.683-2.594l-0.116-0.436
	L113.125,99.924z"/>
<path fill="#B2B2B2" d="M117.927,102.313l0.002-0.922l-4.832-2.847l-0.067,1.417l4.897,2.893v-0.125l-0.015-0.008L117.927,102.313
	L117.927,102.313z M113.592,98.973l-0.042,1.202l-0.37-0.218l0.043-1.201L113.592,98.973z M114.121,99.278l-0.045,1.201
	l-0.367-0.217l0.043-1.204L114.121,99.278z M114.623,99.576l-0.043,1.201l-0.371-0.215l0.046-1.204L114.623,99.576z M115.152,99.878
	l-0.046,1.204l-0.366-0.218l0.045-1.203L115.152,99.878z M115.691,100.218l-0.047,1.205l-0.363-0.216l0.045-1.206L115.691,100.218z
	 M116.223,100.523l-0.043,1.205l-0.369-0.22l0.046-1.206L116.223,100.523z M116.76,100.83l-0.046,1.203l-0.364-0.217l0.043-1.203
	L116.76,100.83z M117.291,101.135l-0.045,1.201l-0.365-0.217l0.045-1.201L117.291,101.135z M117.793,101.432l-0.049,1.203
	l-0.363-0.217l0.043-1.203L117.793,101.432z"/>
<polygon fill="#999999" points="105.72,89.099 100.211,92.235 104.586,94.818 110.063,91.576 "/>
<polygon fill="#6D6D6D" points="110.063,91.576 104.586,94.818 100.211,92.235 100.211,95.067 104.433,97.455 110.063,94.149 "/>
<polygon fill="#325384" points="104.738,93.499 102.314,92.075 105.55,90.171 108.119,91.686 "/>
<path fill="#AFAFAF" d="M119.242,101.92l-0.269,0.159c1.332,0.319,1.194,2.181,1.194,2.181c-1.906,0.803-2.32-0.461-2.32-0.461
	c-0.366-1.537,1.012-2.043,1.012-2.043c1.996-0.32,1.836,2.112,1.836,2.112l-0.229,0.114
	C120.261,101.848,119.244,101.916,119.242,101.92z"/>
<path fill="#B2B2B2" d="M117.773,104.988l0.004,0.265c3.035,0.595,3.551-1.103,3.551-1.103v-1.561
	c-0.338,1.951-3.576,1.102-3.576,1.102l0.014,0.84l0.018-0.549l0.711,0.117v1.057C118.494,105.156,117.967,105.127,117.773,104.988z
	 M120.697,103.868c0.226-0.185,0.504-0.459,0.504-0.459v0.806c0,0.275-0.5,0.596-0.5,0.596L120.697,103.868z M119.765,104.037
	l0.701-0.055l0.04,0.828c0,0-0.559,0.422-0.741,0.273V104.037z M118.677,104.107h0.862v1.049c0,0-0.68,0.148-0.862,0V104.107z"/>
<path fill="#898989" d="M63.268,83.948l13.019-7.87l-0.076-1.63l-13.002,7.849L63.268,83.948z M75.653,74.942l0.414-0.25
	l0.047,1.384l-0.412,0.248L75.653,74.942z M75.063,75.292l0.412-0.253l0.045,1.386l-0.412,0.246L75.063,75.292z M74.503,75.627
	l0.414-0.247l0.041,1.386l-0.41,0.249L74.503,75.627z M73.911,75.982l0.412-0.252l0.043,1.384l-0.412,0.249L73.911,75.982z
	 M73.304,76.369l0.41-0.252l0.045,1.387l-0.406,0.246L73.304,76.369z M72.71,76.718l0.408-0.252l0.049,1.385l-0.412,0.251
	L72.71,76.718z M72.106,77.072l0.41-0.255l0.049,1.386l-0.408,0.248L72.106,77.072z M71.519,77.414l0.406-0.249l0.047,1.388
	l-0.41,0.25L71.519,77.414z M70.954,77.758l0.412-0.247l0.043,1.38l-0.412,0.251L70.954,77.758z M70.356,78.106l0.414-0.247
	l0.051,1.382l-0.414,0.251L70.356,78.106z M69.753,78.499l0.41-0.254l0.045,1.385l-0.41,0.251L69.753,78.499z M69.161,78.843
	l0.414-0.248l0.043,1.381l-0.414,0.253L69.161,78.843z M68.575,79.227l0.412-0.253l0.043,1.385l-0.412,0.253L68.575,79.227z
	 M67.979,79.575l0.414-0.249l0.043,1.383l-0.412,0.253L67.979,79.575z M67.423,79.915l0.41-0.247l0.043,1.383l-0.41,0.247
	L67.423,79.915z M66.831,80.264l0.404-0.245l0.047,1.382l-0.41,0.248L66.831,80.264z M66.22,80.654l0.414-0.251l0.043,1.381
	l-0.408,0.253L66.22,80.654z M65.626,80.997l0.414-0.245l0.043,1.38l-0.41,0.254L65.626,80.997z M65.034,81.352l0.41-0.249
	l0.045,1.385l-0.41,0.246L65.034,81.352z M64.438,81.703l0.412-0.253l0.045,1.387l-0.414,0.25L64.438,81.703z M63.88,82.041
	l0.41-0.25l0.047,1.387l-0.414,0.251L63.88,82.041z M63.335,83.774l-0.051-1.383l0.408-0.245l0.045,1.377L63.335,83.774z"/>
<path fill="#B2B2B2" d="M114.453,107.391l3.33-2.084l-0.033-1.613l-3.494,2.129l0.019,0.14l0.011-0.007l0.17,1.314l-0.018,0.012
	L114.453,107.391z M117.105,104.213l0.426-0.23l0.063,1.332l-0.44,0.275L117.105,104.213z M116.357,104.661l0.439-0.278l0.16,1.32
	l-0.438,0.273L116.357,104.661z M115.758,105.038l0.441-0.274l0.16,1.313l-0.434,0.276L115.758,105.038z M115.129,105.42
	l0.436-0.275l0.159,1.315l-0.435,0.274L115.129,105.42z M114.486,105.846l0.438-0.275l0.159,1.313l-0.435,0.275L114.486,105.846z"/>
<path fill="#939393" d="M123.518,102.309l-3.497,0.818c-0.092-0.359-0.256-0.516-0.256-0.516l3.571-0.883
	C123.679,101.883,123.518,102.309,123.518,102.309z"/>
<path fill="#AFAFAF" d="M112.543,105.148l-0.271,0.16c1.331,0.321,1.194,2.181,1.194,2.181c-1.907,0.802-2.318-0.46-2.318-0.46
	c-0.365-1.534,1.012-2.043,1.012-2.043c1.994-0.321,1.834,2.113,1.834,2.113l-0.229,0.113
	C113.557,105.078,112.541,105.146,112.543,105.148z"/>
<path fill="#939393" d="M116.818,105.537l-3.498,0.82c-0.093-0.362-0.257-0.518-0.257-0.518l3.569-0.883
	C116.978,105.113,116.818,105.537,116.818,105.537z"/>
<path fill="#00408C" d="M101.945,106.494l3.205,4.598l0.215-0.133l-0.145-0.208l0,0l-0.188-0.271l2.026-1.228l0.325,0.449
	l0.208-0.134l-3.17-4.59l-0.183,0.121l-0.031,0.021l0.318,0.438l-2.027,1.239l-0.317-0.448L101.945,106.494z M104.586,109.777
	l2.025-1.229l0.328,0.453l-2.025,1.24L104.586,109.777z M104.095,109.081l2.026-1.229l0.328,0.455l-2.023,1.24L104.095,109.081z
	 M103.625,108.382l2.025-1.228l0.328,0.453l-2.027,1.242L103.625,108.382z M103.13,107.689l2.026-1.229l0.326,0.454l-2.025,1.24
	L103.13,107.689z M102.641,106.988l2.025-1.227l0.326,0.455l-2.022,1.243L102.641,106.988z"/>
<path fill="#898989" d="M83.31,95.51l18.54,10.758v-1.757L83.325,93.778L83.31,95.51z M101.223,104.307l0.428,0.25v1.469
	l-0.428-0.248V104.307z M100.604,103.965l0.43,0.246v1.471l-0.43-0.25V103.965z M99.977,103.57l0.427,0.252v1.469l-0.427-0.25
	V103.57z M99.359,103.229l0.429,0.25v1.469l-0.429-0.248V103.229z M98.78,102.887l0.428,0.249v1.468l-0.428-0.246V102.887z
	 M98.164,102.54l0.428,0.251v1.471l-0.428-0.252V102.54z M97.562,102.182l0.426,0.248v1.469l-0.426-0.248V102.182z M96.943,101.836
	l0.428,0.248v1.469l-0.428-0.248V101.836z M96.315,101.445l0.428,0.25v1.471l-0.428-0.252V101.445z M95.7,101.102l0.428,0.25v1.467
	l-0.428-0.246V101.102z M95.12,100.758l0.426,0.249v1.468l-0.426-0.244V100.758z M94.504,100.413l0.428,0.251v1.467l-0.428-0.248
	V100.413z M93.884,100.063l0.43,0.249v1.467l-0.43-0.246V100.063z M93.27,99.718l0.426,0.249v1.469l-0.426-0.25V99.718z
	 M92.642,99.328l0.426,0.248v1.47l-0.426-0.249V99.328z M92.027,98.986l0.426,0.249v1.467l-0.426-0.249V98.986z M91.445,98.643
	l0.426,0.249v1.467l-0.426-0.249V98.643z M90.829,98.296l0.426,0.251v1.468l-0.426-0.25V98.296z M90.22,97.914l0.428,0.25v1.469
	l-0.428-0.249V97.914z M89.604,97.571l0.428,0.249v1.468l-0.428-0.246V97.571z M88.977,97.179l0.429,0.251v1.469l-0.429-0.251
	V97.179z M88.36,96.835l0.426,0.249v1.468l-0.426-0.249V96.835z M87.78,96.493l0.426,0.247v1.47l-0.426-0.249V96.493z
	 M87.161,96.149l0.428,0.25v1.467l-0.428-0.249V96.149z M86.538,95.801l0.43,0.245v1.471l-0.43-0.249V95.801z M85.922,95.451
	l0.429,0.249v1.469l-0.429-0.249V95.451z M85.294,95.062l0.429,0.249v1.467l-0.429-0.245V95.062z M84.675,94.717l0.428,0.249v1.47
	l-0.428-0.251V94.717z M84.099,94.375l0.425,0.25v1.47l-0.425-0.249V94.375z M83.479,94.031l0.43,0.249v1.469l-0.43-0.251V94.031z"
	/>
<path fill="#898989" d="M65.003,84.882l18.543,10.757v-1.758L65.021,83.149L65.003,84.882z M82.919,93.681l0.424,0.249v1.467
	l-0.424-0.249V93.681z M82.299,93.335l0.428,0.247v1.47l-0.428-0.25V93.335z M81.671,92.944l0.429,0.249v1.47l-0.429-0.25V92.944z
	 M81.056,92.6l0.428,0.25v1.469l-0.428-0.249V92.6z M80.476,92.256l0.426,0.252v1.468l-0.426-0.248V92.256z M79.86,91.913
	l0.426,0.249v1.469L79.86,93.38V91.913z M79.255,91.552l0.426,0.249v1.469l-0.426-0.249V91.552z M78.639,91.206l0.429,0.249v1.467
	l-0.429-0.245V91.206z M78.01,90.818l0.43,0.248v1.47l-0.43-0.25V90.818z M77.394,90.473l0.426,0.25v1.467l-0.426-0.245V90.473z
	 M76.814,90.13l0.427,0.25v1.469l-0.427-0.248V90.13z M76.196,89.786l0.428,0.249v1.467l-0.428-0.247V89.786z M75.579,90.905v-1.471
	l0.43,0.249v1.469L75.579,90.905L75.579,90.905z M74.968,89.089l0.424,0.249v1.47l-0.424-0.25V89.089z M74.337,88.699l0.428,0.249
	v1.469l-0.428-0.25V88.699z M73.72,88.353l0.43,0.25v1.467l-0.43-0.247V88.353z M73.14,88.012l0.426,0.251v1.467l-0.426-0.249
	V88.012z M72.524,87.666l0.426,0.249v1.47l-0.426-0.25V87.666z M71.913,87.285l0.43,0.25v1.468l-0.43-0.249V87.285z M71.296,86.94
	l0.43,0.25v1.467l-0.43-0.247V86.94z M70.669,86.55l0.428,0.249v1.469l-0.428-0.249V86.55z M70.054,86.204l0.428,0.249v1.469
	l-0.428-0.251V86.204z M69.474,85.864l0.424,0.247v1.47l-0.424-0.25V85.864z M68.854,85.52l0.43,0.25v1.467l-0.43-0.247V85.52z
	 M68.231,85.168l0.43,0.248v1.47l-0.43-0.249V85.168z M67.616,84.823l0.426,0.247v1.469l-0.426-0.247V84.823z M66.987,84.432
	l0.428,0.249v1.467l-0.428-0.247V84.432z M66.374,84.088l0.426,0.247v1.471l-0.426-0.25V84.088z M65.792,83.745l0.426,0.248v1.47
	l-0.426-0.249V83.745z M65.177,83.403l0.428,0.247v1.469l-0.428-0.249V83.403z"/>
<path fill="#898989" d="M83.935,89.895l13.421-7.496l-0.044-1.613l-13.404,7.477L83.935,89.895z M96.736,81.264l0.424-0.24
	l0.022,1.368l-0.426,0.236L96.736,81.264z M96.125,81.591l0.426-0.241l0.019,1.372l-0.424,0.236L96.125,81.591z M95.548,81.915
	l0.422-0.236l0.021,1.37l-0.423,0.238L95.548,81.915z M94.937,82.254l0.423-0.24l0.022,1.366l-0.428,0.238L94.937,82.254z
	 M94.312,82.62l0.424-0.24l0.022,1.371l-0.424,0.236L94.312,82.62z M93.696,82.95l0.424-0.24l0.026,1.37l-0.424,0.24L93.696,82.95z
	 M93.076,83.286l0.426-0.242l0.022,1.372l-0.422,0.236L93.076,83.286z M92.472,83.617l0.42-0.24l0.022,1.372l-0.426,0.238
	L92.472,83.617z M91.887,83.944l0.428-0.236l0.017,1.364l-0.422,0.24L91.887,83.944z M91.276,84.275l0.426-0.238l0.02,1.365
	l-0.424,0.242L91.276,84.275z M90.651,84.647l0.422-0.24l0.022,1.368l-0.422,0.24L90.651,84.647z M90.04,84.978l0.425-0.236
	l0.021,1.363l-0.428,0.24L90.04,84.978z M89.434,85.342l0.429-0.238l0.02,1.368l-0.426,0.24L89.434,85.342z M88.821,85.672
	l0.426-0.238l0.021,1.368l-0.428,0.24L88.821,85.672z M88.245,85.998l0.43-0.236l0.018,1.367l-0.428,0.236L88.245,85.998z
	 M87.635,86.328l0.42-0.234l0.021,1.368l-0.42,0.236L87.635,86.328z M87.012,86.704l0.42-0.24l0.022,1.364l-0.426,0.242
	L87.012,86.704z M86.396,87.029l0.425-0.234l0.018,1.365l-0.422,0.241L86.396,87.029z M85.786,87.367l0.428-0.238l0.018,1.368
	l-0.426,0.234L85.786,87.367z M85.173,87.699l0.428-0.24l0.02,1.373l-0.428,0.238L85.173,87.699z M84.594,88.023l0.427-0.238
	l0.02,1.37l-0.426,0.24L84.594,88.023z M84.003,89.721l-0.023-1.366l0.424-0.234l0.024,1.36L84.003,89.721z"/>
<path fill="#898989" d="M63.177,83.816l18.539,10.759v-1.758L63.194,82.085L63.177,83.816z M81.091,92.619l0.426,0.249v1.469
	l-0.426-0.251V92.619z M80.476,92.275l0.426,0.246v1.472l-0.426-0.25V92.275z M79.845,91.884l0.429,0.247v1.472l-0.429-0.251V91.884
	z M79.229,91.536l0.43,0.25v1.467l-0.43-0.245V91.536z M78.649,91.197l0.428,0.249v1.467l-0.428-0.245V91.197z M78.034,90.85
	l0.424,0.25v1.469l-0.424-0.251V90.85z M77.429,90.49l0.426,0.249v1.469l-0.426-0.247V90.49z M76.813,90.146l0.429,0.249v1.468
	l-0.429-0.249V90.146z M76.184,89.755l0.429,0.249v1.47l-0.429-0.251V89.755z M75.567,89.411l0.43,0.25v1.467l-0.43-0.249V89.411z
	 M74.989,89.072l0.426,0.249v1.467l-0.426-0.249V89.072z M74.37,88.723l0.428,0.249v1.468l-0.428-0.247V88.723z M73.753,88.373
	l0.43,0.249v1.467l-0.43-0.249V88.373z M73.14,88.025l0.426,0.249v1.472l-0.426-0.25V88.025z M72.511,87.639l0.428,0.245v1.472
	l-0.428-0.25V87.639z M71.894,87.292l0.43,0.25v1.467l-0.43-0.245V87.292z M71.315,86.952l0.428,0.247v1.467l-0.428-0.247V86.952z
	 M70.698,86.606l0.426,0.249v1.469l-0.426-0.25V86.606z M70.091,86.224l0.428,0.248v1.469l-0.428-0.249V86.224z M69.474,85.879
	l0.424,0.25v1.465l-0.424-0.245V85.879z M68.843,85.488l0.428,0.25v1.469l-0.428-0.249V85.488z M68.228,85.144l0.428,0.247v1.47
	l-0.428-0.249V85.144z M67.651,84.804l0.424,0.247v1.47l-0.424-0.25V84.804z M67.032,84.456l0.431,0.25v1.467l-0.431-0.247V84.456z
	 M66.405,84.105l0.43,0.25v1.469l-0.43-0.249V84.105z M65.788,83.76l0.43,0.249v1.469l-0.43-0.247V83.76z M65.161,83.37l0.428,0.25
	v1.469l-0.428-0.249V83.37z M64.544,83.027l0.43,0.249v1.47l-0.43-0.25V83.027z M63.966,82.684l0.426,0.248v1.469l-0.426-0.249
	V82.684z M63.349,82.341l0.43,0.248v1.469l-0.43-0.249V82.341z"/>
<path fill="#898989" d="M97.189,82.5l18.639,10.393l-0.037-1.757L97.175,80.768L97.189,82.5z M115.166,90.949l0.429,0.24l0.03,1.468
	l-0.432-0.24L115.166,90.949z M114.543,90.615l0.432,0.24l0.027,1.467l-0.428-0.24L114.543,90.615z M113.914,90.235l0.429,0.24
	l0.03,1.472l-0.43-0.245L113.914,90.235z M113.293,89.905l0.43,0.24l0.029,1.467l-0.43-0.24L113.293,89.905z M112.709,89.571
	l0.431,0.24l0.028,1.47l-0.43-0.238L112.709,89.571z M112.092,89.239l0.429,0.242l0.03,1.469l-0.43-0.241L112.092,89.239z
	 M111.482,88.89l0.432,0.238l0.026,1.471l-0.427-0.24L111.482,88.89z M110.861,88.556l0.432,0.243l0.029,1.468l-0.431-0.24
	L110.861,88.556z M110.232,88.182l0.43,0.24l0.027,1.469l-0.429-0.242L110.232,88.182z M109.613,87.847l0.43,0.243l0.029,1.467
	l-0.429-0.24L109.613,87.847z M109.029,87.519l0.432,0.24l0.027,1.468l-0.429-0.238L109.029,87.519z M108.408,87.186l0.433,0.242
	l0.028,1.468l-0.43-0.242L108.408,87.186z M107.787,86.844l0.434,0.242l0.027,1.467l-0.428-0.238L107.787,86.844z M107.172,86.512
	l0.429,0.24l0.03,1.471l-0.432-0.244L107.172,86.512z M106.541,86.134l0.429,0.24l0.03,1.471l-0.432-0.242L106.541,86.134z
	 M105.922,85.798l0.431,0.243l0.028,1.468l-0.43-0.238L105.922,85.798z M105.334,85.473l0.433,0.24l0.031,1.468l-0.431-0.238
	L105.334,85.473z M104.717,85.137l0.431,0.24l0.026,1.469l-0.428-0.238L104.717,85.137z M104.104,84.768l0.432,0.24l0.029,1.47
	l-0.431-0.242L104.104,84.768z M103.484,84.437l0.43,0.24l0.029,1.468l-0.427-0.24L103.484,84.437z M102.852,84.058l0.434,0.24
	l0.028,1.47l-0.429-0.24L102.852,84.058z M102.234,83.724l0.428,0.24l0.031,1.469l-0.429-0.242L102.234,83.724z M101.648,83.397
	l0.432,0.238l0.027,1.472l-0.429-0.242L101.648,83.397z M101.029,83.063l0.432,0.24l0.027,1.467l-0.427-0.238L101.029,83.063z
	 M100.403,82.723l0.433,0.242l0.027,1.469l-0.429-0.242L100.403,82.723z M99.784,82.391l0.431,0.24l0.031,1.468l-0.433-0.238
	L99.784,82.391z M99.152,82.014l0.43,0.24l0.028,1.468l-0.428-0.24L99.152,82.014z M98.533,81.684l0.43,0.238l0.031,1.469
	l-0.432-0.242L98.533,81.684z M97.949,81.352l0.43,0.241l0.03,1.468l-0.43-0.24L97.949,81.352z M97.33,81.019l0.432,0.24l0.03,1.469
	l-0.43-0.242L97.33,81.019z"/>
<path fill="#898989" d="M102.506,100.695l13.373-7.941l-0.09-1.624l-13.358,7.923L102.506,100.695z M115.225,91.629l0.422-0.255
	l0.059,1.377l-0.424,0.253L115.225,91.629z M114.611,91.982l0.426-0.255l0.056,1.377l-0.423,0.253L114.611,91.982z M114.039,92.327
	l0.42-0.253l0.06,1.379l-0.421,0.25L114.039,92.327z M113.426,92.679l0.423-0.257l0.058,1.379l-0.422,0.251L113.426,92.679z
	 M112.805,93.069l0.422-0.254l0.061,1.383l-0.424,0.249L112.805,93.069z M112.193,93.421l0.422-0.256l0.062,1.379l-0.423,0.255
	L112.193,93.421z M111.576,93.78l0.426-0.258l0.058,1.381l-0.427,0.251L111.576,93.78z M110.968,94.126l0.421-0.252l0.059,1.379
	l-0.422,0.252L110.968,94.126z M110.388,94.471l0.424-0.252l0.058,1.377l-0.42,0.255L110.388,94.471z M109.779,94.825l0.422-0.253
	l0.061,1.377l-0.422,0.255L109.779,94.825z M109.158,95.22l0.424-0.257l0.058,1.381l-0.423,0.253L109.158,95.22z M108.543,95.569
	l0.424-0.254l0.063,1.377l-0.426,0.255L108.543,95.569z M107.945,95.954l0.422-0.254l0.062,1.377l-0.425,0.253L107.945,95.954z
	 M107.336,96.306l0.424-0.254l0.056,1.379l-0.422,0.252L107.336,96.306z M106.761,96.648l0.425-0.253l0.059,1.377l-0.426,0.251
	L106.761,96.648z M106.148,96.997l0.426-0.249l0.056,1.377l-0.423,0.251L106.148,96.997z M105.529,97.393l0.42-0.254l0.061,1.377
	l-0.422,0.255L105.529,97.393z M104.914,97.741l0.427-0.249l0.058,1.376l-0.423,0.255L104.914,97.741z M104.305,98.098l0.425-0.252
	l0.06,1.377l-0.424,0.253L104.305,98.098z M103.699,98.456l0.42-0.258l0.062,1.38l-0.426,0.251L103.699,98.456z M103.121,98.794
	l0.422-0.25l0.061,1.379l-0.423,0.252L103.121,98.794z M102.572,100.525l-0.062-1.38l0.425-0.251l0.057,1.377L102.572,100.525z"/>
<path fill="#B2B2B2" d="M55.069,85.465l15.729-9.194l-0.205-1.673l-15.719,9.171L55.069,85.465z M69.931,75.152l0.502-0.292
	l0.156,1.421l-0.498,0.287L69.931,75.152z M69.212,75.561l0.502-0.296l0.154,1.424l-0.498,0.289L69.212,75.561z M68.536,75.956
	l0.496-0.291l0.16,1.422l-0.496,0.292L68.536,75.956z M67.817,76.368l0.502-0.295l0.156,1.42l-0.504,0.293L67.817,76.368z
	 M67.091,76.82l0.494-0.294l0.162,1.424l-0.498,0.287L67.091,76.82z M66.37,77.226l0.496-0.295l0.158,1.422l-0.496,0.295
	L66.37,77.226z M65.644,77.639l0.494-0.294l0.164,1.424l-0.5,0.287L65.644,77.639z M64.929,78.041l0.49-0.291l0.158,1.426
	l-0.492,0.292L64.929,78.041z M64.249,78.449l0.502-0.293l0.156,1.418l-0.502,0.292L64.249,78.449z M63.528,78.855l0.5-0.289
	l0.162,1.418l-0.504,0.292L63.528,78.855z M62.8,79.308l0.496-0.297l0.158,1.422l-0.492,0.295L62.8,79.308z M62.081,79.711
	l0.5-0.288l0.154,1.418l-0.5,0.293L62.081,79.711z M61.381,80.157l0.495-0.294l0.154,1.42l-0.496,0.294L61.381,80.157z
	 M60.655,80.564l0.498-0.291l0.158,1.42l-0.496,0.297L60.655,80.564z M59.981,80.964l0.498-0.293l0.152,1.42l-0.498,0.293
	L59.981,80.964z M59.265,81.368l0.492-0.285l0.154,1.42l-0.492,0.289L59.265,81.368z M58.53,81.824l0.498-0.292l0.154,1.417
	l-0.492,0.295L58.53,81.824z M57.812,82.229l0.502-0.29l0.15,1.42l-0.494,0.293L57.812,82.229z M57.093,82.636l0.504-0.289
	l0.152,1.424l-0.498,0.287L57.093,82.636z M56.372,83.052l0.502-0.295l0.156,1.424l-0.502,0.293L56.372,83.052z M55.698,83.449
	l0.498-0.292l0.16,1.422l-0.504,0.295L55.698,83.449z M55.14,85.277l-0.158-1.422l0.494-0.285l0.156,1.415L55.14,85.277z"/>
<g>
	<path fill="#B2B2B2" d="M69.347,80.816l5.002-2.96l-0.137-1.479l-4.904,2.896l0.086,0.08l0.092,1.253l-0.137,0.082L69.347,80.816z
		 M73.661,76.845l0.414-0.244l0.1,1.258l-0.41,0.243L73.661,76.845z M73.073,77.187l0.412-0.246l0.096,1.26l-0.41,0.241
		L73.073,77.187z M72.517,77.517l0.41-0.242l0.096,1.256l-0.408,0.245L72.517,77.517z M71.925,77.862l0.41-0.246l0.092,1.254
		l-0.406,0.245L71.925,77.862z M71.325,78.237l0.405-0.245l0.097,1.258l-0.406,0.242L71.325,78.237z M70.727,78.576l0.41-0.243
		l0.104,1.256l-0.412,0.245L70.727,78.576z M70.13,78.924l0.406-0.249l0.1,1.258l-0.406,0.245L70.13,78.924z M69.54,79.257
		l0.406-0.243l0.098,1.26l-0.408,0.244L69.54,79.257z"/>
</g>
<path fill="#B2B2B2" d="M110.461,106.895l0.002-0.926l-4.832-2.843l-0.068,1.417l4.898,2.889v-0.119l-0.016-0.012L110.461,106.895
	L110.461,106.895z M106.125,103.553l-0.041,1.203l-0.368-0.217l0.042-1.202L106.125,103.553z M106.658,103.857l-0.045,1.205
	l-0.367-0.221l0.041-1.199L106.658,103.857z M107.158,104.154l-0.045,1.203l-0.369-0.217l0.045-1.201L107.158,104.154z
	 M107.686,104.459l-0.043,1.204l-0.365-0.218l0.045-1.203L107.686,104.459z M108.229,104.799l-0.045,1.203l-0.367-0.215l0.045-1.205
	L108.229,104.799z M108.757,105.104l-0.043,1.203l-0.366-0.219l0.043-1.202L108.757,105.104z M109.293,105.408l-0.045,1.203
	l-0.362-0.219l0.044-1.201L109.293,105.408z M109.824,105.715l-0.043,1.203l-0.367-0.218l0.045-1.203L109.824,105.715z
	 M110.326,106.014l-0.047,1.203l-0.361-0.218l0.043-1.203L110.326,106.014z"/>
<path fill="#B2B2B2" d="M114.443,107.843l0.021-1.397l0.095-0.118c-0.004-0.056-0.007-0.101-0.01-0.16
	c-0.325,0.538-1.36,1.173-2.101,1.173s-1.732-0.729-2.108-1.173c0,0.031,0,0.065,0,0.094l0.067,0.089l0.027,1.4
	c0,0-0.061-0.105-0.095-0.29c0,0.004,0,0.011,0,0.019c0,0.893,0.942,1.617,2.108,1.617c1.162,0,2.104-0.724,2.104-1.617
	 M114.268,108.116l0.023-1.48l0.173-0.182l-0.024,1.397C114.412,107.998,114.268,108.109,114.268,108.116z M114.068,106.823
	l0.137-0.119v1.522c-0.099,0.148-0.137,0.148-0.137,0.148V106.823z M113.752,107.01l0.316-0.188v1.553
	c-0.15,0.158-0.316,0.299-0.316,0.299V107.01z M113.388,107.229l0.255-0.129v1.611c-0.184,0.158-0.255,0.158-0.255,0.158V107.229z
	 M112.992,107.386l0.396-0.159v1.639c-0.147,0.107-0.396,0.1-0.396,0.1V107.386z M112.539,107.495l0.341-0.056v1.541
	c-0.117,0.098-0.349,0.059-0.349,0.059L112.539,107.495z M112.057,108.965l-0.001-1.535l0.481,0.063l-0.008,1.542
	C112.529,109.035,112.173,109.068,112.057,108.965L112.057,108.965z M111.535,107.229l0.379,0.158v1.582c0,0-0.232,0.004-0.379-0.1
	V107.229z M111.281,107.102l0.254,0.125v1.643c0,0-0.07,0-0.254-0.158V107.102z M110.839,106.758l0.35,0.264v1.638
	c0,0-0.166-0.093-0.35-0.251V106.758z M110.673,106.632l0.166,0.127v1.649c0,0-0.048,0-0.166-0.154V106.632z M110.406,106.354
	l0.185,0.215l0.024,1.607c0,0-0.119-0.154-0.186-0.424L110.406,106.354z"/>
<path fill="#B2B2B2" d="M54.782,85.34l7.984,4.866l0.072-1.435l-7.971-4.856L54.782,85.34z M62.237,89.779l0.065-1.202l0.356,0.22
	l-0.063,1.205L62.237,89.779z M61.712,89.47l0.064-1.204l0.356,0.225l-0.06,1.197L61.712,89.47z M61.174,89.117l0.059-1.202
	l0.365,0.225l-0.063,1.206L61.174,89.117z M60.646,88.815l0.063-1.206l0.363,0.219l-0.059,1.204L60.646,88.815z M60.153,88.508
	l0.062-1.205l0.36,0.223l-0.059,1.202L60.153,88.508z M59.626,88.192l0.066-1.201l0.358,0.22l-0.063,1.206L59.626,88.192z
	 M59.11,87.87l0.063-1.206l0.36,0.229l-0.063,1.202L59.11,87.87z M58.581,87.562l0.065-1.203l0.361,0.222l-0.06,1.204L58.581,87.562
	z M58.048,87.214l0.063-1.203l0.365,0.22l-0.066,1.204L58.048,87.214z M57.521,86.902l0.066-1.203l0.363,0.225l-0.064,1.201
	L57.521,86.902z M57.026,86.595l0.063-1.202l0.362,0.225l-0.063,1.201L57.026,86.595z M56.503,86.285l0.064-1.204l0.362,0.223
	l-0.063,1.201L56.503,86.285z M55.972,85.968l0.066-1.202l0.36,0.225l-0.063,1.199L55.972,85.968z M55.45,85.658l0.057-1.204
	l0.367,0.223l-0.064,1.206L55.45,85.658z M55.276,85.534l-0.369-0.225l0.066-1.199l0.363,0.218L55.276,85.534z"/>
<polygon fill="#333D54" points="115.477,109.264 115.477,107.198 116.633,106.512 116.633,108.504 "/>
<g>
	<ellipse fill="#344E5F" cx="93.598" cy="85.61" rx="3.267" ry="1.409"/>
	<ellipse fill="#344E5F" cx="93.598" cy="88.052" rx="3.267" ry="1.409"/>
	<rect x="90.335" y="85.611" fill="#344E5F" width="6.53" height="2.44"/>
</g>
<g>
	<polygon fill="#333D54" points="108.752,102.572 108.752,100.506 110.063,99.818 110.063,101.813 	"/>
	<polygon fill="#333D54" points="111.472,97.169 111.472,98.248 112.32,97.699 112.32,96.643 	"/>
	<polygon fill="#333D54" points="110.494,97.744 110.494,98.822 111.348,98.271 111.348,97.217 	"/>
	<polygon fill="#333D54" points="109.355,98.386 109.355,99.465 110.203,98.913 110.203,97.859 	"/>
	<polygon fill="#333D54" points="108.164,99.051 108.164,100.13 109.013,99.58 109.013,98.524 	"/>
	<polygon fill="#333D54" points="106.992,99.854 106.992,100.934 107.842,100.383 107.842,99.327 	"/>
	<polygon fill="#333D54" points="105.822,100.658 105.822,101.734 106.67,101.186 106.67,100.13 	"/>
</g>
<path fill="#AFAFAF" d="M102.046,108.096l0.077,1.113c0,0,16.383,11.18,33.869,10.618l0.293-1.386
	C136.285,118.441,122.016,120.211,102.046,108.096z M135.209,119.723l0.076-1.043c0.32-0.002,0.726-0.052,0.726-0.052l0.001,0.07
	l-0.16,0.995L135.209,119.723z M134.308,119.751l0.106-1.041c0.318,0.008,0.676-0.011,0.676-0.011l-0.072,1.023L134.308,119.751z
	 M134.15,119.723l-0.674,0.002l0.072-1.063c0.318,0.006,0.674,0.037,0.674,0.037L134.15,119.723L134.15,119.723z M132.611,119.689
	l0.07-1.026c0.323,0.008,0.691,0,0.691,0v0.05l-0.071,1.01L132.611,119.689z M131.755,119.657l0.071-1.029
	c0.323,0.008,0.691,0,0.691,0v0.05l-0.074,1.01L131.755,119.657z M130.883,119.59l0.072-1.025c0.32,0.009,0.689,0,0.689,0v0.047
	l-0.072,1.013L130.883,119.59z M130.004,119.492l0.09-1.012l0.01-0.045c0,0,0.363,0.063,0.682,0.107l-0.094,1.025L130.004,119.492z
	 M129.133,119.415l0.09-1.007l0.007-0.051c0,0,0.364,0.067,0.683,0.108l-0.094,1.025L129.133,119.415z M128.281,119.313l0.09-1.012
	l0.008-0.048c0,0,0.363,0.065,0.682,0.11l-0.094,1.025L128.281,119.313z M127.441,119.173l0.092-1.021c0,0,0.356,0.029,0.674,0.072
	l-0.101,1.061L127.441,119.173z M126.504,119.018l0.175-1.002c0,0,0.349,0.077,0.668,0.12l-0.063,1.042L126.504,119.018z
	 M125.621,118.837l0.186-0.998l0.014-0.045c0,0,0.356,0.101,0.67,0.174l-0.189,1.011L125.621,118.837z M124.761,118.677l0.185-0.997
	l0.012-0.045c0,0,0.356,0.1,0.67,0.174l-0.189,1.012L124.761,118.677z M123.925,118.495l0.185-0.996l0.012-0.044
	c0,0,0.354,0.096,0.668,0.17l-0.188,1.016L123.925,118.495z M123.099,118.283l0.188-1.012c0,0,0.35,0.062,0.664,0.136l-0.197,1.044
	L123.099,118.283z M122.262,118.063l0.189-1.006c0,0,0.342,0.107,0.655,0.178l-0.161,1.033L122.262,118.063z M121.408,117.802
	l0.19-1.009c0,0,0.349,0.061,0.663,0.135l-0.198,1.045L121.408,117.802z M120.572,117.582l0.189-1.009c0,0,0.342,0.106,0.654,0.181
	l-0.158,1.033L120.572,117.582z M119.695,117.322l0.237-0.998c0,0,0.347,0.074,0.656,0.164l-0.249,1.037L119.695,117.322z
	 M118.867,117.064l0.237-1c0,0,0.337,0.125,0.647,0.211l-0.213,1.024L118.867,117.064z M118.078,116.811l0.223-0.974
	c0,0,0.345,0.079,0.652,0.172l-0.233,1.007L118.078,116.811z M117.254,116.518l0.236-0.966c0,0,0.332,0.128,0.637,0.222l-0.17,1.004
	L117.254,116.518z M116.492,116.271l0.238-1c0,0,0.336,0.121,0.645,0.213l-0.209,1.022L116.492,116.271z M115.701,116.016
	l0.239-1.037c0,0,0.329,0.143,0.636,0.236l-0.232,1.008L115.701,116.016z M114.859,115.636l0.273-0.956c0,0,0.398,0.192,0.703,0.287
	l-0.246,0.947L114.859,115.636z M114.056,115.295l0.317-0.977c0,0,0.324,0.152,0.625,0.262l-0.293,1.004L114.056,115.295z
	 M113.283,114.98l0.303-0.947c0,0,0.337,0.104,0.636,0.221l-0.313,0.982L113.283,114.98z M112.472,114.669l0.319-0.981
	c0,0,0.324,0.152,0.627,0.266l-0.295,1.008L112.472,114.669z M111.765,114.314l0.317-0.978c0,0,0.324,0.151,0.623,0.267
	l-0.289,1.002L111.765,114.314z M111.065,114.04l0.272-0.908c0,0,0.334,0.114,0.631,0.232l-0.281,0.94L111.065,114.04z
	 M110.328,113.636l0.262-0.892c0,0,0.318,0.154,0.615,0.273l-0.234,0.918L110.328,113.636z M109.549,113.301l0.271-0.904
	c0,0,0.323,0.153,0.618,0.273l-0.243,0.93L109.549,113.301z M108.759,112.932l0.256-0.886c0,0,0.334,0.112,0.631,0.231l-0.269,0.916
	L108.759,112.932z M107.977,112.518l0.27-0.903c0,0,0.32,0.155,0.619,0.271l-0.246,0.931L107.977,112.518z M107.221,112.158
	l0.27-0.905c0,0,0.32,0.159,0.619,0.276l-0.242,0.93L107.221,112.158z M106.474,111.744l0.267-0.904c0,0,0.323,0.154,0.623,0.274
	l-0.244,0.929L106.474,111.744z M105.759,111.329l0.276-0.867c0,0,0.314,0.166,0.605,0.295l-0.249,0.89L105.759,111.329z
	 M105.02,110.951l0.271-0.87c0,0,0.318,0.168,0.611,0.291l-0.248,0.896L105.02,110.951z M104.285,110.514l0.272-0.869
	c0,0,0.317,0.164,0.608,0.293l-0.248,0.893L104.285,110.514z M103.568,110.018l0.231-0.813c0,0,0.315,0.166,0.604,0.299
	l-0.209,0.836L103.568,110.018z M102.832,109.624l0.231-0.81c0,0,0.312,0.168,0.604,0.299l-0.209,0.836L102.832,109.624z
	 M102.228,108.365c0,0,0.421,0.166,0.712,0.303l-0.197,0.816l-0.453-0.283L102.228,108.365z"/>
<g>
	<path fill="#AFAFAF" d="M115.107,102.854l-0.025,0.088c0,0,0.045-0.002,0.134-0.002
		C115.18,102.908,115.145,102.881,115.107,102.854z"/>
	<path fill="#AFAFAF" d="M123.537,105.371c2.045,1.123,4.324,2.93,6.826,5.24l0.051-0.129l0.36-1.092l0.031,0.032l0.013-0.037
		c-2.652-2.513-5.434-4.315-7.263-5.345L123.537,105.371z M129.879,110.105l0.389-1.115l0.395,0.363l-0.375,1.076
		C130.287,110.43,130.074,110.27,129.879,110.105z M129.394,109.639l0.375-1.135l0.412,0.4l-0.392,1.105
		C129.789,110.01,129.587,109.805,129.394,109.639z M128.871,109.102l0.334-1.084l0.465,0.405l-0.352,1.089
		C129.318,109.512,129.065,109.25,128.871,109.102z M128.389,108.732l0.336-1.146l0.417,0.307l-0.351,1.191
		C128.791,109.084,128.59,108.877,128.389,108.732z M127.871,108.341l0.322-1.172l0.432,0.345l-0.336,1.141
		C128.289,108.654,128.074,108.482,127.871,108.341z M127.393,107.924l0.292-1.154l0.45,0.381l-0.329,1.104
		C127.806,108.254,127.595,108.068,127.393,107.924z M126.852,107.566l0.337-1.152l0.419,0.307l-0.322,1.113
		C127.285,107.834,127.053,107.707,126.852,107.566z M126.337,107.176l0.323-1.175l0.433,0.341l-0.339,1.151
		C126.754,107.493,126.541,107.309,126.337,107.176z M125.787,106.84l0.351-1.184l0.417,0.303l-0.335,1.141
		C126.22,107.1,125.986,106.977,125.787,106.84z M125.248,106.445l0.291-1.192l0.445,0.312l-0.307,1.154
		C125.678,106.719,125.457,106.563,125.248,106.445z M124.687,106.154l0.313-1.202l0.431,0.267l-0.306,1.16
		C125.125,106.379,124.891,106.271,124.687,106.154z M124.142,105.708l0.289-1.192l0.444,0.313l-0.305,1.156
		C124.57,105.984,124.351,105.822,124.142,105.708z M124.021,105.643c0,0-0.108-0.039-0.317-0.158l0.158-1.272l0.463,0.271
		L124.021,105.643z"/>
</g>
<g>
	<path fill="#AFAFAF" d="M130.216,110.639c1.683,1.373,3.546,3.244,5.459,5.787l0.063-0.111l0.506-0.955l0.022,0.033l0.019-0.031
		c-1.52-2.076-3.375-4.215-5.545-6.016L130.216,110.639z M135.31,115.873l0.539-0.973l0.3,0.402l-0.516,0.942
		C135.633,116.245,135.459,116.057,135.31,115.873z M134.938,115.364l0.526-0.993l0.313,0.438l-0.535,0.963
		C135.242,115.771,135.092,115.549,134.938,115.364z M134.547,114.783l0.482-0.947l0.358,0.447l-0.498,0.953
		C134.89,115.236,134.707,114.949,134.547,114.783z M134.166,114.365l0.494-1.01l0.334,0.352l-0.513,1.047
		C134.481,114.754,134.328,114.529,134.166,114.365z M133.764,113.923l0.482-1.04l0.338,0.393l-0.491,1.002
		C134.093,114.277,133.924,114.079,133.764,113.923z M133.391,113.454l0.454-1.024l0.351,0.424l-0.48,0.975
		C133.715,113.828,133.549,113.621,133.391,113.454z M132.955,113.039l0.494-1.02l0.332,0.356l-0.476,0.979
		C133.306,113.355,133.117,113.201,132.955,113.039z M132.549,112.591l0.486-1.036l0.338,0.389l-0.496,1.012
		C132.877,112.955,132.712,112.747,132.549,112.591z M132.096,112.189l0.512-1.041l0.333,0.352l-0.491,1.004
		C132.449,112.504,132.259,112.354,132.096,112.189z M131.674,111.743l0.455-1.058l0.357,0.357l-0.468,1.021
		C132.019,112.064,131.842,111.88,131.674,111.743z M131.203,111.383l0.481-1.063l0.353,0.313l-0.465,1.027
		C131.572,111.66,131.371,111.525,131.203,111.383z M130.781,110.887l0.457-1.061l0.356,0.359l-0.465,1.021
		C131.13,111.207,130.953,111.021,130.781,110.887z M130.679,110.8c0,0-0.198-0.134-0.368-0.274l0.482-1.064l0.351,0.314
		L130.679,110.8z"/>
</g>
<g>
	<path fill="#323B49" d="M99.193,106.492c0-0.244,0.166-0.441,0.373-0.441l0,0c0.207,0,0.374,0.197,0.374,0.441v0.287
		c0,0.244-0.168,0.441-0.374,0.441l0,0c-0.207,0-0.373-0.197-0.373-0.441V106.492z"/>
	<path fill="#323B49" d="M93.205,102.984c0-0.243,0.166-0.441,0.373-0.441l0,0c0.207,0,0.373,0.198,0.373,0.441v0.285
		c0,0.244-0.166,0.441-0.373,0.441l0,0c-0.207,0-0.373-0.197-0.373-0.441V102.984z"/>
	<path fill="#323B49" d="M95.521,107.076c0-0.243,0.166-0.441,0.373-0.441l0,0c0.207,0,0.373,0.198,0.373,0.441v0.288
		c0,0.243-0.166,0.442-0.373,0.442l0,0c-0.207,0-0.373-0.199-0.373-0.442V107.076z"/>
	<path fill="#323B49" d="M88.821,104.072c0-0.244,0.166-0.439,0.373-0.439l0,0c0.207,0,0.373,0.195,0.373,0.439v0.285
		c0,0.244-0.166,0.44-0.373,0.44l0,0c-0.207,0-0.373-0.196-0.373-0.44V104.072z"/>
	<path fill="#323B49" d="M87.513,99.667c0-0.246,0.167-0.442,0.372-0.442l0,0c0.206,0,0.372,0.196,0.372,0.442v0.285
		c0,0.244-0.166,0.442-0.372,0.442l0,0c-0.205,0-0.372-0.198-0.372-0.442V99.667z"/>
	<path fill="#323B49" d="M83.229,100.252c0-0.243,0.166-0.442,0.372-0.442l0,0c0.207,0,0.373,0.199,0.373,0.442v0.285
		c0,0.246-0.166,0.441-0.373,0.441l0,0c-0.206,0-0.372-0.195-0.372-0.441V100.252z"/>
	<path fill="#323B49" d="M81.72,96.359c0-0.244,0.164-0.442,0.373-0.442l0,0c0.206,0,0.372,0.198,0.372,0.442v0.285
		c0,0.246-0.166,0.442-0.372,0.442l0,0c-0.209,0-0.373-0.196-0.373-0.442V96.359z"/>
	<path fill="#323B49" d="M77.975,97.53c0-0.244,0.166-0.442,0.372-0.442l0,0c0.209,0,0.375,0.198,0.375,0.442v0.285
		c0,0.243-0.166,0.44-0.375,0.44l0,0c-0.206,0-0.372-0.196-0.372-0.44V97.53z"/>
	<path fill="#323B49" d="M76.097,92.872c0-0.243,0.162-0.44,0.373-0.44l0,0c0.205,0,0.371,0.197,0.371,0.44v0.287
		c0,0.244-0.166,0.443-0.371,0.443l0,0c-0.211,0-0.373-0.199-0.373-0.443V92.872z"/>
	<path fill="#323B49" d="M72.448,94.312c0-0.244,0.166-0.44,0.373-0.44l0,0c0.201,0,0.371,0.196,0.371,0.44v0.287
		c0,0.243-0.17,0.44-0.371,0.44l0,0c-0.207,0-0.373-0.197-0.373-0.44V94.312z"/>
	<path fill="#323B49" d="M70.224,89.355c0-0.245,0.164-0.441,0.371-0.441l0,0c0.207,0,0.373,0.198,0.373,0.441v0.287
		c0,0.244-0.166,0.442-0.373,0.442l0,0c-0.207,0-0.371-0.198-0.371-0.442V89.355z"/>
	<path fill="#323B49" d="M66.595,91.21c0-0.243,0.166-0.442,0.371-0.442l0,0c0.209,0,0.375,0.199,0.375,0.442v0.285
		c0,0.244-0.166,0.442-0.375,0.442l0,0c-0.205,0-0.371-0.198-0.371-0.442V91.21z"/>
	<path fill="#323B49" d="M64.399,85.934c0-0.244,0.166-0.442,0.373-0.442l0,0c0.207,0,0.371,0.2,0.371,0.442v0.287
		c0,0.245-0.164,0.441-0.371,0.441l0,0c-0.207,0-0.373-0.198-0.373-0.441V85.934z"/>
</g>
<g>
	<rect x="127.649" y="110.318" fill="#4C5B70" width="1.101" height="1.658"/>
	<ellipse fill="#323B49" cx="128.199" cy="112.245" rx="0.816" ry="0.392"/>
	<ellipse fill="#323B49" cx="128.199" cy="110.318" rx="0.816" ry="0.393"/>
</g>
<g>
	<rect x="122.175" y="113.008" fill="#4C5B70" width="1.103" height="1.658"/>
	<ellipse fill="#323B49" cx="122.725" cy="114.938" rx="0.816" ry="0.393"/>
	<ellipse fill="#323B49" cx="122.725" cy="113.007" rx="0.816" ry="0.392"/>
</g>
<ellipse fill="#4C5B70" cx="128.199" cy="112.04" rx="0.551" ry="0.206"/>
<ellipse fill="#DDDDDD" cx="118.772" cy="102.855" rx="0.38" ry="0.38"/>
<ellipse fill="#DDDDDD" cx="111.91" cy="105.918" rx="0.379" ry="0.379"/>
<path fill="#515151" d="M132.187,118.674h0.33l-0.117-0.507l2.998-1.562v0.643h0.246c0.06-3.119-1.989-10.064-1.989-10.064
	C132.033,109.814,132.185,118.678,132.187,118.674z M133.873,108.666l-0.625,0.115c0,0,0.229-0.768,0.39-1.025
	C133.638,107.756,133.871,108.207,133.873,108.666z M134.246,110.32l-1.297,0.256c0,0,0.092-0.76,0.299-1.587l0.619-0.116
	C133.867,108.873,134.168,109.725,134.246,110.32z M134.68,112.471l-2.05,0.829c0,0,0.114-1.741,0.253-2.407l1.422-0.318
	C134.305,110.574,134.556,111.221,134.68,112.471z M132.424,117.893l-0.003-1.81l2.774-1.353l-0.005-0.063h0.136l-0.129,0.063
	l0.129,1.718L132.424,117.893L132.424,117.893z M132.584,113.511l2.135-0.874c0,0,0.288,0.901,0.365,1.842l-2.66,1.328
	C132.424,115.807,132.375,114.313,132.584,113.511z"/>
<polygon fill="#515251" points="134.922,105.377 134.902,106.41 132.055,107.895 131.986,107.168 131.643,107.146 131.688,108.131 
	131.849,108.316 135.268,106.549 135.268,105.504 "/>
<polygon fill="#515251" points="132.592,105.377 132.609,106.41 134.789,107.895 134.841,107.168 135.105,107.146 135.07,108.131 
	134.947,108.316 132.328,106.549 132.328,105.504 "/>
<g>
	<g>
		<g>
			<path fill="#8795A0" d="M72.458,81.926l0.07-0.045l0.129-0.089l0.405-0.277L73.2,81.31l0.19-0.281l0.09-0.128l0.019-0.033
				l0.43-0.642l0.117-0.168l0.494-0.739l-0.045,1.218l0.317-0.218l0.045-0.032l-0.04-11.54l-0.156,0.121l-0.015,0.382l-0.045,1.037
				l-0.937,1.714l-0.121,0.225l-0.149,0.27l0.021-0.469l0.016-0.372l0.072-1.896l-0.213,0.159l-0.002,0.062l-0.814,11.873
				L72.458,81.926z M73.044,79.197l0.016-0.31l0.014-0.232l0.015-0.209l0.026-0.55l0.672-0.31l0.326-0.151l0.479-0.222l-0.298,0.454
				l-0.206,0.315l-0.435,0.658l-0.121,0.188l-0.227,0.348l-0.119,0.184l-0.156,0.238L73.044,79.197z M74.618,75.65l-0.012,0.462
				l-0.008,0.221l-0.012,0.412l-0.006,0.282l-0.594,0.242l-0.334,0.135l-0.505,0.206l0.291-0.495l0.183-0.313l0.242-0.406
				l0.178-0.302l0.24-0.404l0.166-0.28l0.18-0.309L74.618,75.65z M74.616,73.368l-0.021,0.455l-0.008,0.227l-0.015,0.33v0.016
				l-0.617,0.321l-0.299,0.157l-0.348,0.184l0.213-0.36l0.197-0.323l0.223-0.372l0.146-0.247l0.221-0.366l0.146-0.245l0.174-0.293
				L74.616,73.368z M73.251,75.506l0.607-0.364l0.277-0.167l0.447-0.267l-0.293,0.483l-0.172,0.283L73.8,75.992l-0.18,0.29
				l-0.178,0.291l-0.187,0.303l-0.123,0.202l0.026-0.337l0.033-0.489l0.016-0.17l0.025-0.334L73.251,75.506z M73.421,73.211
				l0.518-0.391l0.197-0.147l0.486-0.368l-0.332,0.597l-0.137,0.247l-0.269,0.483l-0.142,0.252l-0.162,0.292l-0.192,0.342
				l-0.099,0.179l0.025-0.278l0.045-0.553l0.019-0.198l0.024-0.317L73.421,73.211z M74.629,70.589l-0.031,1.424l-0.61,0.456
				l-0.189,0.141l-0.369,0.276l0.242-0.467l0.123-0.234L74.629,70.589z M72.833,81.548l0.051-0.623l0.025-0.312l0.03-0.398
				l0.623-0.427l0.166-0.117l0.521-0.357l-0.566,0.3l-0.186,0.097l-0.568,0.301l0.363-0.543l0.121-0.18l0.271-0.407l0.131-0.191
				l0.384-0.575l0.213-0.315l0.158-0.238l-0.017,0.423l-0.026,0.577l-0.011,0.296l0.004-0.001v0.003l-0.008,0.074l-0.008,0.24
				l-0.029,0.015l-0.231,0.124l-0.354,0.555l-0.112,0.177l-0.47,0.742l-0.01,0.013L73.26,80.86l-0.188,0.294L72.833,81.548z"/>
			<polygon fill="none" points="76.942,78.929 77.325,79.297 77.548,78.959 77.517,78.646 			"/>
			<polygon fill="none" points="76.054,79.454 77.026,79.753 77.22,79.458 76.753,79.023 76.051,79.365 			"/>
			<polygon fill="none" points="76.483,72.536 76.577,72.365 75.62,71.216 75.684,72.175 			"/>
			<polygon fill="none" points="76.067,79.673 76.682,80.279 76.956,79.854 76.056,79.486 			"/>
			<polygon fill="none" points="76.51,80.542 76.089,80.147 76.136,81.112 			"/>
			<polygon fill="none" points="77.606,79.563 77.577,79.263 77.466,79.432 			"/>
			<polygon fill="none" points="77.782,79.983 77.358,79.589 77.213,79.809 			"/>
			<polygon fill="none" points="77.278,80.869 77.653,80.661 77.827,80.567 77.773,80.189 77.132,79.926 76.809,80.411 			"/>
			<polygon fill="none" points="76.35,72.793 75.706,72.505 75.739,73.011 76.044,73.356 			"/>
			<polygon fill="none" points="77.968,81.549 77.872,80.89 77.643,81.231 			"/>
			<polygon fill="none" points="74.116,77.435 74.296,77.667 74.591,77.213 			"/>
			<polygon fill="none" points="75.571,79.307 75.532,77.88 75.448,77.797 75.482,79.279 			"/>
			<polygon fill="none" points="73.065,78.888 73.306,79.176 73.532,78.829 73.079,78.655 			"/>
			<polygon fill="none" points="74.448,75.411 74.612,75.65 74.628,75.102 			"/>
			<polygon fill="none" points="75.528,77.581 75.521,77.323 75.431,77.3 75.437,77.493 			"/>
			<polygon fill="none" points="73.651,77.406 73.44,77.116 73.151,77.61 			"/>
			<polygon fill="none" points="73.089,78.446 73.653,78.64 74.089,77.983 73.79,77.586 73.116,77.896 			"/>
			<polygon fill="none" points="75.362,71.207 75.518,71.088 74.972,70.432 75.001,71.018 75.276,71.182 75.3,72.002 75.381,72.04 
							"/>
			<polygon fill="none" points="76.071,78.383 75.979,78.296 75.982,78.529 			"/>
			<polygon fill="none" points="75.879,73.668 75.776,73.56 75.796,73.827 			"/>
			<polygon fill="none" points="73.187,79.358 73.048,79.198 73.03,79.598 			"/>
			<polygon fill="none" points="75.952,76.007 75.907,75.963 75.911,76.081 			"/>
			<polygon fill="none" points="76.314,75.878 76.558,76.128 77.233,75.761 77.182,75.378 76.708,75.211 			"/>
			<polygon fill="none" points="76.435,75.117 75.901,74.928 75.905,75.459 76.124,75.685 			"/>
			<polygon fill="none" points="75.95,76.907 75.954,77.213 76.684,77.376 76.899,77.019 76.483,76.581 			"/>
			<polygon fill="none" points="74.585,76.745 73.864,76.398 73.624,76.804 73.987,77.271 74.577,77.029 			"/>
			<polygon fill="none" points="77.382,77.533 77.118,77.253 77.007,77.45 			"/>
			<polygon fill="none" points="76.565,78.848 76.321,78.619 76.06,79.071 			"/>
			<path fill="none" d="M77.104,74.551v0.003V74.551z"/>
			<polygon fill="none" points="77.019,81.015 76.64,80.663 76.042,81.55 			"/>
			<polygon fill="none" points="76.429,78.439 76.763,78.759 77.499,78.434 77.44,77.824 76.872,77.677 			"/>
			<polygon fill="none" points="77.079,74.924 76.952,74.798 76.909,74.874 			"/>
			<polygon fill="none" points="76.229,76.307 76.126,76.195 75.979,76.447 			"/>
			<polygon fill="none" points="76.551,77.594 75.958,77.438 75.972,78.003 76.178,78.203 			"/>
			<polygon fill="none" points="76.894,72.305 76.886,72.225 76.864,72.272 			"/>
			<polygon fill="none" points="77.274,81.258 77.073,81.065 76.077,81.757 76.093,83.129 			"/>
			<polygon fill="none" points="76.856,72.701 76.724,72.544 76.685,72.624 			"/>
			<polygon fill="none" points="77.425,81.02 77.653,80.661 77.309,80.899 			"/>
			<polygon fill="none" points="76.62,74.004 76.879,74.301 77.022,74.028 76.983,73.729 			"/>
			<polygon fill="none" points="75.897,74.546 75.897,74.569 76.616,74.787 76.735,74.565 76.374,74.187 			"/>
			<polygon fill="none" points="76.806,76.384 77.104,76.687 77.309,76.347 77.274,76.098 			"/>
			<polygon fill="none" points="76.883,73.035 76.551,72.886 76.215,73.545 76.433,73.796 76.938,73.419 			"/>
			<polygon fill="none" points="76.182,73.985 76.058,73.857 75.876,74.212 			"/>
			<polygon fill="none" points="77.39,76.985 77.374,76.826 77.317,76.914 			"/>
			<polygon fill="none" points="73.548,72.231 73.415,72.033 73.399,72.5 			"/>
			<polygon fill="none" points="73.142,80.716 73.255,80.86 73.294,80.799 			"/>
			<polygon fill="none" points="74.13,72.673 74.288,72.899 74.618,72.305 			"/>
			<polygon fill="none" points="73.935,72.82 73.415,73.211 73.403,73.351 73.884,73.632 74.149,73.148 			"/>
			<polygon fill="none" points="72.872,80.924 72.823,81.543 73.071,81.154 			"/>
			<polygon fill="none" points="73.798,72.608 73.669,72.417 73.425,72.884 			"/>
			<polygon fill="none" points="75.518,77.114 75.474,75.5 75.385,75.404 75.425,77.095 			"/>
			<polygon fill="none" points="73.743,73.886 73.378,73.668 73.36,73.866 73.581,74.176 			"/>
			<polygon fill="none" points="73.142,80.716 73.304,80.786 73.776,80.045 73.554,79.785 72.931,80.213 72.897,80.611 			"/>
			<polygon fill="none" points="73.671,79.614 74.237,79.313 74.472,79.189 73.675,78.884 73.403,79.292 			"/>
			<polygon fill="none" points="73.392,74.52 73.315,74.419 73.29,74.699 			"/>
			<polygon fill="none" points="73.487,79.711 73.284,79.472 72.921,80.013 			"/>
			<polygon fill="none" points="73.806,78.693 74.507,78.935 74.515,78.861 74.515,78.855 74.511,78.857 74.521,78.563 
				74.188,78.118 			"/>
			<polygon fill="none" points="73.72,79.67 73.884,79.868 74.237,79.313 			"/>
			<polygon fill="none" points="74.628,70.587 73.794,72.185 73.987,72.467 74.599,72.011 			"/>
			<polygon fill="none" points="74.401,77.801 74.548,77.986 74.562,77.563 			"/>
			<polygon fill="none" points="73.864,75.14 73.253,75.506 73.233,75.748 73.802,75.991 74.116,75.474 			"/>
			<polygon fill="none" points="74.577,74.382 73.942,74.004 73.72,74.376 73.96,74.72 74.573,74.397 			"/>
			<polygon fill="none" points="75.448,74.434 75.411,73.179 75.325,73.088 75.358,74.407 			"/>
			<polygon fill="none" points="74.595,73.825 74.312,73.39 74.089,73.758 74.587,74.052 			"/>
			<polygon fill="none" points="75.397,72.62 75.392,72.361 75.304,72.323 75.312,72.52 			"/>
			<polygon fill="none" points="74.603,76.112 74.282,75.691 74.042,76.096 74.595,76.333 			"/>
			<polygon fill="none" points="75.458,75.001 75.454,74.773 75.366,74.741 75.374,74.911 			"/>
			<polygon fill="none" points="73.255,76.876 73.163,76.741 73.134,77.078 			"/>
			<polygon fill="none" points="74.456,73.145 74.614,73.372 74.63,72.852 			"/>
			<polygon fill="none" points="73.661,74.877 73.526,74.699 73.312,75.059 			"/>
			<polygon fill="none" points="74.817,80.416 74.817,80.327 74.499,80.544 74.544,79.328 74.05,80.064 74.929,81.114 
				74.933,80.461 			"/>
			<polygon fill="none" points="74.138,74.973 74.288,75.191 74.585,74.708 			"/>
			<polygon fill="none" points="73.62,76.283 73.21,76.083 73.194,76.252 73.444,76.573 			"/>
			<polygon fill="none" points="75.032,81.753 73.487,80.905 73.399,81.035 75.089,83.129 			"/>
			<polygon fill="none" points="75.06,81.55 73.935,80.232 73.507,80.875 			"/>
			<polygon fill="#617990" points="73.671,79.614 73.403,79.292 73.284,79.472 73.487,79.711 			"/>
			<polygon fill="#617990" points="73.548,72.231 73.669,72.006 73.429,71.658 73.415,72.033 			"/>
			<polygon fill="#617990" points="74.603,76.112 74.612,75.65 74.448,75.411 74.282,75.691 			"/>
			<polygon fill="#617990" points="72.665,81.802 72.536,81.891 72.663,81.959 			"/>
			<polygon fill="#617990" points="73.554,79.785 73.776,80.045 73.884,79.868 73.72,79.67 			"/>
			<polygon fill="#617990" points="73.079,78.655 73.532,78.829 73.653,78.64 73.089,78.446 			"/>
			<polygon fill="#617990" points="73.802,75.991 73.233,75.748 73.21,76.083 73.62,76.283 			"/>
			<polygon fill="#617990" points="73.79,77.586 74.089,77.983 74.296,77.667 74.116,77.435 			"/>
			<polygon fill="#617990" points="73.675,78.884 74.472,79.189 74.503,79.174 74.507,78.935 73.806,78.693 			"/>
			<polygon fill="#617990" points="73.987,77.271 73.624,76.804 73.44,77.116 73.651,77.406 			"/>
			<polygon fill="#617990" points="73.935,72.82 74.149,73.148 74.288,72.899 74.13,72.673 			"/>
			<polygon fill="#617990" points="73.065,78.888 73.048,79.198 73.187,79.358 73.306,79.176 			"/>
			<polygon fill="#617990" points="72.474,81.853 73.286,69.983 73.079,69.856 72.138,81.668 			"/>
			<polygon fill="#617990" points="74.595,76.333 74.042,76.096 73.864,76.398 74.585,76.745 			"/>
			<polygon fill="#617990" points="73.987,72.467 73.794,72.185 73.669,72.417 73.798,72.608 			"/>
			<polygon fill="#617990" points="73.142,80.716 73.294,80.799 73.304,80.786 			"/>
			<polygon fill="#617990" points="73.444,76.573 73.194,76.252 73.163,76.741 73.255,76.876 			"/>
			<polygon fill="#617990" points="73.884,73.632 73.403,73.351 73.378,73.668 73.743,73.886 			"/>
			<polygon fill="#617990" points="73.581,74.176 73.36,73.866 73.315,74.419 73.392,74.52 			"/>
			<polygon fill="#617990" points="74.587,74.052 74.089,73.758 73.942,74.004 74.577,74.382 			"/>
			<polygon fill="#617990" points="72.872,80.924 73.071,81.154 73.255,80.86 73.142,80.716 72.897,80.611 			"/>
			<polygon fill="#617990" points="73.399,81.035 73.21,81.319 74.718,83.079 75.591,83.56 75.487,79.589 75.581,79.673 
				75.571,79.307 75.482,79.279 75.448,77.797 75.532,77.88 75.528,77.581 75.437,77.493 75.431,77.3 75.521,77.323 75.518,77.114 
				75.425,77.095 75.385,75.404 75.474,75.5 75.458,75.001 75.374,74.911 75.366,74.741 75.454,74.773 75.448,74.434 75.358,74.407 
				75.325,73.088 75.411,73.179 75.397,72.62 75.312,72.52 75.304,72.323 75.392,72.361 75.381,72.04 75.3,72.002 75.276,71.182 
				75.001,71.018 74.972,70.432 75.518,71.088 75.614,71.018 75.62,71.216 76.577,72.365 76.717,72.102 75.001,70.126 
				74.882,68.673 74.634,68.563 74.651,69.257 74.665,68.874 74.819,68.752 74.862,80.295 74.817,80.327 74.817,80.416 
				74.933,80.461 74.929,81.114 74.05,80.064 73.935,80.232 75.06,81.55 73.507,80.875 73.487,80.905 75.032,81.753 75.089,83.129 
							"/>
			<polygon fill="#617990" points="73.864,75.14 74.116,75.474 74.288,75.191 74.138,74.973 			"/>
			<polygon fill="#617990" points="73.96,74.72 73.72,74.376 73.526,74.699 73.661,74.877 			"/>
			<polygon fill="#617990" points="74.188,78.118 74.521,78.563 74.548,77.986 74.401,77.801 			"/>
			<polygon fill="#617990" points="74.595,73.825 74.614,73.372 74.456,73.145 74.312,73.39 			"/>
			<polygon fill="#617990" points="76.753,79.023 77.22,79.458 77.325,79.297 76.942,78.929 			"/>
			<polygon fill="#617990" points="77.278,80.869 76.809,80.411 76.64,80.663 77.019,81.015 			"/>
			<polygon fill="#617990" points="77.773,80.189 77.827,80.567 77.972,80.485 77.948,80.164 77.95,80.162 77.948,80.164 
				77.864,78.837 77.577,79.263 77.606,79.563 77.466,79.432 77.358,79.589 77.782,79.983 77.213,79.809 77.132,79.926 			"/>
			<polygon fill="#617990" points="77.517,78.646 77.548,78.959 77.866,78.475 			"/>
			<polygon fill="#617990" points="76.433,73.796 76.215,73.545 76.058,73.857 76.182,73.985 			"/>
			<polygon fill="#617990" points="77.149,71.71 76.886,72.225 76.894,72.305 76.864,72.272 76.724,72.544 76.856,72.701 
				76.685,72.624 76.551,72.886 76.883,73.035 76.938,73.419 77.274,73.168 			"/>
			<polygon fill="#617990" points="77.425,81.02 77.309,80.899 77.073,81.065 77.274,81.258 			"/>
			<polygon fill="#617990" points="76.067,79.673 76.089,80.147 76.51,80.542 76.682,80.279 			"/>
			<polygon fill="#617990" points="76.056,79.486 76.956,79.854 77.026,79.753 76.054,79.454 			"/>
			<polygon fill="#617990" points="76.684,77.376 75.954,77.213 75.958,77.438 76.551,77.594 			"/>
			<polygon fill="#617990" points="76.178,78.203 75.972,78.003 75.979,78.296 76.071,78.383 			"/>
			<polygon fill="#617990" points="76.044,73.356 75.739,73.011 75.776,73.56 75.879,73.668 			"/>
			<polygon fill="#617990" points="76.124,75.685 75.905,75.459 75.907,75.963 75.952,76.007 			"/>
			<polygon fill="#617990" points="77.182,75.378 77.233,75.761 77.517,75.604 77.413,74.023 77.104,74.551 77.104,74.554 
				77.104,74.554 76.952,74.798 77.079,74.924 76.909,74.874 76.708,75.211 			"/>
			<polygon fill="#617990" points="76.314,75.878 76.126,76.195 76.229,76.307 76.558,76.128 			"/>
			<polygon fill="#617990" points="77.44,77.824 77.499,78.434 77.823,78.289 77.665,76.317 77.374,76.826 77.39,76.985 
				77.317,76.914 77.118,77.253 77.382,77.533 77.007,77.45 76.872,77.677 			"/>
			<polygon fill="#617990" points="76.429,78.439 76.321,78.619 76.565,78.848 76.763,78.759 			"/>
			<polygon fill="#617990" points="78.483,81.638 78.237,81.808 78.517,81.925 			"/>
			<polygon fill="#617990" points="77.274,76.098 77.309,76.347 77.569,75.917 			"/>
			<polygon fill="#617990" points="76.483,76.581 76.899,77.019 77.104,76.687 76.806,76.384 			"/>
			<polygon fill="#617990" points="76.374,74.187 76.735,74.565 76.879,74.301 76.62,74.004 			"/>
			<polygon fill="#617990" points="76.983,73.729 77.022,74.028 77.337,73.462 			"/>
			<polygon fill="#617990" points="77.643,81.231 77.491,81.457 77.579,81.543 78.118,81.759 78.04,80.636 77.872,80.89 
				77.968,81.549 			"/>
			<polygon fill="#617990" points="76.999,69.958 77.034,69.93 77.003,69.646 76.68,69.499 76.86,71.843 77.083,71.417 			"/>
			<polygon fill="#617990" points="76.616,74.787 75.897,74.569 75.901,74.928 76.435,75.117 			"/>
			<polygon fill="#617990" points="76.483,72.536 75.684,72.175 75.706,72.505 76.35,72.793 			"/>
			<path fill="#8795A0" d="M75.571,79.305l0.01,0.367l0.101,3.898l0.729-0.506l1.078-1.609l0.154-0.227l0.227-0.341l0.17-0.251
				l0.072,1.123l0.012,0.126l0.111-0.079l0.245-0.17l0.082-0.057l-1.377-11.767l-0.149,0.115l-0.039,0.029l0.086,1.456l-0.226,0.429
				l-0.14,0.26l-0.141,0.265l-0.094,0.169l-0.138,0.257l-0.302,0.564l-0.166,0.312l-0.086,0.159l-0.021-0.267l-0.034-0.552
				l-0.035-0.505l-0.022-0.329l-0.063-0.959l-0.011-0.198l-0.096,0.07l-0.156,0.121l0.026,0.833l0.007,0.319l0.008,0.263
				l0.015,0.555l0.035,1.254l0.006,0.339l0.008,0.23l0.016,0.498l0.04,1.613l0.007,0.209l0.004,0.257l0.008,0.302L75.571,79.305z
				 M75.954,77.21l-0.002-0.307l0.535-0.328l0.321-0.196l0.47-0.285l0.291-0.18l-0.261,0.429l-0.204,0.34l-0.205,0.334l-0.215,0.355
				l-0.131,0.216l-0.37,0.611l-0.108,0.182l-0.093,0.146l-0.004-0.232l-0.007-0.293l-0.014-0.564L75.954,77.21z M76.325,78.62
				l0.107-0.179l0.441-0.764l0.134-0.227l0.114-0.197l0.199-0.341l0.053-0.087l0.291-0.509l0.162,1.972l-0.328,0.145l-0.734,0.326
				l-0.195,0.089l-0.51,0.223L76.325,78.62z M76.124,76.198l0.19-0.317l0.396-0.666l0.199-0.339l0.043-0.077l0.148-0.244v-0.002
				l0.313-0.527l0.104,1.579l-0.283,0.157l-0.676,0.367l-0.324,0.179l-0.255,0.139L76.124,76.198z M75.898,74.568v-0.023
				l0.478-0.359l0.246-0.183l0.363-0.275l0.354-0.267l-0.311,0.566l-0.147,0.272l-0.144,0.265l-0.121,0.221l-0.181,0.331
				l-0.312,0.571l-0.172,0.323l-0.039,0.072l-0.006-0.117l-0.002-0.506l-0.004-0.531L75.898,74.568z M77.149,71.709l0.125,1.458
				l-0.336,0.251l-0.506,0.377l-0.251,0.188l-0.306,0.229l0.182-0.357l0.155-0.308l0.338-0.661l0.133-0.262l0.04-0.08l0.141-0.272
				l0.021-0.047L77.149,71.709z M77.657,80.658l-0.371,0.208l-0.264,0.146l-0.974,0.538l0.595-0.885l0.169-0.253l0.323-0.482
				l0.081-0.119l0.149-0.221l0.104-0.157l0.112-0.167l0.283-0.428l0.086,1.327h0.002l-0.002,0.002l0.021,0.32l-0.145,0.082
				l-0.174,0.094l-0.226,0.355l-0.151,0.24l-1.185,1.869l-0.015-1.372l0.994-0.692l0.235-0.164L77.657,80.658z M76.092,80.143
				l-0.024-0.474l-0.013-0.188l-0.002-0.032l-0.003-0.088l0.701-0.342l0.188-0.092l0.579-0.283l0.348-0.169l-0.319,0.484
				l-0.22,0.338l-0.106,0.16l-0.194,0.293l-0.07,0.104l-0.274,0.425l-0.172,0.263l-0.374,0.57L76.092,80.143z"/>
		</g>
		<polygon fill="#898989" points="74.634,68.563 77.344,69.711 75.366,71.316 72.825,70.048 		"/>
	</g>
	<g>
		<polygon fill="#232323" points="77.145,68.671 76.012,69.58 77.661,70.429 76.802,70.847 75.083,70.098 71.456,71.993 
			70.845,71.747 73.968,69.637 72.343,68.646 72.954,68.335 75.007,69.191 75.329,68.967 78.044,67.03 78.708,67.17 		"/>
		<polygon fill="#4B5E6D" points="77.112,68.525 75.978,69.414 77.657,70.351 76.809,70.751 75.042,69.918 71.399,71.771 
			70.79,71.535 73.927,69.471 72.304,68.507 72.913,68.205 74.972,69.034 75.296,68.815 78.019,66.922 78.683,67.058 		"/>
		
			<rect x="77.668" y="65.755" transform="matrix(0.9962 -0.0871 0.0871 0.9962 -5.5051 7.033)" fill="#232323" width="0.297" height="1.653"/>
		
			<rect x="72.567" y="66.949" transform="matrix(0.9963 -0.0861 0.0861 0.9963 -5.562 6.5132)" fill="#232323" width="0.318" height="1.576"/>
		
			<rect x="76.851" y="68.68" transform="matrix(0.9963 -0.0862 0.0862 0.9963 -5.7093 6.9001)" fill="#232323" width="0.357" height="1.736"/>
		
			<rect x="70.956" y="69.96" transform="matrix(0.9968 -0.0803 0.0803 0.9968 -5.4535 5.9383)" fill="#232323" width="0.322" height="1.649"/>
	</g>
	<polygon fill="#494949" points="74.751,64.129 75.269,64.142 75.165,69.27 74.651,69.257 	"/>
	<polygon fill="#494949" points="74.411,62.993 75.544,63.022 75.521,64.149 74.386,64.12 	"/>
</g>
<polygon fill="#515251" points="133.246,103.691 133.246,104.26 133.517,104.26 133.517,107.35 133.715,107.35 133.82,104.26 
	134.281,104.26 134.281,103.691 "/>
<polygon fill="#494949" points="105.55,89.62 105.55,91.132 104.492,91.805 104.527,91.958 105.55,91.319 105.55,92.893 
	105.869,92.893 105.822,91.302 107.096,92.235 107.229,92.164 105.822,90.947 105.822,89.744 "/>
<circle fill="#BFBFBF" cx="105.55" cy="88.285" r="1.879"/>
<ellipse fill="#617990" cx="93.597" cy="82.14" rx="4.555" ry="4.356"/>
<ellipse fill="#E5E5E5" cx="92.261" cy="79.9" rx="0.985" ry="0.868"/>
<ellipse fill="#E5E5E5" cx="99.175" cy="85.195" rx="0.777" ry="0.777"/>
<ellipse fill="#617990" cx="100.212" cy="86.64" rx="3.551" ry="3.396"/>
<ellipse fill="#E5E5E5" cx="99.175" cy="85.341" rx="0.985" ry="0.869"/>
<path fill="#B2B2B2" d="M69.28,80.618l15.918,9.496l0.062-1.437l-15.901-9.478L69.28,80.618z M84.716,88.489l0.363,0.215
	l-0.053,1.204l-0.363-0.218L84.716,88.489z M84.185,88.178l0.363,0.225L84.497,89.6l-0.363-0.213L84.185,88.178z M83.646,87.84
	l0.365,0.221l-0.048,1.201l-0.365-0.221L83.646,87.84z M83.118,87.538l0.365,0.213l-0.049,1.204l-0.365-0.216L83.118,87.538z
	 M82.62,87.235l0.365,0.218l-0.049,1.204l-0.365-0.218L82.62,87.235z M82.089,86.928l0.365,0.218l-0.051,1.207l-0.367-0.224
	L82.089,86.928z M81.571,86.605l0.365,0.225l-0.051,1.203l-0.365-0.22L81.571,86.605z M81.044,86.303l0.363,0.219l-0.049,1.203
	l-0.367-0.218L81.044,86.303z M80.506,85.962l0.36,0.217l-0.052,1.204l-0.36-0.216L80.506,85.962z M79.975,85.656l0.368,0.22
	L80.29,87.08l-0.367-0.223L79.975,85.656z M79.476,85.356l0.362,0.221l-0.048,1.201l-0.363-0.221L79.476,85.356z M78.948,85.048
	l0.365,0.219l-0.049,1.204l-0.369-0.218L78.948,85.048z M78.417,84.739l0.367,0.22l-0.051,1.202l-0.367-0.222L78.417,84.739z
	 M77.886,84.432l0.365,0.217L78.2,85.856l-0.363-0.219L77.886,84.432z M77.348,84.09l0.365,0.217l-0.048,1.206l-0.369-0.221
	L77.348,84.09z M76.819,83.786l0.365,0.219l-0.047,1.201l-0.369-0.217L76.819,83.786z M76.321,83.482l0.365,0.221l-0.047,1.202
	l-0.367-0.218L76.321,83.482z M75.792,83.179l0.367,0.219L76.108,84.6l-0.367-0.22L75.792,83.179z M75.269,82.842l0.365,0.218
	l-0.049,1.208l-0.367-0.224L75.269,82.842z M74.747,82.538l0.359,0.22l-0.051,1.202l-0.365-0.222L74.747,82.538z M74.2,82.193
	l0.365,0.219l-0.051,1.204l-0.361-0.221L74.2,82.193z M73.673,81.889l0.365,0.219l-0.051,1.205l-0.365-0.222L73.673,81.889z
	 M73.175,81.589l0.363,0.219l-0.051,1.202l-0.365-0.22L73.175,81.589z M72.646,81.282l0.363,0.22l-0.051,1.2l-0.365-0.218
	L72.646,81.282z M72.11,80.976l0.363,0.218l-0.049,1.204l-0.365-0.222L72.11,80.976z M71.577,80.668l0.367,0.219l-0.053,1.203
	l-0.363-0.219L71.577,80.668z M71.042,80.32l0.363,0.224l-0.049,1.199l-0.365-0.217L71.042,80.32z M70.511,80.018l0.369,0.22
	l-0.051,1.2l-0.369-0.22L70.511,80.018z M70.009,79.717l0.371,0.221l-0.051,1.201l-0.367-0.22L70.009,79.717z M69.481,79.411
	l0.369,0.219l-0.053,1.201l-0.365-0.217L69.481,79.411z"/>
<path fill="#898989" d="M83.975,89.944l18.541,10.757v-1.756L83.993,88.212L83.975,89.944z M101.888,98.739l0.427,0.252v1.468
	l-0.427-0.248V98.739z M101.271,98.397l0.429,0.248v1.469l-0.429-0.249V98.397z M100.642,98.005l0.427,0.251v1.467l-0.427-0.251
	V98.005z M100.023,97.661l0.429,0.249v1.468l-0.429-0.248V97.661z M99.448,97.32l0.425,0.25v1.468l-0.425-0.247V97.32z
	 M98.832,96.973l0.428,0.252v1.469l-0.428-0.251V96.973z M98.227,96.614l0.424,0.25v1.469l-0.424-0.249V96.614z M97.609,96.268
	l0.43,0.25v1.467l-0.43-0.247V96.268z M96.979,95.879l0.428,0.249v1.47l-0.428-0.251V95.879z M96.366,95.534l0.43,0.249v1.468
	l-0.43-0.248V95.534z M95.784,95.191l0.426,0.249v1.47l-0.426-0.247V95.191z M95.167,94.846l0.428,0.252v1.467l-0.428-0.249V94.846z
	 M94.552,94.496l0.428,0.25v1.467l-0.428-0.247V94.496z M93.936,94.15l0.428,0.25v1.468l-0.428-0.249V94.15z M93.308,95.229v-1.468
	l0.424,0.247v1.47L93.308,95.229L93.308,95.229z M92.692,93.414l0.428,0.251v1.468l-0.428-0.25V93.414z M92.11,93.074l0.428,0.252
	v1.467l-0.428-0.249V93.074z M91.497,92.73l0.424,0.249v1.468l-0.424-0.249V92.73z M90.885,92.346l0.428,0.249v1.47l-0.428-0.251
	V92.346z M90.269,92.001l0.428,0.249v1.468l-0.428-0.246V92.001z M89.642,91.61l0.426,0.251v1.47l-0.426-0.252V91.61z
	 M89.024,91.267l0.426,0.25v1.468l-0.426-0.249V91.267z M88.442,90.926l0.428,0.248v1.469l-0.428-0.249V90.926z M87.825,90.579
	l0.431,0.249v1.47l-0.431-0.25V90.579z M87.204,90.233l0.426,0.245v1.472l-0.426-0.25V90.233z M86.585,89.884l0.43,0.25v1.469
	l-0.43-0.249V89.884z M85.958,89.494l0.429,0.25v1.467l-0.429-0.245V89.494z M85.343,89.149l0.428,0.249v1.469l-0.428-0.249V89.149z
	 M84.76,88.808l0.428,0.249v1.469l-0.428-0.25V88.808z M84.146,88.461l0.43,0.249v1.468l-0.43-0.25V88.461z"/>
<path fill="none" stroke="#515151" stroke-width="0.2" stroke-miterlimit="10" d="M74.964,63.572
	c6.055,5.067,11.093-1.969,11.093-1.969c23.268,31.618,47.764,42.657,47.764,42.657"/>
<path fill="#3A3A3A" d="M117.416,119.085l-0.594-0.071l0.068,3.398c0.482,0.137,0.803-0.232,0.803-0.232l-0.32-0.273l0.757-0.645
	l0.435,1.264l-0.389-0.207c-0.576,0.873-1.607,0.645-1.607,0.645c-0.806-0.302-1.563-2.389-1.563-2.389l-0.321-0.022l0.252-1.011
	l0.78,1.059h-0.459c0.391,1.19,1.056,1.489,1.056,1.489l0.07-3.188l-0.577-0.254l0.828-0.871l0.689,1.125L117.416,119.085z"/>
</svg>
