<?xml version="1.0" encoding="utf-8"?>
<!-- Generator: Adobe Illustrator 16.0.0, SVG Export Plug-In . SVG Version: 6.00 Build 0)  -->
<!DOCTYPE svg PUBLIC "-//W3C//DTD SVG 1.1//EN" "http://www.w3.org/Graphics/SVG/1.1/DTD/svg11.dtd">
<svg version="1.1" id="Layer_1" xmlns="http://www.w3.org/2000/svg" xmlns:xlink="http://www.w3.org/1999/xlink" x="0px" y="0px"
	 width="100px" height="100px" viewBox="0 0 100 100" enable-background="new 0 0 100 100" xml:space="preserve">

	  <style type="text/css">
	  .arrow{fill:{{statusColor}};display:{{arrowDisplay}}}
	  .hourglass{fill:{{hourglassColor}};display:{{hourglassDisplay}}}
    .parking{display:{{parkingDisplay}};fill:{{parkingColor}}}
	 </style>
	}

<g transform="translate({{translateX}},0) scale({{scaleX}},1)">
	<g>
		<g id="Tire_2_1_">
			<path d="M46.774,70.58c0,0-2.824-0.445-4.464-2.906c0,0-1.06-4.23,2.907-5.627c0,0,3.252,0.158,4.842,2.037
				C51.738,66.365,46.774,70.58,46.774,70.58z"/>
			<path fill="#333333" d="M50.249,68.123c-0.797,1.916-2.646,2.832-3.996,2.34c-1.353-0.49-1.814-2.5-0.846-4.379
				c0.795-1.914,2.645-2.832,3.997-2.338C50.752,64.24,51.176,66.428,50.249,68.123z"/>
			<path fill="#999999" d="M49.161,64.834c-1.004-0.416-2.25,0.256-2.925,1.629c-0.673,1.369-0.262,2.797,0.741,3.209
				c1.004,0.416,2.251-0.254,2.922-1.627C50.399,66.635,50.163,65.248,49.161,64.834z M49.206,67.889
				c-0.336,0.687-0.939,0.935-1.289,0.854c-0.521-0.117-0.533-0.884-0.236-1.388c0.296-0.504,0.939-0.934,1.287-0.854
				C49.316,66.58,49.542,67.205,49.206,67.889z"/>
			<path fill="#FFFFFF" d="M47.43,65.207c0,0,0.48,0.299,0.709,0.922l-0.215,0.141c0,0-0.36-0.84-0.707-0.918L47.43,65.207z"/>
		</g>
		<g id="Tire_2_2_">
			<path d="M64.51,62.191c0,0-2.822-0.443-4.463-2.904c0,0-1.061-4.232,2.906-5.629c0,0,3.254,0.16,4.842,2.039
				C69.477,57.979,64.51,62.191,64.51,62.191z"/>
			<path fill="#333333" d="M67.986,59.736c-0.797,1.916-2.646,2.83-3.998,2.338c-1.354-0.492-1.814-2.5-0.844-4.377
				c0.795-1.914,2.645-2.832,3.996-2.338C68.49,55.854,68.914,58.041,67.986,59.736z"/>
			<path fill="#999999" d="M66.896,56.445c-1.002-0.416-2.25,0.256-2.924,1.629c-0.675,1.371-0.263,2.797,0.741,3.211
				c1.004,0.416,2.25-0.256,2.923-1.627C68.137,58.248,67.9,56.861,66.896,56.445z M66.941,59.502
				c-0.336,0.688-0.939,0.934-1.287,0.855c-0.521-0.117-0.533-0.883-0.238-1.387c0.297-0.507,0.941-0.937,1.289-0.855
				C67.053,58.195,67.279,58.816,66.941,59.502z"/>
			<path fill="#FFFFFF" d="M65.168,56.818c0,0,0.48,0.301,0.707,0.922l-0.213,0.141c0,0-0.361-0.84-0.709-0.918L65.168,56.818z"/>
		</g>
		<g id="Tire_2_3_">
			<path d="M72.563,58.574c0,0-2.821-0.443-4.463-2.904c0,0-1.063-4.232,2.906-5.629c0,0,3.252,0.16,4.84,2.039
				C77.527,54.361,72.563,58.574,72.563,58.574z"/>
			<path fill="#333333" d="M76.037,56.119c-0.797,1.916-2.645,2.83-3.996,2.338s-1.814-2.5-0.846-4.377
				c0.795-1.914,2.645-2.832,3.996-2.338C76.541,52.236,76.965,54.422,76.037,56.119z"/>
			<path fill="#999999" d="M74.947,52.828c-1.002-0.416-2.25,0.256-2.924,1.629c-0.672,1.371-0.265,2.797,0.742,3.211
				c1.004,0.416,2.252-0.256,2.922-1.627C76.189,54.629,75.951,53.244,74.947,52.828z M74.992,55.883
				c-0.336,0.688-0.939,0.934-1.287,0.854c-0.52-0.114-0.533-0.883-0.236-1.387s0.939-0.934,1.287-0.854
				C75.105,54.576,75.33,55.199,74.992,55.883z"/>
			<path fill="#FFFFFF" d="M73.219,53.201c0,0,0.48,0.301,0.709,0.922l-0.215,0.143c0,0-0.359-0.842-0.709-0.918L73.219,53.201z"/>
		</g>
		<path fill="#515151" d="M77.545,30.448l0.008,0.599c0,0-1.039,1.174-0.82,3.237l-0.229,3.587l-3.521,0.382
			c0,0-5.344-7.188-5.778-9.281l0.344-0.906l1.599-0.813l1.487-0.188l1.746,0.188l2.563,1.029l2.604,2.033"/>
		<path fill="#5B5B5B" d="M67.701,30.035l-0.5-1.063v-1c0,0,1.844-1.25,3.219-1.094c0,0,1.406-0.094,2.563,0.438
			c0,0,4.347,1.938,4.563,3c0,0,0.313,0.719-2.719,1.719l-0.531-0.22c0,0,2.938-1.029,2.438-1.78c0,0-4.279-3.438-6.904-2.751
			l-2.033,0.875l-0.125,0.906l0.584,0.792L67.701,30.035z"/>
		<path fill="#666666" d="M78.107,40.034c0,0,0.156,1.854-2.219,0.74l-4-3.271l0.362-0.64c0,0,0.949,1.327,2.229,0.577l1.271-0.577
			l0.748,1.008L78.107,40.034z"/>
		<g>
			<polygon fill="#6B6B6B" points="76.295,47.814 76.295,49.273 54.9,59.314 53.836,56.293 75.045,46.94 			"/>
			<path fill="#515151" d="M67.953,29.825l-4.594,2l-0.219,5.927l0.77-0.333L63.734,43.7l0.176,0.219h0.387v-0.667l2.25-1.021v0.313
				l0.344,0.094l0.188-0.125l0.258-6.587l0.617-0.209l0.25-5.734L67.953,29.825z M66.578,41.961l-2.313,0.989v-2.437l2.526-1.095
				L66.578,41.961z M66.797,39.2l-2.531,1.156l0.156-2.875l2.531-1.087L66.797,39.2z M67.672,35.45l-4.031,1.844l0.271-5.188
				l3.947-1.781L67.672,35.45z"/>
			<g>
				<g>
					<polygon fill="#CECECE" points="49.452,59.025 77.545,46.273 67.629,40.773 38.707,52.479 					"/>
					<path fill="#B7B7B7" d="M55.012,39.495v-0.78c0,0,2.441-3.867,5.717-5.194l8.438-2.823c0,0,3.658,1.333,4.224,4.867
						L68.01,41.71c0,0-2.627,2.652-7.281,3.273c0,0-1.438-0.08-2.176-0.675C58.553,44.308,55.145,41.233,55.012,39.495z"/>
					<path fill="#A0A0A0" d="M73.004,34.149c-3.125-4.166-5.582-2.984-5.582-2.984c0-0.484,0.666-1.099,0.666-1.099
						c3.125-0.375,5.646,2.712,5.646,2.712c1.854,2.246,1.854,6.205,1.854,6.205l-3.125,7l-3.375,1.875l-0.916-0.707v-1.083
						l-2.5-1.417l1.281-1.406l2.469,1.406l4.521-5.737C73.941,38.913,74.254,35.816,73.004,34.149z"/>
					<path fill="#EAEAEA" d="M73.17,33.94c-3.125-4.166-5.584-2.984-5.584-2.984c0-0.484,0.668-1.099,0.668-1.099
						c3.125-0.375,5.645,2.712,5.645,2.712c1.855,2.246,1.855,6.205,1.855,6.205l-3.127,7l-3.373,1.875l-0.918-0.708v-1.083
						l-2.5-1.417l1.281-1.406l2.469,1.406l4.521-5.737C74.107,38.703,74.42,35.607,73.17,33.94z"/>
					<path fill="#A8A8A8" d="M51.424,41.804v-0.922c0,0,2.889-4.576,6.762-6.146l9.478-3.689c0,0,4.651,1.372,5.319,5.553
						l-6.18,7.825c0,0-3.104,3.138-8.617,3.872c0,0-1.703-0.094-2.572-0.799C55.613,47.498,51.578,43.862,51.424,41.804z"/>
					<path fill="#898989" d="M45.362,44.379v-1.15c0,0-0.109-6.164,11.027-9.789l9.863-2.044c0,0,5.166,1.275,6,6.492l-7.709,9.76
						c0,0-3.875,3.915-10.75,4.831c0,0-2.125-0.119-3.207-0.996C50.586,51.482,45.555,46.946,45.362,44.379z"/>
					<path fill="#EAEAEA" d="M40.118,44.22c0,0,0.635-1.531,2.344-1.114l9.375,4.917c0,0,0.713,1.668,0.563,2.959l-0.563,0.5
						l-1.043-0.25l-0.5,0.25l-1,0.207l-9.177-6.792L40.118,44.22L40.118,44.22z"/>
					<polygon fill="#303030" points="41.311,43.753 48.711,47.814 50.295,47.018 42.836,43.034 					"/>
				</g>
				<polygon fill="#A0A0A0" points="48.795,57.148 54.727,54.314 49.146,51.482 				"/>
			</g>
			<path fill="#7A7A7A" d="M69.295,56.1l0.813-0.16l0.688,0.08c0,0,0.25-4.049,3.222-4.768c0,0,2.528-1.031,2.875,2.102l0.653-0.11
				c0,0,0.781-4.053-3.469-4.303c0,0-3.063-0.313-5.095,2.625l-2.748,1.185L69.295,56.1z"/>
			<path fill="#6B6B6B" d="M59.545,60.686l1,0.479h0.5l0.48-0.336c0,0,1.188-4.478,4.395-5.685c0,0,2.166-0.834,2.646,1.082
				l0.563-0.229v-0.188c0,0-0.27-2.355-2.895-3.064c0,0-3.834-0.895-6.689,3.916C59.545,56.664,58.816,58.416,59.545,60.686z"/>
			<polygon fill="#727272" points="49.295,60.211 77.545,47.361 77.545,46.273 48.795,59.314 			"/>
			<path fill="#636363" d="M49.924,59.926c0,0,1.48,1.768,4.162,0.564l4.916-2.174c0,0,0.834-0.633,0.834-0.838v3.012
				c0,0-2.957,1.869-6.625,3.076c0,0-2.291,0.543-4.416-1.75l-0.125-2.088L49.924,59.926z"/>
			<path fill="#6B6B6B" d="M41.639,68.502l1.197,0.5c0,0,0.475,0.314,1.092,0c0,0,0.805-4.594,4.867-5.938
				c0,0,2.469-0.719,2.125,2.688l0.594-0.145c0,0,0.631-4.918-2.105-5.105C49.407,60.502,43.014,59.877,41.639,68.502z"/>
			<path fill="#A0A0A0" d="M49.924,59.926c0,0,1.664,1.879,4.162,0.564l4.916-2.174c0,0,2.355-1.004-0.666-2.221L49.924,59.926z"/>
			<polygon fill="#BCBCBC" points="52.035,58.965 54.086,60.492 54.086,63.264 54.9,62.953 54.9,60.133 52.686,58.67 			"/>
			<polygon fill="#BCBCBC" points="57.777,58.861 55.709,57.295 56.395,56.982 58.529,58.529 58.529,61.273 57.672,61.693 			"/>
			<path fill="#515151" d="M76.295,32.846l-4.594,2l-0.219,5.927l0.77-0.333l-0.176,6.281l0.176,0.219h0.387v-0.667l2.25-1.021
				v0.313l0.344,0.094l0.188-0.125l0.259-6.587l0.616-0.21l0.25-5.734L76.295,32.846z M74.92,44.982l-2.313,0.989v-2.438
				l2.526-1.095L74.92,44.982z M75.139,42.221l-2.531,1.156l0.156-2.875l2.531-1.087L75.139,42.221z M76.014,38.471l-4.031,1.844
				l0.271-5.188l3.947-1.781L76.014,38.471z"/>
		</g>
		<g id="Body">
			<path fill="#C4C4C4" d="M35.805,42.355l-7.917,3.583l-1.25,1.667c0,0-1.469,1.021-1.167,2.25l0.833,0.667l-0.979,3
				c0,0-0.604,2.25-0.521,3.416l-0.008,6.168v1.25l10.168,5.424l2.838,0.451c0,0,3.501-1.041,5.001-2.209
				c0,0,0.582-6.166,6.582-6.916l0.334-10.918l-0.334-1l-12.128-6.5L35.805,42.355z"/>
			<path fill="#FFFFFF" d="M24.704,57.148l-0.159,2.166l1.292,1.959c0,0,1,0.791,1.458,1.416l5.167,2.918h3.875l2.958-2.168
				l-1.083-0.625l-3.833,0.709l-2.125-2.146l-4.083-2.063l-2.376-0.375L24.704,57.148z"/>
			<polygon fill="#4C4C4C" points="26.212,59.314 26.212,61.586 27.295,62.689 32.462,65.607 33.878,65.607 33.878,63.607 
				31.92,61.648 28.087,59.732 			"/>
			<path fill="#161616" d="M26.212,50.168l-0.822,3.75c0,0-0.084,1.328,0.327,2.912l8.828,4.547l4.156-1.578
				c0,0-0.115-1.85,0.594-2.016l1.234-3.094C40.529,54.689,29.295,53.002,26.212,50.168z"/>
			<path fill="#424656" d="M26.212,50.064l-0.822,3.75c0,0,0,1.334,0.411,2.918l8.744,4.541l4.083-1.584c0,0-0.167-1.834,0.542-2
				l1.25-3C40.42,54.689,29.295,52.898,26.212,50.064z"/>
			<polygon fill="#161616" points="40.686,58.398 41.644,53.939 48.752,50.689 49.186,50.857 48.936,54.814 40.686,59.424 			"/>
			<path fill="#4C4C4C" d="M27.044,46.94c0,0-2.64,2.125-1.457,3.083l0.875,0.792l9.125,4.834l1.579,0.375h1.837l1.417-1.834
				l-2.042-0.082l-0.625-0.084l-10.833-6C26.92,48.023,26.668,47.814,27.044,46.94z"/>
			<polygon fill="#424656" points="40.795,58.398 41.752,53.939 48.752,50.689 49.295,50.857 49.045,54.814 40.795,59.314 			"/>
			<polyline fill="#686868" points="42.836,58.982 42.836,59.732 45.252,58.357 45.252,57.482 42.836,58.857 			"/>
			<polygon fill="#AAAAAA" points="24.712,56.938 25.878,58.814 25.731,61.113 24.704,59.555 			"/>
			<polygon fill="#AAAAAA" points="34.378,63.523 34.378,65.607 36.253,65.607 36.253,63.176 			"/>
			<ellipse fill="#EDEDED" cx="35.412" cy="64.58" rx="0.742" ry="0.672"/>
			<polygon fill="#353535" points="26.233,59.461 33.842,63.721 33.878,64.127 26.212,59.732 			"/>
			<polygon fill="#353535" points="26.233,60.211 33.878,64.408 33.878,64.844 26.212,60.484 			"/>
			<polygon fill="#353535" points="26.201,61.119 33.878,65.252 33.878,65.607 26.212,61.486 			"/>
			<path fill="#EDEDED" d="M29.639,63.408c-0.514-0.137-0.744-0.682-0.608-1.191c0.136-0.514,0.606-0.666,1.12-0.527
				c0.514,0.138,0.82,0.662,0.684,1.175C30.698,63.373,30.152,63.543,29.639,63.408z"/>
			<path fill="#EDEDED" d="M24.863,58.443c0,0-0.238,1.164,0.492,1.289c0,0,0.432-0.086,0.193-0.765
				C25.548,58.969,25.31,58.006,24.863,58.443z"/>
			<polygon fill="#353535" points="24.706,61.002 26.587,62.877 25.62,62.877 24.704,62.174 			"/>
			<path fill="#353535" d="M33.399,66.564l0.729,0.729l2.125,0.75l0.913-0.334c0,0-1.934-1.188-3.871-1.145"/>
			<path fill="#707070" d="M24.704,62.877l0.862,0.896c0,0,1.708,0.188,2.313,0.354c0,0,3.854,1.98,4.563,2.439l1.625,1.688
				c0,0,1.708,0.834,2.938,0.543c0,0,1.479-0.459,1.667-0.625c0,0,3.004-1.809,4.693-2.287c0,0-0.519,1.535-0.558,2.141
				c0,0-2.936,2.201-5.639,2.209c0,0-1.746,0.111-4.892-1.723c0,0-6.883-3.404-7.571-4.154L24.704,62.877L24.704,62.877z"/>
			<polygon opacity="0.6" fill="#FFFFFF" enable-background="new    " points="38.014,65.607 37.858,68.043 38.608,67.783 
				38.826,65.252 			"/>
			<polygon opacity="0.6" fill="#FFFFFF" enable-background="new    " points="37.858,60.471 37.858,62.545 38.342,62.461 
				38.342,60.211 			"/>
			<polygon fill="#FFFFFF" points="27.42,65.076 31.42,67.035 31.42,68.035 27.42,65.975 			"/>
			<path fill="#C9C9C9" d="M38.524,68.418c0,0-0.105,1.389-0.183,1.543c0,0,0.349-0.021,0.484-0.063c0,0,0.344-1.623,0.219-1.854
				C39.045,68.043,38.649,68.398,38.524,68.418z"/>
		</g>
		<polygon fill="#777777" points="41.42,43.69 48.711,47.648 50.17,46.94 42.836,43.034 		"/>
		<path opacity="0.6" fill="#E5E5E5" enable-background="new    " d="M28.114,51.689c0,0-1.201,4.553-0.869,5.793l0.869,0.451
			c0,0-0.745-1.673,0.156-6.16L28.114,51.689z"/>
		<polygon opacity="0.5" fill="#E5E5E5" enable-background="new    " points="44.045,52.875 43.228,57.988 44.045,57.482 
			44.627,52.605 		"/>
	</g>
	<g display="none">
		<path id="smoke_2" display="inline" fill="#666766" d="M66.838,48.515c0.199,0.299-0.301,0.599-0.301,0.599c0.5,0.602,0,1,0,1
			c-0.199,0.301-0.898,0-0.898,0c-0.199,0.602-0.801,0.5-0.801,0.5c-0.699,0-0.602-0.6-0.602-0.6c-0.604-0.101-0.5-0.5-0.5-0.5
			c0-0.3,0.602-0.3,0.602-0.3c-0.699-0.301-0.5-0.801-0.5-0.801c0.199-0.6,1-0.199,1-0.199c0.699-0.601,1.199,0.199,1.199,0.199
			C66.338,47.914,66.838,48.515,66.838,48.515z		">
<animateTransform  type="translate" fill="remove" attributeName="transform" dur="1" calcMode="linear" restart="always" values="0,0;2,-2" begin="0s" additive="replace" repeatCount="indefinite" accumulate="none" attributeType="XML">
				</animateTransform>
			
				<animate  fill="remove" to="0" attributeName="opacity" dur="1" calcMode="linear" restart="always" begin="0.5s" additive="replace" repeatCount="indefinite" accumulate="none" from="1">
				</animate>
		</path>
		<path id="smoke_1" display="inline" fill="#999999" d="M65.539,49.414c0.102,0.199-0.199,0.4-0.199,0.4c0.301,0.399,0,0.6,0,0.6
			c-0.102,0.199-0.5,0-0.5,0c-0.102,0.4-0.5,0.301-0.5,0.301c-0.4,0-0.4-0.4-0.4-0.4c-0.396-0.1-0.299-0.301-0.299-0.301
			c0-0.199,0.299-0.199,0.299-0.199c-0.5-0.2-0.299-0.5-0.299-0.5c0.104-0.399,0.604-0.1,0.604-0.1c0.396-0.301,0.694,0.1,0.694,0.1
			C65.238,49.113,65.539,49.414,65.539,49.414z		">
<animateTransform  type="translate" fill="remove" attributeName="transform" dur="0.5" calcMode="linear" restart="always" values="0,0;1,-1" begin="0s" additive="replace" repeatCount="indefinite" accumulate="none" attributeType="XML">
				</animateTransform>
			
				<animate  fill="remove" to="0" attributeName="opacity" dur="1" calcMode="linear" restart="always" begin="0.5s" additive="replace" repeatCount="indefinite" accumulate="none" from="1">
				</animate>
		</path>
	</g>
	
		<image display="none" overflow="visible" enable-background="new    " width="91" height="90" xlink:href="../../../../../References/ambulansya.jpg"  transform="matrix(0.4888 0 0 0.4888 29.5938 34.5625)">
	</image>
	
		<animateTransform  type="translate" fill="remove" attributeName="transform" dur="1" calcMode="linear" restart="always" values="0,0;0.1,0.1;0,0" begin="0s" additive="replace" repeatCount="indefinite" accumulate="none" attributeType="XML">
		</animateTransform>
	
		<animateTransform  type="translate" fill="remove" attributeName="transform" dur="1" calcMode="linear" restart="always" values="0,0;0.1,0.1;0,0" begin="0s" additive="replace" repeatCount="indefinite" accumulate="none" attributeType="XML">
		</animateTransform>
	<g id="Direction">
		<g transform="rotate({{angle}} 50 50)">
			<polygon id="arrow" class="arrow" opacity="0.7" enable-background="new    " points="59.7,31.4 50.8,24 41.9,31.3 41.9,35.4 42,35.4 
				50.8,28.1 59.3,35.4 59.7,35.4 			">
			
				<animate  fill="remove" attributeName="opacity" dur="0.5s" calcMode="linear" restart="always" values="0.5; 0" begin="0s;anim_arrow3.end" additive="replace" accumulate="none" id="anim_arrow1">
				</animate>
			</polygon>
			<polygon id="arrow2" class="arrow" opacity="0.7" enable-background="new    " points="59.8,26.4 50.9,19 42,26.4 42,30.4 42.1,30.4 50.9,23.2 
				59.4,30.4 59.8,30.4 			">
			
				<animate  fill="remove" attributeName="opacity" dur="0.5s" calcMode="linear" restart="always" values="0.5; 0" begin="anim_arrow1.end" additive="replace" accumulate="none" id="anim_arrow2">
				</animate>
			</polygon>
			<polygon id="arrow3" class="arrow" opacity="0.7" enable-background="new    " points="59.9,21.4 51,14.1 42.1,21.4 42.1,25.5 42.2,25.5 
				51,18.2 59.5,25.5 59.9,25.5 			">
			
				<animate  fill="remove" attributeName="opacity" dur="0.5s" calcMode="linear" restart="always" values="0.5; 0" begin="anim_arrow2.end" additive="replace" accumulate="none" id="anim_arrow3">
				</animate>
			</polygon>
		</g>
	</g>
	<path id="parking" class="parking" d="M53.154,17.552l-9.925,0.146l-4.863,8.393l5.061,8.247l9.925-0.146l4.863-8.393L53.154,17.552z
		 M49.126,30.557c-0.078,0.056-0.208,0.083-0.39,0.083h-0.21H45.77h-0.16c-0.148,0-0.263-0.031-0.344-0.093
		c-0.08-0.062-0.12-0.15-0.12-0.265c0-0.188,0.082-0.313,0.247-0.372c0.136-0.05,0.216-0.081,0.238-0.093
		c0.022-0.011,0.046-0.037,0.071-0.079c0.049-0.073,0.074-0.189,0.074-0.351v-6.885c0-0.16-0.025-0.277-0.074-0.351
		c-0.025-0.041-0.049-0.067-0.071-0.079c-0.022-0.012-0.103-0.042-0.238-0.093c-0.165-0.06-0.247-0.184-0.247-0.371
		c0-0.115,0.04-0.203,0.12-0.266c0.081-0.062,0.195-0.093,0.344-0.093h0.16h2.751v8.082c0,0.179,0.03,0.307,0.092,0.385
		c0.033,0.046,0.064,0.075,0.093,0.086c0.029,0.012,0.124,0.04,0.285,0.086c0.197,0.051,0.296,0.177,0.296,0.379
		C49.286,30.388,49.232,30.483,49.126,30.557z M52.02,25.805c-0.279,0.444-0.672,0.772-1.176,0.983
		c-0.416,0.17-1.016,0.255-1.799,0.255v-0.736c0.178-0.046,0.303-0.094,0.374-0.145c0.072-0.051,0.136-0.128,0.188-0.233
		c0.087-0.18,0.13-0.42,0.13-0.723v-2.201c0-0.215-0.014-0.376-0.043-0.481c-0.029-0.105-0.087-0.201-0.173-0.289
		c-0.12-0.128-0.28-0.208-0.482-0.24v-0.743c0.849,0,1.477,0.09,1.879,0.269c0.466,0.206,0.834,0.522,1.105,0.949
		c0.275,0.437,0.414,0.97,0.414,1.604C52.438,24.777,52.299,25.355,52.02,25.805z"/>
</g>
<path id="Idle" class="hourglass" d="M52.981,17.539l-9.926,0.173l-4.841,8.392l5.084,8.247l9.901-0.146l4.863-8.433L52.981,17.539z M49.377,30.516
	l-2.625,0.005c0,0-0.5,0.019-0.516-0.293c0,0-0.031-0.281,0.375-0.391c0,0,0.234,0.016,0.25-0.453l-0.031-5.906
	c0,0,0.047-0.266-0.359-0.344c0,0-0.268-0.109-0.235-0.391c0,0,0.11-0.172,0.329-0.25h3.125c0,0,0.328,0.031,0.344,0.281
	c0,0,0.031,0.313-0.313,0.359c0,0-0.359,0.109-0.266,0.656l-0.031,5.641c0,0,0.031,0.422,0.328,0.438c0,0,0.361,0.063,0.282,0.484
	C50.034,30.353,49.939,30.555,49.377,30.516z"/>
</svg>
