<?xml version="1.0" encoding="utf-8"?>
<!-- Generator: Adobe Illustrator 16.0.0, SVG Export Plug-In . SVG Version: 6.00 Build 0)  -->
<!DOCTYPE svg PUBLIC "-//W3C//DTD SVG 1.1//EN" "http://www.w3.org/Graphics/SVG/1.1/DTD/svg11.dtd">
<svg version="1.1" id="Layer_1" xmlns="http://www.w3.org/2000/svg" xmlns:xlink="http://www.w3.org/1999/xlink" x="0px" y="0px"
	 width="200px" height="200px" viewBox="0 0 200 200" enable-background="new 0 0 200 200" xml:space="preserve">
<g id="Tire_Mid">
	<path fill="#16151A" d="M84.419,119.088c-0.669,2.275-2.809,4.418-4.681,4.684c-1.873,0.4-2.944-1.205-2.142-3.479
		c0.803-2.281,2.811-4.42,4.683-4.684C84.019,115.344,85.088,116.949,84.419,119.088z"/>
	<path fill="#131433" d="M84.686,119.494c-0.669,2.271-2.809,4.414-4.683,4.678c-1.873,0.402-2.809-1.203-2.14-3.479
		c0.668-2.275,2.809-4.418,4.681-4.684C84.419,115.613,85.355,117.215,84.686,119.494z"/>
	<path fill="#16151A" d="M85.355,119.758c-0.669,2.275-2.809,4.414-4.681,4.684c-1.874,0.4-2.944-1.203-2.141-3.479
		c0.669-2.275,2.81-4.418,4.683-4.688C84.955,116.01,86.024,117.486,85.355,119.758z"/>
	<path fill="#131433" d="M85.624,120.023c-0.669,2.275-2.81,4.418-4.683,4.688c-1.872,0.4-2.811-1.205-2.141-3.484
		c0.669-2.275,2.81-4.41,4.681-4.678C85.355,116.279,86.293,117.885,85.624,120.023z"/>
	<path fill="#16151A" d="M86.16,120.293c-0.669,2.273-2.81,4.418-4.683,4.682c-1.874,0.402-2.943-1.203-2.141-3.479
		c0.667-2.275,2.808-4.414,4.681-4.68C85.891,116.549,86.83,118.018,86.16,120.293z"/>
	<path fill="#131433" d="M86.427,120.561c-0.667,2.275-2.81,4.414-4.681,4.684c-1.874,0.4-2.81-1.203-2.141-3.479
		c0.669-2.271,2.811-4.42,4.683-4.684C86.16,116.816,87.097,118.418,86.427,120.561z"/>
	<path fill="#16151A" d="M86.56,120.826c-0.669,2.275-2.676,4.285-4.549,4.688c-1.872,0.268-2.808-1.205-2.139-3.48
		c0.669-2.277,2.677-4.281,4.547-4.688C86.293,116.949,87.23,118.551,86.56,120.826z"/>
	<path fill="#131433" d="M86.16,120.963c-0.536,1.873-2.274,3.611-3.746,3.879c-1.473,0.27-2.275-1.07-1.74-2.945
		c0.534-1.873,2.273-3.607,3.745-3.879C85.891,117.885,86.693,119.088,86.16,120.963z"/>
	<path fill="#CECCCC" d="M85.491,120.963c-0.402,1.473-1.741,2.949-3.077,3.213c-1.206,0.27-1.875-0.801-1.473-2.275
		c0.402-1.467,1.739-2.941,3.078-3.213C85.357,118.418,86.024,119.494,85.491,120.963z"/>
	<path fill="#989798" d="M84.955,120.963c-0.4,1.203-1.472,2.412-2.409,2.543c-1.069,0.135-1.472-0.67-1.203-1.873
		c0.4-1.209,1.471-2.412,2.406-2.545C84.822,118.955,85.355,119.758,84.955,120.963z"/>
	<path fill="#CECCCC" d="M84.419,121.094c-0.267,0.939-1.069,1.742-1.873,1.871c-0.669,0.137-1.069-0.529-0.803-1.332
		c0.265-0.939,1.067-1.742,1.873-1.875C84.286,119.621,84.686,120.293,84.419,121.094z"/>
	<g id="Tire_Mid_Hole">
		<path fill="#020202" d="M83.617,121.227c-0.133,0.27-0.267,0.539-0.536,0.539c-0.27,0-0.4-0.133-0.267-0.398
			c0.133-0.268,0.267-0.537,0.536-0.537C83.617,120.693,83.617,120.963,83.617,121.227z"/>
		<path fill="#020202" d="M83.35,120.293c0,0.131-0.134,0.268-0.267,0.268s-0.133,0-0.133-0.137c0-0.131,0.133-0.26,0.267-0.26
			C83.35,120.023,83.483,120.164,83.35,120.293z"/>
		<path fill="#020202" d="M84.286,120.424c0,0.137-0.134,0.27-0.267,0.27s-0.133-0.133-0.133-0.27c0-0.131,0.133-0.26,0.267-0.26
			C84.286,120.164,84.286,120.293,84.286,120.424z"/>
		<path fill="#020202" d="M84.286,121.363c0,0.137-0.134,0.27-0.267,0.27s-0.133-0.137-0.133-0.27c0-0.137,0.133-0.27,0.267-0.27
			C84.286,121.094,84.286,121.227,84.286,121.363z"/>
		<path fill="#020202" d="M83.35,122.299c0,0.133-0.134,0.268-0.267,0.268s-0.133-0.133-0.133-0.268
			c0-0.137,0.133-0.266,0.267-0.266C83.35,122.033,83.483,122.033,83.35,122.299z"/>
		<path fill="#020202" d="M82.414,122.166c0,0.133-0.137,0.27-0.27,0.27s-0.133-0.137-0.133-0.27s0.133-0.27,0.267-0.27
			C82.414,121.896,82.546,122.033,82.414,122.166z"/>
		<path fill="#020202" d="M82.546,121.227c0,0.137-0.132,0.27-0.269,0.27c-0.133,0-0.133-0.133-0.133-0.27
			c0-0.133,0.133-0.264,0.27-0.264C82.546,120.963,82.546,121.094,82.546,121.227z"/>
	</g>
	
		<animateTransform  type="translate" fill="remove" attributeType="XML" accumulate="none" repeatCount="indefinite" additive="replace" begin="0s" values="0,0;0.1,0.1;0,0" restart="always" calcMode="linear" dur="1" attributeName="transform">
		</animateTransform>
</g>
<g id="Tire_Mid_1_">
	<path fill="#16151A" d="M127.233,94.206c-0.668,2.274-2.809,4.414-4.683,4.681c-1.875,0.4-2.943-1.201-2.146-3.478
		c0.668-2.275,2.812-4.414,4.689-4.681C126.965,90.458,127.901,91.93,127.233,94.206z"/>
	<path fill="#131433" d="M127.637,94.472c-0.668,2.274-2.815,4.414-4.686,4.682c-1.874,0.399-2.811-1.207-2.141-3.479
		c0.664-2.275,2.812-4.414,4.681-4.681C127.37,90.728,128.307,92.331,127.637,94.472z"/>
	<path fill="#16151A" d="M128.168,94.875c-0.666,2.274-2.805,4.414-4.681,4.682c-1.874,0.399-2.945-1.203-2.141-3.479
		c0.666-2.275,2.811-4.415,4.685-4.681C127.901,90.994,128.975,92.599,128.168,94.875z"/>
	<path fill="#131433" d="M128.569,95.142c-0.668,2.274-2.807,4.415-4.683,4.68c-1.87,0.4-2.81-1.202-2.139-3.478
		c0.664-2.274,2.807-4.414,4.683-4.681C128.307,91.263,129.239,92.864,128.569,95.142z"/>
	<path fill="#16151A" d="M128.975,95.408c-0.664,2.277-2.813,4.414-4.685,4.685c-1.874,0.398-2.943-1.207-2.146-3.48
		c0.671-2.274,2.815-4.417,4.686-4.683C128.71,91.53,129.773,93.133,128.975,95.408z"/>
	<path fill="#131433" d="M129.376,95.677c-0.666,2.271-2.811,4.416-4.685,4.684c-1.872,0.399-2.81-1.205-2.141-3.479
		c0.666-2.274,2.813-4.416,4.683-4.683C129.105,91.932,130.042,93.4,129.376,95.677z"/>
	<path fill="#16151A" d="M129.509,95.811c-0.668,2.275-2.675,4.283-4.545,4.681c-1.876,0.266-2.811-1.205-2.145-3.479
		c0.668-2.274,2.681-4.28,4.551-4.683C129.239,92.063,130.177,93.668,129.509,95.811z"/>
	<path fill="#131433" d="M129.105,96.078c-0.536,1.871-2.271,3.613-3.746,3.878c-1.473,0.267-2.275-1.071-1.737-2.944
		c0.529-1.872,2.275-3.613,3.748-3.88C128.836,92.864,129.646,94.206,129.105,96.078z"/>
	<path fill="#CECCCC" d="M128.441,96.078c-0.399,1.469-1.742,2.946-3.078,3.211c-1.201,0.268-1.876-0.805-1.473-2.277
		c0.399-1.467,1.737-2.941,3.078-3.209C128.307,93.535,128.836,94.472,128.441,96.078z"/>
	<path fill="#989798" d="M127.901,96.078c-0.399,1.203-1.467,2.408-2.405,2.542c-1.071,0.134-1.473-0.671-1.206-1.873
		c0.401-1.205,1.473-2.41,2.409-2.544C127.637,93.936,128.168,94.875,127.901,96.078z"/>
	<path fill="#CECCCC" d="M127.37,96.211c-0.27,0.936-1.071,1.736-1.874,1.875c-0.671,0.134-1.071-0.539-0.805-1.339
		c0.269-0.936,1.071-1.741,1.874-1.874C127.233,94.739,127.637,95.275,127.37,96.211z"/>
	<g id="Tire_Mid_Hole_1_">
		<path fill="#020202" d="M126.565,96.344c-0.135,0.267-0.267,0.536-0.534,0.536c-0.269,0-0.403-0.133-0.269-0.4
			c0.135-0.267,0.269-0.536,0.536-0.536C126.431,95.811,126.565,95.944,126.565,96.344z"/>
		<path fill="#020202" d="M126.299,95.408c0,0.133-0.137,0.267-0.268,0.267c-0.134,0-0.134-0.134-0.134-0.267
			s0.134-0.267,0.265-0.267C126.299,95.142,126.299,95.275,126.299,95.408z"/>
		<path fill="#020202" d="M127.233,95.408c0,0.133-0.135,0.267-0.269,0.267c-0.135,0-0.135-0.134-0.135-0.267
			s0.135-0.267,0.267-0.267C127.101,95.142,127.233,95.275,127.233,95.408z"/>
		<path fill="#020202" d="M127.101,96.479c0,0.134-0.132,0.267-0.267,0.267s-0.135-0.133-0.135-0.267
			c0-0.133,0.135-0.267,0.27-0.267C127.101,96.211,127.233,96.344,127.101,96.479z"/>
		<path fill="#020202" d="M126.299,97.281c0,0.137-0.137,0.266-0.268,0.266c-0.134,0-0.134-0.131-0.134-0.266
			c0-0.132,0.134-0.265,0.265-0.265C126.299,97.013,126.299,97.149,126.299,97.281z"/>
		<path fill="#020202" d="M125.363,97.281c0,0.137-0.132,0.266-0.269,0.266c-0.133,0-0.133-0.131-0.133-0.266
			c0-0.132,0.133-0.265,0.267-0.265C125.363,97.013,125.363,97.149,125.363,97.281z"/>
		<path fill="#020202" d="M125.363,96.344c0,0.133-0.132,0.267-0.269,0.267c-0.133,0-0.133-0.133-0.133-0.267
			s0.133-0.267,0.267-0.267C125.363,96.078,125.496,96.211,125.363,96.344z"/>
	</g>
	
		<animateTransform  type="translate" fill="remove" attributeType="XML" accumulate="none" repeatCount="indefinite" additive="replace" begin="0s" values="0,0;0.1,0.1;0,0" restart="always" calcMode="linear" dur="1" attributeName="transform">
		</animateTransform>
</g>
<g id="Body">
	<g>
		<g>
			<g>
				<g id="Bus_Body">
					<g>
						<g>
							<path fill="#0D0D0D" d="M51.106,104.508l-0.536,0.133c0,0-0.267,0.139-0.267,0.4v0.266l0.4,0.139v0.133v3.342l-0.134,0.133
								c0,0,0,0.67,0.536,0.4l0.267-0.133l0.133,0.133l-0.133,0.133h-0.4c0,0-0.802,0.135-0.802-0.535l-0.534,0.266l-0.133-0.135
								l-0.134-0.133v-3.609c0,0,0-0.4,0.267-0.268h0.4c0,0-0.133-0.535,0.134-0.668c0,0,0.267-0.135,0.802-0.268
								C51.106,104.375,51.239,104.375,51.106,104.508z"/>
							<path fill="#D3D3D3" d="M139.009,87.917l0.399-17.661l-0.538-0.669l-14.852-10.705l-74.656,43.082v3.215
								c0,0,0.134,0.797,1.473,0.934c0,0-1.203,4.281-0.803,8.83l-0.536,0.4v2.273l0.669,0.799l-0.669,0.537v2.41
								c0,0,0.536,0.934,1.338,1.336l15.655,8.963c0,0,1.203,0.539,3.21-0.398l9.231-5.482v-3.75c0,0,1.069-2.813,2.141-4.018
								l3.88-2.139c0,0,1.605-0.131,2.275,1.465v3.615l34.515-19.801V97.41c0,0,0.803-2.945,2.54-4.149l3.211-1.872
								c0,0,1.477-0.803,2.411,0.934v4.149l5.757-3.213L139.009,87.917z"/>
							<path fill="#515251" d="M124.561,60.623v-0.937c0,0-0.805-0.669-1.609,0v0.937c0,0,0,0.534,0.807,0.669
								C123.756,61.159,124.425,61.159,124.561,60.623z"/>
							<g display="none">
								<path display="inline" fill="#B0AFB0" d="M146.501,64.369v-0.402l-4.416-2.675c0,0-0.536-0.269-0.936,0l-6.021,3.88v0.267
									l4.947,2.81h0.271L146.501,64.369z"/>
								<path display="inline" fill="#848383" d="M145.833,64.1v-0.267l-3.881-2.274c0,0-0.399-0.267-0.803,0l-5.218,3.211v0.267
									l4.279,2.406h0.137L145.833,64.1z"/>
								<path display="inline" fill="#B0AFB0" d="M145.564,63.833v-0.267l-3.612-2.141c0,0-0.399-0.267-0.803,0l-4.951,2.943v0.267
									l4.013,2.273h0.137L145.564,63.833z"/>
							</g>
							<g>
								<path fill="#B0AFB0" d="M125.897,70.525v-0.4l-4.414-2.678c0,0-0.538-0.267-0.938,0l-6.021,3.749v0.267l4.947,2.811h0.269
									L125.897,70.525z"/>
								<path fill="#848383" d="M125.227,70.256v-0.267l-3.88-2.275c0,0-0.401-0.269-0.805,0l-5.215,3.211v0.269l4.28,2.407h0.13
									L125.227,70.256z"/>
								<path fill="#B0AFB0" d="M124.96,69.989v-0.267l-3.613-2.14c0,0-0.401-0.267-0.805,0l-4.95,3.078v0.267l4.016,2.275h0.13
									L124.96,69.989z"/>
							</g>
							<g>
								<path fill="#B0AFB0" d="M106.898,81.494v-0.4l-4.416-2.676c0,0-0.536-0.267-0.936,0l-6.019,3.747v0.267l4.948,2.81h0.269
									L106.898,81.494z"/>
								<path fill="#848383" d="M106.096,81.227v-0.269l-3.883-2.272c0,0-0.4-0.267-0.807,0l-5.214,3.209v0.267l4.28,2.408h0.134
									L106.096,81.227z"/>
								<path fill="#B0AFB0" d="M105.826,80.958v-0.265l-3.613-2.141c0,0-0.4-0.269-0.807,0l-4.947,3.076v0.133l4.013,2.274h0.136
									L105.826,80.958z"/>
							</g>
							<g>
								<path fill="#B0AFB0" d="M85.491,94.07v-0.401l-4.414-2.674c0,0-0.536-0.267-0.936,0l-6.021,3.745v0.267l4.95,2.81h0.267
									L85.491,94.07z"/>
								<path fill="#848383" d="M84.686,93.802v-0.267l-3.88-2.408c0,0-0.4-0.267-0.803,0l-5.216,3.211v0.267l4.281,2.408h0.133
									L84.686,93.802z"/>
								<path fill="#B0AFB0" d="M84.419,93.535v-0.267l-3.612-2.139c0,0-0.4-0.267-0.802,0l-4.95,3.078v0.267l4.014,2.274h0.133
									L84.419,93.535z"/>
							</g>
							<ellipse fill="#727373" cx="123.756" cy="59.82" rx="0.534" ry="0.267"/>
							<path fill="#353535" d="M62.345,103.973c0,0-1.473,1.205-3.211,1.334l-0.402-0.133c0,0,1.605-1.604,2.41-1.604
								C61.141,103.572,62.345,103.438,62.345,103.973z"/>
							<polygon display="none" fill="#282828" points="141.684,89.388 141.684,72.128 132.45,77.481 132.45,94.739 							"/>
							<polygon fill="#282828" points="109.572,107.85 109.572,90.592 100.207,96.078 100.207,113.201 							"/>
							<polygon fill="#282828" points="78.667,125.514 78.667,108.518 69.3,113.738 69.3,130.729 							"/>
							<path fill="#5E5F5F" d="M132.317,76.677c0,0,0.532-2.141-0.67-1.338l-8.56,4.95v1.873L132.317,76.677z"/>
							<path fill="#5E5F5F" d="M89.369,101.563c0,0,0.534-2.141-0.669-1.338l-8.562,4.954v1.871L89.369,101.563z"/>
							<polygon fill="#151515" points="131.647,76.944 131.647,75.206 122.951,80.289 122.951,82.164 							"/>
							<polygon fill="#151515" points="88.433,101.963 88.433,100.358 80.139,105.041 80.139,106.643 							"/>
							<polyline fill="#020202" points="133.12,76.544 132.985,76.142 138.742,72.797 138.605,73.333 							"/>
							<polygon fill="#020202" points="109.975,89.656 100.342,95.408 100.072,95.142 109.705,89.521 							"/>
							<polygon fill="#020202" points="78.534,108.121 68.9,113.871 68.631,113.471 78.264,107.85 							"/>
							<path fill="#787878" d="M50.704,104.775c0,0-0.534-1.875,0.669-1.205l14.316,8.295v1.605L50.704,104.775z"/>
							<polygon fill="#020202" points="65.688,111.998 65.688,113.604 51.373,105.178 51.373,103.572 							"/>
							<polygon fill="#F6851F" points="66.625,112.938 66.225,112.668 65.956,112.938 65.956,113.871 66.358,114.141 
								66.625,114.141 							"/>
							<polygon fill="#F6851F" points="50.17,103.705 50.17,104.775 49.903,104.775 49.634,104.24 49.634,103.705 49.903,103.572 
															"/>
							<polygon fill="#434343" points="136.065,76.142 133.521,77.748 133.521,85.105 136.065,83.633 							"/>
							<path stroke="#000000" stroke-width="0.1" stroke-miterlimit="10" d="M138.605,69.855l-71.98,41.74L138.605,69.855z"/>
							<path stroke="#000000" stroke-width="0.1" stroke-miterlimit="10" d="M138.605,74.003l-71.442,41.073L138.605,74.003z"/>
							<path d="M67.161,115.613c0,0,0.534-3.748-0.536-4.018C66.625,111.596,67.563,111.463,67.161,115.613z"/>
							<g>
								<polygon fill="#D1D2D1" points="73.314,112.531 73.314,127.652 69.569,129.926 69.569,114.404 								"/>
								<polygon fill="#D1D2D1" points="77.865,109.855 77.865,124.842 74.116,126.984 73.983,111.998 								"/>
							</g>
							<g>
								<polygon fill="#D1D2D1" points="104.488,94.339 104.488,109.322 100.744,111.596 100.607,96.479 								"/>
								<polygon fill="#D1D2D1" points="109.039,91.93 109.039,106.916 105.293,109.053 105.158,94.07 								"/>
							</g>
							<g id="Glass_Doors">
								<polygon fill="#191919" points="108.77,92.733 108.77,104.24 105.428,106.111 105.428,94.472 								"/>
								<polygon fill="#191919" points="104.222,95.275 104.222,106.512 100.875,108.385 100.875,97.013 								"/>
								<polygon fill="#191919" points="77.461,110.662 77.461,122.166 74.116,124.041 74.116,112.398 								"/>
								<polygon fill="#191919" points="73.18,113.201 73.18,124.441 69.835,126.314 69.835,114.807 								"/>
								<polygon fill="#6D7D85" points="108.502,93.133 108.502,103.973 105.561,105.576 105.561,94.605 								"/>
								<polygon fill="#6D7D85" points="104.088,95.677 104.088,106.379 101.145,107.982 101.145,97.149 								"/>
								<polygon fill="#6D7D85" points="77.196,111.195 77.196,121.896 74.52,123.506 74.52,112.668 								"/>
								<polygon fill="#6D7D85" points="72.778,113.738 72.778,124.172 70.105,125.645 70.105,115.076 								"/>
								<path stroke="#000000" stroke-width="0.1" stroke-miterlimit="10" d="M66.492,111.328l-16.725-9.363L66.492,111.328z"/>
								<polygon fill="#282828" points="65.153,128.992 65.153,130.865 50.303,122.299 50.303,120.424 								"/>
							</g>
							<path fill="#0D0D0D" d="M69.436,115.076l0.535,0.135c0,0,0.267,0.133,0.267,0.398v0.264l-0.401,0.133v0.135v3.348
								l0.135,0.127c0,0,0,0.67-0.535,0.402l-0.267-0.135l-0.133,0.139l0.133,0.139h0.4c0,0,0.804,0.133,0.804-0.541l0.536,0.271
								l0.133-0.135l0.133-0.137v-3.609c0,0,0-0.396-0.267-0.264h-0.4c0,0,0.133-0.535-0.133-0.668c0,0-0.267-0.135-0.804-0.266
								C69.436,114.807,69.3,114.943,69.436,115.076z"/>
							<path fill="#1E1E1E" d="M68.766,114.141l0.267,10.168c0,0-2.139,1.875-4.548,0l-14.315-7.76c0,0-0.4-0.539-0.134-1.072
								c0,0,0.267-7.355,1.336-8.832l15.655,8.701L68.766,114.141z"/>
							<path fill="#6D7D85" d="M68.5,114.674l0.267,9.367c0,0-1.872,1.873-4.414,0l-14.047-7.895c0,0-0.536-0.67-0.267-1.07
								c0,0,0-7.357,1.069-8.697l15.922,9.098L68.5,114.674z"/>
							<path fill="none" stroke="#000000" stroke-width="0.1" stroke-miterlimit="10" d="M69.033,126.043
								c0,0-1.739,1.744-4.414,0.404l-14.716-8.559"/>
							<path fill="none" stroke="#000000" stroke-width="0.1" stroke-miterlimit="10" d="M68.631,128.453
								c0,0-1.739,1.473-3.747,0.406l-15.385-8.969"/>
							<path fill="#B44326" d="M67.428,127.117v1.205c0,0-1.203,0.67-2.14-0.133v-1.074h0.267l0.401,0.533h0.267l0.133-0.402
								C66.492,127.246,67.028,127.383,67.428,127.117z"/>
							<path fill="#F26322" d="M67.161,127.383v1.07c0,0-0.936,0.535-1.74-0.131v-0.936h0.267l0.401,0.406h0.267l0.133-0.27
								C66.492,127.52,66.895,127.652,67.161,127.383z"/>
							<polygon fill="#F4F4F4" points="59.133,125.645 59.133,126.984 55.253,124.842 55.253,123.506 							"/>
							<polygon fill="#848484" points="99.938,107.049 87.633,114.141 87.633,118.418 99.938,111.328 							"/>
							<polygon fill="#E5E5E5" points="99.673,107.314 87.766,114.273 87.899,118.152 99.673,111.195 							"/>
							<polygon fill="#848484" points="121.077,95.408 110.24,101.83 110.24,105.576 121.077,99.289 							"/>
							<polygon fill="#E5E5E5" points="120.945,95.811 110.375,101.963 110.375,105.307 120.945,99.156 							"/>
							<polygon fill="#F26322" points="90.038,117.486 90.038,118.289 88.702,119.088 88.702,118.289 							"/>
							<polygon fill="#F26322" points="99.537,111.998 99.537,112.801 98.333,113.471 98.333,112.801 							"/>
							<polygon fill="#F26322" points="111.98,105.178 111.98,105.975 110.777,106.643 110.777,105.844 							"/>
							<polygon fill="#F26322" points="121.483,99.556 121.483,100.358 120.141,101.158 120.141,100.358 							"/>
							<polygon fill="#F26322" points="136.733,88.719 136.733,89.521 135.527,90.191 135.527,89.388 							"/>
						</g>
						<g>
							<polygon fill="#919191" points="108.638,105.307 108.638,106.246 107.831,106.643 107.831,105.713 							"/>
							<polygon fill="#919191" points="101.813,109.322 101.813,110.256 101.278,110.662 101.278,109.723 							"/>
							<polygon fill="#919191" points="77.196,123.639 77.196,124.574 76.527,124.975 76.527,123.908 							"/>
							<polygon fill="#919191" points="70.506,127.652 70.506,128.453 69.97,128.859 69.97,127.916 							"/>
						</g>
					</g>
					<polygon fill="#282828" points="99.938,96.747 79.069,108.652 79.069,118.018 99.938,105.975 					"/>
					<path fill="#282828" d="M132.181,77.883v6.957l-5.75,3.745c0,0-5.354,3.747-10.839,8.43l-5.617,3.345v-9.5L132.181,77.883z"/>
					<polygon fill="#6D7D85" points="99.537,97.416 99.537,105.975 90.172,111.328 90.172,102.768 					"/>
					<polygon fill="#6D7D85" points="89.502,103.303 89.502,104.508 79.738,110.127 79.738,108.922 					"/>
					<polygon fill="#6D7D85" points="89.502,105.041 89.369,111.729 79.738,117.346 79.738,110.793 					"/>
					<polygon fill="#6D7D85" points="131.916,78.552 131.916,84.572 126.299,88.183 126.299,81.762 					"/>
					<polygon fill="#6D7D85" points="125.227,84.169 125.227,88.583 116.13,96.211 116.13,89.521 					"/>
					<polygon fill="#6D7D85" points="125.496,82.164 116.13,87.514 116.13,89.119 125.496,83.369 					"/>
					<polygon fill="#6D7D85" points="115.193,88.183 115.193,96.613 110.375,99.556 110.375,90.994 					"/>
				</g>
				<polygon fill="#59595A" points="52.042,119.357 52.042,120.424 50.972,119.891 50.972,118.688 				"/>
				<polygon fill="#7DBDD1" points="52.309,119.494 52.309,120.693 51.239,120.164 51.239,118.824 				"/>
				<polygon fill="#59595A" points="65.019,126.713 65.019,128.053 63.414,127.117 63.414,125.781 				"/>
				<polygon fill="#7DBDD1" points="64.886,126.584 64.886,127.916 63.281,127.117 63.281,125.781 				"/>
				<polygon fill="#ABABAB" points="63.147,125.781 63.147,127.652 52.309,121.363 52.309,119.494 				"/>
			</g>
		</g>
		<path opacity="0.2" fill="#FFFFFF" enable-background="new    " d="M67.697,115.879c0,0-1.872,5.484-1.338,8.029h-0.67
			l-15.385-8.432C50.303,115.613,64.217,119.758,67.697,115.879z"/>
		<polygon opacity="0.3" fill="#FFFFFF" enable-background="new    " points="70.239,121.496 72.778,115.746 72.778,118.418 
			70.105,124.041 		"/>
		<polygon opacity="0.3" fill="#FFFFFF" enable-background="new    " points="74.52,117.752 77.196,113.738 77.196,115.746 
			74.52,119.494 		"/>
		<polygon opacity="0.3" fill="#FFFFFF" enable-background="new    " points="81.877,109.588 80.808,116.816 82.011,116.01 
			83.216,108.652 		"/>
		<polygon opacity="0.3" fill="#FFFFFF" enable-background="new    " points="84.019,108.385 82.814,115.613 83.216,115.344 
			84.286,108.121 		"/>
		<polygon opacity="0.3" fill="#FFFFFF" enable-background="new    " points="92.181,101.697 91.511,110.662 92.583,109.988 
			92.984,101.158 		"/>
		<polygon opacity="0.3" fill="#FFFFFF" enable-background="new    " points="96.062,99.421 95.259,108.518 96.062,107.982 
			97.129,98.886 		"/>
		<polygon opacity="0.3" fill="#FFFFFF" enable-background="new    " points="95.392,99.824 94.585,108.791 94.186,109.053 		"/>
		<polygon opacity="0.3" fill="#FFFFFF" enable-background="new    " points="104.088,96.613 101.145,103.035 101.145,104.508 
			104.088,98.353 		"/>
		<polygon opacity="0.3" fill="#FFFFFF" enable-background="new    " points="108.502,95.275 105.561,99.824 105.561,101.83 
			108.502,97.416 		"/>
	</g>
	<polygon opacity="0.3" fill="#FFFFFF" enable-background="new    " points="115.193,89.388 110.375,95.408 110.375,97.818 
		115.193,92.464 	"/>
	<polygon opacity="0.3" fill="#FFFFFF" enable-background="new    " points="119.071,87.781 117.469,95.142 119.611,93.266 
		120.676,86.847 	"/>
	<polygon opacity="0.3" fill="#FFFFFF" enable-background="new    " points="120.141,85.241 119.611,86.98 120.811,86.311 
		121.077,84.705 	"/>
	<polygon opacity="0.3" fill="#FFFFFF" enable-background="new    " points="129.105,80.155 127.637,87.249 128.975,86.445 
		130.042,79.62 	"/>
	
		<animateTransform  type="translate" fill="remove" attributeType="XML" accumulate="none" repeatCount="indefinite" additive="replace" begin="0s" values="0,0;-0.1,-0.1;0,0" restart="always" calcMode="linear" dur="1" attributeName="transform">
		</animateTransform>
</g>
<path id="Idle_1_" fill="#ff0000" d="M107.691,10.38l-28.634,0.5L65.091,35.09l14.667,23.791l28.564-0.421l14.026-24.329
	L107.691,10.38z M97.29,47.819l-7.572,0.013c0,0-1.443,0.057-1.486-0.844c0,0-0.092-0.813,1.08-1.129c0,0,0.678,0.046,0.722-1.308
	l-0.091-17.037c0,0,0.136-0.768-1.033-0.993c0,0-0.774-0.314-0.678-1.127c0,0,0.316-0.498,0.948-0.721h9.015
	c0,0,0.946,0.088,0.996,0.81c0,0,0.088,0.901-0.904,1.034c0,0-1.034,0.315-0.77,1.894l-0.089,16.275c0,0,0.088,1.216,0.944,1.262
	c0,0,1.042,0.184,0.817,1.397C99.19,47.348,98.917,47.932,97.29,47.819z"/>
</svg>
