<?xml version="1.0" encoding="utf-8"?>
<!-- Generator: Adobe Illustrator 16.0.0, SVG Export Plug-In . SVG Version: 6.00 Build 0)  -->
<!DOCTYPE svg PUBLIC "-//W3C//DTD SVG 1.1//EN" "http://www.w3.org/Graphics/SVG/1.1/DTD/svg11.dtd">
<svg version="1.1" id="Layer_1" xmlns="http://www.w3.org/2000/svg" xmlns:xlink="http://www.w3.org/1999/xlink" x="0px" y="0px"
	 width="100px" height="100px" viewBox="0 0 100 100" enable-background="new 0 0 100 100" xml:space="preserve">

	 <style type="text/css">
	  .arrow{fill:{{statusColor}};display:{{arrowDisplay}}}
	  .hourglass{fill:{{hourglassColor}};display:{{hourglassDisplay}}}
    .parking{display:{{parkingDisplay}};fill:{{parkingColor}}}
	 </style>
	}

<g transform="translate({{translateX}},0) scale({{scaleX}},1)">
	
		<animateTransform  type="translate" fill="remove" attributeName="transform" dur="1" calcMode="linear" restart="always" values="0,0;0.1,0.1;0,0" begin="0s" additive="replace" repeatCount="indefinite" accumulate="none" attributeType="XML">
		</animateTransform>
	
		<animateTransform  type="translate" fill="remove" attributeName="transform" dur="1" calcMode="linear" restart="always" values="0,0;0.1,0.1;0,0" begin="0s" additive="replace" repeatCount="indefinite" accumulate="none" attributeType="XML">
		</animateTransform>
	<g>
		<polygon fill="#141414" points="38.193,44.937 37.493,44.759 37.303,45.356 37.082,45.325 36.748,46.497 36.929,46.53 
			36.748,47.142 37.289,47.58 37.352,47.468 36.878,47.057 37.046,46.608 37.224,46.64 37.592,45.425 37.423,45.363 37.544,44.889 
			38.134,45.109 		"/>
		<g id="Tire_2_2_">
			<path d="M60.195,51.758c0,0-1.364-0.41-1.984-1.786c0,0-0.195-2.253,1.878-2.717c0,0,1.599,0.292,2.242,1.363
				C62.982,49.904,60.195,51.758,60.195,51.758z"/>
			<path fill="#333333" d="M62.107,50.713c-0.543,0.938-1.53,1.291-2.16,0.951c-0.631-0.342-0.704-1.408-0.079-2.312
				c0.544-0.937,1.53-1.292,2.161-0.95C62.66,48.746,62.701,49.902,62.107,50.713z"/>
			<path fill="#999999" d="M61.822,48.95c-0.463-0.281-1.135-0.016-1.572,0.65c-0.439,0.663-0.348,1.423,0.115,1.703
				c0.466,0.277,1.138,0.012,1.574-0.65C62.299,49.957,62.289,49.228,61.822,48.95z M61.609,50.527
				c-0.221,0.33-0.539,0.418-0.705,0.354c-0.247-0.092-0.195-0.488-0.01-0.728c0.187-0.245,0.539-0.423,0.703-0.357
				C61.768,49.859,61.828,50.195,61.609,50.527z"/>
			<path fill="#FFFFFF" d="M60.939,49.03c0,0,0.215,0.186,0.278,0.52l-0.116,0.059c0,0-0.113-0.452-0.279-0.519L60.939,49.03z"/>
			
				<animateTransform  type="translate" fill="remove" attributeName="transform" dur="1" calcMode="linear" restart="always" values="0,0;0.1,0.1;0,0" begin="0s" additive="replace" repeatCount="indefinite" accumulate="none" attributeType="XML">
				</animateTransform>
		</g>
		<g id="BAck">
			<g id="container">
				<polygon fill="#333333" points="48.483,52.309 54.182,50.039 54.163,50.346 53.943,50.486 53.873,51.635 48.167,54.057 
					48.192,52.443 				"/>
				<polygon fill="#666666" points="49.432,52.902 55.128,50.713 55.113,50.941 54.895,51.082 54.818,52.311 49.045,54.648 
					49.139,53.117 				"/>
				<path fill="#D1D1D1" d="M42.87,45.045l0.279-4.599c0,0-0.024-0.771,0.42-1.128l13.302-4.577l0.412,0.18l7.025,3.558
					c0,0,0.702,0.043,0.369,0.869l-0.619,8.06l-13.852,5.464L42.87,45.045z"/>
				<polygon fill="#AFAFAF" points="43.377,40.153 50.248,44.109 49.909,52.012 43.497,46.313 43.043,45.671 				"/>
				<polygon fill="#AAAAAA" points="43.57,40.473 50.099,44.254 49.792,51.617 43.439,46.08 42.981,45.512 				"/>
				<polygon fill="#0F0F0F" points="56.91,46.336 50.965,48.658 51.113,44.141 57.078,42.092 				"/>
				<polygon fill="#3D3D3D" points="56.803,46.289 51.016,48.536 51.174,44.196 56.979,42.211 				"/>
				<polygon fill="#191919" points="63.369,43.864 57.898,45.992 58.049,41.822 63.689,39.681 				"/>
				<polygon fill="#3D3D3D" points="63.286,43.81 58.002,45.868 58.145,41.833 63.596,39.763 				"/>
			</g>
			<polygon opacity="0.8" fill="#F9F4F4" enable-background="new    " points="53.195,43.506 52.215,48.069 53.195,47.688 
				53.818,43.292 			"/>
			<polygon opacity="0.8" fill="#F9F4F4" enable-background="new    " points="59.63,45.233 60.316,44.965 60.982,40.755 
				60.464,40.953 			"/>
		</g>
		<g>
			<path fill="#141414" d="M49.765,51.906c0,0,1.407,0.863,0.889,2.771l-2.869-1.543C47.785,53.135,48.491,51.465,49.765,51.906z"/>
			<path fill="#4C4C4C" d="M49.761,52.008c0,0,1.321,0.875,0.752,2.598l-3-1.186C47.516,53.42,48.487,51.566,49.761,52.008z"/>
		</g>
		<g id="Tire_2_1_">
			<path d="M47.529,56.51c0,0-1.364-0.412-1.986-1.787c0,0-0.196-2.252,1.878-2.717c0,0,1.599,0.295,2.241,1.365
				C50.315,54.656,47.529,56.51,47.529,56.51z"/>
			<path fill="#333333" d="M49.44,55.467c-0.542,0.936-1.53,1.289-2.161,0.947c-0.63-0.34-0.704-1.404-0.079-2.311
				c0.543-0.937,1.531-1.291,2.161-0.949C49.992,53.498,50.033,54.652,49.44,55.467z"/>
			<path fill="#999999" d="M49.155,53.701c-0.462-0.279-1.133-0.014-1.572,0.65s-0.346,1.426,0.117,1.703
				c0.465,0.278,1.135,0.014,1.575-0.652C49.631,54.707,49.622,53.979,49.155,53.701z M48.942,55.277
				c-0.221,0.336-0.54,0.422-0.705,0.356c-0.25-0.094-0.196-0.487-0.01-0.729c0.186-0.239,0.54-0.42,0.704-0.356
				C49.099,54.611,49.161,54.945,48.942,55.277z"/>
			<path fill="#FFFFFF" d="M48.272,53.781c0,0,0.214,0.186,0.279,0.521l-0.118,0.06c0,0-0.113-0.455-0.28-0.521L48.272,53.781z"/>
		</g>
		<g id="Body">
			<path fill="#474747" d="M36.999,52.293l0.196-3.968c0,0,0.334-5.216,5.232-6.531h1.024l5.966,3.809l0.444,1.134v5.169
				c0,0-3.562,1.088-3.785,4.082c0,0-0.757,0.455-2.715,0.227C41.403,55.988,36.999,52.293,36.999,52.293z"/>
			<path fill="#D1D1D1" d="M36.665,52.293l0.2-3.968c0,0,0.341-5.216,5.329-6.531h1.043l6.076,3.809l0.453,1.134v5.169
				c0,0-3.628,1.088-3.855,4.082c0,0-0.771,0.455-2.767,0.227C41.147,55.988,36.665,52.293,36.665,52.293z"/>
			<path fill="#1E1E1E" d="M42.486,55.104l0.021-0.791c0,0,1.916-0.139,2.555-0.139l-0.02,1.285
				C45.042,55.459,43.775,55.66,42.486,55.104z"/>
			<path opacity="0.9" fill="#D1C269" enable-background="new    " d="M42.484,55.129l0.02-0.738c0,0,1.853-0.129,2.47-0.129
				l-0.019,1.199C44.954,55.461,43.731,55.65,42.484,55.129z"/>
			<path fill="#3D3D3D" d="M36.999,48.729c0,0,0.109-2.63,1.746-4.486l6.484,3.855l-0.862,4.671
				C44.369,52.77,40.151,51.906,36.999,48.729z"/>
			<polygon fill="#3D3D3D" points="45.729,48.139 44.958,52.586 45.23,52.586 48.904,49.037 48.904,47.21 48.563,46.869 			"/>
			<path opacity="0.8" fill="#E0E0E0" enable-background="new    " d="M39.353,44.696c0,0-0.97,2.16-0.97,5.051
				c0,0,0.37,0.39,0.596,0.526c0,0,0.266-3.939,0.856-5.255L39.353,44.696z"/>
			<polygon fill="#1E1E1E" points="36.81,50.117 38.099,51.637 38.07,52.451 36.748,51.475 			"/>
			<polygon opacity="0.9" fill="#D1C269" enable-background="new    " points="36.81,50.218 38.099,51.738 38.07,52.553 
				36.748,51.576 			"/>
			<path fill="#3D3D3D" d="M36.748,51.385c0,0,4.152,3.232,5.716,3.719c0,0,2.237,0.816,3.682-0.012l0,0l-0.099,0.84l-0.045,0.158
				c0,0-1.859,0.545-3.401,0c0,0-1.172-0.426-2.25-1.135c0,0-2.639-1.656-3.687-2.664C36.665,52.293,36.608,51.385,36.748,51.385z"
				/>
			<path fill="#3D3D3D" d="M36.161,54.117"/>
			<path fill="#7A7A7A" d="M38.099,51.738c0,0,3.932,2.695,4.385,2.662l-0.02,0.703c0,0-1.556-0.513-4.366-2.705L38.099,51.738
				L38.099,51.738z"/>
			<path fill="#4C4C4C" d="M52.215,53.592"/>
		</g>
		<polygon fill="#141414" points="45.639,48.658 46.339,48.838 46.339,49.506 46.54,49.575 46.54,50.85 46.333,50.713 
			46.367,51.412 45.162,51.412 45.162,51.283 46.231,51.275 46.231,50.713 46.063,50.594 46.027,49.353 46.231,49.421 
			46.231,48.928 45.607,48.838 		"/>
	</g>
	<path id="parking" class="parking" d="M53.154,17.552l-9.925,0.146l-4.863,8.393l5.061,8.247l9.925-0.146l4.863-8.393L53.154,17.552z
		 M49.126,30.557c-0.078,0.056-0.208,0.083-0.39,0.083h-0.21H45.77h-0.16c-0.148,0-0.263-0.031-0.344-0.093
		c-0.08-0.062-0.12-0.15-0.12-0.265c0-0.188,0.082-0.313,0.247-0.372c0.136-0.05,0.216-0.081,0.238-0.093
		c0.022-0.011,0.046-0.037,0.071-0.079c0.049-0.073,0.074-0.189,0.074-0.351v-6.885c0-0.16-0.025-0.277-0.074-0.351
		c-0.025-0.041-0.049-0.067-0.071-0.079c-0.022-0.012-0.103-0.042-0.238-0.093c-0.165-0.06-0.247-0.184-0.247-0.371
		c0-0.115,0.04-0.203,0.12-0.266c0.081-0.062,0.195-0.093,0.344-0.093h0.16h2.751v8.082c0,0.179,0.03,0.307,0.092,0.385
		c0.033,0.046,0.064,0.075,0.093,0.086c0.029,0.012,0.124,0.04,0.285,0.086c0.197,0.051,0.296,0.177,0.296,0.379
		C49.286,30.388,49.232,30.483,49.126,30.557z M52.02,25.805c-0.279,0.444-0.672,0.772-1.176,0.983
		c-0.416,0.17-1.016,0.255-1.799,0.255v-0.736c0.178-0.046,0.303-0.094,0.374-0.145c0.072-0.051,0.136-0.128,0.188-0.233
		c0.087-0.18,0.13-0.42,0.13-0.723v-2.201c0-0.215-0.014-0.376-0.043-0.481c-0.029-0.105-0.087-0.201-0.173-0.289
		c-0.12-0.128-0.28-0.208-0.482-0.24v-0.743c0.849,0,1.477,0.09,1.879,0.269c0.466,0.206,0.834,0.522,1.105,0.949
		c0.275,0.437,0.414,0.97,0.414,1.604C52.438,24.777,52.299,25.355,52.02,25.805z"/>
</g>
<g id="Direction">
	<g transform="rotate({{angle}} 50 50)">
		<polygon id="arrow" class="arrow" opacity="0.7" enable-background="new    " points="59.7,31.4 50.8,24 41.9,31.3 41.9,35.4 42,35.4 50.8,28.1 
			59.3,35.4 59.7,35.4 		">
		
			<animate  fill="remove" attributeName="opacity" dur="0.5s" calcMode="linear" restart="always" values="0.5; 0" begin="0s;anim_arrow3.end" additive="replace" accumulate="none" id="anim_arrow1">
			</animate>
		</polygon>
		<polygon id="arrow2" class="arrow" opacity="0.7" enable-background="new    " points="59.8,26.4 50.9,19 42,26.4 42,30.4 42.1,30.4 50.9,23.2 
			59.4,30.4 59.8,30.4 		">
		
			<animate  fill="remove" attributeName="opacity" dur="0.5s" calcMode="linear" restart="always" values="0.5; 0" begin="anim_arrow1.end" additive="replace" accumulate="none" id="anim_arrow2">
			</animate>
		</polygon>
		<polygon id="arrow3" class="arrow" opacity="0.7" enable-background="new    " points="59.9,21.4 51,14.1 42.1,21.4 42.1,25.5 42.2,25.5 
			51,18.2 59.5,25.5 59.9,25.5 		">
		
			<animate  fill="remove" attributeName="opacity" dur="0.5s" calcMode="linear" restart="always" values="0.5; 0" begin="anim_arrow2.end" additive="replace" accumulate="none" id="anim_arrow3">
			</animate>
		</polygon>
	</g>
</g>
<path id="Idle" class="hourglass" d="M53.193,17.539l-9.925,0.173l-4.841,8.392l5.084,8.247l9.9-0.146l4.863-8.433L53.193,17.539z M49.59,30.516
	l-2.625,0.005c0,0-0.5,0.019-0.516-0.293c0,0-0.031-0.281,0.375-0.391c0,0,0.234,0.016,0.25-0.453l-0.031-5.906
	c0,0,0.047-0.266-0.359-0.344c0,0-0.268-0.109-0.235-0.391c0,0,0.11-0.172,0.329-0.25h3.125c0,0,0.328,0.031,0.344,0.281
	c0,0,0.031,0.313-0.313,0.359c0,0-0.359,0.109-0.266,0.656l-0.031,5.641c0,0,0.031,0.422,0.328,0.438c0,0,0.361,0.063,0.281,0.484
	C50.247,30.353,50.153,30.555,49.59,30.516z"/>
</svg>
