<?xml version="1.0" encoding="utf-8"?>
<!-- Generator: Adobe Illustrator 16.0.0, SVG Export Plug-In . SVG Version: 6.00 Build 0)  -->
<!DOCTYPE svg PUBLIC "-//W3C//DTD SVG 1.1//EN" "http://www.w3.org/Graphics/SVG/1.1/DTD/svg11.dtd">
<svg version="1.1" id="Layer_1" xmlns="http://www.w3.org/2000/svg" xmlns:xlink="http://www.w3.org/1999/xlink" x="0px" y="0px"
	 width="100px" height="100px" viewBox="0 0 100 100" enable-background="new 0 0 100 100" xml:space="preserve">

	 <style type="text/css">
	  .arrow{fill:{{statusColor}};display:{{arrowDisplay}}}
	  .hourglass{fill:{{hourglassColor}};display:{{hourglassDisplay}}}
    .parking{display:{{parkingDisplay}};fill:{{parkingColor}}}
	 </style>
	}

<g transform="translate({{translateX}},0) scale({{scaleX}},1)">
	<polygon fill="#666666" points="62.227,47.119 62.227,48.875 59.717,48.271 	"/>
	<polygon points="62.227,47.266 62.227,48.834 62.396,48.875 62.396,47.119 	"/>
	<g id="Tire_2_2_">
		<path d="M60.369,50.787c0,0-1.26,0.078-2.137-0.729c0,0-0.875-1.604,0.705-2.499c0,0,1.347-0.252,2.24,0.415
			C62.079,48.641,60.369,50.787,60.369,50.787z"/>
		<path fill="#333333" d="M61.643,49.503c-0.185,0.809-0.838,1.378-1.457,1.274c-0.619-0.104-0.971-0.849-0.787-1.657
			c0.187-0.81,0.838-1.381,1.457-1.275C61.477,47.949,61.828,48.692,61.643,49.503z"/>
		<path fill="#999999" d="M60.818,48.244c-0.455-0.077-0.934,0.342-1.067,0.935c-0.136,0.594,0.124,1.14,0.577,1.218
			c0.454,0.077,0.932-0.34,1.068-0.937C61.533,48.866,61.275,48.323,60.818,48.244z M61.131,49.454
			c-0.063,0.269-0.277,0.458-0.484,0.426c-0.205-0.036-0.322-0.283-0.26-0.552c0.061-0.269,0.276-0.458,0.482-0.426
			C61.076,48.938,61.191,49.185,61.131,49.454z"/>
		<path fill="#FFFFFF" d="M60.182,48.589c0,0,0.264,0.095,0.393,0.311l-0.112,0.087c0,0-0.244-0.314-0.392-0.325L60.182,48.589z"/>
		
			<animateTransform  type="translate" fill="remove" attributeName="transform" dur="1" calcMode="linear" restart="always" values="0,0;0.1,0.1;0,0" begin="0s" additive="replace" repeatCount="indefinite" accumulate="none" attributeType="XML">
			</animateTransform>
	</g>
	<g id="container">
		<polygon fill="#333333" points="47.901,52.191 53.98,49.623 53.98,49.885 53.693,50.051 53.723,51.215 47.632,53.954 
			47.593,52.377 		"/>
		<polygon fill="#666666" points="48.955,52.764 55.034,50.195 55.034,50.456 54.747,50.623 54.775,51.787 48.688,54.523 
			48.648,52.945 		"/>
		<path fill="#999999" d="M41.312,45.331v-4.617c0,0-0.088-0.796,0.358-1.116l14.166-5.328l0.454,0.133l8.347,3.229
			c0,0,0.732,0.037,0.43,0.817l-0.601,7.934L49.73,52.669L41.312,45.331z"/>
		<polygon points="41.527,40.42 49.268,43.942 49.448,51.787 42.07,46.56 41.527,45.946 		"/>
		<polygon fill="#666666" points="41.763,40.714 49.137,44.106 49.297,51.463 41.968,46.337 41.438,45.761 		"/>
		<polygon fill="#333333" points="49.638,43.792 49.803,51.9 63.805,46.115 64.578,38.375 		"/>
		<polygon fill="#CCCCCC" points="49.766,43.92 49.924,51.787 63.691,46.099 64.454,38.486 		"/>
		
			<animateTransform  type="translate" fill="remove" attributeName="transform" dur="1" calcMode="linear" restart="always" values="0,0;-0.1,-0.2;0,0" begin="0s" additive="replace" repeatCount="indefinite" accumulate="none" attributeType="XML">
			</animateTransform>
	</g>
	<g>
		<path d="M48.598,54.688l-2.883-0.869c0,0,0.85-1.309,2.201-1.203C47.916,52.615,48.674,52.831,48.598,54.688z"/>
		<polygon points="49.236,52.954 54.307,50.793 49.236,53.096 		"/>
		<polygon points="54.307,50.846 54.307,51.707 49.57,53.786 54.258,51.657 		"/>
		<polygon fill="#999999" points="53.564,51.271 53.213,52.053 52.834,52.305 53.288,51.402 		"/>
		
			<animateTransform  type="translate" fill="remove" attributeName="transform" dur="1" calcMode="linear" restart="always" values="0,0;-0.1,-0.2;0,0" begin="0s" additive="replace" repeatCount="indefinite" accumulate="none" attributeType="XML">
			</animateTransform>
	</g>
	<g id="Tire_2_1_">
		<path d="M46.957,56.492c0,0-1.259,0.078-2.135-0.729c0,0-0.876-1.604,0.706-2.5c0,0,1.345-0.253,2.24,0.416
			C48.666,54.348,46.957,56.492,46.957,56.492z"/>
		<path fill="#333333" d="M48.23,55.207c-0.184,0.811-0.837,1.381-1.457,1.275c-0.62-0.106-0.972-0.848-0.787-1.655
			c0.185-0.812,0.837-1.382,1.457-1.276C48.063,53.656,48.416,54.396,48.23,55.207z"/>
		<path fill="#999999" d="M47.407,53.95c-0.455-0.079-0.932,0.34-1.068,0.936c-0.136,0.595,0.124,1.14,0.576,1.216
			c0.456,0.076,0.934-0.341,1.068-0.936C48.121,54.57,47.862,54.027,47.407,53.95z M47.72,55.158
			c-0.062,0.269-0.279,0.46-0.486,0.425c-0.205-0.035-0.321-0.282-0.261-0.552c0.062-0.27,0.279-0.458,0.485-0.424
			C47.664,54.643,47.781,54.889,47.72,55.158z"/>
		<path fill="#FFFFFF" d="M46.769,54.293c0,0,0.263,0.096,0.393,0.311l-0.113,0.09c0,0-0.244-0.315-0.39-0.327L46.769,54.293z"/>
		
			<animateTransform  type="translate" fill="remove" attributeName="transform" dur="1" calcMode="linear" restart="always" values="0,0;0.1,0.1;0,0" begin="0s" additive="replace" repeatCount="indefinite" accumulate="none" attributeType="XML">
			</animateTransform>
	</g>
	<g id="Body_1_">
		<g>
			<path fill="#CCCCCC" d="M37.115,50.223v1.505c0,0,0.619,2.309,5.5,3.646c0,0,0.193,0.168,2.905-1.003
				c0,0,0.078-1.438,2.595-1.807l0.193-0.2c0,0,0.544-3.947-0.27-4.851l-0.658-0.401c0,0,0.271-1.439-0.542-1.705
				c0,0-0.465-2.241-0.931-2.342l-2.74-1.161l-2.062,2.835c0,0-0.619,0.2-1.511,1.036c0,0-1.354,0.268-1.547,0.937
				C38.045,46.709,37.463,47.312,37.115,50.223z"/>
			<path d="M37.115,50.223c0,0,0.055-2.167,1.047-3.781h0.271l4.919,2.777v0.201L42.8,52.9c0,0-0.147,0.5-1.618,0
				C41.181,52.896,38.084,51.059,37.115,50.223z"/>
			<path fill="#333333" d="M37.178,50.143c0,0,0.042-2.117,1.002-3.584h0.233l4.812,2.674v0.18l-0.534,3.161
				c0,0-0.141,0.457-1.569,0C41.122,52.573,38.117,50.902,37.178,50.143z"/>
			<path d="M43.777,49.986l-0.425,2.377c0,0-0.195,0.734,0.425,0.4l3.021-2.342c0,0,0.312-0.167,0-1.539h-0.232
				C46.565,48.884,44.551,49.352,43.777,49.986z"/>
			<path opacity="0.5" fill="#666666" enable-background="new    " d="M43.951,49.947l-0.384,2.229c0,0-0.174,0.567,0.383,0.254
				l2.724-2.074c0,0,0.28-0.067,0-1.354l-0.245,0.016C46.429,49.017,44.65,49.35,43.951,49.947z"/>
			<path d="M37.722,51.561c0,0-0.037,0.256-0.011,0.535c0,0,1.149,1.338,3.278,2.174c0,0,0.296-0.224,0-0.603
				C40.987,53.667,39.258,53.064,37.722,51.561z"/>
			<path fill="#333333" d="M37.776,51.667c0,0-0.015,0.187,0.01,0.444c0,0,1.095,1.298,3.17,2.072c0,0,0.217-0.164-0.072-0.518
				C40.884,53.667,39.271,53.066,37.776,51.667z"/>
			<path fill="#333333" d="M37.655,52.188c0,0-0.036,0.248-0.009,0.521c0,0,1.116,1.306,3.188,2.12c0,0,0.289-0.219,0-0.588
				C40.835,54.239,39.152,53.654,37.655,52.188z"/>
			<path d="M44.647,49.52c0,0,0.644,0.21,0.775,1.255c0,0-0.39-0.168-0.359,0.217l-1.17-0.568v0.2l1.142,0.585l0.02,0.979
				l0.074,0.076h0.604l0.117-0.076v-1.162v-0.135l-0.272-0.115c0,0-0.096-0.994-0.793-1.307L44.647,49.52z"/>
			<path d="M37.432,48.339c0,0-0.523-1.229-0.188-1.897c0,0,0.227-0.045,0.281,0.268c0,0-0.163,0.629,0.074,0.995L37.432,48.339z"/>
			<path d="M37.161,51.702c0,0-0.058-0.06-0.136,0.269l0.019,0.856c0,0,3.524,2.979,5.047,3.313c0,0,1.388,0.355,3.083-0.56
				l0.172-0.11c0,0,0.413-2.128,2.581-2.582v-0.311c0,0-1.679,0.083-2.581,1.822l-2.687,0.947l-0.282-0.08
				c0,0-2.361-0.313-4.732-2.725l-0.361-0.538L37.161,51.702z"/>
			<path opacity="0.75" fill="#999999" enable-background="new    " d="M41.119,54.9c0,0-0.261-0.334,0.927-0.902
				c0,0,0.968-0.102,1.355,0c0,0,0.181,0.089,0.169,0.346l-0.126,0.734c0,0-0.463,0.199-0.783,0.271
				C42.661,55.35,41.997,55.297,41.119,54.9z"/>
			<path fill="#FFFFFF" d="M43.208,54.443c0,0-0.042,0.682-0.409,0.726c0,0,0.7,0.103,0.523-0.625L43.208,54.443z"/>
			<path opacity="0.75" fill="#999999" enable-background="new    " d="M37.115,50.773c0,0,0.577,0.375,0.474,1.344l-0.033,0.229
				h-0.092c0,0-0.372-0.463-0.347-0.619C37.115,51.729,37.025,51.309,37.115,50.773z"/>
			<path fill="#FFFFFF" d="M37.337,51.303c0,0,0.208,0.563,0.051,0.727c0,0,0.313-0.146-0.008-0.604L37.337,51.303z"/>
			<path opacity="0.5" fill="#666666" enable-background="new    " d="M42.557,49.667c0,0-2.251,0.624-3.758,0
				c0,0,0.368-0.814,1.144-0.758c0,0-1.156-0.146-1.897,0.661c0,0,0.255-2.271,0.909-2.311l0.194-0.165l-0.832-0.386
				c0,0-0.891,1.321-0.979,3.413c0,0,3.237,2.172,3.782,2.309c0,0,1.378,0.436,1.438-0.086l0.406-2.563L42.557,49.667z"/>
			<path opacity="0.58" fill="#FFFFFF" enable-background="new    " d="M42.382,48.792c0,0-1.382,1.747-1.569,3.237v0.231
				c0,0,0.368,0.308,0.833,0.263c0,0,0.506-3.123,1.153-3.522L42.382,48.792z"/>
			<path opacity="0.58" fill="#FFFFFF" enable-background="new    " d="M42.294,48.792c0,0-1.422,1.653-1.587,3.396l0.037,0.074
				l-0.248-0.137c0,0,0.56-2.045,1.712-3.333C42.209,48.792,42.294,48.792,42.294,48.792z"/>
			<path opacity="0.58" fill="#FFFFFF" enable-background="new    " d="M42.02,48.641c0,0-1.423,1.654-1.588,3.395l0.037,0.075
				l-0.249-0.135c0,0,0.561-2.048,1.712-3.335C41.933,48.641,42.02,48.641,42.02,48.641z"/>
			<path d="M43.166,41.902l2.74,1.16c0,0,0.246,0.068,0.298,0.369l0.375,1.883l-3.925,2.109l4.054-1.918
				c0,0,0.553-0.004,0.656,0.553l0.015,1.053c0,0,0.563,0.365,0.659,0.401c0,0,0.032,0.124,0.051,0.59l0.22,4.259l0.223-0.311
				l-0.136-4.313c0,0-0.038-0.402-0.788-0.683l0.011-0.89c0,0-0.11-0.795-0.744-0.829l-0.477-2.017c0,0-0.026-0.393-0.605-0.524
				C45.791,42.795,43.888,41.99,43.166,41.902z"/>
			<polygon points="41.278,44.5 40.232,45.94 40.97,44.792 			"/>
			<path d="M47.379,47.11l-3.486,1.229C43.892,48.339,47.36,47.329,47.379,47.11z"/>
			<path d="M43.225,47.997l-3.341-1.823C39.884,46.174,42.215,47.757,43.225,47.997z"/>
			<path d="M43.061,48.339l0.291-0.174c0,0,0.406,0.017,0.368,0.284l-0.33,0.192L43.061,48.339z"/>
			<path d="M38.82,46.174l0.388,0.167l0.271-0.167l-0.328-0.167C39.148,46.007,38.837,45.99,38.82,46.174z"/>
			<path opacity="0.7" fill="#FFFFFF" enable-background="new    " d="M46.935,46.34c0,0-2.357,0.947-2.772,1.216
				C44.164,47.557,46.556,46.784,46.935,46.34z"/>
			<path opacity="0.7" fill="#FFFFFF" enable-background="new    " d="M45.352,43.632c0,0-2.443,2.497-2.552,3.078
				C42.799,46.709,45.326,43.832,45.352,43.632z"/>
			<polygon opacity="0.7" fill="#FFFFFF" enable-background="new    " points="42.963,53.354 42.963,53.846 43.225,53.846 			"/>
			<polygon opacity="0.7" fill="#FFFFFF" enable-background="new    " points="42.652,55.63 42.652,56.205 43.061,56.201 
				43.095,55.382 42.652,55.518 			"/>
			<path opacity="0.65" fill="#666666" enable-background="new    " d="M45.287,49.554l0.477,0.823c0,0,0.568-0.11,0.388,0.234
				c0,0,0.581-0.245,0.529-0.745l-0.142-0.712C46.539,49.15,45.479,49.418,45.287,49.554z"/>
			<path d="M47.928,52.889c0,0,0.555,0.176,0.603,1.832l0.223-0.168c0,0-0.063-1.441-0.826-1.975V52.889z"/>
		</g>
		<polygon points="46.797,52.262 46.935,51.667 47.521,51.561 47.521,51.771 46.935,52.029 		"/>
	</g>
	<g display="none">
		<path id="smoke_2" display="inline" fill="#666766" d="M66.838,48.515c0.199,0.299-0.301,0.599-0.301,0.599c0.5,0.602,0,1,0,1
			c-0.199,0.301-0.898,0-0.898,0c-0.199,0.602-0.801,0.5-0.801,0.5c-0.699,0-0.602-0.6-0.602-0.6c-0.604-0.101-0.5-0.5-0.5-0.5
			c0-0.3,0.602-0.3,0.602-0.3c-0.699-0.301-0.5-0.801-0.5-0.801c0.199-0.6,1-0.199,1-0.199c0.699-0.601,1.199,0.199,1.199,0.199
			C66.338,47.914,66.838,48.515,66.838,48.515z		">
<animateTransform  type="translate" fill="remove" attributeName="transform" dur="1" calcMode="linear" restart="always" values="0,0;2,-2" begin="0s" additive="replace" repeatCount="indefinite" accumulate="none" attributeType="XML">
				</animateTransform>
			
				<animate  fill="remove" to="0" attributeName="opacity" dur="1" calcMode="linear" restart="always" begin="0.5s" additive="replace" repeatCount="indefinite" accumulate="none" from="1">
				</animate>
		</path>
		<path id="smoke_1" display="inline" fill="#999999" d="M65.539,49.414c0.102,0.199-0.199,0.4-0.199,0.4c0.301,0.399,0,0.6,0,0.6
			c-0.102,0.199-0.5,0-0.5,0c-0.102,0.4-0.5,0.301-0.5,0.301c-0.4,0-0.4-0.4-0.4-0.4c-0.396-0.1-0.299-0.301-0.299-0.301
			c0-0.199,0.299-0.199,0.299-0.199c-0.5-0.2-0.299-0.5-0.299-0.5c0.104-0.399,0.604-0.1,0.604-0.1c0.396-0.301,0.694,0.1,0.694,0.1
			C65.238,49.113,65.539,49.414,65.539,49.414z		">
<animateTransform  type="translate" fill="remove" attributeName="transform" dur="0.5" calcMode="linear" restart="always" values="0,0;1,-1" begin="0s" additive="replace" repeatCount="indefinite" accumulate="none" attributeType="XML">
				</animateTransform>
			
				<animate  fill="remove" to="0" attributeName="opacity" dur="1" calcMode="linear" restart="always" begin="0.5s" additive="replace" repeatCount="indefinite" accumulate="none" from="1">
				</animate>
		</path>
	</g>
	
		<animateTransform  type="translate" fill="remove" attributeName="transform" dur="1" calcMode="linear" restart="always" values="0,0;0.1,0.1;0,0" begin="0s" additive="replace" repeatCount="indefinite" accumulate="none" attributeType="XML">
		</animateTransform>
	
		<animateTransform  type="translate" fill="remove" attributeName="transform" dur="1" calcMode="linear" restart="always" values="0,0;0.1,0.1;0,0" begin="0s" additive="replace" repeatCount="indefinite" accumulate="none" attributeType="XML">
		</animateTransform>
	<path id="parking" class="parking" d="M53.154,17.552l-9.925,0.146l-4.863,8.393l5.061,8.247l9.925-0.146l4.863-8.393L53.154,17.552z
		 M49.126,30.557c-0.078,0.056-0.208,0.083-0.39,0.083h-0.21H45.77h-0.16c-0.148,0-0.263-0.031-0.344-0.093
		c-0.08-0.062-0.12-0.15-0.12-0.265c0-0.188,0.082-0.313,0.247-0.372c0.136-0.05,0.216-0.081,0.238-0.093
		c0.022-0.011,0.046-0.037,0.071-0.079c0.049-0.073,0.074-0.189,0.074-0.351v-6.885c0-0.16-0.025-0.277-0.074-0.351
		c-0.025-0.041-0.049-0.067-0.071-0.079c-0.022-0.012-0.103-0.042-0.238-0.093c-0.165-0.06-0.247-0.184-0.247-0.371
		c0-0.115,0.04-0.203,0.12-0.266c0.081-0.062,0.195-0.093,0.344-0.093h0.16h2.751v8.082c0,0.179,0.03,0.307,0.092,0.385
		c0.033,0.046,0.064,0.075,0.093,0.086c0.029,0.012,0.124,0.04,0.285,0.086c0.197,0.051,0.296,0.177,0.296,0.379
		C49.286,30.388,49.232,30.483,49.126,30.557z M52.02,25.805c-0.279,0.444-0.672,0.772-1.176,0.983
		c-0.416,0.17-1.016,0.255-1.799,0.255v-0.736c0.178-0.046,0.303-0.094,0.374-0.145c0.072-0.051,0.136-0.128,0.188-0.233
		c0.087-0.18,0.13-0.42,0.13-0.723v-2.201c0-0.215-0.014-0.376-0.043-0.481c-0.029-0.105-0.087-0.201-0.173-0.289
		c-0.12-0.128-0.28-0.208-0.482-0.24v-0.743c0.849,0,1.477,0.09,1.879,0.269c0.466,0.206,0.834,0.522,1.105,0.949
		c0.275,0.437,0.414,0.97,0.414,1.604C52.438,24.777,52.299,25.355,52.02,25.805z"/>
</g>
<path id="Idle" class="hourglass" d="M53.122,17.539l-9.926,0.173l-4.841,8.392l5.084,8.247l9.902-0.146l4.863-8.433L53.122,17.539z M49.517,30.516
	l-2.625,0.005c0,0-0.5,0.019-0.516-0.293c0,0-0.031-0.281,0.375-0.391c0,0,0.234,0.016,0.25-0.453l-0.031-5.906
	c0,0,0.047-0.266-0.359-0.344c0,0-0.268-0.109-0.235-0.391c0,0,0.11-0.172,0.329-0.25h3.125c0,0,0.328,0.031,0.344,0.281
	c0,0,0.031,0.313-0.313,0.359c0,0-0.359,0.109-0.266,0.656l-0.031,5.641c0,0,0.031,0.422,0.328,0.438c0,0,0.361,0.063,0.283,0.484
	C50.175,30.352,50.079,30.554,49.517,30.516z"/>
<g id="Direction">
	<g transform="rotate({{angle}} 50 50)">
		<polygon id="arrow" class="arrow" opacity="0.7" enable-background="new    " points="59.7,31.4 50.8,24 41.9,31.3 41.9,35.4 42,35.4 50.8,28.1 
			59.3,35.4 59.7,35.4 		">
		
			<animate  fill="remove" attributeName="opacity" dur="0.5s" calcMode="linear" restart="always" values="0.5; 0" begin="0s;anim_arrow3.end" additive="replace" accumulate="none" id="anim_arrow1">
			</animate>
		</polygon>
		<polygon id="arrow2" class="arrow" opacity="0.7" enable-background="new    " points="59.8,26.4 50.9,19 42,26.4 42,30.4 42.1,30.4 50.9,23.2 
			59.4,30.4 59.8,30.4 		">
		
			<animate  fill="remove" attributeName="opacity" dur="0.5s" calcMode="linear" restart="always" values="0.5; 0" begin="anim_arrow1.end" additive="replace" accumulate="none" id="anim_arrow2">
			</animate>
		</polygon>
		<polygon id="arrow3" class="arrow" opacity="0.7" enable-background="new    " points="59.9,21.4 51,14.1 42.1,21.4 42.1,25.5 42.2,25.5 
			51,18.2 59.5,25.5 59.9,25.5 		">
		
			<animate  fill="remove" attributeName="opacity" dur="0.5s" calcMode="linear" restart="always" values="0.5; 0" begin="anim_arrow2.end" additive="replace" accumulate="none" id="anim_arrow3">
			</animate>
		</polygon>
	</g>
</g>
</svg>
